<svg width="390" height="263" viewBox="0 0 390 263" fill="none" xmlns="http://www.w3.org/2000/svg">
<path d="M168.843 84.675C170.855 93.6377 177.55 126.079 199.772 133.294" stroke="#FFCA3A" stroke-width="1.1"/>
<path d="M201.206 134.018L192.331 135.098" stroke="#FFCA3A" stroke-width="1.1"/>
<path d="M201.206 134.019L196.422 128.178" stroke="#FFCA3A" stroke-width="1.1"/>
<path d="M19.0651 9.488C17.5531 9.488 15.7891 11.378 15.7891 12.728C15.7891 13.448 16.1671 13.808 16.8871 13.808C17.4451 13.808 17.8771 13.556 18.0571 13.394L18.5791 14.438C18.1291 14.78 17.4811 14.996 16.8331 14.996C15.3391 14.996 14.4571 14.078 14.4571 12.746C14.4571 10.802 16.7071 8.264 19.1191 8.264C20.4511 8.264 21.1711 9.02 21.1711 10.28V20H19.9831C19.8931 19.046 19.1911 18.524 17.3911 18.524C16.8511 18.524 15.7531 18.578 15.1411 18.578C12.6391 18.578 11.2351 17.336 11.2351 15.572C11.2351 14.744 11.5051 14.078 11.8291 13.646L13.0891 14.168C12.7111 14.582 12.5671 15.086 12.5671 15.59C12.5671 16.58 13.3231 17.372 15.3571 17.372C16.0951 17.372 16.9771 17.318 17.5531 17.318C18.8671 17.318 19.4791 17.534 19.9111 17.93H19.9831C19.9291 17.552 19.8751 16.706 19.8751 14.204V10.262C19.8751 9.776 19.6591 9.488 19.0651 9.488ZM24.2497 13.43C24.2497 11.864 25.4377 10.712 27.2377 10.712C29.1817 10.712 30.5317 12.008 30.5317 13.88C30.5317 15.914 29.1457 17.12 26.9677 17.372V17.444C27.5077 17.588 28.3717 18.056 29.4877 18.74L31.3957 19.892L30.4777 20.774C26.1757 18.182 25.7077 17.858 24.2137 17.66V16.526H25.3837C28.2277 16.526 29.2357 15.302 29.2357 13.826C29.2357 12.71 28.4437 11.936 27.2557 11.936C26.2297 11.936 25.5637 12.548 25.5637 13.484C25.5637 14.024 25.8517 14.474 26.3377 14.78L25.3837 15.5C24.6457 15.05 24.2497 14.276 24.2497 13.43ZM23.3137 3.44L24.5557 3.17C24.5377 3.368 24.5017 3.602 24.5017 3.8C24.5017 4.466 24.7717 5.114 26.2297 5.114H27.3817C29.1637 5.114 30.5137 5.96 30.5137 7.634C30.5137 7.868 30.4777 8.156 30.4417 8.444H32.2237V9.596H22.6117V8.444H29.1277C29.1817 8.192 29.1997 7.886 29.1997 7.724C29.1997 6.698 28.5877 6.284 27.1837 6.284H26.1397C23.8897 6.284 23.2777 5.15 23.2777 3.98C23.2777 3.8 23.2777 3.62 23.3137 3.44ZM48.5718 6.446C47.3118 5.33 45.3498 4.304 43.1358 4.304C41.1558 4.304 40.1658 5.6 40.1658 7.094V8.444H42.3258V9.596H40.1658V20H38.8518V9.596H36.6918V8.444H38.8518V6.932C38.8518 4.916 40.3818 3.08 43.1178 3.08C45.8718 3.08 48.1938 4.448 49.3638 5.51L48.5718 6.446ZM48.0576 12.62C49.6236 13.196 50.4876 14.042 50.4876 15.536C50.4876 17.732 48.4716 20.018 46.1856 20.018C44.6556 20.018 43.7556 19.136 43.7556 17.768V9.596H41.6136V8.444H51.7836V9.596H44.9976V10.082C44.9976 11.108 45.6276 11.702 46.5816 12.062L48.0576 12.62ZM44.9616 12.422C44.9976 12.584 45.0516 13.556 45.0516 15.248V17.732C45.0516 18.38 45.3936 18.812 46.2036 18.812C47.4456 18.812 49.1556 17.246 49.1556 15.518C49.1556 14.816 48.8496 14.24 47.6076 13.79L46.4376 13.358C45.6456 13.07 45.2316 12.656 45.0336 12.422H44.9616ZM55.2287 17.48C55.7687 17.624 56.6327 18.038 57.7487 18.722L59.6747 19.874L58.7387 20.774C54.5087 18.218 53.9687 17.876 52.5467 17.678V16.526H53.6447C56.4887 16.526 57.4967 15.302 57.4967 13.88C57.4967 12.71 56.7047 11.936 55.5167 11.936C54.4907 11.936 53.7707 12.548 53.7707 13.484C53.7707 13.97 54.0227 14.474 54.5447 14.744L53.5907 15.464C52.8527 15.032 52.4567 14.258 52.4567 13.412C52.4567 11.882 53.6987 10.712 55.4987 10.712C56.9207 10.712 58.0367 11.414 58.5227 12.512C59.0987 11.486 59.9627 10.856 61.2587 10.856C63.0047 10.856 64.2827 11.936 64.2827 13.79C64.2827 15.752 62.9867 16.706 61.4747 16.706C60.9347 16.706 60.3227 16.616 59.8547 16.382L60.1787 15.266C60.6647 15.446 60.9887 15.5 61.3847 15.5C62.2487 15.5 62.9867 14.924 62.9867 13.79C62.9867 12.746 62.3567 12.08 61.2407 12.08C59.8007 12.08 59.0987 13.556 58.6487 14.96C58.2347 16.346 56.9927 17.21 55.2287 17.408V17.48ZM65.4347 9.596H51.0707V8.444H65.4347V9.596ZM65.1433 3.44L66.3853 3.17C66.3673 3.368 66.3313 3.566 66.3313 3.764C66.3313 4.43 66.6193 5.114 68.0953 5.114H70.4533C72.2353 5.114 73.5853 5.96 73.5853 7.634C73.5853 7.868 73.5493 8.156 73.4953 8.444H75.2593V9.596H68.1493V16.418C68.1493 17.228 68.5813 17.84 69.5353 17.84C71.1373 17.84 72.4873 16.382 72.4873 14.708C72.4873 13.79 72.1093 13.088 71.2093 13.088C70.7593 13.088 70.3273 13.322 70.0933 13.664L69.3553 12.62C69.7153 12.224 70.3453 11.828 71.2093 11.828C72.7573 11.828 73.8193 12.998 73.8193 14.708C73.8193 16.868 72.0193 19.064 69.4993 19.064C67.8793 19.064 66.8533 18.038 66.8533 16.508V9.596H64.7293V8.444H72.1993C72.2533 8.192 72.2713 7.886 72.2713 7.724C72.2713 6.698 71.6593 6.284 70.2553 6.284H68.0053C65.7553 6.284 65.1073 5.132 65.1073 3.962C65.1073 3.782 65.1073 3.62 65.1433 3.44ZM76.7155 7.184V6.662H78.0115V8.444H80.1715V9.596H78.0115V20H76.6975V11.09C76.6975 10.064 76.2115 9.596 75.2575 9.596H74.5375V8.444H75.4735C76.3735 8.444 76.7335 8.876 76.8775 9.074H76.9675C76.9135 8.93 76.7155 8.21 76.7155 7.184ZM81.6013 20.144C81.6013 20.684 81.9793 21.044 82.4833 21.044C83.0053 21.044 83.3833 20.684 83.3833 20.144C83.3833 19.622 83.0053 19.262 82.4833 19.262C81.9793 19.262 81.6013 19.622 81.6013 20.144ZM86.5873 9.596H79.4593V8.444H90.0613V9.596H87.9193V18.848L88.6573 19.334L87.7393 20.252L80.7373 15.662V14.456C81.7813 13.412 84.4273 11.648 86.5873 10.946V9.596ZM86.5873 12.26C85.1113 12.8 82.9153 14.186 82.0513 15.05L86.6593 18.056H86.7313C86.6233 16.85 86.5873 15.608 86.5873 14.438V12.26ZM97.5298 16.022L96.3598 16.544C95.9278 16.13 95.6758 15.536 95.6758 14.798C95.6758 13.07 96.8098 11.936 98.7358 11.936C101.058 11.936 102.48 13.61 103.2 15.14H103.272C103.254 14.996 103.092 13.844 103.092 11.558V9.596H94.5238V8.444H106.566V9.596H104.424V20H103.092V19.622C103.092 16.796 101.508 13.178 98.8078 13.178C97.5838 13.178 96.9898 13.862 96.9898 14.798C96.9898 15.266 97.2058 15.698 97.5298 16.022ZM108.022 7.184V6.662H109.318V8.444H111.478V9.596H109.318V20H108.004V11.09C108.004 10.064 107.518 9.596 106.564 9.596H105.844V8.444H106.78C107.68 8.444 108.04 8.876 108.184 9.074H108.274C108.22 8.93 108.022 8.21 108.022 7.184ZM122.016 9.596H119.856V20H118.596C118.362 18.11 116.886 15.968 115.068 15.428C114.744 16.454 114.114 16.832 113.592 16.832C112.962 16.832 112.53 16.418 112.53 15.788C112.53 15.068 113.07 14.402 113.988 14.222C113.988 14.15 113.988 14.06 113.988 13.952C113.988 11.864 112.602 10.262 111.792 9.83V9.596H110.766V8.444H122.016V9.596ZM118.614 16.976L118.65 16.958C118.614 16.112 118.542 15.05 118.542 13.718V9.596H113.556V9.668C114.132 10.244 115.248 11.846 115.248 13.97C115.248 14.078 115.248 14.186 115.248 14.276C116.778 14.6 118.02 15.86 118.614 16.976ZM133.519 15.5C132.799 15.068 132.331 14.276 132.331 13.304C132.331 11.864 133.321 10.766 135.013 10.766C137.065 10.766 138.163 12.458 138.163 14.51C138.163 17.084 136.417 18.884 133.879 18.884C130.297 18.884 128.443 15.662 127.669 11.612L128.893 11.072C129.541 14.636 130.963 17.714 133.879 17.714C135.715 17.714 136.849 16.256 136.849 14.492C136.849 12.998 136.255 11.99 135.049 11.99C134.221 11.99 133.645 12.494 133.645 13.376C133.645 13.952 133.915 14.438 134.419 14.726L133.519 15.5ZM139.459 8.444V9.596H126.481V8.444H139.459ZM140.911 7.184V6.662H142.207V8.444H144.367V9.596H142.207V20H140.893V11.09C140.893 10.064 140.407 9.596 139.453 9.596H138.733V8.444H139.669C140.569 8.444 140.929 8.876 141.073 9.074H141.163C141.109 8.93 140.911 8.21 140.911 7.184ZM145.311 9.596H143.655V8.444H145.311C146.625 8.444 147.669 8.984 148.281 9.866C148.911 9.002 149.919 8.462 151.035 8.462C152.565 8.462 153.357 9.236 153.591 9.614H153.663C153.627 9.488 153.465 8.552 153.465 7.364V6.662H154.761V8.444H156.921V9.596H154.761V20H153.447V12.134C153.447 10.496 152.403 9.668 151.071 9.668C150.009 9.668 148.911 10.424 148.911 11.9C148.911 13.196 149.937 13.934 151.143 13.934C151.323 13.934 151.557 13.916 151.737 13.88V15.068C151.611 15.086 151.377 15.122 151.125 15.122C149.919 15.122 148.803 14.618 148.227 13.682C147.705 14.636 146.697 15.158 145.419 15.158C145.077 15.158 144.627 15.068 144.429 15.014V13.79C144.663 13.916 145.095 13.952 145.401 13.952C146.787 13.952 147.615 13.088 147.615 11.864C147.615 10.298 146.625 9.596 145.311 9.596ZM164.521 20H163.171V16.292C163.171 14.978 163.405 13.772 163.675 12.836C162.109 13.862 160.687 15.356 159.535 16.958L158.203 16.364V9.596H156.205V8.444H166.771V9.596H159.517V14.96C160.399 13.826 162.379 11.99 163.945 11.342L165.151 12.008C164.737 13.286 164.521 14.852 164.521 16.328V20ZM164.429 5.546L164.627 5.636V8.444H163.403V7.004C162.809 7.202 161.963 7.382 161.081 7.382C158.903 7.382 157.661 6.392 157.661 5.06C157.661 3.53 159.119 2.468 161.747 2.468C166.301 2.468 169.235 4.844 169.505 8.444H171.665V9.596H169.523V20H168.209V9.596H166.049V8.444H168.173C167.957 5.312 165.347 3.62 161.855 3.62C159.821 3.62 158.993 4.214 158.993 5.042C158.993 5.618 159.425 6.266 161.189 6.266C162.539 6.266 163.619 5.888 164.429 5.546ZM179.287 20H177.937V16.292C177.937 14.978 178.171 13.772 178.441 12.836C176.875 13.862 175.453 15.356 174.301 16.958L172.969 16.364V9.596H170.971V8.444H181.537V9.596H174.283V14.96C175.165 13.826 177.145 11.99 178.711 11.342L179.917 12.008C179.503 13.286 179.287 14.852 179.287 16.328V20ZM227.339 19.172L226.673 20.234C224.675 19.46 223.613 17.354 223.613 14.726C223.613 12.836 224.099 10.64 225.647 8.444H227.897V9.596H226.511C225.557 10.946 224.927 12.836 224.927 14.726C224.927 16.85 225.683 18.416 227.339 19.172ZM230.264 9.596V9.668L232.55 12.08V13.088L229.85 15.176L234.656 18.182H234.728C234.638 16.886 234.566 15.77 234.566 14.618V9.596H230.264ZM235.7 20.27L228.644 15.878V14.546L231.272 12.53L228.842 9.956V9.596H227.186V8.444H238.04V9.596H235.88V18.92L236.6 19.37L235.7 20.27ZM238.966 13.43C238.966 11.864 240.154 10.712 241.954 10.712C243.898 10.712 245.248 12.008 245.248 13.88C245.248 15.914 243.862 17.12 241.684 17.372V17.444C242.224 17.588 243.088 18.056 244.204 18.74L246.112 19.892L245.194 20.774C240.892 18.182 240.424 17.858 238.93 17.66V16.526H240.1C242.944 16.526 243.952 15.302 243.952 13.826C243.952 12.71 243.16 11.936 241.972 11.936C240.946 11.936 240.28 12.548 240.28 13.484C240.28 14.024 240.568 14.474 241.054 14.78L240.1 15.5C239.362 15.05 238.966 14.276 238.966 13.43ZM238.03 3.44L239.272 3.17C239.254 3.368 239.218 3.602 239.218 3.8C239.218 4.466 239.488 5.114 240.946 5.114H242.098C243.88 5.114 245.23 5.96 245.23 7.634C245.23 7.868 245.194 8.156 245.158 8.444H246.94V9.596H237.328V8.444H243.844C243.898 8.192 243.916 7.886 243.916 7.724C243.916 6.698 243.304 6.284 241.9 6.284H240.856C238.606 6.284 237.994 5.15 237.994 3.98C237.994 3.8 237.994 3.62 238.03 3.44ZM251.409 9.596V8.444H268.203V9.596H266.061V18.938L266.745 19.424L265.755 20.234L261.597 17.156C260.859 17.876 259.815 18.326 258.537 18.326C254.991 18.326 253.047 15.428 252.255 11.45L253.461 10.91C254.127 14.42 255.639 17.156 258.537 17.156C260.355 17.156 261.417 15.878 261.417 14.222C261.417 12.764 260.697 11.954 259.617 11.954C258.771 11.954 258.213 12.44 258.213 13.322C258.213 13.808 258.465 14.294 258.987 14.582L258.033 15.284C257.295 14.888 256.881 14.078 256.881 13.232C256.881 11.846 257.871 10.712 259.581 10.712C261.435 10.712 262.731 12.206 262.731 14.24C262.731 14.942 262.569 15.608 262.299 16.166L264.783 18.056L264.855 18.038C264.765 16.832 264.747 15.608 264.747 14.456V9.596H251.409ZM279.715 13.736H278.941V20.054H277.717C277.321 18.488 275.665 17.048 273.613 16.85C273.307 17.894 272.677 18.236 272.191 18.236C271.579 18.236 271.183 17.876 271.183 17.264C271.183 16.634 271.687 16.04 272.551 15.788C272.551 15.662 272.551 15.536 272.551 15.41C272.551 14.114 271.723 13.304 270.697 13.07C270.427 14.06 269.779 14.456 269.275 14.456C268.681 14.456 268.285 14.078 268.285 13.466C268.285 12.818 268.771 12.224 269.635 11.99C269.617 10.946 269.185 10.172 268.555 9.596H267.475V8.444H283.873V9.596H278.941V12.53H279.679C281.623 12.53 282.847 13.592 282.847 15.23C282.847 16.688 282.073 17.588 281.101 18.092L280.255 17.12C280.975 16.814 281.569 16.202 281.569 15.23C281.569 14.186 280.795 13.736 279.715 13.736ZM277.753 17.84C277.663 16.76 277.627 15.32 277.627 14.24V13.736H276.313C274.747 13.736 273.595 12.728 273.595 10.91V9.596H270.049C270.517 10.262 270.823 11.108 270.823 11.918C272.371 12.134 273.793 13.43 273.793 15.374C273.793 15.482 273.793 15.59 273.793 15.698C275.665 15.842 277.267 17.066 277.753 17.84ZM276.295 12.53H277.627V9.596H274.873V10.928C274.873 12.008 275.377 12.53 276.295 12.53ZM288.195 19.172L287.529 20.234C285.531 19.46 284.469 17.354 284.469 14.726C284.469 12.854 285.063 10.928 285.855 9.596H283.155V8.444H288.753V9.596H287.349C286.395 10.82 285.783 12.836 285.783 14.726C285.783 16.85 286.539 18.416 288.195 19.172ZM290.183 20.144C290.183 20.684 290.561 21.044 291.065 21.044C291.587 21.044 291.965 20.684 291.965 20.144C291.965 19.622 291.587 19.262 291.065 19.262C290.561 19.262 290.183 19.622 290.183 20.144ZM295.169 9.596H288.041V8.444H298.643V9.596H296.501V18.848L297.239 19.334L296.321 20.252L289.319 15.662V14.456C290.363 13.412 293.009 11.648 295.169 10.946V9.596ZM295.169 12.26C293.693 12.8 291.497 14.186 290.633 15.05L295.241 18.056H295.313C295.205 16.85 295.169 15.608 295.169 14.438V12.26ZM300.062 20.144C300.062 20.684 300.44 21.044 300.944 21.044C301.466 21.044 301.844 20.684 301.844 20.144C301.844 19.622 301.466 19.262 300.944 19.262C300.44 19.262 300.062 19.622 300.062 20.144ZM305.048 9.596H297.92V8.444H308.522V9.596H306.38V18.848L307.118 19.334L306.2 20.252L299.198 15.662V14.456C300.242 13.412 302.888 11.648 305.048 10.946V9.596ZM305.048 12.26C303.572 12.8 301.376 14.186 300.512 15.05L305.12 18.056H305.192C305.084 16.85 305.048 15.608 305.048 14.438V12.26ZM313.957 3.44L315.217 3.17C315.181 3.368 315.163 3.566 315.163 3.764C315.163 4.43 315.451 5.114 316.927 5.114H320.923C322.705 5.114 324.055 5.96 324.055 7.634C324.055 7.868 324.019 8.156 323.965 8.444H325.513V9.596H319.177V12.44C319.177 13.052 319.411 13.43 320.023 13.43C320.581 13.43 321.823 13.052 323.101 11.864C323.695 12.26 324.451 13.322 324.451 14.672C324.451 17.156 322.651 18.902 319.825 18.902C316.207 18.902 314.191 15.914 314.029 12.458L315.289 12.188C315.415 15.626 317.251 17.678 319.843 17.678C321.823 17.678 323.155 16.49 323.155 14.708C323.155 14.204 323.029 13.772 322.849 13.538C321.985 14.258 320.905 14.654 319.933 14.654C318.619 14.654 317.845 13.736 317.845 12.512V9.596H313.201V8.444H322.669C322.705 8.192 322.741 7.904 322.741 7.724C322.741 6.698 322.129 6.284 320.725 6.284H316.837C314.569 6.284 313.921 5.132 313.921 3.962C313.921 3.782 313.921 3.62 313.957 3.44ZM327.42 10.892C328.752 11.018 329.904 11.828 330.498 13.646L333.522 11.666C332.928 10.388 331.83 9.542 330.3 9.542C328.788 9.542 327.78 10.406 327.42 10.892ZM335.358 20H334.026V14.132C334.026 13.682 333.99 13.25 333.9 12.854L328.266 16.526L327.6 15.518L329.472 14.294C329.13 13.196 328.482 12.044 326.916 11.954C326.79 11.936 326.646 11.918 326.502 11.918L325.746 10.874C326.466 9.722 327.96 8.336 330.246 8.336C332.478 8.336 333.702 9.632 334.242 10.658L334.296 10.64C334.206 10.37 334.026 8.822 334.026 7.418V6.662H335.358V8.444H337.5V9.596H335.358V20ZM338.928 20.144C338.928 20.684 339.306 21.044 339.81 21.044C340.332 21.044 340.71 20.684 340.71 20.144C340.71 19.622 340.332 19.262 339.81 19.262C339.306 19.262 338.928 19.622 338.928 20.144ZM343.914 9.596H336.786V8.444H347.388V9.596H345.246V18.848L345.984 19.334L345.066 20.252L338.064 15.662V14.456C339.108 13.412 341.754 11.648 343.914 10.946V9.596ZM343.914 12.26C342.438 12.8 340.242 14.186 339.378 15.05L343.986 18.056H344.058C343.95 16.85 343.914 15.608 343.914 14.438V12.26ZM361.03 9.488C359.518 9.488 357.754 11.378 357.754 12.728C357.754 13.448 358.132 13.808 358.852 13.808C359.41 13.808 359.842 13.556 360.022 13.394L360.544 14.438C360.094 14.78 359.446 14.996 358.798 14.996C357.304 14.996 356.422 14.078 356.422 12.746C356.422 10.802 358.672 8.264 361.084 8.264C362.416 8.264 363.136 9.02 363.136 10.28V20H361.948C361.858 19.046 361.156 18.524 359.356 18.524C358.816 18.524 357.718 18.578 357.106 18.578C354.604 18.578 353.2 17.336 353.2 15.572C353.2 14.744 353.47 14.078 353.794 13.646L355.054 14.168C354.676 14.582 354.532 15.086 354.532 15.59C354.532 16.58 355.288 17.372 357.322 17.372C358.06 17.372 358.942 17.318 359.518 17.318C360.832 17.318 361.444 17.534 361.876 17.93H361.948C361.894 17.552 361.84 16.706 361.84 14.204V10.262C361.84 9.776 361.624 9.488 361.03 9.488ZM374.927 5.708C375.431 5.708 375.845 5.762 376.187 5.852C375.071 4.808 373.199 4.088 371.165 4.088C370.661 4.088 370.229 4.16 369.851 4.268C369.851 4.286 369.851 4.286 369.851 4.304C369.851 4.97 370.103 5.708 371.633 5.708H374.927ZM366.737 20V9.596H364.577V8.444H366.737V6.842C366.737 4.664 368.069 2.9 371.147 2.9C374.783 2.9 378.473 5.132 378.473 7.994C378.473 8.084 378.455 8.264 378.437 8.444H380.111V9.596H373.001V16.418C373.001 17.228 373.433 17.84 374.387 17.84C375.989 17.84 377.339 16.382 377.339 14.708C377.339 13.79 376.961 13.088 376.061 13.088C375.593 13.088 375.179 13.322 374.945 13.664L374.207 12.62C374.567 12.224 375.197 11.828 376.061 11.828C377.591 11.828 378.653 12.998 378.653 14.708C378.653 16.868 376.871 19.064 374.351 19.064C372.731 19.064 371.705 18.038 371.705 16.508V9.596H368.051V20H366.737ZM368.051 8.444H377.231C377.267 8.228 377.267 8.03 377.267 7.976C377.195 6.824 376.277 6.788 375.341 6.788H371.597C369.581 6.788 368.933 5.906 368.807 4.88C368.285 5.402 368.051 6.14 368.051 6.95V8.444ZM15.7328 40.016C15.0488 39.476 14.8508 38.72 14.8508 38.09C14.8508 36.488 16.0928 35.372 17.8028 35.372C19.4768 35.372 21.0068 36.452 21.0068 38.378C21.0068 40.16 19.8008 41.852 16.8128 42.392V42.464L22.8248 45.326H22.8968C22.7888 44.03 22.7708 42.806 22.7708 41.672V33.662H24.1028V35.444H26.2448V36.596H24.1028V45.884L24.8768 46.262L24.0128 47.234L14.8508 42.95V41.51C18.4328 41.33 19.6928 39.89 19.6928 38.378C19.6928 37.352 18.9728 36.596 17.8208 36.596C16.9028 36.596 16.1648 37.172 16.1648 38.108C16.1648 38.63 16.3988 39.062 16.7948 39.404L15.7328 40.016ZM27.6989 34.184V33.662H28.9949V35.444H31.1549V36.596H28.9949V47H27.6809V38.09C27.6809 37.064 27.1949 36.596 26.2409 36.596H25.5209V35.444H26.4569C27.3569 35.444 27.7169 35.876 27.8609 36.074H27.9509C27.8969 35.93 27.6989 35.21 27.6989 34.184ZM39.6047 43.868C40.3787 43.544 41.0447 42.716 41.0447 41.726C41.0447 40.466 40.0727 39.512 38.2727 39.476V45.794L39.0107 46.388L37.9847 47.18L31.7207 42.014V40.862C33.2327 39.566 35.0507 38.594 36.9767 38.324V36.596H30.4427V35.444H43.6007V36.596H38.2727V38.252C40.8827 38.306 42.3407 39.98 42.3407 41.744C42.3407 43.148 41.5487 44.264 40.5227 44.822L39.6047 43.868ZM33.0347 41.474L37.0307 44.84H37.1027C36.9947 43.544 36.9767 42.356 36.9767 41.222V39.584C35.4647 39.8 34.0427 40.646 33.0347 41.474ZM47.928 46.172L47.262 47.234C45.264 46.46 44.202 44.354 44.202 41.726C44.202 39.854 44.796 37.928 45.588 36.596H42.888V35.444H48.486V36.596H47.082C46.128 37.82 45.516 39.836 45.516 41.726C45.516 43.85 46.272 45.416 47.928 46.172ZM54.9028 36.596H47.7748V35.444H58.3768V36.596H56.2348V45.848L56.9728 46.334L56.0548 47.252L49.0528 42.662V41.456C50.0968 40.412 52.7428 38.648 54.9028 37.946V36.596ZM54.9028 39.26C53.4268 39.8 51.2308 41.186 50.3668 42.05L54.9748 45.056H55.0468C54.9388 43.85 54.9028 42.608 54.9028 41.438V39.26ZM59.2197 49.538L58.7697 48.8C59.5617 48.458 60.1017 47.936 60.1017 47.324C60.1017 46.73 59.7417 46.406 59.0757 46.064V45.938C59.0757 45.326 59.5257 44.858 60.1737 44.858C60.9117 44.858 61.4877 45.416 61.4877 46.46C61.4877 48.026 60.2457 49.178 59.2197 49.538ZM72.905 36.956C72.437 36.704 71.969 36.596 71.429 36.596C70.475 36.596 69.863 37.136 69.863 38.018C69.863 39.026 70.637 39.566 72.023 39.566C73.067 39.566 74.309 38.918 75.353 38.252V35.444H78.827V36.596H76.667V45.848L77.423 46.244L76.631 47.234L68.747 43.22V41.996L69.755 41.42C70.619 40.898 71.429 40.592 71.429 40.592V40.52C69.827 40.484 68.567 39.584 68.567 37.982C68.567 36.506 69.629 35.408 71.357 35.408C72.095 35.408 72.761 35.552 73.355 35.894L72.905 36.956ZM75.515 45.236C75.407 43.958 75.353 42.68 75.353 41.546V39.638L70.205 42.554L75.443 45.236H75.515ZM83.1546 46.172L82.4886 47.234C80.4906 46.46 79.4286 44.354 79.4286 41.726C79.4286 39.854 80.0226 37.928 80.8146 36.596H78.1146V35.444H83.7126V36.596H82.3086C81.3546 37.82 80.7426 39.836 80.7426 41.726C80.7426 43.85 81.4986 45.416 83.1546 46.172ZM85.1433 47.144C85.1433 47.684 85.5213 48.044 86.0253 48.044C86.5473 48.044 86.9253 47.684 86.9253 47.144C86.9253 46.622 86.5473 46.262 86.0253 46.262C85.5213 46.262 85.1433 46.622 85.1433 47.144ZM90.1293 36.596H83.0013V35.444H93.6033V36.596H91.4613V45.848L92.1993 46.334L91.2813 47.252L84.2793 42.662V41.456C85.3233 40.412 87.9693 38.648 90.1293 37.946V36.596ZM90.1293 39.26C88.6533 39.8 86.4573 41.186 85.5933 42.05L90.2013 45.056H90.2733C90.1653 43.85 90.1293 42.608 90.1293 41.438V39.26ZM109.946 33.446C108.686 32.33 106.724 31.304 104.51 31.304C102.53 31.304 101.54 32.6 101.54 34.094V35.444H103.7V36.596H101.54V47H100.226V36.596H98.0658V35.444H100.226V33.932C100.226 31.916 101.756 30.08 104.492 30.08C107.246 30.08 109.568 31.448 110.738 32.51L109.946 33.446ZM105.994 43.022L104.824 43.544C104.392 43.13 104.14 42.536 104.14 41.798C104.14 40.07 105.274 38.936 107.2 38.936C109.522 38.936 110.944 40.61 111.664 42.14H111.736C111.718 41.996 111.556 40.844 111.556 38.558V36.596H102.988V35.444H115.03V36.596H112.888V47H111.556V46.622C111.556 43.796 109.972 40.178 107.272 40.178C106.048 40.178 105.454 40.862 105.454 41.798C105.454 42.266 105.67 42.698 105.994 43.022ZM119.348 46.172L118.682 47.234C116.684 46.46 115.622 44.354 115.622 41.726C115.622 39.854 116.216 37.928 117.008 36.596H114.308V35.444H119.906V36.596H118.502C117.548 37.82 116.936 39.836 116.936 41.726C116.936 43.85 117.692 45.416 119.348 46.172ZM126.233 42.5C125.513 42.068 125.045 41.276 125.045 40.304C125.045 38.864 126.035 37.766 127.727 37.766C129.779 37.766 130.877 39.458 130.877 41.51C130.877 44.084 129.131 45.884 126.593 45.884C123.011 45.884 121.157 42.662 120.383 38.612L121.607 38.072C122.255 41.636 123.677 44.714 126.593 44.714C128.429 44.714 129.563 43.256 129.563 41.492C129.563 39.998 128.969 38.99 127.763 38.99C126.935 38.99 126.359 39.494 126.359 40.376C126.359 40.952 126.629 41.438 127.133 41.726L126.233 42.5ZM132.173 35.444V36.596H119.195V35.444H132.173ZM141.024 44.48C141.564 44.624 142.464 45.038 143.58 45.722L145.488 46.874L144.534 47.774C140.25 45.182 139.764 44.858 138.288 44.66V43.526H139.44C142.284 43.526 143.292 42.302 143.292 40.826C143.292 39.71 142.518 38.936 141.312 38.936C140.286 38.936 139.566 39.548 139.566 40.484C139.566 40.97 139.836 41.474 140.34 41.744L139.386 42.464C138.648 42.032 138.252 41.258 138.252 40.412C138.252 38.882 139.494 37.712 141.294 37.712C143.238 37.712 144.606 39.008 144.606 40.88C144.606 42.914 143.22 44.156 141.024 44.408V44.48ZM136.632 36.596V35.444H146.244V36.596H136.632ZM150.567 46.172L149.901 47.234C147.903 46.46 146.841 44.354 146.841 41.726C146.841 39.854 147.435 37.928 148.227 36.596H145.527V35.444H151.125V36.596H149.721C148.767 37.82 148.155 39.836 148.155 41.726C148.155 43.85 148.911 45.416 150.567 46.172ZM157.541 36.596H150.413V35.444H161.015V36.596H158.873V45.848L159.611 46.334L158.693 47.252L151.691 42.662V41.456C152.735 40.412 155.381 38.648 157.541 37.946V36.596ZM157.541 39.26C156.065 39.8 153.869 41.186 153.005 42.05L157.613 45.056H157.685C157.577 43.85 157.541 42.608 157.541 41.438V39.26ZM170.518 46.172L169.852 47.234C167.854 46.46 166.792 44.354 166.792 41.726C166.792 39.836 167.278 37.64 168.826 35.444H171.076V36.596H169.69C168.736 37.946 168.106 39.836 168.106 41.726C168.106 43.85 168.862 45.416 170.518 46.172ZM173.551 44.408C172.111 44.408 171.247 43.49 170.941 42.716L171.931 41.996C172.165 42.518 172.579 43.202 173.569 43.202C174.577 43.202 175.063 42.356 175.063 41.42C175.063 40.124 174.559 39.422 173.461 38.216L172.327 36.956V36.596H170.365V35.444H182.929V36.596H180.787V47H179.455V41.996C179.455 41.312 179.113 40.916 178.447 40.916C177.709 40.916 177.043 41.798 176.305 42.68C175.531 43.58 174.667 44.408 173.551 44.408ZM179.509 40.034C179.455 38.972 179.455 37.82 179.455 37.766V36.596H173.785V36.668L174.685 37.73C175.441 38.63 176.125 39.476 176.161 40.664C176.179 40.808 176.179 41.006 176.179 41.15C176.629 40.484 177.385 39.638 178.375 39.638C178.897 39.638 179.257 39.818 179.509 40.034ZM183.868 40.43C183.868 38.864 185.056 37.712 186.856 37.712C188.8 37.712 190.15 39.008 190.15 40.88C190.15 42.914 188.764 44.12 186.586 44.372V44.444C187.126 44.588 187.99 45.056 189.106 45.74L191.014 46.892L190.096 47.774C185.794 45.182 185.326 44.858 183.832 44.66V43.526H185.002C187.846 43.526 188.854 42.302 188.854 40.826C188.854 39.71 188.062 38.936 186.874 38.936C185.848 38.936 185.182 39.548 185.182 40.484C185.182 41.024 185.47 41.474 185.956 41.78L185.002 42.5C184.264 42.05 183.868 41.276 183.868 40.43ZM182.932 30.44L184.174 30.17C184.156 30.368 184.12 30.602 184.12 30.8C184.12 31.466 184.39 32.114 185.848 32.114H187C188.782 32.114 190.132 32.96 190.132 34.634C190.132 34.868 190.096 35.156 190.06 35.444H191.842V36.596H182.23V35.444H188.746C188.8 35.192 188.818 34.886 188.818 34.724C188.818 33.698 188.206 33.284 186.802 33.284H185.758C183.508 33.284 182.896 32.15 182.896 30.98C182.896 30.8 182.896 30.62 182.932 30.44ZM196.31 36.596V35.444H213.104V36.596H210.962V45.938L211.646 46.424L210.656 47.234L206.498 44.156C205.76 44.876 204.716 45.326 203.438 45.326C199.892 45.326 197.948 42.428 197.156 38.45L198.362 37.91C199.028 41.42 200.54 44.156 203.438 44.156C205.256 44.156 206.318 42.878 206.318 41.222C206.318 39.764 205.598 38.954 204.518 38.954C203.672 38.954 203.114 39.44 203.114 40.322C203.114 40.808 203.366 41.294 203.888 41.582L202.934 42.284C202.196 41.888 201.782 41.078 201.782 40.232C201.782 38.846 202.772 37.712 204.482 37.712C206.336 37.712 207.632 39.206 207.632 41.24C207.632 41.942 207.47 42.608 207.2 43.166L209.684 45.056L209.756 45.038C209.666 43.832 209.648 42.608 209.648 41.456V36.596H196.31ZM224.616 40.736H223.842V47.054H222.618C222.222 45.488 220.566 44.048 218.514 43.85C218.208 44.894 217.578 45.236 217.092 45.236C216.48 45.236 216.084 44.876 216.084 44.264C216.084 43.634 216.588 43.04 217.452 42.788C217.452 42.662 217.452 42.536 217.452 42.41C217.452 41.114 216.624 40.304 215.598 40.07C215.328 41.06 214.68 41.456 214.176 41.456C213.582 41.456 213.186 41.078 213.186 40.466C213.186 39.818 213.672 39.224 214.536 38.99C214.518 37.946 214.086 37.172 213.456 36.596H212.376V35.444H228.774V36.596H223.842V39.53H224.58C226.524 39.53 227.748 40.592 227.748 42.23C227.748 43.688 226.974 44.588 226.002 45.092L225.156 44.12C225.876 43.814 226.47 43.202 226.47 42.23C226.47 41.186 225.696 40.736 224.616 40.736ZM222.654 44.84C222.564 43.76 222.528 42.32 222.528 41.24V40.736H221.214C219.648 40.736 218.496 39.728 218.496 37.91V36.596H214.95C215.418 37.262 215.724 38.108 215.724 38.918C217.272 39.134 218.694 40.43 218.694 42.374C218.694 42.482 218.694 42.59 218.694 42.698C220.566 42.842 222.168 44.066 222.654 44.84ZM221.196 39.53H222.528V36.596H219.774V37.928C219.774 39.008 220.278 39.53 221.196 39.53ZM230.198 47.144C230.198 47.684 230.576 48.044 231.08 48.044C231.602 48.044 231.98 47.684 231.98 47.144C231.98 46.622 231.602 46.262 231.08 46.262C230.576 46.262 230.198 46.622 230.198 47.144ZM235.184 36.596H228.056V35.444H238.658V36.596H236.516V45.848L237.254 46.334L236.336 47.252L229.334 42.662V41.456C230.378 40.412 233.024 38.648 235.184 37.946V36.596ZM235.184 39.26C233.708 39.8 231.512 41.186 230.648 42.05L235.256 45.056H235.328C235.22 43.85 235.184 42.608 235.184 41.438V39.26ZM251.436 47H250.086V43.292C250.086 41.978 250.32 40.772 250.59 39.836C249.024 40.862 247.602 42.356 246.45 43.958L245.118 43.364V36.596H243.12V35.444H253.686V36.596H246.432V41.96C247.314 40.826 249.294 38.99 250.86 38.342L252.066 39.008C251.652 40.286 251.436 41.852 251.436 43.328V47ZM248.34 51.698C249.546 51.698 250.122 50.69 250.122 49.34V49.124C249.528 48.8 248.934 48.62 248.322 48.62C247.242 48.62 246.666 49.304 246.666 50.204C246.666 51.068 247.368 51.698 248.34 51.698ZM253.722 52.508C253.002 51.608 252.21 50.708 251.382 50.006C251.166 51.698 250.158 52.796 248.322 52.796C246.522 52.796 245.406 51.662 245.406 50.204C245.406 48.602 246.612 47.522 248.232 47.522C248.898 47.522 249.528 47.666 250.122 47.918V46.442H251.436V48.656C252.66 49.502 253.74 50.708 254.658 51.788L253.722 52.508ZM254.602 40.43C254.602 38.864 255.79 37.712 257.59 37.712C259.534 37.712 260.884 39.008 260.884 40.88C260.884 42.914 259.498 44.12 257.32 44.372V44.444C257.86 44.588 258.724 45.056 259.84 45.74L261.748 46.892L260.83 47.774C256.528 45.182 256.06 44.858 254.566 44.66V43.526H255.736C258.58 43.526 259.588 42.302 259.588 40.826C259.588 39.71 258.796 38.936 257.608 38.936C256.582 38.936 255.916 39.548 255.916 40.484C255.916 41.024 256.204 41.474 256.69 41.78L255.736 42.5C254.998 42.05 254.602 41.276 254.602 40.43ZM253.666 30.44L254.908 30.17C254.89 30.368 254.854 30.602 254.854 30.8C254.854 31.466 255.124 32.114 256.582 32.114H257.734C259.516 32.114 260.866 32.96 260.866 34.634C260.866 34.868 260.83 35.156 260.794 35.444H262.576V36.596H252.964V35.444H259.48C259.534 35.192 259.552 34.886 259.552 34.724C259.552 33.698 258.94 33.284 257.536 33.284H256.492C254.242 33.284 253.63 32.15 253.63 30.98C253.63 30.8 253.63 30.62 253.666 30.44ZM262.291 30.44L263.533 30.17C263.515 30.368 263.479 30.566 263.479 30.764C263.479 31.43 263.767 32.114 265.243 32.114H267.601C269.383 32.114 270.733 32.96 270.733 34.634C270.733 34.868 270.697 35.156 270.643 35.444H272.407V36.596H265.297V43.418C265.297 44.228 265.729 44.84 266.683 44.84C268.285 44.84 269.635 43.382 269.635 41.708C269.635 40.79 269.257 40.088 268.357 40.088C267.907 40.088 267.475 40.322 267.241 40.664L266.503 39.62C266.863 39.224 267.493 38.828 268.357 38.828C269.905 38.828 270.967 39.998 270.967 41.708C270.967 43.868 269.167 46.064 266.647 46.064C265.027 46.064 264.001 45.038 264.001 43.508V36.596H261.877V35.444H269.347C269.401 35.192 269.419 34.886 269.419 34.724C269.419 33.698 268.807 33.284 267.403 33.284H265.153C262.903 33.284 262.255 32.132 262.255 30.962C262.255 30.782 262.255 30.62 262.291 30.44ZM273.863 34.184V33.662H275.159V35.444H277.319V36.596H275.159V47H273.845V38.09C273.845 37.064 273.359 36.596 272.405 36.596H271.685V35.444H272.621C273.521 35.444 273.881 35.876 274.025 36.074H274.115C274.061 35.93 273.863 35.21 273.863 34.184ZM300.044 34.184V33.662H301.34V35.444H303.5V36.596H301.34V47H300.026V38.09C300.026 37.064 299.54 36.596 298.586 36.596H296.444V45.938L297.128 46.424L296.138 47.234L291.98 44.156C291.242 44.876 290.198 45.326 288.92 45.326C285.374 45.326 283.43 42.428 282.638 38.45L283.844 37.91C284.51 41.42 286.022 44.156 288.92 44.156C290.738 44.156 291.8 42.878 291.8 41.222C291.8 39.764 291.08 38.954 290 38.954C289.154 38.954 288.596 39.44 288.596 40.322C288.596 40.808 288.848 41.294 289.37 41.582L288.416 42.284C287.678 41.888 287.264 41.078 287.264 40.232C287.264 38.846 288.254 37.712 289.964 37.712C291.818 37.712 293.114 39.206 293.114 41.24C293.114 41.942 292.952 42.608 292.682 43.166L295.166 45.056L295.238 45.038C295.148 43.832 295.13 42.608 295.13 41.456V36.596H281.792V35.444H298.802C299.702 35.444 300.062 35.876 300.206 36.074H300.296C300.242 35.93 300.044 35.21 300.044 34.184ZM307.838 46.172L307.172 47.234C305.174 46.46 304.112 44.354 304.112 41.726C304.112 39.854 304.706 37.928 305.498 36.596H302.798V35.444H308.396V36.596H306.992C306.038 37.82 305.426 39.836 305.426 41.726C305.426 43.85 306.182 45.416 307.838 46.172ZM310.529 36.596C310.835 37.244 312.095 37.424 313.103 37.91C313.481 37.82 313.895 37.766 314.255 37.766C316.091 37.766 317.567 39.008 317.567 40.916C317.567 43.202 315.947 44.498 312.671 44.642V44.714C313.139 44.84 313.877 45.146 315.119 45.794L317.945 47.27L317.081 48.242C311.411 45.128 310.781 44.93 309.431 44.786V43.652H311.519C314.759 43.652 316.271 42.644 316.271 40.916C316.271 39.656 315.389 39.008 314.273 38.936C314.381 39.17 314.435 39.422 314.435 39.728C314.435 41.114 313.283 42.446 311.591 42.446C310.187 42.446 309.413 41.6 309.413 40.43V36.596H307.685V35.444H319.115V36.596H310.529ZM313.211 39.71C313.211 38.63 311.519 38.774 310.673 38.054V40.412C310.673 40.934 310.943 41.312 311.609 41.312C312.563 41.312 313.211 40.52 313.211 39.71ZM326.744 36.632C327.446 35.876 328.4 35.282 329.732 35.282C331.406 35.282 332.792 36.398 332.792 38.072C332.792 39.08 332.396 39.854 331.748 40.43C332.774 41.06 333.674 42.068 333.674 43.508C333.674 45.236 332.468 46.694 330.254 46.694C327.194 46.694 325.178 43.328 324.368 40.394L325.556 39.908C326.294 42.86 328.076 45.452 330.254 45.452C331.64 45.452 332.342 44.534 332.342 43.472C332.342 42.338 331.532 41.618 330.65 41.15C330.236 41.348 329.786 41.492 329.318 41.6L328.67 40.484C330.326 40.196 331.478 39.44 331.478 38.072C331.478 37.1 330.794 36.47 329.75 36.47C328.85 36.47 328.184 36.974 327.68 37.532L326.744 36.632ZM343.476 41.33V33.662H344.79V35.444H346.932V36.596H344.79V45.884L345.564 46.28L344.7 47.234L335.556 42.644V41.366C338.796 41.132 340.272 39.98 340.272 38.378C340.272 37.802 340.038 37.37 339.696 37.064C339.12 38.342 338.112 38.99 336.996 38.99C335.574 38.99 334.674 38.09 334.674 36.92C334.674 36.308 334.872 35.768 335.052 35.444H336.402C336.186 35.804 335.988 36.326 335.988 36.866C335.988 37.406 336.312 37.82 337.05 37.82C337.896 37.82 338.58 37.244 339.192 35.444H339.786C340.866 36.218 341.514 37.226 341.514 38.378C341.514 40.448 340.038 41.69 337.608 42.176V42.248L343.512 45.272L343.584 45.254C343.494 43.868 343.476 42.662 343.476 41.33ZM348.394 34.184V33.662H349.69V35.444H351.85V36.596H349.69V47H348.376V38.09C348.376 37.064 347.89 36.596 346.936 36.596H346.216V35.444H347.152C348.052 35.444 348.412 35.876 348.556 36.074H348.646C348.592 35.93 348.394 35.21 348.394 34.184ZM356.178 46.172L355.512 47.234C353.514 46.46 352.452 44.354 352.452 41.726C352.452 39.854 353.046 37.928 353.838 36.596H351.138V35.444H356.736V36.596H355.332C354.378 37.82 353.766 39.836 353.766 41.726C353.766 43.85 354.522 45.416 356.178 46.172ZM359.031 43.022L357.861 43.544C357.429 43.13 357.177 42.536 357.177 41.798C357.177 40.07 358.311 38.936 360.237 38.936C362.559 38.936 363.981 40.61 364.701 42.14H364.773C364.755 41.996 364.593 40.844 364.593 38.558V36.596H356.025V35.444H368.067V36.596H365.925V47H364.593V46.622C364.593 43.796 363.009 40.178 360.309 40.178C359.085 40.178 358.491 40.862 358.491 41.798C358.491 42.266 358.707 42.698 359.031 43.022ZM372.691 47H371.305V35.444H372.691V47ZM54.4516 64.892C55.5676 64.964 56.8456 65.54 57.3856 66.998L60.1396 65.108C59.5456 64.136 58.6096 63.542 57.3316 63.542C55.8196 63.542 54.8116 64.406 54.4516 64.892ZM53.5516 65.936L52.7956 64.838C53.5156 63.704 55.0636 62.336 57.2776 62.336C59.5096 62.336 60.5536 63.47 61.0936 64.496L61.1656 64.478C61.0756 64.262 60.8776 62.678 60.8776 61.274V60.662H62.1736V62.444H64.3336V63.596H62.1736V74.702H60.9496C60.8956 73.694 60.2476 72.848 58.9336 72.848C58.1236 72.848 56.7016 72.866 56.0716 72.866C53.9476 72.866 52.8496 71.588 52.7596 69.788L54.0376 69.464C54.0376 70.67 54.5776 71.66 56.1976 71.66C56.8456 71.66 58.0876 71.624 58.7176 71.624C60.0856 71.624 60.6616 72.092 61.0576 72.65H61.1296C61.0756 72.344 60.8776 71.732 60.8776 70.616V68.132C60.8776 67.448 60.7876 66.8 60.6256 66.224L55.2256 69.968L54.5596 68.942L56.3776 67.7C56.0716 66.836 55.4956 66.242 54.5236 66.044C54.2356 65.972 53.9836 65.936 53.5516 65.936ZM65.9974 67.016C65.3134 66.476 65.1154 65.72 65.1154 65.09C65.1154 63.488 66.3574 62.372 68.0674 62.372C69.7414 62.372 71.2714 63.452 71.2714 65.378C71.2714 67.16 70.0654 68.852 67.0774 69.392V69.464L73.0894 72.326H73.1614C73.0534 71.03 73.0354 69.806 73.0354 68.672V60.662H74.3674V62.444H76.5094V63.596H74.3674V72.884L75.1414 73.262L74.2774 74.234L65.1154 69.95V68.51C68.6974 68.33 69.9574 66.89 69.9574 65.378C69.9574 64.352 69.2374 63.596 68.0854 63.596C67.1674 63.596 66.4294 64.172 66.4294 65.108C66.4294 65.63 66.6634 66.062 67.0594 66.404L65.9974 67.016ZM87.0355 63.596H84.8755V74H83.6155C83.3815 72.11 81.9055 69.968 80.0875 69.428C79.7635 70.454 79.1335 70.832 78.6115 70.832C77.9815 70.832 77.5495 70.418 77.5495 69.788C77.5495 69.068 78.0895 68.402 79.0075 68.222C79.0075 68.15 79.0075 68.06 79.0075 67.952C79.0075 65.864 77.6215 64.262 76.8115 63.83V63.596H75.7855V62.444H87.0355V63.596ZM83.6335 70.976L83.6695 70.958C83.6335 70.112 83.5615 69.05 83.5615 67.718V63.596H78.5755V63.668C79.1515 64.244 80.2675 65.846 80.2675 67.97C80.2675 68.078 80.2675 68.186 80.2675 68.276C81.7975 68.6 83.0395 69.86 83.6335 70.976ZM91.5004 63.596V62.444H108.294V63.596H106.152V72.938L106.836 73.424L105.846 74.234L101.688 71.156C100.95 71.876 99.9064 72.326 98.6284 72.326C95.0824 72.326 93.1384 69.428 92.3464 65.45L93.5524 64.91C94.2184 68.42 95.7304 71.156 98.6284 71.156C100.446 71.156 101.508 69.878 101.508 68.222C101.508 66.764 100.788 65.954 99.7084 65.954C98.8624 65.954 98.3044 66.44 98.3044 67.322C98.3044 67.808 98.5564 68.294 99.0784 68.582L98.1244 69.284C97.3864 68.888 96.9724 68.078 96.9724 67.232C96.9724 65.846 97.9624 64.712 99.6724 64.712C101.526 64.712 102.822 66.206 102.822 68.24C102.822 68.942 102.66 69.608 102.39 70.166L104.874 72.056L104.946 72.038C104.856 70.832 104.838 69.608 104.838 68.456V63.596H91.5004ZM119.807 67.736H119.033V74.054H117.809C117.413 72.488 115.757 71.048 113.705 70.85C113.399 71.894 112.769 72.236 112.283 72.236C111.671 72.236 111.275 71.876 111.275 71.264C111.275 70.634 111.779 70.04 112.643 69.788C112.643 69.662 112.643 69.536 112.643 69.41C112.643 68.114 111.815 67.304 110.789 67.07C110.519 68.06 109.871 68.456 109.367 68.456C108.773 68.456 108.377 68.078 108.377 67.466C108.377 66.818 108.863 66.224 109.727 65.99C109.709 64.946 109.277 64.172 108.647 63.596H107.567V62.444H123.965V63.596H119.033V66.53H119.771C121.715 66.53 122.939 67.592 122.939 69.23C122.939 70.688 122.165 71.588 121.193 72.092L120.347 71.12C121.067 70.814 121.661 70.202 121.661 69.23C121.661 68.186 120.887 67.736 119.807 67.736ZM117.845 71.84C117.755 70.76 117.719 69.32 117.719 68.24V67.736H116.405C114.839 67.736 113.687 66.728 113.687 64.91V63.596H110.141C110.609 64.262 110.915 65.108 110.915 65.918C112.463 66.134 113.885 67.43 113.885 69.374C113.885 69.482 113.885 69.59 113.885 69.698C115.757 69.842 117.359 71.066 117.845 71.84ZM116.387 66.53H117.719V63.596H114.965V64.928C114.965 66.008 115.469 66.53 116.387 66.53ZM128.286 73.172L127.62 74.234C125.622 73.46 124.56 71.354 124.56 68.726C124.56 66.854 125.154 64.928 125.946 63.596H123.246V62.444H128.844V63.596H127.44C126.486 64.82 125.874 66.836 125.874 68.726C125.874 70.85 126.63 72.416 128.286 73.172ZM130.275 74.144C130.275 74.684 130.653 75.044 131.157 75.044C131.679 75.044 132.057 74.684 132.057 74.144C132.057 73.622 131.679 73.262 131.157 73.262C130.653 73.262 130.275 73.622 130.275 74.144ZM135.261 63.596H128.133V62.444H138.735V63.596H136.593V72.848L137.331 73.334L136.413 74.252L129.411 69.662V68.456C130.455 67.412 133.101 65.648 135.261 64.946V63.596ZM135.261 66.26C133.785 66.8 131.589 68.186 130.725 69.05L135.333 72.056H135.405C135.297 70.85 135.261 69.608 135.261 68.438V66.26ZM146.384 71.408C144.944 71.408 144.08 70.49 143.774 69.716L144.764 68.996C144.998 69.518 145.412 70.202 146.402 70.202C147.41 70.202 147.896 69.356 147.896 68.42C147.896 67.124 147.392 66.422 146.294 65.216L145.16 63.956V63.596H143.198V62.444H155.762V63.596H153.62V74H152.288V68.996C152.288 68.312 151.946 67.916 151.28 67.916C150.542 67.916 149.876 68.798 149.138 69.68C148.364 70.58 147.5 71.408 146.384 71.408ZM152.342 67.034C152.288 65.972 152.288 64.82 152.288 64.766V63.596H146.618V63.668L147.518 64.73C148.274 65.63 148.958 66.476 148.994 67.664C149.012 67.808 149.012 68.006 149.012 68.15C149.462 67.484 150.218 66.638 151.208 66.638C151.73 66.638 152.09 66.818 152.342 67.034ZM157.241 61.184V60.662H158.537V62.444H160.697V63.596H158.537V74H157.223V65.09C157.223 64.064 156.737 63.596 155.783 63.596H155.063V62.444H155.999C156.899 62.444 157.259 62.876 157.403 63.074H157.493C157.439 62.93 157.241 62.21 157.241 61.184ZM171.865 60.446C170.605 59.33 168.643 58.304 166.429 58.304C164.449 58.304 163.459 59.6 163.459 61.094V62.444H165.619V63.596H163.459V74H162.145V63.596H159.985V62.444H162.145V60.932C162.145 58.916 163.675 57.08 166.411 57.08C169.165 57.08 171.487 58.448 172.657 59.51L171.865 60.446ZM174.069 70.868C174.843 70.544 175.509 69.716 175.509 68.726C175.509 67.466 174.537 66.512 172.737 66.476V72.794L173.475 73.388L172.449 74.18L166.185 69.014V67.862C167.697 66.566 169.515 65.594 171.441 65.324V63.596H164.907V62.444H178.065V63.596H172.737V65.252C175.347 65.306 176.805 66.98 176.805 68.744C176.805 70.148 176.013 71.264 174.987 71.822L174.069 70.868ZM167.499 68.474L171.495 71.84H171.567C171.459 70.544 171.441 69.356 171.441 68.222V66.584C169.929 66.8 168.507 67.646 167.499 68.474ZM180.358 70.022L179.188 70.544C178.756 70.13 178.504 69.536 178.504 68.798C178.504 67.07 179.638 65.936 181.564 65.936C183.886 65.936 185.308 67.61 186.028 69.14H186.1C186.082 68.996 185.92 67.844 185.92 65.558V63.596H177.352V62.444H189.394V63.596H187.252V74H185.92V73.622C185.92 70.796 184.336 67.178 181.636 67.178C180.412 67.178 179.818 67.862 179.818 68.798C179.818 69.266 180.034 69.698 180.358 70.022ZM212.11 61.184V60.662H213.406V62.444H215.566V63.596H213.406V74H212.092V65.09C212.092 64.064 211.606 63.596 210.652 63.596H208.51V72.938L209.194 73.424L208.204 74.234L204.046 71.156C203.308 71.876 202.264 72.326 200.986 72.326C197.44 72.326 195.496 69.428 194.704 65.45L195.91 64.91C196.576 68.42 198.088 71.156 200.986 71.156C202.804 71.156 203.866 69.878 203.866 68.222C203.866 66.764 203.146 65.954 202.066 65.954C201.22 65.954 200.662 66.44 200.662 67.322C200.662 67.808 200.914 68.294 201.436 68.582L200.482 69.284C199.744 68.888 199.33 68.078 199.33 67.232C199.33 65.846 200.32 64.712 202.03 64.712C203.884 64.712 205.18 66.206 205.18 68.24C205.18 68.942 205.018 69.608 204.748 70.166L207.232 72.056L207.304 72.038C207.214 70.832 207.196 69.608 207.196 68.456V63.596H193.858V62.444H210.868C211.768 62.444 212.128 62.876 212.272 63.074H212.362C212.308 62.93 212.11 62.21 212.11 61.184ZM219.904 73.172L219.238 74.234C217.24 73.46 216.178 71.354 216.178 68.726C216.178 66.854 216.772 64.928 217.564 63.596H214.864V62.444H220.462V63.596H219.058C218.104 64.82 217.492 66.836 217.492 68.726C217.492 70.85 218.248 72.416 219.904 73.172ZM222.594 63.596C222.9 64.244 224.16 64.424 225.168 64.91C225.546 64.82 225.96 64.766 226.32 64.766C228.156 64.766 229.632 66.008 229.632 67.916C229.632 70.202 228.012 71.498 224.736 71.642V71.714C225.204 71.84 225.942 72.146 227.184 72.794L230.01 74.27L229.146 75.242C223.476 72.128 222.846 71.93 221.496 71.786V70.652H223.584C226.824 70.652 228.336 69.644 228.336 67.916C228.336 66.656 227.454 66.008 226.338 65.936C226.446 66.17 226.5 66.422 226.5 66.728C226.5 68.114 225.348 69.446 223.656 69.446C222.252 69.446 221.478 68.6 221.478 67.43V63.596H219.75V62.444H231.18V63.596H222.594ZM225.276 66.71C225.276 65.63 223.584 65.774 222.738 65.054V67.412C222.738 67.934 223.008 68.312 223.674 68.312C224.628 68.312 225.276 67.52 225.276 66.71ZM241.365 63.956C240.897 63.704 240.429 63.596 239.889 63.596C238.935 63.596 238.323 64.136 238.323 65.018C238.323 66.026 239.097 66.566 240.483 66.566C241.527 66.566 242.769 65.918 243.813 65.252V62.444H247.287V63.596H245.127V72.848L245.883 73.244L245.091 74.234L237.207 70.22V68.996L238.215 68.42C239.079 67.898 239.889 67.592 239.889 67.592V67.52C238.287 67.484 237.027 66.584 237.027 64.982C237.027 63.506 238.089 62.408 239.817 62.408C240.555 62.408 241.221 62.552 241.815 62.894L241.365 63.956ZM243.975 72.236C243.867 70.958 243.813 69.68 243.813 68.546V66.638L238.665 69.554L243.903 72.236H243.975ZM251.615 73.172L250.949 74.234C248.951 73.46 247.889 71.354 247.889 68.726C247.889 66.854 248.483 64.928 249.275 63.596H246.575V62.444H252.173V63.596H250.769C249.815 64.82 249.203 66.836 249.203 68.726C249.203 70.85 249.959 72.416 251.615 73.172ZM253.603 74.144C253.603 74.684 253.981 75.044 254.485 75.044C255.007 75.044 255.385 74.684 255.385 74.144C255.385 73.622 255.007 73.262 254.485 73.262C253.981 73.262 253.603 73.622 253.603 74.144ZM258.589 63.596H251.461V62.444H262.063V63.596H259.921V72.848L260.659 73.334L259.741 74.252L252.739 69.662V68.456C253.783 67.412 256.429 65.648 258.589 64.946V63.596ZM258.589 66.26C257.113 66.8 254.917 68.186 254.053 69.05L258.661 72.056H258.733C258.625 70.85 258.589 69.608 258.589 68.438V66.26ZM278.406 60.446C277.146 59.33 275.184 58.304 272.97 58.304C270.99 58.304 270 59.6 270 61.094V62.444H272.16V63.596H270V74H268.686V63.596H266.526V62.444H268.686V60.932C268.686 58.916 270.216 57.08 272.952 57.08C275.706 57.08 278.028 58.448 279.198 59.51L278.406 60.446ZM274.454 70.022L273.284 70.544C272.852 70.13 272.6 69.536 272.6 68.798C272.6 67.07 273.734 65.936 275.66 65.936C277.982 65.936 279.404 67.61 280.124 69.14H280.196C280.178 68.996 280.016 67.844 280.016 65.558V63.596H271.448V62.444H283.49V63.596H281.348V74H280.016V73.622C280.016 70.796 278.432 67.178 275.732 67.178C274.508 67.178 273.914 67.862 273.914 68.798C273.914 69.266 274.13 69.698 274.454 70.022ZM287.808 73.172L287.142 74.234C285.144 73.46 284.082 71.354 284.082 68.726C284.082 66.854 284.676 64.928 285.468 63.596H282.768V62.444H288.366V63.596H286.962C286.008 64.82 285.396 66.836 285.396 68.726C285.396 70.85 286.152 72.416 287.808 73.172ZM294.693 69.5C293.973 69.068 293.505 68.276 293.505 67.304C293.505 65.864 294.495 64.766 296.187 64.766C298.239 64.766 299.337 66.458 299.337 68.51C299.337 71.084 297.591 72.884 295.053 72.884C291.471 72.884 289.617 69.662 288.843 65.612L290.067 65.072C290.715 68.636 292.137 71.714 295.053 71.714C296.889 71.714 298.023 70.256 298.023 68.492C298.023 66.998 297.429 65.99 296.223 65.99C295.395 65.99 294.819 66.494 294.819 67.376C294.819 67.952 295.089 68.438 295.593 68.726L294.693 69.5ZM300.633 62.444V63.596H287.655V62.444H300.633ZM309.484 71.48C310.024 71.624 310.924 72.038 312.04 72.722L313.948 73.874L312.994 74.774C308.71 72.182 308.224 71.858 306.748 71.66V70.526H307.9C310.744 70.526 311.752 69.302 311.752 67.826C311.752 66.71 310.978 65.936 309.772 65.936C308.746 65.936 308.026 66.548 308.026 67.484C308.026 67.97 308.296 68.474 308.8 68.744L307.846 69.464C307.108 69.032 306.712 68.258 306.712 67.412C306.712 65.882 307.954 64.712 309.754 64.712C311.698 64.712 313.066 66.008 313.066 67.88C313.066 69.914 311.68 71.156 309.484 71.408V71.48ZM305.092 63.596V62.444H314.704V63.596H305.092ZM319.027 73.172L318.361 74.234C316.363 73.46 315.301 71.354 315.301 68.726C315.301 66.854 315.895 64.928 316.687 63.596H313.987V62.444H319.585V63.596H318.181C317.227 64.82 316.615 66.836 316.615 68.726C316.615 70.85 317.371 72.416 319.027 73.172ZM326.001 63.596H318.873V62.444H329.475V63.596H327.333V72.848L328.071 73.334L327.153 74.252L320.151 69.662V68.456C321.195 67.412 323.841 65.648 326.001 64.946V63.596ZM326.001 66.26C324.525 66.8 322.329 68.186 321.465 69.05L326.073 72.056H326.145C326.037 70.85 326.001 69.608 326.001 68.438V66.26ZM334.098 74H332.712V62.444H334.098V74Z" fill="#F5F9FA"/>
<path d="M208 10.4182C208 10.3579 207.993 10.3201 207.978 10.305C207.964 10.2899 207.957 10.2689 207.957 10.2418V10.1513C207.928 10.1513 207.901 10.5704 207.875 11.4085C207.846 12.2495 207.803 13.6121 207.745 15.4963C207.662 18.321 206.467 19.7334 204.161 19.7334C202.586 19.7334 201.392 18.8649 200.577 17.1285L199.989 18.1009C199.229 19.367 198.16 20 196.781 20C196.22 20 195.763 19.8161 195.412 19.4483C195.061 19.0805 194.78 18.6088 194.57 18.033C194.357 17.4602 194.209 16.8272 194.125 16.1338C194.042 15.4435 194 14.7892 194 14.1712C194 13.4356 194.042 12.7212 194.125 12.0278C194.209 11.3374 194.321 10.712 194.462 10.1513C194.603 9.59358 194.759 9.12324 194.928 8.74038C195.095 8.35753 195.249 8.10724 195.39 7.98967H195.814C195.926 8.13437 195.982 8.45717 195.982 8.95759C195.982 9.1656 195.961 9.46852 195.917 9.86646C195.874 10.2614 195.832 10.6729 195.792 11.101C195.749 11.5291 195.713 11.9345 195.684 12.3173C195.658 12.7002 195.645 12.9941 195.645 13.1991C195.645 14.9657 196.221 15.849 197.373 15.849C198.357 15.849 199.096 15.6651 199.588 15.2973C200.08 14.9295 200.326 14.4502 200.326 13.8593C200.326 13.7719 200.305 13.6106 200.262 13.3755C200.218 13.1404 200.17 12.8674 200.115 12.5569C200.057 12.2494 200.008 11.9406 199.968 11.6301C199.925 11.3226 199.903 11.051 199.903 10.8159C199.903 10.3155 199.952 9.83616 200.05 9.37794C200.148 8.92273 200.26 8.51874 200.387 8.16603C200.513 7.81031 200.633 7.5225 200.745 7.30243C200.858 7.08237 200.942 6.97234 201 6.97234C201.083 6.97234 201.174 7.05381 201.272 7.2166C201.373 7.37637 201.451 7.66278 201.505 8.07578C201.563 8.48879 201.612 9.04031 201.652 9.73067C201.695 10.424 201.717 11.3149 201.717 12.4032C201.717 13.2292 201.997 13.9649 202.559 14.61C203.123 15.2582 204.037 15.5821 205.301 15.5821C206.003 15.5821 206.411 15.3906 206.523 15.0077C206.468 14.7726 206.441 14.5962 206.441 14.4787V14.2573C206.441 13.7569 206.363 13.2639 206.208 12.7785C206.052 12.2932 205.891 11.8589 205.724 11.4761C205.526 11.0359 205.3 10.6247 205.046 10.2418C205.046 10.1242 205.089 9.91763 205.176 9.6222C205.231 9.38706 205.314 9.04802 205.426 8.60487C205.539 8.16473 205.68 7.5617 205.85 6.79598C205.878 6.59098 206.047 6.32558 206.355 6H206.61C206.722 6.32558 206.848 6.70857 206.989 7.1487C207.128 7.53156 207.275 8.0033 207.43 8.56402C207.585 9.12173 207.775 9.73988 208 10.4182Z" fill="#FFCA3A"/>
<path d="M169.512 160.494V162.621H160.187V160.494H169.512ZM169.512 165.049V167.176H160.187V165.049H169.512Z" fill="#F5F9FA"/>
<path d="M169.512 241.494V243.621H160.187V241.494H169.512ZM169.512 246.049V248.176H160.187V246.049H169.512Z" fill="#F5F9FA"/>
<path d="M125.01 209.686C125.01 210.51 124.768 211.319 124.284 212.113C123.799 212.908 123.074 213.709 122.108 214.519C121.218 215.255 120.329 215.851 119.441 216.305C118.551 216.76 117.638 217.068 116.702 217.228C116.593 217.228 116.539 217.184 116.539 217.097C116.539 216.764 116.699 216.446 117.018 216.143C117.338 215.84 117.74 215.551 118.224 215.277C118.8 214.945 119.287 214.634 119.685 214.346C120.083 214.056 120.407 213.788 120.658 213.542L120.61 213.327C119.877 212.561 119.51 211.673 119.51 210.662C119.51 210.257 119.589 209.841 119.745 209.415C119.9 208.989 120.118 208.603 120.399 208.257C120.68 207.909 121.008 207.624 121.382 207.401C121.757 207.176 122.171 207.063 122.623 207.063C124.214 207.063 125.01 207.937 125.01 209.686ZM123.629 211.246C123.784 211.045 123.862 210.82 123.862 210.573C123.862 210.357 123.803 210.163 123.687 209.99C123.57 209.817 123.422 209.669 123.244 209.546C123.063 209.423 122.86 209.329 122.635 209.264C122.408 209.199 122.178 209.167 121.945 209.167C121.055 209.167 120.61 209.477 120.61 210.099C120.61 210.315 120.664 210.513 120.773 210.693C120.883 210.874 121.028 211.029 121.207 211.159C121.386 211.289 121.589 211.394 121.815 211.474C122.042 211.553 122.264 211.592 122.482 211.592C122.887 211.592 123.27 211.477 123.629 211.246Z" fill="#F5F9FA"/>
<path d="M126.405 222.672C126.405 222.634 126.399 222.61 126.387 222.6C126.375 222.59 126.369 222.577 126.369 222.56V222.502C126.346 222.502 126.323 222.77 126.302 223.305C126.278 223.843 126.243 224.714 126.195 225.919C126.127 227.724 125.145 228.627 123.25 228.627C121.955 228.627 120.973 228.072 120.304 226.962L119.821 227.584C119.196 228.393 118.317 228.798 117.184 228.798C116.723 228.798 116.348 228.68 116.059 228.445C115.77 228.21 115.54 227.908 115.367 227.54C115.192 227.174 115.07 226.769 115.001 226.326C114.933 225.885 114.898 225.467 114.898 225.072C114.898 224.601 114.933 224.145 115.001 223.701C115.07 223.26 115.162 222.86 115.278 222.502C115.394 222.145 115.522 221.845 115.661 221.6C115.799 221.355 115.925 221.195 116.041 221.12H116.389C116.481 221.213 116.528 221.419 116.528 221.739C116.528 221.872 116.51 222.065 116.474 222.32C116.439 222.572 116.404 222.835 116.371 223.109C116.336 223.383 116.306 223.642 116.283 223.886C116.261 224.131 116.251 224.319 116.251 224.45C116.251 225.579 116.724 226.144 117.67 226.144C118.48 226.144 119.086 226.026 119.491 225.791C119.896 225.556 120.098 225.25 120.098 224.872C120.098 224.816 120.08 224.713 120.045 224.563C120.009 224.413 119.969 224.238 119.924 224.04C119.877 223.843 119.837 223.646 119.803 223.447C119.768 223.251 119.75 223.077 119.75 222.927C119.75 222.607 119.79 222.3 119.871 222.007C119.951 221.716 120.044 221.458 120.148 221.233C120.252 221.005 120.35 220.821 120.442 220.681C120.535 220.54 120.604 220.47 120.652 220.47C120.72 220.47 120.795 220.522 120.875 220.626C120.958 220.728 121.022 220.911 121.067 221.175C121.114 221.439 121.154 221.792 121.188 222.233C121.223 222.676 121.241 223.246 121.241 223.941C121.241 224.469 121.471 224.94 121.933 225.352C122.397 225.766 123.148 225.973 124.187 225.973C124.764 225.973 125.099 225.851 125.191 225.606C125.146 225.456 125.124 225.343 125.124 225.268V225.127C125.124 224.807 125.06 224.492 124.932 224.181C124.804 223.871 124.672 223.593 124.534 223.349C124.371 223.067 124.185 222.804 123.977 222.56C123.977 222.485 124.013 222.352 124.084 222.164C124.129 222.013 124.197 221.797 124.289 221.513C124.382 221.232 124.498 220.846 124.637 220.357C124.661 220.226 124.799 220.056 125.053 219.848H125.262C125.354 220.056 125.458 220.301 125.574 220.582C125.688 220.827 125.809 221.129 125.936 221.487C126.064 221.844 126.22 222.239 126.405 222.672Z" fill="#FFCA3A"/>
<path d="M128.962 243.626C128.962 245.051 128.279 248.113 126.914 252.812C126.492 254.215 125.498 254.916 123.934 254.916C122.915 254.916 121.175 254.429 118.716 253.454C116.308 252.481 114.719 251.995 113.948 251.995L113.467 252.207C113.266 252.683 112.987 253.247 112.628 253.899C112.267 254.553 111.813 255.295 111.266 256.127C109.453 258.453 105.89 260.28 100.578 261.608C99.3853 261.895 98.4407 262.038 97.7439 262.038C97.5964 262.038 97.4602 262.038 97.3356 262.038C97.211 262.038 97.0992 262.014 97 261.965C97.0737 261.965 97.1602 261.882 97.2594 261.717C97.3611 261.549 97.473 261.264 97.5951 260.86C99.7058 259.508 101.96 257.989 104.358 256.302C106.754 254.617 109.343 252.766 112.125 250.748C112.323 250.534 112.54 250.19 112.777 249.716C113.013 249.24 113.244 248.741 113.467 248.221C113.689 247.698 113.893 247.217 114.081 246.777C114.267 246.337 114.397 246.059 114.471 245.942C114.893 245.276 115.403 244.444 116 243.448C116.595 242.451 117.278 241.264 118.049 239.885C119.763 237.607 121.836 236.468 124.27 236.468C125.089 236.468 125.796 236.693 126.391 237.143C126.989 237.595 127.473 238.171 127.844 238.871C128.218 239.571 128.498 240.343 128.684 241.187C128.869 242.03 128.962 242.844 128.962 243.626ZM126.28 247.616C126.28 247.402 126.194 247.051 126.021 246.562C125.846 246.076 125.584 245.583 125.235 245.085C124.889 244.587 124.456 244.154 123.934 243.787C123.413 243.417 122.804 243.233 122.107 243.233C120.147 243.233 118.768 243.969 117.972 245.442L118.121 245.942C121.002 247.342 123.425 248.042 125.388 248.042C125.983 248.042 126.28 247.9 126.28 247.616Z" fill="#F5F9FA"/>
<path d="M252.558 244.624V246.213H245.248V244.624H252.558ZM249.76 241.635V249.399H248.053V241.635H249.76Z" fill="#F5F9FA"/>
<path d="M293.406 221.192C293.406 222.016 293.164 222.825 292.68 223.62C292.196 224.414 291.471 225.216 290.504 226.025C289.614 226.762 288.725 227.357 287.837 227.811C286.948 228.267 286.035 228.574 285.099 228.734C284.99 228.734 284.936 228.691 284.936 228.603C284.936 228.27 285.095 227.952 285.415 227.649C285.734 227.346 286.136 227.057 286.62 226.784C287.197 226.451 287.684 226.14 288.082 225.852C288.479 225.562 288.804 225.294 289.055 225.049L289.007 224.833C288.273 224.067 287.907 223.179 287.907 222.169C287.907 221.763 287.985 221.348 288.142 220.922C288.297 220.496 288.515 220.109 288.796 219.763C289.077 219.416 289.404 219.13 289.778 218.907C290.154 218.682 290.567 218.57 291.019 218.57C292.61 218.57 293.406 219.444 293.406 221.192ZM292.026 222.752C292.181 222.551 292.258 222.327 292.258 222.08C292.258 221.864 292.2 221.669 292.083 221.496C291.967 221.323 291.819 221.175 291.64 221.053C291.46 220.93 291.257 220.836 291.031 220.771C290.805 220.706 290.575 220.673 290.341 220.673C289.452 220.673 289.007 220.984 289.007 221.605C289.007 221.821 289.061 222.019 289.17 222.2C289.28 222.38 289.424 222.535 289.603 222.666C289.782 222.796 289.985 222.901 290.212 222.981C290.439 223.059 290.661 223.098 290.878 223.098C291.284 223.098 291.666 222.983 292.026 222.752Z" fill="#F5F9FA"/>
<path d="M298.999 243.626C298.999 245.051 298.316 248.113 296.951 252.812C296.529 254.215 295.536 254.916 293.972 254.916C292.952 254.916 291.212 254.429 288.753 253.454C286.345 252.481 284.756 251.995 283.985 251.995L283.504 252.207C283.304 252.683 283.024 253.247 282.665 253.899C282.304 254.553 281.85 255.295 281.303 256.127C279.49 258.453 275.927 260.28 270.615 261.608C269.422 261.895 268.478 262.038 267.781 262.038C267.633 262.038 267.497 262.038 267.373 262.038C267.248 262.038 267.136 262.014 267.037 261.965C267.111 261.965 267.197 261.882 267.296 261.717C267.398 261.549 267.51 261.264 267.632 260.86C269.743 259.508 271.997 257.989 274.395 256.302C276.791 254.617 279.38 252.766 282.162 250.748C282.36 250.534 282.577 250.19 282.814 249.716C283.05 249.24 283.281 248.741 283.504 248.221C283.726 247.698 283.93 247.217 284.119 246.777C284.304 246.337 284.434 246.059 284.508 245.942C284.93 245.276 285.44 244.444 286.037 243.448C286.632 242.451 287.315 241.264 288.086 239.885C289.8 237.607 291.874 236.468 294.307 236.468C295.126 236.468 295.833 236.693 296.428 237.143C297.026 237.595 297.51 238.171 297.881 238.871C298.255 239.571 298.535 240.343 298.721 241.187C298.906 242.03 298.999 242.844 298.999 243.626ZM296.318 247.616C296.318 247.402 296.231 247.051 296.058 246.562C295.883 246.076 295.621 245.583 295.272 245.085C294.927 244.587 294.493 244.154 293.972 243.787C293.45 243.417 292.841 243.233 292.144 243.233C290.184 243.233 288.805 243.969 288.009 245.442L288.158 245.942C291.039 247.342 293.462 248.042 295.425 248.042C296.02 248.042 296.318 247.9 296.318 247.616Z" fill="#F5F9FA"/>
<path d="M222.683 221.443C222.683 221.98 222.594 222.517 222.415 223.054C222.237 223.591 221.991 224.088 221.677 224.544C221.364 225.001 220.988 225.412 220.55 225.779C220.111 226.146 219.632 226.437 219.113 226.652C219.023 226.687 218.741 226.741 218.266 226.812C217.793 226.884 217.269 226.96 216.697 227.041C216.124 227.121 215.582 227.189 215.072 227.243C214.562 227.296 214.227 227.323 214.065 227.323C213.582 227.323 213.341 227.188 213.341 226.92C213.341 226.598 214.513 226.017 216.857 225.175C218.021 224.764 218.845 224.428 219.328 224.167C219.811 223.908 220.052 223.68 220.052 223.483C220.052 222.731 218.459 222.32 215.274 222.248L215.059 222.034C215.274 221.676 215.542 221.223 215.863 220.677C216.186 220.132 216.571 219.483 217.018 218.73C217.305 218.623 217.672 218.57 218.119 218.57C218.692 218.57 219.252 218.641 219.798 218.784C220.343 218.928 220.826 219.13 221.247 219.389C221.668 219.648 222.008 219.953 222.268 220.302C222.528 220.651 222.666 221.031 222.683 221.443Z" fill="#FFCA3A"/>
<path d="M226.126 243.626C226.126 245.051 225.443 248.113 224.078 252.812C223.656 254.215 222.663 254.916 221.099 254.916C220.079 254.916 218.339 254.429 215.88 253.454C213.472 252.481 211.883 251.995 211.112 251.995L210.631 252.207C210.43 252.683 210.151 253.247 209.792 253.899C209.431 254.553 208.977 255.295 208.43 256.127C206.617 258.453 203.054 260.28 197.742 261.608C196.549 261.895 195.605 262.038 194.908 262.038C194.76 262.038 194.624 262.038 194.5 262.038C194.375 262.038 194.263 262.014 194.164 261.965C194.238 261.965 194.324 261.882 194.423 261.717C194.525 261.549 194.637 261.264 194.759 260.86C196.87 259.508 199.124 257.989 201.522 256.302C203.918 254.617 206.507 252.766 209.289 250.748C209.487 250.534 209.704 250.19 209.941 249.716C210.177 249.24 210.408 248.741 210.631 248.221C210.853 247.698 211.057 247.217 211.246 246.777C211.431 246.337 211.561 246.059 211.635 245.942C212.057 245.276 212.567 244.444 213.164 243.448C213.759 242.451 214.442 241.264 215.213 239.885C216.927 237.607 219 236.468 221.434 236.468C222.253 236.468 222.96 236.693 223.555 237.143C224.153 237.595 224.637 238.171 225.008 238.871C225.382 239.571 225.662 240.343 225.848 241.187C226.033 242.03 226.126 242.844 226.126 243.626ZM223.444 247.616C223.444 247.402 223.358 247.051 223.185 246.562C223.01 246.076 222.748 245.583 222.399 245.085C222.053 244.587 221.62 244.154 221.099 243.787C220.577 243.417 219.968 243.233 219.271 243.233C217.311 243.233 215.932 243.969 215.136 245.442L215.285 245.942C218.166 247.342 220.589 248.042 222.552 248.042C223.147 248.042 223.444 247.9 223.444 247.616Z" fill="#F5F9FA"/>
<path d="M297.746 161.227C297.746 161.819 297.679 162.473 297.543 163.187C297.408 163.899 297.237 164.582 297.032 165.236C296.829 165.889 296.609 166.457 296.373 166.94C296.135 167.423 295.914 167.733 295.711 167.871C295.134 168.345 294.416 168.794 293.558 169.218C292.701 169.642 291.739 170.016 290.67 170.339C289.601 170.66 288.452 170.919 287.222 171.116C285.992 171.31 284.714 171.407 283.39 171.407C282.575 171.407 281.748 171.344 280.909 171.217C280.07 171.089 279.234 170.957 278.402 170.821C277.045 170.618 275.823 170.245 274.737 169.703C273.651 169.159 272.726 168.446 271.961 167.563C271.198 166.682 270.614 165.639 270.207 164.433C269.799 163.229 269.595 161.872 269.595 160.362C269.595 160.056 269.642 159.665 269.735 159.189C269.829 158.714 269.944 158.24 270.08 157.766C270.215 157.289 270.359 156.869 270.512 156.504C270.665 156.139 270.809 155.906 270.945 155.806H271.276C271.377 155.856 271.427 156.034 271.427 156.34C271.427 157.782 271.266 158.961 270.945 159.877V160.08C270.945 162.829 273.448 164.798 278.454 165.986C279.608 166.275 280.694 166.478 281.712 166.596C282.73 166.716 283.697 166.776 284.613 166.776C287.124 166.776 289.355 166.474 291.306 165.871C293.257 165.268 294.886 164.399 296.193 163.262L296.295 163.007C295.7 161.938 295.09 160.496 294.462 158.68C294.462 158.647 294.458 158.605 294.449 158.553C294.441 158.502 294.436 158.443 294.436 158.375C294.436 158.07 294.454 157.7 294.488 157.268C294.521 156.835 294.56 156.428 294.603 156.045C294.645 155.665 294.687 155.338 294.731 155.065C294.772 154.794 294.811 154.659 294.845 154.659C294.981 154.659 295.252 154.939 295.659 155.498C297.05 157.467 297.746 159.376 297.746 161.227ZM284.308 182.352L280.565 178.586L284.308 174.843L288.074 178.586L284.308 182.352Z" fill="#F5F9FA"/>
<path d="M217.968 143.785C217.968 144.322 217.878 144.859 217.7 145.396C217.521 145.933 217.275 146.43 216.961 146.886C216.648 147.342 216.272 147.754 215.834 148.12C215.395 148.488 214.916 148.779 214.397 148.993C214.308 149.029 214.025 149.083 213.551 149.154C213.077 149.226 212.554 149.302 211.981 149.382C211.408 149.463 210.866 149.53 210.356 149.585C209.846 149.638 209.511 149.664 209.349 149.664C208.866 149.664 208.625 149.53 208.625 149.262C208.625 148.94 209.797 148.358 212.142 147.517C213.306 147.105 214.129 146.77 214.612 146.509C215.095 146.25 215.336 146.022 215.336 145.825C215.336 145.073 213.744 144.662 210.558 144.59L210.343 144.376C210.558 144.017 210.826 143.565 211.148 143.019C211.47 142.474 211.855 141.825 212.302 141.072C212.589 140.965 212.956 140.911 213.404 140.911C213.976 140.911 214.536 140.983 215.082 141.126C215.627 141.27 216.11 141.471 216.531 141.731C216.952 141.99 217.292 142.294 217.553 142.644C217.812 142.993 217.95 143.373 217.968 143.785Z" fill="#FFCA3A"/>
<path d="M227.43 161.227C227.43 161.819 227.362 162.473 227.227 163.187C227.091 163.899 226.921 164.582 226.716 165.236C226.513 165.889 226.293 166.457 226.056 166.94C225.818 167.423 225.598 167.733 225.394 167.871C224.817 168.345 224.1 168.794 223.241 169.218C222.385 169.642 221.422 170.016 220.354 170.339C219.285 170.66 218.136 170.919 216.905 171.116C215.675 171.31 214.398 171.407 213.074 171.407C212.259 171.407 211.432 171.344 210.593 171.217C209.753 171.089 208.918 170.957 208.085 170.821C206.728 170.618 205.507 170.245 204.421 169.703C203.335 169.159 202.409 168.446 201.645 167.563C200.882 166.682 200.297 165.639 199.891 164.433C199.482 163.229 199.278 161.872 199.278 160.362C199.278 160.056 199.325 159.665 199.419 159.189C199.513 158.714 199.628 158.24 199.763 157.766C199.899 157.289 200.043 156.869 200.196 156.504C200.349 156.139 200.493 155.906 200.628 155.806H200.959C201.06 155.856 201.111 156.034 201.111 156.34C201.111 157.782 200.95 158.961 200.628 159.877V160.08C200.628 162.829 203.131 164.798 208.137 165.986C209.291 166.275 210.377 166.478 211.395 166.596C212.414 166.716 213.381 166.776 214.296 166.776C216.807 166.776 219.038 166.474 220.99 165.871C222.941 165.268 224.57 164.399 225.877 163.262L225.978 163.007C225.384 161.938 224.773 160.496 224.146 158.68C224.146 158.647 224.142 158.605 224.133 158.553C224.124 158.502 224.12 158.443 224.12 158.375C224.12 158.07 224.137 157.7 224.172 157.268C224.205 156.835 224.243 156.428 224.287 156.045C224.328 155.665 224.371 155.338 224.414 155.065C224.456 154.794 224.494 154.659 224.529 154.659C224.665 154.659 224.936 154.939 225.342 155.498C226.734 157.467 227.43 159.376 227.43 161.227ZM213.991 182.352L210.249 178.586L213.991 174.843L217.758 178.586L213.991 182.352Z" fill="#F5F9FA"/>
<path d="M250.332 157.315V158.904H243.023V157.315H250.332ZM247.534 154.327V162.09H245.828V154.327H247.534Z" fill="#F5F9FA"/>
<path d="M291.386 140.699C291.632 140.147 291.793 139.791 291.871 139.633C290.168 140.596 288.535 141.507 286.972 142.367C285.41 143.227 283.91 144.059 282.474 144.864C282.112 145.748 281.812 146.466 281.574 147.018C281.338 147.571 281.181 147.973 281.102 148.226C285.078 146.189 288.179 144.438 290.405 142.971C290.815 142.007 291.142 141.25 291.386 140.699Z" fill="#F5F9FA"/>
<path d="M132.823 161.227C132.823 161.819 132.755 162.473 132.619 163.187C132.484 163.899 132.313 164.582 132.108 165.236C131.905 165.889 131.685 166.457 131.449 166.94C131.211 167.423 130.99 167.733 130.787 167.871C130.21 168.345 129.492 168.794 128.634 169.218C127.777 169.642 126.815 170.016 125.746 170.339C124.678 170.66 123.528 170.919 122.298 171.116C121.068 171.31 119.791 171.407 118.467 171.407C117.652 171.407 116.825 171.344 115.985 171.217C115.146 171.089 114.31 170.957 113.478 170.821C112.121 170.618 110.899 170.245 109.813 169.703C108.727 169.159 107.802 168.446 107.037 167.563C106.275 166.682 105.69 165.639 105.283 164.433C104.875 163.229 104.671 161.872 104.671 160.362C104.671 160.056 104.718 159.665 104.812 159.189C104.905 158.714 105.02 158.24 105.156 157.766C105.291 157.289 105.435 156.869 105.588 156.504C105.741 156.139 105.885 155.906 106.021 155.806H106.352C106.453 155.856 106.503 156.034 106.503 156.34C106.503 157.782 106.342 158.961 106.021 159.877V160.08C106.021 162.829 108.524 164.798 113.53 165.986C114.684 166.275 115.77 166.478 116.788 166.596C117.806 166.716 118.773 166.776 119.689 166.776C122.2 166.776 124.431 166.474 126.382 165.871C128.333 165.268 129.962 164.399 131.269 163.262L131.371 163.007C130.776 161.938 130.166 160.496 129.538 158.68C129.538 158.647 129.534 158.605 129.525 158.553C129.517 158.502 129.512 158.443 129.512 158.375C129.512 158.07 129.53 157.7 129.565 157.268C129.598 156.835 129.636 156.428 129.679 156.045C129.721 155.665 129.763 155.338 129.807 155.065C129.849 154.794 129.887 154.659 129.922 154.659C130.057 154.659 130.328 154.939 130.735 155.498C132.127 157.467 132.823 159.376 132.823 161.227ZM119.384 182.352L115.641 178.586L119.384 174.843L123.15 178.586L119.384 182.352Z" fill="#F5F9FA"/>
<path d="M123.848 146.696C123.848 146.652 123.843 146.624 123.832 146.613C123.822 146.602 123.816 146.587 123.816 146.567V146.501C123.795 146.501 123.775 146.807 123.757 147.419C123.735 148.034 123.704 149.029 123.662 150.406C123.601 152.469 122.728 153.501 121.043 153.501C119.893 153.501 119.02 152.867 118.425 151.598L117.996 152.309C117.441 153.234 116.659 153.696 115.652 153.696C115.242 153.696 114.908 153.562 114.652 153.293C114.395 153.024 114.19 152.68 114.037 152.259C113.881 151.841 113.773 151.378 113.712 150.872C113.651 150.367 113.62 149.889 113.62 149.438C113.62 148.9 113.651 148.378 113.712 147.872C113.773 147.368 113.855 146.911 113.958 146.501C114.061 146.094 114.174 145.75 114.298 145.47C114.42 145.191 114.533 145.008 114.636 144.922H114.945C115.027 145.028 115.068 145.263 115.068 145.629C115.068 145.781 115.052 146.002 115.021 146.293C114.989 146.581 114.959 146.882 114.929 147.195C114.898 147.508 114.872 147.804 114.851 148.083C114.832 148.363 114.822 148.578 114.822 148.728C114.822 150.018 115.243 150.664 116.084 150.664C116.803 150.664 117.343 150.529 117.702 150.26C118.062 149.992 118.242 149.642 118.242 149.21C118.242 149.146 118.226 149.028 118.195 148.857C118.163 148.685 118.127 148.485 118.087 148.258C118.045 148.034 118.01 147.808 117.98 147.581C117.949 147.357 117.933 147.158 117.933 146.987C117.933 146.621 117.968 146.271 118.04 145.936C118.111 145.603 118.194 145.308 118.286 145.051C118.379 144.791 118.466 144.581 118.548 144.42C118.63 144.259 118.692 144.179 118.734 144.179C118.795 144.179 118.861 144.238 118.933 144.357C119.006 144.474 119.063 144.683 119.103 144.985C119.145 145.286 119.181 145.689 119.21 146.194C119.242 146.7 119.258 147.351 119.258 148.146C119.258 148.75 119.463 149.287 119.873 149.758C120.285 150.232 120.953 150.469 121.876 150.469C122.389 150.469 122.687 150.329 122.769 150.049C122.729 149.877 122.709 149.748 122.709 149.662V149.501C122.709 149.135 122.652 148.775 122.539 148.42C122.425 148.066 122.307 147.749 122.185 147.469C122.04 147.147 121.875 146.847 121.69 146.567C121.69 146.481 121.722 146.33 121.785 146.114C121.825 145.943 121.886 145.695 121.968 145.371C122.05 145.05 122.153 144.609 122.277 144.05C122.298 143.9 122.421 143.706 122.646 143.468H122.832C122.914 143.706 123.007 143.986 123.11 144.307C123.211 144.587 123.318 144.932 123.432 145.341C123.545 145.749 123.684 146.2 123.848 146.696Z" fill="#FFCA3A"/>
<path d="M123.905 133.028C124.15 132.476 124.312 132.12 124.39 131.962C122.686 132.925 121.053 133.836 119.491 134.696C117.928 135.556 116.429 136.388 114.992 137.193C114.63 138.077 114.33 138.795 114.093 139.348C113.857 139.9 113.699 140.303 113.62 140.555C117.597 138.519 120.698 136.767 122.923 135.3C123.334 134.337 123.661 133.579 123.905 133.028Z" fill="#F5F9FA"/>
</svg>
