<svg width="317" height="319" viewBox="0 0 317 319" fill="none" xmlns="http://www.w3.org/2000/svg">
<mask id="mask0_200_185" style="mask-type:alpha" maskUnits="userSpaceOnUse" x="67" y="0" width="176" height="238">
<rect x="67" width="176" height="237.434" fill="#D9D9D9"/>
</mask>
<g mask="url(#mask0_200_185)">
<path d="M78.0688 132.554C70.099 132.332 67.5531 128.403 67.2764 126.466C77.2386 106.32 79.3602 92.4278 79.1757 88.0001C75.1908 69.1825 83.05 52.302 87.4776 46.2139C79.9506 35.8089 80.6516 29.7024 81.943 27.9498C148.137 -20.0904 203.058 4.79678 222.245 23.2454C266.079 78.1486 227.78 124.897 203.151 141.409C203.335 163.824 209.681 215.517 233.591 242.969C257.5 270.42 260.895 302.189 259.603 314.642H194.572V300.252C197.616 237.157 168.559 159.673 167.452 145.006C166.346 130.34 149.188 130.893 146.974 138.088C144.761 145.283 138.119 146.113 138.673 141.409C139.115 137.645 141.993 133.937 143.377 132.554C125.666 100.453 96.0562 131.723 90.2449 138.918C84.4336 146.113 77.2386 146.39 79.1757 139.749C80.7254 134.435 79.0835 132.738 78.0688 132.554Z" stroke="#F5F9FA" stroke-width="2"/>
<path d="M114.32 167.698C103.694 167.698 88.5845 158.474 81.6663 153.585C79.1757 153.032 77.5154 156.629 80.8361 158.566C83.7045 160.239 84.5258 163.916 84.7103 166.315C83.7879 169.912 84.3229 177.826 90.5217 180.704C96.7204 183.582 112.66 179.505 119.855 177.107C124.928 180.428 135.186 191.774 135.629 210.591C136.182 234.113 125.39 257.082 119.855 266.214C115.427 273.52 107.863 301.543 104.635 314.642H139.78C139.411 313.166 138.507 302.576 137.842 272.025C137.012 233.837 149.742 247.396 158.32 228.302C166.899 209.208 165.515 200.352 161.088 182.088C156.66 163.824 127.603 167.698 114.32 167.698Z" stroke="#F5F9FA" stroke-width="2"/>
</g>
<path d="M17.8701 308V300.775L18.2271 301.846C17.8304 301.279 17.4564 300.792 17.1051 300.384C16.7651 299.965 16.4364 299.619 16.1191 299.347C15.8018 299.075 15.4788 298.877 15.1501 298.752C14.8214 298.616 14.4758 298.548 14.1131 298.548C13.5124 298.548 13.0251 298.707 12.6511 299.024C12.2884 299.33 11.9654 299.687 11.6821 300.095L11.4441 300.231C11.6028 300.084 11.8464 299.965 12.1751 299.874C12.5038 299.772 12.8834 299.721 13.3141 299.721C13.8354 299.721 14.2548 299.823 14.5721 300.027C14.9008 300.231 15.1388 300.492 15.2861 300.809C15.4448 301.115 15.5241 301.421 15.5241 301.727C15.5241 302.396 15.2974 302.996 14.8441 303.529C14.3908 304.05 13.6881 304.566 12.7361 305.076L11.8691 303.835C12.4924 303.574 13.0308 303.285 13.4841 302.968C13.9374 302.639 14.1641 302.248 14.1641 301.795C14.1641 301.546 14.0678 301.336 13.8751 301.166C13.6824 300.996 13.4048 300.911 13.0421 300.911C12.7474 300.911 12.4698 300.945 12.2091 301.013C11.9598 301.081 11.6878 301.189 11.3931 301.336L10.0161 300.214C10.3674 299.625 10.7414 299.115 11.1381 298.684C11.5348 298.242 11.9654 297.902 12.4301 297.664C12.9061 297.426 13.4218 297.307 13.9771 297.307C14.5438 297.307 15.0594 297.409 15.5241 297.613C16.0001 297.806 16.4591 298.1 16.9011 298.497C17.3544 298.894 17.8078 299.387 18.2611 299.976L17.9551 299.789C17.9324 299.63 17.9098 299.387 17.8871 299.058C17.8758 298.729 17.8701 298.395 17.8701 298.055V296.304H18.7711L19.1621 297.426H20.9641V298.633H19.1791V308H17.8701ZM33.3953 297.426V298.633H31.6103V308H30.3013V302.305L30.4033 302.747C30.154 302.384 29.8877 302.095 29.6043 301.88C29.3323 301.665 29.032 301.557 28.7033 301.557C28.5333 301.557 28.3577 301.591 28.1763 301.659C28.0063 301.716 27.859 301.829 27.7343 301.999C27.621 302.169 27.5643 302.43 27.5643 302.781C27.5643 302.906 27.5643 303.019 27.5643 303.121C27.5757 303.212 27.587 303.302 27.5983 303.393L26.4933 303.478C26.448 303.013 26.3233 302.622 26.1193 302.305C25.9153 301.976 25.666 301.727 25.3713 301.557C25.0767 301.387 24.7593 301.302 24.4193 301.302C24.1133 301.302 23.8527 301.364 23.6373 301.489C23.422 301.602 23.2577 301.761 23.1443 301.965C23.031 302.158 22.9743 302.379 22.9743 302.628C22.9743 303.081 23.1387 303.467 23.4673 303.784C23.8073 304.101 24.2833 304.368 24.8953 304.583L24.4363 305.841C23.8923 305.671 23.405 305.439 22.9743 305.144C22.5437 304.849 22.2037 304.487 21.9543 304.056C21.705 303.625 21.5803 303.127 21.5803 302.56C21.5803 302.05 21.705 301.614 21.9543 301.251C22.2037 300.877 22.538 300.588 22.9573 300.384C23.3767 300.18 23.8357 300.078 24.3343 300.078C24.935 300.078 25.4507 300.191 25.8813 300.418C26.312 300.633 26.7087 300.985 27.0713 301.472L26.8163 301.489C26.9297 301.115 27.145 300.832 27.4623 300.639C27.791 300.435 28.131 300.333 28.4823 300.333C28.8903 300.333 29.2417 300.412 29.5363 300.571C29.831 300.73 30.154 300.956 30.5053 301.251L30.3523 301.506C30.341 301.268 30.3297 301.03 30.3183 300.792C30.307 300.554 30.3013 300.31 30.3013 300.061V298.633H20.6283V297.426H33.3953ZM37.9249 297.426V298.633H36.1399V308H34.8309V300.027C34.6949 299.642 34.4909 299.313 34.2189 299.041C33.9582 298.769 33.6182 298.633 33.1989 298.633H33.0629V297.426H33.3179C33.5899 297.426 33.8732 297.517 34.1679 297.698C34.4626 297.868 34.7006 298.134 34.8819 298.497C34.8706 298.44 34.8592 298.31 34.8479 298.106C34.8366 297.902 34.8309 297.726 34.8309 297.579V296.304H35.7489L36.1229 297.426H37.9249ZM48.0505 297.426V298.633H46.2655V308H44.9565C44.6165 307.32 44.1462 306.697 43.5455 306.13C42.9562 305.552 42.2762 305.065 41.5055 304.668C40.7349 304.271 39.9132 304.005 39.0405 303.869L38.3775 302.237C39.4655 301.58 40.5875 300.985 41.7435 300.452C42.9109 299.919 44.1122 299.466 45.3475 299.092L44.9565 299.806V298.633H37.5785V297.426H48.0505ZM44.9565 299.942L45.3135 300.418C44.4522 300.701 43.5455 301.053 42.5935 301.472C41.6415 301.88 40.7632 302.333 39.9585 302.832C40.5705 302.968 41.2222 303.2 41.9135 303.529C42.6049 303.858 43.2452 304.271 43.8345 304.77C44.4239 305.269 44.8772 305.847 45.1945 306.504H45.0415C45.0189 306.243 44.9962 305.983 44.9735 305.722C44.9622 305.461 44.9565 305.15 44.9565 304.787V299.942ZM40.8935 308.102C40.6102 308.102 40.3665 308.011 40.1625 307.83C39.9699 307.649 39.8735 307.411 39.8735 307.116C39.8735 306.821 39.9699 306.578 40.1625 306.385C40.3665 306.192 40.6102 306.096 40.8935 306.096C41.1769 306.096 41.4149 306.192 41.6075 306.385C41.8115 306.578 41.9135 306.821 41.9135 307.116C41.9135 307.411 41.8115 307.649 41.6075 307.83C41.4149 308.011 41.1769 308.102 40.8935 308.102ZM61.1279 297.324C61.5926 297.324 61.9779 297.375 62.2839 297.477C62.6013 297.568 62.8676 297.709 63.0829 297.902C63.2983 298.083 63.4683 298.31 63.5929 298.582C63.7176 298.843 63.7799 299.205 63.7799 299.67V308H62.5049C62.4143 307.66 62.2839 307.382 62.1139 307.167C61.9439 306.952 61.7343 306.793 61.4849 306.691C61.2469 306.578 60.9579 306.521 60.6179 306.521C60.2099 306.521 59.8303 306.544 59.4789 306.589C59.1276 306.634 58.7593 306.685 58.3739 306.742C57.9999 306.787 57.5636 306.81 57.0649 306.81C56.6796 306.81 56.2659 306.77 55.8239 306.691C55.3819 306.6 54.9626 306.436 54.5659 306.198C54.1693 305.96 53.8463 305.609 53.5969 305.144C53.3476 304.668 53.2229 304.045 53.2229 303.274C53.2229 303.002 53.2456 302.719 53.2909 302.424C53.3363 302.118 53.3816 301.84 53.4269 301.591L54.7359 301.778C54.6906 301.948 54.6453 302.152 54.5999 302.39C54.5659 302.628 54.5489 302.911 54.5489 303.24C54.5489 303.739 54.6226 304.141 54.7699 304.447C54.9173 304.753 55.1156 304.985 55.3649 305.144C55.6143 305.303 55.8919 305.41 56.1979 305.467C56.5039 305.524 56.8156 305.552 57.1329 305.552C57.6996 305.552 58.2153 305.507 58.6799 305.416C59.1559 305.314 59.6886 305.263 60.2779 305.263C60.7653 305.263 61.1903 305.337 61.5529 305.484C61.9156 305.62 62.2216 305.858 62.4709 306.198V300.129C62.4709 299.71 62.4426 299.409 62.3859 299.228C62.3293 299.047 62.2386 298.899 62.1139 298.786C61.9099 298.616 61.5983 298.531 61.1789 298.531C60.7709 298.531 60.3799 298.622 60.0059 298.803C59.6433 298.984 59.3146 299.217 59.0199 299.5C58.7366 299.783 58.5099 300.089 58.3399 300.418C58.1813 300.735 58.1019 301.036 58.1019 301.319C58.1019 301.432 58.1246 301.551 58.1699 301.676C58.2153 301.801 58.3116 301.908 58.4589 301.999C58.6063 302.09 58.8216 302.135 59.1049 302.135C59.2296 302.135 59.3486 302.129 59.4619 302.118C59.5753 302.107 59.6943 302.095 59.8189 302.084L59.9379 303.274C59.8246 303.319 59.6716 303.353 59.4789 303.376C59.2976 303.399 59.0823 303.41 58.8329 303.41C58.2776 303.41 57.7903 303.24 57.3709 302.9C56.9629 302.56 56.7589 302.039 56.7589 301.336C56.7589 300.883 56.8723 300.424 57.0989 299.959C57.3369 299.483 57.6599 299.047 58.0679 298.65C58.4759 298.253 58.9406 297.936 59.4619 297.698C59.9946 297.449 60.5499 297.324 61.1279 297.324ZM77.3257 297.426V298.633H75.5407V308H74.2317C73.9144 307.535 73.5517 307.088 73.1437 306.657C72.7357 306.226 72.2824 305.83 71.7837 305.467C71.2851 305.104 70.7354 304.793 70.1347 304.532C69.5341 304.271 68.8711 304.079 68.1457 303.954L67.7377 302.373L68.5537 302.968C69.6077 303.149 70.4974 303.427 71.2227 303.801C71.9594 304.164 72.5714 304.572 73.0587 305.025C73.5574 305.478 73.9597 305.92 74.2657 306.351C74.2544 306.09 74.2431 305.83 74.2317 305.569C74.2317 305.308 74.2317 305.025 74.2317 304.719V296.304H75.1327L75.5237 297.426H77.3257ZM72.9737 300.01C72.9737 300.667 72.7924 301.228 72.4297 301.693C72.0784 302.146 71.5911 302.509 70.9677 302.781C70.3557 303.042 69.6587 303.217 68.8767 303.308L68.0777 303.155L67.7377 302.373C68.6557 302.305 69.4037 302.175 69.9817 301.982C70.5711 301.778 71.0017 301.517 71.2737 301.2C71.5571 300.871 71.6987 300.497 71.6987 300.078C71.6987 299.727 71.6194 299.409 71.4607 299.126C71.3021 298.843 71.0471 298.565 70.6957 298.293L71.6307 297.375C72.0161 297.726 72.3334 298.129 72.5827 298.582C72.8434 299.024 72.9737 299.5 72.9737 300.01ZM68.4177 300.69C67.7264 300.69 67.1767 300.514 66.7687 300.163C66.3607 299.8 66.1567 299.307 66.1567 298.684C66.1567 298.423 66.1907 298.174 66.2587 297.936C66.3381 297.698 66.4287 297.494 66.5307 297.324L67.8227 297.681C67.7434 297.794 67.6754 297.936 67.6187 298.106C67.5621 298.265 67.5337 298.435 67.5337 298.616C67.5337 298.911 67.6131 299.132 67.7717 299.279C67.9417 299.415 68.1571 299.483 68.4177 299.483C68.6444 299.483 68.8824 299.438 69.1317 299.347C69.3811 299.256 69.6361 299.075 69.8967 298.803C70.1687 298.531 70.4351 298.129 70.6957 297.596L71.6307 297.375L71.6647 298.225C71.4381 298.724 71.1661 299.16 70.8487 299.534C70.5314 299.897 70.1687 300.18 69.7607 300.384C69.3641 300.588 68.9164 300.69 68.4177 300.69ZM81.8526 297.426V298.633H80.0676V308H78.7586V300.027C78.6226 299.642 78.4186 299.313 78.1466 299.041C77.886 298.769 77.546 298.633 77.1266 298.633H76.9906V297.426H77.2456C77.5176 297.426 77.801 297.517 78.0956 297.698C78.3903 297.868 78.6283 298.134 78.8096 298.497C78.7983 298.44 78.787 298.31 78.7756 298.106C78.7643 297.902 78.7586 297.726 78.7586 297.579V296.304H79.6766L80.0506 297.426H81.8526ZM92.1143 297.426V298.633H90.3293V308H89.0203V303.869L89.2923 304.821C88.9183 304.3 88.5103 303.829 88.0683 303.41C87.6263 302.991 87.1729 302.656 86.7083 302.407C86.2436 302.158 85.7903 302.033 85.3483 302.033C84.9289 302.033 84.5719 302.146 84.2773 302.373C83.9939 302.588 83.8523 302.911 83.8523 303.342C83.8523 303.682 83.9713 303.977 84.2093 304.226C84.4473 304.464 84.8156 304.679 85.3143 304.872L84.6683 306.079C83.9769 305.796 83.4329 305.416 83.0363 304.94C82.6509 304.453 82.4583 303.903 82.4583 303.291C82.4583 302.736 82.5886 302.277 82.8493 301.914C83.1213 301.54 83.4613 301.262 83.8693 301.081C84.2886 300.9 84.7136 300.809 85.1443 300.809C85.7336 300.809 86.2719 300.911 86.7593 301.115C87.2466 301.319 87.6999 301.597 88.1193 301.948C88.5499 302.299 88.9579 302.707 89.3433 303.172L89.1053 303.24C89.0713 302.979 89.0486 302.724 89.0373 302.475C89.0259 302.214 89.0203 301.954 89.0203 301.693V298.633H81.5063V297.426H92.1143ZM102.553 297.426V298.633H102.213C101.862 298.712 101.482 298.888 101.074 299.16C100.666 299.421 100.281 299.766 99.9185 300.197C99.5558 300.616 99.2555 301.109 99.0175 301.676C98.7908 302.243 98.6775 302.866 98.6775 303.546C98.6775 304.362 98.7965 305.014 99.0345 305.501C99.2838 305.977 99.5898 306.317 99.9525 306.521C100.315 306.725 100.678 306.827 101.04 306.827C101.324 306.827 101.562 306.799 101.754 306.742C101.947 306.685 102.168 306.583 102.417 306.436L103.012 307.473C102.718 307.7 102.395 307.858 102.043 307.949C101.692 308.04 101.335 308.085 100.972 308.085C100.258 308.085 99.6295 307.898 99.0855 307.524C98.5415 307.15 98.1108 306.629 97.7935 305.96C97.4875 305.28 97.3345 304.487 97.3345 303.58C97.3345 302.707 97.4705 301.931 97.7425 301.251C98.0258 300.56 98.3885 299.959 98.8305 299.449C99.2838 298.939 99.7711 298.52 100.292 298.191C100.814 297.851 101.318 297.596 101.805 297.426H102.553ZM113.513 297.426V298.633H111.728V308H110.419C109.989 307.377 109.479 306.793 108.889 306.249C108.3 305.694 107.626 305.218 106.866 304.821C106.118 304.413 105.274 304.124 104.333 303.954L103.942 302.373L104.826 302.968C105.778 303.149 106.611 303.421 107.325 303.784C108.051 304.135 108.674 304.538 109.195 304.991C109.717 305.433 110.136 305.886 110.453 306.351C110.442 306.09 110.431 305.83 110.419 305.569C110.419 305.308 110.419 305.025 110.419 304.719V296.304H111.32L111.711 297.426H113.513ZM105.965 297.375C106.679 297.375 107.274 297.5 107.75 297.749C108.226 297.987 108.583 298.316 108.821 298.735C109.059 299.143 109.178 299.602 109.178 300.112C109.178 300.996 108.81 301.716 108.073 302.271C107.348 302.826 106.345 303.178 105.064 303.325L104.248 303.155L103.942 302.373C104.894 302.305 105.654 302.169 106.22 301.965C106.787 301.75 107.189 301.483 107.427 301.166C107.677 300.837 107.801 300.475 107.801 300.078C107.801 299.591 107.643 299.217 107.325 298.956C107.008 298.695 106.543 298.565 105.931 298.565C105.365 298.565 104.957 298.678 104.707 298.905C104.469 299.12 104.35 299.353 104.35 299.602C104.35 299.761 104.39 299.908 104.469 300.044C104.56 300.18 104.713 300.305 104.928 300.418L104.18 301.472C103.965 301.325 103.767 301.166 103.585 300.996C103.415 300.815 103.279 300.605 103.177 300.367C103.075 300.129 103.024 299.857 103.024 299.551C103.024 299.154 103.138 298.792 103.364 298.463C103.591 298.134 103.925 297.874 104.367 297.681C104.809 297.477 105.342 297.375 105.965 297.375ZM119.387 297.426V298.633H119.047C118.696 298.712 118.316 298.888 117.908 299.16C117.5 299.421 117.115 299.766 116.752 300.197C116.39 300.616 116.089 301.109 115.851 301.676C115.625 302.243 115.511 302.866 115.511 303.546C115.511 304.362 115.63 305.014 115.868 305.501C116.118 305.977 116.424 306.317 116.786 306.521C117.149 306.725 117.512 306.827 117.874 306.827C118.158 306.827 118.396 306.799 118.588 306.742C118.781 306.685 119.002 306.583 119.251 306.436L119.846 307.473C119.552 307.7 119.229 307.858 118.877 307.949C118.526 308.04 118.175 308.085 117.823 308.085C117.109 308.085 116.475 307.898 115.919 307.524C115.375 307.15 114.945 306.629 114.627 305.96C114.321 305.28 114.168 304.487 114.168 303.58C114.168 302.651 114.344 301.812 114.695 301.064C115.047 300.305 115.517 299.664 116.106 299.143C116.707 298.622 117.37 298.242 118.095 298.004L117.007 298.565C116.803 298.588 116.582 298.605 116.344 298.616C116.106 298.627 115.84 298.633 115.545 298.633H113.165V297.426H119.387ZM133.101 297.426V298.633H127.576V299.687V299.959V308H126.267C125.939 307.331 125.48 306.702 124.89 306.113C124.301 305.524 123.627 305.031 122.867 304.634C122.119 304.226 121.332 303.971 120.504 303.869L119.841 302.237C120.941 301.602 122.04 301.036 123.139 300.537C124.239 300.038 125.406 299.596 126.641 299.211L126.267 299.925V298.633H119.042V297.426H133.101ZM126.267 300.061L126.624 300.554C126.046 300.713 125.446 300.922 124.822 301.183C124.21 301.444 123.61 301.716 123.02 301.999C122.442 302.282 121.91 302.56 121.422 302.832C122.057 302.957 122.709 303.195 123.377 303.546C124.057 303.897 124.675 304.328 125.23 304.838C125.797 305.337 126.216 305.881 126.488 306.47L126.352 306.504C126.33 306.243 126.307 305.983 126.284 305.722C126.273 305.461 126.267 305.15 126.267 304.787V300.061ZM132.149 303.104C132.149 303.478 132.076 303.835 131.928 304.175C131.781 304.504 131.537 304.776 131.197 304.991C130.857 305.206 130.404 305.314 129.837 305.314C129.656 305.314 129.48 305.308 129.31 305.297C129.152 305.286 128.993 305.263 128.834 305.229L128.936 304.005C129.004 304.016 129.084 304.028 129.174 304.039C129.276 304.039 129.39 304.039 129.514 304.039C130.058 304.039 130.41 303.937 130.568 303.733C130.738 303.518 130.823 303.263 130.823 302.968C130.823 302.367 130.529 301.857 129.939 301.438C129.361 301.007 128.5 300.713 127.355 300.554L127.406 299.279C128.279 299.37 129.072 299.591 129.786 299.942C130.5 300.282 131.073 300.724 131.503 301.268C131.934 301.801 132.149 302.413 132.149 303.104ZM147.793 297.426V298.633H146.008V308H144.699C144.359 307.32 143.888 306.697 143.288 306.13C142.698 305.552 142.018 305.065 141.248 304.668C140.477 304.271 139.655 304.005 138.783 303.869L138.12 302.237C139.208 301.58 140.33 300.985 141.486 300.452C142.653 299.919 143.854 299.466 145.09 299.092L144.699 299.806V298.633H137.321V297.426H147.793ZM144.699 299.942L145.056 300.418C144.194 300.701 143.288 301.053 142.336 301.472C141.384 301.88 140.505 302.333 139.701 302.832C140.313 302.968 140.964 303.2 141.656 303.529C142.347 303.858 142.987 304.271 143.577 304.77C144.166 305.269 144.619 305.847 144.937 306.504H144.784C144.761 306.243 144.738 305.983 144.716 305.722C144.704 305.461 144.699 305.15 144.699 304.787V299.942ZM152.31 297.426V298.633H150.525V308H149.216V300.027C149.08 299.642 148.876 299.313 148.604 299.041C148.343 298.769 148.003 298.633 147.584 298.633H147.448V297.426H147.703C147.975 297.426 148.258 297.517 148.553 297.698C148.847 297.868 149.085 298.134 149.267 298.497C149.255 298.44 149.244 298.31 149.233 298.106C149.221 297.902 149.216 297.726 149.216 297.579V296.304H150.134L150.508 297.426H152.31ZM159.052 307.15C158.123 307.15 157.256 306.923 156.451 306.47C155.647 306.005 154.921 305.257 154.275 304.226C153.641 303.195 153.091 301.812 152.626 300.078L153.918 299.738C154.315 301.143 154.746 302.299 155.21 303.206C155.686 304.113 156.23 304.781 156.842 305.212C157.466 305.643 158.191 305.858 159.018 305.858C159.551 305.858 159.999 305.796 160.361 305.671C160.724 305.535 161.013 305.348 161.228 305.11C161.455 304.872 161.619 304.6 161.721 304.294C161.823 303.977 161.874 303.637 161.874 303.274C161.874 302.798 161.784 302.367 161.602 301.982C161.421 301.585 161.166 301.274 160.837 301.047C160.509 300.82 160.123 300.707 159.681 300.707C159.228 300.707 158.899 300.803 158.695 300.996C158.503 301.189 158.406 301.444 158.406 301.761C158.406 301.874 158.418 301.993 158.44 302.118C158.463 302.243 158.503 302.384 158.559 302.543L157.25 302.798C157.182 302.583 157.126 302.373 157.08 302.169C157.046 301.965 157.029 301.755 157.029 301.54C157.029 301.098 157.137 300.73 157.352 300.435C157.579 300.129 157.885 299.897 158.27 299.738C158.667 299.579 159.115 299.5 159.613 299.5C160.316 299.5 160.934 299.664 161.466 299.993C161.999 300.31 162.418 300.758 162.724 301.336C163.03 301.914 163.183 302.583 163.183 303.342C163.183 304.056 163.03 304.702 162.724 305.28C162.43 305.847 161.976 306.3 161.364 306.64C160.752 306.98 159.982 307.15 159.052 307.15ZM164.322 297.426V298.633H151.963V297.426H164.322ZM168.845 297.426V298.633H167.06V308H165.751V300.027C165.615 299.642 165.411 299.313 165.139 299.041C164.878 298.769 164.538 298.633 164.119 298.633H163.983V297.426H164.238C164.51 297.426 164.793 297.517 165.088 297.698C165.382 297.868 165.62 298.134 165.802 298.497C165.79 298.44 165.779 298.31 165.768 298.106C165.756 297.902 165.751 297.726 165.751 297.579V296.304H166.669L167.043 297.426H168.845ZM174.72 297.426V298.633H174.38C174.029 298.712 173.649 298.888 173.241 299.16C172.833 299.421 172.448 299.766 172.085 300.197C171.723 300.616 171.422 301.109 171.184 301.676C170.958 302.243 170.844 302.866 170.844 303.546C170.844 304.362 170.963 305.014 171.201 305.501C171.451 305.977 171.757 306.317 172.119 306.521C172.482 306.725 172.845 306.827 173.207 306.827C173.491 306.827 173.729 306.799 173.921 306.742C174.114 306.685 174.335 306.583 174.584 306.436L175.179 307.473C174.885 307.7 174.562 307.858 174.21 307.949C173.859 308.04 173.508 308.085 173.156 308.085C172.442 308.085 171.808 307.898 171.252 307.524C170.708 307.15 170.278 306.629 169.96 305.96C169.654 305.28 169.501 304.487 169.501 303.58C169.501 302.651 169.677 301.812 170.028 301.064C170.38 300.305 170.85 299.664 171.439 299.143C172.04 298.622 172.703 298.242 173.428 298.004L172.34 298.565C172.136 298.588 171.915 298.605 171.677 298.616C171.439 298.627 171.173 298.633 170.878 298.633H168.498V297.426H174.72ZM186.309 297.426V298.633H184.524V308H183.215V301.999L183.606 303.07C183.255 302.605 182.949 302.248 182.688 301.999C182.439 301.75 182.195 301.625 181.957 301.625C181.799 301.625 181.651 301.67 181.515 301.761C181.379 301.852 181.226 302.027 181.056 302.288C180.886 302.537 180.66 302.923 180.376 303.444C180.07 303.999 179.793 304.458 179.543 304.821C179.294 305.172 179.028 305.433 178.744 305.603C178.472 305.762 178.138 305.841 177.741 305.841C177.435 305.841 177.141 305.779 176.857 305.654C176.585 305.529 176.308 305.325 176.024 305.042C175.752 304.747 175.458 304.351 175.14 303.852L176.177 303.223C176.483 303.767 176.738 304.124 176.942 304.294C177.146 304.464 177.367 304.549 177.605 304.549C177.798 304.549 177.979 304.492 178.149 304.379C178.331 304.254 178.523 304.045 178.727 303.75C178.943 303.455 179.186 303.053 179.458 302.543L179.849 301.982C180.144 301.37 180.427 300.951 180.699 300.724C180.971 300.486 181.272 300.367 181.6 300.367C181.974 300.367 182.309 300.475 182.603 300.69C182.909 300.894 183.261 301.211 183.657 301.642L183.317 301.659C183.272 301.398 183.244 301.155 183.232 300.928C183.221 300.69 183.215 300.452 183.215 300.214V298.633H174.375V297.426H186.309ZM179.152 303.393C179.039 302.622 178.92 302.01 178.795 301.557C178.682 301.104 178.478 300.752 178.183 300.503C177.9 300.242 177.515 300.05 177.027 299.925C176.54 299.789 175.928 299.676 175.191 299.585L175.446 298.293L176.364 298.633C177.01 298.735 177.549 298.865 177.979 299.024C178.41 299.183 178.756 299.392 179.016 299.653C179.288 299.902 179.492 300.214 179.628 300.588C179.764 300.962 179.855 301.415 179.9 301.948L179.152 303.393ZM196.435 297.426V298.633H194.65V308H193.341C193.001 307.32 192.531 306.697 191.93 306.13C191.341 305.552 190.661 305.065 189.89 304.668C189.12 304.271 188.298 304.005 187.425 303.869L186.762 302.237C187.85 301.58 188.972 300.985 190.128 300.452C191.296 299.919 192.497 299.466 193.732 299.092L193.341 299.806V298.633H185.963V297.426H196.435ZM193.341 299.942L193.698 300.418C192.837 300.701 191.93 301.053 190.978 301.472C190.026 301.88 189.148 302.333 188.343 302.832C188.955 302.968 189.607 303.2 190.298 303.529C190.99 303.858 191.63 304.271 192.219 304.77C192.809 305.269 193.262 305.847 193.579 306.504H193.426C193.404 306.243 193.381 305.983 193.358 305.722C193.347 305.461 193.341 305.15 193.341 304.787V299.942ZM189.278 308.102C188.995 308.102 188.751 308.011 188.547 307.83C188.355 307.649 188.258 307.411 188.258 307.116C188.258 306.821 188.355 306.578 188.547 306.385C188.751 306.192 188.995 306.096 189.278 306.096C189.562 306.096 189.8 306.192 189.992 306.385C190.196 306.578 190.298 306.821 190.298 307.116C190.298 307.411 190.196 307.649 189.992 307.83C189.8 308.011 189.562 308.102 189.278 308.102ZM211.57 297.426V298.633H209.785V308H208.476V305.705L208.782 306.606C208.385 306.005 207.983 305.45 207.575 304.94C207.178 304.43 206.753 304.016 206.3 303.699C205.858 303.382 205.37 303.223 204.838 303.223C204.418 303.223 204.061 303.331 203.767 303.546C203.483 303.761 203.342 304.084 203.342 304.515C203.342 304.889 203.478 305.206 203.75 305.467C204.022 305.716 204.424 305.932 204.957 306.113L204.532 307.422C203.92 307.207 203.421 306.946 203.036 306.64C202.662 306.334 202.384 306 202.203 305.637C202.033 305.263 201.948 304.872 201.948 304.464C201.948 303.92 202.078 303.467 202.339 303.104C202.611 302.741 202.951 302.469 203.359 302.288C203.778 302.095 204.197 301.999 204.617 301.999C205.297 301.999 205.892 302.124 206.402 302.373C206.923 302.622 207.376 302.957 207.762 303.376C208.158 303.795 208.515 304.266 208.833 304.787L208.544 304.838C208.521 304.577 208.504 304.317 208.493 304.056C208.481 303.784 208.476 303.506 208.476 303.223V298.633H200.656V297.426H211.57ZM205.909 302.509C205.909 302.577 205.903 302.645 205.892 302.713C205.892 302.781 205.886 302.849 205.875 302.917L204.583 302.526C204.56 301.869 204.447 301.342 204.243 300.945C204.039 300.548 203.716 300.248 203.274 300.044C202.832 299.829 202.231 299.681 201.472 299.602L201.693 298.378L202.475 298.599C203.019 298.644 203.5 298.758 203.92 298.939C204.35 299.109 204.713 299.353 205.008 299.67C205.302 299.987 205.523 300.384 205.671 300.86C205.829 301.325 205.909 301.874 205.909 302.509ZM216.093 297.426V298.633H214.308V308H212.999V300.027C212.863 299.642 212.659 299.313 212.387 299.041C212.126 298.769 211.786 298.633 211.367 298.633H211.231V297.426H211.486C211.758 297.426 212.041 297.517 212.336 297.698C212.631 297.868 212.869 298.134 213.05 298.497C213.039 298.44 213.027 298.31 213.016 298.106C213.005 297.902 212.999 297.726 212.999 297.579V296.304H213.917L214.291 297.426H216.093ZM226.219 297.426V298.633H224.434V308H223.125C222.785 307.32 222.314 306.697 221.714 306.13C221.124 305.552 220.444 305.065 219.674 304.668C218.903 304.271 218.081 304.005 217.209 303.869L216.546 302.237C217.634 301.58 218.756 300.985 219.912 300.452C221.079 299.919 222.28 299.466 223.516 299.092L223.125 299.806V297.426H226.219ZM223.125 299.942L223.482 300.418C222.62 300.701 221.714 301.053 220.762 301.472C219.81 301.88 218.931 302.333 218.127 302.832C218.739 302.968 219.39 303.2 220.082 303.529C220.773 303.858 221.413 304.271 222.003 304.77C222.592 305.269 223.045 305.847 223.363 306.504H223.21C223.187 306.243 223.164 305.983 223.142 305.722C223.13 305.461 223.125 305.15 223.125 304.787V299.942ZM219.997 297.307C220.133 297.307 220.28 297.318 220.439 297.341C220.597 297.352 220.75 297.369 220.898 297.392L220.796 298.616C220.728 298.605 220.643 298.599 220.541 298.599C220.45 298.588 220.331 298.582 220.184 298.582C219.844 298.582 219.577 298.656 219.385 298.803C219.203 298.939 219.113 299.12 219.113 299.347C219.113 299.642 219.243 299.897 219.504 300.112C219.764 300.316 220.229 300.548 220.898 300.809L219.878 301.574C219.447 301.359 219.073 301.132 218.756 300.894C218.438 300.645 218.195 300.373 218.025 300.078C217.855 299.783 217.77 299.455 217.77 299.092C217.77 298.786 217.849 298.497 218.008 298.225C218.166 297.953 218.41 297.732 218.739 297.562C219.067 297.392 219.487 297.307 219.997 297.307ZM230.548 297.426V298.633H229.358L230.378 298.259C229.914 298.633 229.562 298.973 229.324 299.279C229.086 299.574 228.928 299.874 228.848 300.18C228.769 300.486 228.729 300.854 228.729 301.285C228.729 301.659 228.775 302.056 228.865 302.475C228.956 302.894 229.047 303.331 229.137 303.784C229.239 304.226 229.29 304.691 229.29 305.178C229.29 305.586 229.245 305.983 229.154 306.368C229.064 306.742 228.894 307.093 228.644 307.422C228.406 307.739 228.061 308.023 227.607 308.272C227.165 308.521 226.587 308.725 225.873 308.884L225.516 307.711C226.242 307.541 226.774 307.331 227.114 307.082C227.466 306.821 227.692 306.527 227.794 306.198C227.908 305.869 227.964 305.518 227.964 305.144C227.964 304.691 227.919 304.249 227.828 303.818C227.738 303.387 227.641 302.962 227.539 302.543C227.449 302.124 227.403 301.716 227.403 301.319C227.403 300.888 227.443 300.514 227.522 300.197C227.602 299.868 227.738 299.557 227.93 299.262C228.123 298.956 228.384 298.627 228.712 298.276L228.967 298.633H225.873V297.426H230.548ZM236.428 297.426V298.633H236.088C235.737 298.712 235.357 298.888 234.949 299.16C234.541 299.421 234.156 299.766 233.793 300.197C233.431 300.616 233.13 301.109 232.892 301.676C232.666 302.243 232.552 302.866 232.552 303.546C232.552 304.362 232.671 305.014 232.909 305.501C233.159 305.977 233.465 306.317 233.827 306.521C234.19 306.725 234.553 306.827 234.915 306.827C235.199 306.827 235.437 306.799 235.629 306.742C235.822 306.685 236.043 306.583 236.292 306.436L236.887 307.473C236.593 307.7 236.27 307.858 235.918 307.949C235.567 308.04 235.216 308.085 234.864 308.085C234.15 308.085 233.516 307.898 232.96 307.524C232.416 307.15 231.986 306.629 231.668 305.96C231.362 305.28 231.209 304.487 231.209 303.58C231.209 302.651 231.385 301.812 231.736 301.064C232.088 300.305 232.558 299.664 233.147 299.143C233.748 298.622 234.411 298.242 235.136 298.004L234.048 298.565C233.844 298.588 233.623 298.605 233.385 298.616C233.147 298.627 232.881 298.633 232.586 298.633H230.206V297.426H236.428ZM246.997 297.426V298.633H245.212V308H243.903V305.705L244.209 306.606C243.813 306.005 243.41 305.45 243.002 304.94C242.606 304.43 242.181 304.016 241.727 303.699C241.285 303.382 240.798 303.223 240.265 303.223C239.846 303.223 239.489 303.331 239.194 303.546C238.911 303.761 238.769 304.084 238.769 304.515C238.769 304.889 238.905 305.206 239.177 305.467C239.449 305.716 239.852 305.932 240.384 306.113L239.959 307.422C239.347 307.207 238.849 306.946 238.463 306.64C238.089 306.334 237.812 306 237.63 305.637C237.46 305.263 237.375 304.872 237.375 304.464C237.375 303.92 237.506 303.467 237.766 303.104C238.038 302.741 238.378 302.469 238.786 302.288C239.206 302.095 239.625 301.999 240.044 301.999C240.724 301.999 241.319 302.124 241.829 302.373C242.351 302.622 242.804 302.957 243.189 303.376C243.586 303.795 243.943 304.266 244.26 304.787L243.971 304.838C243.949 304.577 243.932 304.317 243.92 304.056C243.909 303.784 243.903 303.506 243.903 303.223V298.633H236.083V297.426H246.997ZM241.336 302.509C241.336 302.577 241.331 302.645 241.319 302.713C241.319 302.781 241.314 302.849 241.302 302.917L240.01 302.526C239.988 301.869 239.874 301.342 239.67 300.945C239.466 300.548 239.143 300.248 238.701 300.044C238.259 299.829 237.659 299.681 236.899 299.602L237.12 298.378L237.902 298.599C238.446 298.644 238.928 298.758 239.347 298.939C239.778 299.109 240.141 299.353 240.435 299.67C240.73 299.987 240.951 300.384 241.098 300.86C241.257 301.325 241.336 301.874 241.336 302.509ZM263.073 297.426V298.633H261.288V308H259.979V299.296L260.064 298.956C260.03 298.763 260.007 298.565 259.996 298.361C259.985 298.157 259.979 297.93 259.979 297.681V296.304H260.88L261.288 297.426H263.073ZM257.531 297.307C257.973 297.307 258.381 297.392 258.755 297.562C259.129 297.732 259.463 297.97 259.758 298.276C260.053 298.582 260.291 298.939 260.472 299.347L260.404 301.132C260.053 300.316 259.639 299.681 259.163 299.228C258.687 298.775 258.154 298.548 257.565 298.548C257.123 298.548 256.766 298.673 256.494 298.922C256.222 299.16 256.086 299.517 256.086 299.993C256.086 300.446 256.267 300.82 256.63 301.115C257.004 301.398 257.599 301.557 258.415 301.591L258.296 302.9C257.548 302.855 256.93 302.702 256.443 302.441C255.967 302.18 255.616 301.84 255.389 301.421C255.162 300.99 255.049 300.497 255.049 299.942C255.049 299.341 255.168 298.848 255.406 298.463C255.644 298.066 255.95 297.777 256.324 297.596C256.709 297.403 257.112 297.307 257.531 297.307ZM252.703 297.307C253.179 297.307 253.627 297.403 254.046 297.596C254.477 297.789 254.828 298.095 255.1 298.514C255.372 298.933 255.508 299.483 255.508 300.163C255.508 300.628 255.395 301.07 255.168 301.489C254.941 301.908 254.59 302.248 254.114 302.509C253.649 302.77 253.049 302.9 252.312 302.9L252.21 301.591C252.788 301.58 253.241 301.5 253.57 301.353C253.899 301.194 254.131 300.996 254.267 300.758C254.403 300.52 254.471 300.282 254.471 300.044C254.471 299.579 254.324 299.217 254.029 298.956C253.734 298.684 253.287 298.548 252.686 298.548C252.482 298.548 252.278 298.565 252.074 298.599C251.881 298.622 251.649 298.667 251.377 298.735L251.241 297.46C251.524 297.403 251.774 297.364 251.989 297.341C252.216 297.318 252.454 297.307 252.703 297.307ZM277.944 297.426V298.633H270.226V303.699L269.988 303.359C270.441 302.849 270.957 302.373 271.535 301.931C272.113 301.489 272.742 301.087 273.422 300.724C274.102 300.35 274.827 300.021 275.598 299.738L276.703 300.826C276.488 301.223 276.312 301.608 276.176 301.982C276.051 302.356 275.955 302.747 275.887 303.155C275.83 303.563 275.802 304.016 275.802 304.515C275.802 305.07 275.847 305.603 275.938 306.113C276.029 306.623 276.182 307.195 276.397 307.83L275.122 308.119C274.918 307.462 274.759 306.821 274.646 306.198C274.533 305.563 274.476 304.906 274.476 304.226C274.476 303.761 274.51 303.325 274.578 302.917C274.646 302.509 274.737 302.146 274.85 301.829C274.975 301.5 275.099 301.234 275.224 301.03L275.428 301.115C274.782 301.376 274.153 301.693 273.541 302.067C272.929 302.441 272.323 302.872 271.722 303.359C271.133 303.846 270.532 304.402 269.92 305.025H269.172V298.633H262.729V297.426H277.944ZM269.716 297.698L269.699 305.025H268.917C268.509 304.492 268.05 304.056 267.54 303.716C267.041 303.376 266.509 303.104 265.942 302.9C265.375 302.696 264.78 302.549 264.157 302.458L263.511 300.928C264.1 300.645 264.701 300.378 265.313 300.129C265.925 299.868 266.537 299.63 267.149 299.415C267.761 299.188 268.35 298.996 268.917 298.837V297.715L269.716 297.698ZM268.917 299.5L269.291 299.993C268.792 300.129 268.282 300.288 267.761 300.469C267.24 300.639 266.724 300.826 266.214 301.03C265.715 301.223 265.228 301.427 264.752 301.642L264.684 301.404C265.251 301.495 265.766 301.625 266.231 301.795C266.707 301.954 267.166 302.169 267.608 302.441C268.05 302.702 268.509 303.036 268.985 303.444C268.974 303.229 268.957 302.985 268.934 302.713C268.923 302.43 268.917 302.203 268.917 302.033V299.5ZM286.453 299.5C287.349 299.5 288.068 299.653 288.612 299.959C289.168 300.254 289.576 300.633 289.836 301.098C290.097 301.551 290.227 302.01 290.227 302.475C290.227 303.404 289.899 304.141 289.241 304.685C288.595 305.229 287.632 305.535 286.351 305.603L286.521 305.416C287.031 305.563 287.57 305.773 288.136 306.045C288.703 306.317 289.275 306.634 289.853 306.997C290.431 307.348 290.987 307.739 291.519 308.17L290.737 309.071C290.035 308.55 289.389 308.102 288.799 307.728C288.221 307.343 287.649 307.008 287.082 306.725C286.516 306.442 285.915 306.192 285.28 305.977C284.646 305.762 283.926 305.563 283.121 305.382L283.376 304.209C283.773 304.322 284.153 304.407 284.515 304.464C284.889 304.509 285.337 304.532 285.858 304.532C286.663 304.532 287.281 304.436 287.711 304.243C288.153 304.05 288.459 303.801 288.629 303.495C288.799 303.189 288.884 302.877 288.884 302.56C288.884 301.959 288.663 301.5 288.221 301.183C287.779 300.854 287.218 300.69 286.538 300.69C286.13 300.69 285.802 300.73 285.552 300.809C285.303 300.888 285.122 301.007 285.008 301.166C284.906 301.313 284.855 301.495 284.855 301.71C284.855 301.801 284.867 301.897 284.889 301.999C284.912 302.09 284.935 302.175 284.957 302.254L283.716 302.509C283.66 302.339 283.614 302.163 283.58 301.982C283.546 301.789 283.529 301.619 283.529 301.472C283.529 301.053 283.654 300.696 283.903 300.401C284.153 300.106 284.493 299.885 284.923 299.738C285.365 299.579 285.875 299.5 286.453 299.5ZM285.314 300.095C285.258 299.732 285.088 299.415 284.804 299.143C284.521 298.86 284.113 298.661 283.58 298.548L283.988 297.783L284.77 297.987C285.405 298.236 285.864 298.52 286.147 298.837C286.442 299.154 286.612 299.557 286.657 300.044L285.314 300.095ZM291.519 297.426V298.633H282.169V297.426H291.519ZM297.406 297.426V298.633H297.066C296.715 298.712 296.335 298.888 295.927 299.16C295.519 299.421 295.134 299.766 294.771 300.197C294.408 300.616 294.108 301.109 293.87 301.676C293.643 302.243 293.53 302.866 293.53 303.546C293.53 304.362 293.649 305.014 293.887 305.501C294.136 305.977 294.442 306.317 294.805 306.521C295.168 306.725 295.53 306.827 295.893 306.827C296.176 306.827 296.414 306.799 296.607 306.742C296.8 306.685 297.021 306.583 297.27 306.436L297.865 307.473C297.57 307.7 297.247 307.858 296.896 307.949C296.545 308.04 296.193 308.085 295.842 308.085C295.128 308.085 294.493 307.898 293.938 307.524C293.394 307.15 292.963 306.629 292.646 305.96C292.34 305.28 292.187 304.487 292.187 303.58C292.187 302.651 292.363 301.812 292.714 301.064C293.065 300.305 293.536 299.664 294.125 299.143C294.726 298.622 295.389 298.242 296.114 298.004L295.026 298.565C294.822 298.588 294.601 298.605 294.363 298.616C294.125 298.627 293.859 298.633 293.564 298.633H291.184V297.426H297.406ZM307.533 297.426V298.633H305.748V308H304.439C304.099 307.32 303.629 306.697 303.028 306.13C302.439 305.552 301.759 305.065 300.988 304.668C300.217 304.271 299.396 304.005 298.523 303.869L297.86 302.237C298.948 301.58 300.07 300.985 301.226 300.452C302.393 299.919 303.595 299.466 304.83 299.092L304.439 299.806V298.633H297.061V297.426H307.533ZM304.439 299.942L304.796 300.418C303.935 300.701 303.028 301.053 302.076 301.472C301.124 301.88 300.246 302.333 299.441 302.832C300.053 302.968 300.705 303.2 301.396 303.529C302.087 303.858 302.728 304.271 303.317 304.77C303.906 305.269 304.36 305.847 304.677 306.504H304.524C304.501 306.243 304.479 305.983 304.456 305.722C304.445 305.461 304.439 305.15 304.439 304.787V299.942Z" fill="#FFCA3A"/>
<circle cx="164.5" cy="171.5" r="6.5" fill="#FFCA3A"/>
<path d="M178.5 285L172 200" stroke="#FFCA3A" stroke-width="2"/>
<path d="M166.5 212.5L172 201L181 211" stroke="#FFCA3A" stroke-width="2"/>
</svg>
