<svg width="317" height="308" viewBox="0 0 317 308" fill="none" xmlns="http://www.w3.org/2000/svg">
<mask id="mask0_200_194" style="mask-type:alpha" maskUnits="userSpaceOnUse" x="67" y="0" width="176" height="238">
<rect x="67" width="176" height="237.434" fill="#D9D9D9"/>
</mask>
<g mask="url(#mask0_200_194)">
<path d="M78.0688 132.554C70.099 132.332 67.5531 128.403 67.2764 126.466C77.2386 106.32 79.3602 92.4278 79.1757 88.0001C75.1908 69.1825 83.05 52.302 87.4776 46.2139C79.9506 35.8089 80.6516 29.7024 81.943 27.9498C148.137 -20.0904 203.058 4.79678 222.245 23.2454C266.079 78.1486 227.78 124.897 203.151 141.409C203.335 163.824 209.681 215.517 233.591 242.969C257.5 270.42 260.895 302.189 259.603 314.642H194.572V300.252C197.616 237.157 168.559 159.673 167.452 145.006C166.346 130.34 149.188 130.893 146.974 138.088C144.761 145.283 138.119 146.113 138.673 141.409C139.115 137.645 141.993 133.937 143.377 132.554C125.666 100.453 96.0562 131.723 90.2449 138.918C84.4336 146.113 77.2386 146.39 79.1757 139.749C80.7254 134.435 79.0835 132.738 78.0688 132.554Z" stroke="#F5F9FA" stroke-width="2"/>
<path d="M114.32 167.698C103.694 167.698 88.5845 158.474 81.6663 153.585C79.1757 153.032 77.5154 156.629 80.8361 158.566C83.7045 160.239 84.5258 163.916 84.7103 166.315C83.7879 169.912 84.3229 177.826 90.5217 180.704C96.7204 183.582 112.66 179.505 119.855 177.107C124.928 180.428 135.186 191.774 135.629 210.591C136.182 234.113 125.39 257.082 119.855 266.214C115.427 273.52 107.863 301.543 104.635 314.642H139.78C139.411 313.166 138.507 302.576 137.842 272.025C137.012 233.837 149.742 247.396 158.32 228.302C166.899 209.208 165.515 200.352 161.088 182.088C156.66 163.824 127.603 167.698 114.32 167.698Z" stroke="#F5F9FA" stroke-width="2"/>
</g>
<path d="M84.7744 302V294.775L85.1314 295.846C84.7347 295.279 84.3607 294.792 84.0094 294.384C83.6694 293.965 83.3407 293.619 83.0234 293.347C82.7061 293.075 82.3831 292.877 82.0544 292.752C81.7257 292.616 81.3801 292.548 81.0174 292.548C80.4167 292.548 79.9294 292.707 79.5554 293.024C79.1927 293.33 78.8697 293.687 78.5864 294.095L78.3484 294.231C78.5071 294.084 78.7507 293.965 79.0794 293.874C79.4081 293.772 79.7877 293.721 80.2184 293.721C80.7397 293.721 81.1591 293.823 81.4764 294.027C81.8051 294.231 82.0431 294.492 82.1904 294.809C82.3491 295.115 82.4284 295.421 82.4284 295.727C82.4284 296.396 82.2017 296.996 81.7484 297.529C81.2951 298.05 80.5924 298.566 79.6404 299.076L78.7734 297.835C79.3967 297.574 79.9351 297.285 80.3884 296.968C80.8417 296.639 81.0684 296.248 81.0684 295.795C81.0684 295.546 80.9721 295.336 80.7794 295.166C80.5867 294.996 80.3091 294.911 79.9464 294.911C79.6517 294.911 79.3741 294.945 79.1134 295.013C78.8641 295.081 78.5921 295.189 78.2974 295.336L76.9204 294.214C77.2717 293.625 77.6457 293.115 78.0424 292.684C78.4391 292.242 78.8697 291.902 79.3344 291.664C79.8104 291.426 80.3261 291.307 80.8814 291.307C81.4481 291.307 81.9637 291.409 82.4284 291.613C82.9044 291.806 83.3634 292.1 83.8054 292.497C84.2587 292.894 84.7121 293.387 85.1654 293.976L84.8594 293.789C84.8367 293.63 84.8141 293.387 84.7914 293.058C84.7801 292.729 84.7744 292.395 84.7744 292.055V290.304H85.6754L86.0664 291.426H87.8684V292.633H86.0834V302H84.7744ZM100.3 291.426V292.633H98.5146V302H97.2056V296.305L97.3076 296.747C97.0583 296.384 96.792 296.095 96.5086 295.88C96.2366 295.665 95.9363 295.557 95.6076 295.557C95.4376 295.557 95.262 295.591 95.0806 295.659C94.9106 295.716 94.7633 295.829 94.6386 295.999C94.5253 296.169 94.4686 296.43 94.4686 296.781C94.4686 296.906 94.4686 297.019 94.4686 297.121C94.48 297.212 94.4913 297.302 94.5026 297.393L93.3976 297.478C93.3523 297.013 93.2276 296.622 93.0236 296.305C92.8196 295.976 92.5703 295.727 92.2756 295.557C91.981 295.387 91.6636 295.302 91.3236 295.302C91.0176 295.302 90.757 295.364 90.5416 295.489C90.3263 295.602 90.162 295.761 90.0486 295.965C89.9353 296.158 89.8786 296.379 89.8786 296.628C89.8786 297.081 90.043 297.467 90.3716 297.784C90.7116 298.101 91.1876 298.368 91.7996 298.583L91.3406 299.841C90.7966 299.671 90.3093 299.439 89.8786 299.144C89.448 298.849 89.108 298.487 88.8586 298.056C88.6093 297.625 88.4846 297.127 88.4846 296.56C88.4846 296.05 88.6093 295.614 88.8586 295.251C89.108 294.877 89.4423 294.588 89.8616 294.384C90.281 294.18 90.74 294.078 91.2386 294.078C91.8393 294.078 92.355 294.191 92.7856 294.418C93.2163 294.633 93.613 294.985 93.9756 295.472L93.7206 295.489C93.834 295.115 94.0493 294.832 94.3666 294.639C94.6953 294.435 95.0353 294.333 95.3866 294.333C95.7946 294.333 96.146 294.412 96.4406 294.571C96.7353 294.73 97.0583 294.956 97.4096 295.251L97.2566 295.506C97.2453 295.268 97.234 295.03 97.2226 294.792C97.2113 294.554 97.2056 294.31 97.2056 294.061V292.633H87.5326V291.426H100.3ZM104.829 291.426V292.633H103.044V302H101.735V294.027C101.599 293.642 101.395 293.313 101.123 293.041C100.863 292.769 100.523 292.633 100.103 292.633H99.9672V291.426H100.222C100.494 291.426 100.778 291.517 101.072 291.698C101.367 291.868 101.605 292.134 101.786 292.497C101.775 292.44 101.764 292.31 101.752 292.106C101.741 291.902 101.735 291.726 101.735 291.579V290.304H102.653L103.027 291.426H104.829ZM114.955 291.426V292.633H113.17V302H111.861C111.521 301.32 111.05 300.697 110.45 300.13C109.86 299.552 109.18 299.065 108.41 298.668C107.639 298.271 106.817 298.005 105.945 297.869L105.282 296.237C106.37 295.58 107.492 294.985 108.648 294.452C109.815 293.919 111.016 293.466 112.252 293.092L111.861 293.806V292.633H104.483V291.426H114.955ZM111.861 293.942L112.218 294.418C111.356 294.701 110.45 295.053 109.498 295.472C108.546 295.88 107.667 296.333 106.863 296.832C107.475 296.968 108.126 297.2 108.818 297.529C109.509 297.858 110.149 298.271 110.739 298.77C111.328 299.269 111.781 299.847 112.099 300.504H111.946C111.923 300.243 111.9 299.983 111.878 299.722C111.866 299.461 111.861 299.15 111.861 298.787V293.942ZM107.798 302.102C107.514 302.102 107.271 302.011 107.067 301.83C106.874 301.649 106.778 301.411 106.778 301.116C106.778 300.821 106.874 300.578 107.067 300.385C107.271 300.192 107.514 300.096 107.798 300.096C108.081 300.096 108.319 300.192 108.512 300.385C108.716 300.578 108.818 300.821 108.818 301.116C108.818 301.411 108.716 301.649 108.512 301.83C108.319 302.011 108.081 302.102 107.798 302.102ZM128.032 291.324C128.497 291.324 128.882 291.375 129.188 291.477C129.506 291.568 129.772 291.709 129.987 291.902C130.203 292.083 130.373 292.31 130.497 292.582C130.622 292.843 130.684 293.205 130.684 293.67V302H129.409C129.319 301.66 129.188 301.382 129.018 301.167C128.848 300.952 128.639 300.793 128.389 300.691C128.151 300.578 127.862 300.521 127.522 300.521C127.114 300.521 126.735 300.544 126.383 300.589C126.032 300.634 125.664 300.685 125.278 300.742C124.904 300.787 124.468 300.81 123.969 300.81C123.584 300.81 123.17 300.77 122.728 300.691C122.286 300.6 121.867 300.436 121.47 300.198C121.074 299.96 120.751 299.609 120.501 299.144C120.252 298.668 120.127 298.045 120.127 297.274C120.127 297.002 120.15 296.719 120.195 296.424C120.241 296.118 120.286 295.84 120.331 295.591L121.64 295.778C121.595 295.948 121.55 296.152 121.504 296.39C121.47 296.628 121.453 296.911 121.453 297.24C121.453 297.739 121.527 298.141 121.674 298.447C121.822 298.753 122.02 298.985 122.269 299.144C122.519 299.303 122.796 299.41 123.102 299.467C123.408 299.524 123.72 299.552 124.037 299.552C124.604 299.552 125.12 299.507 125.584 299.416C126.06 299.314 126.593 299.263 127.182 299.263C127.67 299.263 128.095 299.337 128.457 299.484C128.82 299.62 129.126 299.858 129.375 300.198V294.129C129.375 293.71 129.347 293.409 129.29 293.228C129.234 293.047 129.143 292.899 129.018 292.786C128.814 292.616 128.503 292.531 128.083 292.531C127.675 292.531 127.284 292.622 126.91 292.803C126.548 292.984 126.219 293.217 125.924 293.5C125.641 293.783 125.414 294.089 125.244 294.418C125.086 294.735 125.006 295.036 125.006 295.319C125.006 295.432 125.029 295.551 125.074 295.676C125.12 295.801 125.216 295.908 125.363 295.999C125.511 296.09 125.726 296.135 126.009 296.135C126.134 296.135 126.253 296.129 126.366 296.118C126.48 296.107 126.599 296.095 126.723 296.084L126.842 297.274C126.729 297.319 126.576 297.353 126.383 297.376C126.202 297.399 125.987 297.41 125.737 297.41C125.182 297.41 124.695 297.24 124.275 296.9C123.867 296.56 123.663 296.039 123.663 295.336C123.663 294.883 123.777 294.424 124.003 293.959C124.241 293.483 124.564 293.047 124.972 292.65C125.38 292.253 125.845 291.936 126.366 291.698C126.899 291.449 127.454 291.324 128.032 291.324ZM144.23 291.426V292.633H142.445V302H141.136C140.819 301.535 140.456 301.088 140.048 300.657C139.64 300.226 139.187 299.83 138.688 299.467C138.189 299.104 137.64 298.793 137.039 298.532C136.438 298.271 135.775 298.079 135.05 297.954L134.642 296.373L135.458 296.968C136.512 297.149 137.402 297.427 138.127 297.801C138.864 298.164 139.476 298.572 139.963 299.025C140.462 299.478 140.864 299.92 141.17 300.351C141.159 300.09 141.147 299.83 141.136 299.569C141.136 299.308 141.136 299.025 141.136 298.719V290.304H142.037L142.428 291.426H144.23ZM139.878 294.01C139.878 294.667 139.697 295.228 139.334 295.693C138.983 296.146 138.495 296.509 137.872 296.781C137.26 297.042 136.563 297.217 135.781 297.308L134.982 297.155L134.642 296.373C135.56 296.305 136.308 296.175 136.886 295.982C137.475 295.778 137.906 295.517 138.178 295.2C138.461 294.871 138.603 294.497 138.603 294.078C138.603 293.727 138.524 293.409 138.365 293.126C138.206 292.843 137.951 292.565 137.6 292.293L138.535 291.375C138.92 291.726 139.238 292.129 139.487 292.582C139.748 293.024 139.878 293.5 139.878 294.01ZM135.322 294.69C134.631 294.69 134.081 294.514 133.673 294.163C133.265 293.8 133.061 293.307 133.061 292.684C133.061 292.423 133.095 292.174 133.163 291.936C133.242 291.698 133.333 291.494 133.435 291.324L134.727 291.681C134.648 291.794 134.58 291.936 134.523 292.106C134.466 292.265 134.438 292.435 134.438 292.616C134.438 292.911 134.517 293.132 134.676 293.279C134.846 293.415 135.061 293.483 135.322 293.483C135.549 293.483 135.787 293.438 136.036 293.347C136.285 293.256 136.54 293.075 136.801 292.803C137.073 292.531 137.339 292.129 137.6 291.596L138.535 291.375L138.569 292.225C138.342 292.724 138.07 293.16 137.753 293.534C137.436 293.897 137.073 294.18 136.665 294.384C136.268 294.588 135.821 294.69 135.322 294.69ZM148.757 291.426V292.633H146.972V302H145.663V294.027C145.527 293.642 145.323 293.313 145.051 293.041C144.79 292.769 144.45 292.633 144.031 292.633H143.895V291.426H144.15C144.422 291.426 144.705 291.517 145 291.698C145.295 291.868 145.533 292.134 145.714 292.497C145.703 292.44 145.691 292.31 145.68 292.106C145.669 291.902 145.663 291.726 145.663 291.579V290.304H146.581L146.955 291.426H148.757ZM154.633 291.426V292.633H154.293C153.941 292.712 153.562 292.888 153.154 293.16C152.746 293.421 152.36 293.766 151.998 294.197C151.635 294.616 151.335 295.109 151.097 295.676C150.87 296.243 150.757 296.866 150.757 297.546C150.757 298.362 150.876 299.014 151.114 299.501C151.363 299.977 151.669 300.317 152.032 300.521C152.394 300.725 152.757 300.827 153.12 300.827C153.403 300.827 153.641 300.799 153.834 300.742C154.026 300.685 154.247 300.583 154.497 300.436L155.092 301.473C154.797 301.7 154.474 301.858 154.123 301.949C153.771 302.04 153.42 302.085 153.069 302.085C152.355 302.085 151.72 301.898 151.165 301.524C150.621 301.15 150.19 300.629 149.873 299.96C149.567 299.28 149.414 298.487 149.414 297.58C149.414 296.651 149.589 295.812 149.941 295.064C150.292 294.305 150.762 293.664 151.352 293.143C151.952 292.622 152.615 292.242 153.341 292.004L152.253 292.565C152.049 292.588 151.828 292.605 151.59 292.616C151.352 292.627 151.085 292.633 150.791 292.633H148.411V291.426H154.633ZM164.896 291.426V292.633H163.111V302H161.802V297.869L162.074 298.821C161.7 298.3 161.292 297.829 160.85 297.41C160.408 296.991 159.954 296.656 159.49 296.407C159.025 296.158 158.572 296.033 158.13 296.033C157.71 296.033 157.353 296.146 157.059 296.373C156.775 296.588 156.634 296.911 156.634 297.342C156.634 297.682 156.753 297.977 156.991 298.226C157.229 298.464 157.597 298.679 158.096 298.872L157.45 300.079C156.758 299.796 156.214 299.416 155.818 298.94C155.432 298.453 155.24 297.903 155.24 297.291C155.24 296.736 155.37 296.277 155.631 295.914C155.903 295.54 156.243 295.262 156.651 295.081C157.07 294.9 157.495 294.809 157.926 294.809C158.515 294.809 159.053 294.911 159.541 295.115C160.028 295.319 160.481 295.597 160.901 295.948C161.331 296.299 161.739 296.707 162.125 297.172L161.887 297.24C161.853 296.979 161.83 296.724 161.819 296.475C161.807 296.214 161.802 295.954 161.802 295.693V292.633H154.288V291.426H164.896ZM179.092 291.426V292.633H172.207V293.143L172.139 294.214C172.161 294.361 172.178 294.565 172.19 294.826C172.201 295.087 172.207 295.336 172.207 295.574V298.515C172.207 299.014 172.235 299.365 172.292 299.569C172.348 299.773 172.416 299.92 172.496 300.011C172.7 300.249 173.011 300.368 173.431 300.368C173.884 300.368 174.303 300.26 174.689 300.045C175.074 299.83 175.42 299.563 175.726 299.246C176.043 298.906 176.287 298.549 176.457 298.175C176.638 297.79 176.729 297.387 176.729 296.968C176.729 296.594 176.621 296.35 176.406 296.237C176.202 296.124 175.913 296.067 175.539 296.067H175.454C174.932 296.067 174.513 296.027 174.196 295.948C173.878 295.857 173.572 295.738 173.278 295.591C173.017 295.444 172.773 295.274 172.547 295.081C172.331 294.877 172.156 294.65 172.02 294.401L172.19 292.922C172.428 293.33 172.677 293.676 172.938 293.959C173.198 294.231 173.521 294.441 173.907 294.588C174.303 294.735 174.808 294.809 175.42 294.809H175.692C176.122 294.809 176.451 294.837 176.678 294.894C176.916 294.951 177.125 295.036 177.307 295.149C177.567 295.308 177.76 295.529 177.885 295.812C178.009 296.084 178.072 296.413 178.072 296.798C178.072 297.489 177.907 298.152 177.579 298.787C177.25 299.422 176.836 299.954 176.338 300.385C175.907 300.759 175.448 301.054 174.961 301.269C174.473 301.484 173.929 301.592 173.329 301.592C172.909 301.592 172.552 301.53 172.258 301.405C171.963 301.28 171.719 301.122 171.527 300.929C171.345 300.714 171.192 300.453 171.068 300.147C170.954 299.841 170.898 299.376 170.898 298.753V292.633H169.113V291.426H179.092ZM183.62 291.426V292.633H181.835V302H180.526V294.027C180.39 293.642 180.186 293.313 179.914 293.041C179.654 292.769 179.314 292.633 178.894 292.633H178.758V291.426H179.013C179.285 291.426 179.569 291.517 179.863 291.698C180.158 291.868 180.396 292.134 180.577 292.497C180.566 292.44 180.555 292.31 180.543 292.106C180.532 291.902 180.526 291.726 180.526 291.579V290.304H181.444L181.818 291.426H183.62ZM195.786 291.426V292.633H194.001V302H192.692V295.268L193.066 296.356C192.601 295.676 192.176 295.098 191.791 294.622C191.406 294.135 191.037 293.738 190.686 293.432C190.346 293.126 190 292.905 189.649 292.769C189.298 292.622 188.918 292.548 188.51 292.548C188.057 292.548 187.643 292.633 187.269 292.803C186.906 292.973 186.572 293.2 186.266 293.483C185.96 293.766 185.677 294.072 185.416 294.401L185.28 294.435C185.461 294.322 185.637 294.237 185.807 294.18C185.988 294.123 186.187 294.095 186.402 294.095C187.059 294.095 187.541 294.276 187.847 294.639C188.153 294.99 188.306 295.427 188.306 295.948C188.306 296.073 188.3 296.192 188.289 296.305C188.278 296.418 188.261 296.503 188.238 296.56L187.949 296.458C188.085 296.311 188.215 296.169 188.34 296.033C188.465 295.897 188.595 295.761 188.731 295.625C188.878 295.489 189.026 295.347 189.173 295.2L191.281 293.228L192.114 294.129L187.286 298.685L186.283 297.75L187.677 296.424L187.065 297.155L186.555 297.546C186.725 297.353 186.867 297.149 186.98 296.934C187.105 296.707 187.167 296.452 187.167 296.169C187.167 295.886 187.082 295.659 186.912 295.489C186.742 295.319 186.493 295.234 186.164 295.234C185.983 295.234 185.807 295.257 185.637 295.302C185.467 295.347 185.291 295.427 185.11 295.54L183.818 294.316C184.271 293.715 184.736 293.194 185.212 292.752C185.688 292.299 186.187 291.947 186.708 291.698C187.229 291.437 187.79 291.307 188.391 291.307C189.026 291.307 189.598 291.426 190.108 291.664C190.618 291.902 191.111 292.259 191.587 292.735C192.063 293.2 192.562 293.789 193.083 294.503L192.777 294.418C192.743 294.146 192.72 293.851 192.709 293.534C192.698 293.217 192.692 292.877 192.692 292.514V290.304H193.593L193.984 291.426H195.786ZM212.52 291.426V292.633H210.735V302H209.426V295.268L209.8 296.356C209.336 295.676 208.911 295.098 208.525 294.622C208.14 294.135 207.772 293.738 207.42 293.432C207.08 293.126 206.735 292.905 206.383 292.769C206.032 292.622 205.652 292.548 205.244 292.548C204.791 292.548 204.377 292.633 204.003 292.803C203.641 292.973 203.306 293.2 203 293.483C202.694 293.766 202.411 294.072 202.15 294.401L202.014 294.435C202.196 294.322 202.371 294.237 202.541 294.18C202.723 294.123 202.921 294.095 203.136 294.095C203.794 294.095 204.275 294.276 204.581 294.639C204.887 294.99 205.04 295.427 205.04 295.948C205.04 296.073 205.035 296.192 205.023 296.305C205.012 296.418 204.995 296.503 204.972 296.56L204.683 296.458C204.819 296.311 204.95 296.169 205.074 296.033C205.199 295.897 205.329 295.761 205.465 295.625C205.613 295.489 205.76 295.347 205.907 295.2L208.015 293.228L208.848 294.129L204.02 298.685L203.017 297.75L204.411 296.424L203.799 297.155L203.289 297.546C203.459 297.353 203.601 297.149 203.714 296.934C203.839 296.707 203.901 296.452 203.901 296.169C203.901 295.886 203.816 295.659 203.646 295.489C203.476 295.319 203.227 295.234 202.898 295.234C202.717 295.234 202.541 295.257 202.371 295.302C202.201 295.347 202.026 295.427 201.844 295.54L200.552 294.316C201.006 293.715 201.47 293.194 201.946 292.752C202.422 292.299 202.921 291.947 203.442 291.698C203.964 291.437 204.525 291.307 205.125 291.307C205.76 291.307 206.332 291.426 206.842 291.664C207.352 291.902 207.845 292.259 208.321 292.735C208.797 293.2 209.296 293.789 209.817 294.503L209.511 294.418C209.477 294.146 209.455 293.851 209.443 293.534C209.432 293.217 209.426 292.877 209.426 292.514V290.304H210.327L210.718 291.426H212.52ZM224.621 291.426V292.633H218.399V295.676C218.399 296.005 218.45 296.248 218.552 296.407C218.654 296.554 218.813 296.628 219.028 296.628C219.244 296.628 219.465 296.56 219.691 296.424C219.929 296.288 220.184 296.073 220.456 295.778C220.728 295.483 221.023 295.104 221.34 294.639L222.36 294.486C222.723 295.019 223.001 295.568 223.193 296.135C223.397 296.702 223.499 297.268 223.499 297.835C223.499 298.549 223.341 299.189 223.023 299.756C222.717 300.323 222.258 300.77 221.646 301.099C221.046 301.428 220.309 301.592 219.436 301.592C218.688 301.592 217.991 301.462 217.345 301.201C216.699 300.94 216.104 300.521 215.56 299.943C215.016 299.354 214.518 298.583 214.064 297.631C213.611 296.668 213.203 295.489 212.84 294.095L214.132 293.755C214.54 295.33 214.988 296.6 215.475 297.563C215.974 298.515 216.541 299.212 217.175 299.654C217.81 300.085 218.541 300.3 219.368 300.3C220.275 300.3 220.972 300.073 221.459 299.62C221.958 299.167 222.207 298.583 222.207 297.869C222.207 297.359 222.134 296.923 221.986 296.56C221.85 296.197 221.669 295.897 221.442 295.659L222.224 295.336C221.884 295.914 221.533 296.39 221.17 296.764C220.819 297.138 220.462 297.421 220.099 297.614C219.748 297.795 219.397 297.886 219.045 297.886C218.785 297.886 218.541 297.852 218.314 297.784C218.088 297.705 217.895 297.591 217.736 297.444C217.555 297.285 217.402 297.064 217.277 296.781C217.153 296.486 217.09 295.999 217.09 295.319V292.633H212.177V291.426H224.621ZM218.518 304.533C218.235 304.533 217.991 304.442 217.787 304.261C217.595 304.08 217.498 303.842 217.498 303.547C217.498 303.252 217.595 303.009 217.787 302.816C217.991 302.623 218.235 302.527 218.518 302.527C218.802 302.527 219.04 302.623 219.232 302.816C219.436 303.009 219.538 303.252 219.538 303.547C219.538 303.842 219.436 304.08 219.232 304.261C219.04 304.442 218.802 304.533 218.518 304.533ZM230.502 291.426V292.633H230.162C229.81 292.712 229.431 292.888 229.023 293.16C228.615 293.421 228.229 293.766 227.867 294.197C227.504 294.616 227.204 295.109 226.966 295.676C226.739 296.243 226.626 296.866 226.626 297.546C226.626 298.362 226.745 299.014 226.983 299.501C227.232 299.977 227.538 300.317 227.901 300.521C228.263 300.725 228.626 300.827 228.989 300.827C229.272 300.827 229.51 300.799 229.703 300.742C229.895 300.685 230.116 300.583 230.366 300.436L230.961 301.473C230.666 301.7 230.343 301.858 229.992 301.949C229.64 302.04 229.289 302.085 228.938 302.085C228.224 302.085 227.589 301.898 227.034 301.524C226.49 301.15 226.059 300.629 225.742 299.96C225.436 299.28 225.283 298.487 225.283 297.58C225.283 296.651 225.458 295.812 225.81 295.064C226.161 294.305 226.631 293.664 227.221 293.143C227.821 292.622 228.484 292.242 229.21 292.004L228.122 292.565C227.918 292.588 227.697 292.605 227.459 292.616C227.221 292.627 226.954 292.633 226.66 292.633H224.28V291.426H230.502ZM240.629 291.426V292.633H238.844V302H237.535C237.195 301.32 236.724 300.697 236.124 300.13C235.534 299.552 234.854 299.065 234.084 298.668C233.313 298.271 232.491 298.005 231.619 297.869L230.956 296.237C232.044 295.58 233.166 294.985 234.322 294.452C235.489 293.919 236.69 293.466 237.926 293.092L237.535 293.806V292.633H230.157V291.426H240.629ZM237.535 293.942L237.892 294.418C237.03 294.701 236.124 295.053 235.172 295.472C234.22 295.88 233.341 296.333 232.537 296.832C233.149 296.968 233.8 297.2 234.492 297.529C235.183 297.858 235.823 298.271 236.413 298.77C237.002 299.269 237.455 299.847 237.773 300.504H237.62C237.597 300.243 237.574 299.983 237.552 299.722C237.54 299.461 237.535 299.15 237.535 298.787V293.942Z" fill="#FFCA3A"/>
<circle cx="166.5" cy="173.5" r="6.5" fill="#FFCA3A"/>
<path d="M178.5 285L172 200" stroke="#FFCA3A" stroke-width="2"/>
<path d="M166.5 212.5L172 201L181 211" stroke="#FFCA3A" stroke-width="2"/>
</svg>
