<svg width="243" height="308" viewBox="0 0 243 308" fill="none" xmlns="http://www.w3.org/2000/svg">
<mask id="mask0_200_175" style="mask-type:alpha" maskUnits="userSpaceOnUse" x="34" y="0" width="176" height="238">
<rect x="34" width="176" height="237.434" fill="#D9D9D9"/>
</mask>
<g mask="url(#mask0_200_175)">
<path d="M45.0688 132.554C37.099 132.332 34.5531 128.403 34.2764 126.466C44.2386 106.32 46.3602 92.4278 46.1757 88.0001C42.1908 69.1825 50.05 52.302 54.4776 46.2139C46.9506 35.8089 47.6516 29.7024 48.943 27.9498C115.137 -20.0904 170.058 4.79678 189.245 23.2454C233.079 78.1486 194.78 124.897 170.151 141.409C170.335 163.824 176.681 215.517 200.591 242.969C224.5 270.42 227.895 302.189 226.603 314.642H161.572V300.252C164.616 237.157 135.559 159.673 134.452 145.006C133.346 130.34 116.188 130.893 113.974 138.088C111.761 145.283 105.119 146.113 105.673 141.409C106.115 137.645 108.993 133.937 110.377 132.554C92.6663 100.453 63.0562 131.723 57.2449 138.918C51.4336 146.113 44.2386 146.39 46.1757 139.749C47.7254 134.435 46.0835 132.738 45.0688 132.554Z" stroke="#F5F9FA" stroke-width="2"/>
<path d="M81.3204 167.698C70.694 167.698 55.5845 158.474 48.6663 153.585C46.1757 153.032 44.5154 156.629 47.8361 158.566C50.7045 160.239 51.5258 163.916 51.7103 166.315C50.7879 169.912 51.3229 177.826 57.5217 180.704C63.7204 183.582 79.66 179.505 86.855 177.107C91.9284 180.428 102.186 191.774 102.629 210.591C103.182 234.113 92.3896 257.082 86.855 266.214C82.4273 273.52 74.8634 301.543 71.6349 314.642H106.78C106.411 313.166 105.507 302.576 104.842 272.025C104.012 233.837 116.742 247.396 125.32 228.302C133.899 209.208 132.515 200.352 128.088 182.088C123.66 163.824 94.6034 167.698 81.3204 167.698Z" stroke="#F5F9FA" stroke-width="2"/>
</g>
<path d="M13.7901 291.426V292.633H12.0051V302H10.6961V292.633H8.92814V291.426H10.4921C10.3108 291.211 10.1238 290.978 9.93114 290.729C9.74981 290.48 9.58548 290.236 9.43814 289.998C9.89148 289.329 10.3788 288.723 10.9001 288.179C11.4328 287.635 12.0505 287.204 12.7531 286.887C13.4671 286.57 14.3171 286.411 15.3031 286.411C16.0398 286.411 16.7311 286.485 17.3771 286.632C18.0345 286.768 18.6748 286.972 19.2981 287.244C19.9215 287.516 20.5505 287.839 21.1851 288.213C21.8198 288.587 22.4828 289.012 23.1741 289.488L22.4941 290.44C21.7688 289.964 21.1115 289.55 20.5221 289.199C19.9441 288.848 19.3888 288.559 18.8561 288.332C18.3235 288.105 17.7851 287.935 17.2411 287.822C16.7085 287.709 16.1248 287.652 15.4901 287.652C14.7081 287.652 14.0395 287.765 13.4841 287.992C12.9288 288.219 12.4471 288.525 12.0391 288.91C11.6311 289.295 11.2571 289.732 10.9171 290.219C10.9965 290.389 11.1155 290.576 11.2741 290.78C11.4328 290.984 11.6141 291.199 11.8181 291.426H13.7901ZM20.4308 300.929C19.7621 300.929 19.1218 300.81 18.5098 300.572C17.8978 300.334 17.3198 299.954 16.7758 299.433C16.2431 298.9 15.7501 298.198 15.2968 297.325C14.8548 296.441 14.4581 295.364 14.1068 294.095L15.3988 293.755C15.7841 295.149 16.2148 296.282 16.6908 297.155C17.1668 298.016 17.7164 298.645 18.3398 299.042C18.9631 299.439 19.6771 299.637 20.4818 299.637C21.3204 299.637 21.9551 299.456 22.3858 299.093C22.8164 298.73 23.0318 298.181 23.0318 297.444C23.0318 297.093 22.9864 296.792 22.8958 296.543C22.8051 296.294 22.7144 296.084 22.6238 295.914H23.6438C23.3264 296.243 22.9921 296.537 22.6408 296.798C22.3008 297.059 21.9324 297.263 21.5358 297.41C21.1504 297.557 20.7254 297.631 20.2608 297.631C19.8188 297.631 19.4278 297.546 19.0878 297.376C18.7478 297.206 18.4814 296.962 18.2888 296.645C18.0961 296.316 17.9998 295.925 17.9998 295.472C17.9998 294.973 18.1754 294.469 18.5268 293.959C18.8781 293.438 19.4731 292.984 20.3118 292.599C20.0851 292.61 19.8244 292.622 19.5298 292.633C19.2464 292.633 18.9631 292.633 18.6798 292.633H13.4438V291.426H29.3728V292.633H24.0518C23.7798 292.633 23.5361 292.627 23.3208 292.616C23.1054 292.605 22.9014 292.593 22.7088 292.582C21.7568 293.013 21.0371 293.404 20.5498 293.755C20.0624 294.106 19.7338 294.429 19.5638 294.724C19.3938 295.007 19.3088 295.279 19.3088 295.54C19.3088 295.857 19.3994 296.084 19.5808 296.22C19.7621 296.356 19.9661 296.424 20.1928 296.424C20.6234 296.424 21.0088 296.328 21.3488 296.135C21.6888 295.931 22.0741 295.642 22.5048 295.268L23.9668 295.795C24.0688 296.022 24.1538 296.305 24.2218 296.645C24.2898 296.974 24.3238 297.319 24.3238 297.682C24.3238 298.249 24.1934 298.781 23.9328 299.28C23.6834 299.767 23.2698 300.164 22.6918 300.47C22.1251 300.776 21.3714 300.929 20.4308 300.929ZM27.2308 298.515C27.2308 299.07 27.2761 299.603 27.3668 300.113C27.4574 300.623 27.6104 301.195 27.8258 301.83L26.5508 302.119C26.3468 301.462 26.1881 300.821 26.0748 300.198C25.9614 299.563 25.9048 298.906 25.9048 298.226C25.9048 297.625 25.9558 297.087 26.0578 296.611C26.1711 296.135 26.3014 295.733 26.4488 295.404C25.5874 295.393 24.8508 295.285 24.2388 295.081C23.6381 294.866 23.1338 294.565 22.7258 294.18C22.3178 293.783 21.9721 293.313 21.6888 292.769L22.9808 292.497C23.1621 292.826 23.3888 293.12 23.6608 293.381C23.9441 293.63 24.3068 293.829 24.7488 293.976C25.1908 294.123 25.7348 294.197 26.3808 294.197C26.5394 294.197 26.6924 294.191 26.8398 294.18C26.9871 294.169 27.1458 294.157 27.3158 294.146L27.9788 295.336C27.7068 295.846 27.5141 296.345 27.4008 296.832C27.2874 297.319 27.2308 297.88 27.2308 298.515ZM33.3166 293.5C34.212 293.5 34.9316 293.653 35.4756 293.959C36.031 294.254 36.439 294.633 36.6996 295.098C36.9603 295.551 37.0906 296.01 37.0906 296.475C37.0906 297.404 36.762 298.141 36.1046 298.685C35.4586 299.229 34.4953 299.535 33.2146 299.603L33.3846 299.416C33.8946 299.563 34.433 299.773 34.9996 300.045C35.5663 300.317 36.1386 300.634 36.7166 300.997C37.2946 301.348 37.85 301.739 38.3826 302.17L37.6006 303.071C36.898 302.55 36.252 302.102 35.6626 301.728C35.0846 301.343 34.5123 301.008 33.9456 300.725C33.379 300.442 32.7783 300.192 32.1436 299.977C31.509 299.762 30.7893 299.563 29.9846 299.382L30.2396 298.209C30.6363 298.322 31.016 298.407 31.3786 298.464C31.7526 298.509 32.2003 298.532 32.7216 298.532C33.5263 298.532 34.144 298.436 34.5746 298.243C35.0166 298.05 35.3226 297.801 35.4926 297.495C35.6626 297.189 35.7476 296.877 35.7476 296.56C35.7476 295.959 35.5266 295.5 35.0846 295.183C34.6426 294.854 34.0816 294.69 33.4016 294.69C32.9936 294.69 32.665 294.73 32.4156 294.809C32.1663 294.888 31.985 295.007 31.8716 295.166C31.7696 295.313 31.7186 295.495 31.7186 295.71C31.7186 295.801 31.73 295.897 31.7526 295.999C31.7753 296.09 31.798 296.175 31.8206 296.254L30.5796 296.509C30.523 296.339 30.4776 296.163 30.4436 295.982C30.4096 295.789 30.3926 295.619 30.3926 295.472C30.3926 295.053 30.5173 294.696 30.7666 294.401C31.016 294.106 31.356 293.885 31.7866 293.738C32.2286 293.579 32.7386 293.5 33.3166 293.5ZM32.1776 294.095C32.121 293.732 31.951 293.415 31.6676 293.143C31.3843 292.86 30.9763 292.661 30.4436 292.548L30.8516 291.783L31.6336 291.987C32.2683 292.236 32.7273 292.52 33.0106 292.837C33.3053 293.154 33.4753 293.557 33.5206 294.044L32.1776 294.095ZM38.3826 291.426V292.633H29.0326V291.426H38.3826ZM48.5193 291.426V292.633H46.7343V302H45.4253C45.0853 301.32 44.615 300.697 44.0143 300.13C43.425 299.552 42.745 299.065 41.9743 298.668C41.2036 298.271 40.382 298.005 39.5093 297.869L38.8463 296.237C39.9343 295.58 41.0563 294.985 42.2123 294.452C43.3796 293.919 44.581 293.466 45.8163 293.092L45.4253 293.806V292.633H38.0473V291.426H48.5193ZM45.4253 293.942L45.7823 294.418C44.921 294.701 44.0143 295.053 43.0623 295.472C42.1103 295.88 41.232 296.333 40.4273 296.832C41.0393 296.968 41.691 297.2 42.3823 297.529C43.0736 297.858 43.714 298.271 44.3033 298.77C44.8926 299.269 45.346 299.847 45.6633 300.504H45.5103C45.4876 300.243 45.465 299.983 45.4423 299.722C45.431 299.461 45.4253 299.15 45.4253 298.787V293.942ZM53.0362 291.426V292.633H51.2512V302H49.9422V294.027C49.8062 293.642 49.6022 293.313 49.3302 293.041C49.0696 292.769 48.7296 292.633 48.3102 292.633H48.1742V291.426H48.4292C48.7012 291.426 48.9846 291.517 49.2792 291.698C49.5739 291.868 49.8119 292.134 49.9932 292.497C49.9819 292.44 49.9706 292.31 49.9592 292.106C49.9479 291.902 49.9422 291.726 49.9422 291.579V290.304H50.8602L51.2342 291.426H53.0362ZM68.1693 291.426V292.633H66.3843V302H65.0753V299.705L65.3813 300.606C64.9846 300.005 64.5823 299.45 64.1743 298.94C63.7776 298.43 63.3526 298.016 62.8993 297.699C62.4573 297.382 61.97 297.223 61.4373 297.223C61.018 297.223 60.661 297.331 60.3663 297.546C60.083 297.761 59.9413 298.084 59.9413 298.515C59.9413 298.889 60.0773 299.206 60.3493 299.467C60.6213 299.716 61.0236 299.932 61.5563 300.113L61.1313 301.422C60.5193 301.207 60.0206 300.946 59.6353 300.64C59.2613 300.334 58.9836 300 58.8023 299.637C58.6323 299.263 58.5473 298.872 58.5473 298.464C58.5473 297.92 58.6776 297.467 58.9383 297.104C59.2103 296.741 59.5503 296.469 59.9583 296.288C60.3776 296.095 60.797 295.999 61.2163 295.999C61.8963 295.999 62.4913 296.124 63.0013 296.373C63.5226 296.622 63.976 296.957 64.3613 297.376C64.758 297.795 65.115 298.266 65.4323 298.787L65.1433 298.838C65.1206 298.577 65.1036 298.317 65.0923 298.056C65.081 297.784 65.0753 297.506 65.0753 297.223V292.633H57.2553V291.426H68.1693ZM62.5083 296.509C62.5083 296.577 62.5026 296.645 62.4913 296.713C62.4913 296.781 62.4856 296.849 62.4743 296.917L61.1823 296.526C61.1596 295.869 61.0463 295.342 60.8423 294.945C60.6383 294.548 60.3153 294.248 59.8733 294.044C59.4313 293.829 58.8306 293.681 58.0713 293.602L58.2923 292.378L59.0743 292.599C59.6183 292.644 60.1 292.758 60.5193 292.939C60.95 293.109 61.3126 293.353 61.6073 293.67C61.902 293.987 62.123 294.384 62.2703 294.86C62.429 295.325 62.5083 295.874 62.5083 296.509ZM72.6925 291.426V292.633H70.9075V302H69.5985V294.027C69.4625 293.642 69.2585 293.313 68.9865 293.041C68.7258 292.769 68.3858 292.633 67.9665 292.633H67.8305V291.426H68.0855C68.3575 291.426 68.6408 291.517 68.9355 291.698C69.2302 291.868 69.4682 292.134 69.6495 292.497C69.6382 292.44 69.6268 292.31 69.6155 292.106C69.6042 291.902 69.5985 291.726 69.5985 291.579V290.304H70.5165L70.8905 291.426H72.6925ZM83.6511 291.426V292.633H81.8661V302H80.5571C80.1264 301.377 79.6164 300.793 79.0271 300.249C78.4378 299.694 77.7634 299.218 77.0041 298.821C76.2561 298.413 75.4118 298.124 74.4711 297.954L74.0801 296.373L74.9641 296.968C75.9161 297.149 76.7491 297.421 77.4631 297.784C78.1884 298.135 78.8118 298.538 79.3331 298.991C79.8544 299.433 80.2738 299.886 80.5911 300.351C80.5798 300.09 80.5684 299.83 80.5571 299.569C80.5571 299.308 80.5571 299.025 80.5571 298.719V290.304H81.4581L81.8491 291.426H83.6511ZM76.1031 291.375C76.8171 291.375 77.4121 291.5 77.8881 291.749C78.3641 291.987 78.7211 292.316 78.9591 292.735C79.1971 293.143 79.3161 293.602 79.3161 294.112C79.3161 294.996 78.9478 295.716 78.2111 296.271C77.4858 296.826 76.4828 297.178 75.2021 297.325L74.3861 297.155L74.0801 296.373C75.0321 296.305 75.7914 296.169 76.3581 295.965C76.9248 295.75 77.3271 295.483 77.5651 295.166C77.8144 294.837 77.9391 294.475 77.9391 294.078C77.9391 293.591 77.7804 293.217 77.4631 292.956C77.1458 292.695 76.6811 292.565 76.0691 292.565C75.5024 292.565 75.0944 292.678 74.8451 292.905C74.6071 293.12 74.4881 293.353 74.4881 293.602C74.4881 293.761 74.5278 293.908 74.6071 294.044C74.6978 294.18 74.8508 294.305 75.0661 294.418L74.3181 295.472C74.1028 295.325 73.9044 295.166 73.7231 294.996C73.5531 294.815 73.4171 294.605 73.3151 294.367C73.2131 294.129 73.1621 293.857 73.1621 293.551C73.1621 293.154 73.2754 292.792 73.5021 292.463C73.7288 292.134 74.0631 291.874 74.5051 291.681C74.9471 291.477 75.4798 291.375 76.1031 291.375ZM88.1651 291.426V292.633H86.3801V302H85.0711V294.027C84.9351 293.642 84.7311 293.313 84.4591 293.041C84.1985 292.769 83.8585 292.633 83.4391 292.633H83.3031V291.426H83.5581C83.8301 291.426 84.1135 291.517 84.4081 291.698C84.7028 291.868 84.9408 292.134 85.1221 292.497C85.1108 292.44 85.0995 292.31 85.0881 292.106C85.0768 291.902 85.0711 291.726 85.0711 291.579V290.304H85.9891L86.3631 291.426H88.1651ZM102.975 291.426V292.633H95.2572V297.699L95.0192 297.359C95.4725 296.849 95.9882 296.373 96.5662 295.931C97.1442 295.489 97.7732 295.087 98.4532 294.724C99.1332 294.35 99.8585 294.021 100.629 293.738L101.734 294.826C101.519 295.223 101.343 295.608 101.207 295.982C101.083 296.356 100.986 296.747 100.918 297.155C100.862 297.563 100.833 298.016 100.833 298.515C100.833 299.07 100.879 299.603 100.969 300.113C101.06 300.623 101.213 301.195 101.428 301.83L100.153 302.119C99.9492 301.462 99.7905 300.821 99.6772 300.198C99.5639 299.563 99.5072 298.906 99.5072 298.226C99.5072 297.761 99.5412 297.325 99.6092 296.917C99.6772 296.509 99.7679 296.146 99.8812 295.829C100.006 295.5 100.131 295.234 100.255 295.03L100.459 295.115C99.8132 295.376 99.1842 295.693 98.5722 296.067C97.9602 296.441 97.3595 296.872 96.7702 297.359C96.1809 297.846 95.5745 298.402 94.9512 299.025L93.9482 298.345V292.633H92.3842V291.426H102.975ZM98.1512 306.522C97.8452 306.522 97.5108 306.454 97.1482 306.318C96.7855 306.193 96.4795 305.989 96.2302 305.706C95.9695 305.423 95.8392 305.043 95.8392 304.567C95.8392 303.989 96.0602 303.524 96.5022 303.173C96.9442 302.833 97.5619 302.663 98.3552 302.663C99.0579 302.663 99.7379 302.788 100.395 303.037C101.041 303.298 101.704 303.655 102.384 304.108C103.053 304.561 103.767 305.088 104.526 305.689L103.761 306.607C103.002 305.972 102.311 305.445 101.687 305.026C101.064 304.607 100.475 304.289 99.9192 304.074C99.3639 303.859 98.8142 303.751 98.2702 303.751C97.8622 303.751 97.5562 303.83 97.3522 303.989C97.1482 304.148 97.0462 304.352 97.0462 304.601C97.0462 304.918 97.1595 305.139 97.3862 305.264C97.6015 305.4 97.8565 305.468 98.1512 305.468C98.5705 305.468 98.9105 305.377 99.1712 305.196C99.4205 305.026 99.6132 304.811 99.7492 304.55C99.8852 304.289 99.9759 304.017 100.021 303.734C100.067 303.462 100.089 303.218 100.089 303.003V301.864H101.398V302.765C101.398 303.082 101.364 303.451 101.296 303.87C101.217 304.301 101.07 304.714 100.854 305.111C100.628 305.519 100.299 305.853 99.8682 306.114C99.4375 306.386 98.8652 306.522 98.1512 306.522ZM108.883 291.426C108.872 290.961 108.759 290.627 108.543 290.423C108.339 290.219 107.999 290.117 107.523 290.117H106.299C105.551 290.117 104.973 290.066 104.565 289.964C104.169 289.862 103.829 289.703 103.545 289.488C103.239 289.261 103.007 288.972 102.848 288.621C102.701 288.258 102.627 287.85 102.627 287.397C102.627 287.25 102.639 287.102 102.661 286.955C102.673 286.808 102.69 286.655 102.712 286.496L103.97 286.581C103.948 286.717 103.931 286.836 103.919 286.938C103.908 287.04 103.902 287.136 103.902 287.227C103.902 287.476 103.925 287.697 103.97 287.89C104.027 288.083 104.112 288.241 104.225 288.366C104.384 288.547 104.611 288.683 104.905 288.774C105.211 288.853 105.642 288.893 106.197 288.893H107.166C107.767 288.893 108.243 288.938 108.594 289.029C108.946 289.12 109.246 289.284 109.495 289.522C109.688 289.703 109.835 289.953 109.937 290.27C110.039 290.576 110.096 290.961 110.107 291.426H108.883ZM106.911 293.5C107.807 293.5 108.526 293.653 109.07 293.959C109.626 294.254 110.034 294.633 110.294 295.098C110.555 295.551 110.685 296.01 110.685 296.475C110.685 297.404 110.357 298.141 109.699 298.685C109.053 299.229 108.09 299.535 106.809 299.603L106.979 299.416C107.489 299.563 108.028 299.773 108.594 300.045C109.161 300.317 109.733 300.634 110.311 300.997C110.889 301.348 111.445 301.739 111.977 302.17L111.195 303.071C110.493 302.55 109.847 302.102 109.257 301.728C108.679 301.343 108.107 301.008 107.54 300.725C106.974 300.442 106.373 300.192 105.738 299.977C105.104 299.762 104.384 299.563 103.579 299.382L103.834 298.209C104.231 298.322 104.611 298.407 104.973 298.464C105.347 298.509 105.795 298.532 106.316 298.532C107.121 298.532 107.739 298.436 108.169 298.243C108.611 298.05 108.917 297.801 109.087 297.495C109.257 297.189 109.342 296.877 109.342 296.56C109.342 295.959 109.121 295.5 108.679 295.183C108.237 294.854 107.676 294.69 106.996 294.69C106.588 294.69 106.26 294.73 106.01 294.809C105.761 294.888 105.58 295.007 105.466 295.166C105.364 295.313 105.313 295.495 105.313 295.71C105.313 295.801 105.325 295.897 105.347 295.999C105.37 296.09 105.393 296.175 105.415 296.254L104.174 296.509C104.118 296.339 104.072 296.163 104.038 295.982C104.004 295.789 103.987 295.619 103.987 295.472C103.987 295.053 104.112 294.696 104.361 294.401C104.611 294.106 104.951 293.885 105.381 293.738C105.823 293.579 106.333 293.5 106.911 293.5ZM105.772 294.095C105.716 293.732 105.546 293.415 105.262 293.143C104.979 292.86 104.571 292.661 104.038 292.548L104.446 291.783L105.228 291.987C105.863 292.236 106.322 292.52 106.605 292.837C106.9 293.154 107.07 293.557 107.115 294.044L105.772 294.095ZM111.977 291.426V292.633H102.627V291.426H111.977ZM126.798 291.426V292.633H119.08V297.699L118.842 297.359C119.296 296.849 119.811 296.373 120.389 295.931C120.967 295.489 121.596 295.087 122.276 294.724C122.956 294.35 123.682 294.021 124.452 293.738L125.557 294.826C125.342 295.223 125.166 295.608 125.03 295.982C124.906 296.356 124.809 296.747 124.741 297.155C124.685 297.563 124.656 298.016 124.656 298.515C124.656 299.07 124.702 299.603 124.792 300.113C124.883 300.623 125.036 301.195 125.251 301.83L123.976 302.119C123.772 301.462 123.614 300.821 123.5 300.198C123.387 299.563 123.33 298.906 123.33 298.226C123.33 297.761 123.364 297.325 123.432 296.917C123.5 296.509 123.591 296.146 123.704 295.829C123.829 295.5 123.954 295.234 124.078 295.03L124.282 295.115C123.636 295.376 123.007 295.693 122.395 296.067C121.783 296.441 121.183 296.872 120.593 297.359C120.004 297.846 119.398 298.402 118.774 299.025L117.771 298.345V292.633H116.207V291.426H126.798ZM131.313 291.426V292.633H129.528V302H128.219V294.027C128.083 293.642 127.879 293.313 127.607 293.041C127.346 292.769 127.006 292.633 126.587 292.633H126.451V291.426H126.706C126.978 291.426 127.261 291.517 127.556 291.698C127.85 291.868 128.088 292.134 128.27 292.497C128.258 292.44 128.247 292.31 128.236 292.106C128.224 291.902 128.219 291.726 128.219 291.579V290.304H129.137L129.511 291.426H131.313ZM137.188 291.426V292.633H136.848C136.497 292.712 136.117 292.888 135.709 293.16C135.301 293.421 134.916 293.766 134.553 294.197C134.191 294.616 133.89 295.109 133.652 295.676C133.426 296.243 133.312 296.866 133.312 297.546C133.312 298.362 133.431 299.014 133.669 299.501C133.919 299.977 134.225 300.317 134.587 300.521C134.95 300.725 135.313 300.827 135.675 300.827C135.959 300.827 136.197 300.799 136.389 300.742C136.582 300.685 136.803 300.583 137.052 300.436L137.647 301.473C137.353 301.7 137.03 301.858 136.678 301.949C136.327 302.04 135.976 302.085 135.624 302.085C134.91 302.085 134.276 301.898 133.72 301.524C133.176 301.15 132.746 300.629 132.428 299.96C132.122 299.28 131.969 298.487 131.969 297.58C131.969 296.651 132.145 295.812 132.496 295.064C132.848 294.305 133.318 293.664 133.907 293.143C134.508 292.622 135.171 292.242 135.896 292.004L134.808 292.565C134.604 292.588 134.383 292.605 134.145 292.616C133.907 292.627 133.641 292.633 133.346 292.633H130.966V291.426H137.188ZM143.932 301.15C143.003 301.15 142.136 300.923 141.331 300.47C140.527 300.005 139.801 299.257 139.155 298.226C138.521 297.195 137.971 295.812 137.506 294.078L138.798 293.738C139.195 295.143 139.626 296.299 140.09 297.206C140.566 298.113 141.11 298.781 141.722 299.212C142.346 299.643 143.071 299.858 143.898 299.858C144.431 299.858 144.879 299.796 145.241 299.671C145.604 299.535 145.893 299.348 146.108 299.11C146.335 298.872 146.499 298.6 146.601 298.294C146.703 297.977 146.754 297.637 146.754 297.274C146.754 296.798 146.664 296.367 146.482 295.982C146.301 295.585 146.046 295.274 145.717 295.047C145.389 294.82 145.003 294.707 144.561 294.707C144.108 294.707 143.779 294.803 143.575 294.996C143.383 295.189 143.286 295.444 143.286 295.761C143.286 295.874 143.298 295.993 143.32 296.118C143.343 296.243 143.383 296.384 143.439 296.543L142.13 296.798C142.062 296.583 142.006 296.373 141.96 296.169C141.926 295.965 141.909 295.755 141.909 295.54C141.909 295.098 142.017 294.73 142.232 294.435C142.459 294.129 142.765 293.897 143.15 293.738C143.547 293.579 143.995 293.5 144.493 293.5C145.196 293.5 145.814 293.664 146.346 293.993C146.879 294.31 147.298 294.758 147.604 295.336C147.91 295.914 148.063 296.583 148.063 297.342C148.063 298.056 147.91 298.702 147.604 299.28C147.31 299.847 146.856 300.3 146.244 300.64C145.632 300.98 144.862 301.15 143.932 301.15ZM149.202 291.426V292.633H136.843V291.426H149.202ZM159.335 291.426V292.633H157.55V302H156.241C155.901 301.32 155.43 300.697 154.83 300.13C154.24 299.552 153.56 299.065 152.79 298.668C152.019 298.271 151.197 298.005 150.325 297.869L149.662 296.237C150.75 295.58 151.872 294.985 153.028 294.452C154.195 293.919 155.396 293.466 156.632 293.092L156.241 293.806V292.633H148.863V291.426H159.335ZM156.241 293.942L156.598 294.418C155.736 294.701 154.83 295.053 153.878 295.472C152.926 295.88 152.047 296.333 151.243 296.832C151.855 296.968 152.506 297.2 153.198 297.529C153.889 297.858 154.529 298.271 155.119 298.77C155.708 299.269 156.161 299.847 156.479 300.504H156.326C156.303 300.243 156.28 299.983 156.258 299.722C156.246 299.461 156.241 299.15 156.241 298.787V293.942ZM152.178 302.102C151.894 302.102 151.651 302.011 151.447 301.83C151.254 301.649 151.158 301.411 151.158 301.116C151.158 300.821 151.254 300.578 151.447 300.385C151.651 300.192 151.894 300.096 152.178 300.096C152.461 300.096 152.699 300.192 152.892 300.385C153.096 300.578 153.198 300.821 153.198 301.116C153.198 301.411 153.096 301.649 152.892 301.83C152.699 302.011 152.461 302.102 152.178 302.102ZM174.469 291.426V292.633H172.684V302H171.375V299.705L171.681 300.606C171.284 300.005 170.882 299.45 170.474 298.94C170.077 298.43 169.652 298.016 169.199 297.699C168.757 297.382 168.27 297.223 167.737 297.223C167.318 297.223 166.961 297.331 166.666 297.546C166.383 297.761 166.241 298.084 166.241 298.515C166.241 298.889 166.377 299.206 166.649 299.467C166.921 299.716 167.323 299.932 167.856 300.113L167.431 301.422C166.819 301.207 166.32 300.946 165.935 300.64C165.561 300.334 165.283 300 165.102 299.637C164.932 299.263 164.847 298.872 164.847 298.464C164.847 297.92 164.977 297.467 165.238 297.104C165.51 296.741 165.85 296.469 166.258 296.288C166.677 296.095 167.097 295.999 167.516 295.999C168.196 295.999 168.791 296.124 169.301 296.373C169.822 296.622 170.276 296.957 170.661 297.376C171.058 297.795 171.415 298.266 171.732 298.787L171.443 298.838C171.42 298.577 171.403 298.317 171.392 298.056C171.381 297.784 171.375 297.506 171.375 297.223V292.633H163.555V291.426H174.469ZM168.808 296.509C168.808 296.577 168.802 296.645 168.791 296.713C168.791 296.781 168.785 296.849 168.774 296.917L167.482 296.526C167.459 295.869 167.346 295.342 167.142 294.945C166.938 294.548 166.615 294.248 166.173 294.044C165.731 293.829 165.13 293.681 164.371 293.602L164.592 292.378L165.374 292.599C165.918 292.644 166.4 292.758 166.819 292.939C167.25 293.109 167.612 293.353 167.907 293.67C168.202 293.987 168.423 294.384 168.57 294.86C168.729 295.325 168.808 295.874 168.808 296.509ZM178.992 291.426V292.633H177.207V302H175.898V294.027C175.762 293.642 175.558 293.313 175.286 293.041C175.026 292.769 174.686 292.633 174.266 292.633H174.13V291.426H174.385C174.657 291.426 174.941 291.517 175.235 291.698C175.53 291.868 175.768 292.134 175.949 292.497C175.938 292.44 175.927 292.31 175.915 292.106C175.904 291.902 175.898 291.726 175.898 291.579V290.304H176.816L177.19 291.426H178.992ZM187.18 291.426V302H185.871C185.542 301.331 185.083 300.702 184.494 300.113C183.905 299.524 183.23 299.031 182.471 298.634C181.723 298.226 180.935 297.971 180.108 297.869L179.445 296.237C180.522 295.591 181.627 294.996 182.76 294.452C183.905 293.908 185.061 293.455 186.228 293.092L185.871 293.806V292.633H178.646V291.426H187.18ZM185.871 293.942L186.211 294.418C185.656 294.599 185.078 294.815 184.477 295.064C183.888 295.313 183.298 295.591 182.709 295.897C182.131 296.192 181.57 296.503 181.026 296.832C181.661 296.957 182.312 297.195 182.981 297.546C183.661 297.897 184.279 298.328 184.834 298.838C185.401 299.337 185.82 299.881 186.092 300.47L185.956 300.504C185.933 300.243 185.911 299.983 185.888 299.722C185.877 299.461 185.871 299.15 185.871 298.787V293.942ZM192.484 291.426V292.633H190.699V300.759H189.39C189.163 300.306 188.903 299.892 188.608 299.518C188.313 299.144 187.996 298.804 187.656 298.498C187.327 298.181 186.976 297.903 186.602 297.665L187.027 296.594C187.356 296.775 187.69 297.019 188.03 297.325C188.37 297.62 188.682 297.943 188.965 298.294C189.248 298.634 189.458 298.963 189.594 299.28L189.458 299.331C189.435 299.07 189.418 298.815 189.407 298.566C189.396 298.305 189.39 297.994 189.39 297.631V290.304H190.291L190.682 291.426H192.484ZM207.18 291.426V292.633H205.395V302H204.086C203.746 301.32 203.276 300.697 202.675 300.13C202.086 299.552 201.406 299.065 200.635 298.668C199.865 298.271 199.043 298.005 198.17 297.869L197.507 296.237C198.595 295.58 199.717 294.985 200.873 294.452C202.041 293.919 203.242 293.466 204.477 293.092L204.086 293.806V292.633H196.708V291.426H207.18ZM204.086 293.942L204.443 294.418C203.582 294.701 202.675 295.053 201.723 295.472C200.771 295.88 199.893 296.333 199.088 296.832C199.7 296.968 200.352 297.2 201.043 297.529C201.735 297.858 202.375 298.271 202.964 298.77C203.554 299.269 204.007 299.847 204.324 300.504H204.171C204.149 300.243 204.126 299.983 204.103 299.722C204.092 299.461 204.086 299.15 204.086 298.787V293.942ZM217.307 291.426V292.633H215.522V302H214.213C213.873 301.32 213.403 300.697 212.802 300.13C212.213 299.552 211.533 299.065 210.762 298.668C209.992 298.271 209.17 298.005 208.297 297.869L207.634 296.237C208.722 295.58 209.844 294.985 211 294.452C212.168 293.919 213.369 293.466 214.604 293.092L214.213 293.806V292.633H206.835V291.426H217.307ZM214.213 293.942L214.57 294.418C213.709 294.701 212.802 295.053 211.85 295.472C210.898 295.88 210.02 296.333 209.215 296.832C209.827 296.968 210.479 297.2 211.17 297.529C211.862 297.858 212.502 298.271 213.091 298.77C213.681 299.269 214.134 299.847 214.451 300.504H214.298C214.276 300.243 214.253 299.983 214.23 299.722C214.219 299.461 214.213 299.15 214.213 298.787V293.942ZM210.15 302.102C209.867 302.102 209.623 302.011 209.419 301.83C209.227 301.649 209.13 301.411 209.13 301.116C209.13 300.821 209.227 300.578 209.419 300.385C209.623 300.192 209.867 300.096 210.15 300.096C210.434 300.096 210.672 300.192 210.864 300.385C211.068 300.578 211.17 300.821 211.17 301.116C211.17 301.411 211.068 301.649 210.864 301.83C210.672 302.011 210.434 302.102 210.15 302.102ZM221.824 291.426V292.633H220.039V302H218.73V294.027C218.594 293.642 218.39 293.313 218.118 293.041C217.858 292.769 217.518 292.633 217.098 292.633H216.962V291.426H217.217C217.489 291.426 217.773 291.517 218.067 291.698C218.362 291.868 218.6 292.134 218.781 292.497C218.77 292.44 218.759 292.31 218.747 292.106C218.736 291.902 218.73 291.726 218.73 291.579V290.304H219.648L220.022 291.426H221.824ZM231.95 291.426V292.633H230.165V302H228.856C228.516 301.32 228.046 300.697 227.445 300.13C226.856 299.552 226.176 299.065 225.405 298.668C224.634 298.271 223.813 298.005 222.94 297.869L222.277 296.237C223.365 295.58 224.487 294.985 225.643 294.452C226.81 293.919 228.012 293.466 229.247 293.092L228.856 293.806V292.633H221.478V291.426H231.95ZM228.856 293.942L229.213 294.418C228.352 294.701 227.445 295.053 226.493 295.472C225.541 295.88 224.663 296.333 223.858 296.832C224.47 296.968 225.122 297.2 225.813 297.529C226.504 297.858 227.145 298.271 227.734 298.77C228.323 299.269 228.777 299.847 229.094 300.504H228.941C228.918 300.243 228.896 299.983 228.873 299.722C228.862 299.461 228.856 299.15 228.856 298.787V293.942ZM242.077 291.426V292.633H240.292V302H238.983C238.643 301.32 238.173 300.697 237.572 300.13C236.983 299.552 236.303 299.065 235.532 298.668C234.761 298.271 233.94 298.005 233.067 297.869L232.404 296.237C233.492 295.58 234.614 294.985 235.77 294.452C236.937 293.919 238.139 293.466 239.374 293.092L238.983 293.806V292.633H231.605V291.426H242.077ZM238.983 293.942L239.34 294.418C238.479 294.701 237.572 295.053 236.62 295.472C235.668 295.88 234.79 296.333 233.985 296.832C234.597 296.968 235.249 297.2 235.94 297.529C236.631 297.858 237.272 298.271 237.861 298.77C238.45 299.269 238.904 299.847 239.221 300.504H239.068C239.045 300.243 239.023 299.983 239 299.722C238.989 299.461 238.983 299.15 238.983 298.787V293.942ZM234.92 302.102C234.637 302.102 234.393 302.011 234.189 301.83C233.996 301.649 233.9 301.411 233.9 301.116C233.9 300.821 233.996 300.578 234.189 300.385C234.393 300.192 234.637 300.096 234.92 300.096C235.203 300.096 235.441 300.192 235.634 300.385C235.838 300.578 235.94 300.821 235.94 301.116C235.94 301.411 235.838 301.649 235.634 301.83C235.441 302.011 235.203 302.102 234.92 302.102Z" fill="#FFCA3A"/>
<circle cx="58.5" cy="149.5" r="6.5" fill="#FFCA3A"/>
<path d="M57.5119 282.59C46.1323 266.935 28.2211 224.42 47.6133 179.601" stroke="#FFCA3A" stroke-width="1.5"/>
<path d="M47.6138 179.601L38.4336 187.71" stroke="#FFCA3A" stroke-width="1.5"/>
<path d="M47.6142 179.601L49.3191 189.847" stroke="#FFCA3A" stroke-width="1.5"/>
</svg>
