<svg width="390" height="399" viewBox="0 0 390 399" fill="none" xmlns="http://www.w3.org/2000/svg">
<rect x="1" y="1" width="388" height="62" stroke="#FFCA3A" stroke-width="2" stroke-dasharray="5 5"/>
<path d="M123.525 32.726C123.525 33.662 123.399 34.49 123.147 35.21C122.907 35.918 122.505 36.476 121.941 36.884C121.377 37.28 120.609 37.478 119.637 37.478C118.953 37.478 118.311 37.37 117.711 37.154C117.111 36.926 116.559 36.53 116.055 35.966C115.551 35.39 115.095 34.586 114.687 33.554C114.279 32.51 113.925 31.172 113.625 29.54L115.857 29C116.169 30.656 116.499 31.952 116.847 32.888C117.195 33.812 117.585 34.466 118.017 34.85C118.449 35.222 118.935 35.408 119.475 35.408C119.895 35.408 120.225 35.3 120.465 35.084C120.705 34.856 120.879 34.538 120.987 34.13C121.095 33.722 121.149 33.242 121.149 32.69C121.149 32.15 121.083 31.628 120.951 31.124C120.831 30.62 120.663 30.206 120.447 29.882C120.231 29.546 119.985 29.378 119.709 29.378C119.541 29.378 119.397 29.444 119.277 29.576C119.169 29.696 119.115 29.858 119.115 30.062C119.115 30.182 119.133 30.326 119.169 30.494C119.217 30.65 119.271 30.794 119.331 30.926L117.099 31.52C116.979 31.196 116.883 30.884 116.811 30.584C116.751 30.284 116.721 29.954 116.721 29.594C116.721 29.042 116.859 28.61 117.135 28.298C117.411 27.974 117.753 27.746 118.161 27.614C118.569 27.47 118.965 27.398 119.349 27.398C120.321 27.398 121.113 27.644 121.725 28.136C122.349 28.628 122.805 29.282 123.093 30.098C123.381 30.902 123.525 31.778 123.525 32.726ZM125.057 40.772L126.245 36.452L126.641 38.072C126.125 38.072 125.699 37.922 125.363 37.622C125.039 37.322 124.877 36.908 124.877 36.38C124.877 35.852 125.045 35.432 125.381 35.12C125.717 34.808 126.131 34.652 126.623 34.652C127.127 34.652 127.541 34.814 127.865 35.138C128.189 35.45 128.351 35.864 128.351 36.38C128.351 36.536 128.339 36.692 128.315 36.848C128.291 36.992 128.243 37.172 128.171 37.388C128.111 37.592 128.009 37.856 127.865 38.18L126.839 40.772H125.057ZM139.654 38C138.178 38 137.038 37.718 136.234 37.154C135.43 36.578 135.028 35.816 135.028 34.868C135.028 34.184 135.274 33.59 135.766 33.086C136.27 32.57 137.074 32.126 138.178 31.754L138.124 32.618C137.44 32.306 136.882 32.006 136.45 31.718C136.03 31.43 135.718 31.118 135.514 30.782C135.322 30.446 135.226 30.05 135.226 29.594C135.226 29.078 135.388 28.61 135.712 28.19C136.048 27.77 136.534 27.434 137.17 27.182C137.818 26.93 138.604 26.804 139.528 26.804C140.656 26.804 141.55 26.936 142.21 27.2C142.87 27.452 143.344 27.782 143.632 28.19C143.92 28.586 144.064 29 144.064 29.432C144.064 29.972 143.938 30.422 143.686 30.782C143.446 31.142 143.116 31.448 142.696 31.7C142.288 31.94 141.832 32.162 141.328 32.366L141.22 31.718C142.18 32.054 142.924 32.45 143.452 32.906C143.992 33.362 144.262 34.016 144.262 34.868C144.262 35.924 143.872 36.71 143.092 37.226C142.312 37.742 141.166 38 139.654 38ZM139.654 36.02C140.446 36.02 141.004 35.9 141.328 35.66C141.664 35.408 141.832 35.072 141.832 34.652C141.832 34.376 141.724 34.13 141.508 33.914C141.304 33.698 141.034 33.518 140.698 33.374C140.362 33.23 140.014 33.122 139.654 33.05C138.934 33.23 138.388 33.452 138.016 33.716C137.656 33.98 137.476 34.31 137.476 34.706C137.476 35.066 137.644 35.378 137.98 35.642C138.328 35.894 138.886 36.02 139.654 36.02ZM139.654 31.16C139.978 31.076 140.29 30.974 140.59 30.854C140.89 30.722 141.136 30.566 141.328 30.386C141.52 30.206 141.616 30.008 141.616 29.792C141.616 29.492 141.448 29.252 141.112 29.072C140.788 28.88 140.278 28.784 139.582 28.784C139.234 28.784 138.91 28.826 138.61 28.91C138.322 28.982 138.088 29.09 137.908 29.234C137.74 29.378 137.656 29.564 137.656 29.792C137.656 30.104 137.812 30.368 138.124 30.584C138.448 30.8 138.958 30.992 139.654 31.16ZM167.793 26.804V28.784H166.065V38H163.689C163.353 37.364 162.879 36.818 162.267 36.362C161.667 35.894 161.085 35.51 160.521 35.21L161.565 33.68C162.021 33.944 162.435 34.226 162.807 34.526C163.191 34.814 163.503 35.096 163.743 35.372C163.731 35.24 163.719 35.108 163.707 34.976C163.707 34.844 163.701 34.706 163.689 34.562C163.689 34.406 163.689 34.25 163.689 34.094V28.784H150.153V26.804H167.793ZM157.497 36.524C156.513 36.524 155.589 36.332 154.725 35.948C153.873 35.564 153.099 34.916 152.403 34.004C151.719 33.092 151.119 31.856 150.603 30.296L152.853 29.666C153.237 30.782 153.639 31.694 154.059 32.402C154.479 33.11 154.959 33.632 155.499 33.968C156.039 34.292 156.669 34.454 157.389 34.454C157.953 34.454 158.415 34.382 158.775 34.238C159.147 34.094 159.423 33.884 159.603 33.608C159.783 33.332 159.873 33.008 159.873 32.636C159.873 32.18 159.747 31.826 159.495 31.574C159.255 31.31 158.943 31.178 158.559 31.178C158.295 31.178 158.091 31.244 157.947 31.376C157.803 31.508 157.731 31.682 157.731 31.898C157.731 31.994 157.743 32.102 157.767 32.222C157.791 32.33 157.821 32.432 157.857 32.528L155.625 32.852C155.529 32.624 155.457 32.402 155.409 32.186C155.361 31.97 155.337 31.784 155.337 31.628C155.337 31.04 155.475 30.578 155.751 30.242C156.027 29.894 156.387 29.642 156.831 29.486C157.287 29.33 157.761 29.252 158.253 29.252C159.081 29.252 159.795 29.414 160.395 29.738C160.995 30.05 161.451 30.482 161.763 31.034C162.087 31.586 162.249 32.21 162.249 32.906C162.249 33.554 162.087 34.154 161.763 34.706C161.439 35.258 160.923 35.702 160.215 36.038C159.519 36.362 158.613 36.524 157.497 36.524ZM156.363 30.296C156.315 29.9 156.141 29.558 155.841 29.27C155.541 28.982 155.109 28.772 154.545 28.64L155.895 27.848L156.723 28.046C157.395 28.322 157.881 28.628 158.181 28.964C158.481 29.3 158.661 29.726 158.721 30.242L156.363 30.296ZM173.265 26.804V28.784H171.537V38H169.161V30.008C168.969 29.564 168.765 29.252 168.549 29.072C168.333 28.88 168.069 28.784 167.757 28.784H167.487V26.804H167.883C168.123 26.804 168.357 26.888 168.585 27.056C168.825 27.224 169.041 27.518 169.233 27.938C169.221 27.878 169.203 27.74 169.179 27.524C169.167 27.308 169.161 27.122 169.161 26.966V25.616H171.105L171.519 26.804H173.265ZM178.731 26.804V28.784H177.003V38H174.627V28.784H172.899V26.804H174.645C174.453 26.576 174.243 26.318 174.015 26.03C173.799 25.73 173.607 25.466 173.439 25.238C174.123 24.302 174.795 23.564 175.455 23.024C176.127 22.472 176.829 22.082 177.561 21.854C178.305 21.614 179.121 21.494 180.009 21.494C180.693 21.494 181.353 21.548 181.989 21.656C182.625 21.752 183.285 21.914 183.969 22.142C184.653 22.37 185.397 22.676 186.201 23.06C187.005 23.432 187.911 23.894 188.919 24.446L187.803 26.102C186.903 25.634 186.111 25.232 185.427 24.896C184.743 24.56 184.113 24.29 183.537 24.086C182.973 23.87 182.427 23.714 181.899 23.618C181.383 23.522 180.837 23.474 180.261 23.474C179.601 23.474 179.007 23.582 178.479 23.798C177.963 24.014 177.507 24.29 177.111 24.626C176.727 24.95 176.391 25.286 176.103 25.634C176.211 25.826 176.331 26.03 176.463 26.246C176.607 26.45 176.757 26.636 176.913 26.804H178.731ZM192.694 26.804V28.784H190.966V38H188.59V32.33L189.076 33.356C188.884 33.008 188.656 32.708 188.392 32.456C188.128 32.204 187.828 32.078 187.492 32.078C187.372 32.078 187.234 32.108 187.078 32.168C186.934 32.228 186.808 32.342 186.7 32.51C186.604 32.678 186.556 32.924 186.556 33.248C186.556 33.356 186.562 33.458 186.574 33.554C186.586 33.638 186.598 33.728 186.61 33.824L184.576 33.95C184.516 33.554 184.396 33.212 184.216 32.924C184.048 32.624 183.832 32.396 183.568 32.24C183.304 32.084 182.986 32.006 182.614 32.006C182.398 32.006 182.206 32.048 182.038 32.132C181.87 32.204 181.738 32.312 181.642 32.456C181.558 32.6 181.516 32.768 181.516 32.96C181.516 33.392 181.684 33.728 182.02 33.968C182.368 34.208 182.788 34.406 183.28 34.562L182.596 36.578C181.876 36.374 181.252 36.104 180.724 35.768C180.196 35.42 179.788 35.006 179.5 34.526C179.212 34.046 179.068 33.494 179.068 32.87C179.068 32.27 179.212 31.754 179.5 31.322C179.8 30.89 180.196 30.56 180.688 30.332C181.18 30.092 181.72 29.972 182.308 29.972C183.016 29.972 183.61 30.092 184.09 30.332C184.57 30.56 185.068 30.938 185.584 31.466L185.26 31.34C185.392 30.92 185.626 30.602 185.962 30.386C186.298 30.17 186.652 30.062 187.024 30.062C187.444 30.062 187.816 30.146 188.14 30.314C188.476 30.482 188.788 30.71 189.076 30.998L188.68 31.286C188.656 31.022 188.632 30.758 188.608 30.494C188.596 30.23 188.59 29.966 188.59 29.702V28.784H178.366V26.804H192.694ZM208.631 26.804V28.784H195.419L195.653 28.658C196.073 28.778 196.463 28.934 196.823 29.126C197.195 29.318 197.537 29.534 197.849 29.774C198.173 30.002 198.467 30.236 198.731 30.476L198.947 32.06C198.611 32.192 198.269 32.336 197.921 32.492C197.573 32.648 197.231 32.81 196.895 32.978C196.559 33.146 196.235 33.32 195.923 33.5L195.905 33.392C196.337 33.452 196.829 33.578 197.381 33.77C197.945 33.962 198.497 34.214 199.037 34.526C199.589 34.826 200.063 35.18 200.459 35.588C200.447 35.384 200.435 35.186 200.423 34.994C200.423 34.79 200.423 34.58 200.423 34.364V29.27H201.251C202.067 29.27 202.805 29.318 203.465 29.414C204.125 29.51 204.725 29.678 205.265 29.918C205.805 30.146 206.303 30.47 206.759 30.89C207.143 31.226 207.425 31.61 207.605 32.042C207.785 32.462 207.875 32.9 207.875 33.356C207.875 33.752 207.791 34.13 207.623 34.49C207.467 34.85 207.191 35.144 206.795 35.372C206.399 35.6 205.847 35.714 205.139 35.714C204.887 35.714 204.653 35.708 204.437 35.696C204.233 35.672 204.035 35.642 203.843 35.606L203.933 33.626C203.993 33.638 204.065 33.65 204.149 33.662C204.245 33.662 204.365 33.662 204.509 33.662C204.941 33.662 205.223 33.59 205.355 33.446C205.487 33.29 205.553 33.104 205.553 32.888C205.553 32.54 205.337 32.21 204.905 31.898C204.473 31.586 203.771 31.388 202.799 31.304V38H200.423C199.955 37.412 199.397 36.914 198.749 36.506C198.113 36.086 197.393 35.75 196.589 35.498C195.785 35.234 194.897 35.036 193.925 34.904L193.079 32.87C193.415 32.666 193.763 32.462 194.123 32.258C194.495 32.054 194.879 31.85 195.275 31.646C195.671 31.43 196.067 31.226 196.463 31.034C195.959 30.746 195.413 30.494 194.825 30.278C194.249 30.062 193.619 29.9 192.935 29.792L193.601 28.298L194.285 28.784H192.341V26.804H208.631ZM225.334 26.804V28.784H223.606V38H221.23V35.66L221.536 36.614C221.092 36.002 220.666 35.48 220.258 35.048C219.85 34.604 219.442 34.268 219.034 34.04C218.626 33.8 218.194 33.68 217.738 33.68C217.462 33.68 217.222 33.752 217.018 33.896C216.814 34.04 216.712 34.256 216.712 34.544C216.712 34.856 216.826 35.102 217.054 35.282C217.294 35.45 217.618 35.606 218.026 35.75L217.342 37.82C216.622 37.616 216.034 37.34 215.578 36.992C215.134 36.632 214.804 36.236 214.588 35.804C214.372 35.372 214.264 34.928 214.264 34.472C214.264 33.836 214.414 33.314 214.714 32.906C215.014 32.498 215.398 32.198 215.866 32.006C216.346 31.814 216.838 31.718 217.342 31.718C217.93 31.718 218.47 31.796 218.962 31.952C219.466 32.108 219.934 32.354 220.366 32.69C220.798 33.014 221.218 33.44 221.626 33.968L221.266 34.238C221.254 33.95 221.242 33.662 221.23 33.374C221.23 33.074 221.23 32.78 221.23 32.492V28.784H213.364V26.804H225.334ZM219.322 32.222C219.322 32.282 219.316 32.372 219.304 32.492C219.304 32.6 219.292 32.708 219.268 32.816L216.946 32.222C216.922 31.658 216.82 31.214 216.64 30.89C216.46 30.566 216.16 30.32 215.74 30.152C215.32 29.984 214.72 29.864 213.94 29.792L214.408 27.974L215.416 28.262C216.136 28.346 216.742 28.49 217.234 28.694C217.738 28.898 218.14 29.162 218.44 29.486C218.752 29.798 218.974 30.182 219.106 30.638C219.25 31.094 219.322 31.622 219.322 32.222ZM230.798 26.804V28.784H229.07V38H226.694V30.008C226.55 29.636 226.346 29.342 226.082 29.126C225.818 28.898 225.476 28.784 225.056 28.784H224.966V26.804H225.326C225.602 26.804 225.86 26.876 226.1 27.02C226.34 27.164 226.562 27.47 226.766 27.938C226.754 27.878 226.736 27.74 226.712 27.524C226.7 27.308 226.694 27.122 226.694 26.966V25.616H228.638L229.052 26.804H230.798ZM242.294 26.804V28.784H234.338V33.77L233.816 33.41C234.248 32.942 234.752 32.492 235.328 32.06C235.904 31.628 236.54 31.214 237.236 30.818C237.944 30.422 238.7 30.062 239.504 29.738L241.142 31.106C240.974 31.406 240.83 31.73 240.71 32.078C240.602 32.414 240.518 32.774 240.458 33.158C240.41 33.53 240.386 33.926 240.386 34.346C240.386 34.814 240.434 35.342 240.53 35.93C240.626 36.506 240.776 37.1 240.98 37.712L238.658 38.198C238.442 37.562 238.274 36.944 238.154 36.344C238.046 35.744 237.992 35.09 237.992 34.382C237.992 33.938 238.034 33.512 238.118 33.104C238.202 32.684 238.316 32.288 238.46 31.916C238.604 31.544 238.754 31.202 238.91 30.89L239.63 31.898C238.922 32.198 238.232 32.57 237.56 33.014C236.888 33.446 236.246 33.914 235.634 34.418C235.022 34.91 234.452 35.402 233.924 35.894L231.962 34.616V28.784H230.432V26.804H242.294ZM252.858 26.804V28.784H251.13V38H248.754V28.784H247.026V26.804H248.772C248.58 26.588 248.37 26.342 248.142 26.066C247.926 25.79 247.734 25.538 247.566 25.31C248.166 24.338 248.754 23.576 249.33 23.024C249.918 22.472 250.536 22.082 251.184 21.854C251.832 21.614 252.546 21.494 253.326 21.494C253.902 21.494 254.448 21.542 254.964 21.638C255.492 21.734 256.038 21.902 256.602 22.142C257.178 22.37 257.814 22.682 258.51 23.078C259.206 23.462 260.016 23.942 260.94 24.518L259.716 26.12C258.744 25.496 257.916 24.992 257.232 24.608C256.548 24.212 255.924 23.924 255.36 23.744C254.796 23.564 254.202 23.474 253.578 23.474C253.014 23.474 252.522 23.582 252.102 23.798C251.682 24.014 251.316 24.284 251.004 24.608C250.704 24.932 250.44 25.268 250.212 25.616C250.32 25.808 250.446 26.012 250.59 26.228C250.734 26.444 250.884 26.636 251.04 26.804H252.858ZM263.527 26.804V28.784H256.507V29.234L256.471 30.98C256.483 31.124 256.489 31.268 256.489 31.412C256.501 31.556 256.507 31.7 256.507 31.844V34.058C256.507 34.466 256.531 34.766 256.579 34.958C256.627 35.15 256.699 35.294 256.795 35.39C256.963 35.57 257.239 35.66 257.623 35.66C257.947 35.66 258.259 35.594 258.559 35.462C258.859 35.318 259.165 35.096 259.477 34.796C259.741 34.556 259.945 34.298 260.089 34.022C260.233 33.746 260.305 33.464 260.305 33.176C260.305 32.9 260.221 32.708 260.053 32.6C259.897 32.492 259.687 32.438 259.423 32.438H259.243C258.883 32.438 258.559 32.402 258.271 32.33C257.995 32.258 257.677 32.12 257.317 31.916C257.089 31.784 256.885 31.64 256.705 31.484C256.525 31.316 256.369 31.148 256.237 30.98L256.381 28.766C256.609 29.126 256.879 29.426 257.191 29.666C257.503 29.906 257.851 30.092 258.235 30.224C258.619 30.344 259.021 30.404 259.441 30.404H259.801C260.437 30.404 260.929 30.464 261.277 30.584C261.625 30.704 261.913 30.896 262.141 31.16C262.309 31.34 262.435 31.568 262.519 31.844C262.603 32.108 262.645 32.378 262.645 32.654C262.645 33.386 262.507 34.034 262.231 34.598C261.955 35.162 261.589 35.672 261.133 36.128C260.653 36.596 260.101 36.968 259.477 37.244C258.853 37.508 258.187 37.64 257.479 37.64C256.831 37.64 256.327 37.58 255.967 37.46C255.607 37.34 255.307 37.172 255.067 36.956C254.803 36.728 254.581 36.404 254.401 35.984C254.221 35.564 254.131 34.916 254.131 34.04V28.784H252.493V26.804H263.527ZM268.077 29.27C269.181 29.27 270.057 29.438 270.705 29.774C271.365 30.098 271.839 30.512 272.127 31.016C272.415 31.52 272.559 32.036 272.559 32.564C272.559 33.548 272.247 34.304 271.623 34.832C271.011 35.348 270.141 35.696 269.013 35.876L268.599 35.138C269.199 35.294 269.793 35.486 270.381 35.714C270.969 35.942 271.551 36.212 272.127 36.524C272.715 36.836 273.291 37.19 273.855 37.586L272.595 39.26C272.031 38.852 271.431 38.474 270.795 38.126C270.171 37.778 269.505 37.466 268.797 37.19C268.101 36.902 267.369 36.65 266.601 36.434C265.833 36.218 265.023 36.044 264.171 35.912L264.567 34.022C264.987 34.13 265.395 34.214 265.791 34.274C266.199 34.334 266.607 34.364 267.015 34.364C267.783 34.364 268.395 34.292 268.851 34.148C269.307 33.992 269.637 33.782 269.841 33.518C270.057 33.254 270.165 32.942 270.165 32.582C270.165 32.15 269.997 31.802 269.661 31.538C269.337 31.274 268.875 31.142 268.275 31.142C267.927 31.142 267.645 31.172 267.429 31.232C267.225 31.292 267.075 31.388 266.979 31.52C266.895 31.64 266.853 31.79 266.853 31.97C266.853 32.03 266.865 32.102 266.889 32.186C266.913 32.27 266.937 32.342 266.961 32.402L264.729 32.726C264.657 32.546 264.597 32.342 264.549 32.114C264.501 31.874 264.477 31.652 264.477 31.448C264.477 31.016 264.621 30.638 264.909 30.314C265.197 29.978 265.611 29.72 266.151 29.54C266.691 29.36 267.333 29.27 268.077 29.27ZM265.953 30.296C265.893 29.9 265.713 29.558 265.413 29.27C265.113 28.982 264.681 28.772 264.117 28.64L265.485 27.848L266.313 28.046C266.985 28.322 267.471 28.628 267.771 28.964C268.071 29.3 268.245 29.726 268.293 30.242L265.953 30.296ZM278.121 26.804V28.784H263.163V26.804H278.121ZM274.665 30.422C275.553 30.422 276.219 30.662 276.663 31.142C277.119 31.61 277.347 32.216 277.347 32.96C277.347 33.416 277.239 33.86 277.023 34.292C276.807 34.712 276.465 35.09 275.997 35.426C275.541 35.75 274.953 36.008 274.233 36.2L273.657 34.31C274.173 34.19 274.539 34.022 274.755 33.806C274.971 33.578 275.079 33.344 275.079 33.104C275.079 32.828 275.001 32.63 274.845 32.51C274.701 32.39 274.515 32.33 274.287 32.33C274.071 32.33 273.849 32.384 273.621 32.492C273.393 32.588 273.165 32.762 272.937 33.014C272.709 33.254 272.475 33.59 272.235 34.022L270.993 33.104C271.341 32.468 271.701 31.958 272.073 31.574C272.445 31.178 272.841 30.89 273.261 30.71C273.693 30.518 274.161 30.422 274.665 30.422Z" fill="#FFCA3A"/>
<path d="M80.954 139.69C80.954 140.554 80.828 141.334 80.576 142.03C80.336 142.726 79.94 143.278 79.388 143.686C78.848 144.094 78.134 144.298 77.246 144.298C76.598 144.298 75.992 144.19 75.428 143.974C74.864 143.746 74.342 143.344 73.862 142.768C73.394 142.18 72.962 141.358 72.566 140.302C72.17 139.234 71.822 137.86 71.522 136.18L72.89 135.82C73.25 137.62 73.628 139.036 74.024 140.068C74.42 141.1 74.87 141.838 75.374 142.282C75.89 142.714 76.484 142.93 77.156 142.93C77.768 142.93 78.248 142.786 78.596 142.498C78.944 142.21 79.19 141.826 79.334 141.346C79.478 140.854 79.55 140.302 79.55 139.69C79.55 138.958 79.448 138.304 79.244 137.728C79.04 137.152 78.764 136.696 78.416 136.36C78.068 136.024 77.678 135.856 77.246 135.856C76.934 135.856 76.688 135.934 76.508 136.09C76.34 136.246 76.256 136.468 76.256 136.756C76.256 136.948 76.28 137.14 76.328 137.332C76.388 137.524 76.478 137.74 76.598 137.98L75.158 138.358C75.014 138.058 74.906 137.758 74.834 137.458C74.762 137.146 74.726 136.858 74.726 136.594C74.726 136.09 74.846 135.694 75.086 135.406C75.338 135.106 75.644 134.896 76.004 134.776C76.376 134.644 76.73 134.578 77.066 134.578C77.906 134.578 78.614 134.812 79.19 135.28C79.766 135.736 80.204 136.354 80.504 137.134C80.804 137.902 80.954 138.754 80.954 139.69ZM102.527 133.804V135.082H100.727V145H99.3413C98.9933 144.292 98.5613 143.674 98.0453 143.146C97.5293 142.606 96.9773 142.144 96.3893 141.76L96.8393 140.572C97.2953 140.836 97.7693 141.196 98.2613 141.652C98.7533 142.108 99.1313 142.57 99.3953 143.038C99.3833 142.858 99.3713 142.69 99.3593 142.534C99.3593 142.378 99.3533 142.216 99.3413 142.048C99.3413 141.88 99.3413 141.7 99.3413 141.508V135.082H86.1833V133.804H102.527ZM93.1313 143.362C92.3153 143.362 91.5353 143.17 90.7913 142.786C90.0473 142.402 89.3453 141.754 88.6853 140.842C88.0373 139.918 87.4373 138.652 86.8853 137.044L88.1993 136.612C88.6313 137.86 89.0813 138.886 89.5493 139.69C90.0293 140.482 90.5633 141.064 91.1513 141.436C91.7393 141.808 92.4113 141.994 93.1673 141.994C93.8273 141.994 94.3553 141.892 94.7513 141.688C95.1593 141.472 95.4533 141.184 95.6333 140.824C95.8133 140.464 95.9033 140.056 95.9033 139.6C95.9033 138.904 95.7113 138.34 95.3273 137.908C94.9553 137.476 94.4873 137.26 93.9233 137.26C93.5273 137.26 93.2273 137.35 93.0233 137.53C92.8193 137.698 92.7173 137.956 92.7173 138.304C92.7173 138.388 92.7293 138.502 92.7533 138.646C92.7773 138.79 92.8133 138.922 92.8613 139.042L91.4933 139.312C91.4093 139.06 91.3433 138.832 91.2953 138.628C91.2593 138.412 91.2413 138.208 91.2413 138.016C91.2413 137.572 91.3613 137.2 91.6013 136.9C91.8533 136.6 92.1713 136.378 92.5553 136.234C92.9513 136.078 93.3653 136 93.7973 136C94.5053 136 95.1173 136.162 95.6333 136.486C96.1493 136.798 96.5513 137.23 96.8393 137.782C97.1273 138.334 97.2713 138.976 97.2713 139.708C97.2713 140.356 97.1213 140.962 96.8213 141.526C96.5213 142.078 96.0653 142.522 95.4533 142.858C94.8413 143.194 94.0673 143.362 93.1313 143.362ZM92.5553 136.63C92.4953 136.246 92.3153 135.91 92.0153 135.622C91.7273 135.322 91.3013 135.112 90.7373 134.992L91.1693 134.182L91.9793 134.398C92.6633 134.662 93.1553 134.962 93.4553 135.298C93.7553 135.634 93.9293 136.06 93.9773 136.576L92.5553 136.63ZM107.387 133.804V135.082H105.497V145H104.111V136.378C103.907 135.91 103.673 135.58 103.409 135.388C103.157 135.184 102.857 135.082 102.509 135.082H102.329V133.804H102.509C102.845 133.804 103.157 133.9 103.445 134.092C103.745 134.272 103.991 134.554 104.183 134.938C104.171 134.878 104.153 134.74 104.129 134.524C104.117 134.308 104.111 134.122 104.111 133.966V132.616H105.065L105.479 133.804H107.387ZM112.179 133.804V135.082H110.289V145H108.903V135.082H107.031V133.804H108.687C108.495 133.576 108.297 133.33 108.093 133.066C107.901 132.802 107.727 132.544 107.571 132.292C108.051 131.584 108.567 130.942 109.119 130.366C109.683 129.79 110.337 129.334 111.081 128.998C111.837 128.662 112.737 128.494 113.781 128.494C114.561 128.494 115.293 128.572 115.977 128.728C116.673 128.872 117.351 129.088 118.011 129.376C118.671 129.664 119.337 130.006 120.009 130.402C120.681 130.798 121.383 131.248 122.115 131.752L121.395 132.76C120.627 132.256 119.931 131.818 119.307 131.446C118.695 131.074 118.107 130.768 117.543 130.528C116.979 130.288 116.409 130.108 115.833 129.988C115.269 129.868 114.651 129.808 113.979 129.808C113.151 129.808 112.443 129.928 111.855 130.168C111.267 130.408 110.757 130.732 110.325 131.14C109.893 131.548 109.497 132.01 109.137 132.526C109.221 132.706 109.347 132.904 109.515 133.12C109.683 133.336 109.875 133.564 110.091 133.804H112.179ZM125.33 133.804V135.082H123.44V145H122.054V138.97L122.162 139.438C121.898 139.054 121.616 138.748 121.316 138.52C121.028 138.292 120.71 138.178 120.362 138.178C120.182 138.178 119.996 138.214 119.804 138.286C119.624 138.346 119.468 138.466 119.336 138.646C119.216 138.826 119.156 139.102 119.156 139.474C119.156 139.606 119.156 139.726 119.156 139.834C119.168 139.93 119.18 140.026 119.192 140.122L118.022 140.212C117.974 139.72 117.842 139.306 117.626 138.97C117.41 138.622 117.146 138.358 116.834 138.178C116.522 137.998 116.186 137.908 115.826 137.908C115.502 137.908 115.226 137.974 114.998 138.106C114.77 138.226 114.596 138.394 114.476 138.61C114.356 138.814 114.296 139.048 114.296 139.312C114.296 139.792 114.47 140.2 114.818 140.536C115.178 140.872 115.682 141.154 116.33 141.382L115.844 142.714C115.268 142.534 114.752 142.288 114.296 141.976C113.84 141.664 113.48 141.28 113.216 140.824C112.952 140.368 112.82 139.84 112.82 139.24C112.82 138.7 112.952 138.238 113.216 137.854C113.48 137.458 113.834 137.152 114.278 136.936C114.722 136.72 115.208 136.612 115.736 136.612C116.372 136.612 116.918 136.732 117.374 136.972C117.83 137.2 118.25 137.572 118.634 138.088L118.364 138.106C118.484 137.71 118.712 137.41 119.048 137.206C119.396 136.99 119.756 136.882 120.128 136.882C120.56 136.882 120.932 136.966 121.244 137.134C121.556 137.302 121.898 137.542 122.27 137.854L122.108 138.124C122.096 137.872 122.084 137.62 122.072 137.368C122.06 137.116 122.054 136.858 122.054 136.594V135.082H111.812V133.804H125.33ZM140.422 133.804V135.082H127.498L127.21 134.92C127.714 135.04 128.218 135.232 128.722 135.496C129.238 135.76 129.712 136.048 130.144 136.36C130.588 136.66 130.942 136.948 131.206 137.224L131.296 138.232C130.864 138.424 130.408 138.634 129.928 138.862C129.46 139.09 129.004 139.318 128.56 139.546C128.128 139.774 127.744 140.002 127.408 140.23L127.21 139.924C128.146 140.116 128.968 140.362 129.676 140.662C130.384 140.962 131.02 141.322 131.584 141.742C132.148 142.162 132.688 142.654 133.204 143.218C133.192 143.014 133.18 142.804 133.168 142.588C133.168 142.372 133.168 142.15 133.168 141.922V135.82H133.402C134.062 135.82 134.698 135.874 135.31 135.982C135.934 136.09 136.51 136.27 137.038 136.522C137.578 136.774 138.052 137.116 138.46 137.548C138.748 137.848 138.976 138.19 139.144 138.574C139.324 138.946 139.414 139.36 139.414 139.816C139.414 140.212 139.33 140.59 139.162 140.95C139.006 141.298 138.748 141.586 138.388 141.814C138.028 142.042 137.548 142.156 136.948 142.156C136.768 142.156 136.588 142.15 136.408 142.138C136.24 142.126 136.072 142.102 135.904 142.066L135.994 140.788C136.066 140.8 136.156 140.812 136.264 140.824C136.372 140.824 136.486 140.824 136.606 140.824C137.194 140.824 137.572 140.71 137.74 140.482C137.92 140.254 138.01 139.984 138.01 139.672C138.01 139.06 137.698 138.52 137.074 138.052C136.462 137.584 135.622 137.296 134.554 137.188V145H133.168C132.676 144.328 132.13 143.74 131.53 143.236C130.942 142.732 130.252 142.312 129.46 141.976C128.68 141.628 127.75 141.364 126.67 141.184L126.022 139.546C126.394 139.294 126.784 139.054 127.192 138.826C127.6 138.598 128.014 138.376 128.434 138.16C128.866 137.944 129.286 137.74 129.694 137.548C129.238 137.2 128.71 136.894 128.11 136.63C127.522 136.354 126.826 136.132 126.022 135.964L126.58 134.74L126.616 135.082H124.978V133.804H140.422ZM156.327 133.804V135.082H154.437V145H153.051V142.57L153.375 143.524C152.955 142.888 152.529 142.3 152.097 141.76C151.677 141.22 151.227 140.782 150.747 140.446C150.279 140.11 149.763 139.942 149.199 139.942C148.755 139.942 148.377 140.056 148.065 140.284C147.765 140.512 147.615 140.854 147.615 141.31C147.615 141.706 147.759 142.042 148.047 142.318C148.335 142.582 148.761 142.81 149.325 143.002L148.875 144.388C148.227 144.16 147.699 143.884 147.291 143.56C146.895 143.236 146.601 142.882 146.409 142.498C146.229 142.102 146.139 141.688 146.139 141.256C146.139 140.68 146.277 140.2 146.553 139.816C146.841 139.432 147.201 139.144 147.633 138.952C148.077 138.748 148.521 138.646 148.965 138.646C149.685 138.646 150.315 138.778 150.855 139.042C151.407 139.306 151.887 139.66 152.295 140.104C152.715 140.548 153.093 141.046 153.429 141.598L153.123 141.652C153.099 141.376 153.081 141.1 153.069 140.824C153.057 140.536 153.051 140.242 153.051 139.942V135.082H144.771V133.804H156.327ZM150.333 139.186C150.333 139.258 150.327 139.33 150.315 139.402C150.315 139.474 150.309 139.546 150.297 139.618L148.929 139.204C148.905 138.508 148.785 137.95 148.569 137.53C148.353 137.11 148.011 136.792 147.543 136.576C147.075 136.348 146.439 136.192 145.635 136.108L145.869 134.812L146.697 135.046C147.273 135.094 147.783 135.214 148.227 135.406C148.683 135.586 149.067 135.844 149.379 136.18C149.691 136.516 149.925 136.936 150.081 137.44C150.249 137.932 150.333 138.514 150.333 139.186ZM161.116 133.804V135.082H159.226V145H157.84V136.558C157.696 136.15 157.48 135.802 157.192 135.514C156.916 135.226 156.556 135.082 156.112 135.082H155.968V133.804H156.238C156.526 133.804 156.826 133.9 157.138 134.092C157.45 134.272 157.702 134.554 157.894 134.938C157.882 134.878 157.87 134.74 157.858 134.524C157.846 134.308 157.84 134.122 157.84 133.966V132.616H158.812L159.208 133.804H161.116ZM171.964 133.804V135.082H163.792V140.446L163.54 140.086C164.02 139.546 164.566 139.042 165.178 138.574C165.79 138.106 166.456 137.68 167.176 137.296C167.896 136.9 168.664 136.552 169.48 136.252L170.65 137.404C170.422 137.824 170.236 138.232 170.092 138.628C169.96 139.024 169.858 139.438 169.786 139.87C169.726 140.302 169.696 140.782 169.696 141.31C169.696 141.898 169.744 142.462 169.84 143.002C169.936 143.542 170.098 144.148 170.326 144.82L168.976 145.126C168.76 144.43 168.592 143.752 168.472 143.092C168.352 142.42 168.292 141.724 168.292 141.004C168.292 140.512 168.328 140.05 168.4 139.618C168.472 139.186 168.568 138.802 168.688 138.466C168.82 138.118 168.952 137.836 169.084 137.62L169.3 137.71C168.616 137.986 167.95 138.322 167.302 138.718C166.654 139.114 166.018 139.57 165.394 140.086C164.77 140.602 164.128 141.19 163.468 141.85L162.406 141.13V135.082H160.75V133.804H171.964ZM181.454 133.804V135.082H179.564V145H178.178V135.082H176.306V133.804H177.962C177.77 133.576 177.572 133.336 177.368 133.084C177.176 132.832 177.002 132.58 176.846 132.328C177.254 131.62 177.692 130.978 178.16 130.402C178.628 129.814 179.18 129.352 179.816 129.016C180.452 128.668 181.22 128.494 182.12 128.494C182.756 128.494 183.362 128.572 183.938 128.728C184.526 128.884 185.102 129.112 185.666 129.412C186.23 129.7 186.8 130.054 187.376 130.474C187.952 130.882 188.552 131.338 189.176 131.842L188.42 132.814C187.592 132.142 186.842 131.584 186.17 131.14C185.51 130.696 184.874 130.366 184.262 130.15C183.662 129.922 183.02 129.808 182.336 129.808C181.676 129.808 181.1 129.922 180.608 130.15C180.128 130.378 179.708 130.696 179.348 131.104C179 131.512 178.682 131.986 178.394 132.526C178.49 132.706 178.622 132.904 178.79 133.12C178.958 133.336 179.15 133.564 179.366 133.804H181.454ZM191.654 133.804V135.082H184.364V135.622L184.292 136.756C184.316 136.912 184.334 137.128 184.346 137.404C184.358 137.68 184.364 137.944 184.364 138.196V141.31C184.364 141.838 184.394 142.21 184.454 142.426C184.514 142.642 184.586 142.798 184.67 142.894C184.886 143.146 185.216 143.272 185.66 143.272C186.14 143.272 186.584 143.158 186.992 142.93C187.4 142.702 187.766 142.42 188.09 142.084C188.426 141.724 188.684 141.346 188.864 140.95C189.056 140.542 189.152 140.116 189.152 139.672C189.152 139.276 189.038 139.018 188.81 138.898C188.594 138.778 188.288 138.718 187.892 138.718H187.802C187.25 138.718 186.806 138.676 186.47 138.592C186.134 138.496 185.81 138.37 185.498 138.214C185.222 138.058 184.964 137.878 184.724 137.674C184.496 137.458 184.31 137.218 184.166 136.954L184.346 135.388C184.598 135.82 184.862 136.186 185.138 136.486C185.414 136.774 185.756 136.996 186.164 137.152C186.584 137.308 187.118 137.386 187.766 137.386H188.054C188.51 137.386 188.858 137.416 189.098 137.476C189.35 137.536 189.572 137.626 189.764 137.746C190.04 137.914 190.244 138.148 190.376 138.448C190.508 138.736 190.574 139.084 190.574 139.492C190.574 140.224 190.4 140.926 190.052 141.598C189.704 142.27 189.266 142.834 188.738 143.29C188.282 143.686 187.796 143.998 187.28 144.226C186.764 144.454 186.188 144.568 185.552 144.568C185.108 144.568 184.73 144.502 184.418 144.37C184.106 144.238 183.848 144.07 183.644 143.866C183.452 143.638 183.29 143.362 183.158 143.038C183.038 142.714 182.978 142.222 182.978 141.562V135.082H181.088V133.804H191.654ZM195.836 136C196.784 136 197.546 136.162 198.122 136.486C198.71 136.798 199.142 137.2 199.418 137.692C199.694 138.172 199.832 138.658 199.832 139.15C199.832 140.134 199.484 140.92 198.788 141.508C198.104 142.084 197.084 142.408 195.728 142.48L195.908 142.264C196.448 142.42 197.018 142.642 197.618 142.93C198.218 143.218 198.824 143.554 199.436 143.938C200.048 144.31 200.636 144.724 201.2 145.18L200.372 146.134C199.628 145.582 198.944 145.108 198.32 144.712C197.708 144.304 197.102 143.95 196.502 143.65C195.902 143.35 195.266 143.086 194.594 142.858C193.922 142.63 193.16 142.42 192.308 142.228L192.578 140.986C192.998 141.106 193.4 141.196 193.784 141.256C194.18 141.304 194.654 141.328 195.206 141.328C196.058 141.328 196.712 141.226 197.168 141.022C197.636 140.818 197.96 140.554 198.14 140.23C198.32 139.906 198.41 139.576 198.41 139.24C198.41 138.604 198.176 138.118 197.708 137.782C197.24 137.434 196.646 137.26 195.926 137.26C195.494 137.26 195.146 137.302 194.882 137.386C194.618 137.47 194.426 137.596 194.306 137.764C194.198 137.92 194.144 138.112 194.144 138.34C194.144 138.436 194.156 138.538 194.18 138.646C194.204 138.742 194.228 138.832 194.252 138.916L192.938 139.186C192.878 139.006 192.83 138.82 192.794 138.628C192.758 138.424 192.74 138.244 192.74 138.088C192.74 137.644 192.872 137.266 193.136 136.954C193.4 136.642 193.76 136.408 194.216 136.252C194.684 136.084 195.224 136 195.836 136ZM194.63 136.63C194.57 136.246 194.39 135.91 194.09 135.622C193.79 135.322 193.358 135.112 192.794 134.992L193.226 134.182L194.054 134.398C194.726 134.662 195.212 134.962 195.512 135.298C195.824 135.634 196.004 136.06 196.052 136.576L194.63 136.63ZM205.178 133.804V135.082H191.3V133.804H205.178ZM201.92 137.35C202.652 137.35 203.24 137.56 203.684 137.98C204.128 138.388 204.35 138.922 204.35 139.582C204.35 139.954 204.272 140.326 204.116 140.698C203.972 141.07 203.696 141.418 203.288 141.742C202.88 142.066 202.298 142.342 201.542 142.57L201.11 141.274C201.698 141.118 202.16 140.914 202.496 140.662C202.832 140.41 203 140.098 203 139.726C203 139.306 202.88 139.012 202.64 138.844C202.4 138.676 202.124 138.592 201.812 138.592C201.524 138.592 201.236 138.676 200.948 138.844C200.672 139 200.414 139.228 200.174 139.528C199.934 139.816 199.712 140.164 199.508 140.572L198.644 139.978C198.944 139.39 199.256 138.904 199.58 138.52C199.916 138.136 200.276 137.848 200.66 137.656C201.044 137.452 201.464 137.35 201.92 137.35Z" fill="#F5F9FA"/>
<path d="M76.328 203C74.948 203 73.898 202.718 73.178 202.154C72.47 201.59 72.116 200.852 72.116 199.94C72.116 199.268 72.356 198.692 72.836 198.212C73.316 197.72 74.078 197.294 75.122 196.934V197.384C74.486 197.096 73.958 196.826 73.538 196.574C73.13 196.31 72.824 196.016 72.62 195.692C72.428 195.368 72.332 194.978 72.332 194.522C72.332 194.042 72.482 193.598 72.782 193.19C73.094 192.77 73.538 192.434 74.114 192.182C74.69 191.93 75.392 191.804 76.22 191.804C77.24 191.804 78.05 191.936 78.65 192.2C79.25 192.452 79.682 192.782 79.946 193.19C80.21 193.586 80.342 194 80.342 194.432C80.342 194.936 80.222 195.362 79.982 195.71C79.742 196.046 79.418 196.334 79.01 196.574C78.602 196.814 78.14 197.03 77.624 197.222L77.57 196.862C78.506 197.186 79.232 197.576 79.748 198.032C80.276 198.476 80.54 199.106 80.54 199.922C80.54 200.942 80.174 201.71 79.442 202.226C78.722 202.742 77.684 203 76.328 203ZM76.328 201.722C77.288 201.722 77.99 201.554 78.434 201.218C78.878 200.882 79.1 200.438 79.1 199.886C79.1 199.502 78.962 199.172 78.686 198.896C78.422 198.608 78.074 198.368 77.642 198.176C77.222 197.984 76.784 197.84 76.328 197.744C75.416 197.972 74.726 198.266 74.258 198.626C73.802 198.986 73.574 199.43 73.574 199.958C73.574 200.45 73.802 200.87 74.258 201.218C74.726 201.554 75.416 201.722 76.328 201.722ZM76.346 196.466C76.766 196.358 77.168 196.214 77.552 196.034C77.936 195.854 78.254 195.638 78.506 195.386C78.758 195.122 78.884 194.834 78.884 194.522C78.884 194.09 78.662 193.742 78.218 193.478C77.774 193.214 77.114 193.082 76.238 193.082C75.818 193.082 75.416 193.136 75.032 193.244C74.66 193.352 74.354 193.514 74.114 193.73C73.886 193.934 73.772 194.198 73.772 194.522C73.772 194.966 73.97 195.344 74.366 195.656C74.774 195.956 75.434 196.226 76.346 196.466ZM102.527 191.804V193.082H100.727V203H99.3413C98.9933 202.292 98.5613 201.674 98.0453 201.146C97.5293 200.606 96.9773 200.144 96.3893 199.76L96.8393 198.572C97.2953 198.836 97.7693 199.196 98.2613 199.652C98.7533 200.108 99.1313 200.57 99.3953 201.038C99.3833 200.858 99.3713 200.69 99.3593 200.534C99.3593 200.378 99.3533 200.216 99.3413 200.048C99.3413 199.88 99.3413 199.7 99.3413 199.508V193.082H86.1833V191.804H102.527ZM93.1313 201.362C92.3153 201.362 91.5353 201.17 90.7913 200.786C90.0473 200.402 89.3453 199.754 88.6853 198.842C88.0373 197.918 87.4373 196.652 86.8853 195.044L88.1993 194.612C88.6313 195.86 89.0813 196.886 89.5493 197.69C90.0293 198.482 90.5633 199.064 91.1513 199.436C91.7393 199.808 92.4113 199.994 93.1673 199.994C93.8273 199.994 94.3553 199.892 94.7513 199.688C95.1593 199.472 95.4533 199.184 95.6333 198.824C95.8133 198.464 95.9033 198.056 95.9033 197.6C95.9033 196.904 95.7113 196.34 95.3273 195.908C94.9553 195.476 94.4873 195.26 93.9233 195.26C93.5273 195.26 93.2273 195.35 93.0233 195.53C92.8193 195.698 92.7173 195.956 92.7173 196.304C92.7173 196.388 92.7293 196.502 92.7533 196.646C92.7773 196.79 92.8133 196.922 92.8613 197.042L91.4933 197.312C91.4093 197.06 91.3433 196.832 91.2953 196.628C91.2593 196.412 91.2413 196.208 91.2413 196.016C91.2413 195.572 91.3613 195.2 91.6013 194.9C91.8533 194.6 92.1713 194.378 92.5553 194.234C92.9513 194.078 93.3653 194 93.7973 194C94.5053 194 95.1173 194.162 95.6333 194.486C96.1493 194.798 96.5513 195.23 96.8393 195.782C97.1273 196.334 97.2713 196.976 97.2713 197.708C97.2713 198.356 97.1213 198.962 96.8213 199.526C96.5213 200.078 96.0653 200.522 95.4533 200.858C94.8413 201.194 94.0673 201.362 93.1313 201.362ZM92.5553 194.63C92.4953 194.246 92.3153 193.91 92.0153 193.622C91.7273 193.322 91.3013 193.112 90.7373 192.992L91.1693 192.182L91.9793 192.398C92.6633 192.662 93.1553 192.962 93.4553 193.298C93.7553 193.634 93.9293 194.06 93.9773 194.576L92.5553 194.63ZM107.387 191.804V193.082H105.497V203H104.111V194.378C103.907 193.91 103.673 193.58 103.409 193.388C103.157 193.184 102.857 193.082 102.509 193.082H102.329V191.804H102.509C102.845 191.804 103.157 191.9 103.445 192.092C103.745 192.272 103.991 192.554 104.183 192.938C104.171 192.878 104.153 192.74 104.129 192.524C104.117 192.308 104.111 192.122 104.111 191.966V190.616H105.065L105.479 191.804H107.387ZM112.179 191.804V193.082H110.289V203H108.903V193.082H107.031V191.804H108.687C108.495 191.576 108.297 191.33 108.093 191.066C107.901 190.802 107.727 190.544 107.571 190.292C108.051 189.584 108.567 188.942 109.119 188.366C109.683 187.79 110.337 187.334 111.081 186.998C111.837 186.662 112.737 186.494 113.781 186.494C114.561 186.494 115.293 186.572 115.977 186.728C116.673 186.872 117.351 187.088 118.011 187.376C118.671 187.664 119.337 188.006 120.009 188.402C120.681 188.798 121.383 189.248 122.115 189.752L121.395 190.76C120.627 190.256 119.931 189.818 119.307 189.446C118.695 189.074 118.107 188.768 117.543 188.528C116.979 188.288 116.409 188.108 115.833 187.988C115.269 187.868 114.651 187.808 113.979 187.808C113.151 187.808 112.443 187.928 111.855 188.168C111.267 188.408 110.757 188.732 110.325 189.14C109.893 189.548 109.497 190.01 109.137 190.526C109.221 190.706 109.347 190.904 109.515 191.12C109.683 191.336 109.875 191.564 110.091 191.804H112.179ZM125.33 191.804V193.082H123.44V203H122.054V196.97L122.162 197.438C121.898 197.054 121.616 196.748 121.316 196.52C121.028 196.292 120.71 196.178 120.362 196.178C120.182 196.178 119.996 196.214 119.804 196.286C119.624 196.346 119.468 196.466 119.336 196.646C119.216 196.826 119.156 197.102 119.156 197.474C119.156 197.606 119.156 197.726 119.156 197.834C119.168 197.93 119.18 198.026 119.192 198.122L118.022 198.212C117.974 197.72 117.842 197.306 117.626 196.97C117.41 196.622 117.146 196.358 116.834 196.178C116.522 195.998 116.186 195.908 115.826 195.908C115.502 195.908 115.226 195.974 114.998 196.106C114.77 196.226 114.596 196.394 114.476 196.61C114.356 196.814 114.296 197.048 114.296 197.312C114.296 197.792 114.47 198.2 114.818 198.536C115.178 198.872 115.682 199.154 116.33 199.382L115.844 200.714C115.268 200.534 114.752 200.288 114.296 199.976C113.84 199.664 113.48 199.28 113.216 198.824C112.952 198.368 112.82 197.84 112.82 197.24C112.82 196.7 112.952 196.238 113.216 195.854C113.48 195.458 113.834 195.152 114.278 194.936C114.722 194.72 115.208 194.612 115.736 194.612C116.372 194.612 116.918 194.732 117.374 194.972C117.83 195.2 118.25 195.572 118.634 196.088L118.364 196.106C118.484 195.71 118.712 195.41 119.048 195.206C119.396 194.99 119.756 194.882 120.128 194.882C120.56 194.882 120.932 194.966 121.244 195.134C121.556 195.302 121.898 195.542 122.27 195.854L122.108 196.124C122.096 195.872 122.084 195.62 122.072 195.368C122.06 195.116 122.054 194.858 122.054 194.594V193.082H111.812V191.804H125.33ZM140.422 191.804V193.082H127.498L127.21 192.92C127.714 193.04 128.218 193.232 128.722 193.496C129.238 193.76 129.712 194.048 130.144 194.36C130.588 194.66 130.942 194.948 131.206 195.224L131.296 196.232C130.864 196.424 130.408 196.634 129.928 196.862C129.46 197.09 129.004 197.318 128.56 197.546C128.128 197.774 127.744 198.002 127.408 198.23L127.21 197.924C128.146 198.116 128.968 198.362 129.676 198.662C130.384 198.962 131.02 199.322 131.584 199.742C132.148 200.162 132.688 200.654 133.204 201.218C133.192 201.014 133.18 200.804 133.168 200.588C133.168 200.372 133.168 200.15 133.168 199.922V193.82H133.402C134.062 193.82 134.698 193.874 135.31 193.982C135.934 194.09 136.51 194.27 137.038 194.522C137.578 194.774 138.052 195.116 138.46 195.548C138.748 195.848 138.976 196.19 139.144 196.574C139.324 196.946 139.414 197.36 139.414 197.816C139.414 198.212 139.33 198.59 139.162 198.95C139.006 199.298 138.748 199.586 138.388 199.814C138.028 200.042 137.548 200.156 136.948 200.156C136.768 200.156 136.588 200.15 136.408 200.138C136.24 200.126 136.072 200.102 135.904 200.066L135.994 198.788C136.066 198.8 136.156 198.812 136.264 198.824C136.372 198.824 136.486 198.824 136.606 198.824C137.194 198.824 137.572 198.71 137.74 198.482C137.92 198.254 138.01 197.984 138.01 197.672C138.01 197.06 137.698 196.52 137.074 196.052C136.462 195.584 135.622 195.296 134.554 195.188V203H133.168C132.676 202.328 132.13 201.74 131.53 201.236C130.942 200.732 130.252 200.312 129.46 199.976C128.68 199.628 127.75 199.364 126.67 199.184L126.022 197.546C126.394 197.294 126.784 197.054 127.192 196.826C127.6 196.598 128.014 196.376 128.434 196.16C128.866 195.944 129.286 195.74 129.694 195.548C129.238 195.2 128.71 194.894 128.11 194.63C127.522 194.354 126.826 194.132 126.022 193.964L126.58 192.74L126.616 193.082H124.978V191.804H140.422ZM156.327 191.804V193.082H154.437V203H153.051V200.57L153.375 201.524C152.955 200.888 152.529 200.3 152.097 199.76C151.677 199.22 151.227 198.782 150.747 198.446C150.279 198.11 149.763 197.942 149.199 197.942C148.755 197.942 148.377 198.056 148.065 198.284C147.765 198.512 147.615 198.854 147.615 199.31C147.615 199.706 147.759 200.042 148.047 200.318C148.335 200.582 148.761 200.81 149.325 201.002L148.875 202.388C148.227 202.16 147.699 201.884 147.291 201.56C146.895 201.236 146.601 200.882 146.409 200.498C146.229 200.102 146.139 199.688 146.139 199.256C146.139 198.68 146.277 198.2 146.553 197.816C146.841 197.432 147.201 197.144 147.633 196.952C148.077 196.748 148.521 196.646 148.965 196.646C149.685 196.646 150.315 196.778 150.855 197.042C151.407 197.306 151.887 197.66 152.295 198.104C152.715 198.548 153.093 199.046 153.429 199.598L153.123 199.652C153.099 199.376 153.081 199.1 153.069 198.824C153.057 198.536 153.051 198.242 153.051 197.942V193.082H144.771V191.804H156.327ZM150.333 197.186C150.333 197.258 150.327 197.33 150.315 197.402C150.315 197.474 150.309 197.546 150.297 197.618L148.929 197.204C148.905 196.508 148.785 195.95 148.569 195.53C148.353 195.11 148.011 194.792 147.543 194.576C147.075 194.348 146.439 194.192 145.635 194.108L145.869 192.812L146.697 193.046C147.273 193.094 147.783 193.214 148.227 193.406C148.683 193.586 149.067 193.844 149.379 194.18C149.691 194.516 149.925 194.936 150.081 195.44C150.249 195.932 150.333 196.514 150.333 197.186ZM161.116 191.804V193.082H159.226V203H157.84V194.558C157.696 194.15 157.48 193.802 157.192 193.514C156.916 193.226 156.556 193.082 156.112 193.082H155.968V191.804H156.238C156.526 191.804 156.826 191.9 157.138 192.092C157.45 192.272 157.702 192.554 157.894 192.938C157.882 192.878 157.87 192.74 157.858 192.524C157.846 192.308 157.84 192.122 157.84 191.966V190.616H158.812L159.208 191.804H161.116ZM171.964 191.804V193.082H163.792V198.446L163.54 198.086C164.02 197.546 164.566 197.042 165.178 196.574C165.79 196.106 166.456 195.68 167.176 195.296C167.896 194.9 168.664 194.552 169.48 194.252L170.65 195.404C170.422 195.824 170.236 196.232 170.092 196.628C169.96 197.024 169.858 197.438 169.786 197.87C169.726 198.302 169.696 198.782 169.696 199.31C169.696 199.898 169.744 200.462 169.84 201.002C169.936 201.542 170.098 202.148 170.326 202.82L168.976 203.126C168.76 202.43 168.592 201.752 168.472 201.092C168.352 200.42 168.292 199.724 168.292 199.004C168.292 198.512 168.328 198.05 168.4 197.618C168.472 197.186 168.568 196.802 168.688 196.466C168.82 196.118 168.952 195.836 169.084 195.62L169.3 195.71C168.616 195.986 167.95 196.322 167.302 196.718C166.654 197.114 166.018 197.57 165.394 198.086C164.77 198.602 164.128 199.19 163.468 199.85L162.406 199.13V193.082H160.75V191.804H171.964ZM181.454 191.804V193.082H179.564V203H178.178V193.082H176.306V191.804H177.962C177.77 191.576 177.572 191.336 177.368 191.084C177.176 190.832 177.002 190.58 176.846 190.328C177.254 189.62 177.692 188.978 178.16 188.402C178.628 187.814 179.18 187.352 179.816 187.016C180.452 186.668 181.22 186.494 182.12 186.494C182.756 186.494 183.362 186.572 183.938 186.728C184.526 186.884 185.102 187.112 185.666 187.412C186.23 187.7 186.8 188.054 187.376 188.474C187.952 188.882 188.552 189.338 189.176 189.842L188.42 190.814C187.592 190.142 186.842 189.584 186.17 189.14C185.51 188.696 184.874 188.366 184.262 188.15C183.662 187.922 183.02 187.808 182.336 187.808C181.676 187.808 181.1 187.922 180.608 188.15C180.128 188.378 179.708 188.696 179.348 189.104C179 189.512 178.682 189.986 178.394 190.526C178.49 190.706 178.622 190.904 178.79 191.12C178.958 191.336 179.15 191.564 179.366 191.804H181.454ZM191.654 191.804V193.082H184.364V193.622L184.292 194.756C184.316 194.912 184.334 195.128 184.346 195.404C184.358 195.68 184.364 195.944 184.364 196.196V199.31C184.364 199.838 184.394 200.21 184.454 200.426C184.514 200.642 184.586 200.798 184.67 200.894C184.886 201.146 185.216 201.272 185.66 201.272C186.14 201.272 186.584 201.158 186.992 200.93C187.4 200.702 187.766 200.42 188.09 200.084C188.426 199.724 188.684 199.346 188.864 198.95C189.056 198.542 189.152 198.116 189.152 197.672C189.152 197.276 189.038 197.018 188.81 196.898C188.594 196.778 188.288 196.718 187.892 196.718H187.802C187.25 196.718 186.806 196.676 186.47 196.592C186.134 196.496 185.81 196.37 185.498 196.214C185.222 196.058 184.964 195.878 184.724 195.674C184.496 195.458 184.31 195.218 184.166 194.954L184.346 193.388C184.598 193.82 184.862 194.186 185.138 194.486C185.414 194.774 185.756 194.996 186.164 195.152C186.584 195.308 187.118 195.386 187.766 195.386H188.054C188.51 195.386 188.858 195.416 189.098 195.476C189.35 195.536 189.572 195.626 189.764 195.746C190.04 195.914 190.244 196.148 190.376 196.448C190.508 196.736 190.574 197.084 190.574 197.492C190.574 198.224 190.4 198.926 190.052 199.598C189.704 200.27 189.266 200.834 188.738 201.29C188.282 201.686 187.796 201.998 187.28 202.226C186.764 202.454 186.188 202.568 185.552 202.568C185.108 202.568 184.73 202.502 184.418 202.37C184.106 202.238 183.848 202.07 183.644 201.866C183.452 201.638 183.29 201.362 183.158 201.038C183.038 200.714 182.978 200.222 182.978 199.562V193.082H181.088V191.804H191.654ZM195.836 194C196.784 194 197.546 194.162 198.122 194.486C198.71 194.798 199.142 195.2 199.418 195.692C199.694 196.172 199.832 196.658 199.832 197.15C199.832 198.134 199.484 198.92 198.788 199.508C198.104 200.084 197.084 200.408 195.728 200.48L195.908 200.264C196.448 200.42 197.018 200.642 197.618 200.93C198.218 201.218 198.824 201.554 199.436 201.938C200.048 202.31 200.636 202.724 201.2 203.18L200.372 204.134C199.628 203.582 198.944 203.108 198.32 202.712C197.708 202.304 197.102 201.95 196.502 201.65C195.902 201.35 195.266 201.086 194.594 200.858C193.922 200.63 193.16 200.42 192.308 200.228L192.578 198.986C192.998 199.106 193.4 199.196 193.784 199.256C194.18 199.304 194.654 199.328 195.206 199.328C196.058 199.328 196.712 199.226 197.168 199.022C197.636 198.818 197.96 198.554 198.14 198.23C198.32 197.906 198.41 197.576 198.41 197.24C198.41 196.604 198.176 196.118 197.708 195.782C197.24 195.434 196.646 195.26 195.926 195.26C195.494 195.26 195.146 195.302 194.882 195.386C194.618 195.47 194.426 195.596 194.306 195.764C194.198 195.92 194.144 196.112 194.144 196.34C194.144 196.436 194.156 196.538 194.18 196.646C194.204 196.742 194.228 196.832 194.252 196.916L192.938 197.186C192.878 197.006 192.83 196.82 192.794 196.628C192.758 196.424 192.74 196.244 192.74 196.088C192.74 195.644 192.872 195.266 193.136 194.954C193.4 194.642 193.76 194.408 194.216 194.252C194.684 194.084 195.224 194 195.836 194ZM194.63 194.63C194.57 194.246 194.39 193.91 194.09 193.622C193.79 193.322 193.358 193.112 192.794 192.992L193.226 192.182L194.054 192.398C194.726 192.662 195.212 192.962 195.512 193.298C195.824 193.634 196.004 194.06 196.052 194.576L194.63 194.63ZM205.178 191.804V193.082H191.3V191.804H205.178ZM201.92 195.35C202.652 195.35 203.24 195.56 203.684 195.98C204.128 196.388 204.35 196.922 204.35 197.582C204.35 197.954 204.272 198.326 204.116 198.698C203.972 199.07 203.696 199.418 203.288 199.742C202.88 200.066 202.298 200.342 201.542 200.57L201.11 199.274C201.698 199.118 202.16 198.914 202.496 198.662C202.832 198.41 203 198.098 203 197.726C203 197.306 202.88 197.012 202.64 196.844C202.4 196.676 202.124 196.592 201.812 196.592C201.524 196.592 201.236 196.676 200.948 196.844C200.672 197 200.414 197.228 200.174 197.528C199.934 197.816 199.712 198.164 199.508 198.572L198.644 197.978C198.944 197.39 199.256 196.904 199.58 196.52C199.916 196.136 200.276 195.848 200.66 195.656C201.044 195.452 201.464 195.35 201.92 195.35Z" fill="#F5F9FA"/>
<path d="M5.51253 145L5.08697 144.858C5.02905 144.858 5 144.808 5 144.709C5 143.838 5.41124 142.881 6.23374 141.836C7.05045 140.791 8.02355 139.818 9.15304 138.918C10.2883 138.017 11.4787 137.263 12.7241 136.656C13.9636 136.049 14.98 135.746 15.7736 135.746C16.1732 135.746 16.854 135.843 17.8155 136.037C18.777 136.231 19.9645 136.475 21.3778 136.768C22.7911 137.062 24.3462 137.403 26.0434 137.791C27.7405 138.179 29.5215 138.542 31.3867 138.881C31.9543 138.98 32.5191 139.052 33.081 139.097C33.6486 139.147 34.2164 139.172 34.784 139.172C35.9714 139.172 36.9736 139.112 37.7903 138.992C38.6128 138.868 39.4062 138.624 40.1708 138.261C40.9354 137.898 41.7694 137.375 42.673 136.694C43.5766 136.012 44.7062 135.114 46.0616 134L46.5742 134.142C46.858 134.291 47 134.51 47 134.798C47 135.187 46.9564 135.759 46.8695 136.515C46.7885 137.266 46.0964 138.298 44.7932 139.612C43.8316 140.582 42.954 141.336 42.1605 141.873C41.3727 142.405 40.469 142.828 39.4496 143.142C38.4302 143.46 37.1994 143.704 35.7571 143.873C34.3148 144.042 32.4902 144.248 30.2834 144.492C26.7211 144.298 24.2045 143.958 22.7332 143.47C20.4163 142.744 18.522 142.221 17.0508 141.903C15.5796 141.589 14.4182 141.433 13.5667 141.433C12.4952 141.433 11.2934 141.749 9.96122 142.38C8.63479 143.012 7.15175 143.886 5.51253 145Z" fill="#FFCA3A"/>
<path d="M12.2898 205H12.1597C12.034 204.884 11.9386 204.58 11.8735 204.09C11.8128 203.6 11.75 203.09 11.6849 202.56C11.6242 202.03 11.5721 201.55 11.5287 201.12C11.4854 200.686 11.4421 200.432 11.3987 200.355C11.0605 199.805 10.4468 198.952 9.55786 197.795C8.66893 196.638 7.48299 195.295 6 193.765C6.08672 193.765 6.49003 192.666 7.20984 190.47C7.29223 190.04 7.5872 189.55 8.09454 189C8.51949 189.353 9.35629 189.921 10.6051 190.705C11.854 191.488 13.1982 192.283 14.6378 193.09C16.0774 193.894 17.4325 194.598 18.703 195.205C19.9735 195.815 20.8624 196.121 21.3698 196.121C25.2247 196.121 27.2368 196.08 27.4059 196C29.4396 195.687 31.0592 195.432 32.2647 195.235C33.4745 195.038 34.2484 194.901 34.5867 194.825C35.8962 194.548 36.9976 194.263 37.8908 193.97C38.7798 193.677 39.5733 193.323 40.2714 192.91C40.9695 192.5 41.6243 192.01 42.2357 191.44C42.8515 190.873 43.5409 190.139 44.3041 189.235H44.8765C44.9589 189.472 45 189.629 45 189.705C45 190.018 44.9263 190.42 44.7789 190.91C44.6314 191.4 44.3995 191.94 44.0829 192.53C43.7621 193.116 43.3263 193.743 42.7756 194.41C42.2293 195.076 41.5745 195.725 40.8113 196.355C36.7439 199.689 30.2851 201.355 21.4349 201.355C20.9709 201.355 20.5263 201.325 20.1014 201.265C19.6764 201.205 19.2212 201.127 18.7355 201.03C18.2499 200.934 17.6883 200.825 17.0509 200.705C16.4178 200.588 15.6785 200.472 14.8329 200.355C14.7462 200.355 14.5857 200.59 14.3515 201.06C14.1217 201.53 13.8682 202.06 13.5907 202.651C13.3175 203.237 13.053 203.775 12.7971 204.265C12.5456 204.755 12.3765 205 12.2898 205Z" fill="#FFCA3A"/>
<path d="M93.051 381.804V383.082H91.161V393H89.775V383.082H87.903V381.804H89.559C89.367 381.576 89.169 381.336 88.965 381.084C88.773 380.832 88.599 380.58 88.443 380.328C88.851 379.62 89.289 378.978 89.757 378.402C90.225 377.814 90.777 377.352 91.413 377.016C92.049 376.668 92.817 376.494 93.717 376.494C94.353 376.494 94.959 376.572 95.535 376.728C96.123 376.884 96.699 377.112 97.263 377.412C97.827 377.7 98.397 378.054 98.973 378.474C99.549 378.882 100.149 379.338 100.773 379.842L100.017 380.814C99.189 380.142 98.439 379.584 97.767 379.14C97.107 378.696 96.471 378.366 95.859 378.15C95.259 377.922 94.617 377.808 93.933 377.808C93.273 377.808 92.697 377.922 92.205 378.15C91.725 378.378 91.305 378.696 90.945 379.104C90.597 379.512 90.279 379.986 89.991 380.526C90.087 380.706 90.219 380.904 90.387 381.12C90.555 381.336 90.747 381.564 90.963 381.804H93.051ZM103.772 381.804V383.082H101.882V393H100.496C100.136 392.28 99.6383 391.62 99.0023 391.02C98.3783 390.408 97.6583 389.892 96.8423 389.472C96.0263 389.052 95.1563 388.77 94.2323 388.626L93.5303 386.898C94.6823 386.202 95.8703 385.572 97.0943 385.008C98.3303 384.444 99.6023 383.964 100.91 383.568L100.496 384.324V383.082H92.6843V381.804H103.772ZM100.496 384.468L100.874 384.972C99.9623 385.272 99.0023 385.644 97.9943 386.088C96.9863 386.52 96.0563 387 95.2043 387.528C95.8523 387.672 96.5423 387.918 97.2743 388.266C98.0063 388.614 98.6843 389.052 99.3083 389.58C99.9323 390.108 100.412 390.72 100.748 391.416H100.586C100.562 391.14 100.538 390.864 100.514 390.588C100.502 390.312 100.496 389.982 100.496 389.598V384.468Z" fill="#F5F9FA"/>
<path d="M114.963 381.804V383.082H113.073V393H111.687V390.57L112.011 391.524C111.591 390.888 111.165 390.3 110.733 389.76C110.313 389.22 109.863 388.782 109.383 388.446C108.915 388.11 108.399 387.942 107.835 387.942C107.391 387.942 107.013 388.056 106.701 388.284C106.401 388.512 106.251 388.854 106.251 389.31C106.251 389.706 106.395 390.042 106.683 390.318C106.971 390.582 107.397 390.81 107.961 391.002L107.511 392.388C106.863 392.16 106.335 391.884 105.927 391.56C105.531 391.236 105.237 390.882 105.045 390.498C104.865 390.102 104.775 389.688 104.775 389.256C104.775 388.68 104.913 388.2 105.189 387.816C105.477 387.432 105.837 387.144 106.269 386.952C106.713 386.748 107.157 386.646 107.601 386.646C108.321 386.646 108.951 386.778 109.491 387.042C110.043 387.306 110.523 387.66 110.931 388.104C111.351 388.548 111.729 389.046 112.065 389.598L111.759 389.652C111.735 389.376 111.717 389.1 111.705 388.824C111.693 388.536 111.687 388.242 111.687 387.942V383.082H103.407V381.804H114.963ZM108.969 387.186C108.969 387.258 108.963 387.33 108.951 387.402C108.951 387.474 108.945 387.546 108.933 387.618L107.565 387.204C107.541 386.508 107.421 385.95 107.205 385.53C106.989 385.11 106.647 384.792 106.179 384.576C105.711 384.348 105.075 384.192 104.271 384.108L104.505 382.812L105.333 383.046C105.909 383.094 106.419 383.214 106.863 383.406C107.319 383.586 107.703 383.844 108.015 384.18C108.327 384.516 108.561 384.936 108.717 385.44C108.885 385.932 108.969 386.514 108.969 387.186ZM119.752 381.804V383.082H117.862V393H116.476V384.558C116.332 384.15 116.116 383.802 115.828 383.514C115.552 383.226 115.192 383.082 114.748 383.082H114.604V381.804H114.874C115.162 381.804 115.462 381.9 115.774 382.092C116.086 382.272 116.338 382.554 116.53 382.938C116.518 382.878 116.506 382.74 116.494 382.524C116.482 382.308 116.476 382.122 116.476 381.966V380.616H117.448L117.844 381.804H119.752ZM124.918 386.689V388.377H120.269V386.689H124.918ZM131.035 386.689V388.377H126.386V386.689H131.035ZM137.152 386.689V388.377H132.503V386.689H137.152Z" fill="#FFCA3A"/>
<path d="M268.106 381.804C268.094 381.312 267.974 380.958 267.746 380.742C267.53 380.526 267.17 380.418 266.666 380.418H264.146C263.366 380.418 262.76 380.364 262.328 380.256C261.908 380.148 261.548 379.98 261.248 379.752C260.924 379.512 260.678 379.206 260.51 378.834C260.354 378.45 260.276 378.018 260.276 377.538C260.276 377.382 260.282 377.226 260.294 377.07C260.318 376.914 260.342 376.752 260.366 376.584L261.698 376.674C261.674 376.818 261.656 376.944 261.644 377.052C261.632 377.16 261.626 377.262 261.626 377.358C261.626 377.622 261.65 377.856 261.698 378.06C261.758 378.264 261.848 378.432 261.968 378.564C262.136 378.756 262.376 378.9 262.688 378.996C263 379.08 263.456 379.122 264.056 379.122H266.288C266.924 379.122 267.428 379.17 267.8 379.266C268.172 379.362 268.49 379.536 268.754 379.788C268.958 379.98 269.114 380.244 269.222 380.58C269.33 380.904 269.39 381.312 269.402 381.804H268.106ZM271.958 381.804V383.082H265.37V386.304C265.37 386.652 265.424 386.91 265.532 387.078C265.64 387.234 265.808 387.312 266.036 387.312C266.264 387.312 266.498 387.24 266.738 387.096C266.99 386.952 267.26 386.724 267.548 386.412C267.836 386.1 268.148 385.698 268.484 385.206L269.564 385.044C269.948 385.608 270.242 386.19 270.446 386.79C270.662 387.39 270.77 387.99 270.77 388.59C270.77 389.346 270.602 390.024 270.266 390.624C269.942 391.224 269.456 391.698 268.808 392.046C268.172 392.394 267.392 392.568 266.468 392.568C265.676 392.568 264.938 392.43 264.254 392.154C263.57 391.878 262.94 391.434 262.364 390.822C261.788 390.198 261.26 389.382 260.78 388.374C260.3 387.354 259.868 386.106 259.484 384.63L260.852 384.27C261.284 385.938 261.758 387.282 262.274 388.302C262.802 389.31 263.402 390.048 264.074 390.516C264.746 390.972 265.52 391.2 266.396 391.2C267.356 391.2 268.094 390.96 268.61 390.48C269.138 390 269.402 389.382 269.402 388.626C269.402 388.086 269.324 387.624 269.168 387.24C269.024 386.856 268.832 386.538 268.592 386.286L269.42 385.944C269.06 386.556 268.688 387.06 268.304 387.456C267.932 387.852 267.554 388.152 267.17 388.356C266.798 388.548 266.426 388.644 266.054 388.644C265.778 388.644 265.52 388.608 265.28 388.536C265.04 388.452 264.836 388.332 264.668 388.176C264.476 388.008 264.314 387.774 264.182 387.474C264.05 387.162 263.984 386.646 263.984 385.926V383.082H258.782V381.804H271.958ZM320.636 381.804C320.624 381.312 320.504 380.958 320.276 380.742C320.06 380.526 319.7 380.418 319.196 380.418H317.9C317.108 380.418 316.496 380.364 316.064 380.256C315.644 380.148 315.284 379.98 314.984 379.752C314.66 379.512 314.414 379.206 314.246 378.834C314.09 378.45 314.012 378.018 314.012 377.538C314.012 377.382 314.024 377.226 314.048 377.07C314.06 376.914 314.078 376.752 314.102 376.584L315.434 376.674C315.41 376.818 315.392 376.944 315.38 377.052C315.368 377.16 315.362 377.262 315.362 377.358C315.362 377.622 315.386 377.856 315.434 378.06C315.494 378.264 315.584 378.432 315.704 378.564C315.872 378.756 316.112 378.9 316.424 378.996C316.748 379.08 317.204 379.122 317.792 379.122H318.818C319.454 379.122 319.958 379.17 320.33 379.266C320.702 379.362 321.02 379.536 321.284 379.788C321.488 379.98 321.644 380.244 321.752 380.58C321.86 380.904 321.92 381.312 321.932 381.804H320.636ZM318.548 384C319.496 384 320.258 384.162 320.834 384.486C321.422 384.798 321.854 385.2 322.13 385.692C322.406 386.172 322.544 386.658 322.544 387.15C322.544 388.134 322.196 388.914 321.5 389.49C320.816 390.066 319.796 390.39 318.44 390.462L318.62 390.264C319.16 390.42 319.73 390.642 320.33 390.93C320.93 391.218 321.536 391.554 322.148 391.938C322.76 392.31 323.348 392.724 323.912 393.18L323.084 394.134C322.34 393.582 321.656 393.108 321.032 392.712C320.42 392.304 319.814 391.95 319.214 391.65C318.614 391.35 317.978 391.086 317.306 390.858C316.634 390.63 315.872 390.42 315.02 390.228L315.29 388.986C315.71 389.106 316.112 389.196 316.496 389.256C316.892 389.304 317.366 389.328 317.918 389.328C318.77 389.328 319.424 389.226 319.88 389.022C320.348 388.818 320.672 388.554 320.852 388.23C321.032 387.906 321.122 387.576 321.122 387.24C321.122 386.604 320.888 386.118 320.42 385.782C319.952 385.434 319.358 385.26 318.638 385.26C318.206 385.26 317.858 385.302 317.594 385.386C317.33 385.47 317.138 385.596 317.018 385.764C316.91 385.92 316.856 386.112 316.856 386.34C316.856 386.436 316.868 386.538 316.892 386.646C316.916 386.742 316.94 386.832 316.964 386.916L315.65 387.186C315.59 387.006 315.542 386.82 315.506 386.628C315.47 386.424 315.452 386.244 315.452 386.088C315.452 385.644 315.584 385.266 315.848 384.954C316.112 384.642 316.472 384.408 316.928 384.252C317.396 384.084 317.936 384 318.548 384ZM317.342 384.63C317.282 384.246 317.102 383.91 316.802 383.622C316.502 383.322 316.07 383.112 315.506 382.992L315.938 382.182L316.766 382.398C317.438 382.662 317.924 382.962 318.224 383.298C318.536 383.634 318.716 384.06 318.764 384.576L317.342 384.63ZM323.912 381.804V383.082H314.012V381.804H323.912ZM338.443 381.804V383.082H332.593V384.198V384.486V393H331.207C330.859 392.292 330.373 391.626 329.749 391.002C329.125 390.378 328.411 389.856 327.607 389.436C326.815 389.004 325.981 388.734 325.105 388.626L324.403 386.898C325.567 386.226 326.731 385.626 327.895 385.098C329.059 384.57 330.295 384.102 331.603 383.694L331.207 384.45V383.082H323.557V381.804H338.443ZM331.207 384.594L331.585 385.116C330.973 385.284 330.337 385.506 329.677 385.782C329.029 386.058 328.393 386.346 327.769 386.646C327.157 386.946 326.593 387.24 326.077 387.528C326.749 387.66 327.439 387.912 328.147 388.284C328.867 388.656 329.521 389.112 330.109 389.652C330.709 390.18 331.153 390.756 331.441 391.38L331.297 391.416C331.273 391.14 331.249 390.864 331.225 390.588C331.213 390.312 331.207 389.982 331.207 389.598V384.594ZM337.435 387.816C337.435 388.212 337.357 388.59 337.201 388.95C337.045 389.298 336.787 389.586 336.427 389.814C336.067 390.042 335.587 390.156 334.987 390.156C334.795 390.156 334.609 390.15 334.429 390.138C334.261 390.126 334.093 390.102 333.925 390.066L334.033 388.77C334.105 388.782 334.189 388.794 334.285 388.806C334.393 388.806 334.513 388.806 334.645 388.806C335.221 388.806 335.593 388.698 335.761 388.482C335.941 388.254 336.031 387.984 336.031 387.672C336.031 387.036 335.719 386.496 335.095 386.052C334.483 385.596 333.571 385.284 332.359 385.116L332.413 383.766C333.337 383.862 334.177 384.096 334.933 384.468C335.689 384.828 336.295 385.296 336.751 385.872C337.207 386.436 337.435 387.084 337.435 387.816ZM343.225 381.804V383.082H341.335V393H339.949V384.558C339.805 384.15 339.589 383.802 339.301 383.514C339.025 383.226 338.665 383.082 338.221 383.082H338.077V381.804H338.347C338.635 381.804 338.935 381.9 339.247 382.092C339.559 382.272 339.811 382.554 340.003 382.938C339.991 382.878 339.979 382.74 339.967 382.524C339.955 382.308 339.949 382.122 339.949 381.966V380.616H340.921L341.317 381.804H343.225Z" fill="#F5F9FA"/>
<path d="M285.114 381.804V383.082H283.224V393H281.838V386.97L281.946 387.438C281.682 387.054 281.4 386.748 281.1 386.52C280.812 386.292 280.494 386.178 280.146 386.178C279.966 386.178 279.78 386.214 279.588 386.286C279.408 386.346 279.252 386.466 279.12 386.646C279 386.826 278.94 387.102 278.94 387.474C278.94 387.606 278.94 387.726 278.94 387.834C278.952 387.93 278.964 388.026 278.976 388.122L277.806 388.212C277.758 387.72 277.626 387.306 277.41 386.97C277.194 386.622 276.93 386.358 276.618 386.178C276.306 385.998 275.97 385.908 275.61 385.908C275.286 385.908 275.01 385.974 274.782 386.106C274.554 386.226 274.38 386.394 274.26 386.61C274.14 386.814 274.08 387.048 274.08 387.312C274.08 387.792 274.254 388.2 274.602 388.536C274.962 388.872 275.466 389.154 276.114 389.382L275.628 390.714C275.052 390.534 274.536 390.288 274.08 389.976C273.624 389.664 273.264 389.28 273 388.824C272.736 388.368 272.604 387.84 272.604 387.24C272.604 386.7 272.736 386.238 273 385.854C273.264 385.458 273.618 385.152 274.062 384.936C274.506 384.72 274.992 384.612 275.52 384.612C276.156 384.612 276.702 384.732 277.158 384.972C277.614 385.2 278.034 385.572 278.418 386.088L278.148 386.106C278.268 385.71 278.496 385.41 278.832 385.206C279.18 384.99 279.54 384.882 279.912 384.882C280.344 384.882 280.716 384.966 281.028 385.134C281.34 385.302 281.682 385.542 282.054 385.854L281.892 386.124C281.88 385.872 281.868 385.62 281.856 385.368C281.844 385.116 281.838 384.858 281.838 384.594V383.082H271.596V381.804H285.114ZM289.91 381.804V383.082H288.02V393H286.634V384.558C286.49 384.15 286.274 383.802 285.986 383.514C285.71 383.226 285.35 383.082 284.906 383.082H284.762V381.804H285.032C285.32 381.804 285.62 381.9 285.932 382.092C286.244 382.272 286.496 382.554 286.688 382.938C286.676 382.878 286.664 382.74 286.652 382.524C286.64 382.308 286.634 382.122 286.634 381.966V380.616H287.606L288.002 381.804H289.91ZM295.076 386.689V388.377H290.427V386.689H295.076ZM301.193 386.689V388.377H296.544V386.689H301.193ZM307.311 386.689V388.377H302.661V386.689H307.311ZM313.428 386.689V388.377H308.778V386.689H313.428Z" fill="#FFCA3A"/>
<path d="M83.2672 277.692L83.0453 277.632C83.0151 277.632 83 277.611 83 277.568C83 277.197 83.2144 276.788 83.6432 276.343C84.069 275.897 84.5764 275.482 85.1653 275.098C85.7572 274.714 86.3778 274.392 87.0271 274.133C87.6733 273.874 88.2033 273.745 88.617 273.745C88.8254 273.745 89.1803 273.786 89.6816 273.869C90.1829 273.952 90.802 274.056 91.5388 274.181C92.2757 274.306 93.0865 274.452 93.9713 274.617C94.8562 274.783 95.7847 274.938 96.7571 275.082C97.0531 275.124 97.3476 275.155 97.6405 275.174C97.9365 275.195 98.2325 275.206 98.5284 275.206C99.1475 275.206 99.67 275.18 100.096 275.13C100.525 275.076 100.938 274.973 101.337 274.818C101.736 274.663 102.17 274.44 102.641 274.149C103.113 273.858 103.702 273.475 104.408 273L104.675 273.06C104.823 273.124 104.897 273.218 104.897 273.341C104.897 273.506 104.875 273.75 104.829 274.073C104.787 274.393 104.426 274.833 103.747 275.394C103.246 275.808 102.788 276.129 102.374 276.358C101.964 276.586 101.492 276.766 100.961 276.9C100.429 277.035 99.7877 277.139 99.0358 277.212C98.2838 277.284 97.3325 277.372 96.1819 277.476C94.3247 277.393 93.0126 277.248 92.2455 277.04C91.0376 276.73 90.05 276.507 89.2829 276.371C88.5158 276.237 87.9103 276.171 87.4664 276.171C86.9077 276.171 86.2812 276.305 85.5866 276.575C84.8951 276.844 84.1219 277.217 83.2672 277.692Z" fill="#FFCA3A"/>
<path d="M127.776 322.845L128.346 322.881C128.538 322.903 128.736 322.914 128.938 322.914C129.14 322.914 129.336 322.914 129.526 322.914C133.209 322.914 136.917 322.002 140.651 320.176C140.673 320.13 140.684 320.036 140.684 319.892C140.684 319.679 140.602 319.288 140.436 318.72C140.271 318.152 140.092 317.542 139.899 316.889C139.709 316.238 139.532 315.593 139.366 314.952C139.201 314.311 139.118 313.813 139.118 313.459C139.118 313.007 139.224 312.344 139.436 311.467C139.65 310.589 140.066 309.368 140.684 307.805L140.969 307.841C141.042 308.077 141.138 308.361 141.258 308.693C141.352 308.977 141.477 309.339 141.63 309.778C141.786 310.217 141.959 310.721 142.149 311.289C142.623 312.687 142.861 314.228 142.861 315.913C142.861 316.908 142.772 317.957 142.594 319.059C142.416 320.161 142.124 321.316 141.718 322.525C140.079 327.525 135.931 330.025 129.274 330.025C129.013 330.025 128.764 330.025 128.525 330.025C128.289 330.025 128.039 330.014 127.776 329.992C127.277 329.589 126.904 329.026 126.655 328.303C126.405 327.579 126.279 326.838 126.279 326.078C126.279 325.369 126.399 324.711 126.637 324.105C126.873 323.5 127.253 323.08 127.776 322.845ZM134.586 343.43L129.347 338.169L134.586 332.941L139.866 338.169L134.586 343.43ZM144 344.555C143.883 344.791 143.64 345.323 143.27 346.154C142.902 346.984 142.409 348.122 141.791 349.569C138.439 351.772 133.767 354.403 127.776 357.462C127.896 357.081 128.133 356.476 128.489 355.649C128.846 354.819 129.299 353.74 129.847 352.412C132.008 351.203 134.266 349.953 136.62 348.662C138.974 347.368 141.434 345.999 144 344.555ZM125.053 330.203C124.933 330.203 124.814 330.209 124.695 330.221C124.578 330.233 124.46 330.239 124.34 330.239C124.007 330.239 123.692 330.227 123.395 330.203C123.098 330.181 122.807 330.146 122.522 330.097C122.449 330.168 122.152 331.163 121.631 333.083C121.298 334.34 120.453 334.969 119.097 334.969C117.505 334.969 116.578 334.34 116.315 333.083C116.339 332.704 116.357 332.326 116.369 331.947C116.382 331.568 116.388 331.178 116.388 330.775C116.388 330.229 116.376 329.671 116.351 329.103C116.327 328.533 116.292 327.94 116.245 327.323C116.055 327.183 115.853 327.112 115.639 327.112C113.998 327.799 112.691 328.338 111.717 328.729C110.741 329.119 109.962 329.416 109.381 329.617C108.799 329.818 108.335 329.943 107.989 329.992C107.646 330.038 107.296 330.061 106.938 330.061C106.748 330.061 106.57 330.061 106.405 330.061C106.237 330.061 106.058 330.038 105.868 329.992C105.534 329.803 105.213 329.34 104.904 328.605C104.597 327.869 104.444 327.064 104.444 326.187C104.444 325.571 104.55 324.96 104.761 324.356C104.976 323.752 105.345 323.248 105.868 322.845H106.189C107.686 322.845 109.226 322.65 110.808 322.259C112.388 321.868 113.772 321.364 114.96 320.748L115.175 320.533C115.319 320.438 115.443 320.208 115.548 319.841C115.655 319.473 115.751 319.063 115.836 318.614C115.919 318.163 115.99 317.736 116.048 317.333C116.109 316.93 116.175 316.646 116.245 316.481L116.53 316.339C117.173 318.378 117.767 319.61 118.312 320.034C119.003 320.818 120.263 321.554 122.091 322.241C123.401 322.525 124.376 322.685 125.016 322.721C125.659 322.755 126.17 322.796 126.55 322.845C126.883 323.01 127.169 323.46 127.408 324.196C127.644 324.931 127.762 325.725 127.762 326.577C127.762 327.242 127.673 327.883 127.495 328.499C127.318 329.113 127.002 329.611 126.55 329.992C126.335 330.038 125.836 330.108 125.053 330.203ZM122.164 291.49C122.045 291.728 121.802 292.262 121.434 293.092C121.064 293.922 120.571 295.06 119.955 296.504C116.603 298.71 111.932 301.341 105.941 304.397C106.058 304.019 106.295 303.414 106.653 302.584C107.008 301.756 107.46 300.678 108.008 299.351C110.172 298.142 112.431 296.891 114.785 295.597C117.136 294.306 119.596 292.937 122.164 291.49ZM103.622 329.992C99.9368 329.943 97.1252 328.266 95.1875 324.96C93.2498 321.654 92.0557 316.707 91.6054 310.117C91.5567 309.333 91.4849 307.946 91.39 305.955C91.295 303.965 91.1769 301.346 91.0357 298.098C90.987 296.89 90.9396 295.254 90.8933 293.191C90.8446 291.13 90.8203 288.594 90.8203 285.581C90.8203 285.346 90.8556 285.044 90.9262 284.675C90.9992 284.308 91.0942 283.959 91.211 283.626C91.3303 283.296 91.4739 283.006 91.6419 282.756C91.8074 282.509 91.9973 282.385 92.2116 282.385C92.5913 282.385 92.853 283.45 92.9966 285.581L94.1723 303.716C94.3865 307.059 94.6653 309.79 95.0085 311.912C95.3542 314.033 95.7705 315.733 96.2573 317.012C96.7442 318.294 97.3028 319.272 97.9333 319.947C98.5638 320.622 99.26 321.197 100.022 321.673C100.616 322.051 101.276 322.347 102.001 322.561C102.724 322.775 103.502 322.881 104.334 322.881C104.429 322.881 104.518 322.875 104.601 322.863C104.686 322.851 104.776 322.845 104.871 322.845C105.701 322.964 106.295 323.313 106.653 323.894C107.008 324.474 107.186 325.131 107.186 325.867C107.186 326.34 107.121 326.826 106.992 327.323C106.861 327.821 106.676 328.271 106.438 328.674C106.201 329.077 105.917 329.403 105.583 329.653C105.25 329.901 104.893 330.025 104.513 330.025C104.394 330.025 104.264 330.025 104.123 330.025C103.979 330.025 103.812 330.014 103.622 329.992Z" fill="#F5F9FA"/>
<path d="M305.51 285.073H305.444C305.381 285.007 305.333 284.835 305.3 284.558C305.27 284.281 305.238 283.992 305.205 283.692C305.175 283.392 305.149 283.12 305.127 282.877C305.105 282.632 305.083 282.487 305.061 282.444C304.891 282.133 304.583 281.65 304.135 280.995C303.688 280.341 303.092 279.581 302.346 278.715C302.389 278.715 302.592 278.093 302.954 276.85C302.996 276.607 303.144 276.329 303.399 276.018C303.613 276.218 304.034 276.54 304.662 276.983C305.29 277.426 305.967 277.876 306.691 278.333C307.415 278.787 308.097 279.186 308.736 279.529C309.375 279.875 309.822 280.048 310.077 280.048C312.016 280.048 313.028 280.025 313.114 279.979C314.137 279.802 314.951 279.658 315.558 279.546C316.166 279.435 316.556 279.358 316.726 279.315C317.384 279.158 317.938 278.997 318.388 278.831C318.835 278.665 319.234 278.465 319.585 278.231C319.936 277.999 320.266 277.721 320.573 277.399C320.883 277.078 321.23 276.662 321.614 276.151H321.902C321.943 276.285 321.964 276.374 321.964 276.417C321.964 276.594 321.927 276.822 321.853 277.099C321.778 277.376 321.662 277.682 321.503 278.016C321.341 278.348 321.122 278.702 320.845 279.079C320.57 279.457 320.241 279.824 319.857 280.181C317.811 282.067 314.562 283.01 310.11 283.01C309.877 283.01 309.653 282.993 309.439 282.959C309.225 282.925 308.996 282.881 308.752 282.826C308.508 282.771 308.225 282.71 307.905 282.642C307.586 282.576 307.214 282.51 306.789 282.444C306.745 282.444 306.665 282.577 306.547 282.843C306.431 283.109 306.304 283.409 306.164 283.743C306.027 284.075 305.894 284.379 305.765 284.657C305.638 284.934 305.553 285.073 305.51 285.073Z" fill="#FFCA3A"/>
<path d="M353.198 296.949C352.949 297.733 352.37 298.259 351.46 298.527C351.46 298.997 351.495 299.613 351.565 300.373C351.632 301.134 351.717 301.968 351.819 302.876C351.922 303.781 352.035 304.721 352.158 305.695C352.284 306.669 352.403 307.597 352.517 308.479C352.631 309.364 352.728 310.165 352.807 310.882C352.886 311.597 352.926 312.156 352.926 312.56V313.666C352.926 314.675 352.909 315.715 352.877 316.788C352.842 317.863 352.767 318.993 352.653 320.181C352.244 322.417 351.824 324.112 351.394 325.265C350.961 326.417 350.518 326.994 350.064 326.994C349.997 326.994 349.952 326.961 349.928 326.894C350.063 326.065 350.131 325.024 350.131 323.773C350.131 319.609 349.933 315.485 349.538 311.401C349.14 307.317 348.565 303.205 347.814 299.064C347.723 298.64 347.678 298.08 347.678 297.386C347.678 296.602 347.723 295.803 347.814 294.987C347.905 294.169 348.019 293.429 348.156 292.769C348.293 292.109 348.453 291.566 348.634 291.14C348.815 290.716 348.997 290.504 349.178 290.504C349.564 290.504 349.927 291.232 350.267 292.687C351.176 294.633 352.153 296.053 353.198 296.949ZM356.673 277.063C356.673 278.337 356.321 279.59 355.619 280.82C354.914 282.053 353.857 283.296 352.448 284.547C351.154 285.69 349.86 286.614 348.564 287.317C347.271 288.023 345.943 288.499 344.58 288.744C344.419 288.744 344.339 288.678 344.339 288.545C344.339 288.029 344.572 287.536 345.037 287.066C345.504 286.597 346.089 286.149 346.792 285.722C347.634 285.209 348.344 284.728 348.924 284.279C349.503 283.832 349.974 283.418 350.337 283.038L350.267 282.701C349.199 281.516 348.665 280.14 348.665 278.572C348.665 277.947 348.779 277.304 349.007 276.644C349.235 275.984 349.554 275.384 349.963 274.846C350.37 274.31 350.847 273.867 351.394 273.519C351.938 273.173 352.539 273 353.198 273C355.514 273 356.673 274.354 356.673 277.063ZM354.663 279.48C354.891 279.166 355.005 278.819 355.005 278.438C355.005 278.104 354.92 277.801 354.75 277.531C354.578 277.263 354.362 277.033 354.101 276.843C353.841 276.653 353.545 276.507 353.215 276.407C352.887 276.306 352.552 276.255 352.21 276.255C350.915 276.255 350.267 276.737 350.267 277.699C350.267 278.036 350.347 278.344 350.508 278.624C350.666 278.903 350.875 279.144 351.136 279.346C351.398 279.547 351.694 279.709 352.022 279.83C352.352 279.954 352.677 280.016 352.995 280.016C353.586 280.016 354.142 279.837 354.663 279.48ZM340.815 316.891C340.815 321.254 339.499 325.002 336.866 328.135C336.614 328.449 336.16 328.746 335.501 329.025C334.843 329.305 334.053 329.546 333.132 329.747C332.214 329.949 331.191 330.116 330.066 330.249C328.942 330.384 327.801 330.452 326.643 330.452C326.303 330.452 326.031 330.446 325.826 330.435C325.622 330.423 325.405 330.406 325.177 330.383C324.949 330.363 324.671 330.335 324.344 330.301C324.013 330.267 323.553 330.239 322.962 330.218L322.896 329.916C323.168 329.513 326.052 328.147 331.548 325.818C336.5 323.737 339.102 321.903 339.353 320.315C339.307 320.225 339.256 320.119 339.2 319.995C339.142 319.871 339.079 319.732 339.011 319.576L338.467 319.342C337.171 319.855 336.047 320.112 335.093 320.112C332.595 320.112 331.346 318.534 331.346 315.378C331.346 314.819 331.402 314.192 331.513 313.498C331.627 312.806 331.775 312.14 331.957 311.501C332.14 310.864 332.345 310.299 332.571 309.806C332.799 309.313 333.037 308.989 333.286 308.833C333.651 308.609 334.208 308.496 334.957 308.496C335.911 308.496 336.756 308.737 337.494 309.218C338.233 309.7 338.847 310.338 339.336 311.133C339.824 311.928 340.193 312.829 340.442 313.835C340.691 314.841 340.815 315.86 340.815 316.891ZM312.394 319.878C313.347 319.72 314.244 319.468 315.084 319.122C315.926 318.776 316.664 318.362 317.299 317.881C317.937 317.4 318.437 316.851 318.8 316.234C319.162 315.62 319.344 314.954 319.344 314.237C319.344 313.32 319.225 312.196 318.988 310.865C318.748 309.533 318.436 308.028 318.049 306.348C317.345 303.149 316.992 300.497 316.992 298.393C316.992 298.146 317.021 297.721 317.079 297.118C317.135 296.513 317.22 295.898 317.334 295.272C317.448 294.644 317.59 294.089 317.76 293.608C317.93 293.127 318.117 292.886 318.322 292.886C318.368 292.886 318.527 293.1 318.8 293.526C319.072 293.95 319.367 294.453 319.686 295.035C320.004 295.617 320.288 296.205 320.537 296.798C320.786 297.392 320.91 297.856 320.91 298.191C320.91 298.369 320.859 298.633 320.757 298.981C320.657 299.327 320.544 299.685 320.418 300.054C320.293 300.423 320.179 300.758 320.076 301.061C319.974 301.363 319.923 301.548 319.923 301.614C320.037 302.196 320.179 303.002 320.349 304.031C320.521 305.062 320.731 306.316 320.98 307.792C321.524 312.201 321.797 314.439 321.797 314.505C321.797 315.536 321.718 316.488 321.559 317.358C321.401 318.232 321.185 319.027 320.91 319.744C320.638 320.459 320.332 321.096 319.993 321.655C319.651 322.217 319.298 322.676 318.936 323.034C318.345 323.637 317.742 324.151 317.128 324.577C316.517 325.003 315.921 325.361 315.342 325.65C314.763 325.941 314.217 326.165 313.706 326.323C313.194 326.479 312.757 326.58 312.394 326.626C311.894 326.379 311.496 325.942 311.2 325.316C310.905 324.688 310.757 324.017 310.757 323.302C310.757 322.697 310.883 322.087 311.134 321.473C311.383 320.857 311.803 320.325 312.394 319.878ZM312.722 294.272C312.745 294.517 312.757 294.758 312.757 294.994C312.757 295.227 312.757 295.456 312.757 295.681C312.757 296.174 312.739 296.61 312.704 296.991C312.669 297.371 312.601 297.757 312.498 298.149C312.396 298.539 312.254 298.964 312.073 299.425C311.891 299.883 311.653 300.448 311.357 301.119C310.948 302.082 310.562 302.563 310.199 302.563C310.108 302.563 310.046 302.513 310.011 302.412C309.978 302.311 309.962 302.104 309.962 301.79C309.962 301.654 309.962 301.52 309.962 301.387C309.962 301.252 309.973 301.084 309.997 300.882C310.018 300.683 310.046 300.437 310.081 300.146C310.115 299.855 310.155 299.475 310.199 299.005V298.465C310.199 296.742 309.768 294.683 308.905 292.288C309.723 289.513 310.303 287.779 310.642 287.087C311.028 287.11 311.381 287.871 311.699 289.37C312.244 290.465 312.584 292.099 312.722 294.272ZM303.713 324.88L303.2 324.646C301.293 323.615 300.158 322.663 299.795 321.789C298.523 322.731 297.108 323.577 295.552 324.326C293.996 325.076 292.401 325.719 290.765 326.255C290.628 326.301 290.366 326.362 289.98 326.44C289.594 326.518 288.913 326.58 287.936 326.626C287.801 326.603 287.659 326.469 287.51 326.224C287.364 325.976 287.233 325.674 287.119 325.316C287.005 324.959 286.909 324.561 286.83 324.124C286.751 323.688 286.711 323.246 286.711 322.797C286.711 322.171 286.802 321.59 286.983 321.054C287.165 320.515 287.482 320.123 287.936 319.878C293.434 319.541 296.967 318.276 298.532 316.083C299.714 314.428 300.361 313.601 300.475 313.601C300.613 313.913 300.715 314.461 300.782 315.244C301.122 315.849 301.571 316.392 302.129 316.874C302.685 317.355 303.406 317.786 304.292 318.166C305.178 318.547 306.268 318.877 307.561 319.156C308.857 319.436 310.413 319.676 312.23 319.878C312.548 320.011 312.804 320.413 312.997 321.085C313.19 321.756 313.287 322.484 313.287 323.268C313.287 323.985 313.202 324.662 313.032 325.299C312.86 325.936 312.593 326.379 312.23 326.626C311.253 326.626 310.026 326.508 308.549 326.272C307.074 326.038 305.462 325.574 303.713 324.88ZM290.765 344.886H290.629C290.583 344.843 290.56 344.776 290.56 344.687C290.56 344.373 290.833 343.824 291.379 343.041L293.968 340.287C293.968 340.512 293.923 340.624 293.832 340.624C293.695 340.624 293.502 340.416 293.253 340.002C293.002 339.589 292.758 339.131 292.52 338.627C292.281 338.122 292.076 337.658 291.906 337.234C291.736 336.808 291.652 336.573 291.652 336.53C291.652 336.239 291.719 335.835 291.854 335.32C291.991 334.804 292.224 334.295 292.552 333.793C292.882 333.289 293.303 332.847 293.815 332.467C294.326 332.086 294.957 331.896 295.706 331.896C296.001 331.896 296.358 331.952 296.777 332.064C297.198 332.177 297.607 332.328 298.005 332.518C298.403 332.708 298.744 332.92 299.027 333.154C299.311 333.39 299.453 333.631 299.453 333.876C299.453 334.011 299.328 334.085 299.08 334.096C298.828 334.105 298.612 334.11 298.431 334.11C298.293 334.11 298.095 334.105 297.834 334.096C297.574 334.085 297.296 334.067 297 334.044C296.705 334.021 296.421 334.004 296.149 333.993C295.877 333.981 295.684 333.976 295.57 333.976C295.365 333.976 295.121 333.987 294.837 334.01C294.553 334.033 294.286 334.078 294.035 334.144C293.786 334.21 293.571 334.294 293.389 334.395C293.208 334.496 293.117 334.625 293.117 334.783C293.117 335.118 293.241 335.487 293.49 335.89C293.739 336.294 294.046 336.668 294.411 337.014C294.774 337.363 295.155 337.654 295.552 337.888C295.95 338.124 296.297 338.242 296.592 338.242C297.522 338.242 299.317 337.615 301.976 336.361L302.146 336.427V336.495C302.146 336.562 302.1 336.723 302.007 336.98C301.916 337.239 301.82 337.508 301.717 337.788C301.615 338.067 301.514 338.33 301.414 338.575C301.311 338.823 301.249 338.957 301.225 338.977C300.521 339.291 299.652 339.689 298.619 340.17C297.584 340.651 296.385 341.216 295.022 341.865C294.364 342.357 293.683 342.856 292.981 343.36C292.276 343.864 291.538 344.373 290.765 344.886ZM306.961 343.814C306.85 344.036 306.617 344.539 306.264 345.323C305.912 346.107 305.441 347.182 304.851 348.547C301.648 350.628 297.184 353.112 291.46 356C291.574 355.64 291.8 355.07 292.14 354.288C292.482 353.504 292.913 352.486 293.434 351.232C295.502 350.091 297.661 348.911 299.91 347.691C302.159 346.47 304.51 345.177 306.961 343.814ZM286.397 326.626C286.078 326.626 285.714 326.553 285.305 326.406C284.898 326.262 284.461 326.027 283.993 325.701C283.528 325.378 283.04 324.959 282.528 324.443C282.018 323.927 281.525 323.279 281.048 322.498C280.253 321.535 279.56 319.464 278.969 316.286V316.251C278.923 316.251 278.775 316.677 278.526 317.527C278.072 319.028 277.237 320.338 276.021 321.456C274.807 322.574 273.359 323.508 271.677 324.258C269.995 325.007 268.179 325.566 266.227 325.935C264.273 326.306 262.342 326.492 260.432 326.492C258.024 326.492 255.867 326.29 253.96 325.887C252.053 325.484 250.434 324.84 249.103 323.955C247.775 323.073 246.758 321.926 246.054 320.514C245.351 319.105 245 317.404 245 315.413C245 314.384 245.107 313.338 245.321 312.274C245.537 311.211 245.793 310.26 246.089 309.421C246.384 308.582 246.685 307.893 246.992 307.355C247.299 306.819 247.544 306.551 247.725 306.551L247.997 306.75C247.997 306.862 247.923 307.176 247.774 307.692C247.627 308.205 247.469 308.77 247.299 309.387C247.129 310.003 246.97 310.602 246.821 311.184C246.675 311.764 246.602 312.166 246.602 312.391C246.602 314.674 247.833 316.481 250.296 317.812C252.762 319.144 256.39 319.809 261.182 319.809C263.092 319.809 265.012 319.681 266.942 319.424C268.873 319.168 270.616 318.731 272.172 318.115C273.728 317.5 274.995 316.678 275.972 315.647C276.947 314.618 277.434 313.331 277.434 311.786C277.434 310.354 277.094 306.818 276.415 301.178C276.231 299.679 276.088 297.934 275.986 295.942C275.884 293.951 275.832 291.69 275.832 289.16C275.832 287.572 276.117 286.083 276.687 284.695L277.026 284.56C277.298 284.673 277.536 286.184 277.741 289.095L278.899 305.31C279.15 307.1 279.389 308.676 279.615 310.04C279.842 311.406 280.07 312.57 280.298 313.532C281.661 317.224 283.694 319.339 286.397 319.878C286.693 319.878 286.959 319.985 287.196 320.198C287.436 320.409 287.635 320.683 287.793 321.019C287.953 321.354 288.079 321.729 288.17 322.143C288.26 322.558 288.306 322.978 288.306 323.402C288.306 323.805 288.266 324.191 288.187 324.56C288.106 324.929 287.992 325.265 287.845 325.567C287.696 325.87 287.503 326.116 287.266 326.306C287.026 326.496 286.737 326.603 286.397 326.626ZM266.363 303.866V304.268C266.363 305.522 265.67 306.49 264.284 307.173C262.897 307.853 261.046 308.194 258.729 308.194C256.822 308.194 255.732 308.015 255.46 307.657L255.39 307.389C255.481 307.3 255.629 307.228 255.833 307.173C256.038 307.116 256.345 307.059 256.755 307.004C257.164 306.947 257.674 306.885 258.286 306.819C258.9 306.752 259.661 306.685 260.568 306.616C261.024 306.595 261.512 306.529 262.033 306.417C262.557 306.304 263.045 306.175 263.499 306.028C263.955 305.884 264.335 305.711 264.64 305.509C264.947 305.307 265.1 305.084 265.1 304.839C265.1 304.703 264.947 304.574 264.64 304.45C264.335 304.329 263.852 304.268 263.192 304.268C263.057 304.268 262.842 304.284 262.546 304.316C262.251 304.351 261.95 304.395 261.643 304.45C261.336 304.508 261.058 304.553 260.809 304.588C260.558 304.62 260.387 304.636 260.296 304.636C259.117 304.636 258.527 304.133 258.527 303.127C258.527 302.701 258.657 302.175 258.918 301.549C259.178 300.921 259.513 300.312 259.923 299.72C260.332 299.127 260.775 298.617 261.252 298.191C261.729 297.767 262.194 297.555 262.647 297.555C263.352 297.555 263.705 298.08 263.705 299.132C263.705 299.153 263.681 299.27 263.635 299.483C263.591 299.696 263.535 299.943 263.467 300.222C263.398 300.502 263.341 300.775 263.296 301.044C263.25 301.312 263.227 301.513 263.227 301.649C263.227 301.873 263.374 302.007 263.67 302.051C263.965 302.097 264.3 302.159 264.675 302.237C265.049 302.314 265.407 302.466 265.749 302.69C266.089 302.912 266.293 303.304 266.363 303.866ZM262.375 300.909C262.375 300.307 262.114 300.005 261.59 300.005C260.432 300.005 259.853 300.565 259.853 301.683C259.853 301.905 259.939 302.096 260.111 302.254C260.281 302.41 260.547 302.487 260.91 302.487C261.024 302.487 261.144 302.482 261.269 302.47C261.393 302.459 261.523 302.443 261.66 302.422L262.103 302.085C262.285 301.593 262.375 301.201 262.375 300.909ZM268.652 279.961C268.538 280.186 268.305 280.69 267.954 281.473C267.601 282.257 267.128 283.331 266.538 284.695C263.335 286.778 258.872 289.262 253.15 292.147C253.262 291.79 253.489 291.219 253.831 290.435C254.17 289.654 254.602 288.636 255.125 287.383C257.193 286.241 259.35 285.06 261.597 283.839C263.847 282.619 266.198 281.327 268.652 279.961Z" fill="#F5F9FA"/>
</svg>
