<svg width="101" height="97" viewBox="0 0 101 97" fill="none" xmlns="http://www.w3.org/2000/svg">
<path d="M26.3684 82.3197V83.4237L26.3524 83.1197C27.0564 83.2264 27.7071 83.4184 28.3044 83.6957C28.9018 83.973 29.3818 84.3357 29.7444 84.7837C30.1071 85.2317 30.2884 85.7704 30.2884 86.3997C30.2884 86.8264 30.2031 87.1944 30.0324 87.5037C29.8618 87.8024 29.6164 88.0317 29.2964 88.1917C28.9871 88.3517 28.6084 88.4317 28.1604 88.4317C28.0218 88.4317 27.8671 88.4264 27.6964 88.4157C27.5364 88.3944 27.3978 88.373 27.2804 88.3517L27.3764 87.1997C27.4298 87.2104 27.4991 87.221 27.5844 87.2317C27.6698 87.2317 27.7764 87.2317 27.9044 87.2317C28.3098 87.2317 28.6031 87.157 28.7844 87.0077C28.9658 86.8477 29.0564 86.629 29.0564 86.3517C29.0564 85.8504 28.8111 85.4184 28.3204 85.0557C27.8404 84.693 27.1844 84.4424 26.3524 84.3037L26.3844 84.0157V87.7757L25.2964 87.6797L23.6324 88.0797C23.3231 87.845 22.9871 87.6477 22.6244 87.4877C22.2724 87.317 21.9044 87.1784 21.5204 87.0717C21.1364 86.9544 20.7364 86.8744 20.3204 86.8317L19.7124 85.4077C20.3204 85.077 20.9551 84.7677 21.6164 84.4797C22.2884 84.181 22.9498 83.9144 23.6004 83.6797C24.2618 83.4344 24.8804 83.2424 25.4564 83.1037L25.1524 83.7437V82.5277L26.3684 82.3197ZM25.1524 83.8237L25.4404 84.2877C25.1204 84.373 24.7684 84.4797 24.3844 84.6077C24.0004 84.7357 23.6058 84.8797 23.2004 85.0397C22.8058 85.1997 22.4164 85.365 22.0324 85.5357C21.6484 85.7064 21.2964 85.8824 20.9764 86.0637L20.8644 85.8237C21.3764 85.8984 21.8404 86.0157 22.2564 86.1757C22.6724 86.3357 23.0618 86.5224 23.4244 86.7357C23.7871 86.9384 24.1338 87.1677 24.4644 87.4237L25.1524 87.2157V83.8237ZM31.1524 81.4557V82.5917H18.9284V81.4557H31.1524ZM26.3844 86.7517V92.0957H25.1524C24.7578 91.6797 24.3471 91.349 23.9204 91.1037C23.5044 90.8477 23.0671 90.645 22.6084 90.4957C22.1498 90.3464 21.6644 90.229 21.1524 90.1437L20.5764 88.8477C20.9711 88.613 21.4298 88.3677 21.9524 88.1117C22.4858 87.845 23.0351 87.5944 23.6004 87.3597C24.1658 87.1144 24.6831 86.9117 25.1524 86.7517H26.3844ZM25.1524 87.8877C24.8111 88.0157 24.4324 88.1704 24.0164 88.3517C23.6004 88.533 23.2004 88.7144 22.8164 88.8957C22.4324 89.077 22.1071 89.2424 21.8404 89.3917L22.0164 89.2637C22.6138 89.4024 23.1738 89.589 23.6964 89.8237C24.2298 90.0584 24.7311 90.3837 25.2004 90.7997C25.1898 90.6184 25.1791 90.4104 25.1684 90.1757C25.1578 89.941 25.1524 89.7544 25.1524 89.6157V87.8877Z" fill="#F5F9FA"/>
<path d="M35.4107 81.4557V82.5917H33.7307V91.4077H32.4987V82.5917H30.8347V81.4557H32.3067C32.136 81.253 31.96 81.0344 31.7787 80.7997C31.608 80.565 31.4533 80.3357 31.3147 80.1117C31.7413 79.4824 32.2 78.9117 32.6907 78.3997C33.192 77.8877 33.7733 77.4824 34.4347 77.1837C35.1067 76.885 35.9067 76.7357 36.8347 76.7357C37.528 76.7357 38.1787 76.805 38.7867 76.9437C39.4053 77.0717 40.008 77.2637 40.5947 77.5197C41.1813 77.7757 41.7733 78.0797 42.3707 78.4317C42.968 78.7837 43.592 79.1837 44.2427 79.6317L43.6027 80.5277C42.92 80.0797 42.3013 79.6904 41.7467 79.3597C41.2027 79.029 40.68 78.757 40.1787 78.5437C39.6773 78.3304 39.1707 78.1704 38.6587 78.0637C38.1573 77.957 37.608 77.9037 37.0107 77.9037C36.2747 77.9037 35.6453 78.0104 35.1227 78.2237C34.6 78.437 34.1467 78.725 33.7627 79.0877C33.3787 79.4504 33.0267 79.861 32.7067 80.3197C32.7813 80.4797 32.8933 80.6557 33.0427 80.8477C33.192 81.0397 33.3627 81.2424 33.5547 81.4557H35.4107ZM47.1007 81.4557V82.5917H45.4207V91.4077H44.1887V86.0477L44.2847 86.4637C44.05 86.1224 43.7993 85.8504 43.5327 85.6477C43.2767 85.445 42.994 85.3437 42.6847 85.3437C42.5247 85.3437 42.3593 85.3757 42.1887 85.4397C42.0287 85.493 41.89 85.5997 41.7727 85.7597C41.666 85.9197 41.6127 86.165 41.6127 86.4957C41.6127 86.613 41.6127 86.7197 41.6127 86.8157C41.6233 86.901 41.634 86.9864 41.6447 87.0717L40.6047 87.1517C40.562 86.7144 40.4447 86.3464 40.2527 86.0477C40.0607 85.7384 39.826 85.5037 39.5487 85.3437C39.2713 85.1837 38.9727 85.1037 38.6527 85.1037C38.3647 85.1037 38.1193 85.1624 37.9167 85.2797C37.714 85.3864 37.5593 85.5357 37.4527 85.7277C37.346 85.909 37.2927 86.117 37.2927 86.3517C37.2927 86.7784 37.4473 87.141 37.7567 87.4397C38.0767 87.7384 38.5247 87.989 39.1007 88.1917L38.6687 89.3757C38.1567 89.2157 37.698 88.997 37.2927 88.7197C36.8873 88.4424 36.5673 88.101 36.3327 87.6957C36.098 87.2904 35.9807 86.821 35.9807 86.2877C35.9807 85.8077 36.098 85.397 36.3327 85.0557C36.5673 84.7037 36.882 84.4317 37.2767 84.2397C37.6713 84.0477 38.1033 83.9517 38.5727 83.9517C39.138 83.9517 39.6233 84.0584 40.0287 84.2717C40.434 84.4744 40.8073 84.805 41.1487 85.2637L40.9087 85.2797C41.0153 84.9277 41.218 84.661 41.5167 84.4797C41.826 84.2877 42.146 84.1917 42.4767 84.1917C42.8607 84.1917 43.1913 84.2664 43.4687 84.4157C43.746 84.565 44.05 84.7784 44.3807 85.0557L44.2367 85.2957C44.226 85.0717 44.2153 84.8477 44.2047 84.6237C44.194 84.3997 44.1887 84.1704 44.1887 83.9357V82.5917H35.0847V81.4557H47.1007ZM51.7056 85.7983V87.2983H47.5728V85.7983H51.7056ZM57.1431 85.7983V87.2983H53.0103V85.7983H57.1431Z" fill="#FFCA3A"/>
<path d="M69.6788 81.4557V82.5917H67.9988V91.4077H66.7668V86.0477L66.8628 86.4637C66.6281 86.1224 66.3775 85.8504 66.1108 85.6477C65.8548 85.445 65.5721 85.3437 65.2628 85.3437C65.1028 85.3437 64.9375 85.3757 64.7668 85.4397C64.6068 85.493 64.4681 85.5997 64.3508 85.7597C64.2441 85.9197 64.1908 86.165 64.1908 86.4957C64.1908 86.613 64.1908 86.7197 64.1908 86.8157C64.2015 86.901 64.2121 86.9864 64.2228 87.0717L63.1828 87.1517C63.1401 86.7144 63.0228 86.3464 62.8308 86.0477C62.6388 85.7384 62.4041 85.5037 62.1268 85.3437C61.8495 85.1837 61.5508 85.1037 61.2308 85.1037C60.9428 85.1037 60.6975 85.1624 60.4948 85.2797C60.2921 85.3864 60.1375 85.5357 60.0308 85.7277C59.9241 85.909 59.8708 86.117 59.8708 86.3517C59.8708 86.7784 60.0255 87.141 60.3348 87.4397C60.6548 87.7384 61.1028 87.989 61.6788 88.1917L61.2468 89.3757C60.7348 89.2157 60.2761 88.997 59.8708 88.7197C59.4655 88.4424 59.1455 88.101 58.9108 87.6957C58.6761 87.2904 58.5588 86.821 58.5588 86.2877C58.5588 85.8077 58.6761 85.397 58.9108 85.0557C59.1455 84.7037 59.4601 84.4317 59.8548 84.2397C60.2495 84.0477 60.6815 83.9517 61.1508 83.9517C61.7161 83.9517 62.2015 84.0584 62.6068 84.2717C63.0121 84.4744 63.3855 84.805 63.7268 85.2637L63.4868 85.2797C63.5935 84.9277 63.7961 84.661 64.0948 84.4797C64.4041 84.2877 64.7241 84.1917 65.0548 84.1917C65.4388 84.1917 65.7695 84.2664 66.0468 84.4157C66.3241 84.565 66.6281 84.7784 66.9588 85.0557L66.8148 85.2957C66.8041 85.0717 66.7935 84.8477 66.7828 84.6237C66.7721 84.3997 66.7668 84.1704 66.7668 83.9357V82.5917H57.6628V81.4557H69.6788ZM73.9419 81.4557V82.5917H72.2619V91.4077H71.0299V83.9037C70.9019 83.541 70.7099 83.2317 70.4539 82.9757C70.2086 82.7197 69.8886 82.5917 69.4939 82.5917H69.3659V81.4557H69.6059C69.8619 81.4557 70.1286 81.541 70.4059 81.7117C70.6833 81.8717 70.9073 82.1224 71.0779 82.4637C71.0673 82.4104 71.0566 82.2877 71.0459 82.0957C71.0353 81.9037 71.0299 81.7384 71.0299 81.5997V80.3997H71.8939L72.2459 81.4557H73.9419ZM78.5337 85.7983V87.2983H74.4009V85.7983H78.5337ZM83.9712 85.7983V87.2983H79.8384V85.7983H83.9712Z" fill="#8AC926"/>
<path d="M89.9041 45.4754C91.4214 45.2402 92.7493 44.9382 93.8879 44.5696C95.0265 44.2035 95.9745 43.784 96.7319 43.3111L96.1638 42.6347C94.5276 43.2263 93.2239 43.522 92.2528 43.522C90.3326 43.522 88.8323 42.9717 87.752 41.8708C86.6741 40.7699 86.1352 39.2604 86.1352 37.3424C86.1352 36.6319 86.2177 35.9093 86.3828 35.1745C86.5503 34.4422 86.77 33.7682 87.0419 33.1523C87.3138 32.5364 87.6343 32.009 88.0033 31.5701C88.3699 31.1312 88.7668 30.8414 89.194 30.7007C89.8349 30.5116 90.4273 30.417 90.9711 30.417C91.7771 30.417 92.5831 30.6183 93.389 31.0209C96.8994 32.7498 98.6546 35.9941 98.6546 40.7541C98.6546 42.1508 98.4822 43.4409 98.1375 44.6243C97.7928 45.8076 97.3242 46.861 96.7319 47.7849C96.1396 48.7088 95.4465 49.5019 94.6526 50.1639C93.8588 50.8283 93.0224 51.3374 92.1436 51.6915C89.512 52.7342 85.9203 53.2555 81.3685 53.2555H81.2629C80.9303 52.7826 80.6159 52.2976 80.3198 51.8005C80.0236 51.3034 79.8755 50.7107 79.8755 50.022C79.8755 49.5249 79.9762 48.9574 80.1777 48.3197C80.3792 47.6795 80.741 46.9447 81.2629 46.1154C81.7145 46.1154 82.183 46.1033 82.6685 46.079C83.1541 46.0572 83.7294 46.0221 84.3946 45.9736C85.0573 45.9275 85.8269 45.8681 86.7033 45.7953C87.5821 45.725 88.649 45.6185 89.9041 45.4754ZM95.7742 15.7807L101 20.9309L95.7742 26.2596L90.8655 21.6075L86.3501 26.1906L81.1937 21.0037L86.3501 15.7114L91.1131 20.4363L95.7742 15.7807ZM97.5148 0.24585C97.3959 0.483485 97.1531 1.01561 96.7865 1.84249C96.4175 2.67179 95.9259 3.809 95.3117 5.25421C91.9688 7.45598 87.3102 10.0846 81.3358 13.1399C81.4523 12.7617 81.6889 12.1579 82.0458 11.3286C82.4003 10.4993 82.8506 9.42135 83.3968 8.09495C85.555 6.88737 87.8079 5.63869 90.1554 4.34867C92.5005 3.05865 94.9536 1.69106 97.5148 0.24585ZM80.9278 46.1154C81.2604 46.3773 81.5809 46.8746 81.8892 47.6069C82.1975 48.3416 82.3517 49.1356 82.3517 49.9892C82.3517 50.5808 82.2449 51.1605 82.0313 51.7279C81.8176 52.2977 81.4498 52.8069 80.9278 53.2555C77.4199 52.7584 74.6233 51.3253 72.5379 48.9562C71.5402 48.1051 70.7572 47.5256 70.1892 47.2177C69.5483 47.6663 68.8904 48.1694 68.2155 48.7271C67.5406 49.2824 66.7819 49.8388 65.9395 50.3965C65.0971 50.9518 64.1431 51.4842 63.0774 51.9934C62.0116 52.5026 60.7675 52.9233 59.3449 53.2555C59.1531 53.2094 58.9807 53.0736 58.8278 52.8481C58.6748 52.6226 58.5388 52.3438 58.4199 52.0116C58.3009 51.6818 58.2111 51.3157 58.1505 50.9131C58.0922 50.5106 58.063 50.0958 58.063 49.669C58.063 48.9828 58.1577 48.3075 58.3471 47.643C58.5364 46.9811 58.869 46.4719 59.3449 46.1154C60.0562 46.0912 60.8257 46.0027 61.6535 45.8499C62.4838 45.6947 63.314 45.411 64.1443 44.9988C64.9746 44.5841 65.7684 44.0094 66.5259 43.2747C67.2857 42.54 67.9497 41.5811 68.5177 40.3978C68.5177 38.6689 68.1973 34.1223 67.5564 26.758C67.4398 25.5747 67.3451 24.5028 67.2723 23.5425C67.2019 22.5847 67.1667 21.7263 67.1667 20.9673C67.1667 19.7355 67.2614 18.7764 67.4508 18.0901C67.6401 17.4039 67.9011 17.0609 68.2337 17.0609C68.3526 17.0609 68.542 17.1434 68.8018 17.3083C68.945 17.3083 69.4318 20.8255 70.262 27.86C70.949 35.6971 71.3872 39.8292 71.5766 40.2559C73.2589 43.9272 76.376 45.8802 80.9278 46.1154ZM75.5931 56.8928C75.4766 57.1304 75.2338 57.6639 74.8648 58.4932C74.4982 59.32 74.0066 60.4561 73.39 61.9013C70.0471 64.1031 65.3885 66.7315 59.414 69.7868C59.533 69.4086 59.7697 68.8048 60.1241 67.9755C60.481 67.1462 60.9325 66.0685 61.4788 64.7421C63.6345 63.5345 65.8862 62.2856 68.2337 60.9956C70.5812 59.7056 73.0344 58.338 75.5931 56.8928ZM50.5106 23.1898C50.5106 23.9002 50.3917 24.6107 50.1538 25.3212C49.9183 26.0317 49.593 26.6888 49.1778 27.2926C48.7627 27.8964 48.2638 28.442 47.6812 28.9294C47.101 29.4144 46.4674 29.7988 45.7803 30.0825C45.6614 30.131 45.2875 30.2024 44.6588 30.2969C44.0324 30.3915 43.3393 30.4922 42.5795 30.5988C41.8221 30.7055 41.1047 30.794 40.4274 30.8644C39.7525 30.9347 39.3082 30.9698 39.0946 30.9698C38.4537 30.9698 38.1332 30.7928 38.1332 30.4388C38.1332 30.012 39.687 29.2421 42.7944 28.1291C44.3335 27.5835 45.4235 27.1399 46.0644 26.798C46.7053 26.4536 47.0257 26.1516 47.0257 25.8922C47.0257 24.8956 44.9161 24.3499 40.6969 24.2554L40.4091 23.9716C40.6956 23.4988 41.0513 22.9011 41.4761 22.1785C41.9034 21.4559 42.4132 20.5975 43.0056 19.6033C43.3867 19.4627 43.8734 19.3924 44.4658 19.3924C45.2232 19.3924 45.9636 19.487 46.687 19.6761C47.4105 19.8653 48.0502 20.1308 48.6061 20.4727C49.1645 20.817 49.6148 21.2194 49.9571 21.6801C50.3019 22.1433 50.4863 22.6466 50.5106 23.1898ZM33.9019 53.2191L33.2281 53.1864C29.2929 53.1864 26.2341 50.9604 24.0517 46.5084C23.9813 46.4138 23.9217 46.3665 23.8732 46.3665C23.8028 46.3665 23.6547 46.632 23.429 47.1631C23.2056 47.6965 22.7614 48.4482 22.0962 49.4182C21.0766 50.8876 20.0339 52.0431 18.9681 52.8845C17.9 53.7235 16.691 54.3685 15.3413 54.8195C13.9891 55.2681 12.4536 55.593 10.7348 55.7943C9.01602 55.9956 6.99497 56.1908 4.6717 56.3799L3.96165 56.4527C3.86697 56.4527 3.77713 56.4406 3.69216 56.4163C3.60962 56.3921 3.56836 56.3326 3.56836 56.2381C3.56836 56.0489 3.72251 55.8719 4.03082 55.707C5.31019 55.1857 6.45481 54.7117 7.46471 54.2849C8.47219 53.8581 9.37895 53.4798 10.1849 53.15C11.9377 52.2965 13.5193 51.3908 14.9298 50.4329C16.3402 49.4727 17.5443 48.4663 18.5421 47.4139C19.5374 46.3591 20.3009 45.257 20.8326 44.1077C21.3667 42.9607 21.6337 41.7593 21.6337 40.5032C21.6337 39.8655 21.5925 39.0544 21.5099 38.0699C21.4274 37.0878 21.3448 36.0159 21.2623 34.8544C21.1773 33.6953 21.0935 32.4768 21.011 31.1989C20.9285 29.9186 20.8872 28.6746 20.8872 27.4671C20.8872 25.2653 21.0705 23.419 21.4371 21.9277C21.8061 20.4364 22.1921 19.2638 22.595 18.4103C22.6193 18.34 22.6667 18.2686 22.7371 18.1958C22.856 18.2443 22.9568 18.3339 23.0393 18.4649C23.1219 18.5934 23.2044 18.8481 23.2869 19.2288C23.3695 19.6071 23.4532 20.1331 23.5382 20.8072C23.6207 21.4813 23.7215 22.3871 23.8405 23.5243C23.957 24.6616 24.0929 26.0643 24.2483 27.7326C24.4013 29.4033 24.5845 31.3992 24.7982 33.7197C24.9875 35.6621 25.2072 37.2963 25.4573 38.6227C25.7049 39.9491 25.995 40.9662 26.3276 41.6743C26.9442 43.0953 27.8922 44.1732 29.1716 44.908C30.4534 45.6427 32.0301 46.033 33.9019 46.079C34.1859 46.3409 34.4529 46.8271 34.703 47.5376C34.953 48.2481 35.0781 49.018 35.0781 49.8473C35.0781 50.4608 34.9882 51.0584 34.8086 51.6404C34.6314 52.22 34.3291 52.7462 33.9019 53.2191Z" fill="#F5F9FA"/>
<path d="M49.9638 51.6201L49.4577 51.3777C47.5671 50.3151 46.4416 49.3339 46.0812 48.4339C44.8202 49.4038 43.4188 50.2751 41.8771 51.0479C40.3354 51.8217 38.7538 52.4857 37.1324 53.0397C36.9978 53.086 36.7393 53.1494 36.3567 53.2303C35.9732 53.3111 35.2975 53.3747 34.3296 53.421C34.1951 53.3974 34.0548 53.2589 33.9087 53.0056C33.7616 52.7512 33.6318 52.4394 33.5194 52.0697C33.4069 51.7001 33.3113 51.2904 33.2325 50.8409C33.1537 50.3904 33.1143 49.9347 33.1143 49.4733C33.1143 48.8267 33.2046 48.2264 33.3853 47.6724C33.565 47.1184 33.8798 46.7142 34.3296 46.4599C39.7775 46.1139 43.278 44.8093 44.8312 42.5461C46.0019 40.8378 46.6435 39.9836 46.7559 39.9836C46.8914 40.307 46.9928 40.8729 47.0601 41.6812C47.3975 42.3041 47.842 42.864 48.3937 43.3608C48.9454 43.8566 49.6601 44.3012 50.5376 44.6945C51.4161 45.0868 52.4969 45.4268 53.78 45.7146C55.0632 46.0034 56.6053 46.2519 58.4065 46.4599C58.7208 46.5988 58.9741 47.0144 59.1664 47.7063C59.3576 48.3993 59.4533 49.15 59.4533 49.9583C59.4533 50.6966 59.3687 51.395 59.1995 52.0535C59.0303 52.7109 58.766 53.1667 58.4065 53.421C57.4377 53.421 56.2218 53.2998 54.759 53.0574C53.2961 52.8149 51.6977 52.3357 49.9638 51.6201ZM49.9306 56.26L54.8945 61.2813L49.9306 66.4755L45.2709 61.9392L40.9818 66.4076L36.0857 61.3508L40.9818 56.1905L45.5074 60.7963L49.9306 56.26Z" fill="#FFCA3A"/>
<path d="M19.7297 38.9539C19.7761 39.4288 19.8107 39.8981 19.8336 40.3616C19.8571 40.8245 19.8689 41.2937 19.8689 41.7693C19.8689 42.482 19.8398 43.189 19.7817 43.8903C19.7235 44.591 19.6363 45.286 19.5201 45.9753C19.4038 45.7849 19.311 45.464 19.2418 45.0124C19.1719 44.5609 19.1079 44.0857 19.0497 43.5867C18.9916 43.0878 18.9334 42.6186 18.8753 42.1791C18.8172 41.7396 18.7649 41.4366 18.7186 41.2703C16.9523 35.8286 14.3495 31.8604 10.9103 29.3657C8.81872 27.8689 7.47116 27.1204 6.86759 27.1204C6.77418 27.1204 6.69253 27.2333 6.62263 27.4591C6.55339 27.6849 6.49558 27.9641 6.4492 28.2967C6.40217 28.6293 6.34991 29.0034 6.29243 29.4188C6.23429 29.8349 6.15852 30.221 6.06511 30.577L5.82111 30.7203H5.68198C5.03138 30.7203 4.22957 29.9835 3.27653 28.5101C2.11511 26.704 1.29043 25.7061 0.802476 25.5164L0.453641 25.0174C0.337369 23.9955 0.244282 22.9438 0.174388 21.8624C0.104494 20.7817 0.0463783 19.6709 0 18.5301C0.0463783 18.4827 0.139465 18.459 0.279253 18.459H0.55752H0.802476C1.40605 18.459 2.16115 18.6016 3.06781 18.8868C3.97382 19.172 4.92656 19.5404 5.92598 19.9919C6.9254 20.4434 7.92449 20.9541 8.92325 21.5238C9.92267 22.0942 10.8058 22.6766 11.5727 23.2711C16.1968 26.7878 18.9158 32.0154 19.7297 38.9539Z" fill="#A2EE29"/>
</svg>
