<svg width="367" height="169" viewBox="0 0 367 169" fill="none" xmlns="http://www.w3.org/2000/svg">
<path d="M267 167.33C273.762 164.982 277.143 159.935 277.143 152.188V143.728C277.143 137.241 279.655 133.356 284.679 132.073C279.655 130.886 277.143 127.001 277.143 120.417V112.175C277.143 103.993 273.821 98.8126 267.179 96.634L267.679 95C271.488 96.2103 274.321 98.1832 276.179 100.919C278.06 103.63 279.024 107.176 279.071 111.557V120.599C279.071 127.449 282.048 130.874 288 130.874V133.271C282.048 133.271 279.071 136.72 279.071 143.619V152.225C279.071 156.727 278.131 160.334 276.25 163.045C274.393 165.781 271.536 167.765 267.679 169L267 167.33Z" fill="#F5F9FA"/>
<path d="M17.164 97.804V99.082H15.364V109H13.978C13.63 108.292 13.198 107.674 12.682 107.146C12.166 106.606 11.614 106.144 11.026 105.76L11.476 104.572C11.932 104.836 12.406 105.196 12.898 105.652C13.39 106.108 13.768 106.57 14.032 107.038C14.02 106.858 14.008 106.69 13.996 106.534C13.996 106.378 13.99 106.216 13.978 106.048C13.978 105.88 13.978 105.7 13.978 105.508V99.082H0.82V97.804H17.164ZM7.768 107.362C6.952 107.362 6.172 107.17 5.428 106.786C4.684 106.402 3.982 105.754 3.322 104.842C2.674 103.918 2.074 102.652 1.522 101.044L2.836 100.612C3.268 101.86 3.718 102.886 4.186 103.69C4.666 104.482 5.2 105.064 5.788 105.436C6.376 105.808 7.048 105.994 7.804 105.994C8.464 105.994 8.992 105.892 9.388 105.688C9.796 105.472 10.09 105.184 10.27 104.824C10.45 104.464 10.54 104.056 10.54 103.6C10.54 102.904 10.348 102.34 9.964 101.908C9.592 101.476 9.124 101.26 8.56 101.26C8.164 101.26 7.864 101.35 7.66 101.53C7.456 101.698 7.354 101.956 7.354 102.304C7.354 102.388 7.366 102.502 7.39 102.646C7.414 102.79 7.45 102.922 7.498 103.042L6.13 103.312C6.046 103.06 5.98 102.832 5.932 102.628C5.896 102.412 5.878 102.208 5.878 102.016C5.878 101.572 5.998 101.2 6.238 100.9C6.49 100.6 6.808 100.378 7.192 100.234C7.588 100.078 8.002 100 8.434 100C9.142 100 9.754 100.162 10.27 100.486C10.786 100.798 11.188 101.23 11.476 101.782C11.764 102.334 11.908 102.976 11.908 103.708C11.908 104.356 11.758 104.962 11.458 105.526C11.158 106.078 10.702 106.522 10.09 106.858C9.478 107.194 8.704 107.362 7.768 107.362ZM7.192 100.63C7.132 100.246 6.952 99.91 6.652 99.622C6.364 99.322 5.938 99.112 5.374 98.992L5.806 98.182L6.616 98.398C7.3 98.662 7.792 98.962 8.092 99.298C8.392 99.634 8.566 100.06 8.614 100.576L7.192 100.63ZM22.024 97.804V99.082H20.134V109H18.748V100.378C18.544 99.91 18.31 99.58 18.046 99.388C17.794 99.184 17.494 99.082 17.146 99.082H16.966V97.804H17.146C17.482 97.804 17.794 97.9 18.082 98.092C18.382 98.272 18.628 98.554 18.82 98.938C18.808 98.878 18.79 98.74 18.766 98.524C18.754 98.308 18.748 98.122 18.748 97.966V96.616H19.702L20.116 97.804H22.024ZM28.2917 97.804C28.2797 97.312 28.1597 96.958 27.9317 96.742C27.7157 96.526 27.3557 96.418 26.8517 96.418H25.5557C24.7637 96.418 24.1517 96.364 23.7197 96.256C23.2997 96.148 22.9397 95.98 22.6397 95.752C22.3157 95.512 22.0697 95.206 21.9017 94.834C21.7457 94.45 21.6677 94.018 21.6677 93.538C21.6677 93.382 21.6797 93.226 21.7037 93.07C21.7157 92.914 21.7337 92.752 21.7577 92.584L23.0897 92.674C23.0657 92.818 23.0477 92.944 23.0357 93.052C23.0237 93.16 23.0177 93.262 23.0177 93.358C23.0177 93.622 23.0417 93.856 23.0897 94.06C23.1497 94.264 23.2397 94.432 23.3597 94.564C23.5277 94.756 23.7677 94.9 24.0797 94.996C24.4037 95.08 24.8597 95.122 25.4477 95.122H26.4737C27.1097 95.122 27.6137 95.17 27.9857 95.266C28.3577 95.362 28.6757 95.536 28.9397 95.788C29.1437 95.98 29.2997 96.244 29.4077 96.58C29.5157 96.904 29.5757 97.312 29.5877 97.804H28.2917ZM26.2037 100C27.1517 100 27.9137 100.162 28.4897 100.486C29.0777 100.798 29.5097 101.2 29.7857 101.692C30.0617 102.172 30.1997 102.658 30.1997 103.15C30.1997 104.134 29.8517 104.914 29.1557 105.49C28.4717 106.066 27.4517 106.39 26.0957 106.462L26.2757 106.264C26.8157 106.42 27.3857 106.642 27.9857 106.93C28.5857 107.218 29.1917 107.554 29.8037 107.938C30.4157 108.31 31.0037 108.724 31.5677 109.18L30.7397 110.134C29.9957 109.582 29.3117 109.108 28.6877 108.712C28.0757 108.304 27.4697 107.95 26.8697 107.65C26.2697 107.35 25.6337 107.086 24.9617 106.858C24.2897 106.63 23.5277 106.42 22.6757 106.228L22.9457 104.986C23.3657 105.106 23.7677 105.196 24.1517 105.256C24.5477 105.304 25.0217 105.328 25.5737 105.328C26.4257 105.328 27.0797 105.226 27.5357 105.022C28.0037 104.818 28.3277 104.554 28.5077 104.23C28.6877 103.906 28.7777 103.576 28.7777 103.24C28.7777 102.604 28.5437 102.118 28.0757 101.782C27.6077 101.434 27.0137 101.26 26.2937 101.26C25.8617 101.26 25.5137 101.302 25.2497 101.386C24.9857 101.47 24.7937 101.596 24.6737 101.764C24.5657 101.92 24.5117 102.112 24.5117 102.34C24.5117 102.436 24.5237 102.538 24.5477 102.646C24.5717 102.742 24.5957 102.832 24.6197 102.916L23.3057 103.186C23.2457 103.006 23.1977 102.82 23.1617 102.628C23.1257 102.424 23.1077 102.244 23.1077 102.088C23.1077 101.644 23.2397 101.266 23.5037 100.954C23.7677 100.642 24.1277 100.408 24.5837 100.252C25.0517 100.084 25.5917 100 26.2037 100ZM24.9977 100.63C24.9377 100.246 24.7577 99.91 24.4577 99.622C24.1577 99.322 23.7257 99.112 23.1617 98.992L23.5937 98.182L24.4217 98.398C25.0937 98.662 25.5797 98.962 25.8797 99.298C26.1917 99.634 26.3717 100.06 26.4197 100.576L24.9977 100.63ZM31.5677 97.804V99.082H21.6677V97.804H31.5677ZM42.4446 97.804V99.082H40.5546V109H39.1686V104.626L39.4566 105.634C39.0606 105.082 38.6286 104.584 38.1606 104.14C37.6926 103.696 37.2126 103.342 36.7206 103.078C36.2286 102.814 35.7486 102.682 35.2806 102.682C34.8366 102.682 34.4586 102.802 34.1466 103.042C33.8466 103.27 33.6966 103.612 33.6966 104.068C33.6966 104.428 33.8226 104.74 34.0746 105.004C34.3266 105.256 34.7166 105.484 35.2446 105.688L34.5606 106.966C33.8286 106.666 33.2526 106.264 32.8326 105.76C32.4246 105.244 32.2206 104.662 32.2206 104.014C32.2206 103.426 32.3586 102.94 32.6346 102.556C32.9226 102.16 33.2826 101.866 33.7146 101.674C34.1586 101.482 34.6086 101.386 35.0646 101.386C35.6886 101.386 36.2586 101.494 36.7746 101.71C37.2906 101.926 37.7706 102.22 38.2146 102.592C38.6706 102.964 39.1026 103.396 39.5106 103.888L39.2586 103.96C39.2226 103.684 39.1986 103.414 39.1866 103.15C39.1746 102.874 39.1686 102.598 39.1686 102.322V99.082H31.2126V97.804H42.4446ZM51.5718 106.642V98.758H53.0838V106.642H51.5718ZM48.2958 103.42V101.998H56.3598V103.42H48.2958ZM73.8484 97.804V99.082H71.9584V109H70.5724C70.0684 108.328 69.5104 107.74 68.8984 107.236C68.2864 106.72 67.5784 106.288 66.7744 105.94C65.9704 105.592 65.0164 105.34 63.9124 105.184L63.2644 103.546C63.6364 103.294 64.0264 103.054 64.4344 102.826C64.8424 102.598 65.2564 102.376 65.6764 102.16C66.1084 101.944 66.5284 101.74 66.9364 101.548C66.4804 101.2 65.9524 100.894 65.3524 100.63C64.7644 100.354 64.0684 100.132 63.2644 99.964L63.8224 98.74L63.8584 99.082H62.2204V97.804H73.8484ZM70.5724 99.082H64.8304L64.4524 98.92C64.9564 99.04 65.4604 99.232 65.9644 99.496C66.4804 99.76 66.9544 100.048 67.3864 100.36C67.8304 100.66 68.1844 100.948 68.4484 101.224L68.5384 102.232C68.1064 102.424 67.6504 102.634 67.1704 102.862C66.7024 103.09 66.2464 103.318 65.8024 103.546C65.3704 103.774 64.9864 104.002 64.6504 104.23L64.4344 103.96C65.4664 104.104 66.3664 104.344 67.1344 104.68C67.9144 105.016 68.6044 105.424 69.2044 105.904C69.8044 106.384 70.3564 106.918 70.8604 107.506L70.6264 107.578C70.6144 107.326 70.6024 107.056 70.5904 106.768C70.5784 106.468 70.5724 106.186 70.5724 105.922V99.082ZM84.576 97.804V99.082H82.686V109H81.3C80.94 108.28 80.442 107.62 79.806 107.02C79.182 106.408 78.462 105.892 77.646 105.472C76.83 105.052 75.96 104.77 75.036 104.626L74.334 102.898C75.486 102.202 76.674 101.572 77.898 101.008C79.134 100.444 80.406 99.964 81.714 99.568L81.3 100.324V99.082H73.488V97.804H84.576ZM81.3 100.468L81.678 100.972C80.766 101.272 79.806 101.644 78.798 102.088C77.79 102.52 76.86 103 76.008 103.528C76.656 103.672 77.346 103.918 78.078 104.266C78.81 104.614 79.488 105.052 80.112 105.58C80.736 106.108 81.216 106.72 81.552 107.416H81.39C81.366 107.14 81.342 106.864 81.318 106.588C81.306 106.312 81.3 105.982 81.3 105.598V100.468ZM95.2986 97.804V99.082H93.4086V109H92.0226C91.6626 108.28 91.1646 107.62 90.5286 107.02C89.9046 106.408 89.1846 105.892 88.3686 105.472C87.5526 105.052 86.6826 104.77 85.7586 104.626L85.0566 102.898C86.2086 102.202 87.3966 101.572 88.6206 101.008C89.8566 100.444 91.1286 99.964 92.4366 99.568L92.0226 100.324V99.082H84.2106V97.804H95.2986ZM92.0226 100.468L92.4006 100.972C91.4886 101.272 90.5286 101.644 89.5206 102.088C88.5126 102.52 87.5826 103 86.7306 103.528C87.3786 103.672 88.0686 103.918 88.8006 104.266C89.5326 104.614 90.2106 105.052 90.8346 105.58C91.4586 106.108 91.9386 106.72 92.2746 107.416H92.1126C92.0886 107.14 92.0646 106.864 92.0406 106.588C92.0286 106.312 92.0226 105.982 92.0226 105.598V100.468ZM87.7206 109.108C87.4206 109.108 87.1626 109.012 86.9466 108.82C86.7426 108.628 86.6406 108.376 86.6406 108.064C86.6406 107.752 86.7426 107.494 86.9466 107.29C87.1626 107.086 87.4206 106.984 87.7206 106.984C88.0206 106.984 88.2726 107.086 88.4766 107.29C88.6926 107.494 88.8006 107.752 88.8006 108.064C88.8006 108.376 88.6926 108.628 88.4766 108.82C88.2726 109.012 88.0206 109.108 87.7206 109.108ZM105.987 101.278V99.856H114.051V101.278H105.987ZM105.987 105.544V104.122H114.051V105.544H105.987ZM121.334 101.26L121.226 96.4H122.738L122.612 101.26H121.334ZM140.035 97.804V99.082H138.235V109H136.849C136.501 108.292 136.069 107.674 135.553 107.146C135.037 106.606 134.485 106.144 133.897 105.76L134.347 104.572C134.803 104.836 135.277 105.196 135.769 105.652C136.261 106.108 136.639 106.57 136.903 107.038C136.891 106.858 136.879 106.69 136.867 106.534C136.867 106.378 136.861 106.216 136.849 106.048C136.849 105.88 136.849 105.7 136.849 105.508V99.082H123.691V97.804H140.035ZM130.639 107.362C129.823 107.362 129.043 107.17 128.299 106.786C127.555 106.402 126.853 105.754 126.193 104.842C125.545 103.918 124.945 102.652 124.393 101.044L125.707 100.612C126.139 101.86 126.589 102.886 127.057 103.69C127.537 104.482 128.071 105.064 128.659 105.436C129.247 105.808 129.919 105.994 130.675 105.994C131.335 105.994 131.863 105.892 132.259 105.688C132.667 105.472 132.961 105.184 133.141 104.824C133.321 104.464 133.411 104.056 133.411 103.6C133.411 102.904 133.219 102.34 132.835 101.908C132.463 101.476 131.995 101.26 131.431 101.26C131.035 101.26 130.735 101.35 130.531 101.53C130.327 101.698 130.225 101.956 130.225 102.304C130.225 102.388 130.237 102.502 130.261 102.646C130.285 102.79 130.321 102.922 130.369 103.042L129.001 103.312C128.917 103.06 128.851 102.832 128.803 102.628C128.767 102.412 128.749 102.208 128.749 102.016C128.749 101.572 128.869 101.2 129.109 100.9C129.361 100.6 129.679 100.378 130.063 100.234C130.459 100.078 130.873 100 131.305 100C132.013 100 132.625 100.162 133.141 100.486C133.657 100.798 134.059 101.23 134.347 101.782C134.635 102.334 134.779 102.976 134.779 103.708C134.779 104.356 134.629 104.962 134.329 105.526C134.029 106.078 133.573 106.522 132.961 106.858C132.349 107.194 131.575 107.362 130.639 107.362ZM130.063 100.63C130.003 100.246 129.823 99.91 129.523 99.622C129.235 99.322 128.809 99.112 128.245 98.992L128.677 98.182L129.487 98.398C130.171 98.662 130.663 98.962 130.963 99.298C131.263 99.634 131.437 100.06 131.485 100.576L130.063 100.63ZM144.895 97.804V99.082H143.005V109H141.619V100.378C141.415 99.91 141.181 99.58 140.917 99.388C140.665 99.184 140.365 99.082 140.017 99.082H139.837V97.804H140.017C140.353 97.804 140.665 97.9 140.953 98.092C141.253 98.272 141.499 98.554 141.691 98.938C141.679 98.878 141.661 98.74 141.637 98.524C141.625 98.308 141.619 98.122 141.619 97.966V96.616H142.573L142.987 97.804H144.895Z" fill="#F5F9FA"/>
<path d="M12.448 124.804V126.082H10.558V136H9.172C8.668 135.328 8.11 134.74 7.498 134.236C6.886 133.72 6.178 133.288 5.374 132.94C4.57 132.592 3.616 132.34 2.512 132.184L1.864 130.546C2.236 130.294 2.626 130.054 3.034 129.826C3.442 129.598 3.856 129.376 4.276 129.16C4.708 128.944 5.128 128.74 5.536 128.548C5.08 128.2 4.552 127.894 3.952 127.63C3.364 127.354 2.668 127.132 1.864 126.964L2.422 125.74L2.458 126.082H0.82V124.804H12.448ZM9.172 126.082H3.43L3.052 125.92C3.556 126.04 4.06 126.232 4.564 126.496C5.08 126.76 5.554 127.048 5.986 127.36C6.43 127.66 6.784 127.948 7.048 128.224L7.138 129.232C6.706 129.424 6.25 129.634 5.77 129.862C5.302 130.09 4.846 130.318 4.402 130.546C3.97 130.774 3.586 131.002 3.25 131.23L3.034 130.96C4.066 131.104 4.966 131.344 5.734 131.68C6.514 132.016 7.204 132.424 7.804 132.904C8.404 133.384 8.956 133.918 9.46 134.506L9.226 134.578C9.214 134.326 9.202 134.056 9.19 133.768C9.178 133.468 9.172 133.186 9.172 132.922V126.082ZM17.2356 124.804V126.082H15.3456V136H13.9596V127.558C13.8156 127.15 13.5996 126.802 13.3116 126.514C13.0356 126.226 12.6756 126.082 12.2316 126.082H12.0876V124.804H12.3576C12.6456 124.804 12.9456 124.9 13.2576 125.092C13.5696 125.272 13.8216 125.554 14.0136 125.938C14.0016 125.878 13.9896 125.74 13.9776 125.524C13.9656 125.308 13.9596 125.122 13.9596 124.966V123.616H14.9316L15.3276 124.804H17.2356ZM30.3868 124.804V126.082H28.4968V136H27.1108V129.97L27.2188 130.438C26.9548 130.054 26.6728 129.748 26.3728 129.52C26.0848 129.292 25.7668 129.178 25.4188 129.178C25.2388 129.178 25.0528 129.214 24.8608 129.286C24.6808 129.346 24.5248 129.466 24.3928 129.646C24.2728 129.826 24.2128 130.102 24.2128 130.474C24.2128 130.606 24.2128 130.726 24.2128 130.834C24.2248 130.93 24.2368 131.026 24.2488 131.122L23.0788 131.212C23.0308 130.72 22.8988 130.306 22.6828 129.97C22.4668 129.622 22.2028 129.358 21.8908 129.178C21.5788 128.998 21.2428 128.908 20.8828 128.908C20.5588 128.908 20.2828 128.974 20.0548 129.106C19.8268 129.226 19.6528 129.394 19.5328 129.61C19.4128 129.814 19.3528 130.048 19.3528 130.312C19.3528 130.792 19.5268 131.2 19.8748 131.536C20.2348 131.872 20.7388 132.154 21.3868 132.382L20.9008 133.714C20.3248 133.534 19.8088 133.288 19.3528 132.976C18.8968 132.664 18.5368 132.28 18.2728 131.824C18.0088 131.368 17.8768 130.84 17.8768 130.24C17.8768 129.7 18.0088 129.238 18.2728 128.854C18.5368 128.458 18.8908 128.152 19.3348 127.936C19.7788 127.72 20.2648 127.612 20.7928 127.612C21.4288 127.612 21.9748 127.732 22.4308 127.972C22.8868 128.2 23.3068 128.572 23.6908 129.088L23.4208 129.106C23.5408 128.71 23.7688 128.41 24.1048 128.206C24.4528 127.99 24.8128 127.882 25.1848 127.882C25.6168 127.882 25.9888 127.966 26.3008 128.134C26.6128 128.302 26.9548 128.542 27.3268 128.854L27.1648 129.124C27.1528 128.872 27.1408 128.62 27.1288 128.368C27.1168 128.116 27.1108 127.858 27.1108 127.594V126.082H16.8688V124.804H30.3868ZM44.3648 133.642V125.758H45.8768V133.642H44.3648ZM41.0888 130.42V128.998H49.1528V130.42H41.0888ZM66.6414 124.804V126.082H64.7514V136H63.3654C62.8614 135.328 62.3034 134.74 61.6914 134.236C61.0794 133.72 60.3714 133.288 59.5674 132.94C58.7634 132.592 57.8094 132.34 56.7054 132.184L56.0574 130.546C56.4294 130.294 56.8194 130.054 57.2274 129.826C57.6354 129.598 58.0494 129.376 58.4694 129.16C58.9014 128.944 59.3214 128.74 59.7294 128.548C59.2734 128.2 58.7454 127.894 58.1454 127.63C57.5574 127.354 56.8614 127.132 56.0574 126.964L56.6154 125.74L56.6514 126.082H55.0134V124.804H66.6414ZM63.3654 126.082H57.6234L57.2454 125.92C57.7494 126.04 58.2534 126.232 58.7574 126.496C59.2734 126.76 59.7474 127.048 60.1794 127.36C60.6234 127.66 60.9774 127.948 61.2414 128.224L61.3314 129.232C60.8994 129.424 60.4434 129.634 59.9634 129.862C59.4954 130.09 59.0394 130.318 58.5954 130.546C58.1634 130.774 57.7794 131.002 57.4434 131.23L57.2274 130.96C58.2594 131.104 59.1594 131.344 59.9274 131.68C60.7074 132.016 61.3974 132.424 61.9974 132.904C62.5974 133.384 63.1494 133.918 63.6534 134.506L63.4194 134.578C63.4074 134.326 63.3954 134.056 63.3834 133.768C63.3714 133.468 63.3654 133.186 63.3654 132.922V126.082ZM77.3689 124.804V126.082H75.4789V136H74.0929C73.7329 135.28 73.2349 134.62 72.5989 134.02C71.9749 133.408 71.2549 132.892 70.4389 132.472C69.6229 132.052 68.7529 131.77 67.8289 131.626L67.1269 129.898C68.2789 129.202 69.4669 128.572 70.6909 128.008C71.9269 127.444 73.1989 126.964 74.5069 126.568L74.0929 127.324V126.082H66.2809V124.804H77.3689ZM74.0929 127.468L74.4709 127.972C73.5589 128.272 72.5989 128.644 71.5909 129.088C70.5829 129.52 69.6529 130 68.8009 130.528C69.4489 130.672 70.1389 130.918 70.8709 131.266C71.6029 131.614 72.2809 132.052 72.9049 132.58C73.5289 133.108 74.0089 133.72 74.3449 134.416H74.1829C74.1589 134.14 74.1349 133.864 74.1109 133.588C74.0989 133.312 74.0929 132.982 74.0929 132.598V127.468ZM88.0916 124.804V126.082H86.2016V136H84.8156C84.4556 135.28 83.9576 134.62 83.3216 134.02C82.6976 133.408 81.9776 132.892 81.1616 132.472C80.3456 132.052 79.4756 131.77 78.5516 131.626L77.8496 129.898C79.0016 129.202 80.1896 128.572 81.4136 128.008C82.6496 127.444 83.9216 126.964 85.2296 126.568L84.8156 127.324V126.082H77.0036V124.804H88.0916ZM84.8156 127.468L85.1936 127.972C84.2816 128.272 83.3216 128.644 82.3136 129.088C81.3056 129.52 80.3756 130 79.5236 130.528C80.1716 130.672 80.8616 130.918 81.5936 131.266C82.3256 131.614 83.0036 132.052 83.6276 132.58C84.2516 133.108 84.7316 133.72 85.0676 134.416H84.9056C84.8816 134.14 84.8576 133.864 84.8336 133.588C84.8216 133.312 84.8156 132.982 84.8156 132.598V127.468ZM80.5136 136.108C80.2136 136.108 79.9556 136.012 79.7396 135.82C79.5356 135.628 79.4336 135.376 79.4336 135.064C79.4336 134.752 79.5356 134.494 79.7396 134.29C79.9556 134.086 80.2136 133.984 80.5136 133.984C80.8136 133.984 81.0656 134.086 81.2696 134.29C81.4856 134.494 81.5936 134.752 81.5936 135.064C81.5936 135.376 81.4856 135.628 81.2696 135.82C81.0656 136.012 80.8136 136.108 80.5136 136.108ZM98.7802 128.278V126.856H106.844V128.278H98.7802ZM98.7802 132.544V131.122H106.844V132.544H98.7802ZM124.333 124.804V126.082H122.443V136H121.057C120.553 135.328 119.995 134.74 119.383 134.236C118.771 133.72 118.063 133.288 117.259 132.94C116.455 132.592 115.501 132.34 114.397 132.184L113.749 130.546C114.121 130.294 114.511 130.054 114.919 129.826C115.327 129.598 115.741 129.376 116.161 129.16C116.593 128.944 117.013 128.74 117.421 128.548C116.965 128.2 116.437 127.894 115.837 127.63C115.249 127.354 114.553 127.132 113.749 126.964L114.307 125.74L114.343 126.082H112.705V124.804H124.333ZM121.057 126.082H115.315L114.937 125.92C115.441 126.04 115.945 126.232 116.449 126.496C116.965 126.76 117.439 127.048 117.871 127.36C118.315 127.66 118.669 127.948 118.933 128.224L119.023 129.232C118.591 129.424 118.135 129.634 117.655 129.862C117.187 130.09 116.731 130.318 116.287 130.546C115.855 130.774 115.471 131.002 115.135 131.23L114.919 130.96C115.951 131.104 116.851 131.344 117.619 131.68C118.399 132.016 119.089 132.424 119.689 132.904C120.289 133.384 120.841 133.918 121.345 134.506L121.111 134.578C121.099 134.326 121.087 134.056 121.075 133.768C121.063 133.468 121.057 133.186 121.057 132.922V126.082ZM129.12 124.804V126.082H127.23V136H125.844V127.558C125.7 127.15 125.484 126.802 125.196 126.514C124.92 126.226 124.56 126.082 124.116 126.082H123.972V124.804H124.242C124.53 124.804 124.83 124.9 125.142 125.092C125.454 125.272 125.706 125.554 125.898 125.938C125.886 125.878 125.874 125.74 125.862 125.524C125.85 125.308 125.844 125.122 125.844 124.966V123.616H126.816L127.212 124.804H129.12Z" fill="#F5F9FA"/>
<path d="M300.152 127.386L300.008 122.4H301.952L301.79 127.386H300.152ZM320.415 123.804V125.784H318.687V135H316.311C315.975 134.364 315.501 133.818 314.889 133.362C314.289 132.894 313.707 132.51 313.143 132.21L314.187 130.68C314.643 130.944 315.057 131.226 315.429 131.526C315.813 131.814 316.125 132.096 316.365 132.372C316.353 132.24 316.341 132.108 316.329 131.976C316.329 131.844 316.323 131.706 316.311 131.562C316.311 131.406 316.311 131.25 316.311 131.094V125.784H302.775V123.804H320.415ZM310.119 133.524C309.135 133.524 308.211 133.332 307.347 132.948C306.495 132.564 305.721 131.916 305.025 131.004C304.341 130.092 303.741 128.856 303.225 127.296L305.475 126.666C305.859 127.782 306.261 128.694 306.681 129.402C307.101 130.11 307.581 130.632 308.121 130.968C308.661 131.292 309.291 131.454 310.011 131.454C310.575 131.454 311.037 131.382 311.397 131.238C311.769 131.094 312.045 130.884 312.225 130.608C312.405 130.332 312.495 130.008 312.495 129.636C312.495 129.18 312.369 128.826 312.117 128.574C311.877 128.31 311.565 128.178 311.181 128.178C310.917 128.178 310.713 128.244 310.569 128.376C310.425 128.508 310.353 128.682 310.353 128.898C310.353 128.994 310.365 129.102 310.389 129.222C310.413 129.33 310.443 129.432 310.479 129.528L308.247 129.852C308.151 129.624 308.079 129.402 308.031 129.186C307.983 128.97 307.959 128.784 307.959 128.628C307.959 128.04 308.097 127.578 308.373 127.242C308.649 126.894 309.009 126.642 309.453 126.486C309.909 126.33 310.383 126.252 310.875 126.252C311.703 126.252 312.417 126.414 313.017 126.738C313.617 127.05 314.073 127.482 314.385 128.034C314.709 128.586 314.871 129.21 314.871 129.906C314.871 130.554 314.709 131.154 314.385 131.706C314.061 132.258 313.545 132.702 312.837 133.038C312.141 133.362 311.235 133.524 310.119 133.524ZM308.985 127.296C308.937 126.9 308.763 126.558 308.463 126.27C308.163 125.982 307.731 125.772 307.167 125.64L308.517 124.848L309.345 125.046C310.017 125.322 310.503 125.628 310.803 125.964C311.103 126.3 311.283 126.726 311.343 127.242L308.985 127.296ZM325.887 123.804V125.784H324.159V135H321.783V127.008C321.591 126.564 321.387 126.252 321.171 126.072C320.955 125.88 320.691 125.784 320.379 125.784H320.109V123.804H320.505C320.745 123.804 320.979 123.888 321.207 124.056C321.447 124.224 321.663 124.518 321.855 124.938C321.843 124.878 321.825 124.74 321.801 124.524C321.789 124.308 321.783 124.122 321.783 123.966V122.616H323.727L324.141 123.804H325.887ZM337.851 123.804V125.784H336.123V135H333.747C333.267 134.4 332.703 133.896 332.055 133.488C331.407 133.08 330.675 132.75 329.859 132.498C329.043 132.234 328.125 132.036 327.105 131.904L326.259 129.87C326.595 129.666 326.943 129.462 327.303 129.258C327.675 129.054 328.059 128.85 328.455 128.646C328.851 128.43 329.247 128.226 329.643 128.034C329.139 127.746 328.593 127.494 328.005 127.278C327.429 127.062 326.799 126.9 326.115 126.792L326.781 125.298L327.465 125.784H325.521V123.804H337.851ZM333.747 125.784H328.599L328.833 125.658C329.253 125.778 329.643 125.934 330.003 126.126C330.375 126.318 330.717 126.534 331.029 126.774C331.353 127.002 331.647 127.236 331.911 127.476L332.127 129.06C331.791 129.192 331.449 129.336 331.101 129.492C330.753 129.648 330.411 129.81 330.075 129.978C329.739 130.146 329.415 130.32 329.103 130.5L329.085 130.392C329.625 130.464 330.219 130.62 330.867 130.86C331.527 131.088 332.157 131.394 332.757 131.778C333.369 132.162 333.861 132.612 334.233 133.128L333.873 133.272C333.813 132.96 333.777 132.648 333.765 132.336C333.753 132.024 333.747 131.694 333.747 131.346V125.784ZM343.324 123.804V125.784H341.596V135H339.22V127.008C339.076 126.636 338.872 126.342 338.608 126.126C338.344 125.898 338.002 125.784 337.582 125.784H337.492V123.804H337.852C338.128 123.804 338.386 123.876 338.626 124.02C338.866 124.164 339.088 124.47 339.292 124.938C339.28 124.878 339.262 124.74 339.238 124.524C339.226 124.308 339.22 124.122 339.22 123.966V122.616H341.164L341.578 123.804H343.324ZM354.641 123.804V125.784H352.913V135H350.537C350.093 134.352 349.553 133.782 348.917 133.29C348.293 132.798 347.597 132.39 346.829 132.066C346.061 131.73 345.227 131.49 344.327 131.346L343.427 129.222C344.531 128.61 345.737 128.022 347.045 127.458C348.365 126.882 349.661 126.426 350.933 126.09L350.609 126.684V125.784H342.959V123.804H354.641ZM350.537 127.818L350.915 128.214C350.123 128.442 349.373 128.706 348.665 129.006C347.969 129.294 347.231 129.624 346.451 129.996C346.943 130.092 347.453 130.26 347.981 130.5C348.521 130.728 349.043 131.028 349.547 131.4C350.063 131.772 350.525 132.204 350.933 132.696L350.591 132.894C350.579 132.618 350.567 132.342 350.555 132.066C350.543 131.79 350.537 131.52 350.537 131.256V127.818ZM348.951 139.788C348.543 139.788 348.123 139.71 347.691 139.554C347.247 139.41 346.875 139.176 346.575 138.852C346.275 138.528 346.125 138.096 346.125 137.556C346.125 136.896 346.377 136.368 346.881 135.972C347.373 135.576 348.093 135.378 349.041 135.378C349.905 135.378 350.709 135.486 351.453 135.702C352.197 135.93 352.941 136.266 353.685 136.71C354.429 137.154 355.233 137.712 356.097 138.384L354.819 139.878C354.123 139.242 353.457 138.708 352.821 138.276C352.185 137.844 351.579 137.52 351.003 137.304C350.427 137.088 349.881 136.98 349.365 136.98C348.993 136.98 348.729 137.04 348.573 137.16C348.405 137.28 348.321 137.436 348.321 137.628C348.321 137.844 348.393 138 348.537 138.096C348.681 138.192 348.879 138.24 349.131 138.24C349.431 138.24 349.677 138.168 349.869 138.024C350.049 137.88 350.187 137.694 350.283 137.466C350.379 137.25 350.445 137.016 350.481 136.764C350.517 136.524 350.535 136.296 350.535 136.08V134.712H352.911V135.594C352.911 135.978 352.869 136.41 352.785 136.89C352.689 137.37 352.509 137.826 352.245 138.258C351.969 138.702 351.567 139.068 351.039 139.356C350.511 139.644 349.815 139.788 348.951 139.788ZM366.051 123.804V125.784H364.323V135H361.947V131.22L362.307 132.156C361.935 131.676 361.533 131.238 361.101 130.842C360.669 130.446 360.231 130.128 359.787 129.888C359.355 129.648 358.929 129.528 358.509 129.528C358.209 129.528 357.951 129.6 357.735 129.744C357.531 129.876 357.429 130.092 357.429 130.392C357.429 130.656 357.525 130.878 357.717 131.058C357.909 131.238 358.215 131.412 358.635 131.58L357.573 133.56C356.769 133.248 356.133 132.804 355.665 132.228C355.209 131.64 354.981 130.998 354.981 130.302C354.981 129.654 355.131 129.126 355.431 128.718C355.731 128.298 356.115 127.992 356.583 127.8C357.063 127.596 357.555 127.494 358.059 127.494C358.611 127.494 359.133 127.578 359.625 127.746C360.117 127.914 360.585 128.154 361.029 128.466C361.485 128.766 361.929 129.138 362.361 129.582L362.001 129.762C361.977 129.474 361.959 129.18 361.947 128.88C361.947 128.568 361.947 128.28 361.947 128.016V125.784H354.279V123.804H366.051Z" fill="#FFCA3A"/>
<path d="M11.908 151.804V153.082H10.018V163H8.632C8.272 162.28 7.774 161.62 7.138 161.02C6.514 160.408 5.794 159.892 4.978 159.472C4.162 159.052 3.292 158.77 2.368 158.626L1.666 156.898C2.818 156.202 4.006 155.572 5.23 155.008C6.466 154.444 7.738 153.964 9.046 153.568L8.632 154.324V153.082H0.82V151.804H11.908ZM8.632 154.468L9.01 154.972C8.098 155.272 7.138 155.644 6.13 156.088C5.122 156.52 4.192 157 3.34 157.528C3.988 157.672 4.678 157.918 5.41 158.266C6.142 158.614 6.82 159.052 7.444 159.58C8.068 160.108 8.548 160.72 8.884 161.416H8.722C8.698 161.14 8.674 160.864 8.65 160.588C8.638 160.312 8.632 159.982 8.632 159.598V154.468ZM16.6907 151.804V153.082H14.8007V163H13.4147V154.558C13.2707 154.15 13.0547 153.802 12.7667 153.514C12.4907 153.226 12.1307 153.082 11.6867 153.082H11.5427V151.804H11.8127C12.1007 151.804 12.4007 151.9 12.7127 152.092C13.0247 152.272 13.2767 152.554 13.4687 152.938C13.4567 152.878 13.4447 152.74 13.4327 152.524C13.4207 152.308 13.4147 152.122 13.4147 151.966V150.616H14.3867L14.7827 151.804H16.6907ZM30.6539 160.642V152.758H32.1659V160.642H30.6539ZM27.3779 157.42V155.998H35.4419V157.42H27.3779ZM52.5164 151.804V153.082H44.3444V158.446L44.0924 158.086C44.5724 157.546 45.1184 157.042 45.7304 156.574C46.3424 156.106 47.0084 155.68 47.7284 155.296C48.4484 154.9 49.2164 154.552 50.0324 154.252L51.2024 155.404C50.9744 155.824 50.7884 156.232 50.6444 156.628C50.5124 157.024 50.4104 157.438 50.3384 157.87C50.2784 158.302 50.2484 158.782 50.2484 159.31C50.2484 159.898 50.2964 160.462 50.3924 161.002C50.4884 161.542 50.6504 162.148 50.8784 162.82L49.5284 163.126C49.3124 162.43 49.1444 161.752 49.0244 161.092C48.9044 160.42 48.8444 159.724 48.8444 159.004C48.8444 158.512 48.8804 158.05 48.9524 157.618C49.0244 157.186 49.1204 156.802 49.2404 156.466C49.3724 156.118 49.5044 155.836 49.6364 155.62L49.8524 155.71C49.1684 155.986 48.5024 156.322 47.8544 156.718C47.2064 157.114 46.5704 157.57 45.9464 158.086C45.3224 158.602 44.6804 159.19 44.0204 159.85L42.9584 159.13V153.082H41.3024V151.804H52.5164ZM47.4086 167.788C47.0846 167.788 46.7306 167.716 46.3466 167.572C45.9626 167.44 45.6386 167.224 45.3746 166.924C45.0986 166.624 44.9606 166.222 44.9606 165.718C44.9606 165.106 45.1946 164.614 45.6626 164.242C46.1306 163.882 46.7846 163.702 47.6246 163.702C48.3686 163.702 49.0886 163.834 49.7846 164.098C50.4686 164.374 51.1706 164.752 51.8906 165.232C52.5986 165.712 53.3546 166.27 54.1586 166.906L53.3486 167.878C52.5446 167.206 51.8126 166.648 51.1526 166.204C50.4926 165.76 49.8686 165.424 49.2806 165.196C48.6926 164.968 48.1106 164.854 47.5346 164.854C47.1026 164.854 46.7786 164.938 46.5626 165.106C46.3466 165.274 46.2386 165.49 46.2386 165.754C46.2386 166.09 46.3586 166.324 46.5986 166.456C46.8266 166.6 47.0966 166.672 47.4086 166.672C47.8526 166.672 48.2126 166.576 48.4886 166.384C48.7526 166.204 48.9566 165.976 49.1006 165.7C49.2446 165.424 49.3406 165.136 49.3886 164.836C49.4366 164.548 49.4606 164.29 49.4606 164.062V162.856H50.8466V163.81C50.8466 164.146 50.8106 164.536 50.7386 164.98C50.6546 165.436 50.4986 165.874 50.2706 166.294C50.0306 166.726 49.6826 167.08 49.2266 167.356C48.7706 167.644 48.1646 167.788 47.4086 167.788ZM58.7721 151.804C58.7601 151.312 58.6401 150.958 58.4121 150.742C58.1961 150.526 57.8361 150.418 57.3321 150.418H56.0361C55.2441 150.418 54.6321 150.364 54.2001 150.256C53.7801 150.148 53.4201 149.98 53.1201 149.752C52.7961 149.512 52.5501 149.206 52.3821 148.834C52.2261 148.45 52.1481 148.018 52.1481 147.538C52.1481 147.382 52.1601 147.226 52.1841 147.07C52.1961 146.914 52.2141 146.752 52.2381 146.584L53.5701 146.674C53.5461 146.818 53.5281 146.944 53.5161 147.052C53.5041 147.16 53.4981 147.262 53.4981 147.358C53.4981 147.622 53.5221 147.856 53.5701 148.06C53.6301 148.264 53.7201 148.432 53.8401 148.564C54.0081 148.756 54.2481 148.9 54.5601 148.996C54.8841 149.08 55.3401 149.122 55.9281 149.122H56.9541C57.5901 149.122 58.0941 149.17 58.4661 149.266C58.8381 149.362 59.1561 149.536 59.4201 149.788C59.6241 149.98 59.7801 150.244 59.8881 150.58C59.9961 150.904 60.0561 151.312 60.0681 151.804H58.7721ZM56.6841 154C57.6321 154 58.3941 154.162 58.9701 154.486C59.5581 154.798 59.9901 155.2 60.2661 155.692C60.5421 156.172 60.6801 156.658 60.6801 157.15C60.6801 158.134 60.3321 158.914 59.6361 159.49C58.9521 160.066 57.9321 160.39 56.5761 160.462L56.7561 160.264C57.2961 160.42 57.8661 160.642 58.4661 160.93C59.0661 161.218 59.6721 161.554 60.2841 161.938C60.8961 162.31 61.4841 162.724 62.0481 163.18L61.2201 164.134C60.4761 163.582 59.7921 163.108 59.1681 162.712C58.5561 162.304 57.9501 161.95 57.3501 161.65C56.7501 161.35 56.1141 161.086 55.4421 160.858C54.7701 160.63 54.0081 160.42 53.1561 160.228L53.4261 158.986C53.8461 159.106 54.2481 159.196 54.6321 159.256C55.0281 159.304 55.5021 159.328 56.0541 159.328C56.9061 159.328 57.5601 159.226 58.0161 159.022C58.4841 158.818 58.8081 158.554 58.9881 158.23C59.1681 157.906 59.2581 157.576 59.2581 157.24C59.2581 156.604 59.0241 156.118 58.5561 155.782C58.0881 155.434 57.4941 155.26 56.7741 155.26C56.3421 155.26 55.9941 155.302 55.7301 155.386C55.4661 155.47 55.2741 155.596 55.1541 155.764C55.0461 155.92 54.9921 156.112 54.9921 156.34C54.9921 156.436 55.0041 156.538 55.0281 156.646C55.0521 156.742 55.0761 156.832 55.1001 156.916L53.7861 157.186C53.7261 157.006 53.6781 156.82 53.6421 156.628C53.6061 156.424 53.5881 156.244 53.5881 156.088C53.5881 155.644 53.7201 155.266 53.9841 154.954C54.2481 154.642 54.6081 154.408 55.0641 154.252C55.5321 154.084 56.0721 154 56.6841 154ZM55.4781 154.63C55.4181 154.246 55.2381 153.91 54.9381 153.622C54.6381 153.322 54.2061 153.112 53.6421 152.992L54.0741 152.182L54.9021 152.398C55.5741 152.662 56.0601 152.962 56.3601 153.298C56.6721 153.634 56.8521 154.06 56.9001 154.576L55.4781 154.63ZM62.0481 151.804V153.082H52.1481V151.804H62.0481ZM73.115 151.804V153.082H72.755C72.383 153.166 71.981 153.352 71.549 153.64C71.117 153.916 70.709 154.282 70.325 154.738C69.941 155.182 69.623 155.704 69.371 156.304C69.131 156.904 69.011 157.564 69.011 158.284C69.011 159.148 69.137 159.838 69.389 160.354C69.653 160.858 69.977 161.218 70.361 161.434C70.745 161.65 71.129 161.758 71.513 161.758C71.813 161.758 72.065 161.728 72.269 161.668C72.473 161.608 72.707 161.5 72.971 161.344L73.601 162.442C73.289 162.682 72.947 162.85 72.575 162.946C72.203 163.042 71.825 163.09 71.441 163.09C70.685 163.09 70.019 162.892 69.443 162.496C68.867 162.1 68.411 161.548 68.075 160.84C67.751 160.12 67.589 159.28 67.589 158.32C67.589 157.396 67.733 156.574 68.021 155.854C68.321 155.122 68.705 154.486 69.173 153.946C69.653 153.406 70.169 152.962 70.721 152.614C71.273 152.254 71.807 151.984 72.323 151.804H73.115ZM85.9977 151.804V153.082H84.1077V163H82.7217V155.872L83.1177 157.024C82.6257 156.304 82.1757 155.692 81.7677 155.188C81.3597 154.672 80.9697 154.252 80.5977 153.928C80.2377 153.604 79.8717 153.37 79.4997 153.226C79.1277 153.07 78.7257 152.992 78.2937 152.992C77.8137 152.992 77.3757 153.082 76.9797 153.262C76.5957 153.442 76.2417 153.682 75.9177 153.982C75.5937 154.282 75.2937 154.606 75.0177 154.954L74.8737 154.99C75.0657 154.87 75.2517 154.78 75.4317 154.72C75.6237 154.66 75.8337 154.63 76.0617 154.63C76.7577 154.63 77.2677 154.822 77.5917 155.206C77.9157 155.578 78.0777 156.04 78.0777 156.592C78.0777 156.724 78.0717 156.85 78.0597 156.97C78.0477 157.09 78.0297 157.18 78.0057 157.24L77.6997 157.132C77.8437 156.976 77.9817 156.826 78.1137 156.682C78.2457 156.538 78.3837 156.394 78.5277 156.25C78.6837 156.106 78.8397 155.956 78.9957 155.8L81.2277 153.712L82.1097 154.666L76.9977 159.49L75.9357 158.5L77.4117 157.096L76.7637 157.87L76.2237 158.284C76.4037 158.08 76.5537 157.864 76.6737 157.636C76.8057 157.396 76.8717 157.126 76.8717 156.826C76.8717 156.526 76.7817 156.286 76.6017 156.106C76.4217 155.926 76.1577 155.836 75.8097 155.836C75.6177 155.836 75.4317 155.86 75.2517 155.908C75.0717 155.956 74.8857 156.04 74.6937 156.16L73.3257 154.864C73.8057 154.228 74.2977 153.676 74.8017 153.208C75.3057 152.728 75.8337 152.356 76.3857 152.092C76.9377 151.816 77.5317 151.678 78.1677 151.678C78.8397 151.678 79.4457 151.804 79.9857 152.056C80.5257 152.308 81.0477 152.686 81.5517 153.19C82.0557 153.682 82.5837 154.306 83.1357 155.062L82.8117 154.972C82.7757 154.684 82.7517 154.372 82.7397 154.036C82.7277 153.7 82.7217 153.34 82.7217 152.956V150.616H83.6757L84.0897 151.804H85.9977ZM98.1805 151.804V153.082H96.2905V163H94.9045V153.784L94.9945 153.424C94.9585 153.22 94.9345 153.01 94.9225 152.794C94.9105 152.578 94.9045 152.338 94.9045 152.074V150.616H95.8585L96.2905 151.804H98.1805ZM92.3125 151.678C92.7805 151.678 93.2125 151.768 93.6085 151.948C94.0045 152.128 94.3585 152.38 94.6705 152.704C94.9825 153.028 95.2345 153.406 95.4265 153.838L95.3545 155.728C94.9825 154.864 94.5445 154.192 94.0405 153.712C93.5365 153.232 92.9725 152.992 92.3485 152.992C91.8805 152.992 91.5025 153.124 91.2145 153.388C90.9265 153.64 90.7825 154.018 90.7825 154.522C90.7825 155.002 90.9745 155.398 91.3585 155.71C91.7545 156.01 92.3845 156.178 93.2485 156.214L93.1225 157.6C92.3305 157.552 91.6765 157.39 91.1605 157.114C90.6565 156.838 90.2845 156.478 90.0445 156.034C89.8045 155.578 89.6845 155.056 89.6845 154.468C89.6845 153.832 89.8105 153.31 90.0625 152.902C90.3145 152.482 90.6385 152.176 91.0345 151.984C91.4425 151.78 91.8685 151.678 92.3125 151.678ZM87.2005 151.678C87.7045 151.678 88.1785 151.78 88.6225 151.984C89.0785 152.188 89.4505 152.512 89.7385 152.956C90.0265 153.4 90.1705 153.982 90.1705 154.702C90.1705 155.194 90.0505 155.662 89.8105 156.106C89.5705 156.55 89.1985 156.91 88.6945 157.186C88.2025 157.462 87.5665 157.6 86.7865 157.6L86.6785 156.214C87.2905 156.202 87.7705 156.118 88.1185 155.962C88.4665 155.794 88.7125 155.584 88.8565 155.332C89.0005 155.08 89.0725 154.828 89.0725 154.576C89.0725 154.084 88.9165 153.7 88.6045 153.424C88.2925 153.136 87.8185 152.992 87.1825 152.992C86.9665 152.992 86.7505 153.01 86.5345 153.046C86.3305 153.07 86.0845 153.118 85.7965 153.19L85.6525 151.84C85.9525 151.78 86.2165 151.738 86.4445 151.714C86.6845 151.69 86.9365 151.678 87.2005 151.678ZM108.87 155.278V153.856H116.934V155.278H108.87ZM108.87 159.544V158.122H116.934V159.544H108.87ZM133.883 151.804V153.082H131.993V163H130.607C130.247 162.28 129.749 161.62 129.113 161.02C128.489 160.408 127.769 159.892 126.953 159.472C126.137 159.052 125.267 158.77 124.343 158.626L123.641 156.898C124.793 156.202 125.981 155.572 127.205 155.008C128.441 154.444 129.713 153.964 131.021 153.568L130.607 154.324V153.082H122.795V151.804H133.883ZM130.607 154.468L130.985 154.972C130.073 155.272 129.113 155.644 128.105 156.088C127.097 156.52 126.167 157 125.315 157.528C125.963 157.672 126.653 157.918 127.385 158.266C128.117 158.614 128.795 159.052 129.419 159.58C130.043 160.108 130.523 160.72 130.859 161.416H130.697C130.673 161.14 130.649 160.864 130.625 160.588C130.613 160.312 130.607 159.982 130.607 159.598V154.468ZM128.549 167.788C128.225 167.788 127.871 167.716 127.487 167.572C127.103 167.44 126.779 167.224 126.515 166.924C126.239 166.624 126.101 166.222 126.101 165.718C126.101 165.106 126.335 164.614 126.803 164.242C127.271 163.882 127.925 163.702 128.765 163.702C129.509 163.702 130.229 163.834 130.925 164.098C131.609 164.374 132.311 164.752 133.031 165.232C133.739 165.712 134.495 166.27 135.299 166.906L134.489 167.878C133.685 167.206 132.953 166.648 132.293 166.204C131.633 165.76 131.009 165.424 130.421 165.196C129.833 164.968 129.251 164.854 128.675 164.854C128.243 164.854 127.919 164.938 127.703 165.106C127.487 165.274 127.379 165.49 127.379 165.754C127.379 166.09 127.499 166.324 127.739 166.456C127.967 166.6 128.237 166.672 128.549 166.672C128.993 166.672 129.353 166.576 129.629 166.384C129.893 166.204 130.097 165.976 130.241 165.7C130.385 165.424 130.481 165.136 130.529 164.836C130.577 164.548 130.601 164.29 130.601 164.062V162.856H131.987V163.81C131.987 164.146 131.951 164.536 131.879 164.98C131.795 165.436 131.639 165.874 131.411 166.294C131.171 166.726 130.823 167.08 130.367 167.356C129.911 167.644 129.305 167.788 128.549 167.788ZM144.749 151.804V153.082H142.859V163H141.473V158.626L141.761 159.634C141.365 159.082 140.933 158.584 140.465 158.14C139.997 157.696 139.517 157.342 139.025 157.078C138.533 156.814 138.053 156.682 137.585 156.682C137.141 156.682 136.763 156.802 136.451 157.042C136.151 157.27 136.001 157.612 136.001 158.068C136.001 158.428 136.127 158.74 136.379 159.004C136.631 159.256 137.021 159.484 137.549 159.688L136.865 160.966C136.133 160.666 135.557 160.264 135.137 159.76C134.729 159.244 134.525 158.662 134.525 158.014C134.525 157.426 134.663 156.94 134.939 156.556C135.227 156.16 135.587 155.866 136.019 155.674C136.463 155.482 136.913 155.386 137.369 155.386C137.993 155.386 138.563 155.494 139.079 155.71C139.595 155.926 140.075 156.22 140.519 156.592C140.975 156.964 141.407 157.396 141.815 157.888L141.563 157.96C141.527 157.684 141.503 157.414 141.491 157.15C141.479 156.874 141.473 156.598 141.473 156.322V153.082H133.517V151.804H144.749Z" fill="#F5F9FA"/>
<path d="M222.187 46.926C222.437 46.9491 222.67 46.9664 222.885 46.9779C223.097 46.9894 223.317 46.9952 223.543 46.9952C224.401 46.9952 225.135 46.8938 225.745 46.6913C225.745 46.5785 225.728 46.4209 225.694 46.2183C225.661 46.0158 225.627 45.8029 225.593 45.5796C225.558 45.3541 225.525 45.1285 225.492 44.9029C225.458 44.6796 225.44 44.4783 225.44 44.2988C225.44 43.6244 225.508 42.9212 225.645 42.1893C225.779 41.4597 225.959 40.7519 226.186 40.066C226.41 39.3801 226.675 38.7506 226.98 38.1775C227.285 37.6044 227.618 37.1602 227.979 36.8449C228.996 35.9242 230.362 35.4639 232.078 35.4639C232.325 35.4639 232.517 35.4466 232.653 35.4121C232.79 35.3798 232.982 35.3971 233.229 35.4639C233.476 35.5306 233.843 35.6767 234.328 35.9023C234.814 36.1279 235.553 36.5099 236.548 37.0485C238.353 38.0382 239.268 38.6228 239.291 38.8024L239.225 39.2063C239.179 39.2731 239.116 39.3571 239.037 39.4584C238.959 39.5596 238.863 39.6103 238.75 39.6103C238.592 39.6103 238.276 39.5596 237.8 39.4584C237.326 39.3571 236.818 39.2455 236.277 39.1235C235.736 38.9992 235.217 38.8864 234.72 38.7851C234.223 38.6838 233.873 38.6333 233.669 38.6333C231.977 38.6333 230.137 39.2179 228.149 40.3871C227.945 40.5666 227.844 40.7692 227.844 40.9947C227.844 41.6231 228.431 42.3872 229.605 43.2872C230.125 43.69 230.599 44.0156 231.027 44.2642C231.457 44.5105 231.875 44.7016 232.282 44.8374C232.687 44.9709 233.093 45.0663 233.499 45.1238C233.906 45.1791 234.335 45.2068 234.786 45.2068C236.344 45.2068 238.016 44.7234 239.801 43.7567C240.815 43.1951 241.634 42.7681 242.256 42.4758C242.875 42.1835 243.32 42.0155 243.591 41.9717L243.931 42.1064C243.977 42.1962 244 42.2975 244 42.4103C244 42.6565 243.92 43.0444 243.761 43.5738C243.603 44.1008 243.423 44.6509 243.22 45.224C243.016 45.7972 242.813 46.3253 242.609 46.8087C242.406 47.292 242.271 47.5901 242.204 47.7029C241.82 48.2875 240.911 48.8998 239.478 49.5396C238.045 50.1795 236.085 50.8815 233.6 51.6456C229.018 53.0634 225.812 53.7723 223.984 53.7723H222.187C221.783 53.0519 221.473 52.4109 221.258 51.8493C221.043 51.2877 220.936 50.7479 220.936 50.2301C220.936 49.7145 221.037 49.1978 221.241 48.6799C221.444 48.162 221.76 47.5774 222.187 46.926ZM237.734 17.2624C237.62 17.488 237.389 17.9943 237.04 18.7815C236.689 19.5687 236.219 20.6469 235.632 22.0164C232.449 24.1086 228.013 26.6036 222.326 29.5014C222.437 29.1423 222.663 28.5693 223.003 27.7821C223.34 26.9972 223.769 25.9753 224.289 24.7163C226.344 23.5701 228.488 22.3836 230.722 21.1568C232.957 19.9323 235.295 18.6342 237.734 17.2624ZM223.488 53.7723C222.383 53.5928 221.356 53.2775 220.408 52.8264C219.481 52.3776 218.646 51.9287 217.901 51.4799C217.157 51.0287 216.452 50.5281 215.786 49.978C215.12 49.428 214.476 48.81 213.855 48.1241C213.235 47.4382 212.597 46.6234 211.94 45.6797C211.399 47.2748 210.925 48.6961 210.518 49.9436C210.111 51.1911 209.722 52.2924 209.35 53.2476C208.978 54.2028 208.594 55.0117 208.198 55.6746C207.803 56.3398 207.358 56.8796 206.863 57.2939C206.366 57.7105 205.785 58.0143 205.119 58.2053C204.453 58.3963 203.668 58.4919 202.765 58.4919C201.84 58.4919 200.992 58.2617 200.223 57.8013C199.455 57.3387 198.762 56.7656 198.142 56.0821C197.52 55.3962 196.989 54.6539 196.55 53.8552C196.109 53.0566 195.764 52.32 195.517 51.6456C195.403 51.3556 195.235 50.7319 195.01 49.7744C194.784 48.8192 194.552 47.7133 194.313 46.4566C194.078 45.1976 193.87 43.8937 193.689 42.5449C193.509 41.1961 193.419 39.9935 193.419 38.937C193.419 38.4652 193.441 38.0659 193.485 37.7391C193.531 37.4145 193.576 37.0048 193.62 36.5099L193.755 36.3753C193.824 36.419 193.859 36.4639 193.859 36.5099C194.92 41.5897 195.631 44.6463 195.992 45.6797C197.504 49.8825 199.683 51.9839 202.529 51.9839C203.701 51.9839 204.766 51.7307 205.726 51.2244C206.685 50.7203 207.493 50.0748 208.15 49.2876C208.804 48.5005 209.312 47.635 209.672 46.6913C210.033 45.7476 210.213 44.8374 210.213 43.9604C210.146 43.9604 208.995 40.814 206.759 34.5213C206.692 33.6881 206.659 32.8675 206.659 32.0597C206.659 31.6983 206.67 31.2875 206.694 30.8271C206.714 30.3668 206.742 29.9284 206.777 29.5118C206.811 29.0975 206.862 28.75 206.929 28.4692C206.996 28.1884 207.064 28.0479 207.134 28.0479C207.224 28.0479 207.297 28.1204 207.352 28.2654C207.41 28.4104 207.45 28.5393 207.47 28.6521C209.683 35.1704 212.279 39.9693 215.259 43.049C216.23 43.7901 217.111 44.3977 217.901 44.8718C218.692 45.3437 219.409 45.72 220.051 46.0008C220.696 46.2816 221.295 46.4946 221.848 46.6396C222.4 46.7869 222.947 46.9054 223.488 46.9952C223.691 46.9952 223.889 47.1067 224.081 47.33C224.273 47.5556 224.443 47.8536 224.591 48.2242C224.736 48.5948 224.86 49.0114 224.962 49.474C225.064 49.9343 225.114 50.4004 225.114 50.8723C225.114 51.5236 224.991 52.1244 224.743 52.6745C224.494 53.2269 224.075 53.5928 223.488 53.7723ZM208.046 24.2709L203.07 19.2786L208.046 14.3243L213.06 19.2786L208.046 24.2709ZM213.459 0C213.346 0.225562 213.115 0.731934 212.766 1.5191C212.414 2.30627 211.945 3.38453 211.358 4.75401C208.174 6.84621 203.739 9.3412 198.052 12.239C198.163 11.8799 198.388 11.3069 198.728 10.5197C199.066 9.73483 199.494 8.7129 200.014 7.45389C202.07 6.30767 204.214 5.12115 206.447 3.89437C208.683 2.66989 211.02 1.37179 213.459 0ZM186.521 23.9671C186.274 24.7542 185.698 25.2825 184.794 25.5518C184.794 26.0237 184.829 26.6416 184.898 27.4058C184.965 28.1699 185.05 29.0077 185.151 29.9191C185.253 30.8283 185.365 31.772 185.488 32.7502C185.613 33.7284 185.732 34.6606 185.845 35.5467C185.958 36.4351 186.054 37.2396 186.133 37.96C186.212 38.6781 186.251 39.2397 186.251 39.6448V40.7565C186.251 41.7692 186.235 42.8141 186.202 43.8913C186.168 44.9708 186.094 46.1067 185.98 47.2989C185.573 49.5453 185.156 51.2474 184.728 52.4052C184.298 53.5629 183.858 54.1417 183.407 54.1417C183.34 54.1417 183.295 54.1084 183.272 54.0416C183.406 53.2084 183.473 52.1635 183.473 50.9068C183.473 46.7247 183.277 42.5829 182.884 38.4813C182.488 34.3798 181.917 30.2494 181.17 26.0903C181.08 25.6645 181.035 25.103 181.035 24.4056C181.035 23.6184 181.08 22.8151 181.17 21.9958C181.261 21.1741 181.374 20.4317 181.51 19.7688C181.647 19.106 181.805 18.5605 181.986 18.1324C182.166 17.7066 182.346 17.4937 182.527 17.4937C182.91 17.4937 183.271 18.2245 183.608 19.686C184.512 21.6401 185.483 23.0671 186.521 23.9671ZM175.456 40.0142C175.456 40.8014 175.366 41.6668 175.185 42.6104C175.005 43.5541 174.778 44.4587 174.505 45.3241C174.235 46.1896 173.942 46.9433 173.628 47.5855C173.311 48.2254 173.018 48.635 172.747 48.8145C171.98 49.4452 171.025 50.0413 169.883 50.6029C168.743 51.1646 167.462 51.6583 166.041 52.0841C164.619 52.5122 163.089 52.8552 161.453 53.113C159.816 53.3731 158.117 53.503 156.355 53.503C155.271 53.503 154.17 53.4179 153.054 53.2476C151.937 53.0796 150.825 52.9058 149.718 52.7263C147.912 52.457 146.287 51.9621 144.842 51.2416C143.397 50.5235 142.166 49.5799 141.149 48.4107C140.134 47.2415 139.356 45.8592 138.815 44.2642C138.272 42.6668 138 40.8681 138 38.868C138 38.4652 138.062 37.9485 138.187 37.3178C138.312 36.6895 138.465 36.06 138.645 35.4293C138.825 34.801 139.017 34.2451 139.221 33.7618C139.424 33.2784 139.616 32.9688 139.796 32.833H140.237C140.371 32.9021 140.438 33.138 140.438 33.5408C140.438 35.4512 140.224 37.014 139.796 38.2293V38.4986C139.796 42.1398 143.127 44.7464 149.787 46.3184C151.322 46.7028 152.767 46.9733 154.122 47.1298C155.476 47.2863 156.763 47.3646 157.981 47.3646C161.322 47.3646 164.291 46.9663 166.887 46.17C169.483 45.3713 171.65 44.2193 173.389 42.714L173.524 42.3757C172.733 40.9602 171.921 39.0498 171.086 36.6446C171.086 36.5985 171.08 36.5422 171.069 36.4755C171.057 36.4087 171.052 36.3304 171.052 36.2406C171.052 35.8355 171.075 35.3465 171.121 34.7734C171.165 34.2002 171.216 33.6605 171.273 33.1542C171.329 32.6478 171.386 32.2151 171.443 31.856C171.499 31.4969 171.55 31.3174 171.596 31.3174C171.776 31.3174 172.137 31.6879 172.678 32.4291C174.53 35.0368 175.456 37.5653 175.456 40.0142ZM157.576 68L152.596 63.0078L157.576 58.0535L162.587 63.0078L157.576 68ZM162.368 14.0826C162.368 14.8675 162.211 15.6765 161.897 16.5097C161.58 17.3406 161.139 18.1612 160.575 18.9714C160.011 19.7792 159.351 20.5492 158.595 21.2811C157.837 22.0107 157.007 22.6793 156.105 23.287C155.201 23.8923 154.258 24.4147 153.276 24.8543C152.295 25.2916 151.308 25.6116 150.314 25.8142H150.245C150.155 25.8142 150.11 25.7463 150.11 25.6105C150.11 24.9154 150.912 23.9717 152.516 22.7794C153.598 21.9923 154.422 21.38 154.989 20.9427C155.553 20.5031 155.892 20.2384 156.005 20.1487V19.7102C154.944 18.5432 154.413 17.1956 154.413 15.6673C154.413 14.993 154.519 14.3186 154.732 13.6442C154.947 12.9698 155.246 12.3621 155.63 11.8212C156.014 11.2826 156.488 10.8442 157.052 10.5059C157.616 10.1699 158.237 10.0018 158.914 10.0018C161.217 10.0018 162.368 11.362 162.368 14.0826ZM155.224 7.57474C155.405 7.59776 155.495 7.72088 155.495 7.94414C155.495 8.21343 155.405 8.41596 155.224 8.55176L149.739 14.6212C149.241 15.1828 148.993 15.8227 148.993 16.5408C148.993 17.8458 149.478 18.4984 150.449 18.4984C151.037 18.4984 151.635 18.1048 152.246 17.3176C152.313 17.2278 152.38 17.183 152.447 17.183C152.583 17.183 152.651 17.3855 152.651 17.7906C152.651 18.0599 152.505 18.4639 152.211 19.0024C151.917 19.5433 151.545 20.0831 151.094 20.6216C150.641 21.1625 150.15 21.6344 149.621 22.0372C149.089 22.4423 148.586 22.6448 148.112 22.6448C146.623 22.6448 145.879 21.6666 145.879 19.7102C145.879 18.1151 147.132 15.5983 149.638 12.1596C151.894 9.05702 153.621 7.50563 154.819 7.50563C154.909 7.50563 155.044 7.52871 155.224 7.57474ZM160.371 16.5408C160.597 16.2508 160.711 15.9148 160.711 15.5327C160.711 15.1943 160.632 14.8905 160.475 14.6212C160.315 14.3519 160.106 14.1218 159.847 13.9308C159.588 13.7397 159.289 13.5878 158.949 13.475C158.611 13.3622 158.273 13.3059 157.933 13.3059C156.647 13.3059 156.005 13.7892 156.005 14.7559C156.005 15.0712 156.083 15.3693 156.241 15.6501C156.398 15.9309 156.607 16.1725 156.868 16.375C157.127 16.5776 157.415 16.7399 157.732 16.8619C158.046 16.9862 158.373 17.0483 158.713 17.0483C159.231 17.0483 159.783 16.8791 160.371 16.5408Z" fill="#F5F9FA"/>
</svg>
