<svg width="269" height="172" viewBox="0 0 269 172" fill="none" xmlns="http://www.w3.org/2000/svg">
<path d="M192 170.33C198.762 167.982 202.143 162.935 202.143 155.188V146.728C202.143 140.241 204.655 136.356 209.679 135.073C204.655 133.886 202.143 130.001 202.143 123.417V115.175C202.143 106.993 198.821 101.813 192.179 99.634L192.679 98C196.488 99.2103 199.321 101.183 201.179 103.919C203.06 106.63 204.024 110.176 204.071 114.557V123.599C204.071 130.449 207.048 133.874 213 133.874V136.271C207.048 136.271 204.071 139.72 204.071 146.619V155.225C204.071 159.727 203.131 163.334 201.25 166.045C199.393 168.781 196.536 170.765 192.679 172L192 170.33Z" fill="#F5F9FA"/>
<path d="M5.356 103C6.304 103 7.066 103.162 7.642 103.486C8.23 103.798 8.662 104.2 8.938 104.692C9.214 105.172 9.352 105.658 9.352 106.15C9.352 107.134 9.004 107.914 8.308 108.49C7.624 109.066 6.604 109.39 5.248 109.462L5.428 109.264C5.968 109.42 6.538 109.642 7.138 109.93C7.738 110.218 8.344 110.554 8.956 110.938C9.568 111.31 10.156 111.724 10.72 112.18L9.892 113.134C9.148 112.582 8.464 112.108 7.84 111.712C7.228 111.304 6.622 110.95 6.022 110.65C5.422 110.35 4.786 110.086 4.114 109.858C3.442 109.63 2.68 109.42 1.828 109.228L2.098 107.986C2.518 108.106 2.92 108.196 3.304 108.256C3.7 108.304 4.174 108.328 4.726 108.328C5.578 108.328 6.232 108.226 6.688 108.022C7.156 107.818 7.48 107.554 7.66 107.23C7.84 106.906 7.93 106.576 7.93 106.24C7.93 105.604 7.696 105.118 7.228 104.782C6.76 104.434 6.166 104.26 5.446 104.26C5.014 104.26 4.666 104.302 4.402 104.386C4.138 104.47 3.946 104.596 3.826 104.764C3.718 104.92 3.664 105.112 3.664 105.34C3.664 105.436 3.676 105.538 3.7 105.646C3.724 105.742 3.748 105.832 3.772 105.916L2.458 106.186C2.398 106.006 2.35 105.82 2.314 105.628C2.278 105.424 2.26 105.244 2.26 105.088C2.26 104.644 2.392 104.266 2.656 103.954C2.92 103.642 3.28 103.408 3.736 103.252C4.204 103.084 4.744 103 5.356 103ZM4.15 103.63C4.09 103.246 3.91 102.91 3.61 102.622C3.31 102.322 2.878 102.112 2.314 101.992L2.746 101.182L3.574 101.398C4.246 101.662 4.732 101.962 5.032 102.298C5.344 102.634 5.524 103.06 5.572 103.576L4.15 103.63ZM10.72 100.804V102.082H0.82V100.804H10.72ZM15.5129 100.804V102.082H13.6229V112H12.2369V103.558C12.0929 103.15 11.8769 102.802 11.5889 102.514C11.3129 102.226 10.9529 102.082 10.5089 102.082H10.3649V100.804H10.6349C10.9229 100.804 11.2229 100.9 11.5349 101.092C11.8469 101.272 12.0989 101.554 12.2909 101.938C12.2789 101.878 12.2669 101.74 12.2549 101.524C12.2429 101.308 12.2369 101.122 12.2369 100.966V99.616H13.2089L13.6049 100.804H15.5129ZM26.7022 100.804V102.082H24.8122V112H23.4262V109.57L23.7502 110.524C23.3302 109.888 22.9042 109.3 22.4722 108.76C22.0522 108.22 21.6022 107.782 21.1222 107.446C20.6542 107.11 20.1382 106.942 19.5742 106.942C19.1302 106.942 18.7522 107.056 18.4402 107.284C18.1402 107.512 17.9902 107.854 17.9902 108.31C17.9902 108.706 18.1342 109.042 18.4222 109.318C18.7102 109.582 19.1362 109.81 19.7002 110.002L19.2502 111.388C18.6022 111.16 18.0742 110.884 17.6662 110.56C17.2702 110.236 16.9762 109.882 16.7842 109.498C16.6042 109.102 16.5142 108.688 16.5142 108.256C16.5142 107.68 16.6522 107.2 16.9282 106.816C17.2162 106.432 17.5762 106.144 18.0082 105.952C18.4522 105.748 18.8962 105.646 19.3402 105.646C20.0602 105.646 20.6902 105.778 21.2302 106.042C21.7822 106.306 22.2622 106.66 22.6702 107.104C23.0902 107.548 23.4682 108.046 23.8042 108.598L23.4982 108.652C23.4742 108.376 23.4562 108.1 23.4442 107.824C23.4322 107.536 23.4262 107.242 23.4262 106.942V102.082H15.1462V100.804H26.7022ZM20.7082 106.186C20.7082 106.258 20.7022 106.33 20.6902 106.402C20.6902 106.474 20.6842 106.546 20.6722 106.618L19.3042 106.204C19.2802 105.508 19.1602 104.95 18.9442 104.53C18.7282 104.11 18.3862 103.792 17.9182 103.576C17.4502 103.348 16.8142 103.192 16.0102 103.108L16.2442 101.812L17.0722 102.046C17.6482 102.094 18.1582 102.214 18.6022 102.406C19.0582 102.586 19.4422 102.844 19.7542 103.18C20.0662 103.516 20.3002 103.936 20.4562 104.44C20.6242 104.932 20.7082 105.514 20.7082 106.186ZM33.7414 110.866C33.0334 110.866 32.3554 110.74 31.7074 110.488C31.0594 110.236 30.4474 109.834 29.8714 109.282C29.3074 108.718 28.7854 107.974 28.3054 107.05C27.8374 106.114 27.4174 104.974 27.0454 103.63L28.4134 103.27C28.8214 104.746 29.2774 105.946 29.7814 106.87C30.2854 107.782 30.8674 108.448 31.5274 108.868C32.1874 109.288 32.9434 109.498 33.7954 109.498C34.6834 109.498 35.3554 109.306 35.8114 108.922C36.2674 108.538 36.4954 107.956 36.4954 107.176C36.4954 106.804 36.4474 106.486 36.3514 106.222C36.2554 105.958 36.1594 105.736 36.0634 105.556H37.1434C36.8074 105.904 36.4534 106.216 36.0814 106.492C35.7214 106.768 35.3314 106.984 34.9114 107.14C34.5034 107.296 34.0534 107.374 33.5614 107.374C33.0934 107.374 32.6794 107.284 32.3194 107.104C31.9594 106.924 31.6774 106.666 31.4734 106.33C31.2694 105.982 31.1674 105.568 31.1674 105.088C31.1674 104.56 31.3534 104.026 31.7254 103.486C32.0974 102.934 32.7274 102.454 33.6154 102.046C33.3754 102.058 33.0994 102.07 32.7874 102.082C32.4874 102.082 32.1874 102.082 31.8874 102.082H26.3434V100.804H43.2094V102.082H37.5754C37.2874 102.082 37.0294 102.076 36.8014 102.064C36.5734 102.052 36.3574 102.04 36.1534 102.028C35.1454 102.484 34.3834 102.898 33.8674 103.27C33.3514 103.642 33.0034 103.984 32.8234 104.296C32.6434 104.596 32.5534 104.884 32.5534 105.16C32.5534 105.496 32.6494 105.736 32.8414 105.88C33.0334 106.024 33.2494 106.096 33.4894 106.096C33.9454 106.096 34.3534 105.994 34.7134 105.79C35.0734 105.574 35.4814 105.268 35.9374 104.872L37.4854 105.43C37.5934 105.67 37.6834 105.97 37.7554 106.33C37.8274 106.678 37.8634 107.044 37.8634 107.428C37.8634 108.028 37.7254 108.592 37.4494 109.12C37.1854 109.636 36.7474 110.056 36.1354 110.38C35.5354 110.704 34.7374 110.866 33.7414 110.866ZM40.9414 108.31C40.9414 108.898 40.9894 109.462 41.0854 110.002C41.1814 110.542 41.3434 111.148 41.5714 111.82L40.2214 112.126C40.0054 111.43 39.8374 110.752 39.7174 110.092C39.5974 109.42 39.5374 108.724 39.5374 108.004C39.5374 107.368 39.5914 106.798 39.6994 106.294C39.8194 105.79 39.9574 105.364 40.1134 105.016C39.2014 105.004 38.4214 104.89 37.7734 104.674C37.1374 104.446 36.6034 104.128 36.1714 103.72C35.7394 103.3 35.3734 102.802 35.0734 102.226L36.4414 101.938C36.6334 102.286 36.8734 102.598 37.1614 102.874C37.4614 103.138 37.8454 103.348 38.3134 103.504C38.7814 103.66 39.3574 103.738 40.0414 103.738C40.2094 103.738 40.3714 103.732 40.5274 103.72C40.6834 103.708 40.8514 103.696 41.0314 103.684L41.7334 104.944C41.4454 105.484 41.2414 106.012 41.1214 106.528C41.0014 107.044 40.9414 107.638 40.9414 108.31ZM47.9973 100.804V102.082H46.1073V112H44.7213V103.558C44.5773 103.15 44.3613 102.802 44.0733 102.514C43.7973 102.226 43.4373 102.082 42.9933 102.082H42.8493V100.804H43.1193C43.4073 100.804 43.7073 100.9 44.0193 101.092C44.3313 101.272 44.5833 101.554 44.7753 101.938C44.7633 101.878 44.7513 101.74 44.7393 101.524C44.7273 101.308 44.7213 101.122 44.7213 100.966V99.616H45.6933L46.0893 100.804H47.9973ZM61.9605 109.642V101.758H63.4725V109.642H61.9605ZM58.6845 106.42V104.998H66.7485V106.42H58.6845ZM79.1971 100.804V102.082H78.8371C78.4651 102.166 78.0631 102.352 77.6311 102.64C77.1991 102.916 76.7911 103.282 76.4071 103.738C76.0231 104.182 75.7051 104.704 75.4531 105.304C75.2131 105.904 75.0931 106.564 75.0931 107.284C75.0931 108.148 75.2191 108.838 75.4711 109.354C75.7351 109.858 76.0591 110.218 76.4431 110.434C76.8271 110.65 77.2111 110.758 77.5951 110.758C77.8951 110.758 78.1471 110.728 78.3511 110.668C78.5551 110.608 78.7891 110.5 79.0531 110.344L79.6831 111.442C79.3711 111.682 79.0291 111.85 78.6571 111.946C78.2851 112.042 77.9071 112.09 77.5231 112.09C76.7671 112.09 76.1011 111.892 75.5251 111.496C74.9491 111.1 74.4931 110.548 74.1571 109.84C73.8331 109.12 73.6711 108.28 73.6711 107.32C73.6711 106.396 73.8151 105.574 74.1031 104.854C74.4031 104.122 74.7871 103.486 75.2551 102.946C75.7351 102.406 76.2511 101.962 76.8031 101.614C77.3551 101.254 77.8891 100.984 78.4051 100.804H79.1971ZM90.4597 100.804V102.082H88.5697V112H87.1837C86.6797 111.328 86.1217 110.74 85.5097 110.236C84.8977 109.72 84.1897 109.288 83.3857 108.94C82.5817 108.592 81.6277 108.34 80.5237 108.184L79.8757 106.546C80.2477 106.294 80.6377 106.054 81.0457 105.826C81.4537 105.598 81.8677 105.376 82.2877 105.16C82.7197 104.944 83.1397 104.74 83.5477 104.548C83.0917 104.2 82.5637 103.894 81.9637 103.63C81.3757 103.354 80.6797 103.132 79.8757 102.964L80.4337 101.74L80.4697 102.082H78.8317V100.804H90.4597ZM87.1837 102.082H81.4417L81.0637 101.92C81.5677 102.04 82.0717 102.232 82.5757 102.496C83.0917 102.76 83.5657 103.048 83.9977 103.36C84.4417 103.66 84.7957 103.948 85.0597 104.224L85.1497 105.232C84.7177 105.424 84.2617 105.634 83.7817 105.862C83.3137 106.09 82.8577 106.318 82.4137 106.546C81.9817 106.774 81.5977 107.002 81.2617 107.23L81.0457 106.96C82.0777 107.104 82.9777 107.344 83.7457 107.68C84.5257 108.016 85.2157 108.424 85.8157 108.904C86.4157 109.384 86.9677 109.918 87.4717 110.506L87.2377 110.578C87.2257 110.326 87.2137 110.056 87.2017 109.768C87.1897 109.468 87.1837 109.186 87.1837 108.922V102.082ZM101.187 100.804V102.082H99.2973V112H97.9113C97.5513 111.28 97.0533 110.62 96.4173 110.02C95.7933 109.408 95.0733 108.892 94.2573 108.472C93.4413 108.052 92.5713 107.77 91.6473 107.626L90.9453 105.898C92.0973 105.202 93.2853 104.572 94.5093 104.008C95.7453 103.444 97.0173 102.964 98.3253 102.568L97.9113 103.324V102.082H90.0993V100.804H101.187ZM97.9113 103.468L98.2893 103.972C97.3773 104.272 96.4173 104.644 95.4093 105.088C94.4013 105.52 93.4713 106 92.6193 106.528C93.2673 106.672 93.9573 106.918 94.6893 107.266C95.4213 107.614 96.0993 108.052 96.7233 108.58C97.3473 109.108 97.8273 109.72 98.1633 110.416H98.0013C97.9773 110.14 97.9533 109.864 97.9293 109.588C97.9173 109.312 97.9113 108.982 97.9113 108.598V103.468ZM93.6093 112.108C93.3093 112.108 93.0513 112.012 92.8353 111.82C92.6313 111.628 92.5293 111.376 92.5293 111.064C92.5293 110.752 92.6313 110.494 92.8353 110.29C93.0513 110.086 93.3093 109.984 93.6093 109.984C93.9093 109.984 94.1613 110.086 94.3653 110.29C94.5813 110.494 94.6893 110.752 94.6893 111.064C94.6893 111.376 94.5813 111.628 94.3653 111.82C94.1613 112.012 93.9093 112.108 93.6093 112.108ZM111.876 104.278V102.856H119.94V104.278H111.876ZM111.876 108.544V107.122H119.94V108.544H111.876ZM132.424 100.804C132.412 100.312 132.292 99.958 132.064 99.742C131.848 99.526 131.488 99.418 130.984 99.418H129.688C128.896 99.418 128.284 99.364 127.852 99.256C127.432 99.148 127.072 98.98 126.772 98.752C126.448 98.512 126.202 98.206 126.034 97.834C125.878 97.45 125.8 97.018 125.8 96.538C125.8 96.382 125.812 96.226 125.836 96.07C125.848 95.914 125.866 95.752 125.89 95.584L127.222 95.674C127.198 95.818 127.18 95.944 127.168 96.052C127.156 96.16 127.15 96.262 127.15 96.358C127.15 96.622 127.174 96.856 127.222 97.06C127.282 97.264 127.372 97.432 127.492 97.564C127.66 97.756 127.9 97.9 128.212 97.996C128.536 98.08 128.992 98.122 129.58 98.122H130.606C131.242 98.122 131.746 98.17 132.118 98.266C132.49 98.362 132.808 98.536 133.072 98.788C133.276 98.98 133.432 99.244 133.54 99.58C133.648 99.904 133.708 100.312 133.72 100.804H132.424ZM130.336 103C131.284 103 132.046 103.162 132.622 103.486C133.21 103.798 133.642 104.2 133.918 104.692C134.194 105.172 134.332 105.658 134.332 106.15C134.332 107.134 133.984 107.914 133.288 108.49C132.604 109.066 131.584 109.39 130.228 109.462L130.408 109.264C130.948 109.42 131.518 109.642 132.118 109.93C132.718 110.218 133.324 110.554 133.936 110.938C134.548 111.31 135.136 111.724 135.7 112.18L134.872 113.134C134.128 112.582 133.444 112.108 132.82 111.712C132.208 111.304 131.602 110.95 131.002 110.65C130.402 110.35 129.766 110.086 129.094 109.858C128.422 109.63 127.66 109.42 126.808 109.228L127.078 107.986C127.498 108.106 127.9 108.196 128.284 108.256C128.68 108.304 129.154 108.328 129.706 108.328C130.558 108.328 131.212 108.226 131.668 108.022C132.136 107.818 132.46 107.554 132.64 107.23C132.82 106.906 132.91 106.576 132.91 106.24C132.91 105.604 132.676 105.118 132.208 104.782C131.74 104.434 131.146 104.26 130.426 104.26C129.994 104.26 129.646 104.302 129.382 104.386C129.118 104.47 128.926 104.596 128.806 104.764C128.698 104.92 128.644 105.112 128.644 105.34C128.644 105.436 128.656 105.538 128.68 105.646C128.704 105.742 128.728 105.832 128.752 105.916L127.438 106.186C127.378 106.006 127.33 105.82 127.294 105.628C127.258 105.424 127.24 105.244 127.24 105.088C127.24 104.644 127.372 104.266 127.636 103.954C127.9 103.642 128.26 103.408 128.716 103.252C129.184 103.084 129.724 103 130.336 103ZM129.13 103.63C129.07 103.246 128.89 102.91 128.59 102.622C128.29 102.322 127.858 102.112 127.294 101.992L127.726 101.182L128.554 101.398C129.226 101.662 129.712 101.962 130.012 102.298C130.324 102.634 130.504 103.06 130.552 103.576L129.13 103.63ZM135.7 100.804V102.082H125.8V100.804H135.7Z" fill="#F5F9FA"/>
<path d="M11.908 127.804V129.082H10.018V139H8.632C8.272 138.28 7.774 137.62 7.138 137.02C6.514 136.408 5.794 135.892 4.978 135.472C4.162 135.052 3.292 134.77 2.368 134.626L1.666 132.898C2.818 132.202 4.006 131.572 5.23 131.008C6.466 130.444 7.738 129.964 9.046 129.568L8.632 130.324V129.082H0.82V127.804H11.908ZM8.632 130.468L9.01 130.972C8.098 131.272 7.138 131.644 6.13 132.088C5.122 132.52 4.192 133 3.34 133.528C3.988 133.672 4.678 133.918 5.41 134.266C6.142 134.614 6.82 135.052 7.444 135.58C8.068 136.108 8.548 136.72 8.884 137.416H8.722C8.698 137.14 8.674 136.864 8.65 136.588C8.638 136.312 8.632 135.982 8.632 135.598V130.468ZM16.6907 127.804V129.082H14.8007V139H13.4147V130.558C13.2707 130.15 13.0547 129.802 12.7667 129.514C12.4907 129.226 12.1307 129.082 11.6867 129.082H11.5427V127.804H11.8127C12.1007 127.804 12.4007 127.9 12.7127 128.092C13.0247 128.272 13.2767 128.554 13.4687 128.938C13.4567 128.878 13.4447 128.74 13.4327 128.524C13.4207 128.308 13.4147 128.122 13.4147 127.966V126.616H14.3867L14.7827 127.804H16.6907ZM30.6539 136.642V128.758H32.1659V136.642H30.6539ZM27.3779 133.42V131.998H35.4419V133.42H27.3779ZM47.8904 127.804V129.082H47.5304C47.1584 129.166 46.7564 129.352 46.3244 129.64C45.8924 129.916 45.4844 130.282 45.1004 130.738C44.7164 131.182 44.3984 131.704 44.1464 132.304C43.9064 132.904 43.7864 133.564 43.7864 134.284C43.7864 135.148 43.9124 135.838 44.1644 136.354C44.4284 136.858 44.7524 137.218 45.1364 137.434C45.5204 137.65 45.9044 137.758 46.2884 137.758C46.5884 137.758 46.8404 137.728 47.0444 137.668C47.2484 137.608 47.4824 137.5 47.7464 137.344L48.3764 138.442C48.0644 138.682 47.7224 138.85 47.3504 138.946C46.9784 139.042 46.6004 139.09 46.2164 139.09C45.4604 139.09 44.7944 138.892 44.2184 138.496C43.6424 138.1 43.1864 137.548 42.8504 136.84C42.5264 136.12 42.3644 135.28 42.3644 134.32C42.3644 133.396 42.5084 132.574 42.7964 131.854C43.0964 131.122 43.4804 130.486 43.9484 129.946C44.4284 129.406 44.9444 128.962 45.4964 128.614C46.0484 128.254 46.5824 127.984 47.0984 127.804H47.8904ZM59.1531 127.804V129.082H57.2631V139H55.8771C55.3731 138.328 54.8151 137.74 54.2031 137.236C53.5911 136.72 52.8831 136.288 52.0791 135.94C51.2751 135.592 50.3211 135.34 49.2171 135.184L48.5691 133.546C48.9411 133.294 49.3311 133.054 49.7391 132.826C50.1471 132.598 50.5611 132.376 50.9811 132.16C51.4131 131.944 51.8331 131.74 52.2411 131.548C51.7851 131.2 51.2571 130.894 50.6571 130.63C50.0691 130.354 49.3731 130.132 48.5691 129.964L49.1271 128.74L49.1631 129.082H47.5251V127.804H59.1531ZM55.8771 129.082H50.1351L49.7571 128.92C50.2611 129.04 50.7651 129.232 51.2691 129.496C51.7851 129.76 52.2591 130.048 52.6911 130.36C53.1351 130.66 53.4891 130.948 53.7531 131.224L53.8431 132.232C53.4111 132.424 52.9551 132.634 52.4751 132.862C52.0071 133.09 51.5511 133.318 51.1071 133.546C50.6751 133.774 50.2911 134.002 49.9551 134.23L49.7391 133.96C50.7711 134.104 51.6711 134.344 52.4391 134.68C53.2191 135.016 53.9091 135.424 54.5091 135.904C55.1091 136.384 55.6611 136.918 56.1651 137.506L55.9311 137.578C55.9191 137.326 55.9071 137.056 55.8951 136.768C55.8831 136.468 55.8771 136.186 55.8771 135.922V129.082ZM69.8807 127.804V129.082H67.9907V139H66.6047C66.2447 138.28 65.7467 137.62 65.1107 137.02C64.4867 136.408 63.7667 135.892 62.9507 135.472C62.1347 135.052 61.2647 134.77 60.3407 134.626L59.6387 132.898C60.7907 132.202 61.9787 131.572 63.2027 131.008C64.4387 130.444 65.7107 129.964 67.0187 129.568L66.6047 130.324V129.082H58.7927V127.804H69.8807ZM66.6047 130.468L66.9827 130.972C66.0707 131.272 65.1107 131.644 64.1027 132.088C63.0947 132.52 62.1647 133 61.3127 133.528C61.9607 133.672 62.6507 133.918 63.3827 134.266C64.1147 134.614 64.7927 135.052 65.4167 135.58C66.0407 136.108 66.5207 136.72 66.8567 137.416H66.6947C66.6707 137.14 66.6467 136.864 66.6227 136.588C66.6107 136.312 66.6047 135.982 66.6047 135.598V130.468ZM62.3027 139.108C62.0027 139.108 61.7447 139.012 61.5287 138.82C61.3247 138.628 61.2227 138.376 61.2227 138.064C61.2227 137.752 61.3247 137.494 61.5287 137.29C61.7447 137.086 62.0027 136.984 62.3027 136.984C62.6027 136.984 62.8547 137.086 63.0587 137.29C63.2747 137.494 63.3827 137.752 63.3827 138.064C63.3827 138.376 63.2747 138.628 63.0587 138.82C62.8547 139.012 62.6027 139.108 62.3027 139.108ZM80.5693 131.278V129.856H88.6333V131.278H80.5693ZM80.5693 135.544V134.122H88.6333V135.544H80.5693ZM99.6418 127.804V129.082H97.7518V139H96.3658V129.082H94.4938V127.804H96.1498C95.9578 127.576 95.7598 127.336 95.5558 127.084C95.3638 126.832 95.1898 126.58 95.0338 126.328C95.4418 125.62 95.8798 124.978 96.3478 124.402C96.8158 123.814 97.3678 123.352 98.0038 123.016C98.6398 122.668 99.4078 122.494 100.308 122.494C100.944 122.494 101.55 122.572 102.126 122.728C102.714 122.884 103.29 123.112 103.854 123.412C104.418 123.7 104.988 124.054 105.564 124.474C106.14 124.882 106.74 125.338 107.364 125.842L106.608 126.814C105.78 126.142 105.03 125.584 104.358 125.14C103.698 124.696 103.062 124.366 102.45 124.15C101.85 123.922 101.208 123.808 100.524 123.808C99.8638 123.808 99.2878 123.922 98.7958 124.15C98.3158 124.378 97.8958 124.696 97.5358 125.104C97.1878 125.512 96.8698 125.986 96.5818 126.526C96.6778 126.706 96.8098 126.904 96.9778 127.12C97.1458 127.336 97.3378 127.564 97.5538 127.804H99.6418ZM110.363 127.804V129.082H108.473V139H107.087C106.727 138.28 106.229 137.62 105.593 137.02C104.969 136.408 104.249 135.892 103.433 135.472C102.617 135.052 101.747 134.77 100.823 134.626L100.121 132.898C101.273 132.202 102.461 131.572 103.685 131.008C104.921 130.444 106.193 129.964 107.501 129.568L107.087 130.324V129.082H99.2751V127.804H110.363ZM107.087 130.468L107.465 130.972C106.553 131.272 105.593 131.644 104.585 132.088C103.577 132.52 102.647 133 101.795 133.528C102.443 133.672 103.133 133.918 103.865 134.266C104.597 134.614 105.275 135.052 105.899 135.58C106.523 136.108 107.003 136.72 107.339 137.416H107.177C107.153 137.14 107.129 136.864 107.105 136.588C107.093 136.312 107.087 135.982 107.087 135.598V130.468Z" fill="#F5F9FA"/>
<path d="M230.372 123.804C230.36 123.432 230.264 123.168 230.084 123.012C229.904 122.844 229.586 122.76 229.13 122.76H228.068C227.156 122.76 226.412 122.676 225.836 122.508C225.272 122.328 224.828 122.058 224.504 121.698C224.276 121.446 224.108 121.152 224 120.816C223.904 120.468 223.856 120.072 223.856 119.628C223.856 119.448 223.862 119.286 223.874 119.142C223.886 118.986 223.91 118.8 223.946 118.584L226.196 118.728C226.184 118.836 226.172 118.932 226.16 119.016C226.16 119.1 226.16 119.178 226.16 119.25C226.16 119.502 226.184 119.73 226.232 119.934C226.292 120.126 226.388 120.288 226.52 120.42C226.652 120.54 226.82 120.63 227.024 120.69C227.228 120.75 227.558 120.78 228.014 120.78H229.148C229.856 120.78 230.414 120.834 230.822 120.942C231.242 121.05 231.596 121.242 231.884 121.518C232.112 121.746 232.286 122.046 232.406 122.418C232.538 122.778 232.61 123.24 232.622 123.804H230.372ZM228.734 126.27C229.838 126.27 230.714 126.438 231.362 126.774C232.022 127.098 232.496 127.512 232.784 128.016C233.072 128.52 233.216 129.036 233.216 129.564C233.216 130.548 232.904 131.304 232.28 131.832C231.668 132.348 230.798 132.696 229.67 132.876L229.256 132.138C229.856 132.294 230.45 132.486 231.038 132.714C231.626 132.942 232.208 133.212 232.784 133.524C233.372 133.836 233.948 134.19 234.512 134.586L233.252 136.26C232.688 135.852 232.088 135.474 231.452 135.126C230.828 134.778 230.162 134.466 229.454 134.19C228.758 133.902 228.026 133.65 227.258 133.434C226.49 133.218 225.68 133.044 224.828 132.912L225.224 131.022C225.644 131.13 226.052 131.214 226.448 131.274C226.856 131.334 227.264 131.364 227.672 131.364C228.44 131.364 229.052 131.292 229.508 131.148C229.964 130.992 230.294 130.782 230.498 130.518C230.714 130.254 230.822 129.942 230.822 129.582C230.822 129.15 230.654 128.802 230.318 128.538C229.994 128.274 229.532 128.142 228.932 128.142C228.584 128.142 228.302 128.172 228.086 128.232C227.882 128.292 227.732 128.388 227.636 128.52C227.552 128.64 227.51 128.79 227.51 128.97C227.51 129.03 227.522 129.102 227.546 129.186C227.57 129.27 227.594 129.342 227.618 129.402L225.386 129.726C225.314 129.546 225.254 129.342 225.206 129.114C225.158 128.874 225.134 128.652 225.134 128.448C225.134 128.016 225.278 127.638 225.566 127.314C225.854 126.978 226.268 126.72 226.808 126.54C227.348 126.36 227.99 126.27 228.734 126.27ZM226.61 127.296C226.55 126.9 226.37 126.558 226.07 126.27C225.77 125.982 225.338 125.772 224.774 125.64L226.142 124.848L226.97 125.046C227.642 125.322 228.128 125.628 228.428 125.964C228.728 126.3 228.902 126.726 228.95 127.242L226.61 127.296ZM234.494 123.804V125.784H223.82V123.804H234.494ZM239.988 123.804V125.784H238.26V135H235.884V125.784H234.156V123.804H235.902C235.71 123.588 235.5 123.342 235.272 123.066C235.056 122.79 234.864 122.538 234.696 122.31C235.296 121.338 235.884 120.576 236.46 120.024C237.048 119.472 237.666 119.082 238.314 118.854C238.962 118.614 239.676 118.494 240.456 118.494C241.032 118.494 241.578 118.542 242.094 118.638C242.622 118.734 243.168 118.902 243.732 119.142C244.308 119.37 244.944 119.682 245.64 120.078C246.336 120.462 247.146 120.942 248.07 121.518L246.846 123.12C245.874 122.496 245.046 121.992 244.362 121.608C243.678 121.212 243.054 120.924 242.49 120.744C241.926 120.564 241.332 120.474 240.708 120.474C240.144 120.474 239.652 120.582 239.232 120.798C238.812 121.014 238.446 121.284 238.134 121.608C237.834 121.932 237.57 122.268 237.342 122.616C237.45 122.808 237.576 123.012 237.72 123.228C237.864 123.444 238.014 123.636 238.17 123.804H239.988ZM251.305 123.804V125.784H249.577V135H247.201C246.757 134.352 246.217 133.782 245.581 133.29C244.957 132.798 244.261 132.39 243.493 132.066C242.725 131.73 241.891 131.49 240.991 131.346L240.091 129.222C241.195 128.61 242.401 128.022 243.709 127.458C245.029 126.882 246.325 126.426 247.597 126.09L247.273 126.684V125.784H239.623V123.804H251.305ZM247.201 127.818L247.579 128.214C246.787 128.442 246.037 128.706 245.329 129.006C244.633 129.294 243.895 129.624 243.115 129.996C243.607 130.092 244.117 130.26 244.645 130.5C245.185 130.728 245.707 131.028 246.211 131.4C246.727 131.772 247.189 132.204 247.597 132.696L247.255 132.894C247.243 132.618 247.231 132.342 247.219 132.066C247.207 131.79 247.201 131.52 247.201 131.256V127.818ZM262.913 123.804V125.784H261.185V135H258.809V132.66L259.115 133.614C258.671 133.002 258.245 132.48 257.837 132.048C257.429 131.604 257.021 131.268 256.613 131.04C256.205 130.8 255.773 130.68 255.317 130.68C255.041 130.68 254.801 130.752 254.597 130.896C254.393 131.04 254.291 131.256 254.291 131.544C254.291 131.856 254.405 132.102 254.633 132.282C254.873 132.45 255.197 132.606 255.605 132.75L254.921 134.82C254.201 134.616 253.613 134.34 253.157 133.992C252.713 133.632 252.383 133.236 252.167 132.804C251.951 132.372 251.843 131.928 251.843 131.472C251.843 130.836 251.993 130.314 252.293 129.906C252.593 129.498 252.977 129.198 253.445 129.006C253.925 128.814 254.417 128.718 254.921 128.718C255.509 128.718 256.049 128.796 256.541 128.952C257.045 129.108 257.513 129.354 257.945 129.69C258.377 130.014 258.797 130.44 259.205 130.968L258.845 131.238C258.833 130.95 258.821 130.662 258.809 130.374C258.809 130.074 258.809 129.78 258.809 129.492V125.784H250.943V123.804H262.913ZM256.901 129.222C256.901 129.282 256.895 129.372 256.883 129.492C256.883 129.6 256.871 129.708 256.847 129.816L254.525 129.222C254.501 128.658 254.399 128.214 254.219 127.89C254.039 127.566 253.739 127.32 253.319 127.152C252.899 126.984 252.299 126.864 251.519 126.792L251.987 124.974L252.995 125.262C253.715 125.346 254.321 125.49 254.813 125.694C255.317 125.898 255.719 126.162 256.019 126.486C256.331 126.798 256.553 127.182 256.685 127.638C256.829 128.094 256.901 128.622 256.901 129.222ZM268.377 123.804V125.784H266.649V135H264.273V127.008C264.129 126.636 263.925 126.342 263.661 126.126C263.397 125.898 263.055 125.784 262.635 125.784H262.545V123.804H262.905C263.181 123.804 263.439 123.876 263.679 124.02C263.919 124.164 264.141 124.47 264.345 124.938C264.333 124.878 264.315 124.74 264.291 124.524C264.279 124.308 264.273 124.122 264.273 123.966V122.616H266.217L266.631 123.804H268.377Z" fill="#FFCA3A"/>
<path d="M12.376 154.804V156.082H10.486V166H9.1V163.57L9.424 164.524C9.004 163.888 8.578 163.3 8.146 162.76C7.726 162.22 7.276 161.782 6.796 161.446C6.328 161.11 5.812 160.942 5.248 160.942C4.804 160.942 4.426 161.056 4.114 161.284C3.814 161.512 3.664 161.854 3.664 162.31C3.664 162.706 3.808 163.042 4.096 163.318C4.384 163.582 4.81 163.81 5.374 164.002L4.924 165.388C4.276 165.16 3.748 164.884 3.34 164.56C2.944 164.236 2.65 163.882 2.458 163.498C2.278 163.102 2.188 162.688 2.188 162.256C2.188 161.68 2.326 161.2 2.602 160.816C2.89 160.432 3.25 160.144 3.682 159.952C4.126 159.748 4.57 159.646 5.014 159.646C5.734 159.646 6.364 159.778 6.904 160.042C7.456 160.306 7.936 160.66 8.344 161.104C8.764 161.548 9.142 162.046 9.478 162.598L9.172 162.652C9.148 162.376 9.13 162.1 9.118 161.824C9.106 161.536 9.1 161.242 9.1 160.942V156.082H0.82V154.804H12.376ZM6.382 160.186C6.382 160.258 6.376 160.33 6.364 160.402C6.364 160.474 6.358 160.546 6.346 160.618L4.978 160.204C4.954 159.508 4.834 158.95 4.618 158.53C4.402 158.11 4.06 157.792 3.592 157.576C3.124 157.348 2.488 157.192 1.684 157.108L1.918 155.812L2.746 156.046C3.322 156.094 3.832 156.214 4.276 156.406C4.732 156.586 5.116 156.844 5.428 157.18C5.74 157.516 5.974 157.936 6.13 158.44C6.298 158.932 6.382 159.514 6.382 160.186ZM17.1653 156.082H15.2753V166H13.8893V156.082H12.0173V154.804H13.8893C13.8413 154.024 13.6373 153.37 13.2773 152.842C12.9293 152.314 12.4733 151.9 11.9093 151.6C11.3333 151.288 10.6853 151.066 9.96527 150.934C9.23327 150.802 8.46527 150.736 7.66127 150.736C6.95327 150.736 6.34727 150.778 5.84327 150.862C5.32727 150.934 4.93127 151.042 4.65527 151.186C4.37927 151.33 4.24127 151.516 4.24127 151.744C4.24127 151.972 4.38527 152.116 4.67327 152.176C4.96127 152.236 5.27927 152.266 5.62727 152.266H7.35527C7.99127 152.266 8.49527 152.32 8.86727 152.428C9.23927 152.536 9.53927 152.71 9.76727 152.95C9.99527 153.178 10.1573 153.448 10.2533 153.76C10.3493 154.072 10.3973 154.462 10.3973 154.93H9.19127C9.17927 154.642 9.14327 154.408 9.08327 154.228C9.02327 154.036 8.92727 153.892 8.79527 153.796C8.67527 153.7 8.53127 153.634 8.36327 153.598C8.18327 153.562 7.93727 153.544 7.62527 153.544H5.84327C5.35127 153.544 4.91927 153.514 4.54727 153.454C4.17527 153.382 3.86927 153.286 3.62927 153.166C3.32926 152.998 3.11926 152.794 2.99926 152.554C2.87927 152.314 2.81927 152.062 2.81927 151.798C2.81927 151.102 3.20927 150.544 3.98927 150.124C4.76927 149.704 5.95727 149.494 7.55327 149.494C9.98927 149.494 11.8613 149.926 13.1693 150.79C14.4893 151.642 15.2093 152.98 15.3293 154.804H17.1653V156.082ZM28.3545 154.804V156.082H26.4645V166H25.0785V163.57L25.4025 164.524C24.9825 163.888 24.5565 163.3 24.1245 162.76C23.7045 162.22 23.2545 161.782 22.7745 161.446C22.3065 161.11 21.7905 160.942 21.2265 160.942C20.7825 160.942 20.4045 161.056 20.0925 161.284C19.7925 161.512 19.6425 161.854 19.6425 162.31C19.6425 162.706 19.7865 163.042 20.0745 163.318C20.3625 163.582 20.7885 163.81 21.3525 164.002L20.9025 165.388C20.2545 165.16 19.7265 164.884 19.3185 164.56C18.9225 164.236 18.6285 163.882 18.4365 163.498C18.2565 163.102 18.1665 162.688 18.1665 162.256C18.1665 161.68 18.3045 161.2 18.5805 160.816C18.8685 160.432 19.2285 160.144 19.6605 159.952C20.1045 159.748 20.5485 159.646 20.9925 159.646C21.7125 159.646 22.3425 159.778 22.8825 160.042C23.4345 160.306 23.9145 160.66 24.3225 161.104C24.7425 161.548 25.1205 162.046 25.4565 162.598L25.1505 162.652C25.1265 162.376 25.1085 162.1 25.0965 161.824C25.0845 161.536 25.0785 161.242 25.0785 160.942V156.082H16.7985V154.804H28.3545ZM22.3605 160.186C22.3605 160.258 22.3545 160.33 22.3425 160.402C22.3425 160.474 22.3365 160.546 22.3245 160.618L20.9565 160.204C20.9325 159.508 20.8125 158.95 20.5965 158.53C20.3805 158.11 20.0385 157.792 19.5705 157.576C19.1025 157.348 18.4665 157.192 17.6625 157.108L17.8965 155.812L18.7245 156.046C19.3005 156.094 19.8105 156.214 20.2545 156.406C20.7105 156.586 21.0945 156.844 21.4065 157.18C21.7185 157.516 21.9525 157.936 22.1085 158.44C22.2765 158.932 22.3605 159.514 22.3605 160.186ZM42.3258 163.642V155.758H43.8378V163.642H42.3258ZM39.0498 160.42V158.998H47.1138V160.42H39.0498ZM64.6023 154.804V156.082H62.7123V166H61.3263C60.8223 165.328 60.2643 164.74 59.6523 164.236C59.0403 163.72 58.3323 163.288 57.5283 162.94C56.7243 162.592 55.7703 162.34 54.6663 162.184L54.0183 160.546C54.3903 160.294 54.7803 160.054 55.1883 159.826C55.5963 159.598 56.0103 159.376 56.4303 159.16C56.8623 158.944 57.2823 158.74 57.6903 158.548C57.2343 158.2 56.7063 157.894 56.1063 157.63C55.5183 157.354 54.8223 157.132 54.0183 156.964L54.5763 155.74L54.6123 156.082H52.9743V154.804H64.6023ZM61.3263 156.082H55.5843L55.2063 155.92C55.7103 156.04 56.2143 156.232 56.7183 156.496C57.2343 156.76 57.7083 157.048 58.1403 157.36C58.5843 157.66 58.9383 157.948 59.2023 158.224L59.2923 159.232C58.8603 159.424 58.4043 159.634 57.9243 159.862C57.4563 160.09 57.0003 160.318 56.5563 160.546C56.1243 160.774 55.7403 161.002 55.4043 161.23L55.1883 160.96C56.2203 161.104 57.1203 161.344 57.8883 161.68C58.6683 162.016 59.3583 162.424 59.9583 162.904C60.5583 163.384 61.1103 163.918 61.6143 164.506L61.3803 164.578C61.3683 164.326 61.3563 164.056 61.3443 163.768C61.3323 163.468 61.3263 163.186 61.3263 162.922V156.082ZM75.3299 154.804V156.082H73.4399V166H72.0539C71.6939 165.28 71.1959 164.62 70.5599 164.02C69.9359 163.408 69.2159 162.892 68.3999 162.472C67.5839 162.052 66.7139 161.77 65.7899 161.626L65.0879 159.898C66.2399 159.202 67.4279 158.572 68.6519 158.008C69.8879 157.444 71.1599 156.964 72.4679 156.568L72.0539 157.324V156.082H64.2419V154.804H75.3299ZM72.0539 157.468L72.4319 157.972C71.5199 158.272 70.5599 158.644 69.5519 159.088C68.5439 159.52 67.6139 160 66.7619 160.528C67.4099 160.672 68.0999 160.918 68.8319 161.266C69.5639 161.614 70.2419 162.052 70.8659 162.58C71.4899 163.108 71.9699 163.72 72.3059 164.416H72.1439C72.1199 164.14 72.0959 163.864 72.0719 163.588C72.0599 163.312 72.0539 162.982 72.0539 162.598V157.468ZM86.0525 154.804V156.082H84.1625V166H82.7765C82.4165 165.28 81.9185 164.62 81.2825 164.02C80.6585 163.408 79.9385 162.892 79.1225 162.472C78.3065 162.052 77.4365 161.77 76.5125 161.626L75.8105 159.898C76.9625 159.202 78.1505 158.572 79.3745 158.008C80.6105 157.444 81.8825 156.964 83.1905 156.568L82.7765 157.324V156.082H74.9645V154.804H86.0525ZM82.7765 157.468L83.1545 157.972C82.2425 158.272 81.2825 158.644 80.2745 159.088C79.2665 159.52 78.3365 160 77.4845 160.528C78.1325 160.672 78.8225 160.918 79.5545 161.266C80.2865 161.614 80.9645 162.052 81.5885 162.58C82.2125 163.108 82.6925 163.72 83.0285 164.416H82.8665C82.8425 164.14 82.8185 163.864 82.7945 163.588C82.7825 163.312 82.7765 162.982 82.7765 162.598V157.468ZM78.4745 166.108C78.1745 166.108 77.9165 166.012 77.7005 165.82C77.4965 165.628 77.3945 165.376 77.3945 165.064C77.3945 164.752 77.4965 164.494 77.7005 164.29C77.9165 164.086 78.1745 163.984 78.4745 163.984C78.7745 163.984 79.0265 164.086 79.2305 164.29C79.4465 164.494 79.5545 164.752 79.5545 165.064C79.5545 165.376 79.4465 165.628 79.2305 165.82C79.0265 166.012 78.7745 166.108 78.4745 166.108ZM96.7412 158.278V156.856H104.805V158.278H96.7412ZM96.7412 162.544V161.122H104.805V162.544H96.7412ZM122.222 154.804V156.082H120.332V166H118.946V163.57L119.27 164.524C118.85 163.888 118.424 163.3 117.992 162.76C117.572 162.22 117.122 161.782 116.642 161.446C116.174 161.11 115.658 160.942 115.094 160.942C114.65 160.942 114.272 161.056 113.96 161.284C113.66 161.512 113.51 161.854 113.51 162.31C113.51 162.706 113.654 163.042 113.942 163.318C114.23 163.582 114.656 163.81 115.22 164.002L114.77 165.388C114.122 165.16 113.594 164.884 113.186 164.56C112.79 164.236 112.496 163.882 112.304 163.498C112.124 163.102 112.034 162.688 112.034 162.256C112.034 161.68 112.172 161.2 112.448 160.816C112.736 160.432 113.096 160.144 113.528 159.952C113.972 159.748 114.416 159.646 114.86 159.646C115.58 159.646 116.21 159.778 116.75 160.042C117.302 160.306 117.782 160.66 118.19 161.104C118.61 161.548 118.988 162.046 119.324 162.598L119.018 162.652C118.994 162.376 118.976 162.1 118.964 161.824C118.952 161.536 118.946 161.242 118.946 160.942V156.082H110.666V154.804H122.222ZM116.228 160.186C116.228 160.258 116.222 160.33 116.21 160.402C116.21 160.474 116.204 160.546 116.192 160.618L114.824 160.204C114.8 159.508 114.68 158.95 114.464 158.53C114.248 158.11 113.906 157.792 113.438 157.576C112.97 157.348 112.334 157.192 111.53 157.108L111.764 155.812L112.592 156.046C113.168 156.094 113.678 156.214 114.122 156.406C114.578 156.586 114.962 156.844 115.274 157.18C115.586 157.516 115.82 157.936 115.976 158.44C116.144 158.932 116.228 159.514 116.228 160.186ZM127.011 154.804V156.082H125.121V166H123.735V157.558C123.591 157.15 123.375 156.802 123.087 156.514C122.811 156.226 122.451 156.082 122.007 156.082H121.863V154.804H122.133C122.421 154.804 122.721 154.9 123.033 155.092C123.345 155.272 123.597 155.554 123.789 155.938C123.777 155.878 123.765 155.74 123.753 155.524C123.741 155.308 123.735 155.122 123.735 154.966V153.616H124.707L125.103 154.804H127.011Z" fill="#F5F9FA"/>
<path d="M151.07 40.4188L151.642 40.4551C151.835 40.4769 152.032 40.4878 152.235 40.4878C152.438 40.4878 152.634 40.4878 152.825 40.4878C156.519 40.4878 160.239 39.5762 163.985 37.7528C164.007 37.7067 164.018 37.6121 164.018 37.4691C164.018 37.2557 163.935 36.8654 163.769 36.298C163.603 35.7306 163.424 35.1207 163.231 34.4685C163.04 33.8186 162.862 33.1737 162.696 32.5336C162.53 31.8935 162.447 31.3964 162.447 31.0424C162.447 30.5914 162.553 29.9282 162.765 29.0529C162.98 28.1752 163.398 26.9555 164.018 25.394L164.304 25.4304C164.377 25.6656 164.474 25.9492 164.593 26.2814C164.688 26.5651 164.813 26.9264 164.967 27.3653C165.123 27.8041 165.296 28.3073 165.487 28.8747C165.963 30.2713 166.201 31.811 166.201 33.4937C166.201 34.4878 166.112 35.5354 165.934 36.6362C165.755 37.737 165.462 38.8912 165.055 40.0987C163.411 45.0936 159.25 47.591 152.572 47.591C152.311 47.591 152.061 47.591 151.821 47.591C151.584 47.591 151.334 47.5801 151.07 47.5583C150.57 47.1558 150.195 46.5933 149.946 45.8707C149.694 45.1481 149.569 44.4074 149.569 43.6485C149.569 42.9405 149.688 42.2833 149.928 41.6771C150.164 41.0734 150.545 40.654 151.07 40.4188ZM157.901 60.9827L152.645 55.7271L157.901 50.5043L163.198 55.7271L157.901 60.9827ZM167.344 62.1065C167.227 62.3417 166.982 62.8739 166.611 63.7032C166.243 64.5324 165.748 65.6697 165.128 67.1148C161.766 69.3165 157.08 71.9449 151.07 75C151.19 74.6193 151.428 74.0155 151.785 73.1887C152.144 72.3594 152.598 71.2817 153.147 69.9554C155.316 68.7479 157.58 67.4992 159.942 66.2092C162.303 64.9169 164.77 63.5492 167.344 62.1065ZM148.338 47.7693C148.218 47.7693 148.099 47.7753 147.979 47.7875C147.862 47.7996 147.744 47.8056 147.624 47.8056C147.289 47.8056 146.973 47.7935 146.675 47.7693C146.377 47.7474 146.085 47.7123 145.8 47.6638C145.726 47.7341 145.429 48.7282 144.906 50.6461C144.572 51.9021 143.724 52.5302 142.364 52.5302C140.767 52.5302 139.837 51.9021 139.573 50.6461C139.598 50.2679 139.616 49.8897 139.628 49.5114C139.64 49.1332 139.646 48.7427 139.646 48.3402C139.646 47.7947 139.634 47.2382 139.61 46.6709C139.585 46.1011 139.55 45.5082 139.504 44.8923C139.313 44.7517 139.111 44.6814 138.896 44.6814C137.25 45.3676 135.939 45.9059 134.962 46.2963C133.983 46.6866 133.201 46.9824 132.618 47.1837C132.034 47.3849 131.569 47.5098 131.222 47.5583C130.878 47.6043 130.526 47.6274 130.167 47.6274C129.977 47.6274 129.799 47.6274 129.632 47.6274C129.464 47.6274 129.285 47.6043 129.094 47.5583C128.76 47.3691 128.437 46.9073 128.127 46.1726C127.82 45.4379 127.666 44.6329 127.666 43.7576C127.666 43.1417 127.772 42.5318 127.984 41.9281C128.199 41.3243 128.569 40.8213 129.094 40.4188H129.417C130.918 40.4188 132.463 40.2235 134.05 39.8332C135.635 39.4428 137.023 38.9396 138.214 38.3237L138.43 38.1092C138.575 38.0146 138.699 37.7843 138.804 37.4181C138.911 37.0496 139.008 36.641 139.093 36.1924C139.176 35.7414 139.247 35.3147 139.306 34.9122C139.367 34.5097 139.433 34.226 139.504 34.0611L139.789 33.9193C140.434 35.956 141.03 37.1866 141.577 37.6109C142.27 38.3941 143.534 39.1288 145.368 39.815C146.681 40.0986 147.659 40.2587 148.301 40.2951C148.946 40.3291 149.459 40.3703 149.84 40.4188C150.174 40.5836 150.461 41.0334 150.7 41.7681C150.937 42.5028 151.056 43.2957 151.056 44.1467C151.056 44.8111 150.967 45.4512 150.788 46.0671C150.61 46.6805 150.294 47.1776 149.84 47.5583C149.625 47.6043 149.124 47.6747 148.338 47.7693ZM145.441 9.09633C145.321 9.33396 145.077 9.8674 144.708 10.6967C144.337 11.5259 143.843 12.6618 143.225 14.1045C139.862 16.3086 135.177 18.937 129.167 21.9897C129.285 21.6114 129.523 21.0077 129.882 20.1785C130.238 19.3516 130.691 18.2751 131.241 16.9488C133.411 15.7412 135.677 14.4913 138.039 13.1989C140.397 11.909 142.865 10.5415 145.441 9.09633ZM126.842 47.5583C123.145 47.5098 120.324 45.8343 118.381 42.5319C116.437 39.2294 115.239 34.2867 114.788 27.7036C114.739 26.9204 114.667 25.5346 114.571 23.5464C114.476 21.5581 114.358 18.9419 114.216 15.6976C114.167 14.4901 114.12 12.8558 114.073 10.7948C114.024 8.73619 114 6.20238 114 3.19331C114 2.95812 114.036 2.65626 114.106 2.28771C114.18 1.92158 114.275 1.57244 114.392 1.24025C114.512 0.910492 114.656 0.620689 114.824 0.370944C114.99 0.123623 115.181 0 115.396 0C115.777 0 116.039 1.06441 116.183 3.19331L117.362 21.3096C117.577 24.6484 117.857 27.3774 118.201 29.4966C118.548 31.6158 118.965 33.3143 119.454 34.5921C119.942 35.8724 120.503 36.8495 121.135 37.5236C121.768 38.1977 122.466 38.7723 123.23 39.2476C123.826 39.6258 124.488 39.9217 125.215 40.1351C125.94 40.3484 126.721 40.4551 127.556 40.4551C127.651 40.4551 127.74 40.449 127.823 40.4369C127.909 40.4247 127.999 40.4188 128.094 40.4188C128.927 40.5376 129.523 40.8867 129.882 41.4662C130.238 42.0457 130.416 42.7028 130.416 43.4375C130.416 43.9103 130.352 44.3952 130.222 44.8923C130.09 45.3894 129.905 45.8391 129.666 46.2416C129.429 46.6442 129.143 46.9703 128.808 47.2201C128.474 47.4674 128.116 47.591 127.735 47.591C127.616 47.591 127.485 47.591 127.343 47.591C127.199 47.591 127.032 47.5801 126.842 47.5583ZM194.55 30.6859C194.624 30.875 194.66 31.0763 194.66 31.2897C194.66 32.0244 194.266 33.0076 193.477 34.2394C193.096 34.8528 191.094 36.2142 187.47 38.3237C186.992 38.6074 186.61 38.8257 186.324 38.9785C186.038 39.1337 185.776 39.2754 185.536 39.4039C185.3 39.5349 185.062 39.6719 184.822 39.815C184.583 39.9556 184.279 40.1326 183.91 40.346C183.542 40.5593 183.07 40.8382 182.497 41.1825C181.925 41.5244 181.199 41.9681 180.317 42.5137C179.433 43.0592 178.36 43.7224 177.098 44.5031C175.833 45.2839 174.307 46.2308 172.519 47.3437C172.615 46.563 172.704 45.9059 172.787 45.3725C172.87 44.839 172.977 44.3831 173.109 44.0049C173.238 43.6266 173.411 43.2956 173.625 43.0119C173.84 42.7282 174.15 42.4434 174.556 42.1573L180.423 37.7528C178.922 35.7403 178.171 33.5981 178.171 31.3261C178.171 30.4483 178.343 29.6433 178.687 28.9111C179.034 28.1764 179.511 27.5484 180.119 27.0271C180.727 26.5057 181.449 26.0972 182.284 25.8013C183.117 25.5055 184.035 25.3576 185.038 25.3576C186.181 25.3576 187.23 25.5419 188.185 25.9105C189.139 26.2766 189.975 26.8743 190.69 27.7036C190.617 28.3194 190.354 28.6274 189.902 28.6274C189.829 28.6274 189.697 28.6031 189.507 28.5546C188.65 28.3169 187.721 28.1982 186.72 28.1982C183.262 28.1982 181.484 29.1936 181.387 31.1842C181.912 33.4101 183.033 34.5231 184.749 34.5231C185.633 34.5231 187.362 33.9665 189.936 32.8536C190.605 32.4972 191.32 32.142 192.082 31.7879C192.846 31.4315 193.669 31.0641 194.55 30.6859ZM189.95 51.1953C189.833 51.4305 189.589 51.9627 189.218 52.792C188.849 53.6212 188.354 54.7585 187.734 56.2036C184.372 58.4053 179.686 61.0337 173.677 64.0888C173.796 63.7081 174.034 63.1043 174.391 62.2775C174.75 61.4482 175.203 60.3705 175.75 59.0442C177.92 57.8367 180.187 56.588 182.548 55.298C184.909 54.0057 187.376 52.638 189.95 51.1953Z" fill="#F5F9FA"/>
</svg>
