<svg width="348" height="143" viewBox="0 0 348 143" fill="none" xmlns="http://www.w3.org/2000/svg">
<path d="M248 141.623C253.152 139.688 255.728 135.527 255.728 129.142V122.168C255.728 116.82 257.642 113.617 261.469 112.56C257.642 111.582 255.728 108.379 255.728 102.952V96.1575C255.728 89.413 253.197 85.1428 248.136 83.3469L248.517 82C251.42 82.9977 253.578 84.624 254.993 86.8788C256.426 89.1137 257.161 92.037 257.197 95.6487V103.102C257.197 108.749 259.465 111.572 264 111.572V113.548C259.465 113.548 257.197 116.391 257.197 122.078V129.172C257.197 132.883 256.481 135.856 255.048 138.091C253.633 140.346 251.456 141.982 248.517 143L248 141.623Z" fill="#F5F9FA"/>
<path d="M5.356 93C6.304 93 7.066 93.162 7.642 93.486C8.23 93.798 8.662 94.2 8.938 94.692C9.214 95.172 9.352 95.658 9.352 96.15C9.352 97.134 9.004 97.914 8.308 98.49C7.624 99.066 6.604 99.39 5.248 99.462L5.428 99.264C5.968 99.42 6.538 99.642 7.138 99.93C7.738 100.218 8.344 100.554 8.956 100.938C9.568 101.31 10.156 101.724 10.72 102.18L9.892 103.134C9.148 102.582 8.464 102.108 7.84 101.712C7.228 101.304 6.622 100.95 6.022 100.65C5.422 100.35 4.786 100.086 4.114 99.858C3.442 99.63 2.68 99.42 1.828 99.228L2.098 97.986C2.518 98.106 2.92 98.196 3.304 98.256C3.7 98.304 4.174 98.328 4.726 98.328C5.578 98.328 6.232 98.226 6.688 98.022C7.156 97.818 7.48 97.554 7.66 97.23C7.84 96.906 7.93 96.576 7.93 96.24C7.93 95.604 7.696 95.118 7.228 94.782C6.76 94.434 6.166 94.26 5.446 94.26C5.014 94.26 4.666 94.302 4.402 94.386C4.138 94.47 3.946 94.596 3.826 94.764C3.718 94.92 3.664 95.112 3.664 95.34C3.664 95.436 3.676 95.538 3.7 95.646C3.724 95.742 3.748 95.832 3.772 95.916L2.458 96.186C2.398 96.006 2.35 95.82 2.314 95.628C2.278 95.424 2.26 95.244 2.26 95.088C2.26 94.644 2.392 94.266 2.656 93.954C2.92 93.642 3.28 93.408 3.736 93.252C4.204 93.084 4.744 93 5.356 93ZM4.15 93.63C4.09 93.246 3.91 92.91 3.61 92.622C3.31 92.322 2.878 92.112 2.314 91.992L2.746 91.182L3.574 91.398C4.246 91.662 4.732 91.962 5.032 92.298C5.344 92.634 5.524 93.06 5.572 93.576L4.15 93.63ZM10.72 90.804V92.082H0.82V90.804H10.72ZM15.5129 90.804V92.082H13.6229V102H12.2369V93.558C12.0929 93.15 11.8769 92.802 11.5889 92.514C11.3129 92.226 10.9529 92.082 10.5089 92.082H10.3649V90.804H10.6349C10.9229 90.804 11.2229 90.9 11.5349 91.092C11.8469 91.272 12.0989 91.554 12.2909 91.938C12.2789 91.878 12.2669 91.74 12.2549 91.524C12.2429 91.308 12.2369 91.122 12.2369 90.966V89.616H13.2089L13.6049 90.804H15.5129ZM29.4761 99.642V91.758H30.9881V99.642H29.4761ZM26.2001 96.42V94.998H34.2641V96.42H26.2001ZM46.7127 90.804V92.082H46.3527C45.9807 92.166 45.5787 92.352 45.1467 92.64C44.7147 92.916 44.3067 93.282 43.9227 93.738C43.5387 94.182 43.2207 94.704 42.9687 95.304C42.7287 95.904 42.6087 96.564 42.6087 97.284C42.6087 98.148 42.7347 98.838 42.9867 99.354C43.2507 99.858 43.5747 100.218 43.9587 100.434C44.3427 100.65 44.7267 100.758 45.1107 100.758C45.4107 100.758 45.6627 100.728 45.8667 100.668C46.0707 100.608 46.3047 100.5 46.5687 100.344L47.1987 101.442C46.8867 101.682 46.5447 101.85 46.1727 101.946C45.8007 102.042 45.4227 102.09 45.0387 102.09C44.2827 102.09 43.6167 101.892 43.0407 101.496C42.4647 101.1 42.0087 100.548 41.6727 99.84C41.3487 99.12 41.1867 98.28 41.1867 97.32C41.1867 96.396 41.3307 95.574 41.6187 94.854C41.9187 94.122 42.3027 93.486 42.7707 92.946C43.2507 92.406 43.7667 91.962 44.3187 91.614C44.8707 91.254 45.4047 90.984 45.9207 90.804H46.7127ZM59.5953 90.804V92.082H57.7053V102H56.3193V94.872L56.7153 96.024C56.2233 95.304 55.7733 94.692 55.3653 94.188C54.9573 93.672 54.5673 93.252 54.1953 92.928C53.8353 92.604 53.4693 92.37 53.0973 92.226C52.7253 92.07 52.3233 91.992 51.8913 91.992C51.4113 91.992 50.9733 92.082 50.5773 92.262C50.1933 92.442 49.8393 92.682 49.5153 92.982C49.1913 93.282 48.8913 93.606 48.6153 93.954L48.4713 93.99C48.6633 93.87 48.8493 93.78 49.0293 93.72C49.2213 93.66 49.4313 93.63 49.6593 93.63C50.3553 93.63 50.8653 93.822 51.1893 94.206C51.5133 94.578 51.6753 95.04 51.6753 95.592C51.6753 95.724 51.6693 95.85 51.6573 95.97C51.6453 96.09 51.6273 96.18 51.6033 96.24L51.2973 96.132C51.4413 95.976 51.5793 95.826 51.7113 95.682C51.8433 95.538 51.9813 95.394 52.1253 95.25C52.2813 95.106 52.4373 94.956 52.5933 94.8L54.8253 92.712L55.7073 93.666L50.5953 98.49L49.5333 97.5L51.0093 96.096L50.3613 96.87L49.8213 97.284C50.0013 97.08 50.1513 96.864 50.2713 96.636C50.4033 96.396 50.4693 96.126 50.4693 95.826C50.4693 95.526 50.3793 95.286 50.1993 95.106C50.0193 94.926 49.7553 94.836 49.4073 94.836C49.2153 94.836 49.0293 94.86 48.8493 94.908C48.6693 94.956 48.4833 95.04 48.2913 95.16L46.9233 93.864C47.4033 93.228 47.8953 92.676 48.3993 92.208C48.9033 91.728 49.4313 91.356 49.9833 91.092C50.5353 90.816 51.1293 90.678 51.7653 90.678C52.4373 90.678 53.0433 90.804 53.5833 91.056C54.1233 91.308 54.6453 91.686 55.1493 92.19C55.6533 92.682 56.1813 93.306 56.7333 94.062L56.4093 93.972C56.3733 93.684 56.3493 93.372 56.3373 93.036C56.3253 92.7 56.3193 92.34 56.3193 91.956V89.616H57.2733L57.6873 90.804H59.5953ZM71.7781 90.804V92.082H69.8881V102H68.5021V92.784L68.5921 92.424C68.5561 92.22 68.5321 92.01 68.5201 91.794C68.5081 91.578 68.5021 91.338 68.5021 91.074V89.616H69.4561L69.8881 90.804H71.7781ZM65.9101 90.678C66.3781 90.678 66.8101 90.768 67.2061 90.948C67.6021 91.128 67.9561 91.38 68.2681 91.704C68.5801 92.028 68.8321 92.406 69.0241 92.838L68.9521 94.728C68.5801 93.864 68.1421 93.192 67.6381 92.712C67.1341 92.232 66.5701 91.992 65.9461 91.992C65.4781 91.992 65.1001 92.124 64.8121 92.388C64.5241 92.64 64.3801 93.018 64.3801 93.522C64.3801 94.002 64.5721 94.398 64.9561 94.71C65.3521 95.01 65.9821 95.178 66.8461 95.214L66.7201 96.6C65.9281 96.552 65.2741 96.39 64.7581 96.114C64.2541 95.838 63.8821 95.478 63.6421 95.034C63.4021 94.578 63.2821 94.056 63.2821 93.468C63.2821 92.832 63.4081 92.31 63.6601 91.902C63.9121 91.482 64.2361 91.176 64.6321 90.984C65.0401 90.78 65.4661 90.678 65.9101 90.678ZM60.7981 90.678C61.3021 90.678 61.7761 90.78 62.2201 90.984C62.6761 91.188 63.0481 91.512 63.3361 91.956C63.6241 92.4 63.7681 92.982 63.7681 93.702C63.7681 94.194 63.6481 94.662 63.4081 95.106C63.1681 95.55 62.7961 95.91 62.2921 96.186C61.8001 96.462 61.1641 96.6 60.3841 96.6L60.2761 95.214C60.8881 95.202 61.3681 95.118 61.7161 94.962C62.0641 94.794 62.3101 94.584 62.4541 94.332C62.5981 94.08 62.6701 93.828 62.6701 93.576C62.6701 93.084 62.5141 92.7 62.2021 92.424C61.8901 92.136 61.4161 91.992 60.7801 91.992C60.5641 91.992 60.3481 92.01 60.1321 92.046C59.9281 92.07 59.6821 92.118 59.3941 92.19L59.2501 90.84C59.5501 90.78 59.8141 90.738 60.0421 90.714C60.2821 90.69 60.5341 90.678 60.7981 90.678ZM82.4677 94.278V92.856H90.5317V94.278H82.4677ZM82.4677 98.544V97.122H90.5317V98.544H82.4677ZM99.7403 92.82C100.412 92.82 100.994 92.97 101.486 93.27C101.99 93.57 102.41 94.128 102.746 94.944L102.116 94.908L103.574 93.162L104.672 92.91L104.708 93.648L102.8 96.006L101.702 96.06C101.618 95.412 101.408 94.914 101.072 94.566C100.748 94.218 100.352 94.044 99.8843 94.044C99.5483 94.044 99.2903 94.134 99.1103 94.314C98.9303 94.494 98.8403 94.71 98.8403 94.962C98.8403 95.298 98.9363 95.556 99.1283 95.736C99.3323 95.904 99.5843 96.06 99.8843 96.204L99.2543 97.482C98.5943 97.182 98.1203 96.81 97.8323 96.366C97.5443 95.922 97.4003 95.46 97.4003 94.98C97.4003 94.476 97.5143 94.068 97.7423 93.756C97.9703 93.432 98.2643 93.198 98.6243 93.054C98.9843 92.898 99.3563 92.82 99.7403 92.82ZM106.22 96.294C106.22 97.002 106.064 97.608 105.752 98.112C105.44 98.616 104.996 99.012 104.42 99.3C103.856 99.588 103.184 99.78 102.404 99.876L102.296 99.696C102.836 99.852 103.406 100.074 104.006 100.362C104.606 100.65 105.212 100.986 105.824 101.37C106.436 101.754 107.024 102.174 107.588 102.63L106.76 103.584C105.98 102.996 105.266 102.492 104.618 102.072C103.97 101.652 103.34 101.298 102.728 101.01C102.116 100.71 101.468 100.452 100.784 100.236C100.1 100.02 99.3323 99.816 98.4803 99.624L98.7323 98.364C99.2363 98.508 99.6923 98.61 100.1 98.67C100.508 98.718 100.952 98.742 101.432 98.742C102.296 98.742 102.974 98.634 103.466 98.418C103.958 98.19 104.306 97.89 104.51 97.518C104.726 97.134 104.834 96.714 104.834 96.258C104.834 95.742 104.726 95.298 104.51 94.926C104.306 94.542 104.054 94.218 103.754 93.954L104.672 92.91C105.056 93.27 105.41 93.738 105.734 94.314C106.058 94.878 106.22 95.538 106.22 96.294ZM107.588 90.804V92.082H96.3923V90.804H107.588Z" fill="#F5F9FA"/>
<path d="M12.034 119.804V121.082H3.862V126.446L3.61 126.086C4.09 125.546 4.636 125.042 5.248 124.574C5.86 124.106 6.526 123.68 7.246 123.296C7.966 122.9 8.734 122.552 9.55 122.252L10.72 123.404C10.492 123.824 10.306 124.232 10.162 124.628C10.03 125.024 9.928 125.438 9.856 125.87C9.796 126.302 9.766 126.782 9.766 127.31C9.766 127.898 9.814 128.462 9.91 129.002C10.006 129.542 10.168 130.148 10.396 130.82L9.046 131.126C8.83 130.43 8.662 129.752 8.542 129.092C8.422 128.42 8.362 127.724 8.362 127.004C8.362 126.512 8.398 126.05 8.47 125.618C8.542 125.186 8.638 124.802 8.758 124.466C8.89 124.118 9.022 123.836 9.154 123.62L9.37 123.71C8.686 123.986 8.02 124.322 7.372 124.718C6.724 125.114 6.088 125.57 5.464 126.086C4.84 126.602 4.198 127.19 3.538 127.85L2.476 127.13V121.082H0.82V119.804H12.034ZM16.8137 119.804V121.082H14.9237V131H13.5377V122.558C13.3937 122.15 13.1777 121.802 12.8897 121.514C12.6137 121.226 12.2537 121.082 11.8097 121.082H11.6657V119.804H11.9357C12.2237 119.804 12.5237 119.9 12.8357 120.092C13.1477 120.272 13.3997 120.554 13.5917 120.938C13.5797 120.878 13.5677 120.74 13.5557 120.524C13.5437 120.308 13.5377 120.122 13.5377 119.966V118.616H14.5097L14.9057 119.804H16.8137ZM29.965 119.804V121.082H28.075V131H26.689V124.97L26.797 125.438C26.533 125.054 26.251 124.748 25.951 124.52C25.663 124.292 25.345 124.178 24.997 124.178C24.817 124.178 24.631 124.214 24.439 124.286C24.259 124.346 24.103 124.466 23.971 124.646C23.851 124.826 23.791 125.102 23.791 125.474C23.791 125.606 23.791 125.726 23.791 125.834C23.803 125.93 23.815 126.026 23.827 126.122L22.657 126.212C22.609 125.72 22.477 125.306 22.261 124.97C22.045 124.622 21.781 124.358 21.469 124.178C21.157 123.998 20.821 123.908 20.461 123.908C20.137 123.908 19.861 123.974 19.633 124.106C19.405 124.226 19.231 124.394 19.111 124.61C18.991 124.814 18.931 125.048 18.931 125.312C18.931 125.792 19.105 126.2 19.453 126.536C19.813 126.872 20.317 127.154 20.965 127.382L20.479 128.714C19.903 128.534 19.387 128.288 18.931 127.976C18.475 127.664 18.115 127.28 17.851 126.824C17.587 126.368 17.455 125.84 17.455 125.24C17.455 124.7 17.587 124.238 17.851 123.854C18.115 123.458 18.469 123.152 18.913 122.936C19.357 122.72 19.843 122.612 20.371 122.612C21.007 122.612 21.553 122.732 22.009 122.972C22.465 123.2 22.885 123.572 23.269 124.088L22.999 124.106C23.119 123.71 23.347 123.41 23.683 123.206C24.031 122.99 24.391 122.882 24.763 122.882C25.195 122.882 25.567 122.966 25.879 123.134C26.191 123.302 26.533 123.542 26.905 123.854L26.743 124.124C26.731 123.872 26.719 123.62 26.707 123.368C26.695 123.116 26.689 122.858 26.689 122.594V121.082H16.447V119.804H29.965ZM43.9429 128.642V120.758H45.4549V128.642H43.9429ZM40.6669 125.42V123.998H48.7309V125.42H40.6669ZM65.8055 119.804V121.082H57.6335V126.446L57.3815 126.086C57.8615 125.546 58.4075 125.042 59.0195 124.574C59.6315 124.106 60.2975 123.68 61.0175 123.296C61.7375 122.9 62.5055 122.552 63.3215 122.252L64.4915 123.404C64.2635 123.824 64.0775 124.232 63.9335 124.628C63.8015 125.024 63.6995 125.438 63.6275 125.87C63.5675 126.302 63.5375 126.782 63.5375 127.31C63.5375 127.898 63.5855 128.462 63.6815 129.002C63.7775 129.542 63.9395 130.148 64.1675 130.82L62.8175 131.126C62.6015 130.43 62.4335 129.752 62.3135 129.092C62.1935 128.42 62.1335 127.724 62.1335 127.004C62.1335 126.512 62.1695 126.05 62.2415 125.618C62.3135 125.186 62.4095 124.802 62.5295 124.466C62.6615 124.118 62.7935 123.836 62.9255 123.62L63.1415 123.71C62.4575 123.986 61.7915 124.322 61.1435 124.718C60.4955 125.114 59.8595 125.57 59.2355 126.086C58.6115 126.602 57.9695 127.19 57.3095 127.85L56.2475 127.13V121.082H54.5915V119.804H65.8055ZM60.6977 135.788C60.3737 135.788 60.0197 135.716 59.6357 135.572C59.2517 135.44 58.9277 135.224 58.6637 134.924C58.3877 134.624 58.2497 134.222 58.2497 133.718C58.2497 133.106 58.4837 132.614 58.9517 132.242C59.4197 131.882 60.0737 131.702 60.9137 131.702C61.6577 131.702 62.3777 131.834 63.0737 132.098C63.7577 132.374 64.4597 132.752 65.1797 133.232C65.8877 133.712 66.6437 134.27 67.4477 134.906L66.6377 135.878C65.8337 135.206 65.1017 134.648 64.4417 134.204C63.7817 133.76 63.1577 133.424 62.5697 133.196C61.9817 132.968 61.3997 132.854 60.8237 132.854C60.3917 132.854 60.0677 132.938 59.8517 133.106C59.6357 133.274 59.5277 133.49 59.5277 133.754C59.5277 134.09 59.6477 134.324 59.8877 134.456C60.1157 134.6 60.3857 134.672 60.6977 134.672C61.1417 134.672 61.5017 134.576 61.7777 134.384C62.0417 134.204 62.2457 133.976 62.3897 133.7C62.5337 133.424 62.6297 133.136 62.6777 132.836C62.7257 132.548 62.7497 132.29 62.7497 132.062V130.856H64.1357V131.81C64.1357 132.146 64.0997 132.536 64.0277 132.98C63.9437 133.436 63.7877 133.874 63.5597 134.294C63.3197 134.726 62.9717 135.08 62.5157 135.356C62.0597 135.644 61.4537 135.788 60.6977 135.788ZM72.0612 119.804C72.0492 119.312 71.9292 118.958 71.7012 118.742C71.4852 118.526 71.1252 118.418 70.6212 118.418H69.3252C68.5332 118.418 67.9212 118.364 67.4892 118.256C67.0692 118.148 66.7092 117.98 66.4092 117.752C66.0852 117.512 65.8392 117.206 65.6712 116.834C65.5152 116.45 65.4372 116.018 65.4372 115.538C65.4372 115.382 65.4492 115.226 65.4732 115.07C65.4852 114.914 65.5032 114.752 65.5272 114.584L66.8592 114.674C66.8352 114.818 66.8172 114.944 66.8052 115.052C66.7932 115.16 66.7872 115.262 66.7872 115.358C66.7872 115.622 66.8112 115.856 66.8592 116.06C66.9192 116.264 67.0092 116.432 67.1292 116.564C67.2972 116.756 67.5372 116.9 67.8492 116.996C68.1732 117.08 68.6292 117.122 69.2172 117.122H70.2432C70.8792 117.122 71.3832 117.17 71.7552 117.266C72.1272 117.362 72.4452 117.536 72.7092 117.788C72.9132 117.98 73.0692 118.244 73.1772 118.58C73.2852 118.904 73.3452 119.312 73.3572 119.804H72.0612ZM69.9732 122C70.9212 122 71.6832 122.162 72.2592 122.486C72.8472 122.798 73.2792 123.2 73.5552 123.692C73.8312 124.172 73.9692 124.658 73.9692 125.15C73.9692 126.134 73.6212 126.914 72.9252 127.49C72.2412 128.066 71.2212 128.39 69.8652 128.462L70.0452 128.264C70.5852 128.42 71.1552 128.642 71.7552 128.93C72.3552 129.218 72.9612 129.554 73.5732 129.938C74.1852 130.31 74.7732 130.724 75.3372 131.18L74.5092 132.134C73.7652 131.582 73.0812 131.108 72.4572 130.712C71.8452 130.304 71.2392 129.95 70.6392 129.65C70.0392 129.35 69.4032 129.086 68.7312 128.858C68.0592 128.63 67.2972 128.42 66.4452 128.228L66.7152 126.986C67.1352 127.106 67.5372 127.196 67.9212 127.256C68.3172 127.304 68.7912 127.328 69.3432 127.328C70.1952 127.328 70.8492 127.226 71.3052 127.022C71.7732 126.818 72.0972 126.554 72.2772 126.23C72.4572 125.906 72.5472 125.576 72.5472 125.24C72.5472 124.604 72.3132 124.118 71.8452 123.782C71.3772 123.434 70.7832 123.26 70.0632 123.26C69.6312 123.26 69.2832 123.302 69.0192 123.386C68.7552 123.47 68.5632 123.596 68.4432 123.764C68.3352 123.92 68.2812 124.112 68.2812 124.34C68.2812 124.436 68.2932 124.538 68.3172 124.646C68.3412 124.742 68.3652 124.832 68.3892 124.916L67.0752 125.186C67.0152 125.006 66.9672 124.82 66.9312 124.628C66.8952 124.424 66.8772 124.244 66.8772 124.088C66.8772 123.644 67.0092 123.266 67.2732 122.954C67.5372 122.642 67.8972 122.408 68.3532 122.252C68.8212 122.084 69.3612 122 69.9732 122ZM68.7672 122.63C68.7072 122.246 68.5272 121.91 68.2272 121.622C67.9272 121.322 67.4952 121.112 66.9312 120.992L67.3632 120.182L68.1912 120.398C68.8632 120.662 69.3492 120.962 69.6492 121.298C69.9612 121.634 70.1412 122.06 70.1892 122.576L68.7672 122.63ZM75.3372 119.804V121.082H65.4372V119.804H75.3372ZM91.4441 119.804V121.082H89.5541V131H88.1681C87.6641 130.328 87.1061 129.74 86.4941 129.236C85.8821 128.72 85.1741 128.288 84.3701 127.94C83.5661 127.592 82.6121 127.34 81.5081 127.184L80.8601 125.546C81.2321 125.294 81.6221 125.054 82.0301 124.826C82.4381 124.598 82.8521 124.376 83.2721 124.16C83.7041 123.944 84.1241 123.74 84.5321 123.548C84.0761 123.2 83.5481 122.894 82.9481 122.63C82.3601 122.354 81.6641 122.132 80.8601 121.964L81.4181 120.74L81.4541 121.082H79.8161V119.804H91.4441ZM88.1681 121.082H82.4261L82.0481 120.92C82.5521 121.04 83.0561 121.232 83.5601 121.496C84.0761 121.76 84.5501 122.048 84.9821 122.36C85.4261 122.66 85.7801 122.948 86.0441 123.224L86.1341 124.232C85.7021 124.424 85.2461 124.634 84.7661 124.862C84.2981 125.09 83.8421 125.318 83.3981 125.546C82.9661 125.774 82.5821 126.002 82.2461 126.23L82.0301 125.96C83.0621 126.104 83.9621 126.344 84.7301 126.68C85.5101 127.016 86.2001 127.424 86.8001 127.904C87.4001 128.384 87.9521 128.918 88.4561 129.506L88.2221 129.578C88.2101 129.326 88.1981 129.056 88.1861 128.768C88.1741 128.468 88.1681 128.186 88.1681 127.922V121.082ZM102.172 119.804V121.082H100.282V131H98.8957C98.5357 130.28 98.0377 129.62 97.4017 129.02C96.7777 128.408 96.0577 127.892 95.2417 127.472C94.4257 127.052 93.5557 126.77 92.6317 126.626L91.9297 124.898C93.0817 124.202 94.2697 123.572 95.4937 123.008C96.7297 122.444 98.0017 121.964 99.3097 121.568L98.8957 122.324V121.082H91.0837V119.804H102.172ZM98.8957 122.468L99.2737 122.972C98.3617 123.272 97.4017 123.644 96.3937 124.088C95.3857 124.52 94.4557 125 93.6037 125.528C94.2517 125.672 94.9417 125.918 95.6737 126.266C96.4057 126.614 97.0837 127.052 97.7077 127.58C98.3317 128.108 98.8117 128.72 99.1477 129.416H98.9857C98.9617 129.14 98.9377 128.864 98.9137 128.588C98.9017 128.312 98.8957 127.982 98.8957 127.598V122.468ZM112.894 119.804V121.082H111.004V131H109.618C109.258 130.28 108.76 129.62 108.124 129.02C107.5 128.408 106.78 127.892 105.964 127.472C105.148 127.052 104.278 126.77 103.354 126.626L102.652 124.898C103.804 124.202 104.992 123.572 106.216 123.008C107.452 122.444 108.724 121.964 110.032 121.568L109.618 122.324V121.082H101.806V119.804H112.894ZM109.618 122.468L109.996 122.972C109.084 123.272 108.124 123.644 107.116 124.088C106.108 124.52 105.178 125 104.326 125.528C104.974 125.672 105.664 125.918 106.396 126.266C107.128 126.614 107.806 127.052 108.43 127.58C109.054 128.108 109.534 128.72 109.87 129.416H109.708C109.684 129.14 109.66 128.864 109.636 128.588C109.624 128.312 109.618 127.982 109.618 127.598V122.468ZM105.316 131.108C105.016 131.108 104.758 131.012 104.542 130.82C104.338 130.628 104.236 130.376 104.236 130.064C104.236 129.752 104.338 129.494 104.542 129.29C104.758 129.086 105.016 128.984 105.316 128.984C105.616 128.984 105.868 129.086 106.072 129.29C106.288 129.494 106.396 129.752 106.396 130.064C106.396 130.376 106.288 130.628 106.072 130.82C105.868 131.012 105.616 131.108 105.316 131.108ZM123.583 123.278V121.856H131.647V123.278H123.583ZM123.583 127.544V126.122H131.647V127.544H123.583ZM148.722 119.804V121.082H140.55V126.446L140.298 126.086C140.778 125.546 141.324 125.042 141.936 124.574C142.548 124.106 143.214 123.68 143.934 123.296C144.654 122.9 145.422 122.552 146.238 122.252L147.408 123.404C147.18 123.824 146.994 124.232 146.85 124.628C146.718 125.024 146.616 125.438 146.544 125.87C146.484 126.302 146.454 126.782 146.454 127.31C146.454 127.898 146.502 128.462 146.598 129.002C146.694 129.542 146.856 130.148 147.084 130.82L145.734 131.126C145.518 130.43 145.35 129.752 145.23 129.092C145.11 128.42 145.05 127.724 145.05 127.004C145.05 126.512 145.086 126.05 145.158 125.618C145.23 125.186 145.326 124.802 145.446 124.466C145.578 124.118 145.71 123.836 145.842 123.62L146.058 123.71C145.374 123.986 144.708 124.322 144.06 124.718C143.412 125.114 142.776 125.57 142.152 126.086C141.528 126.602 140.886 127.19 140.226 127.85L139.164 127.13V121.082H137.507V119.804H148.722ZM153.501 119.804V121.082H151.611V131H150.225V122.558C150.081 122.15 149.865 121.802 149.577 121.514C149.301 121.226 148.941 121.082 148.497 121.082H148.353V119.804H148.623C148.911 119.804 149.211 119.9 149.523 120.092C149.835 120.272 150.087 120.554 150.279 120.938C150.267 120.878 150.255 120.74 150.243 120.524C150.231 120.308 150.225 120.122 150.225 119.966V118.616H151.197L151.593 119.804H153.501ZM164.366 119.804V121.082H162.476V131H161.09V126.626L161.378 127.634C160.982 127.082 160.55 126.584 160.082 126.14C159.614 125.696 159.134 125.342 158.642 125.078C158.15 124.814 157.67 124.682 157.202 124.682C156.758 124.682 156.38 124.802 156.068 125.042C155.768 125.27 155.618 125.612 155.618 126.068C155.618 126.428 155.744 126.74 155.996 127.004C156.248 127.256 156.638 127.484 157.166 127.688L156.482 128.966C155.75 128.666 155.174 128.264 154.754 127.76C154.346 127.244 154.142 126.662 154.142 126.014C154.142 125.426 154.28 124.94 154.556 124.556C154.844 124.16 155.204 123.866 155.636 123.674C156.08 123.482 156.53 123.386 156.986 123.386C157.61 123.386 158.18 123.494 158.696 123.71C159.212 123.926 159.692 124.22 160.136 124.592C160.592 124.964 161.024 125.396 161.432 125.888L161.18 125.96C161.144 125.684 161.12 125.414 161.108 125.15C161.096 124.874 161.09 124.598 161.09 124.322V121.082H153.134V119.804H164.366Z" fill="#F5F9FA"/>
<path d="M284.348 114.45C285.02 114.45 285.602 114.564 286.094 114.792C286.586 115.02 287.018 115.422 287.39 115.998L287.084 116.088L288.182 114.756L289.964 114.486L289.046 116.34L287.858 117.924L286.022 117.996C285.986 117.54 285.86 117.15 285.644 116.826C285.428 116.502 285.116 116.34 284.708 116.34C284.48 116.34 284.3 116.394 284.168 116.502C284.036 116.61 283.97 116.766 283.97 116.97C283.97 117.126 284.018 117.27 284.114 117.402C284.222 117.534 284.42 117.666 284.708 117.798L283.772 119.688C283.052 119.4 282.494 119.01 282.098 118.518C281.714 118.026 281.522 117.438 281.522 116.754C281.522 116.334 281.636 115.95 281.864 115.602C282.092 115.254 282.416 114.978 282.836 114.774C283.268 114.558 283.772 114.45 284.348 114.45ZM291.908 118.266C291.908 118.926 291.764 119.496 291.476 119.976C291.2 120.456 290.798 120.846 290.27 121.146C289.742 121.434 289.106 121.638 288.362 121.758L287.948 121.02C288.536 121.176 289.124 121.374 289.712 121.614C290.312 121.842 290.9 122.112 291.476 122.424C292.064 122.724 292.64 123.072 293.204 123.468L291.926 125.142C291.362 124.734 290.768 124.356 290.144 124.008C289.52 123.66 288.86 123.342 288.164 123.054C287.468 122.778 286.736 122.538 285.968 122.334C285.212 122.118 284.414 121.944 283.574 121.812L284.006 119.922C284.39 120.018 284.78 120.096 285.176 120.156C285.572 120.216 285.974 120.246 286.382 120.246C287.114 120.246 287.708 120.168 288.164 120.012C288.632 119.844 288.974 119.61 289.19 119.31C289.406 119.01 289.514 118.644 289.514 118.212C289.514 117.864 289.436 117.516 289.28 117.168C289.124 116.808 288.836 116.442 288.416 116.07L289.964 114.486C290.564 115.062 291.038 115.65 291.386 116.25C291.734 116.838 291.908 117.51 291.908 118.266ZM293.15 111.804V113.784H280.82V111.804H293.15ZM304.653 111.804V113.784H296.697V118.77L296.175 118.41C296.607 117.942 297.111 117.492 297.687 117.06C298.263 116.628 298.899 116.214 299.595 115.818C300.303 115.422 301.059 115.062 301.863 114.738L303.501 116.106C303.333 116.406 303.189 116.73 303.069 117.078C302.961 117.414 302.877 117.774 302.817 118.158C302.769 118.53 302.745 118.926 302.745 119.346C302.745 119.814 302.793 120.342 302.889 120.93C302.985 121.506 303.135 122.1 303.339 122.712L301.017 123.198C300.801 122.562 300.633 121.944 300.513 121.344C300.405 120.744 300.351 120.09 300.351 119.382C300.351 118.938 300.393 118.512 300.477 118.104C300.561 117.684 300.675 117.288 300.819 116.916C300.963 116.544 301.113 116.202 301.269 115.89L301.989 116.898C301.281 117.198 300.591 117.57 299.919 118.014C299.247 118.446 298.605 118.914 297.993 119.418C297.381 119.91 296.811 120.402 296.283 120.894L294.321 119.616V113.784H292.791V111.804H304.653ZM310.119 111.804V113.784H308.391V123H306.015V115.008C305.871 114.636 305.667 114.342 305.403 114.126C305.139 113.898 304.797 113.784 304.377 113.784H304.287V111.804H304.647C304.923 111.804 305.181 111.876 305.421 112.02C305.661 112.164 305.883 112.47 306.087 112.938C306.075 112.878 306.057 112.74 306.033 112.524C306.021 112.308 306.015 112.122 306.015 111.966V110.616H307.959L308.373 111.804H310.119ZM321.526 111.804V113.784H319.798V123H317.422V119.22L317.782 120.156C317.41 119.676 317.008 119.238 316.576 118.842C316.144 118.446 315.706 118.128 315.262 117.888C314.83 117.648 314.404 117.528 313.984 117.528C313.684 117.528 313.426 117.6 313.21 117.744C313.006 117.876 312.904 118.092 312.904 118.392C312.904 118.656 313 118.878 313.192 119.058C313.384 119.238 313.69 119.412 314.11 119.58L313.048 121.56C312.244 121.248 311.608 120.804 311.14 120.228C310.684 119.64 310.456 118.998 310.456 118.302C310.456 117.654 310.606 117.126 310.906 116.718C311.206 116.298 311.59 115.992 312.058 115.8C312.538 115.596 313.03 115.494 313.534 115.494C314.086 115.494 314.608 115.578 315.1 115.746C315.592 115.914 316.06 116.154 316.504 116.466C316.96 116.766 317.404 117.138 317.836 117.582L317.476 117.762C317.452 117.474 317.434 117.18 317.422 116.88C317.422 116.568 317.422 116.28 317.422 116.016V113.784H309.754V111.804H321.526Z" fill="#FFCA3A"/>
<path d="M179.83 47.4282C180.212 47.4798 180.574 47.526 180.914 47.5668C181.255 47.6075 181.589 47.6278 181.915 47.6278C182.842 47.6278 183.688 47.4811 184.453 47.1877C184.37 46.5519 184.328 45.8087 184.328 44.9583C184.328 44.5344 184.349 44.0712 184.391 43.5685C184.432 43.0631 184.48 42.5713 184.533 42.0931C184.589 41.6149 184.643 41.1707 184.696 40.7604C184.752 40.3501 184.807 39.9983 184.86 39.7048C184.915 39.2266 185.1 38.5704 185.413 37.7363C185.725 36.8994 186.059 36.083 186.413 35.2869C186.768 34.4908 187.082 33.8142 187.356 33.2572C187.63 32.7002 187.766 32.4488 187.766 32.5032C187.738 32.2369 187.717 31.9448 187.704 31.6269C187.69 31.309 187.683 30.964 187.683 30.5917C187.683 30.407 187.683 30.089 187.683 29.638C187.683 29.187 187.697 28.7359 187.724 28.2849C187.752 27.8338 187.8 27.429 187.867 27.0703C187.934 26.7117 188.022 26.5324 188.131 26.5324C188.24 26.5324 188.376 26.6777 188.541 26.9685C189.633 29.172 191.473 31.0169 194.061 32.5032L198.765 35.2094C202.255 37.4374 204 40.4616 204 44.2818C204 45.0535 203.865 45.969 203.594 47.0287C203.32 48.0911 202.999 49.1196 202.63 50.114C202.265 51.1085 201.905 51.9711 201.55 52.702C201.195 53.4302 200.922 53.8473 200.729 53.9532C199.995 54.3526 199.136 54.6909 198.153 54.968C197.17 55.2479 196.12 55.4735 195.004 55.6446C193.887 55.8185 192.707 55.9448 191.465 56.0236C190.225 56.1024 188.992 56.1419 187.766 56.1419C186.728 56.1419 185.752 56.116 184.839 56.0644C183.926 56.0101 183.115 55.9435 182.405 55.8647C181.696 55.7859 181.117 55.7071 180.667 55.6283C180.218 55.5468 179.938 55.4802 179.83 55.4286C179.612 55.3743 179.394 55.2086 179.176 54.9315C178.958 54.6516 178.753 54.2929 178.561 53.8555C178.371 53.418 178.214 52.9276 178.091 52.3842C177.969 51.8381 177.907 51.2606 177.907 50.652C177.907 49.9618 178.044 49.3315 178.318 48.7609C178.588 48.1903 179.092 47.7461 179.83 47.4282ZM201.629 46.552C201.657 46.34 201.671 46.1606 201.671 46.0139C201.671 45.8672 201.671 45.768 201.671 45.7164C201.643 45.4229 201.357 45.0508 200.813 44.5997C200.266 44.1487 199.639 43.7111 198.932 43.2873C198.223 42.8634 197.521 42.4994 196.826 42.1951C196.13 41.8881 195.632 41.7345 195.33 41.7345C195.221 41.7345 195.004 42.1326 194.677 42.9287C194.35 43.7248 194.187 45.0127 194.187 46.7924C194.187 47.0831 194.261 47.2746 194.409 47.367C194.56 47.4594 194.949 47.5056 195.577 47.5056C196.312 47.5056 197.027 47.4662 197.722 47.3874C198.417 47.3086 199.045 47.2163 199.606 47.1103C200.165 47.0043 200.622 46.8984 200.976 46.7924C201.331 46.6837 201.548 46.6036 201.629 46.552ZM192.549 43.8049C192.549 43.5658 192.461 43.2615 192.285 42.892C192.107 42.5198 191.861 42.1543 191.548 41.7956C191.236 41.437 190.86 41.1313 190.422 40.8786C189.986 40.6286 189.496 40.5037 188.952 40.5037C187.505 40.5037 186.782 41.5647 186.782 43.6868C186.782 44.9855 186.973 45.9338 187.356 46.5316C187.738 47.1293 188.325 47.4282 189.115 47.4282C189.523 47.401 189.932 47.2678 190.342 47.0287C190.75 46.7896 191.117 46.4907 191.444 46.1321C191.773 45.7761 192.04 45.3917 192.244 44.9787C192.447 44.5684 192.549 44.1772 192.549 43.8049ZM195.288 4.81742C195.288 6.32812 194.867 7.81308 194.024 9.27216C193.178 10.734 191.909 12.2065 190.217 13.6901C188.664 15.0459 187.11 16.1409 185.555 16.975C184.003 17.8119 182.408 18.3757 180.772 18.6665C180.579 18.6665 180.483 18.5876 180.483 18.43C180.483 17.8187 180.762 17.2345 181.321 16.6775C181.882 16.1205 182.584 15.5894 183.427 15.084C184.438 14.4754 185.291 13.9047 185.986 13.3722C186.682 12.8423 187.247 12.3519 187.683 11.9009L187.599 11.5015C186.317 10.0968 185.676 8.46509 185.676 6.60661C185.676 5.86484 185.813 5.1028 186.087 4.32028C186.36 3.53776 186.743 2.8272 187.234 2.18869C187.723 1.55289 188.295 1.02842 188.952 0.615424C189.605 0.205144 190.327 0 191.117 0C193.898 0 195.288 1.60583 195.288 4.81742ZM192.876 7.6826C193.15 7.31036 193.287 6.89869 193.287 6.44765C193.287 6.05096 193.185 5.69239 192.981 5.37178C192.774 5.05388 192.514 4.78212 192.202 4.5566C191.889 4.33108 191.534 4.15861 191.138 4.03906C190.744 3.91951 190.342 3.85971 189.932 3.85971C188.376 3.85971 187.599 4.43023 187.599 5.5714C187.599 5.97082 187.695 6.33632 187.888 6.6678C188.078 6.99928 188.329 7.28454 188.642 7.52365C188.957 7.76275 189.312 7.95427 189.706 8.09828C190.102 8.245 190.491 8.31842 190.874 8.31842C191.583 8.31842 192.251 8.10647 192.876 7.6826ZM181.316 55.4286C179.982 55.2167 178.742 54.8445 177.597 54.3119C176.478 53.7821 175.468 53.2522 174.569 52.7224C173.67 52.1898 172.818 51.5989 172.014 50.9495C171.21 50.3001 170.433 49.5706 169.681 48.7609C168.933 47.9512 168.162 46.9893 167.369 45.8753C166.716 47.7583 166.144 49.4361 165.652 50.9088C165.161 52.3815 164.69 53.6816 164.241 54.8092C163.791 55.9368 163.328 56.8917 162.85 57.6742C162.373 58.4595 161.835 59.0967 161.238 59.5858C160.638 60.0776 159.935 60.4362 159.131 60.6617C158.327 60.8872 157.379 61 156.287 61C155.171 61 154.147 60.7282 153.217 60.1848C152.29 59.6387 151.453 58.9622 150.704 58.1552C149.953 57.3455 149.313 56.4693 148.782 55.5265C148.249 54.5837 147.833 53.7141 147.534 52.918C147.397 52.5757 147.193 51.8394 146.922 50.7091C146.649 49.5815 146.368 48.2759 146.081 46.7924C145.796 45.3061 145.544 43.7669 145.327 42.1747C145.109 40.5825 145 39.1628 145 37.9156C145 37.3586 145.027 36.8873 145.08 36.5014C145.135 36.1183 145.19 35.6346 145.243 35.0504L145.406 34.8915C145.49 34.9431 145.532 34.9961 145.532 35.0504C146.814 41.0471 147.672 44.6554 148.108 45.8753C149.934 50.8367 152.565 53.3174 156.003 53.3174C157.418 53.3174 158.705 53.0185 159.864 52.4208C161.023 51.8257 161.999 51.0637 162.792 50.1344C163.582 49.2052 164.195 48.1835 164.63 47.0695C165.066 45.9555 165.284 44.8809 165.284 43.8457C165.203 43.8457 163.812 40.1314 161.112 32.7029C161.031 31.7193 160.991 30.7506 160.991 29.797C160.991 29.3704 161.005 28.8854 161.033 28.342C161.058 27.7986 161.091 27.281 161.133 26.7892C161.175 26.3002 161.236 25.8899 161.317 25.5584C161.398 25.2269 161.481 25.0611 161.565 25.0611C161.674 25.0611 161.761 25.1467 161.828 25.3178C161.898 25.489 161.946 25.6412 161.971 25.7743C164.643 33.4691 167.779 39.1343 171.378 42.7697C172.55 43.6446 173.614 44.3619 174.569 44.9216C175.524 45.4786 176.39 45.9228 177.166 46.2543C177.945 46.5858 178.668 46.8373 179.335 47.0084C180.003 47.1823 180.663 47.3222 181.316 47.4282C181.562 47.4282 181.801 47.5599 182.033 47.8235C182.264 48.0898 182.47 48.4416 182.648 48.8791C182.824 49.3165 182.974 49.8083 183.096 50.3545C183.219 50.8979 183.281 51.4481 183.281 52.0051C183.281 52.774 183.131 53.4832 182.833 54.1326C182.531 54.7847 182.026 55.2167 181.316 55.4286ZM165.728 9.01121C165.401 9.59539 165.046 10.166 164.664 10.723C164.281 11.28 163.858 11.7977 163.395 12.2759L162.088 13.3478C160.368 14.1439 158.581 14.8938 156.727 15.5975C154.873 16.3013 153.17 17.1177 151.618 18.0469C151.4 17.9681 151.208 17.9288 151.044 17.9288C150.879 17.9288 150.797 17.7684 150.797 17.4478C150.961 16.812 151.248 16.2415 151.655 15.7361C152.066 15.2334 152.448 14.7172 152.803 14.1873C153.674 13.4972 154.627 12.9197 155.663 12.4551C156.702 11.9905 157.759 11.5585 158.834 11.1591C159.912 10.7624 161.003 10.3589 162.109 9.94865C163.212 9.53565 164.255 9.02481 165.238 8.41619C165.428 8.41619 165.556 8.48141 165.623 8.61183C165.693 8.74497 165.728 8.87808 165.728 9.01121ZM165.728 13.788C165.401 14.3993 165.046 14.9835 164.664 15.5405C164.281 16.0975 163.858 16.6015 163.395 17.0525L162.088 18.1651C161.242 18.5645 160.363 18.9422 159.45 19.2982C158.536 19.6568 157.629 20.0223 156.727 20.3946C155.828 20.7668 154.943 21.1512 154.072 21.5479C153.198 21.9473 152.38 22.3848 151.618 22.8602C151.372 22.7543 151.174 22.7013 151.023 22.7013C150.872 22.7013 150.797 22.5423 150.797 22.2244C151.042 21.2952 151.458 20.4923 152.045 19.8157C152.631 19.1392 153.326 18.5428 154.13 18.0265C154.935 17.5103 155.814 17.0592 156.769 16.6734C157.724 16.2876 158.698 15.9154 159.692 15.5567C160.689 15.2008 161.665 14.8367 162.62 14.4645C163.572 14.0922 164.445 13.667 165.238 13.1888C165.428 13.1888 165.556 13.2553 165.623 13.3885C165.693 13.5216 165.728 13.6548 165.728 13.788Z" fill="#F5F9FA"/>
</svg>
