<svg width="260" height="155" viewBox="0 0 260 155" fill="none" xmlns="http://www.w3.org/2000/svg">
<path d="M179 153.488C185.118 151.362 188.177 146.792 188.177 139.779V132.119C188.177 126.245 190.45 122.727 194.995 121.566C190.45 120.492 188.177 116.974 188.177 111.013V103.55C188.177 96.1421 185.172 91.4519 179.162 89.4794L179.614 88C183.061 89.0958 185.624 90.8821 187.304 93.3587C189.006 95.8134 189.879 99.0242 189.922 102.991V111.177C189.922 117.38 192.615 120.481 198 120.481V122.651C192.615 122.651 189.922 125.774 189.922 132.02V139.812C189.922 143.888 189.071 147.154 187.369 149.608C185.689 152.085 183.104 153.882 179.614 155L179 153.488Z" fill="#F5F9FA"/>
<path d="M13.708 90.804V92.082H11.818V102H10.432C10.096 101.508 9.712 101.034 9.28 100.578C8.848 100.122 8.368 99.702 7.84 99.318C7.312 98.934 6.73 98.604 6.094 98.328C5.458 98.052 4.756 97.848 3.988 97.716L3.556 96.042L4.42 96.672C5.536 96.864 6.478 97.158 7.246 97.554C8.026 97.938 8.674 98.37 9.19 98.85C9.718 99.33 10.144 99.798 10.468 100.254C10.456 99.978 10.444 99.702 10.432 99.426C10.432 99.15 10.432 98.85 10.432 98.526V89.616H11.386L11.8 90.804H13.708ZM9.1 93.54C9.1 94.236 8.908 94.83 8.524 95.322C8.152 95.802 7.636 96.186 6.976 96.474C6.328 96.75 5.59 96.936 4.762 97.032L3.916 96.87L3.556 96.042C4.528 95.97 5.32 95.832 5.932 95.628C6.556 95.412 7.012 95.136 7.3 94.8C7.6 94.452 7.75 94.056 7.75 93.612C7.75 93.24 7.666 92.904 7.498 92.604C7.33 92.304 7.06 92.01 6.688 91.722L7.678 90.75C8.086 91.122 8.422 91.548 8.686 92.028C8.962 92.496 9.1 93 9.1 93.54ZM4.276 94.26C3.544 94.26 2.962 94.074 2.53 93.702C2.098 93.318 1.882 92.796 1.882 92.136C1.882 91.86 1.918 91.596 1.99 91.344C2.074 91.092 2.17 90.876 2.278 90.696L3.646 91.074C3.562 91.194 3.49 91.344 3.43 91.524C3.37 91.692 3.34 91.872 3.34 92.064C3.34 92.376 3.424 92.61 3.592 92.766C3.772 92.91 4 92.982 4.276 92.982C4.516 92.982 4.768 92.934 5.032 92.838C5.296 92.742 5.566 92.55 5.842 92.262C6.13 91.974 6.412 91.548 6.688 90.984L7.678 90.75L7.714 91.65C7.474 92.178 7.186 92.64 6.85 93.036C6.514 93.42 6.13 93.72 5.698 93.936C5.278 94.152 4.804 94.26 4.276 94.26ZM22.8492 99.642V91.758H24.3612V99.642H22.8492ZM19.5732 96.42V94.998H27.6372V96.42H19.5732ZM45.1257 90.804V92.082H43.2357V102H41.8497C41.3457 101.328 40.7877 100.74 40.1757 100.236C39.5637 99.72 38.8557 99.288 38.0517 98.94C37.2477 98.592 36.2937 98.34 35.1897 98.184L34.5417 96.546C34.9137 96.294 35.3037 96.054 35.7117 95.826C36.1197 95.598 36.5337 95.376 36.9537 95.16C37.3857 94.944 37.8057 94.74 38.2137 94.548C37.7577 94.2 37.2297 93.894 36.6297 93.63C36.0417 93.354 35.3457 93.132 34.5417 92.964L35.0997 91.74L35.1357 92.082H33.4977V90.804H45.1257ZM41.8497 92.082H36.1077L35.7297 91.92C36.2337 92.04 36.7377 92.232 37.2417 92.496C37.7577 92.76 38.2317 93.048 38.6637 93.36C39.1077 93.66 39.4617 93.948 39.7257 94.224L39.8157 95.232C39.3837 95.424 38.9277 95.634 38.4477 95.862C37.9797 96.09 37.5237 96.318 37.0797 96.546C36.6477 96.774 36.2637 97.002 35.9277 97.23L35.7117 96.96C36.7437 97.104 37.6437 97.344 38.4117 97.68C39.1917 98.016 39.8817 98.424 40.4817 98.904C41.0817 99.384 41.6337 99.918 42.1377 100.506L41.9037 100.578C41.8917 100.326 41.8797 100.056 41.8677 99.768C41.8557 99.468 41.8497 99.186 41.8497 98.922V92.082ZM55.8533 90.804V92.082H53.9633V102H52.5773C52.2173 101.28 51.7193 100.62 51.0833 100.02C50.4593 99.408 49.7393 98.892 48.9233 98.472C48.1073 98.052 47.2373 97.77 46.3133 97.626L45.6113 95.898C46.7633 95.202 47.9513 94.572 49.1753 94.008C50.4113 93.444 51.6833 92.964 52.9913 92.568L52.5773 93.324V92.082H44.7653V90.804H55.8533ZM52.5773 93.468L52.9553 93.972C52.0433 94.272 51.0833 94.644 50.0753 95.088C49.0673 95.52 48.1373 96 47.2853 96.528C47.9333 96.672 48.6233 96.918 49.3553 97.266C50.0873 97.614 50.7653 98.052 51.3893 98.58C52.0133 99.108 52.4933 99.72 52.8293 100.416H52.6673C52.6433 100.14 52.6193 99.864 52.5953 99.588C52.5833 99.312 52.5773 98.982 52.5773 98.598V93.468ZM66.576 90.804V92.082H64.686V102H63.3C62.94 101.28 62.442 100.62 61.806 100.02C61.182 99.408 60.462 98.892 59.646 98.472C58.83 98.052 57.96 97.77 57.036 97.626L56.334 95.898C57.486 95.202 58.674 94.572 59.898 94.008C61.134 93.444 62.406 92.964 63.714 92.568L63.3 93.324V92.082H55.488V90.804H66.576ZM63.3 93.468L63.678 93.972C62.766 94.272 61.806 94.644 60.798 95.088C59.79 95.52 58.86 96 58.008 96.528C58.656 96.672 59.346 96.918 60.078 97.266C60.81 97.614 61.488 98.052 62.112 98.58C62.736 99.108 63.216 99.72 63.552 100.416H63.39C63.366 100.14 63.342 99.864 63.318 99.588C63.306 99.312 63.3 98.982 63.3 98.598V93.468ZM58.998 102.108C58.698 102.108 58.44 102.012 58.224 101.82C58.02 101.628 57.918 101.376 57.918 101.064C57.918 100.752 58.02 100.494 58.224 100.29C58.44 100.086 58.698 99.984 58.998 99.984C59.298 99.984 59.55 100.086 59.754 100.29C59.97 100.494 60.078 100.752 60.078 101.064C60.078 101.376 59.97 101.628 59.754 101.82C59.55 102.012 59.298 102.108 58.998 102.108ZM72.4306 94.278V92.856H80.4946V94.278H72.4306ZM72.4306 98.544V97.122H80.4946V98.544H72.4306ZM99.2432 90.804V92.082H97.3532V102H95.9672C95.6312 101.508 95.2472 101.034 94.8152 100.578C94.3832 100.122 93.9032 99.702 93.3752 99.318C92.8472 98.934 92.2652 98.604 91.6292 98.328C90.9932 98.052 90.2912 97.848 89.5232 97.716L89.0912 96.042L89.9552 96.672C91.0712 96.864 92.0132 97.158 92.7812 97.554C93.5612 97.938 94.2092 98.37 94.7252 98.85C95.2532 99.33 95.6792 99.798 96.0032 100.254C95.9912 99.978 95.9792 99.702 95.9672 99.426C95.9672 99.15 95.9672 98.85 95.9672 98.526V89.616H96.9212L97.3352 90.804H99.2432ZM94.6352 93.54C94.6352 94.236 94.4432 94.83 94.0592 95.322C93.6872 95.802 93.1712 96.186 92.5112 96.474C91.8632 96.75 91.1252 96.936 90.2972 97.032L89.4512 96.87L89.0912 96.042C90.0632 95.97 90.8552 95.832 91.4672 95.628C92.0912 95.412 92.5472 95.136 92.8352 94.8C93.1352 94.452 93.2852 94.056 93.2852 93.612C93.2852 93.24 93.2012 92.904 93.0332 92.604C92.8652 92.304 92.5952 92.01 92.2232 91.722L93.2132 90.75C93.6212 91.122 93.9572 91.548 94.2212 92.028C94.4972 92.496 94.6352 93 94.6352 93.54ZM89.8112 94.26C89.0792 94.26 88.4972 94.074 88.0652 93.702C87.6332 93.318 87.4172 92.796 87.4172 92.136C87.4172 91.86 87.4532 91.596 87.5252 91.344C87.6092 91.092 87.7052 90.876 87.8132 90.696L89.1812 91.074C89.0972 91.194 89.0252 91.344 88.9652 91.524C88.9052 91.692 88.8752 91.872 88.8752 92.064C88.8752 92.376 88.9592 92.61 89.1272 92.766C89.3072 92.91 89.5352 92.982 89.8112 92.982C90.0512 92.982 90.3032 92.934 90.5672 92.838C90.8312 92.742 91.1012 92.55 91.3772 92.262C91.6652 91.974 91.9472 91.548 92.2232 90.984L93.2132 90.75L93.2492 91.65C93.0092 92.178 92.7212 92.64 92.3852 93.036C92.0492 93.42 91.6652 93.72 91.2332 93.936C90.8132 94.152 90.3392 94.26 89.8112 94.26Z" fill="#F5F9FA"/>
<path d="M8.326 126.1C7.342 126.1 6.424 125.86 5.572 125.38C4.72 124.888 3.952 124.096 3.268 123.004C2.596 121.912 2.014 120.448 1.522 118.612L2.89 118.252C3.31 119.74 3.766 120.964 4.258 121.924C4.762 122.884 5.338 123.592 5.986 124.048C6.646 124.504 7.414 124.732 8.29 124.732C8.854 124.732 9.328 124.666 9.712 124.534C10.096 124.39 10.402 124.192 10.63 123.94C10.87 123.688 11.044 123.4 11.152 123.076C11.26 122.74 11.314 122.38 11.314 121.996C11.314 121.492 11.218 121.036 11.026 120.628C10.834 120.208 10.564 119.878 10.216 119.638C9.868 119.398 9.46 119.278 8.992 119.278C8.512 119.278 8.164 119.38 7.948 119.584C7.744 119.788 7.642 120.058 7.642 120.394C7.642 120.514 7.654 120.64 7.678 120.772C7.702 120.904 7.744 121.054 7.804 121.222L6.418 121.492C6.346 121.264 6.286 121.042 6.238 120.826C6.202 120.61 6.184 120.388 6.184 120.16C6.184 119.692 6.298 119.302 6.526 118.99C6.766 118.666 7.09 118.42 7.498 118.252C7.918 118.084 8.392 118 8.92 118C9.664 118 10.318 118.174 10.882 118.522C11.446 118.858 11.89 119.332 12.214 119.944C12.538 120.556 12.7 121.264 12.7 122.068C12.7 122.824 12.538 123.508 12.214 124.12C11.902 124.72 11.422 125.2 10.774 125.56C10.126 125.92 9.31 126.1 8.326 126.1ZM13.906 115.804V117.082H0.82V115.804H13.906ZM18.6946 115.804V117.082H16.8046V127H15.4186V118.558C15.2746 118.15 15.0586 117.802 14.7706 117.514C14.4946 117.226 14.1346 117.082 13.6906 117.082H13.5466V115.804H13.8166C14.1046 115.804 14.4046 115.9 14.7166 116.092C15.0286 116.272 15.2806 116.554 15.4726 116.938C15.4606 116.878 15.4486 116.74 15.4366 116.524C15.4246 116.308 15.4186 116.122 15.4186 115.966V114.616H16.3906L16.7866 115.804H18.6946ZM32.6578 124.642V116.758H34.1698V124.642H32.6578ZM29.3818 121.42V119.998H37.4458V121.42H29.3818ZM54.9343 115.804V117.082H53.0443V127H51.6583C51.1543 126.328 50.5963 125.74 49.9843 125.236C49.3723 124.72 48.6643 124.288 47.8603 123.94C47.0563 123.592 46.1023 123.34 44.9983 123.184L44.3503 121.546C44.7223 121.294 45.1123 121.054 45.5203 120.826C45.9283 120.598 46.3423 120.376 46.7623 120.16C47.1943 119.944 47.6143 119.74 48.0223 119.548C47.5663 119.2 47.0383 118.894 46.4383 118.63C45.8503 118.354 45.1543 118.132 44.3503 117.964L44.9083 116.74L44.9443 117.082H43.3063V115.804H54.9343ZM51.6583 117.082H45.9163L45.5383 116.92C46.0423 117.04 46.5463 117.232 47.0503 117.496C47.5663 117.76 48.0403 118.048 48.4723 118.36C48.9163 118.66 49.2703 118.948 49.5343 119.224L49.6243 120.232C49.1923 120.424 48.7363 120.634 48.2563 120.862C47.7883 121.09 47.3323 121.318 46.8883 121.546C46.4563 121.774 46.0723 122.002 45.7363 122.23L45.5203 121.96C46.5523 122.104 47.4523 122.344 48.2203 122.68C49.0003 123.016 49.6903 123.424 50.2903 123.904C50.8903 124.384 51.4423 124.918 51.9463 125.506L51.7123 125.578C51.7003 125.326 51.6883 125.056 51.6763 124.768C51.6643 124.468 51.6583 124.186 51.6583 123.922V117.082ZM65.6619 115.804V117.082H63.7719V127H62.3859C62.0259 126.28 61.5279 125.62 60.8919 125.02C60.2679 124.408 59.5479 123.892 58.7319 123.472C57.9159 123.052 57.0459 122.77 56.1219 122.626L55.4199 120.898C56.5719 120.202 57.7599 119.572 58.9839 119.008C60.2199 118.444 61.4919 117.964 62.7999 117.568L62.3859 118.324V117.082H54.5739V115.804H65.6619ZM62.3859 118.468L62.7639 118.972C61.8519 119.272 60.8919 119.644 59.8839 120.088C58.8759 120.52 57.9459 121 57.0939 121.528C57.7419 121.672 58.4319 121.918 59.1639 122.266C59.8959 122.614 60.5739 123.052 61.1979 123.58C61.8219 124.108 62.3019 124.72 62.6379 125.416H62.4759C62.4519 125.14 62.4279 124.864 62.4039 124.588C62.3919 124.312 62.3859 123.982 62.3859 123.598V118.468ZM76.3846 115.804V117.082H74.4946V127H73.1086C72.7486 126.28 72.2506 125.62 71.6146 125.02C70.9906 124.408 70.2706 123.892 69.4546 123.472C68.6386 123.052 67.7686 122.77 66.8446 122.626L66.1426 120.898C67.2946 120.202 68.4826 119.572 69.7066 119.008C70.9426 118.444 72.2146 117.964 73.5226 117.568L73.1086 118.324V117.082H65.2966V115.804H76.3846ZM73.1086 118.468L73.4866 118.972C72.5746 119.272 71.6146 119.644 70.6066 120.088C69.5986 120.52 68.6686 121 67.8166 121.528C68.4646 121.672 69.1546 121.918 69.8866 122.266C70.6186 122.614 71.2966 123.052 71.9206 123.58C72.5446 124.108 73.0246 124.72 73.3606 125.416H73.1986C73.1746 125.14 73.1506 124.864 73.1266 124.588C73.1146 124.312 73.1086 123.982 73.1086 123.598V118.468ZM68.8066 127.108C68.5066 127.108 68.2486 127.012 68.0326 126.82C67.8286 126.628 67.7266 126.376 67.7266 126.064C67.7266 125.752 67.8286 125.494 68.0326 125.29C68.2486 125.086 68.5066 124.984 68.8066 124.984C69.1066 124.984 69.3586 125.086 69.5626 125.29C69.7786 125.494 69.8866 125.752 69.8866 126.064C69.8866 126.376 69.7786 126.628 69.5626 126.82C69.3586 127.012 69.1066 127.108 68.8066 127.108ZM87.0732 119.278V117.856H95.1372V119.278H87.0732ZM87.0732 123.544V122.122H95.1372V123.544H87.0732ZM108.504 126.1C107.52 126.1 106.602 125.86 105.75 125.38C104.898 124.888 104.13 124.096 103.446 123.004C102.774 121.912 102.192 120.448 101.7 118.612L103.068 118.252C103.488 119.74 103.944 120.964 104.436 121.924C104.94 122.884 105.516 123.592 106.164 124.048C106.824 124.504 107.592 124.732 108.468 124.732C109.032 124.732 109.506 124.666 109.89 124.534C110.274 124.39 110.58 124.192 110.808 123.94C111.048 123.688 111.222 123.4 111.33 123.076C111.438 122.74 111.492 122.38 111.492 121.996C111.492 121.492 111.396 121.036 111.204 120.628C111.012 120.208 110.742 119.878 110.394 119.638C110.046 119.398 109.638 119.278 109.17 119.278C108.69 119.278 108.342 119.38 108.126 119.584C107.922 119.788 107.82 120.058 107.82 120.394C107.82 120.514 107.832 120.64 107.856 120.772C107.88 120.904 107.922 121.054 107.982 121.222L106.596 121.492C106.524 121.264 106.464 121.042 106.416 120.826C106.38 120.61 106.362 120.388 106.362 120.16C106.362 119.692 106.476 119.302 106.704 118.99C106.944 118.666 107.268 118.42 107.676 118.252C108.096 118.084 108.57 118 109.098 118C109.842 118 110.496 118.174 111.06 118.522C111.624 118.858 112.068 119.332 112.392 119.944C112.716 120.556 112.878 121.264 112.878 122.068C112.878 122.824 112.716 123.508 112.392 124.12C112.08 124.72 111.6 125.2 110.952 125.56C110.304 125.92 109.488 126.1 108.504 126.1ZM114.084 115.804V117.082H100.998V115.804H114.084ZM118.872 115.804V117.082H116.982V127H115.596V118.558C115.452 118.15 115.236 117.802 114.948 117.514C114.672 117.226 114.312 117.082 113.868 117.082H113.724V115.804H113.994C114.282 115.804 114.582 115.9 114.894 116.092C115.206 116.272 115.458 116.554 115.65 116.938C115.638 116.878 115.626 116.74 115.614 116.524C115.602 116.308 115.596 116.122 115.596 115.966V114.616H116.568L116.964 115.804H118.872Z" fill="#F5F9FA"/>
<path d="M223.662 113.804V115.784H221.934V125H219.558C219.138 124.496 218.7 124.046 218.244 123.65C217.788 123.254 217.296 122.912 216.768 122.624C216.24 122.336 215.664 122.096 215.04 121.904C214.428 121.7 213.744 121.538 212.988 121.418L212.394 119.33L213.456 119.762C214.62 119.882 215.574 120.08 216.318 120.356C217.062 120.62 217.686 120.932 218.19 121.292C218.694 121.64 219.162 122 219.594 122.372C219.582 122.096 219.57 121.82 219.558 121.544C219.558 121.256 219.558 120.956 219.558 120.644V112.616H221.502L221.916 113.804H223.662ZM218.55 116.684C218.55 117.332 218.394 117.926 218.082 118.466C217.782 119.006 217.314 119.456 216.678 119.816C216.054 120.176 215.244 120.416 214.248 120.536L212.754 120.176L212.394 119.33C213.27 119.162 213.99 118.97 214.554 118.754C215.118 118.538 215.538 118.28 215.814 117.98C216.09 117.68 216.228 117.326 216.228 116.918C216.228 116.558 216.108 116.246 215.868 115.982C215.64 115.718 215.376 115.472 215.076 115.244L217.326 113.75C217.674 114.122 217.962 114.56 218.19 115.064C218.43 115.568 218.55 116.108 218.55 116.684ZM213.438 117.422C212.634 117.422 211.992 117.23 211.512 116.846C211.032 116.45 210.792 115.91 210.792 115.226C210.792 114.938 210.828 114.668 210.9 114.416C210.972 114.152 211.062 113.912 211.17 113.696L213.294 114.2C213.246 114.308 213.204 114.41 213.168 114.506C213.144 114.602 213.132 114.704 213.132 114.812C213.132 115.028 213.198 115.184 213.33 115.28C213.462 115.376 213.63 115.424 213.834 115.424C214.062 115.424 214.266 115.388 214.446 115.316C214.638 115.232 214.83 115.1 215.022 114.92C215.214 114.728 215.424 114.464 215.652 114.128L217.326 113.75L217.56 114.434C217.2 115.058 216.828 115.592 216.444 116.036C216.072 116.48 215.646 116.822 215.166 117.062C214.686 117.302 214.11 117.422 213.438 117.422ZM231.222 124.406C230.094 124.406 229.056 124.19 228.108 123.758C227.172 123.314 226.338 122.576 225.606 121.544C224.886 120.5 224.274 119.084 223.77 117.296L226.02 116.666C226.392 117.962 226.8 119.03 227.244 119.87C227.7 120.71 228.228 121.334 228.828 121.742C229.428 122.138 230.13 122.336 230.934 122.336C231.402 122.336 231.804 122.294 232.14 122.21C232.488 122.114 232.77 121.976 232.986 121.796C233.214 121.616 233.382 121.394 233.49 121.13C233.598 120.854 233.652 120.542 233.652 120.194C233.652 119.786 233.574 119.45 233.418 119.186C233.274 118.91 233.082 118.706 232.842 118.574C232.602 118.43 232.344 118.358 232.068 118.358C231.792 118.358 231.558 118.43 231.366 118.574C231.186 118.718 231.096 118.934 231.096 119.222C231.096 119.354 231.108 119.486 231.132 119.618C231.156 119.75 231.192 119.876 231.24 119.996L228.99 120.338C228.87 120.062 228.786 119.804 228.738 119.564C228.69 119.324 228.666 119.114 228.666 118.934C228.666 118.334 228.816 117.854 229.116 117.494C229.416 117.122 229.806 116.852 230.286 116.684C230.778 116.516 231.3 116.432 231.852 116.432C232.752 116.432 233.514 116.606 234.138 116.954C234.762 117.302 235.236 117.776 235.56 118.376C235.884 118.964 236.046 119.642 236.046 120.41C236.046 121.118 235.878 121.778 235.542 122.39C235.218 123.002 234.702 123.494 233.994 123.866C233.286 124.226 232.362 124.406 231.222 124.406ZM236.838 113.804V115.784H223.302V113.804H236.838ZM242.318 113.804V115.784H240.59V125H238.214V117.008C238.07 116.636 237.866 116.342 237.602 116.126C237.338 115.898 236.996 115.784 236.576 115.784H236.486V113.804H236.846C237.122 113.804 237.38 113.876 237.62 114.02C237.86 114.164 238.082 114.47 238.286 114.938C238.274 114.878 238.256 114.74 238.232 114.524C238.22 114.308 238.214 114.122 238.214 113.966V112.616H240.158L240.572 113.804H242.318ZM253.923 113.804V115.784H252.195V125H249.819V122.66L250.125 123.614C249.681 123.002 249.255 122.48 248.847 122.048C248.439 121.604 248.031 121.268 247.623 121.04C247.215 120.8 246.783 120.68 246.327 120.68C246.051 120.68 245.811 120.752 245.607 120.896C245.403 121.04 245.301 121.256 245.301 121.544C245.301 121.856 245.415 122.102 245.643 122.282C245.883 122.45 246.207 122.606 246.615 122.75L245.931 124.82C245.211 124.616 244.623 124.34 244.167 123.992C243.723 123.632 243.393 123.236 243.177 122.804C242.961 122.372 242.853 121.928 242.853 121.472C242.853 120.836 243.003 120.314 243.303 119.906C243.603 119.498 243.987 119.198 244.455 119.006C244.935 118.814 245.427 118.718 245.931 118.718C246.519 118.718 247.059 118.796 247.551 118.952C248.055 119.108 248.523 119.354 248.955 119.69C249.387 120.014 249.807 120.44 250.215 120.968L249.855 121.238C249.843 120.95 249.831 120.662 249.819 120.374C249.819 120.074 249.819 119.78 249.819 119.492V115.784H241.953V113.804H253.923ZM247.911 119.222C247.911 119.282 247.905 119.372 247.893 119.492C247.893 119.6 247.881 119.708 247.857 119.816L245.535 119.222C245.511 118.658 245.409 118.214 245.229 117.89C245.049 117.566 244.749 117.32 244.329 117.152C243.909 116.984 243.309 116.864 242.529 116.792L242.997 114.974L244.005 115.262C244.725 115.346 245.331 115.49 245.823 115.694C246.327 115.898 246.729 116.162 247.029 116.486C247.341 116.798 247.563 117.182 247.695 117.638C247.839 118.094 247.911 118.622 247.911 119.222ZM259.386 113.804V115.784H257.658V125H255.282V117.008C255.138 116.636 254.934 116.342 254.67 116.126C254.406 115.898 254.064 115.784 253.644 115.784H253.554V113.804H253.914C254.19 113.804 254.448 113.876 254.688 114.02C254.928 114.164 255.15 114.47 255.354 114.938C255.342 114.878 255.324 114.74 255.3 114.524C255.288 114.308 255.282 114.122 255.282 113.966V112.616H257.226L257.64 113.804H259.386Z" fill="#FFCA3A"/>
<path d="M12.376 140.804V142.082H10.486V152H9.1V149.57L9.424 150.524C9.004 149.888 8.578 149.3 8.146 148.76C7.726 148.22 7.276 147.782 6.796 147.446C6.328 147.11 5.812 146.942 5.248 146.942C4.804 146.942 4.426 147.056 4.114 147.284C3.814 147.512 3.664 147.854 3.664 148.31C3.664 148.706 3.808 149.042 4.096 149.318C4.384 149.582 4.81 149.81 5.374 150.002L4.924 151.388C4.276 151.16 3.748 150.884 3.34 150.56C2.944 150.236 2.65 149.882 2.458 149.498C2.278 149.102 2.188 148.688 2.188 148.256C2.188 147.68 2.326 147.2 2.602 146.816C2.89 146.432 3.25 146.144 3.682 145.952C4.126 145.748 4.57 145.646 5.014 145.646C5.734 145.646 6.364 145.778 6.904 146.042C7.456 146.306 7.936 146.66 8.344 147.104C8.764 147.548 9.142 148.046 9.478 148.598L9.172 148.652C9.148 148.376 9.13 148.1 9.118 147.824C9.106 147.536 9.1 147.242 9.1 146.942V142.082H0.82V140.804H12.376ZM6.382 146.186C6.382 146.258 6.376 146.33 6.364 146.402C6.364 146.474 6.358 146.546 6.346 146.618L4.978 146.204C4.954 145.508 4.834 144.95 4.618 144.53C4.402 144.11 4.06 143.792 3.592 143.576C3.124 143.348 2.488 143.192 1.684 143.108L1.918 141.812L2.746 142.046C3.322 142.094 3.832 142.214 4.276 142.406C4.732 142.586 5.116 142.844 5.428 143.18C5.74 143.516 5.974 143.936 6.13 144.44C6.298 144.932 6.382 145.514 6.382 146.186ZM17.1653 142.082H15.2753V152H13.8893V142.082H12.0173V140.804H13.8893C13.8413 140.024 13.6373 139.37 13.2773 138.842C12.9293 138.314 12.4733 137.9 11.9093 137.6C11.3333 137.288 10.6853 137.066 9.96527 136.934C9.23327 136.802 8.46527 136.736 7.66127 136.736C6.95327 136.736 6.34727 136.778 5.84327 136.862C5.32727 136.934 4.93127 137.042 4.65527 137.186C4.37927 137.33 4.24127 137.516 4.24127 137.744C4.24127 137.972 4.38527 138.116 4.67327 138.176C4.96127 138.236 5.27927 138.266 5.62727 138.266H7.35527C7.99127 138.266 8.49527 138.32 8.86727 138.428C9.23927 138.536 9.53927 138.71 9.76727 138.95C9.99527 139.178 10.1573 139.448 10.2533 139.76C10.3493 140.072 10.3973 140.462 10.3973 140.93H9.19127C9.17927 140.642 9.14327 140.408 9.08327 140.228C9.02327 140.036 8.92727 139.892 8.79527 139.796C8.67527 139.7 8.53127 139.634 8.36327 139.598C8.18327 139.562 7.93727 139.544 7.62527 139.544H5.84327C5.35127 139.544 4.91927 139.514 4.54727 139.454C4.17527 139.382 3.86927 139.286 3.62927 139.166C3.32926 138.998 3.11926 138.794 2.99926 138.554C2.87927 138.314 2.81927 138.062 2.81927 137.798C2.81927 137.102 3.20927 136.544 3.98927 136.124C4.76927 135.704 5.95727 135.494 7.55327 135.494C9.98927 135.494 11.8613 135.926 13.1693 136.79C14.4893 137.642 15.2093 138.98 15.3293 140.804H17.1653V142.082ZM28.3545 140.804V142.082H26.4645V152H25.0785V149.57L25.4025 150.524C24.9825 149.888 24.5565 149.3 24.1245 148.76C23.7045 148.22 23.2545 147.782 22.7745 147.446C22.3065 147.11 21.7905 146.942 21.2265 146.942C20.7825 146.942 20.4045 147.056 20.0925 147.284C19.7925 147.512 19.6425 147.854 19.6425 148.31C19.6425 148.706 19.7865 149.042 20.0745 149.318C20.3625 149.582 20.7885 149.81 21.3525 150.002L20.9025 151.388C20.2545 151.16 19.7265 150.884 19.3185 150.56C18.9225 150.236 18.6285 149.882 18.4365 149.498C18.2565 149.102 18.1665 148.688 18.1665 148.256C18.1665 147.68 18.3045 147.2 18.5805 146.816C18.8685 146.432 19.2285 146.144 19.6605 145.952C20.1045 145.748 20.5485 145.646 20.9925 145.646C21.7125 145.646 22.3425 145.778 22.8825 146.042C23.4345 146.306 23.9145 146.66 24.3225 147.104C24.7425 147.548 25.1205 148.046 25.4565 148.598L25.1505 148.652C25.1265 148.376 25.1085 148.1 25.0965 147.824C25.0845 147.536 25.0785 147.242 25.0785 146.942V142.082H16.7985V140.804H28.3545ZM22.3605 146.186C22.3605 146.258 22.3545 146.33 22.3425 146.402C22.3425 146.474 22.3365 146.546 22.3245 146.618L20.9565 146.204C20.9325 145.508 20.8125 144.95 20.5965 144.53C20.3805 144.11 20.0385 143.792 19.5705 143.576C19.1025 143.348 18.4665 143.192 17.6625 143.108L17.8965 141.812L18.7245 142.046C19.3005 142.094 19.8105 142.214 20.2545 142.406C20.7105 142.586 21.0945 142.844 21.4065 143.18C21.7185 143.516 21.9525 143.936 22.1085 144.44C22.2765 144.932 22.3605 145.514 22.3605 146.186ZM42.3258 149.642V141.758H43.8378V149.642H42.3258ZM39.0498 146.42V144.998H47.1138V146.42H39.0498ZM64.6023 140.804V142.082H62.7123V152H61.3263C60.8223 151.328 60.2643 150.74 59.6523 150.236C59.0403 149.72 58.3323 149.288 57.5283 148.94C56.7243 148.592 55.7703 148.34 54.6663 148.184L54.0183 146.546C54.3903 146.294 54.7803 146.054 55.1883 145.826C55.5963 145.598 56.0103 145.376 56.4303 145.16C56.8623 144.944 57.2823 144.74 57.6903 144.548C57.2343 144.2 56.7063 143.894 56.1063 143.63C55.5183 143.354 54.8223 143.132 54.0183 142.964L54.5763 141.74L54.6123 142.082H52.9743V140.804H64.6023ZM61.3263 142.082H55.5843L55.2063 141.92C55.7103 142.04 56.2143 142.232 56.7183 142.496C57.2343 142.76 57.7083 143.048 58.1403 143.36C58.5843 143.66 58.9383 143.948 59.2023 144.224L59.2923 145.232C58.8603 145.424 58.4043 145.634 57.9243 145.862C57.4563 146.09 57.0003 146.318 56.5563 146.546C56.1243 146.774 55.7403 147.002 55.4043 147.23L55.1883 146.96C56.2203 147.104 57.1203 147.344 57.8883 147.68C58.6683 148.016 59.3583 148.424 59.9583 148.904C60.5583 149.384 61.1103 149.918 61.6143 150.506L61.3803 150.578C61.3683 150.326 61.3563 150.056 61.3443 149.768C61.3323 149.468 61.3263 149.186 61.3263 148.922V142.082ZM75.3299 140.804V142.082H73.4399V152H72.0539C71.6939 151.28 71.1959 150.62 70.5599 150.02C69.9359 149.408 69.2159 148.892 68.3999 148.472C67.5839 148.052 66.7139 147.77 65.7899 147.626L65.0879 145.898C66.2399 145.202 67.4279 144.572 68.6519 144.008C69.8879 143.444 71.1599 142.964 72.4679 142.568L72.0539 143.324V142.082H64.2419V140.804H75.3299ZM72.0539 143.468L72.4319 143.972C71.5199 144.272 70.5599 144.644 69.5519 145.088C68.5439 145.52 67.6139 146 66.7619 146.528C67.4099 146.672 68.0999 146.918 68.8319 147.266C69.5639 147.614 70.2419 148.052 70.8659 148.58C71.4899 149.108 71.9699 149.72 72.3059 150.416H72.1439C72.1199 150.14 72.0959 149.864 72.0719 149.588C72.0599 149.312 72.0539 148.982 72.0539 148.598V143.468ZM86.0525 140.804V142.082H84.1625V152H82.7765C82.4165 151.28 81.9185 150.62 81.2825 150.02C80.6585 149.408 79.9385 148.892 79.1225 148.472C78.3065 148.052 77.4365 147.77 76.5125 147.626L75.8105 145.898C76.9625 145.202 78.1505 144.572 79.3745 144.008C80.6105 143.444 81.8825 142.964 83.1905 142.568L82.7765 143.324V142.082H74.9645V140.804H86.0525ZM82.7765 143.468L83.1545 143.972C82.2425 144.272 81.2825 144.644 80.2745 145.088C79.2665 145.52 78.3365 146 77.4845 146.528C78.1325 146.672 78.8225 146.918 79.5545 147.266C80.2865 147.614 80.9645 148.052 81.5885 148.58C82.2125 149.108 82.6925 149.72 83.0285 150.416H82.8665C82.8425 150.14 82.8185 149.864 82.7945 149.588C82.7825 149.312 82.7765 148.982 82.7765 148.598V143.468ZM78.4745 152.108C78.1745 152.108 77.9165 152.012 77.7005 151.82C77.4965 151.628 77.3945 151.376 77.3945 151.064C77.3945 150.752 77.4965 150.494 77.7005 150.29C77.9165 150.086 78.1745 149.984 78.4745 149.984C78.7745 149.984 79.0265 150.086 79.2305 150.29C79.4465 150.494 79.5545 150.752 79.5545 151.064C79.5545 151.376 79.4465 151.628 79.2305 151.82C79.0265 152.012 78.7745 152.108 78.4745 152.108ZM96.7412 144.278V142.856H104.805V144.278H96.7412ZM96.7412 148.544V147.122H104.805V148.544H96.7412ZM122.222 140.804V142.082H120.332V152H118.946V149.57L119.27 150.524C118.85 149.888 118.424 149.3 117.992 148.76C117.572 148.22 117.122 147.782 116.642 147.446C116.174 147.11 115.658 146.942 115.094 146.942C114.65 146.942 114.272 147.056 113.96 147.284C113.66 147.512 113.51 147.854 113.51 148.31C113.51 148.706 113.654 149.042 113.942 149.318C114.23 149.582 114.656 149.81 115.22 150.002L114.77 151.388C114.122 151.16 113.594 150.884 113.186 150.56C112.79 150.236 112.496 149.882 112.304 149.498C112.124 149.102 112.034 148.688 112.034 148.256C112.034 147.68 112.172 147.2 112.448 146.816C112.736 146.432 113.096 146.144 113.528 145.952C113.972 145.748 114.416 145.646 114.86 145.646C115.58 145.646 116.21 145.778 116.75 146.042C117.302 146.306 117.782 146.66 118.19 147.104C118.61 147.548 118.988 148.046 119.324 148.598L119.018 148.652C118.994 148.376 118.976 148.1 118.964 147.824C118.952 147.536 118.946 147.242 118.946 146.942V142.082H110.666V140.804H122.222ZM116.228 146.186C116.228 146.258 116.222 146.33 116.21 146.402C116.21 146.474 116.204 146.546 116.192 146.618L114.824 146.204C114.8 145.508 114.68 144.95 114.464 144.53C114.248 144.11 113.906 143.792 113.438 143.576C112.97 143.348 112.334 143.192 111.53 143.108L111.764 141.812L112.592 142.046C113.168 142.094 113.678 142.214 114.122 142.406C114.578 142.586 114.962 142.844 115.274 143.18C115.586 143.516 115.82 143.936 115.976 144.44C116.144 144.932 116.228 145.514 116.228 146.186ZM127.011 140.804V142.082H125.121V152H123.735V143.558C123.591 143.15 123.375 142.802 123.087 142.514C122.811 142.226 122.451 142.082 122.007 142.082H121.863V140.804H122.133C122.421 140.804 122.721 140.9 123.033 141.092C123.345 141.272 123.597 141.554 123.789 141.938C123.777 141.878 123.765 141.74 123.753 141.524C123.741 141.308 123.735 141.122 123.735 140.966V139.616H124.707L125.103 140.804H127.011Z" fill="#F5F9FA"/>
<path d="M157.808 44.0735L160.726 44.2417C161.459 44.2417 162.083 44.2358 162.596 44.2241C163.112 44.2148 163.592 44.181 164.037 44.1226C164.485 44.0665 164.937 43.9813 165.394 43.8669C165.853 43.7525 166.415 43.5925 167.078 43.3871C167.741 43.1816 168.536 42.92 169.461 42.6025C170.389 42.2826 171.552 41.8949 172.948 41.4396L173.117 41.0262C172.866 40.7087 172.398 40.3619 171.711 39.986C171.024 39.6077 170.264 39.2597 169.43 38.9422C168.593 38.6223 167.746 38.3538 166.888 38.1366C166.03 37.9195 165.292 37.8108 164.674 37.8108C163.574 37.8108 162.774 38.0618 162.273 38.5639C161.15 40.2965 160.349 41.1628 159.868 41.1628C159.639 41.1628 159.524 40.9807 159.524 40.6164C159.524 40.3199 159.879 39.3847 160.589 37.8108C161.664 35.3707 163.369 34.1506 165.703 34.1506C167.351 34.1506 169.822 34.9037 173.117 36.4098C175.018 37.2761 176.849 37.9544 178.611 38.4448C180.374 38.9352 182.078 39.2376 183.726 39.352L184 39.6952C184 39.8307 183.914 40.1891 183.743 40.7706C183.572 41.352 183.372 41.9627 183.142 42.6025C182.913 43.2399 182.684 43.8272 182.457 44.3643C182.227 44.899 182.067 45.1897 181.975 45.2364C181.884 45.3041 181.65 45.3836 181.272 45.4746C180.895 45.5657 180.449 45.6743 179.933 45.8003C179.417 45.9241 178.868 46.049 178.284 46.1751C177.701 46.3012 177.169 46.4098 176.688 46.5009C176.208 46.592 175.807 46.6714 175.486 46.7391C175.168 46.8091 175.008 46.8441 175.008 46.8441C172.536 47.6638 170.355 48.3467 168.466 48.8932C166.58 49.4419 164.95 49.8763 163.577 50.1962C162.203 50.5137 161.07 50.7356 160.178 50.8617C159.285 50.9878 158.586 51.0508 158.083 51.0508C157.876 51.0508 157.682 50.9084 157.499 50.6235C157.316 50.3386 157.156 49.9965 157.017 49.5973C156.881 49.198 156.774 48.8045 156.694 48.4168C156.612 48.0292 156.571 47.7327 156.571 47.5272C156.571 47.0251 156.664 46.4892 156.849 45.9194C157.031 45.3497 157.351 44.7343 157.808 44.0735ZM170.646 25.0543L165.602 19.9929L170.646 14.9632L175.729 19.9929L170.646 25.0543ZM177.012 0C176.897 0.228838 176.663 0.742566 176.309 1.54117C175.953 2.33977 175.477 3.43369 174.882 4.82306C171.655 6.94566 167.159 9.47689 161.394 12.4168C161.506 12.0525 161.735 11.4711 162.079 10.6725C162.421 9.87624 162.856 8.83946 163.383 7.56217C165.467 6.39929 167.64 5.19553 169.904 3.95093C172.17 2.70867 174.54 1.39171 177.012 0ZM149.063 49.2714L148.546 49.0333C146.624 47.9825 145.481 47.0123 145.115 46.1226C143.833 47.0823 142.408 47.9439 140.841 48.7075C139.273 49.4711 137.665 50.1261 136.018 50.6725C135.879 50.7192 135.616 50.7823 135.227 50.8617C134.838 50.9411 134.151 51.0041 133.167 51.0508C133.031 51.0274 132.888 50.8908 132.738 50.6409C132.59 50.3888 132.459 50.0806 132.344 49.7163C132.229 49.3521 132.132 48.9469 132.053 48.5009C131.973 48.0572 131.933 47.6066 131.933 47.1489C131.933 46.5114 132.024 45.9194 132.207 45.373C132.39 44.8242 132.71 44.425 133.167 44.1752C138.707 43.8319 142.265 42.5429 143.843 40.3082C145.033 38.6223 145.686 37.7793 145.8 37.7793C145.939 38.0969 146.042 38.6549 146.11 39.4535C146.452 40.07 146.904 40.6234 147.467 41.1138C148.027 41.6042 148.753 42.0432 149.646 42.4308C150.539 42.8184 151.637 43.1547 152.94 43.4395C154.245 43.7244 155.813 43.9697 157.643 44.1752C157.964 44.3106 158.222 44.7203 158.416 45.4045C158.611 46.0887 158.708 46.8301 158.708 47.6287C158.708 48.3596 158.623 49.0496 158.452 49.6988C158.278 50.348 158.009 50.7986 157.643 51.0508C156.659 51.0508 155.423 50.9305 153.935 50.69C152.449 50.4518 150.825 49.979 149.063 49.2714ZM149.509 22.8651L154.553 27.8249L149.509 32.9562L144.77 28.4729L140.412 32.8861L135.434 27.8914L140.412 22.7951L145.01 27.3449L149.509 22.8651ZM152.406 7.00526C152.291 7.2341 152.056 7.74783 151.702 8.54643C151.346 9.34502 150.871 10.4389 150.275 11.8283C147.048 13.9509 142.552 16.4821 136.787 19.422C136.9 19.0577 137.128 18.4764 137.473 17.6778C137.815 16.8815 138.25 15.8447 138.777 14.5674C140.86 13.4046 143.034 12.2008 145.298 10.9562C147.564 9.71393 149.933 8.39697 152.406 7.00526ZM127.303 49.5096C127.189 49.4652 127.086 49.4314 126.994 49.4081C126.903 49.3847 126.835 49.373 126.79 49.373C126.675 49.373 126.612 49.4419 126.6 49.5797C126.589 49.7152 126.525 50.0688 126.411 50.6409L126.274 51.324C126.182 51.7793 126.017 52.1552 125.778 52.4518C125.537 52.7484 125.21 52.8967 124.797 52.8967C122.693 52.8967 121.355 51.8366 120.783 49.7163C120.691 49.0555 120.606 48.3829 120.526 47.6987C120.444 47.0146 120.369 46.3304 120.301 45.6462C120.095 45.373 119.478 45.2364 118.449 45.2364C116.504 45.2364 114.821 46.216 113.401 48.1752C113.218 48.4717 113.127 49.247 113.127 50.5009C113.127 52.9201 113.23 55.4116 113.436 57.9755C113.642 60.5418 113.962 63.2049 114.396 65.9649C114.443 66.2825 114.478 66.6071 114.501 66.9387C114.522 67.268 114.533 67.6042 114.533 67.9475C114.533 68.1296 114.511 68.5452 114.466 69.1944C114.419 69.8459 114.35 70.5301 114.259 71.247C114.167 71.9662 114.064 72.6048 113.949 73.1629C113.837 73.721 113.7 74 113.538 74C113.379 74 113.172 72.9516 112.919 70.8547L111.787 61.5517C111.537 59.4081 111.342 57.4746 111.204 55.7513C111.068 54.0304 111 52.509 111 51.1874C111 49.3403 111.108 47.7384 111.323 46.3817C111.541 45.025 111.885 43.8564 112.353 42.8757C112.824 41.8949 113.431 41.0905 114.174 40.4624C114.917 39.8366 115.826 39.352 116.902 39.0088C117.361 38.8733 117.808 38.7647 118.241 38.683C118.677 38.6036 119.124 38.5639 119.581 38.5639C120.291 38.5639 121.092 38.69 121.985 38.9422C122.672 38.4401 123.46 38.0409 124.351 37.7443C124.351 38.4519 124.66 39.4547 125.279 40.753C127.041 42.5767 129.685 43.7175 133.209 44.1752C133.368 44.1752 133.517 44.2778 133.655 44.4833C133.794 44.6888 133.919 44.9562 134.032 45.2854C134.146 45.617 134.238 45.9988 134.306 46.4308C134.376 46.8651 134.411 47.2983 134.411 47.7303C134.411 48.0058 134.388 48.3315 134.341 48.7075C134.296 49.0834 134.217 49.4477 134.102 49.8003C133.987 50.1553 133.838 50.4518 133.655 50.69C133.473 50.9305 133.244 51.0508 132.97 51.0508C130.704 51.0508 128.815 50.537 127.303 49.5096ZM127.799 17.5131C127.684 17.742 127.45 18.2557 127.096 19.0543C126.74 19.8529 126.264 20.9468 125.669 22.3362C122.442 24.4588 117.946 26.99 112.181 29.9299C112.294 29.5656 112.522 28.9843 112.867 28.1857C113.209 27.3894 113.643 26.3526 114.171 25.0753C116.254 23.9124 118.428 22.7087 120.691 21.4641C122.958 20.2218 125.327 18.9049 127.799 17.5131Z" fill="#F5F9FA"/>
</svg>
