<svg width="262" height="168" viewBox="0 0 262 168" fill="none" xmlns="http://www.w3.org/2000/svg">
<path d="M183 166.33C189.762 163.982 193.143 158.935 193.143 151.188V142.728C193.143 136.241 195.655 132.356 200.679 131.073C195.655 129.886 193.143 126.001 193.143 119.417V111.175C193.143 102.993 189.821 97.8126 183.179 95.634L183.679 94C187.488 95.2103 190.321 97.1832 192.179 99.9185C194.06 102.63 195.024 106.176 195.071 110.557V119.599C195.071 126.449 198.048 129.874 204 129.874V132.271C198.048 132.271 195.071 135.72 195.071 142.619V151.225C195.071 155.727 194.131 159.334 192.25 162.045C190.393 164.781 187.536 166.765 183.679 168L183 166.33Z" fill="#F5F9FA"/>
<path d="M14.338 96.804V98.082H12.448V108H11.062V101.97L11.17 102.438C10.906 102.054 10.624 101.748 10.324 101.52C10.036 101.292 9.718 101.178 9.37 101.178C9.19 101.178 9.004 101.214 8.812 101.286C8.632 101.346 8.476 101.466 8.344 101.646C8.224 101.826 8.164 102.102 8.164 102.474C8.164 102.606 8.164 102.726 8.164 102.834C8.176 102.93 8.188 103.026 8.2 103.122L7.03 103.212C6.982 102.72 6.85 102.306 6.634 101.97C6.418 101.622 6.154 101.358 5.842 101.178C5.53 100.998 5.194 100.908 4.834 100.908C4.51 100.908 4.234 100.974 4.006 101.106C3.778 101.226 3.604 101.394 3.484 101.61C3.364 101.814 3.304 102.048 3.304 102.312C3.304 102.792 3.478 103.2 3.826 103.536C4.186 103.872 4.69 104.154 5.338 104.382L4.852 105.714C4.276 105.534 3.76 105.288 3.304 104.976C2.848 104.664 2.488 104.28 2.224 103.824C1.96 103.368 1.828 102.84 1.828 102.24C1.828 101.7 1.96 101.238 2.224 100.854C2.488 100.458 2.842 100.152 3.286 99.936C3.73 99.72 4.216 99.612 4.744 99.612C5.38 99.612 5.926 99.732 6.382 99.972C6.838 100.2 7.258 100.572 7.642 101.088L7.372 101.106C7.492 100.71 7.72 100.41 8.056 100.206C8.404 99.99 8.764 99.882 9.136 99.882C9.568 99.882 9.94 99.966 10.252 100.134C10.564 100.302 10.906 100.542 11.278 100.854L11.116 101.124C11.104 100.872 11.092 100.62 11.08 100.368C11.068 100.116 11.062 99.858 11.062 99.594V98.082H0.82V96.804H14.338ZM19.134 96.804V98.082H17.244V108H15.858V99.558C15.714 99.15 15.498 98.802 15.21 98.514C14.934 98.226 14.574 98.082 14.13 98.082H13.986V96.804H14.256C14.544 96.804 14.844 96.9 15.156 97.092C15.468 97.272 15.72 97.554 15.912 97.938C15.9 97.878 15.888 97.74 15.876 97.524C15.864 97.308 15.858 97.122 15.858 96.966V95.616H16.83L17.226 96.804H19.134ZM30.3233 96.804V98.082H28.4333V108H27.0473V105.57L27.3713 106.524C26.9513 105.888 26.5253 105.3 26.0933 104.76C25.6733 104.22 25.2233 103.782 24.7433 103.446C24.2753 103.11 23.7593 102.942 23.1953 102.942C22.7513 102.942 22.3733 103.056 22.0613 103.284C21.7613 103.512 21.6113 103.854 21.6113 104.31C21.6113 104.706 21.7553 105.042 22.0433 105.318C22.3313 105.582 22.7573 105.81 23.3213 106.002L22.8713 107.388C22.2233 107.16 21.6953 106.884 21.2873 106.56C20.8913 106.236 20.5973 105.882 20.4053 105.498C20.2253 105.102 20.1353 104.688 20.1353 104.256C20.1353 103.68 20.2733 103.2 20.5493 102.816C20.8373 102.432 21.1973 102.144 21.6293 101.952C22.0733 101.748 22.5173 101.646 22.9613 101.646C23.6813 101.646 24.3113 101.778 24.8513 102.042C25.4033 102.306 25.8833 102.66 26.2913 103.104C26.7113 103.548 27.0893 104.046 27.4253 104.598L27.1193 104.652C27.0953 104.376 27.0773 104.1 27.0653 103.824C27.0533 103.536 27.0473 103.242 27.0473 102.942V98.082H18.7673V96.804H30.3233ZM24.3293 102.186C24.3293 102.258 24.3233 102.33 24.3113 102.402C24.3113 102.474 24.3053 102.546 24.2933 102.618L22.9253 102.204C22.9013 101.508 22.7813 100.95 22.5653 100.53C22.3493 100.11 22.0073 99.792 21.5393 99.576C21.0713 99.348 20.4353 99.192 19.6313 99.108L19.8653 97.812L20.6933 98.046C21.2693 98.094 21.7793 98.214 22.2233 98.406C22.6793 98.586 23.0633 98.844 23.3753 99.18C23.6873 99.516 23.9213 99.936 24.0773 100.44C24.2453 100.932 24.3293 101.514 24.3293 102.186ZM44.2945 105.642V97.758H45.8065V105.642H44.2945ZM41.0185 102.42V100.998H49.0825V102.42H41.0185ZM66.571 96.804V98.082H64.681V108H63.295C62.791 107.328 62.233 106.74 61.621 106.236C61.009 105.72 60.301 105.288 59.497 104.94C58.693 104.592 57.739 104.34 56.635 104.184L55.987 102.546C56.359 102.294 56.749 102.054 57.157 101.826C57.565 101.598 57.979 101.376 58.399 101.16C58.831 100.944 59.251 100.74 59.659 100.548C59.203 100.2 58.675 99.894 58.075 99.63C57.487 99.354 56.791 99.132 55.987 98.964L56.545 97.74L56.581 98.082H54.943V96.804H66.571ZM63.295 98.082H57.553L57.175 97.92C57.679 98.04 58.183 98.232 58.687 98.496C59.203 98.76 59.677 99.048 60.109 99.36C60.553 99.66 60.907 99.948 61.171 100.224L61.261 101.232C60.829 101.424 60.373 101.634 59.893 101.862C59.425 102.09 58.969 102.318 58.525 102.546C58.093 102.774 57.709 103.002 57.373 103.23L57.157 102.96C58.189 103.104 59.089 103.344 59.857 103.68C60.637 104.016 61.327 104.424 61.927 104.904C62.527 105.384 63.079 105.918 63.583 106.506L63.349 106.578C63.337 106.326 63.325 106.056 63.313 105.768C63.301 105.468 63.295 105.186 63.295 104.922V98.082ZM77.2986 96.804V98.082H75.4086V108H74.0226C73.6626 107.28 73.1646 106.62 72.5286 106.02C71.9046 105.408 71.1846 104.892 70.3686 104.472C69.5526 104.052 68.6826 103.77 67.7586 103.626L67.0566 101.898C68.2086 101.202 69.3966 100.572 70.6206 100.008C71.8566 99.444 73.1286 98.964 74.4366 98.568L74.0226 99.324V98.082H66.2106V96.804H77.2986ZM74.0226 99.468L74.4006 99.972C73.4886 100.272 72.5286 100.644 71.5206 101.088C70.5126 101.52 69.5826 102 68.7306 102.528C69.3786 102.672 70.0686 102.918 70.8006 103.266C71.5326 103.614 72.2106 104.052 72.8346 104.58C73.4586 105.108 73.9386 105.72 74.2746 106.416H74.1126C74.0886 106.14 74.0646 105.864 74.0406 105.588C74.0286 105.312 74.0226 104.982 74.0226 104.598V99.468ZM88.0213 96.804V98.082H86.1313V108H84.7453C84.3853 107.28 83.8873 106.62 83.2513 106.02C82.6273 105.408 81.9073 104.892 81.0913 104.472C80.2753 104.052 79.4053 103.77 78.4813 103.626L77.7793 101.898C78.9313 101.202 80.1193 100.572 81.3433 100.008C82.5793 99.444 83.8513 98.964 85.1593 98.568L84.7453 99.324V98.082H76.9333V96.804H88.0213ZM84.7453 99.468L85.1233 99.972C84.2113 100.272 83.2513 100.644 82.2433 101.088C81.2353 101.52 80.3053 102 79.4533 102.528C80.1013 102.672 80.7913 102.918 81.5233 103.266C82.2553 103.614 82.9333 104.052 83.5573 104.58C84.1813 105.108 84.6613 105.72 84.9973 106.416H84.8353C84.8113 106.14 84.7873 105.864 84.7633 105.588C84.7513 105.312 84.7453 104.982 84.7453 104.598V99.468ZM80.4433 108.108C80.1433 108.108 79.8853 108.012 79.6693 107.82C79.4653 107.628 79.3633 107.376 79.3633 107.064C79.3633 106.752 79.4653 106.494 79.6693 106.29C79.8853 106.086 80.1433 105.984 80.4433 105.984C80.7433 105.984 80.9953 106.086 81.1993 106.29C81.4153 106.494 81.5233 106.752 81.5233 107.064C81.5233 107.376 81.4153 107.628 81.1993 107.82C80.9953 108.012 80.7433 108.108 80.4433 108.108ZM98.7099 100.278V98.856H106.774V100.278H98.7099ZM98.7099 104.544V103.122H106.774V104.544H98.7099ZM126.152 96.804V98.082H124.262V108H122.876V101.97L122.984 102.438C122.72 102.054 122.438 101.748 122.138 101.52C121.85 101.292 121.532 101.178 121.184 101.178C121.004 101.178 120.818 101.214 120.626 101.286C120.446 101.346 120.29 101.466 120.158 101.646C120.038 101.826 119.978 102.102 119.978 102.474C119.978 102.606 119.978 102.726 119.978 102.834C119.99 102.93 120.002 103.026 120.014 103.122L118.844 103.212C118.796 102.72 118.664 102.306 118.448 101.97C118.232 101.622 117.968 101.358 117.656 101.178C117.344 100.998 117.008 100.908 116.648 100.908C116.324 100.908 116.048 100.974 115.82 101.106C115.592 101.226 115.418 101.394 115.298 101.61C115.178 101.814 115.118 102.048 115.118 102.312C115.118 102.792 115.292 103.2 115.64 103.536C116 103.872 116.504 104.154 117.152 104.382L116.666 105.714C116.09 105.534 115.574 105.288 115.118 104.976C114.662 104.664 114.302 104.28 114.038 103.824C113.774 103.368 113.642 102.84 113.642 102.24C113.642 101.7 113.774 101.238 114.038 100.854C114.302 100.458 114.656 100.152 115.1 99.936C115.544 99.72 116.03 99.612 116.558 99.612C117.194 99.612 117.74 99.732 118.196 99.972C118.652 100.2 119.072 100.572 119.456 101.088L119.186 101.106C119.306 100.71 119.534 100.41 119.87 100.206C120.218 99.99 120.578 99.882 120.95 99.882C121.382 99.882 121.754 99.966 122.066 100.134C122.378 100.302 122.72 100.542 123.092 100.854L122.93 101.124C122.918 100.872 122.906 100.62 122.894 100.368C122.882 100.116 122.876 99.858 122.876 99.594V98.082H112.634V96.804H126.152ZM130.948 96.804V98.082H129.058V108H127.672V99.558C127.528 99.15 127.312 98.802 127.024 98.514C126.748 98.226 126.388 98.082 125.944 98.082H125.8V96.804H126.07C126.358 96.804 126.658 96.9 126.97 97.092C127.282 97.272 127.534 97.554 127.726 97.938C127.714 97.878 127.702 97.74 127.69 97.524C127.678 97.308 127.672 97.122 127.672 96.966V95.616H128.644L129.04 96.804H130.948Z" fill="#F5F9FA"/>
<path d="M5.356 128C6.304 128 7.066 128.162 7.642 128.486C8.23 128.798 8.662 129.2 8.938 129.692C9.214 130.172 9.352 130.658 9.352 131.15C9.352 132.134 9.004 132.914 8.308 133.49C7.624 134.066 6.604 134.39 5.248 134.462L5.428 134.264C5.968 134.42 6.538 134.642 7.138 134.93C7.738 135.218 8.344 135.554 8.956 135.938C9.568 136.31 10.156 136.724 10.72 137.18L9.892 138.134C9.148 137.582 8.464 137.108 7.84 136.712C7.228 136.304 6.622 135.95 6.022 135.65C5.422 135.35 4.786 135.086 4.114 134.858C3.442 134.63 2.68 134.42 1.828 134.228L2.098 132.986C2.518 133.106 2.92 133.196 3.304 133.256C3.7 133.304 4.174 133.328 4.726 133.328C5.578 133.328 6.232 133.226 6.688 133.022C7.156 132.818 7.48 132.554 7.66 132.23C7.84 131.906 7.93 131.576 7.93 131.24C7.93 130.604 7.696 130.118 7.228 129.782C6.76 129.434 6.166 129.26 5.446 129.26C5.014 129.26 4.666 129.302 4.402 129.386C4.138 129.47 3.946 129.596 3.826 129.764C3.718 129.92 3.664 130.112 3.664 130.34C3.664 130.436 3.676 130.538 3.7 130.646C3.724 130.742 3.748 130.832 3.772 130.916L2.458 131.186C2.398 131.006 2.35 130.82 2.314 130.628C2.278 130.424 2.26 130.244 2.26 130.088C2.26 129.644 2.392 129.266 2.656 128.954C2.92 128.642 3.28 128.408 3.736 128.252C4.204 128.084 4.744 128 5.356 128ZM4.15 128.63C4.09 128.246 3.91 127.91 3.61 127.622C3.31 127.322 2.878 127.112 2.314 126.992L2.746 126.182L3.574 126.398C4.246 126.662 4.732 126.962 5.032 127.298C5.344 127.634 5.524 128.06 5.572 128.576L4.15 128.63ZM10.72 125.804V127.082H0.82V125.804H10.72ZM15.5129 125.804V127.082H13.6229V137H12.2369V128.558C12.0929 128.15 11.8769 127.802 11.5889 127.514C11.3129 127.226 10.9529 127.082 10.5089 127.082H10.3649V125.804H10.6349C10.9229 125.804 11.2229 125.9 11.5349 126.092C11.8469 126.272 12.0989 126.554 12.2909 126.938C12.2789 126.878 12.2669 126.74 12.2549 126.524C12.2429 126.308 12.2369 126.122 12.2369 125.966V124.616H13.2089L13.6049 125.804H15.5129ZM29.4761 134.642V126.758H30.9881V134.642H29.4761ZM26.2001 131.42V129.998H34.2641V131.42H26.2001ZM46.7127 125.804V127.082H46.3527C45.9807 127.166 45.5787 127.352 45.1467 127.64C44.7147 127.916 44.3067 128.282 43.9227 128.738C43.5387 129.182 43.2207 129.704 42.9687 130.304C42.7287 130.904 42.6087 131.564 42.6087 132.284C42.6087 133.148 42.7347 133.838 42.9867 134.354C43.2507 134.858 43.5747 135.218 43.9587 135.434C44.3427 135.65 44.7267 135.758 45.1107 135.758C45.4107 135.758 45.6627 135.728 45.8667 135.668C46.0707 135.608 46.3047 135.5 46.5687 135.344L47.1987 136.442C46.8867 136.682 46.5447 136.85 46.1727 136.946C45.8007 137.042 45.4227 137.09 45.0387 137.09C44.2827 137.09 43.6167 136.892 43.0407 136.496C42.4647 136.1 42.0087 135.548 41.6727 134.84C41.3487 134.12 41.1867 133.28 41.1867 132.32C41.1867 131.396 41.3307 130.574 41.6187 129.854C41.9187 129.122 42.3027 128.486 42.7707 127.946C43.2507 127.406 43.7667 126.962 44.3187 126.614C44.8707 126.254 45.4047 125.984 45.9207 125.804H46.7127ZM59.5953 125.804V127.082H57.7053V137H56.3193V129.872L56.7153 131.024C56.2233 130.304 55.7733 129.692 55.3653 129.188C54.9573 128.672 54.5673 128.252 54.1953 127.928C53.8353 127.604 53.4693 127.37 53.0973 127.226C52.7253 127.07 52.3233 126.992 51.8913 126.992C51.4113 126.992 50.9733 127.082 50.5773 127.262C50.1933 127.442 49.8393 127.682 49.5153 127.982C49.1913 128.282 48.8913 128.606 48.6153 128.954L48.4713 128.99C48.6633 128.87 48.8493 128.78 49.0293 128.72C49.2213 128.66 49.4313 128.63 49.6593 128.63C50.3553 128.63 50.8653 128.822 51.1893 129.206C51.5133 129.578 51.6753 130.04 51.6753 130.592C51.6753 130.724 51.6693 130.85 51.6573 130.97C51.6453 131.09 51.6273 131.18 51.6033 131.24L51.2973 131.132C51.4413 130.976 51.5793 130.826 51.7113 130.682C51.8433 130.538 51.9813 130.394 52.1253 130.25C52.2813 130.106 52.4373 129.956 52.5933 129.8L54.8253 127.712L55.7073 128.666L50.5953 133.49L49.5333 132.5L51.0093 131.096L50.3613 131.87L49.8213 132.284C50.0013 132.08 50.1513 131.864 50.2713 131.636C50.4033 131.396 50.4693 131.126 50.4693 130.826C50.4693 130.526 50.3793 130.286 50.1993 130.106C50.0193 129.926 49.7553 129.836 49.4073 129.836C49.2153 129.836 49.0293 129.86 48.8493 129.908C48.6693 129.956 48.4833 130.04 48.2913 130.16L46.9233 128.864C47.4033 128.228 47.8953 127.676 48.3993 127.208C48.9033 126.728 49.4313 126.356 49.9833 126.092C50.5353 125.816 51.1293 125.678 51.7653 125.678C52.4373 125.678 53.0433 125.804 53.5833 126.056C54.1233 126.308 54.6453 126.686 55.1493 127.19C55.6533 127.682 56.1813 128.306 56.7333 129.062L56.4093 128.972C56.3733 128.684 56.3493 128.372 56.3373 128.036C56.3253 127.7 56.3193 127.34 56.3193 126.956V124.616H57.2733L57.6873 125.804H59.5953ZM71.7781 125.804V127.082H69.8881V137H68.5021V127.784L68.5921 127.424C68.5561 127.22 68.5321 127.01 68.5201 126.794C68.5081 126.578 68.5021 126.338 68.5021 126.074V124.616H69.4561L69.8881 125.804H71.7781ZM65.9101 125.678C66.3781 125.678 66.8101 125.768 67.2061 125.948C67.6021 126.128 67.9561 126.38 68.2681 126.704C68.5801 127.028 68.8321 127.406 69.0241 127.838L68.9521 129.728C68.5801 128.864 68.1421 128.192 67.6381 127.712C67.1341 127.232 66.5701 126.992 65.9461 126.992C65.4781 126.992 65.1001 127.124 64.8121 127.388C64.5241 127.64 64.3801 128.018 64.3801 128.522C64.3801 129.002 64.5721 129.398 64.9561 129.71C65.3521 130.01 65.9821 130.178 66.8461 130.214L66.7201 131.6C65.9281 131.552 65.2741 131.39 64.7581 131.114C64.2541 130.838 63.8821 130.478 63.6421 130.034C63.4021 129.578 63.2821 129.056 63.2821 128.468C63.2821 127.832 63.4081 127.31 63.6601 126.902C63.9121 126.482 64.2361 126.176 64.6321 125.984C65.0401 125.78 65.4661 125.678 65.9101 125.678ZM60.7981 125.678C61.3021 125.678 61.7761 125.78 62.2201 125.984C62.6761 126.188 63.0481 126.512 63.3361 126.956C63.6241 127.4 63.7681 127.982 63.7681 128.702C63.7681 129.194 63.6481 129.662 63.4081 130.106C63.1681 130.55 62.7961 130.91 62.2921 131.186C61.8001 131.462 61.1641 131.6 60.3841 131.6L60.2761 130.214C60.8881 130.202 61.3681 130.118 61.7161 129.962C62.0641 129.794 62.3101 129.584 62.4541 129.332C62.5981 129.08 62.6701 128.828 62.6701 128.576C62.6701 128.084 62.5141 127.7 62.2021 127.424C61.8901 127.136 61.4161 126.992 60.7801 126.992C60.5641 126.992 60.3481 127.01 60.1321 127.046C59.9281 127.07 59.6821 127.118 59.3941 127.19L59.2501 125.84C59.5501 125.78 59.8141 125.738 60.0421 125.714C60.2821 125.69 60.5341 125.678 60.7981 125.678ZM82.4677 129.278V127.856H90.5317V129.278H82.4677ZM82.4677 133.544V132.122H90.5317V133.544H82.4677ZM99.7403 127.82C100.412 127.82 100.994 127.97 101.486 128.27C101.99 128.57 102.41 129.128 102.746 129.944L102.116 129.908L103.574 128.162L104.672 127.91L104.708 128.648L102.8 131.006L101.702 131.06C101.618 130.412 101.408 129.914 101.072 129.566C100.748 129.218 100.352 129.044 99.8843 129.044C99.5483 129.044 99.2903 129.134 99.1103 129.314C98.9303 129.494 98.8403 129.71 98.8403 129.962C98.8403 130.298 98.9363 130.556 99.1283 130.736C99.3323 130.904 99.5843 131.06 99.8843 131.204L99.2543 132.482C98.5943 132.182 98.1203 131.81 97.8323 131.366C97.5443 130.922 97.4003 130.46 97.4003 129.98C97.4003 129.476 97.5143 129.068 97.7423 128.756C97.9703 128.432 98.2643 128.198 98.6243 128.054C98.9843 127.898 99.3563 127.82 99.7403 127.82ZM106.22 131.294C106.22 132.002 106.064 132.608 105.752 133.112C105.44 133.616 104.996 134.012 104.42 134.3C103.856 134.588 103.184 134.78 102.404 134.876L102.296 134.696C102.836 134.852 103.406 135.074 104.006 135.362C104.606 135.65 105.212 135.986 105.824 136.37C106.436 136.754 107.024 137.174 107.588 137.63L106.76 138.584C105.98 137.996 105.266 137.492 104.618 137.072C103.97 136.652 103.34 136.298 102.728 136.01C102.116 135.71 101.468 135.452 100.784 135.236C100.1 135.02 99.3323 134.816 98.4803 134.624L98.7323 133.364C99.2363 133.508 99.6923 133.61 100.1 133.67C100.508 133.718 100.952 133.742 101.432 133.742C102.296 133.742 102.974 133.634 103.466 133.418C103.958 133.19 104.306 132.89 104.51 132.518C104.726 132.134 104.834 131.714 104.834 131.258C104.834 130.742 104.726 130.298 104.51 129.926C104.306 129.542 104.054 129.218 103.754 128.954L104.672 127.91C105.056 128.27 105.41 128.738 105.734 129.314C106.058 129.878 106.22 130.538 106.22 131.294ZM107.588 125.804V127.082H96.3923V125.804H107.588Z" fill="#F5F9FA"/>
<path d="M232.148 122.804V124.784H230.42V134H228.044V128.33L228.53 129.356C228.338 129.008 228.11 128.708 227.846 128.456C227.582 128.204 227.282 128.078 226.946 128.078C226.826 128.078 226.688 128.108 226.532 128.168C226.388 128.228 226.262 128.342 226.154 128.51C226.058 128.678 226.01 128.924 226.01 129.248C226.01 129.356 226.016 129.458 226.028 129.554C226.04 129.638 226.052 129.728 226.064 129.824L224.03 129.95C223.97 129.554 223.85 129.212 223.67 128.924C223.502 128.624 223.286 128.396 223.022 128.24C222.758 128.084 222.44 128.006 222.068 128.006C221.852 128.006 221.66 128.048 221.492 128.132C221.324 128.204 221.192 128.312 221.096 128.456C221.012 128.6 220.97 128.768 220.97 128.96C220.97 129.392 221.138 129.728 221.474 129.968C221.822 130.208 222.242 130.406 222.734 130.562L222.05 132.578C221.33 132.374 220.706 132.104 220.178 131.768C219.65 131.42 219.242 131.006 218.954 130.526C218.666 130.046 218.522 129.494 218.522 128.87C218.522 128.27 218.666 127.754 218.954 127.322C219.254 126.89 219.65 126.56 220.142 126.332C220.634 126.092 221.174 125.972 221.762 125.972C222.47 125.972 223.064 126.092 223.544 126.332C224.024 126.56 224.522 126.938 225.038 127.466L224.714 127.34C224.846 126.92 225.08 126.602 225.416 126.386C225.752 126.17 226.106 126.062 226.478 126.062C226.898 126.062 227.27 126.146 227.594 126.314C227.93 126.482 228.242 126.71 228.53 126.998L228.134 127.286C228.11 127.022 228.086 126.758 228.062 126.494C228.05 126.23 228.044 125.966 228.044 125.702V124.784H217.82V122.804H232.148ZM237.627 122.804V124.784H235.899V134H233.523V126.008C233.379 125.636 233.175 125.342 232.911 125.126C232.647 124.898 232.305 124.784 231.885 124.784H231.795V122.804H232.155C232.431 122.804 232.689 122.876 232.929 123.02C233.169 123.164 233.391 123.47 233.595 123.938C233.583 123.878 233.565 123.74 233.541 123.524C233.529 123.308 233.523 123.122 233.523 122.966V121.616H235.467L235.881 122.804H237.627ZM240.789 125.45C241.461 125.45 242.043 125.564 242.535 125.792C243.027 126.02 243.459 126.422 243.831 126.998L243.525 127.088L244.623 125.756L246.405 125.486L245.487 127.34L244.299 128.924L242.463 128.996C242.427 128.54 242.301 128.15 242.085 127.826C241.869 127.502 241.557 127.34 241.149 127.34C240.921 127.34 240.741 127.394 240.609 127.502C240.477 127.61 240.411 127.766 240.411 127.97C240.411 128.126 240.459 128.27 240.555 128.402C240.663 128.534 240.861 128.666 241.149 128.798L240.213 130.688C239.493 130.4 238.935 130.01 238.539 129.518C238.155 129.026 237.963 128.438 237.963 127.754C237.963 127.334 238.077 126.95 238.305 126.602C238.533 126.254 238.857 125.978 239.277 125.774C239.709 125.558 240.213 125.45 240.789 125.45ZM248.349 129.266C248.349 129.926 248.205 130.496 247.917 130.976C247.641 131.456 247.239 131.846 246.711 132.146C246.183 132.434 245.547 132.638 244.803 132.758L244.389 132.02C244.977 132.176 245.565 132.374 246.153 132.614C246.753 132.842 247.341 133.112 247.917 133.424C248.505 133.724 249.081 134.072 249.645 134.468L248.367 136.142C247.803 135.734 247.209 135.356 246.585 135.008C245.961 134.66 245.301 134.342 244.605 134.054C243.909 133.778 243.177 133.538 242.409 133.334C241.653 133.118 240.855 132.944 240.015 132.812L240.447 130.922C240.831 131.018 241.221 131.096 241.617 131.156C242.013 131.216 242.415 131.246 242.823 131.246C243.555 131.246 244.149 131.168 244.605 131.012C245.073 130.844 245.415 130.61 245.631 130.31C245.847 130.01 245.955 129.644 245.955 129.212C245.955 128.864 245.877 128.516 245.721 128.168C245.565 127.808 245.277 127.442 244.857 127.07L246.405 125.486C247.005 126.062 247.479 126.65 247.827 127.25C248.175 127.838 248.349 128.51 248.349 129.266ZM249.591 122.804V124.784H237.261V122.804H249.591ZM261.202 122.804V124.784H259.474V134H257.098V131.66L257.404 132.614C256.96 132.002 256.534 131.48 256.126 131.048C255.718 130.604 255.31 130.268 254.902 130.04C254.494 129.8 254.062 129.68 253.606 129.68C253.33 129.68 253.09 129.752 252.886 129.896C252.682 130.04 252.58 130.256 252.58 130.544C252.58 130.856 252.694 131.102 252.922 131.282C253.162 131.45 253.486 131.606 253.894 131.75L253.21 133.82C252.49 133.616 251.902 133.34 251.446 132.992C251.002 132.632 250.672 132.236 250.456 131.804C250.24 131.372 250.132 130.928 250.132 130.472C250.132 129.836 250.282 129.314 250.582 128.906C250.882 128.498 251.266 128.198 251.734 128.006C252.214 127.814 252.706 127.718 253.21 127.718C253.798 127.718 254.338 127.796 254.83 127.952C255.334 128.108 255.802 128.354 256.234 128.69C256.666 129.014 257.086 129.44 257.494 129.968L257.134 130.238C257.122 129.95 257.11 129.662 257.098 129.374C257.098 129.074 257.098 128.78 257.098 128.492V124.784H249.232V122.804H261.202ZM255.19 128.222C255.19 128.282 255.184 128.372 255.172 128.492C255.172 128.6 255.16 128.708 255.136 128.816L252.814 128.222C252.79 127.658 252.688 127.214 252.508 126.89C252.328 126.566 252.028 126.32 251.608 126.152C251.188 125.984 250.588 125.864 249.808 125.792L250.276 123.974L251.284 124.262C252.004 124.346 252.61 124.49 253.102 124.694C253.606 124.898 254.008 125.162 254.308 125.486C254.62 125.798 254.842 126.182 254.974 126.638C255.118 127.094 255.19 127.622 255.19 128.222Z" fill="#FFCA3A"/>
<path d="M12.376 154.804V156.082H10.486V166H9.1V163.57L9.424 164.524C9.004 163.888 8.578 163.3 8.146 162.76C7.726 162.22 7.276 161.782 6.796 161.446C6.328 161.11 5.812 160.942 5.248 160.942C4.804 160.942 4.426 161.056 4.114 161.284C3.814 161.512 3.664 161.854 3.664 162.31C3.664 162.706 3.808 163.042 4.096 163.318C4.384 163.582 4.81 163.81 5.374 164.002L4.924 165.388C4.276 165.16 3.748 164.884 3.34 164.56C2.944 164.236 2.65 163.882 2.458 163.498C2.278 163.102 2.188 162.688 2.188 162.256C2.188 161.68 2.326 161.2 2.602 160.816C2.89 160.432 3.25 160.144 3.682 159.952C4.126 159.748 4.57 159.646 5.014 159.646C5.734 159.646 6.364 159.778 6.904 160.042C7.456 160.306 7.936 160.66 8.344 161.104C8.764 161.548 9.142 162.046 9.478 162.598L9.172 162.652C9.148 162.376 9.13 162.1 9.118 161.824C9.106 161.536 9.1 161.242 9.1 160.942V156.082H0.82V154.804H12.376ZM6.382 160.186C6.382 160.258 6.376 160.33 6.364 160.402C6.364 160.474 6.358 160.546 6.346 160.618L4.978 160.204C4.954 159.508 4.834 158.95 4.618 158.53C4.402 158.11 4.06 157.792 3.592 157.576C3.124 157.348 2.488 157.192 1.684 157.108L1.918 155.812L2.746 156.046C3.322 156.094 3.832 156.214 4.276 156.406C4.732 156.586 5.116 156.844 5.428 157.18C5.74 157.516 5.974 157.936 6.13 158.44C6.298 158.932 6.382 159.514 6.382 160.186ZM17.1653 156.082H15.2753V166H13.8893V156.082H12.0173V154.804H13.8893C13.8413 154.024 13.6373 153.37 13.2773 152.842C12.9293 152.314 12.4733 151.9 11.9093 151.6C11.3333 151.288 10.6853 151.066 9.96527 150.934C9.23327 150.802 8.46527 150.736 7.66127 150.736C6.95327 150.736 6.34727 150.778 5.84327 150.862C5.32727 150.934 4.93127 151.042 4.65527 151.186C4.37927 151.33 4.24127 151.516 4.24127 151.744C4.24127 151.972 4.38527 152.116 4.67327 152.176C4.96127 152.236 5.27927 152.266 5.62727 152.266H7.35527C7.99127 152.266 8.49527 152.32 8.86727 152.428C9.23927 152.536 9.53927 152.71 9.76727 152.95C9.99527 153.178 10.1573 153.448 10.2533 153.76C10.3493 154.072 10.3973 154.462 10.3973 154.93H9.19127C9.17927 154.642 9.14327 154.408 9.08327 154.228C9.02327 154.036 8.92727 153.892 8.79527 153.796C8.67527 153.7 8.53127 153.634 8.36327 153.598C8.18327 153.562 7.93727 153.544 7.62527 153.544H5.84327C5.35127 153.544 4.91927 153.514 4.54727 153.454C4.17527 153.382 3.86927 153.286 3.62927 153.166C3.32926 152.998 3.11926 152.794 2.99926 152.554C2.87927 152.314 2.81927 152.062 2.81927 151.798C2.81927 151.102 3.20927 150.544 3.98927 150.124C4.76927 149.704 5.95727 149.494 7.55327 149.494C9.98927 149.494 11.8613 149.926 13.1693 150.79C14.4893 151.642 15.2093 152.98 15.3293 154.804H17.1653V156.082ZM28.3545 154.804V156.082H26.4645V166H25.0785V163.57L25.4025 164.524C24.9825 163.888 24.5565 163.3 24.1245 162.76C23.7045 162.22 23.2545 161.782 22.7745 161.446C22.3065 161.11 21.7905 160.942 21.2265 160.942C20.7825 160.942 20.4045 161.056 20.0925 161.284C19.7925 161.512 19.6425 161.854 19.6425 162.31C19.6425 162.706 19.7865 163.042 20.0745 163.318C20.3625 163.582 20.7885 163.81 21.3525 164.002L20.9025 165.388C20.2545 165.16 19.7265 164.884 19.3185 164.56C18.9225 164.236 18.6285 163.882 18.4365 163.498C18.2565 163.102 18.1665 162.688 18.1665 162.256C18.1665 161.68 18.3045 161.2 18.5805 160.816C18.8685 160.432 19.2285 160.144 19.6605 159.952C20.1045 159.748 20.5485 159.646 20.9925 159.646C21.7125 159.646 22.3425 159.778 22.8825 160.042C23.4345 160.306 23.9145 160.66 24.3225 161.104C24.7425 161.548 25.1205 162.046 25.4565 162.598L25.1505 162.652C25.1265 162.376 25.1085 162.1 25.0965 161.824C25.0845 161.536 25.0785 161.242 25.0785 160.942V156.082H16.7985V154.804H28.3545ZM22.3605 160.186C22.3605 160.258 22.3545 160.33 22.3425 160.402C22.3425 160.474 22.3365 160.546 22.3245 160.618L20.9565 160.204C20.9325 159.508 20.8125 158.95 20.5965 158.53C20.3805 158.11 20.0385 157.792 19.5705 157.576C19.1025 157.348 18.4665 157.192 17.6625 157.108L17.8965 155.812L18.7245 156.046C19.3005 156.094 19.8105 156.214 20.2545 156.406C20.7105 156.586 21.0945 156.844 21.4065 157.18C21.7185 157.516 21.9525 157.936 22.1085 158.44C22.2765 158.932 22.3605 159.514 22.3605 160.186ZM42.3258 163.642V155.758H43.8378V163.642H42.3258ZM39.0498 160.42V158.998H47.1138V160.42H39.0498ZM65.6103 154.804V156.082H63.7203V166H62.3343V159.646L62.7483 160.78C62.3763 160.288 62.0523 159.91 61.7763 159.646C61.5123 159.382 61.2543 159.25 61.0023 159.25C60.8343 159.25 60.6783 159.298 60.5343 159.394C60.3903 159.49 60.2283 159.676 60.0483 159.952C59.8683 160.216 59.6283 160.624 59.3283 161.176C59.0043 161.764 58.7103 162.25 58.4463 162.634C58.1823 163.006 57.9003 163.282 57.6003 163.462C57.3123 163.63 56.9583 163.714 56.5383 163.714C56.2143 163.714 55.9023 163.648 55.6023 163.516C55.3143 163.384 55.0203 163.168 54.7203 162.868C54.4323 162.556 54.1203 162.136 53.7843 161.608L54.8823 160.942C55.2063 161.518 55.4763 161.896 55.6923 162.076C55.9083 162.256 56.1423 162.346 56.3943 162.346C56.5983 162.346 56.7903 162.286 56.9703 162.166C57.1623 162.034 57.3663 161.812 57.5823 161.5C57.8103 161.188 58.0683 160.762 58.3563 160.222L58.7703 159.628C59.0823 158.98 59.3823 158.536 59.6703 158.296C59.9583 158.044 60.2763 157.918 60.6243 157.918C61.0203 157.918 61.3743 158.032 61.6863 158.26C62.0103 158.476 62.3823 158.812 62.8023 159.268L62.4423 159.286C62.3943 159.01 62.3643 158.752 62.3523 158.512C62.3403 158.26 62.3343 158.008 62.3343 157.756V156.082H52.9743V154.804H65.6103ZM58.0323 161.122C57.9123 160.306 57.7863 159.658 57.6543 159.178C57.5343 158.698 57.3183 158.326 57.0063 158.062C56.7063 157.786 56.2983 157.582 55.7823 157.45C55.2663 157.306 54.6183 157.186 53.8383 157.09L54.1083 155.722L55.0803 156.082C55.7643 156.19 56.3343 156.328 56.7903 156.496C57.2463 156.664 57.6123 156.886 57.8883 157.162C58.1763 157.426 58.3923 157.756 58.5363 158.152C58.6803 158.548 58.7763 159.028 58.8243 159.592L58.0323 161.122ZM70.3918 154.804V156.082H68.5018V166H67.1158V157.558C66.9718 157.15 66.7558 156.802 66.4678 156.514C66.1918 156.226 65.8318 156.082 65.3878 156.082H65.2438V154.804H65.5138C65.8018 154.804 66.1018 154.9 66.4138 155.092C66.7258 155.272 66.9778 155.554 67.1698 155.938C67.1578 155.878 67.1458 155.74 67.1338 155.524C67.1218 155.308 67.1158 155.122 67.1158 154.966V153.616H68.0878L68.4838 154.804H70.3918ZM75.1731 154.804V156.082H73.2831V166H71.8971V156.082H70.0251V154.804H71.6811C71.4891 154.576 71.2911 154.336 71.0871 154.084C70.8951 153.832 70.7211 153.58 70.5651 153.328C70.9731 152.62 71.4111 151.978 71.8791 151.402C72.3471 150.814 72.8991 150.352 73.5351 150.016C74.1711 149.668 74.9391 149.494 75.8391 149.494C76.4751 149.494 77.0811 149.572 77.6571 149.728C78.2451 149.884 78.8211 150.112 79.3851 150.412C79.9491 150.7 80.5191 151.054 81.0951 151.474C81.6711 151.882 82.2711 152.338 82.8951 152.842L82.1391 153.814C81.3111 153.142 80.5611 152.584 79.8891 152.14C79.2291 151.696 78.5931 151.366 77.9811 151.15C77.3811 150.922 76.7391 150.808 76.0551 150.808C75.3951 150.808 74.8191 150.922 74.3271 151.15C73.8471 151.378 73.4271 151.696 73.0671 152.104C72.7191 152.512 72.4011 152.986 72.1131 153.526C72.2091 153.706 72.3411 153.904 72.5091 154.12C72.6771 154.336 72.8691 154.564 73.0851 154.804H75.1731ZM89.6923 154.804V156.082H83.8423V157.198V157.486V166H82.4563C82.1083 165.292 81.6223 164.626 80.9983 164.002C80.3743 163.378 79.6603 162.856 78.8563 162.436C78.0643 162.004 77.2303 161.734 76.3543 161.626L75.6523 159.898C76.8163 159.226 77.9803 158.626 79.1443 158.098C80.3083 157.57 81.5443 157.102 82.8523 156.694L82.4563 157.45V156.082H74.8063V154.804H89.6923ZM82.4563 157.594L82.8343 158.116C82.2223 158.284 81.5863 158.506 80.9263 158.782C80.2783 159.058 79.6423 159.346 79.0183 159.646C78.4063 159.946 77.8423 160.24 77.3263 160.528C77.9983 160.66 78.6883 160.912 79.3963 161.284C80.1163 161.656 80.7703 162.112 81.3583 162.652C81.9583 163.18 82.4023 163.756 82.6903 164.38L82.5463 164.416C82.5223 164.14 82.4983 163.864 82.4743 163.588C82.4623 163.312 82.4563 162.982 82.4563 162.598V157.594ZM88.6843 160.816C88.6843 161.212 88.6063 161.59 88.4503 161.95C88.2943 162.298 88.0363 162.586 87.6763 162.814C87.3163 163.042 86.8363 163.156 86.2363 163.156C86.0443 163.156 85.8583 163.15 85.6783 163.138C85.5103 163.126 85.3423 163.102 85.1743 163.066L85.2823 161.77C85.3543 161.782 85.4383 161.794 85.5343 161.806C85.6423 161.806 85.7623 161.806 85.8943 161.806C86.4703 161.806 86.8423 161.698 87.0103 161.482C87.1903 161.254 87.2803 160.984 87.2803 160.672C87.2803 160.036 86.9683 159.496 86.3443 159.052C85.7323 158.596 84.8203 158.284 83.6083 158.116L83.6623 156.766C84.5863 156.862 85.4263 157.096 86.1823 157.468C86.9383 157.828 87.5443 158.296 88.0003 158.872C88.4563 159.436 88.6843 160.084 88.6843 160.816ZM100.558 154.804V156.082H98.6679V166H97.2819V161.626L97.5699 162.634C97.1739 162.082 96.7419 161.584 96.2739 161.14C95.8059 160.696 95.3259 160.342 94.8339 160.078C94.3419 159.814 93.8619 159.682 93.3939 159.682C92.9499 159.682 92.5719 159.802 92.2599 160.042C91.9599 160.27 91.8099 160.612 91.8099 161.068C91.8099 161.428 91.9359 161.74 92.1879 162.004C92.4399 162.256 92.8299 162.484 93.3579 162.688L92.6739 163.966C91.9419 163.666 91.3659 163.264 90.9459 162.76C90.5379 162.244 90.3339 161.662 90.3339 161.014C90.3339 160.426 90.4719 159.94 90.7479 159.556C91.0359 159.16 91.3959 158.866 91.8279 158.674C92.2719 158.482 92.7219 158.386 93.1779 158.386C93.8019 158.386 94.3719 158.494 94.8879 158.71C95.4039 158.926 95.8839 159.22 96.3279 159.592C96.7839 159.964 97.2159 160.396 97.6239 160.888L97.3719 160.96C97.3359 160.684 97.3119 160.414 97.2999 160.15C97.2879 159.874 97.2819 159.598 97.2819 159.322V156.082H89.3259V154.804H100.558ZM111.243 158.278V156.856H119.307V158.278H111.243ZM111.243 162.544V161.122H119.307V162.544H111.243ZM136.724 154.804V156.082H134.834V166H133.448V163.57L133.772 164.524C133.352 163.888 132.926 163.3 132.494 162.76C132.074 162.22 131.624 161.782 131.144 161.446C130.676 161.11 130.16 160.942 129.596 160.942C129.152 160.942 128.774 161.056 128.462 161.284C128.162 161.512 128.012 161.854 128.012 162.31C128.012 162.706 128.156 163.042 128.444 163.318C128.732 163.582 129.158 163.81 129.722 164.002L129.272 165.388C128.624 165.16 128.096 164.884 127.688 164.56C127.292 164.236 126.998 163.882 126.806 163.498C126.626 163.102 126.536 162.688 126.536 162.256C126.536 161.68 126.674 161.2 126.95 160.816C127.238 160.432 127.598 160.144 128.03 159.952C128.474 159.748 128.918 159.646 129.362 159.646C130.082 159.646 130.712 159.778 131.252 160.042C131.804 160.306 132.284 160.66 132.692 161.104C133.112 161.548 133.49 162.046 133.826 162.598L133.52 162.652C133.496 162.376 133.478 162.1 133.466 161.824C133.454 161.536 133.448 161.242 133.448 160.942V156.082H125.168V154.804H136.724ZM130.73 160.186C130.73 160.258 130.724 160.33 130.712 160.402C130.712 160.474 130.706 160.546 130.694 160.618L129.326 160.204C129.302 159.508 129.182 158.95 128.966 158.53C128.75 158.11 128.408 157.792 127.94 157.576C127.472 157.348 126.836 157.192 126.032 157.108L126.266 155.812L127.094 156.046C127.67 156.094 128.18 156.214 128.624 156.406C129.08 156.586 129.464 156.844 129.776 157.18C130.088 157.516 130.322 157.936 130.478 158.44C130.646 158.932 130.73 159.514 130.73 160.186Z" fill="#F5F9FA"/>
<path d="M160.791 43.8871C161.834 43.7136 162.814 43.4371 163.732 43.0574C164.652 42.6778 165.46 42.2239 166.154 41.6959C166.851 41.1679 167.397 40.5658 167.794 39.8895C168.191 39.2157 168.389 38.4852 168.389 37.6983C168.389 36.6926 168.26 35.4594 168 33.9987C167.738 32.5379 167.396 30.8861 166.974 29.0431C166.204 25.5333 165.818 22.6243 165.818 20.3163C165.818 20.0447 165.85 19.5783 165.914 18.9171C165.975 18.2533 166.067 17.5782 166.192 16.8918C166.317 16.2029 166.472 15.5946 166.657 15.0666C166.843 14.5386 167.048 14.2745 167.272 14.2745C167.322 14.2745 167.497 14.5084 167.794 14.976C168.092 15.4411 168.415 15.993 168.763 16.6316C169.111 17.2702 169.422 17.9151 169.694 18.5663C169.966 19.2175 170.102 19.7266 170.102 20.0937C170.102 20.2898 170.046 20.579 169.934 20.9611C169.825 21.3408 169.701 21.7331 169.564 22.1378C169.427 22.5426 169.302 22.911 169.19 23.2428C169.078 23.5747 169.022 23.777 169.022 23.85C169.147 24.4886 169.302 25.3723 169.488 26.5012C169.676 27.6326 169.906 29.0079 170.178 30.627C170.773 35.4644 171.071 37.9195 171.071 37.9925C171.071 39.1239 170.984 40.1673 170.811 41.1227C170.638 42.0807 170.402 42.9531 170.102 43.74C169.804 44.5245 169.47 45.2234 169.099 45.8369C168.725 46.4529 168.34 46.957 167.943 47.3492C167.297 48.0105 166.638 48.5749 165.967 49.0426C165.298 49.5102 164.647 49.9024 164.014 50.2192C163.381 50.5385 162.785 50.7849 162.225 50.9584C161.666 51.1294 161.188 51.2399 160.791 51.2902C160.244 51.0187 159.809 50.5398 159.487 49.8534C159.164 49.1645 159.002 48.4278 159.002 47.6434C159.002 46.9796 159.14 46.3108 159.414 45.637C159.686 44.9607 160.145 44.3774 160.791 43.8871ZM174 0.0943755C173.875 0.340769 173.621 0.893908 173.237 1.75377C172.851 2.61364 172.334 3.79148 171.688 5.28744C168.187 7.57287 163.308 10.2983 157.053 13.4637C157.175 13.0715 157.423 12.4455 157.797 11.5856C158.168 10.7283 158.64 9.61196 159.212 8.23668C161.473 6.98459 163.831 5.68849 166.288 4.34841C168.746 3.01084 171.317 1.59285 174 0.0943755ZM154.765 51.3241L154.803 52.5423C154.826 52.6881 154.565 54.5298 154.021 58.0673C153.299 62.3138 151.1 64.4497 147.426 64.4748C146.607 64.3265 145.812 64.0374 145.042 63.6075C144.271 63.1775 143.558 62.6495 142.902 62.0235C142.243 61.3974 141.66 60.7048 141.151 59.9455C140.64 59.1837 140.236 58.4218 139.938 57.66C139.516 56.7775 139.268 54.6656 139.195 51.3241C138.325 51.6937 137.518 51.8785 136.773 51.8785C133.52 51.8785 131.894 50.3926 131.894 47.4208C131.894 46.6364 132.068 45.8997 132.417 45.2108C132.762 44.5244 133.321 44.0832 134.091 43.8871C135.357 44.4503 136.425 44.7319 137.295 44.7319C138.312 44.7319 139.12 44.3887 139.717 43.7023C139.916 42.7444 140.56 41.1604 141.651 38.9504L143.329 35.526C143.627 35.0584 144.068 34.543 144.653 33.9798C145.235 33.4141 145.886 32.8862 146.606 32.3959L148.356 31.6227C149.178 31.6705 149.899 31.8729 150.519 32.2299C151.14 32.5869 151.661 33.0658 152.083 33.6667C152.505 34.2676 152.828 34.9616 153.052 35.7485C153.276 36.5329 153.388 37.3677 153.388 38.2527C153.388 39.7486 153.015 41.344 152.27 43.0386C153.76 44.0694 155.324 44.5848 156.962 44.5848C158.103 44.5848 159.234 44.3523 160.352 43.8871C160.576 43.9123 160.762 44.0291 160.909 44.2378C161.059 44.4465 161.184 44.7043 161.283 45.011C161.382 45.3177 161.457 45.6672 161.508 46.0594C161.556 46.4516 161.581 46.8564 161.581 47.2737C161.581 48.2819 161.506 49.0802 161.356 49.6685C161.208 50.2569 160.979 50.7044 160.669 51.0111C160.359 51.3203 159.967 51.5178 159.494 51.6032C159.024 51.6887 158.466 51.7315 157.82 51.7315C157.321 51.7315 156.812 51.7001 156.29 51.6372C155.769 51.5769 155.26 51.4725 154.765 51.3241ZM150.145 43.1139C150.369 42.8675 150.481 42.5847 150.481 42.2654C150.481 41.848 150.356 41.4306 150.107 41.0133C149.861 40.5959 149.563 40.2214 149.215 39.8895C148.866 39.5576 148.487 39.2873 148.078 39.0786C147.669 38.8699 147.315 38.7656 147.018 38.7656C144.907 38.7656 143.156 40.6199 141.765 44.3284L142.399 44.9921C145.526 44.796 148.109 44.1699 150.145 43.1139ZM152.304 55.45V55.2652C152.304 54.775 152.231 54.1251 152.083 53.3155C151.511 52.1363 149.549 51.5466 146.198 51.5466C144.212 51.5466 142.945 51.8408 142.399 52.4291L142.322 52.7271C142.472 53.2903 142.789 53.812 143.272 54.2923C143.758 54.77 144.329 55.181 144.985 55.5255C145.643 55.8674 146.358 56.1377 147.128 56.3363C147.899 56.5324 148.657 56.6305 149.402 56.6305C149.699 56.6305 150.016 56.6116 150.351 56.5738C150.687 56.5361 151.004 56.4746 151.301 56.3891C151.599 56.3036 151.84 56.1816 152.026 56.0232C152.211 55.8623 152.304 55.6712 152.304 55.45ZM151.984 4.45775C151.984 5.85565 151.6 7.22974 150.832 8.57988C150.062 9.93253 148.906 11.2952 147.365 12.668C145.951 13.9225 144.536 14.9358 143.12 15.7076C141.706 16.482 140.254 17.0038 138.764 17.2728C138.588 17.2728 138.5 17.1998 138.5 17.054C138.5 16.4883 138.755 15.9478 139.263 15.4323C139.774 14.9169 140.414 14.4254 141.182 13.9578C142.102 13.3946 142.879 12.8666 143.512 12.3738C144.146 11.8835 144.66 11.4297 145.057 11.0124L144.981 10.6428C143.814 9.34294 143.23 7.83307 143.23 6.11334C143.23 5.42696 143.355 4.72182 143.604 3.99772C143.853 3.27363 144.201 2.61612 144.649 2.02527C145.094 1.43695 145.615 0.951638 146.213 0.569475C146.808 0.189828 147.465 0 148.185 0C150.718 0 151.984 1.48593 151.984 4.45775ZM149.787 7.10901C150.036 6.76456 150.161 6.38362 150.161 5.96626C150.161 5.59918 150.068 5.26739 149.882 4.97071C149.694 4.67655 149.458 4.42508 149.173 4.2164C148.888 4.00772 148.565 3.84813 148.204 3.7375C147.845 3.62687 147.479 3.57154 147.105 3.57154C145.689 3.57154 144.981 4.09946 144.981 5.15543C144.981 5.52502 145.069 5.86323 145.244 6.16997C145.417 6.47671 145.646 6.74067 145.931 6.96192C146.218 7.18317 146.541 7.36039 146.899 7.49364C147.261 7.62941 147.615 7.69736 147.964 7.69736C148.609 7.69736 149.217 7.50122 149.787 7.10901ZM127.691 49.6308C127.566 49.583 127.454 49.5466 127.355 49.5215C127.256 49.4963 127.182 49.4837 127.134 49.4837C127.009 49.4837 126.941 49.558 126.928 49.7063C126.915 49.8521 126.846 50.2329 126.722 50.8489L126.573 51.5844C126.474 52.0746 126.295 52.4794 126.035 52.7987C125.773 53.118 125.419 53.2777 124.971 53.2777C122.688 53.2777 121.236 52.1363 120.615 49.8534C120.516 49.1419 120.423 48.4177 120.337 47.681C120.248 46.9444 120.166 46.2077 120.093 45.471C119.869 45.1769 119.199 45.0298 118.083 45.0298C115.972 45.0298 114.146 46.0846 112.605 48.194C112.407 48.5133 112.308 49.348 112.308 50.6982C112.308 53.3029 112.42 55.9856 112.643 58.7462C112.867 61.5093 113.214 64.3767 113.685 67.3485C113.735 67.6905 113.774 68.04 113.799 68.397C113.822 68.7515 113.833 69.1136 113.833 69.4831C113.833 69.6793 113.809 70.1267 113.761 70.8257C113.71 71.5272 113.635 72.2639 113.536 73.0358C113.437 73.8102 113.325 74.4978 113.2 75.0987C113.078 75.6996 112.929 76 112.754 76C112.581 76 112.357 74.8712 112.083 72.6134L110.854 62.5967C110.582 60.2887 110.371 58.2069 110.221 56.3514C110.074 54.4984 110 52.8603 110 51.4373C110 49.4485 110.117 47.7237 110.351 46.263C110.587 44.8022 110.96 43.5439 111.469 42.488C111.98 41.432 112.638 40.5658 113.444 39.8895C114.25 39.2157 115.237 38.694 116.404 38.3244C116.903 38.1786 117.387 38.0616 117.857 37.9736C118.33 37.8881 118.815 37.8454 119.311 37.8454C120.081 37.8454 120.951 37.9811 121.92 38.2527C122.665 37.7121 123.52 37.2823 124.487 36.963C124.487 37.7248 124.822 38.8046 125.494 40.2025C127.406 42.1661 130.274 43.3943 134.099 43.8871C134.272 43.8871 134.433 43.9977 134.583 44.2189C134.733 44.4402 134.869 44.7281 134.991 45.0826C135.116 45.4396 135.215 45.8507 135.289 46.3158C135.365 46.7834 135.403 47.2498 135.403 47.715C135.403 48.0117 135.378 48.3624 135.327 48.7671C135.279 49.1719 135.192 49.5642 135.068 49.9439C134.943 50.326 134.781 50.6453 134.583 50.9018C134.385 51.1607 134.137 51.2902 133.839 51.2902C131.38 51.2902 129.331 50.7371 127.691 49.6308ZM124.765 16.345C124.765 17.0817 124.641 17.8184 124.391 18.555C124.142 19.2917 123.8 19.973 123.365 20.5991C122.933 21.2251 122.412 21.7896 121.801 22.2924C121.194 22.7953 120.53 23.195 119.81 23.4917C119.686 23.5394 119.294 23.6124 118.636 23.7105C117.977 23.8085 117.251 23.9129 116.458 24.0235C115.662 24.1341 114.91 24.2259 114.203 24.2988C113.497 24.3742 113.031 24.4119 112.807 24.4119C112.136 24.4119 111.8 24.2271 111.8 23.8575C111.8 23.415 113.428 22.6167 116.683 21.4627C118.295 20.8995 119.437 20.4394 120.108 20.0824C120.779 19.7279 121.115 19.4149 121.115 19.1434C121.115 18.1125 118.904 17.5481 114.482 17.45L114.184 17.1559C114.482 16.6656 114.854 16.0458 115.302 15.2965C115.749 14.5473 116.283 13.6574 116.904 12.6265C117.301 12.4782 117.81 12.4039 118.433 12.4039C119.227 12.4039 120.002 12.502 120.76 12.6981C121.518 12.8942 122.188 13.1708 122.77 13.5278C123.355 13.8848 123.827 14.3022 124.185 14.7799C124.547 15.2576 124.74 15.7793 124.765 16.345Z" fill="#F5F9FA"/>
</svg>
