<svg width="329" height="176" viewBox="0 0 329 176" fill="none" xmlns="http://www.w3.org/2000/svg">
<path d="M236 174.33C242.762 171.982 246.143 166.935 246.143 159.188V150.728C246.143 144.241 248.655 140.356 253.679 139.073C248.655 137.886 246.143 134.001 246.143 127.417V119.175C246.143 110.993 242.821 105.813 236.179 103.634L236.679 102C240.488 103.21 243.321 105.183 245.179 107.919C247.06 110.63 248.024 114.176 248.071 118.557V127.599C248.071 134.449 251.048 137.874 257 137.874V140.271C251.048 140.271 248.071 143.72 248.071 150.619V159.225C248.071 163.727 247.131 167.334 245.25 170.045C243.393 172.781 240.536 174.765 236.679 176L236 174.33Z" fill="#F5F9FA"/>
<path d="M17.164 104.804V106.082H15.364V116H13.978C13.63 115.292 13.198 114.674 12.682 114.146C12.166 113.606 11.614 113.144 11.026 112.76L11.476 111.572C11.932 111.836 12.406 112.196 12.898 112.652C13.39 113.108 13.768 113.57 14.032 114.038C14.02 113.858 14.008 113.69 13.996 113.534C13.996 113.378 13.99 113.216 13.978 113.048C13.978 112.88 13.978 112.7 13.978 112.508V106.082H0.82V104.804H17.164ZM7.768 114.362C6.952 114.362 6.172 114.17 5.428 113.786C4.684 113.402 3.982 112.754 3.322 111.842C2.674 110.918 2.074 109.652 1.522 108.044L2.836 107.612C3.268 108.86 3.718 109.886 4.186 110.69C4.666 111.482 5.2 112.064 5.788 112.436C6.376 112.808 7.048 112.994 7.804 112.994C8.464 112.994 8.992 112.892 9.388 112.688C9.796 112.472 10.09 112.184 10.27 111.824C10.45 111.464 10.54 111.056 10.54 110.6C10.54 109.904 10.348 109.34 9.964 108.908C9.592 108.476 9.124 108.26 8.56 108.26C8.164 108.26 7.864 108.35 7.66 108.53C7.456 108.698 7.354 108.956 7.354 109.304C7.354 109.388 7.366 109.502 7.39 109.646C7.414 109.79 7.45 109.922 7.498 110.042L6.13 110.312C6.046 110.06 5.98 109.832 5.932 109.628C5.896 109.412 5.878 109.208 5.878 109.016C5.878 108.572 5.998 108.2 6.238 107.9C6.49 107.6 6.808 107.378 7.192 107.234C7.588 107.078 8.002 107 8.434 107C9.142 107 9.754 107.162 10.27 107.486C10.786 107.798 11.188 108.23 11.476 108.782C11.764 109.334 11.908 109.976 11.908 110.708C11.908 111.356 11.758 111.962 11.458 112.526C11.158 113.078 10.702 113.522 10.09 113.858C9.478 114.194 8.704 114.362 7.768 114.362ZM7.192 107.63C7.132 107.246 6.952 106.91 6.652 106.622C6.364 106.322 5.938 106.112 5.374 105.992L5.806 105.182L6.616 105.398C7.3 105.662 7.792 105.962 8.092 106.298C8.392 106.634 8.566 107.06 8.614 107.576L7.192 107.63ZM22.024 104.804V106.082H20.134V116H18.748V107.378C18.544 106.91 18.31 106.58 18.046 106.388C17.794 106.184 17.494 106.082 17.146 106.082H16.966V104.804H17.146C17.482 104.804 17.794 104.9 18.082 105.092C18.382 105.272 18.628 105.554 18.82 105.938C18.808 105.878 18.79 105.74 18.766 105.524C18.754 105.308 18.748 105.122 18.748 104.966V103.616H19.702L20.116 104.804H22.024ZM26.8157 104.804V106.082H24.9257V116H23.5397V106.082H21.6677V104.804H23.3237C23.1317 104.576 22.9337 104.33 22.7297 104.066C22.5377 103.802 22.3637 103.544 22.2077 103.292C22.6877 102.584 23.2037 101.942 23.7557 101.366C24.3197 100.79 24.9737 100.334 25.7177 99.998C26.4737 99.662 27.3737 99.494 28.4177 99.494C29.1977 99.494 29.9297 99.572 30.6137 99.728C31.3097 99.872 31.9877 100.088 32.6477 100.376C33.3077 100.664 33.9737 101.006 34.6457 101.402C35.3177 101.798 36.0197 102.248 36.7517 102.752L36.0317 103.76C35.2637 103.256 34.5677 102.818 33.9437 102.446C33.3317 102.074 32.7437 101.768 32.1797 101.528C31.6157 101.288 31.0457 101.108 30.4697 100.988C29.9057 100.868 29.2877 100.808 28.6157 100.808C27.7877 100.808 27.0797 100.928 26.4917 101.168C25.9037 101.408 25.3937 101.732 24.9617 102.14C24.5297 102.548 24.1337 103.01 23.7737 103.526C23.8577 103.706 23.9837 103.904 24.1517 104.12C24.3197 104.336 24.5117 104.564 24.7277 104.804H26.8157ZM39.9669 104.804V106.082H38.0769V116H36.6909V109.97L36.7989 110.438C36.5349 110.054 36.2529 109.748 35.9529 109.52C35.6649 109.292 35.3469 109.178 34.9989 109.178C34.8189 109.178 34.6329 109.214 34.4409 109.286C34.2609 109.346 34.1049 109.466 33.9729 109.646C33.8529 109.826 33.7929 110.102 33.7929 110.474C33.7929 110.606 33.7929 110.726 33.7929 110.834C33.8049 110.93 33.8169 111.026 33.8289 111.122L32.6589 111.212C32.6109 110.72 32.4789 110.306 32.2629 109.97C32.0469 109.622 31.7829 109.358 31.4709 109.178C31.1589 108.998 30.8229 108.908 30.4629 108.908C30.1389 108.908 29.8629 108.974 29.6349 109.106C29.4069 109.226 29.2329 109.394 29.1129 109.61C28.9929 109.814 28.9329 110.048 28.9329 110.312C28.9329 110.792 29.1069 111.2 29.4549 111.536C29.8149 111.872 30.3189 112.154 30.9669 112.382L30.4809 113.714C29.9049 113.534 29.3889 113.288 28.9329 112.976C28.4769 112.664 28.1169 112.28 27.8529 111.824C27.5889 111.368 27.4569 110.84 27.4569 110.24C27.4569 109.7 27.5889 109.238 27.8529 108.854C28.1169 108.458 28.4709 108.152 28.9149 107.936C29.3589 107.72 29.8449 107.612 30.3729 107.612C31.0089 107.612 31.5549 107.732 32.0109 107.972C32.4669 108.2 32.8869 108.572 33.2709 109.088L33.0009 109.106C33.1209 108.71 33.3489 108.41 33.6849 108.206C34.0329 107.99 34.3929 107.882 34.7649 107.882C35.1969 107.882 35.5689 107.966 35.8809 108.134C36.1929 108.302 36.5349 108.542 36.9069 108.854L36.7449 109.124C36.7329 108.872 36.7209 108.62 36.7089 108.368C36.6969 108.116 36.6909 107.858 36.6909 107.594V106.082H26.4489V104.804H39.9669ZM55.0589 104.804V106.082H42.1349L41.8469 105.92C42.3509 106.04 42.8549 106.232 43.3589 106.496C43.8749 106.76 44.3489 107.048 44.7809 107.36C45.2249 107.66 45.5789 107.948 45.8429 108.224L45.9329 109.232C45.5009 109.424 45.0449 109.634 44.5649 109.862C44.0969 110.09 43.6409 110.318 43.1969 110.546C42.7649 110.774 42.3809 111.002 42.0449 111.23L41.8469 110.924C42.7829 111.116 43.6049 111.362 44.3129 111.662C45.0209 111.962 45.6569 112.322 46.2209 112.742C46.7849 113.162 47.3249 113.654 47.8409 114.218C47.8289 114.014 47.8169 113.804 47.8049 113.588C47.8049 113.372 47.8049 113.15 47.8049 112.922V106.82H48.0389C48.6989 106.82 49.3349 106.874 49.9469 106.982C50.5709 107.09 51.1469 107.27 51.6749 107.522C52.2149 107.774 52.6889 108.116 53.0969 108.548C53.3849 108.848 53.6129 109.19 53.7809 109.574C53.9609 109.946 54.0509 110.36 54.0509 110.816C54.0509 111.212 53.9669 111.59 53.7989 111.95C53.6429 112.298 53.3849 112.586 53.0249 112.814C52.6649 113.042 52.1849 113.156 51.5849 113.156C51.4049 113.156 51.2249 113.15 51.0449 113.138C50.8769 113.126 50.7089 113.102 50.5409 113.066L50.6309 111.788C50.7029 111.8 50.7929 111.812 50.9009 111.824C51.0089 111.824 51.1229 111.824 51.2429 111.824C51.8309 111.824 52.2089 111.71 52.3769 111.482C52.5569 111.254 52.6469 110.984 52.6469 110.672C52.6469 110.06 52.3349 109.52 51.7109 109.052C51.0989 108.584 50.2589 108.296 49.1909 108.188V116H47.8049C47.3129 115.328 46.7669 114.74 46.1669 114.236C45.5789 113.732 44.8889 113.312 44.0969 112.976C43.3169 112.628 42.3869 112.364 41.3069 112.184L40.6589 110.546C41.0309 110.294 41.4209 110.054 41.8289 109.826C42.2369 109.598 42.6509 109.376 43.0709 109.16C43.5029 108.944 43.9229 108.74 44.3309 108.548C43.8749 108.2 43.3469 107.894 42.7469 107.63C42.1589 107.354 41.4629 107.132 40.6589 106.964L41.2169 105.74L41.2529 106.082H39.6149V104.804H55.0589ZM69.0269 113.642V105.758H70.5389V113.642H69.0269ZM65.7509 110.42V108.998H73.8149V110.42H65.7509ZM86.2635 104.804V106.082H85.9035C85.5315 106.166 85.1295 106.352 84.6975 106.64C84.2655 106.916 83.8575 107.282 83.4735 107.738C83.0895 108.182 82.7715 108.704 82.5195 109.304C82.2795 109.904 82.1595 110.564 82.1595 111.284C82.1595 112.148 82.2855 112.838 82.5375 113.354C82.8015 113.858 83.1255 114.218 83.5095 114.434C83.8935 114.65 84.2775 114.758 84.6615 114.758C84.9615 114.758 85.2135 114.728 85.4175 114.668C85.6215 114.608 85.8555 114.5 86.1195 114.344L86.7495 115.442C86.4375 115.682 86.0955 115.85 85.7235 115.946C85.3515 116.042 84.9735 116.09 84.5895 116.09C83.8335 116.09 83.1675 115.892 82.5915 115.496C82.0155 115.1 81.5595 114.548 81.2235 113.84C80.8995 113.12 80.7375 112.28 80.7375 111.32C80.7375 110.396 80.8815 109.574 81.1695 108.854C81.4695 108.122 81.8535 107.486 82.3215 106.946C82.8015 106.406 83.3175 105.962 83.8695 105.614C84.4215 105.254 84.9555 104.984 85.4715 104.804H86.2635ZM99.1461 104.804V106.082H97.2561V116H95.8701V108.872L96.2661 110.024C95.7741 109.304 95.3241 108.692 94.9161 108.188C94.5081 107.672 94.1181 107.252 93.7461 106.928C93.3861 106.604 93.0201 106.37 92.6481 106.226C92.2761 106.07 91.8741 105.992 91.4421 105.992C90.9621 105.992 90.5241 106.082 90.1281 106.262C89.7441 106.442 89.3901 106.682 89.0661 106.982C88.7421 107.282 88.4421 107.606 88.1661 107.954L88.0221 107.99C88.2141 107.87 88.4001 107.78 88.5801 107.72C88.7721 107.66 88.9821 107.63 89.2101 107.63C89.9061 107.63 90.4161 107.822 90.7401 108.206C91.0641 108.578 91.2261 109.04 91.2261 109.592C91.2261 109.724 91.2201 109.85 91.2081 109.97C91.1961 110.09 91.1781 110.18 91.1541 110.24L90.8481 110.132C90.9921 109.976 91.1301 109.826 91.2621 109.682C91.3941 109.538 91.5321 109.394 91.6761 109.25C91.8321 109.106 91.9881 108.956 92.1441 108.8L94.3761 106.712L95.2581 107.666L90.1461 112.49L89.0841 111.5L90.5601 110.096L89.9121 110.87L89.3721 111.284C89.5521 111.08 89.7021 110.864 89.8221 110.636C89.9541 110.396 90.0201 110.126 90.0201 109.826C90.0201 109.526 89.9301 109.286 89.7501 109.106C89.5701 108.926 89.3061 108.836 88.9581 108.836C88.7661 108.836 88.5801 108.86 88.4001 108.908C88.2201 108.956 88.0341 109.04 87.8421 109.16L86.4741 107.864C86.9541 107.228 87.4461 106.676 87.9501 106.208C88.4541 105.728 88.9821 105.356 89.5341 105.092C90.0861 104.816 90.6801 104.678 91.3161 104.678C91.9881 104.678 92.5941 104.804 93.1341 105.056C93.6741 105.308 94.1961 105.686 94.7001 106.19C95.2041 106.682 95.7321 107.306 96.2841 108.062L95.9601 107.972C95.9241 107.684 95.9001 107.372 95.8881 107.036C95.8761 106.7 95.8701 106.34 95.8701 105.956V103.616H96.8241L97.2381 104.804H99.1461ZM111.329 104.804V106.082H109.439V116H108.053V106.784L108.143 106.424C108.107 106.22 108.083 106.01 108.071 105.794C108.059 105.578 108.053 105.338 108.053 105.074V103.616H109.007L109.439 104.804H111.329ZM105.461 104.678C105.929 104.678 106.361 104.768 106.757 104.948C107.153 105.128 107.507 105.38 107.819 105.704C108.131 106.028 108.383 106.406 108.575 106.838L108.503 108.728C108.131 107.864 107.693 107.192 107.189 106.712C106.685 106.232 106.121 105.992 105.497 105.992C105.029 105.992 104.651 106.124 104.363 106.388C104.075 106.64 103.931 107.018 103.931 107.522C103.931 108.002 104.123 108.398 104.507 108.71C104.903 109.01 105.533 109.178 106.397 109.214L106.271 110.6C105.479 110.552 104.825 110.39 104.309 110.114C103.805 109.838 103.433 109.478 103.193 109.034C102.953 108.578 102.833 108.056 102.833 107.468C102.833 106.832 102.959 106.31 103.211 105.902C103.463 105.482 103.787 105.176 104.183 104.984C104.591 104.78 105.017 104.678 105.461 104.678ZM100.349 104.678C100.853 104.678 101.327 104.78 101.771 104.984C102.227 105.188 102.599 105.512 102.887 105.956C103.175 106.4 103.319 106.982 103.319 107.702C103.319 108.194 103.199 108.662 102.959 109.106C102.719 109.55 102.347 109.91 101.843 110.186C101.351 110.462 100.715 110.6 99.9349 110.6L99.8269 109.214C100.439 109.202 100.919 109.118 101.267 108.962C101.615 108.794 101.861 108.584 102.005 108.332C102.149 108.08 102.221 107.828 102.221 107.576C102.221 107.084 102.065 106.7 101.753 106.424C101.441 106.136 100.967 105.992 100.331 105.992C100.115 105.992 99.8989 106.01 99.6829 106.046C99.4789 106.07 99.2329 106.118 98.9449 106.19L98.8009 104.84C99.1009 104.78 99.3649 104.738 99.5929 104.714C99.8329 104.69 100.085 104.678 100.349 104.678ZM122.019 108.278V106.856H130.083V108.278H122.019ZM122.019 112.544V111.122H130.083V112.544H122.019ZM145.267 104.804C145.255 104.312 145.135 103.958 144.907 103.742C144.691 103.526 144.331 103.418 143.827 103.418H141.307C140.527 103.418 139.921 103.364 139.489 103.256C139.069 103.148 138.709 102.98 138.409 102.752C138.085 102.512 137.839 102.206 137.671 101.834C137.515 101.45 137.437 101.018 137.437 100.538C137.437 100.382 137.443 100.226 137.455 100.07C137.479 99.914 137.503 99.752 137.527 99.584L138.859 99.674C138.835 99.818 138.817 99.944 138.805 100.052C138.793 100.16 138.787 100.262 138.787 100.358C138.787 100.622 138.811 100.856 138.859 101.06C138.919 101.264 139.009 101.432 139.129 101.564C139.297 101.756 139.537 101.9 139.849 101.996C140.161 102.08 140.617 102.122 141.217 102.122H143.449C144.085 102.122 144.589 102.17 144.961 102.266C145.333 102.362 145.651 102.536 145.915 102.788C146.119 102.98 146.275 103.244 146.383 103.58C146.491 103.904 146.551 104.312 146.563 104.804H145.267ZM149.119 104.804V106.082H142.531V109.304C142.531 109.652 142.585 109.91 142.693 110.078C142.801 110.234 142.969 110.312 143.197 110.312C143.425 110.312 143.659 110.24 143.899 110.096C144.151 109.952 144.421 109.724 144.709 109.412C144.997 109.1 145.309 108.698 145.645 108.206L146.725 108.044C147.109 108.608 147.403 109.19 147.607 109.79C147.823 110.39 147.931 110.99 147.931 111.59C147.931 112.346 147.763 113.024 147.427 113.624C147.103 114.224 146.617 114.698 145.969 115.046C145.333 115.394 144.553 115.568 143.629 115.568C142.837 115.568 142.099 115.43 141.415 115.154C140.731 114.878 140.101 114.434 139.525 113.822C138.949 113.198 138.421 112.382 137.941 111.374C137.461 110.354 137.029 109.106 136.645 107.63L138.013 107.27C138.445 108.938 138.919 110.282 139.435 111.302C139.963 112.31 140.563 113.048 141.235 113.516C141.907 113.972 142.681 114.2 143.557 114.2C144.517 114.2 145.255 113.96 145.771 113.48C146.299 113 146.563 112.382 146.563 111.626C146.563 111.086 146.485 110.624 146.329 110.24C146.185 109.856 145.993 109.538 145.753 109.286L146.581 108.944C146.221 109.556 145.849 110.06 145.465 110.456C145.093 110.852 144.715 111.152 144.331 111.356C143.959 111.548 143.587 111.644 143.215 111.644C142.939 111.644 142.681 111.608 142.441 111.536C142.201 111.452 141.997 111.332 141.829 111.176C141.637 111.008 141.475 110.774 141.343 110.474C141.211 110.162 141.145 109.646 141.145 108.926V106.082H135.943V104.804H149.119Z" fill="#F5F9FA"/>
<path d="M12.052 131.804V133.082H10.162V143H8.776V138.626L9.064 139.634C8.668 139.082 8.236 138.584 7.768 138.14C7.3 137.696 6.82 137.342 6.328 137.078C5.836 136.814 5.356 136.682 4.888 136.682C4.444 136.682 4.066 136.802 3.754 137.042C3.454 137.27 3.304 137.612 3.304 138.068C3.304 138.428 3.43 138.74 3.682 139.004C3.934 139.256 4.324 139.484 4.852 139.688L4.168 140.966C3.436 140.666 2.86 140.264 2.44 139.76C2.032 139.244 1.828 138.662 1.828 138.014C1.828 137.426 1.966 136.94 2.242 136.556C2.53 136.16 2.89 135.866 3.322 135.674C3.766 135.482 4.216 135.386 4.672 135.386C5.296 135.386 5.866 135.494 6.382 135.71C6.898 135.926 7.378 136.22 7.822 136.592C8.278 136.964 8.71 137.396 9.118 137.888L8.866 137.96C8.83 137.684 8.806 137.414 8.794 137.15C8.782 136.874 8.776 136.598 8.776 136.322V133.082H0.82V131.804H12.052ZM6.71528 147.788C6.39128 147.788 6.03728 147.716 5.65328 147.572C5.26928 147.44 4.94528 147.224 4.68128 146.924C4.40528 146.624 4.26728 146.222 4.26728 145.718C4.26728 145.106 4.50128 144.614 4.96928 144.242C5.43728 143.882 6.09128 143.702 6.93128 143.702C7.67528 143.702 8.39528 143.834 9.09128 144.098C9.77528 144.374 10.4773 144.752 11.1973 145.232C11.9053 145.712 12.6613 146.27 13.4653 146.906L12.6553 147.878C11.8513 147.206 11.1193 146.648 10.4593 146.204C9.79928 145.76 9.17528 145.424 8.58728 145.196C7.99928 144.968 7.41728 144.854 6.84128 144.854C6.40928 144.854 6.08528 144.938 5.86928 145.106C5.65328 145.274 5.54528 145.49 5.54528 145.754C5.54528 146.09 5.66528 146.324 5.90528 146.456C6.13328 146.6 6.40328 146.672 6.71528 146.672C7.15928 146.672 7.51928 146.576 7.79528 146.384C8.05928 146.204 8.26328 145.976 8.40728 145.7C8.55128 145.424 8.64728 145.136 8.69528 144.836C8.74328 144.548 8.76728 144.29 8.76728 144.062V142.856H10.1533V143.81C10.1533 144.146 10.1173 144.536 10.0453 144.98C9.96128 145.436 9.80528 145.874 9.57728 146.294C9.33728 146.726 8.98928 147.08 8.53328 147.356C8.07728 147.644 7.47128 147.788 6.71528 147.788ZM22.9153 131.804V133.082H21.0253V143H19.6393V138.626L19.9273 139.634C19.5313 139.082 19.0993 138.584 18.6313 138.14C18.1633 137.696 17.6833 137.342 17.1913 137.078C16.6993 136.814 16.2193 136.682 15.7513 136.682C15.3073 136.682 14.9293 136.802 14.6173 137.042C14.3173 137.27 14.1673 137.612 14.1673 138.068C14.1673 138.428 14.2933 138.74 14.5453 139.004C14.7973 139.256 15.1873 139.484 15.7153 139.688L15.0313 140.966C14.2993 140.666 13.7233 140.264 13.3033 139.76C12.8953 139.244 12.6913 138.662 12.6913 138.014C12.6913 137.426 12.8293 136.94 13.1053 136.556C13.3933 136.16 13.7533 135.866 14.1853 135.674C14.6293 135.482 15.0793 135.386 15.5353 135.386C16.1593 135.386 16.7293 135.494 17.2453 135.71C17.7613 135.926 18.2413 136.22 18.6853 136.592C19.1413 136.964 19.5733 137.396 19.9813 137.888L19.7293 137.96C19.6933 137.684 19.6693 137.414 19.6573 137.15C19.6453 136.874 19.6393 136.598 19.6393 136.322V133.082H11.6833V131.804H22.9153ZM36.8765 140.642V132.758H38.3885V140.642H36.8765ZM33.6005 137.42V135.998H41.6645V137.42H33.6005ZM59.1531 131.804V133.082H57.2631V143H55.8771C55.3731 142.328 54.8151 141.74 54.2031 141.236C53.5911 140.72 52.8831 140.288 52.0791 139.94C51.2751 139.592 50.3211 139.34 49.2171 139.184L48.5691 137.546C48.9411 137.294 49.3311 137.054 49.7391 136.826C50.1471 136.598 50.5611 136.376 50.9811 136.16C51.4131 135.944 51.8331 135.74 52.2411 135.548C51.7851 135.2 51.2571 134.894 50.6571 134.63C50.0691 134.354 49.3731 134.132 48.5691 133.964L49.1271 132.74L49.1631 133.082H47.5251V131.804H59.1531ZM55.8771 133.082H50.1351L49.7571 132.92C50.2611 133.04 50.7651 133.232 51.2691 133.496C51.7851 133.76 52.2591 134.048 52.6911 134.36C53.1351 134.66 53.4891 134.948 53.7531 135.224L53.8431 136.232C53.4111 136.424 52.9551 136.634 52.4751 136.862C52.0071 137.09 51.5511 137.318 51.1071 137.546C50.6751 137.774 50.2911 138.002 49.9551 138.23L49.7391 137.96C50.7711 138.104 51.6711 138.344 52.4391 138.68C53.2191 139.016 53.9091 139.424 54.5091 139.904C55.1091 140.384 55.6611 140.918 56.1651 141.506L55.9311 141.578C55.9191 141.326 55.9071 141.056 55.8951 140.768C55.8831 140.468 55.8771 140.186 55.8771 139.922V133.082ZM69.8807 131.804V133.082H67.9907V143H66.6047C66.2447 142.28 65.7467 141.62 65.1107 141.02C64.4867 140.408 63.7667 139.892 62.9507 139.472C62.1347 139.052 61.2647 138.77 60.3407 138.626L59.6387 136.898C60.7907 136.202 61.9787 135.572 63.2027 135.008C64.4387 134.444 65.7107 133.964 67.0187 133.568L66.6047 134.324V133.082H58.7927V131.804H69.8807ZM66.6047 134.468L66.9827 134.972C66.0707 135.272 65.1107 135.644 64.1027 136.088C63.0947 136.52 62.1647 137 61.3127 137.528C61.9607 137.672 62.6507 137.918 63.3827 138.266C64.1147 138.614 64.7927 139.052 65.4167 139.58C66.0407 140.108 66.5207 140.72 66.8567 141.416H66.6947C66.6707 141.14 66.6467 140.864 66.6227 140.588C66.6107 140.312 66.6047 139.982 66.6047 139.598V134.468ZM80.6033 131.804V133.082H78.7133V143H77.3273C76.9673 142.28 76.4693 141.62 75.8333 141.02C75.2093 140.408 74.4893 139.892 73.6733 139.472C72.8573 139.052 71.9873 138.77 71.0633 138.626L70.3613 136.898C71.5133 136.202 72.7013 135.572 73.9253 135.008C75.1613 134.444 76.4333 133.964 77.7413 133.568L77.3273 134.324V133.082H69.5153V131.804H80.6033ZM77.3273 134.468L77.7053 134.972C76.7933 135.272 75.8333 135.644 74.8253 136.088C73.8173 136.52 72.8873 137 72.0353 137.528C72.6833 137.672 73.3733 137.918 74.1053 138.266C74.8373 138.614 75.5153 139.052 76.1393 139.58C76.7633 140.108 77.2433 140.72 77.5793 141.416H77.4173C77.3933 141.14 77.3693 140.864 77.3453 140.588C77.3333 140.312 77.3273 139.982 77.3273 139.598V134.468ZM73.0253 143.108C72.7253 143.108 72.4673 143.012 72.2513 142.82C72.0473 142.628 71.9453 142.376 71.9453 142.064C71.9453 141.752 72.0473 141.494 72.2513 141.29C72.4673 141.086 72.7253 140.984 73.0253 140.984C73.3253 140.984 73.5773 141.086 73.7813 141.29C73.9973 141.494 74.1053 141.752 74.1053 142.064C74.1053 142.376 73.9973 142.628 73.7813 142.82C73.5773 143.012 73.3253 143.108 73.0253 143.108ZM91.2919 135.278V133.856H99.3559V135.278H91.2919ZM91.2919 139.544V138.122H99.3559V139.544H91.2919ZM116.448 131.804V133.082H114.558V143H113.172V138.626L113.46 139.634C113.064 139.082 112.632 138.584 112.164 138.14C111.696 137.696 111.216 137.342 110.724 137.078C110.232 136.814 109.752 136.682 109.284 136.682C108.84 136.682 108.462 136.802 108.15 137.042C107.85 137.27 107.7 137.612 107.7 138.068C107.7 138.428 107.826 138.74 108.078 139.004C108.33 139.256 108.72 139.484 109.248 139.688L108.564 140.966C107.832 140.666 107.256 140.264 106.836 139.76C106.428 139.244 106.224 138.662 106.224 138.014C106.224 137.426 106.362 136.94 106.638 136.556C106.926 136.16 107.286 135.866 107.718 135.674C108.162 135.482 108.612 135.386 109.068 135.386C109.692 135.386 110.262 135.494 110.778 135.71C111.294 135.926 111.774 136.22 112.218 136.592C112.674 136.964 113.106 137.396 113.514 137.888L113.262 137.96C113.226 137.684 113.202 137.414 113.19 137.15C113.178 136.874 113.172 136.598 113.172 136.322V133.082H105.216V131.804H116.448ZM121.228 131.804V133.082H119.338V143H117.952V134.558C117.808 134.15 117.592 133.802 117.304 133.514C117.028 133.226 116.668 133.082 116.224 133.082H116.08V131.804H116.35C116.638 131.804 116.938 131.9 117.25 132.092C117.562 132.272 117.814 132.554 118.006 132.938C117.994 132.878 117.982 132.74 117.97 132.524C117.958 132.308 117.952 132.122 117.952 131.966V130.616H118.924L119.32 131.804H121.228Z" fill="#F5F9FA"/>
<path d="M277.162 127.804C277.15 127.432 277.054 127.168 276.874 127.012C276.694 126.844 276.376 126.76 275.92 126.76H273.364C272.452 126.76 271.708 126.676 271.132 126.508C270.568 126.328 270.124 126.058 269.8 125.698C269.572 125.446 269.404 125.152 269.296 124.816C269.2 124.468 269.152 124.072 269.152 123.628C269.152 123.448 269.158 123.286 269.17 123.142C269.182 122.986 269.206 122.8 269.242 122.584L271.492 122.728C271.48 122.836 271.468 122.932 271.456 123.016C271.456 123.1 271.456 123.178 271.456 123.25C271.456 123.502 271.48 123.73 271.528 123.934C271.588 124.126 271.684 124.288 271.816 124.42C271.948 124.54 272.116 124.63 272.32 124.69C272.524 124.75 272.854 124.78 273.31 124.78H275.938C276.646 124.78 277.204 124.834 277.612 124.942C278.032 125.05 278.386 125.242 278.674 125.518C278.902 125.746 279.076 126.046 279.196 126.418C279.328 126.778 279.4 127.24 279.412 127.804H277.162ZM281.518 127.804V129.784H275.254V132.106C275.254 132.286 275.284 132.442 275.344 132.574C275.404 132.694 275.53 132.754 275.722 132.754C275.878 132.754 276.046 132.7 276.226 132.592C276.406 132.472 276.586 132.31 276.766 132.106C276.958 131.89 277.15 131.65 277.342 131.386L279.448 130.99C279.856 131.578 280.162 132.172 280.366 132.772C280.57 133.36 280.672 133.996 280.672 134.68C280.672 135.436 280.486 136.114 280.114 136.714C279.754 137.302 279.208 137.77 278.476 138.118C277.756 138.466 276.862 138.64 275.794 138.64C275.002 138.64 274.24 138.526 273.508 138.298C272.776 138.07 272.086 137.686 271.438 137.146C270.802 136.594 270.214 135.844 269.674 134.896C269.146 133.936 268.684 132.736 268.288 131.296L270.538 130.666C270.934 132.094 271.384 133.246 271.888 134.122C272.392 134.986 272.95 135.616 273.562 136.012C274.186 136.396 274.864 136.588 275.596 136.588C276.46 136.588 277.126 136.396 277.594 136.012C278.074 135.616 278.314 135.07 278.314 134.374C278.314 133.906 278.23 133.522 278.062 133.222C277.894 132.922 277.702 132.64 277.486 132.376L279.322 132.232C278.89 132.808 278.452 133.282 278.008 133.654C277.564 134.026 277.114 134.302 276.658 134.482C276.214 134.662 275.752 134.752 275.272 134.752C274.888 134.752 274.546 134.698 274.246 134.59C273.946 134.47 273.694 134.296 273.49 134.068C273.286 133.84 273.13 133.546 273.022 133.186C272.926 132.826 272.878 132.364 272.878 131.8V129.784H267.82V127.804H281.518ZM292.934 127.804V129.784H291.206V139H288.83V135.22L289.19 136.156C288.818 135.676 288.416 135.238 287.984 134.842C287.552 134.446 287.114 134.128 286.67 133.888C286.238 133.648 285.812 133.528 285.392 133.528C285.092 133.528 284.834 133.6 284.618 133.744C284.414 133.876 284.312 134.092 284.312 134.392C284.312 134.656 284.408 134.878 284.6 135.058C284.792 135.238 285.098 135.412 285.518 135.58L284.456 137.56C283.652 137.248 283.016 136.804 282.548 136.228C282.092 135.64 281.864 134.998 281.864 134.302C281.864 133.654 282.014 133.126 282.314 132.718C282.614 132.298 282.998 131.992 283.466 131.8C283.946 131.596 284.438 131.494 284.942 131.494C285.494 131.494 286.016 131.578 286.508 131.746C287 131.914 287.468 132.154 287.912 132.466C288.368 132.766 288.812 133.138 289.244 133.582L288.884 133.762C288.86 133.474 288.842 133.18 288.83 132.88C288.83 132.568 288.83 132.28 288.83 132.016V129.784H281.162V127.804H292.934ZM298.402 127.804V129.784H296.674V139H294.298V131.008C294.154 130.636 293.95 130.342 293.686 130.126C293.422 129.898 293.08 129.784 292.66 129.784H292.57V127.804H292.93C293.206 127.804 293.464 127.876 293.704 128.02C293.944 128.164 294.166 128.47 294.37 128.938C294.358 128.878 294.34 128.74 294.316 128.524C294.304 128.308 294.298 128.122 294.298 127.966V126.616H296.242L296.656 127.804H298.402ZM303.869 127.804V129.784H302.141V139H299.765V129.784H298.037V127.804H299.783C299.591 127.588 299.381 127.342 299.153 127.066C298.937 126.79 298.745 126.538 298.577 126.31C299.177 125.338 299.765 124.576 300.341 124.024C300.929 123.472 301.547 123.082 302.195 122.854C302.843 122.614 303.557 122.494 304.337 122.494C304.913 122.494 305.459 122.542 305.975 122.638C306.503 122.734 307.049 122.902 307.613 123.142C308.189 123.37 308.825 123.682 309.521 124.078C310.217 124.462 311.027 124.942 311.951 125.518L310.727 127.12C309.755 126.496 308.927 125.992 308.243 125.608C307.559 125.212 306.935 124.924 306.371 124.744C305.807 124.564 305.213 124.474 304.589 124.474C304.025 124.474 303.533 124.582 303.113 124.798C302.693 125.014 302.327 125.284 302.015 125.608C301.715 125.932 301.451 126.268 301.223 126.616C301.331 126.808 301.457 127.012 301.601 127.228C301.745 127.444 301.895 127.636 302.051 127.804H303.869ZM316.608 127.804V129.784H314.88V139H312.504V133.312L312.954 134.086C312.714 133.786 312.492 133.558 312.288 133.402C312.096 133.234 311.91 133.15 311.73 133.15C311.586 133.15 311.454 133.192 311.334 133.276C311.214 133.36 311.07 133.528 310.902 133.78C310.734 134.032 310.488 134.416 310.164 134.932C309.828 135.46 309.51 135.892 309.21 136.228C308.91 136.552 308.598 136.786 308.274 136.93C307.962 137.074 307.596 137.146 307.176 137.146C306.816 137.146 306.468 137.086 306.132 136.966C305.796 136.846 305.466 136.636 305.142 136.336C304.83 136.024 304.512 135.586 304.188 135.022L305.844 133.996C306.084 134.38 306.288 134.656 306.456 134.824C306.624 134.98 306.822 135.058 307.05 135.058C307.206 135.058 307.35 135.022 307.482 134.95C307.626 134.878 307.788 134.716 307.968 134.464C308.16 134.2 308.4 133.792 308.688 133.24L309.138 132.772C309.462 132.172 309.768 131.752 310.056 131.512C310.344 131.272 310.698 131.152 311.118 131.152C311.442 131.152 311.73 131.23 311.982 131.386C312.246 131.53 312.54 131.758 312.864 132.07L312.576 132.142C312.564 131.914 312.546 131.68 312.522 131.44C312.51 131.188 312.504 130.942 312.504 130.702V129.784H303.504V127.804H316.608ZM308.04 134.572C307.932 133.828 307.818 133.24 307.698 132.808C307.578 132.364 307.38 132.022 307.104 131.782C306.816 131.53 306.432 131.344 305.952 131.224C305.472 131.092 304.866 130.984 304.134 130.9L304.8 128.83L306.078 129.478C306.762 129.598 307.314 129.742 307.734 129.91C308.154 130.078 308.484 130.294 308.724 130.558C308.964 130.81 309.138 131.134 309.246 131.53C309.354 131.914 309.432 132.388 309.48 132.952L308.04 134.572ZM328.02 127.804V129.784H326.292V139H323.916V135.22L324.276 136.156C323.904 135.676 323.502 135.238 323.07 134.842C322.638 134.446 322.2 134.128 321.756 133.888C321.324 133.648 320.898 133.528 320.478 133.528C320.178 133.528 319.92 133.6 319.704 133.744C319.5 133.876 319.398 134.092 319.398 134.392C319.398 134.656 319.494 134.878 319.686 135.058C319.878 135.238 320.184 135.412 320.604 135.58L319.542 137.56C318.738 137.248 318.102 136.804 317.634 136.228C317.178 135.64 316.95 134.998 316.95 134.302C316.95 133.654 317.1 133.126 317.4 132.718C317.7 132.298 318.084 131.992 318.552 131.8C319.032 131.596 319.524 131.494 320.028 131.494C320.58 131.494 321.102 131.578 321.594 131.746C322.086 131.914 322.554 132.154 322.998 132.466C323.454 132.766 323.898 133.138 324.33 133.582L323.97 133.762C323.946 133.474 323.928 133.18 323.916 132.88C323.916 132.568 323.916 132.28 323.916 132.016V129.784H316.248V127.804H328.02Z" fill="#FFCA3A"/>
<path d="M5.968 158.804V160.082H4.078V170H2.692V160.082H0.82V158.804H2.476C2.284 158.576 2.086 158.336 1.882 158.084C1.69 157.832 1.516 157.58 1.36 157.328C1.768 156.62 2.206 155.978 2.674 155.402C3.142 154.814 3.694 154.352 4.33 154.016C4.966 153.668 5.734 153.494 6.634 153.494C7.27 153.494 7.876 153.572 8.452 153.728C9.04 153.884 9.616 154.112 10.18 154.412C10.744 154.7 11.314 155.054 11.89 155.474C12.466 155.882 13.066 156.338 13.69 156.842L12.934 157.814C12.106 157.142 11.356 156.584 10.684 156.14C10.024 155.696 9.388 155.366 8.776 155.15C8.176 154.922 7.534 154.808 6.85 154.808C6.19 154.808 5.614 154.922 5.122 155.15C4.642 155.378 4.222 155.696 3.862 156.104C3.514 156.512 3.196 156.986 2.908 157.526C3.004 157.706 3.136 157.904 3.304 158.12C3.472 158.336 3.664 158.564 3.88 158.804H5.968ZM18.2373 158.804V160.082H16.3473V170H14.9613V163.646L15.3753 164.78C15.0033 164.288 14.6793 163.91 14.4033 163.646C14.1393 163.382 13.8813 163.25 13.6293 163.25C13.4613 163.25 13.3053 163.298 13.1613 163.394C13.0173 163.49 12.8553 163.676 12.6753 163.952C12.4953 164.216 12.2553 164.624 11.9553 165.176C11.6313 165.764 11.3373 166.25 11.0732 166.634C10.8093 167.006 10.5273 167.282 10.2273 167.462C9.93925 167.63 9.58525 167.714 9.16525 167.714C8.84125 167.714 8.52925 167.648 8.22925 167.516C7.94125 167.384 7.64725 167.168 7.34725 166.868C7.05925 166.556 6.74725 166.136 6.41125 165.608L7.50925 164.942C7.83325 165.518 8.10325 165.896 8.31925 166.076C8.53525 166.256 8.76925 166.346 9.02125 166.346C9.22525 166.346 9.41725 166.286 9.59725 166.166C9.78925 166.034 9.99325 165.812 10.2093 165.5C10.4373 165.188 10.6953 164.762 10.9833 164.222L11.3973 163.628C11.7093 162.98 12.0093 162.536 12.2973 162.296C12.5853 162.044 12.9033 161.918 13.2513 161.918C13.6473 161.918 14.0013 162.032 14.3133 162.26C14.6373 162.476 15.0093 162.812 15.4293 163.268L15.0693 163.286C15.0213 163.01 14.9913 162.752 14.9793 162.512C14.9673 162.26 14.9613 162.008 14.9613 161.756V160.082H5.60125V158.804H18.2373ZM10.6593 165.122C10.5393 164.306 10.4133 163.658 10.2812 163.178C10.1613 162.698 9.94525 162.326 9.63325 162.062C9.33325 161.786 8.92525 161.582 8.40925 161.45C7.89325 161.306 7.24525 161.186 6.46525 161.09L6.73525 159.722L7.70725 160.082C8.39125 160.19 8.96125 160.328 9.41725 160.496C9.87325 160.664 10.2393 160.886 10.5153 161.162C10.8033 161.426 11.0193 161.756 11.1633 162.152C11.3073 162.548 11.4033 163.028 11.4513 163.592L10.6593 165.122ZM29.1028 158.804V160.082H27.2128V170H25.8268V165.626L26.1148 166.634C25.7188 166.082 25.2868 165.584 24.8188 165.14C24.3508 164.696 23.8708 164.342 23.3788 164.078C22.8868 163.814 22.4068 163.682 21.9388 163.682C21.4948 163.682 21.1168 163.802 20.8048 164.042C20.5048 164.27 20.3548 164.612 20.3548 165.068C20.3548 165.428 20.4808 165.74 20.7328 166.004C20.9848 166.256 21.3748 166.484 21.9028 166.688L21.2188 167.966C20.4868 167.666 19.9108 167.264 19.4908 166.76C19.0828 166.244 18.8788 165.662 18.8788 165.014C18.8788 164.426 19.0168 163.94 19.2928 163.556C19.5808 163.16 19.9408 162.866 20.3728 162.674C20.8168 162.482 21.2668 162.386 21.7228 162.386C22.3468 162.386 22.9168 162.494 23.4328 162.71C23.9488 162.926 24.4288 163.22 24.8728 163.592C25.3288 163.964 25.7608 164.396 26.1688 164.888L25.9168 164.96C25.8808 164.684 25.8568 164.414 25.8448 164.15C25.8328 163.874 25.8268 163.598 25.8268 163.322V160.082H17.8708V158.804H29.1028ZM43.064 167.642V159.758H44.576V167.642H43.064ZM39.788 164.42V162.998H47.852V164.42H39.788ZM64.9266 158.804V160.082H56.7546V165.446L56.5026 165.086C56.9826 164.546 57.5286 164.042 58.1406 163.574C58.7526 163.106 59.4186 162.68 60.1386 162.296C60.8586 161.9 61.6266 161.552 62.4426 161.252L63.6126 162.404C63.3846 162.824 63.1986 163.232 63.0546 163.628C62.9226 164.024 62.8206 164.438 62.7486 164.87C62.6886 165.302 62.6586 165.782 62.6586 166.31C62.6586 166.898 62.7066 167.462 62.8026 168.002C62.8986 168.542 63.0606 169.148 63.2886 169.82L61.9386 170.126C61.7226 169.43 61.5546 168.752 61.4346 168.092C61.3146 167.42 61.2546 166.724 61.2546 166.004C61.2546 165.512 61.2906 165.05 61.3626 164.618C61.4346 164.186 61.5306 163.802 61.6506 163.466C61.7826 163.118 61.9146 162.836 62.0466 162.62L62.2626 162.71C61.5786 162.986 60.9126 163.322 60.2646 163.718C59.6166 164.114 58.9806 164.57 58.3566 165.086C57.7326 165.602 57.0906 166.19 56.4306 166.85L55.3686 166.13V160.082H53.7126V158.804H64.9266ZM59.8188 174.788C59.4948 174.788 59.1408 174.716 58.7568 174.572C58.3728 174.44 58.0488 174.224 57.7848 173.924C57.5088 173.624 57.3708 173.222 57.3708 172.718C57.3708 172.106 57.6048 171.614 58.0728 171.242C58.5408 170.882 59.1948 170.702 60.0348 170.702C60.7788 170.702 61.4988 170.834 62.1948 171.098C62.8788 171.374 63.5808 171.752 64.3008 172.232C65.0088 172.712 65.7648 173.27 66.5688 173.906L65.7588 174.878C64.9548 174.206 64.2228 173.648 63.5628 173.204C62.9028 172.76 62.2788 172.424 61.6908 172.196C61.1028 171.968 60.5208 171.854 59.9448 171.854C59.5128 171.854 59.1888 171.938 58.9728 172.106C58.7568 172.274 58.6488 172.49 58.6488 172.754C58.6488 173.09 58.7688 173.324 59.0088 173.456C59.2368 173.6 59.5068 173.672 59.8188 173.672C60.2628 173.672 60.6228 173.576 60.8988 173.384C61.1628 173.204 61.3668 172.976 61.5108 172.7C61.6548 172.424 61.7508 172.136 61.7988 171.836C61.8468 171.548 61.8708 171.29 61.8708 171.062V169.856H63.2568V170.81C63.2568 171.146 63.2208 171.536 63.1488 171.98C63.0648 172.436 62.9088 172.874 62.6808 173.294C62.4408 173.726 62.0928 174.08 61.6368 174.356C61.1808 174.644 60.5748 174.788 59.8188 174.788ZM71.1823 158.804C71.1703 158.312 71.0503 157.958 70.8223 157.742C70.6063 157.526 70.2463 157.418 69.7423 157.418H68.4463C67.6543 157.418 67.0423 157.364 66.6103 157.256C66.1903 157.148 65.8303 156.98 65.5303 156.752C65.2063 156.512 64.9603 156.206 64.7923 155.834C64.6363 155.45 64.5583 155.018 64.5583 154.538C64.5583 154.382 64.5703 154.226 64.5943 154.07C64.6063 153.914 64.6243 153.752 64.6483 153.584L65.9803 153.674C65.9563 153.818 65.9383 153.944 65.9263 154.052C65.9143 154.16 65.9083 154.262 65.9083 154.358C65.9083 154.622 65.9323 154.856 65.9803 155.06C66.0403 155.264 66.1303 155.432 66.2503 155.564C66.4183 155.756 66.6583 155.9 66.9703 155.996C67.2943 156.08 67.7503 156.122 68.3383 156.122H69.3643C70.0003 156.122 70.5043 156.17 70.8763 156.266C71.2483 156.362 71.5663 156.536 71.8303 156.788C72.0343 156.98 72.1903 157.244 72.2983 157.58C72.4063 157.904 72.4663 158.312 72.4783 158.804H71.1823ZM69.0943 161C70.0423 161 70.8043 161.162 71.3803 161.486C71.9683 161.798 72.4003 162.2 72.6763 162.692C72.9523 163.172 73.0903 163.658 73.0903 164.15C73.0903 165.134 72.7423 165.914 72.0463 166.49C71.3623 167.066 70.3423 167.39 68.9863 167.462L69.1663 167.264C69.7063 167.42 70.2763 167.642 70.8763 167.93C71.4763 168.218 72.0823 168.554 72.6943 168.938C73.3063 169.31 73.8943 169.724 74.4583 170.18L73.6303 171.134C72.8863 170.582 72.2023 170.108 71.5783 169.712C70.9663 169.304 70.3603 168.95 69.7603 168.65C69.1603 168.35 68.5243 168.086 67.8523 167.858C67.1803 167.63 66.4183 167.42 65.5663 167.228L65.8363 165.986C66.2563 166.106 66.6583 166.196 67.0423 166.256C67.4383 166.304 67.9123 166.328 68.4643 166.328C69.3163 166.328 69.9703 166.226 70.4263 166.022C70.8943 165.818 71.2183 165.554 71.3983 165.23C71.5783 164.906 71.6683 164.576 71.6683 164.24C71.6683 163.604 71.4343 163.118 70.9663 162.782C70.4983 162.434 69.9043 162.26 69.1843 162.26C68.7523 162.26 68.4043 162.302 68.1403 162.386C67.8763 162.47 67.6843 162.596 67.5643 162.764C67.4563 162.92 67.4023 163.112 67.4023 163.34C67.4023 163.436 67.4143 163.538 67.4383 163.646C67.4623 163.742 67.4863 163.832 67.5103 163.916L66.1963 164.186C66.1363 164.006 66.0883 163.82 66.0523 163.628C66.0163 163.424 65.9983 163.244 65.9983 163.088C65.9983 162.644 66.1303 162.266 66.3943 161.954C66.6583 161.642 67.0183 161.408 67.4743 161.252C67.9423 161.084 68.4823 161 69.0943 161ZM67.8883 161.63C67.8283 161.246 67.6483 160.91 67.3483 160.622C67.0483 160.322 66.6163 160.112 66.0523 159.992L66.4843 159.182L67.3123 159.398C67.9843 159.662 68.4703 159.962 68.7703 160.298C69.0823 160.634 69.2623 161.06 69.3103 161.576L67.8883 161.63ZM74.4583 158.804V160.082H64.5583V158.804H74.4583ZM85.5252 158.804V160.082H85.1652C84.7932 160.166 84.3912 160.352 83.9592 160.64C83.5272 160.916 83.1192 161.282 82.7352 161.738C82.3512 162.182 82.0332 162.704 81.7812 163.304C81.5412 163.904 81.4212 164.564 81.4212 165.284C81.4212 166.148 81.5472 166.838 81.7992 167.354C82.0632 167.858 82.3872 168.218 82.7712 168.434C83.1552 168.65 83.5392 168.758 83.9232 168.758C84.2232 168.758 84.4752 168.728 84.6792 168.668C84.8832 168.608 85.1172 168.5 85.3812 168.344L86.0112 169.442C85.6992 169.682 85.3572 169.85 84.9852 169.946C84.6132 170.042 84.2352 170.09 83.8512 170.09C83.0952 170.09 82.4292 169.892 81.8532 169.496C81.2772 169.1 80.8212 168.548 80.4852 167.84C80.1612 167.12 79.9992 166.28 79.9992 165.32C79.9992 164.396 80.1432 163.574 80.4312 162.854C80.7312 162.122 81.1152 161.486 81.5832 160.946C82.0632 160.406 82.5792 159.962 83.1312 159.614C83.6832 159.254 84.2172 158.984 84.7332 158.804H85.5252ZM96.7878 158.804V160.082H94.8978V170H93.5118C93.0078 169.328 92.4498 168.74 91.8378 168.236C91.2258 167.72 90.5178 167.288 89.7138 166.94C88.9098 166.592 87.9558 166.34 86.8518 166.184L86.2038 164.546C86.5758 164.294 86.9658 164.054 87.3738 163.826C87.7818 163.598 88.1958 163.376 88.6158 163.16C89.0478 162.944 89.4678 162.74 89.8758 162.548C89.4198 162.2 88.8918 161.894 88.2918 161.63C87.7038 161.354 87.0078 161.132 86.2038 160.964L86.7618 159.74L86.7978 160.082H85.1598V158.804H96.7878ZM93.5118 160.082H87.7698L87.3918 159.92C87.8958 160.04 88.3998 160.232 88.9038 160.496C89.4198 160.76 89.8938 161.048 90.3258 161.36C90.7698 161.66 91.1238 161.948 91.3878 162.224L91.4778 163.232C91.0458 163.424 90.5898 163.634 90.1098 163.862C89.6418 164.09 89.1858 164.318 88.7418 164.546C88.3098 164.774 87.9258 165.002 87.5898 165.23L87.3738 164.96C88.4058 165.104 89.3058 165.344 90.0738 165.68C90.8538 166.016 91.5438 166.424 92.1438 166.904C92.7438 167.384 93.2958 167.918 93.7998 168.506L93.5658 168.578C93.5538 168.326 93.5418 168.056 93.5298 167.768C93.5178 167.468 93.5118 167.186 93.5118 166.922V160.082ZM107.515 158.804V160.082H105.625V170H104.239C103.879 169.28 103.381 168.62 102.745 168.02C102.121 167.408 101.401 166.892 100.585 166.472C99.7694 166.052 98.8994 165.77 97.9754 165.626L97.2734 163.898C98.4254 163.202 99.6134 162.572 100.837 162.008C102.073 161.444 103.345 160.964 104.653 160.568L104.239 161.324V160.082H96.4274V158.804H107.515ZM104.239 161.468L104.617 161.972C103.705 162.272 102.745 162.644 101.737 163.088C100.729 163.52 99.7994 164 98.9474 164.528C99.5954 164.672 100.285 164.918 101.017 165.266C101.749 165.614 102.427 166.052 103.051 166.58C103.675 167.108 104.155 167.72 104.491 168.416H104.329C104.305 168.14 104.281 167.864 104.257 167.588C104.245 167.312 104.239 166.982 104.239 166.598V161.468ZM99.9374 170.108C99.6374 170.108 99.3794 170.012 99.1634 169.82C98.9594 169.628 98.8574 169.376 98.8574 169.064C98.8574 168.752 98.9594 168.494 99.1634 168.29C99.3794 168.086 99.6374 167.984 99.9374 167.984C100.237 167.984 100.489 168.086 100.693 168.29C100.909 168.494 101.017 168.752 101.017 169.064C101.017 169.376 100.909 169.628 100.693 169.82C100.489 170.012 100.237 170.108 99.9374 170.108ZM118.204 162.278V160.856H126.268V162.278H118.204ZM118.204 166.544V165.122H126.268V166.544H118.204ZM137.277 158.804V160.082H135.387V170H134.001V160.082H132.129V158.804H133.785C133.593 158.576 133.395 158.336 133.191 158.084C132.999 157.832 132.825 157.58 132.669 157.328C133.077 156.62 133.515 155.978 133.983 155.402C134.451 154.814 135.003 154.352 135.639 154.016C136.275 153.668 137.043 153.494 137.943 153.494C138.579 153.494 139.185 153.572 139.761 153.728C140.349 153.884 140.925 154.112 141.489 154.412C142.053 154.7 142.623 155.054 143.199 155.474C143.775 155.882 144.375 156.338 144.999 156.842L144.243 157.814C143.415 157.142 142.665 156.584 141.993 156.14C141.333 155.696 140.697 155.366 140.085 155.15C139.485 154.922 138.843 154.808 138.159 154.808C137.499 154.808 136.923 154.922 136.431 155.15C135.951 155.378 135.531 155.696 135.171 156.104C134.823 156.512 134.505 156.986 134.217 157.526C134.313 157.706 134.445 157.904 134.613 158.12C134.781 158.336 134.973 158.564 135.189 158.804H137.277ZM149.546 158.804V160.082H147.656V170H146.27V163.646L146.684 164.78C146.312 164.288 145.988 163.91 145.712 163.646C145.448 163.382 145.19 163.25 144.938 163.25C144.77 163.25 144.614 163.298 144.47 163.394C144.326 163.49 144.164 163.676 143.984 163.952C143.804 164.216 143.564 164.624 143.264 165.176C142.94 165.764 142.646 166.25 142.382 166.634C142.118 167.006 141.836 167.282 141.536 167.462C141.248 167.63 140.894 167.714 140.474 167.714C140.15 167.714 139.838 167.648 139.538 167.516C139.25 167.384 138.956 167.168 138.656 166.868C138.368 166.556 138.056 166.136 137.72 165.608L138.818 164.942C139.142 165.518 139.412 165.896 139.628 166.076C139.844 166.256 140.078 166.346 140.33 166.346C140.534 166.346 140.726 166.286 140.906 166.166C141.098 166.034 141.302 165.812 141.518 165.5C141.746 165.188 142.004 164.762 142.292 164.222L142.706 163.628C143.018 162.98 143.318 162.536 143.606 162.296C143.894 162.044 144.212 161.918 144.56 161.918C144.956 161.918 145.31 162.032 145.622 162.26C145.946 162.476 146.318 162.812 146.738 163.268L146.378 163.286C146.33 163.01 146.3 162.752 146.288 162.512C146.276 162.26 146.27 162.008 146.27 161.756V160.082H136.91V158.804H149.546ZM141.968 165.122C141.848 164.306 141.722 163.658 141.59 163.178C141.47 162.698 141.254 162.326 140.942 162.062C140.642 161.786 140.234 161.582 139.718 161.45C139.202 161.306 138.554 161.186 137.774 161.09L138.044 159.722L139.016 160.082C139.7 160.19 140.27 160.328 140.726 160.496C141.182 160.664 141.548 160.886 141.824 161.162C142.112 161.426 142.328 161.756 142.472 162.152C142.616 162.548 142.712 163.028 142.76 163.592L141.968 165.122ZM160.411 158.804V160.082H158.521V170H157.135V165.626L157.423 166.634C157.027 166.082 156.595 165.584 156.127 165.14C155.659 164.696 155.179 164.342 154.687 164.078C154.195 163.814 153.715 163.682 153.247 163.682C152.803 163.682 152.425 163.802 152.113 164.042C151.813 164.27 151.663 164.612 151.663 165.068C151.663 165.428 151.789 165.74 152.041 166.004C152.293 166.256 152.683 166.484 153.211 166.688L152.527 167.966C151.795 167.666 151.219 167.264 150.799 166.76C150.391 166.244 150.187 165.662 150.187 165.014C150.187 164.426 150.325 163.94 150.601 163.556C150.889 163.16 151.249 162.866 151.681 162.674C152.125 162.482 152.575 162.386 153.031 162.386C153.655 162.386 154.225 162.494 154.741 162.71C155.257 162.926 155.737 163.22 156.181 163.592C156.637 163.964 157.069 164.396 157.477 164.888L157.225 164.96C157.189 164.684 157.165 164.414 157.153 164.15C157.141 163.874 157.135 163.598 157.135 163.322V160.082H149.179V158.804H160.411Z" fill="#F5F9FA"/>
<path d="M214.438 24.1993C214.183 24.9912 213.59 25.5227 212.658 25.7936C212.658 26.2683 212.693 26.89 212.765 27.6588C212.834 28.4276 212.921 29.2705 213.026 30.1875C213.131 31.1021 213.246 32.0515 213.373 33.0357C213.501 34.0198 213.624 34.9576 213.741 35.8491C213.858 36.743 213.957 37.5523 214.038 38.2771C214.119 38.9995 214.16 39.5646 214.16 39.9721V41.0905C214.16 42.1094 214.143 43.1606 214.11 44.2443C214.074 45.3304 213.997 46.4731 213.881 47.6726C213.461 49.9326 213.031 51.645 212.59 52.8098C212.146 53.9745 211.692 54.5569 211.227 54.5569C211.158 54.5569 211.112 54.5233 211.088 54.4562C211.226 53.6179 211.295 52.5667 211.295 51.3024C211.295 47.0949 211.092 42.928 210.687 38.8016C210.28 34.6751 209.691 30.5197 208.921 26.3354C208.828 25.907 208.781 25.3421 208.781 24.6405C208.781 23.8485 208.828 23.0404 208.921 22.216C209.014 21.3894 209.13 20.6425 209.271 19.9756C209.412 19.3087 209.575 18.7599 209.761 18.3292C209.947 17.9008 210.133 17.6867 210.319 17.6867C210.715 17.6867 211.086 18.4219 211.435 19.8923C212.367 21.8583 213.368 23.2939 214.438 24.1993ZM218 4.1056C218 5.39308 217.64 6.65862 216.92 7.9021C216.198 9.14789 215.114 10.4029 213.67 11.6672C212.344 12.8227 211.017 13.7559 209.69 14.4668C208.364 15.18 207.003 15.6605 205.606 15.9083C205.441 15.9083 205.359 15.8411 205.359 15.7068C205.359 15.1858 205.597 14.6879 206.074 14.2132C206.553 13.7385 207.153 13.2859 207.873 12.8552C208.736 12.3365 209.464 11.8501 210.058 11.3963C210.651 10.9447 211.134 10.5268 211.506 10.1424L211.435 9.80204C210.34 8.60487 209.793 7.21428 209.793 5.63041C209.793 4.99825 209.91 4.34881 210.144 3.68191C210.377 3.01502 210.704 2.40945 211.124 1.86528C211.541 1.32343 212.029 0.876461 212.59 0.524489C213.147 0.174832 213.764 0 214.438 0C216.813 0 218 1.36855 218 4.1056ZM215.94 6.54742C216.174 6.23018 216.291 5.87933 216.291 5.49494C216.291 5.15686 216.204 4.85128 216.03 4.57804C215.853 4.30711 215.632 4.07551 215.365 3.88331C215.098 3.69112 214.795 3.54413 214.456 3.44225C214.12 3.34036 213.777 3.2894 213.426 3.2894C212.098 3.2894 211.435 3.77561 211.435 4.74817C211.435 5.08856 211.517 5.40006 211.681 5.68256C211.843 5.96507 212.058 6.20817 212.325 6.41195C212.594 6.61572 212.897 6.77894 213.233 6.90167C213.572 7.02671 213.904 7.08929 214.231 7.08929C214.837 7.08929 215.406 6.90865 215.94 6.54742ZM190.497 47.367L191.055 47.4017C191.241 47.4225 191.433 47.4329 191.631 47.4329C191.829 47.4329 192.022 47.4329 192.21 47.4329C195.817 47.4329 199.448 46.5623 203.103 44.821C203.127 44.777 203.138 44.6867 203.138 44.5501C203.138 44.3463 203.057 43.9735 202.895 43.4316C202.731 42.8898 202.556 42.3073 202.37 41.6844C202.184 41.0639 202.01 40.448 201.847 39.8367C201.683 39.2253 201.601 38.7506 201.601 38.4125C201.601 37.9818 201.706 37.3485 201.915 36.5126C202.125 35.6743 202.533 34.5096 203.138 33.0183L203.417 33.0531C203.489 33.2777 203.582 33.5485 203.696 33.8658C203.789 34.1367 203.912 34.4817 204.065 34.9009C204.215 35.32 204.384 35.8005 204.572 36.3424C205.037 37.6761 205.27 39.1465 205.27 40.7536C205.27 41.703 205.183 42.7033 205.009 43.7546C204.832 44.8059 204.546 45.9081 204.15 47.0613C202.546 51.8315 198.484 54.2165 191.963 54.2165C191.708 54.2165 191.464 54.2165 191.23 54.2165C190.997 54.2165 190.752 54.2061 190.497 54.1853C190.009 53.8009 189.642 53.2637 189.396 52.5736C189.153 51.8836 189.031 51.1762 189.031 50.4514C189.031 49.7752 189.148 49.1476 189.382 48.5687C189.613 47.9921 189.985 47.5916 190.497 47.367ZM195.665 28.5411L190.533 23.522L195.665 18.5341L200.835 23.522L195.665 28.5411ZM202.881 3.56033C202.764 3.78726 202.526 4.2967 202.166 5.08864C201.803 5.88058 201.319 6.96538 200.714 8.34316C197.431 10.4481 192.858 12.9582 186.993 15.8735C187.107 15.5123 187.34 14.9357 187.69 14.1438C188.038 13.3542 188.48 12.3261 189.017 11.0594C191.136 9.90624 193.347 8.71253 195.65 7.47831C197.956 6.24641 200.366 4.94043 202.881 3.56033ZM188.298 54.1853C184.689 54.1389 181.935 52.5389 180.038 49.385C178.14 46.2312 176.971 41.5108 176.53 35.2239C176.482 34.476 176.411 33.1526 176.319 31.2538C176.226 29.355 176.11 26.8565 175.972 23.7582C175.924 22.6051 175.876 21.0443 175.829 19.076C175.783 17.11 175.761 14.6902 175.761 11.8166C175.761 11.592 175.795 11.3037 175.865 10.9517C175.936 10.6021 176.029 10.2686 176.143 9.9514C176.26 9.63648 176.401 9.35971 176.565 9.12121C176.727 8.88501 176.913 8.76695 177.123 8.76695C177.495 8.76695 177.751 9.78347 177.892 11.8166L179.043 29.1177C179.253 32.3063 179.526 34.9124 179.862 36.9363C180.201 38.9601 180.609 40.5822 181.085 41.8025C181.562 43.0252 182.109 43.9584 182.727 44.6021C183.344 45.2458 184.025 45.7946 184.769 46.2485C185.353 46.6097 185.999 46.8923 186.707 47.0961C187.417 47.2998 188.18 47.4017 188.995 47.4017C189.088 47.4017 189.175 47.3959 189.257 47.3843C189.34 47.3727 189.428 47.367 189.521 47.367C190.334 47.4805 190.916 47.8139 191.266 48.3673C191.614 48.9208 191.788 49.5483 191.788 50.2499C191.788 50.7014 191.725 51.1645 191.599 51.6392C191.47 52.1139 191.289 52.5435 191.055 52.9279C190.824 53.3123 190.545 53.6238 190.218 53.8623C189.892 54.0985 189.543 54.2165 189.171 54.2165C189.054 54.2165 188.925 54.2165 188.784 54.2165C188.646 54.2165 188.484 54.2061 188.298 54.1853ZM169.56 39.326V39.5309L169.138 44.9565C168.628 47.8301 167.289 49.267 165.122 49.267C163.144 49.267 161.643 48.1925 160.62 46.0436C159.991 46.949 159.454 47.6668 159.011 48.1971C158.57 48.7297 158.168 49.1373 157.806 49.4198C157.446 49.7023 157.092 49.8828 156.744 49.9616C156.393 50.0403 156.008 50.0797 155.589 50.0797C155.193 50.0797 154.821 50.0461 154.473 49.979C154.123 49.9095 153.889 49.8748 153.772 49.8748C153.565 49.8748 153.461 49.9767 153.461 50.1805V50.4861C153.461 52.8827 153.03 55.1786 152.167 57.3738C151.306 59.5667 150.153 61.5049 148.709 63.1884C147.266 64.8741 145.596 66.2148 143.699 67.2105C141.801 68.2039 139.816 68.7007 137.745 68.7007C135.952 68.7007 134.276 68.3221 132.717 67.5649C131.158 66.8077 129.807 65.7738 128.665 64.4631C127.523 63.1502 126.627 61.6126 125.976 59.8504C125.325 58.0859 125 56.1975 125 54.1853C125 52.9858 125.116 51.8777 125.347 50.8612C125.58 49.8423 125.907 48.8467 126.327 47.8741C126.744 46.9016 127.255 45.929 127.861 44.9565C128.466 43.9862 129.154 42.9349 129.924 41.8025C130.017 42.0063 130.063 42.2668 130.063 42.5841C130.063 42.9916 129.574 44.3254 128.594 46.5855C127.616 48.8247 127.128 50.4988 127.128 51.608C127.128 53.6642 127.804 55.6534 129.155 57.5753C131.134 60.493 134.136 61.9518 138.163 61.9518C142.051 61.9518 145.764 60.3355 149.302 57.1029C150.933 55.6093 151.748 54.037 151.748 52.386C151.748 52.0688 151.678 51.6729 151.537 51.1982C151.399 50.7235 151.225 50.2209 151.015 49.6906C150.805 49.158 150.579 48.6325 150.336 48.1138C150.09 47.5928 149.862 47.1227 149.653 46.7036C149.443 46.2867 149.275 45.9533 149.148 45.7032C149.02 45.4555 148.955 45.3431 148.955 45.3663C148.908 45.1856 148.884 44.8801 148.884 44.4494C148.884 43.9978 148.908 43.3922 148.955 42.6327C149.001 41.8755 149.07 40.955 149.163 39.8713C149.186 39.6212 149.281 39.3492 149.445 39.0551C149.607 39.2357 149.828 39.5078 150.107 39.8713C150.386 40.2325 150.747 40.6958 151.19 41.2608C152.33 42.708 153.68 43.4316 155.242 43.4316C157.011 43.4316 158.687 42.3803 160.27 40.2777C161.316 38.8536 161.886 38.1416 161.979 38.1416C162.26 39.9038 162.494 40.9886 162.68 41.3961C163.076 42.1649 163.936 42.5493 165.262 42.5493C166.242 42.5493 166.905 42.3572 167.254 41.9728C167.254 41.8825 167.277 41.6567 167.325 41.2954C167.37 40.9342 167.428 40.5151 167.497 40.0381C167.568 39.5634 167.645 39.0667 167.726 38.548C167.807 38.027 167.894 37.5465 167.987 37.1065C168.08 36.6642 168.167 36.3019 168.248 36.0194C168.331 35.7369 168.419 35.5956 168.512 35.5956C168.627 35.5956 168.748 35.7484 168.877 36.054C169.006 36.3597 169.123 36.7163 169.227 37.1239C169.332 37.5291 169.413 37.9413 169.471 38.3604C169.53 38.7795 169.56 39.1014 169.56 39.326ZM153.354 69.1974C153.075 69.6953 152.772 70.1815 152.445 70.6562C152.121 71.1309 151.761 71.5721 151.366 71.9796L150.246 72.8931C148.78 73.5716 147.256 74.2107 145.673 74.8104C144.09 75.4102 142.634 76.106 141.306 76.8979C141.12 76.8284 140.957 76.7937 140.816 76.7937C140.678 76.7937 140.609 76.6582 140.609 76.3873C140.747 75.8454 140.992 75.3592 141.342 74.9285C141.69 74.5001 142.015 74.059 142.318 73.6051C143.064 73.0193 143.88 72.5283 144.764 72.1323C145.649 71.7364 146.551 71.3682 147.471 71.0278C148.392 70.6897 149.323 70.3447 150.264 69.9927C151.208 69.6431 152.098 69.2078 152.935 68.6868C153.097 68.6868 153.208 68.7435 153.268 68.8569C153.325 68.9704 153.354 69.084 153.354 69.1974ZM153.354 73.2682C153.075 73.7869 152.772 74.2848 152.445 74.7618C152.121 75.2365 151.761 75.666 151.366 76.0504L150.246 76.9986C149.524 77.339 148.773 77.6609 147.993 77.9643C147.214 78.2699 146.44 78.5814 145.673 78.8987C144.905 79.2159 144.148 79.5435 143.402 79.8816C142.658 80.222 141.96 80.5948 141.306 81C141.097 80.9097 140.929 80.8645 140.802 80.8645C140.673 80.8645 140.609 80.7291 140.609 80.4581C140.819 79.6662 141.174 78.982 141.675 78.4054C142.175 77.8288 142.769 77.3205 143.455 76.8805C144.142 76.4382 144.893 76.0538 145.708 75.7273C146.521 75.3985 147.353 75.0813 148.204 74.7757C149.053 74.4723 149.885 74.162 150.7 73.8448C151.516 73.5275 152.261 73.1652 152.935 72.7576C153.097 72.7576 153.208 72.8143 153.268 72.9278C153.325 73.0412 153.354 73.1548 153.354 73.2682Z" fill="#F5F9FA"/>
</svg>
