<svg width="197" height="157" viewBox="0 0 197 157" fill="none" xmlns="http://www.w3.org/2000/svg">
<path d="M19.2999 109.074V110.565H17.1999V122.136H15.5829C15.1769 121.31 14.6729 120.589 14.0709 119.973C13.4689 119.343 12.8249 118.804 12.1389 118.356L12.6639 116.97C13.1959 117.278 13.7489 117.698 14.3229 118.23C14.8969 118.762 15.3379 119.301 15.6459 119.847C15.6319 119.637 15.6179 119.441 15.6039 119.259C15.6039 119.077 15.5969 118.888 15.5829 118.692C15.5829 118.496 15.5829 118.286 15.5829 118.062V110.565H0.231895V109.074H19.2999ZM8.33789 120.225C7.3859 120.225 6.47589 120.001 5.60789 119.553C4.73989 119.105 3.92089 118.349 3.15089 117.285C2.39489 116.207 1.69489 114.73 1.05089 112.854L2.58389 112.35C3.08789 113.806 3.61289 115.003 4.15889 115.941C4.71889 116.865 5.34189 117.544 6.02789 117.978C6.71389 118.412 7.4979 118.629 8.37989 118.629C9.1499 118.629 9.7659 118.51 10.2279 118.272C10.7039 118.02 11.0469 117.684 11.2569 117.264C11.4669 116.844 11.5719 116.368 11.5719 115.836C11.5719 115.024 11.3479 114.366 10.8999 113.862C10.4659 113.358 9.91989 113.106 9.26189 113.106C8.79989 113.106 8.44989 113.211 8.21189 113.421C7.97389 113.617 7.85489 113.918 7.85489 114.324C7.85489 114.422 7.86889 114.555 7.89689 114.723C7.92489 114.891 7.9669 115.045 8.0229 115.185L6.4269 115.5C6.3289 115.206 6.2519 114.94 6.19589 114.702C6.1539 114.45 6.1329 114.212 6.1329 113.988C6.1329 113.47 6.27289 113.036 6.55289 112.686C6.84689 112.336 7.21789 112.077 7.66589 111.909C8.12789 111.727 8.61089 111.636 9.11489 111.636C9.9409 111.636 10.6549 111.825 11.2569 112.203C11.8589 112.567 12.3279 113.071 12.6639 113.715C12.9999 114.359 13.1679 115.108 13.1679 115.962C13.1679 116.718 12.9929 117.425 12.6429 118.083C12.2929 118.727 11.7609 119.245 11.0469 119.637C10.3329 120.029 9.4299 120.225 8.33789 120.225ZM7.66589 112.371C7.59589 111.923 7.38589 111.531 7.03589 111.195C6.69989 110.845 6.20289 110.6 5.54489 110.46L6.04889 109.515L6.99389 109.767C7.79189 110.075 8.36589 110.425 8.7159 110.817C9.0659 111.209 9.2689 111.706 9.32489 112.308L7.66589 112.371ZM24.9699 109.074V110.565H22.7649V122.136H21.1479V112.077C20.9099 111.531 20.6369 111.146 20.3289 110.922C20.0349 110.684 19.6849 110.565 19.2789 110.565H19.0689V109.074H19.2789C19.6709 109.074 20.0349 109.186 20.3709 109.41C20.7209 109.62 21.0079 109.949 21.2319 110.397C21.2179 110.327 21.1969 110.166 21.1689 109.914C21.1549 109.662 21.1479 109.445 21.1479 109.263V107.688H22.2609L22.7439 109.074H24.9699ZM30.5602 109.074V110.565H28.3552V122.136H26.7382V110.565H24.5542V109.074H26.4862C26.2622 108.808 26.0312 108.521 25.7932 108.213C25.5692 107.905 25.3662 107.604 25.1842 107.31C25.7442 106.484 26.3462 105.735 26.9902 105.063C27.6482 104.391 28.4112 103.859 29.2792 103.467C30.1612 103.075 31.2112 102.879 32.4292 102.879C33.3392 102.879 34.1932 102.97 34.9912 103.152C35.8032 103.32 36.5942 103.572 37.3642 103.908C38.1342 104.244 38.9112 104.643 39.6952 105.105C40.4792 105.567 41.2982 106.092 42.1522 106.68L41.3122 107.856C40.4162 107.268 39.6042 106.757 38.8762 106.323C38.1622 105.889 37.4762 105.532 36.8182 105.252C36.1602 104.972 35.4952 104.762 34.8232 104.622C34.1652 104.482 33.4442 104.412 32.6602 104.412C31.6942 104.412 30.8682 104.552 30.1822 104.832C29.4962 105.112 28.9012 105.49 28.3972 105.966C27.8932 106.442 27.4312 106.981 27.0112 107.583C27.1092 107.793 27.2562 108.024 27.4522 108.276C27.6482 108.528 27.8722 108.794 28.1242 109.074H30.5602ZM45.9033 109.074V110.565H43.6983V122.136H42.0813V115.101L42.2073 115.647C41.8993 115.199 41.5703 114.842 41.2203 114.576C40.8843 114.31 40.5133 114.177 40.1073 114.177C39.8973 114.177 39.6803 114.219 39.4563 114.303C39.2463 114.373 39.0643 114.513 38.9103 114.723C38.7703 114.933 38.7003 115.255 38.7003 115.689C38.7003 115.843 38.7003 115.983 38.7003 116.109C38.7143 116.221 38.7283 116.333 38.7423 116.445L37.3773 116.55C37.3213 115.976 37.1673 115.493 36.9153 115.101C36.6633 114.695 36.3553 114.387 35.9913 114.177C35.6273 113.967 35.2353 113.862 34.8153 113.862C34.4373 113.862 34.1153 113.939 33.8493 114.093C33.5833 114.233 33.3803 114.429 33.2403 114.681C33.1003 114.919 33.0303 115.192 33.0303 115.5C33.0303 116.06 33.2333 116.536 33.6393 116.928C34.0593 117.32 34.6473 117.649 35.4033 117.915L34.8363 119.469C34.1643 119.259 33.5623 118.972 33.0303 118.608C32.4983 118.244 32.0783 117.796 31.7703 117.264C31.4623 116.732 31.3083 116.116 31.3083 115.416C31.3083 114.786 31.4623 114.247 31.7703 113.799C32.0783 113.337 32.4913 112.98 33.0093 112.728C33.5273 112.476 34.0943 112.35 34.7103 112.35C35.4523 112.35 36.0893 112.49 36.6213 112.77C37.1533 113.036 37.6433 113.47 38.0913 114.072L37.7763 114.093C37.9163 113.631 38.1823 113.281 38.5743 113.043C38.9803 112.791 39.4003 112.665 39.8343 112.665C40.3383 112.665 40.7723 112.763 41.1363 112.959C41.5003 113.155 41.8993 113.435 42.3333 113.799L42.1443 114.114C42.1303 113.82 42.1163 113.526 42.1023 113.232C42.0883 112.938 42.0813 112.637 42.0813 112.329V110.565H30.1323V109.074H45.9033ZM63.5106 109.074V110.565H48.4326L48.0966 110.376C48.6846 110.516 49.2726 110.74 49.8606 111.048C50.4626 111.356 51.0156 111.692 51.5196 112.056C52.0376 112.406 52.4506 112.742 52.7586 113.064L52.8636 114.24C52.3596 114.464 51.8276 114.709 51.2676 114.975C50.7216 115.241 50.1896 115.507 49.6716 115.773C49.1676 116.039 48.7196 116.305 48.3276 116.571L48.0966 116.214C49.1886 116.438 50.1476 116.725 50.9736 117.075C51.7996 117.425 52.5416 117.845 53.1996 118.335C53.8576 118.825 54.4876 119.399 55.0896 120.057C55.0756 119.819 55.0616 119.574 55.0476 119.322C55.0476 119.07 55.0476 118.811 55.0476 118.545V111.426H55.3206C56.0906 111.426 56.8326 111.489 57.5466 111.615C58.2746 111.741 58.9466 111.951 59.5626 112.245C60.1926 112.539 60.7456 112.938 61.2216 113.442C61.5576 113.792 61.8236 114.191 62.0196 114.639C62.2296 115.073 62.3346 115.556 62.3346 116.088C62.3346 116.55 62.2366 116.991 62.0406 117.411C61.8586 117.817 61.5576 118.153 61.1376 118.419C60.7176 118.685 60.1576 118.818 59.4576 118.818C59.2476 118.818 59.0376 118.811 58.8276 118.797C58.6316 118.783 58.4356 118.755 58.2396 118.713L58.3446 117.222C58.4286 117.236 58.5336 117.25 58.6596 117.264C58.7856 117.264 58.9186 117.264 59.0586 117.264C59.7446 117.264 60.1856 117.131 60.3816 116.865C60.5916 116.599 60.6966 116.284 60.6966 115.92C60.6966 115.206 60.3326 114.576 59.6046 114.03C58.8906 113.484 57.9106 113.148 56.6646 113.022V122.136H55.0476C54.4736 121.352 53.8366 120.666 53.1366 120.078C52.4506 119.49 51.6456 119 50.7216 118.608C49.8116 118.202 48.7266 117.894 47.4666 117.684L46.7106 115.773C47.1446 115.479 47.5996 115.199 48.0756 114.933C48.5516 114.667 49.0346 114.408 49.5246 114.156C50.0286 113.904 50.5186 113.666 50.9946 113.442C50.4626 113.036 49.8466 112.679 49.1466 112.371C48.4606 112.049 47.6486 111.79 46.7106 111.594L47.3616 110.166L47.4036 110.565H45.4926V109.074H63.5106ZM84.499 109.074V110.565H82.294V122.136H80.677V115.101L80.803 115.647C80.495 115.199 80.166 114.842 79.816 114.576C79.48 114.31 79.109 114.177 78.703 114.177C78.493 114.177 78.276 114.219 78.052 114.303C77.842 114.373 77.66 114.513 77.506 114.723C77.366 114.933 77.296 115.255 77.296 115.689C77.296 115.843 77.296 115.983 77.296 116.109C77.31 116.221 77.324 116.333 77.338 116.445L75.973 116.55C75.917 115.976 75.763 115.493 75.511 115.101C75.259 114.695 74.951 114.387 74.587 114.177C74.223 113.967 73.831 113.862 73.411 113.862C73.033 113.862 72.711 113.939 72.445 114.093C72.179 114.233 71.976 114.429 71.836 114.681C71.696 114.919 71.626 115.192 71.626 115.5C71.626 116.06 71.829 116.536 72.235 116.928C72.655 117.32 73.243 117.649 73.999 117.915L73.432 119.469C72.76 119.259 72.158 118.972 71.626 118.608C71.094 118.244 70.674 117.796 70.366 117.264C70.058 116.732 69.904 116.116 69.904 115.416C69.904 114.786 70.058 114.247 70.366 113.799C70.674 113.337 71.087 112.98 71.605 112.728C72.123 112.476 72.69 112.35 73.306 112.35C74.048 112.35 74.685 112.49 75.217 112.77C75.749 113.036 76.239 113.47 76.687 114.072L76.372 114.093C76.512 113.631 76.778 113.281 77.17 113.043C77.576 112.791 77.996 112.665 78.43 112.665C78.934 112.665 79.368 112.763 79.732 112.959C80.096 113.155 80.495 113.435 80.929 113.799L80.74 114.114C80.726 113.82 80.712 113.526 80.698 113.232C80.684 112.938 80.677 112.637 80.677 112.329V110.565H68.728V109.074H84.499ZM90.0943 109.074V110.565H87.8893V122.136H86.2723V112.287C86.1043 111.811 85.8523 111.405 85.5163 111.069C85.1943 110.733 84.7743 110.565 84.2563 110.565H84.0883V109.074H84.4033C84.7393 109.074 85.0893 109.186 85.4533 109.41C85.8173 109.62 86.1113 109.949 86.3353 110.397C86.3213 110.327 86.3073 110.166 86.2933 109.914C86.2793 109.662 86.2723 109.445 86.2723 109.263V107.688H87.4063L87.8683 109.074H90.0943ZM91.0735 117.243V115.5H96.7225V117.243H91.0735ZM99.1125 117.243V115.5H104.762V117.243H99.1125ZM107.152 117.243V115.5H112.801V117.243H107.152ZM127.266 109.074V110.565H125.061V122.136H123.444V119.301L123.822 120.414C123.332 119.672 122.835 118.986 122.331 118.356C121.841 117.726 121.316 117.215 120.756 116.823C120.21 116.431 119.608 116.235 118.95 116.235C118.432 116.235 117.991 116.368 117.627 116.634C117.277 116.9 117.102 117.299 117.102 117.831C117.102 118.293 117.27 118.685 117.606 119.007C117.942 119.315 118.439 119.581 119.097 119.805L118.572 121.422C117.816 121.156 117.2 120.834 116.724 120.456C116.262 120.078 115.919 119.665 115.695 119.217C115.485 118.755 115.38 118.272 115.38 117.768C115.38 117.096 115.541 116.536 115.863 116.088C116.199 115.64 116.619 115.304 117.123 115.08C117.641 114.842 118.159 114.723 118.677 114.723C119.517 114.723 120.252 114.877 120.882 115.185C121.526 115.493 122.086 115.906 122.562 116.424C123.052 116.942 123.493 117.523 123.885 118.167L123.528 118.23C123.5 117.908 123.479 117.586 123.465 117.264C123.451 116.928 123.444 116.585 123.444 116.235V110.565H113.784V109.074H127.266ZM120.273 115.353C120.273 115.437 120.266 115.521 120.252 115.605C120.252 115.689 120.245 115.773 120.231 115.857L118.635 115.374C118.607 114.562 118.467 113.911 118.215 113.421C117.963 112.931 117.564 112.56 117.018 112.308C116.472 112.042 115.73 111.86 114.792 111.762L115.065 110.25L116.031 110.523C116.703 110.579 117.298 110.719 117.816 110.943C118.348 111.153 118.796 111.454 119.16 111.846C119.524 112.238 119.797 112.728 119.979 113.316C120.175 113.89 120.273 114.569 120.273 115.353ZM145.969 109.074V110.565H143.764V122.136H142.147V119.301L142.525 120.414C142.035 119.672 141.538 118.986 141.034 118.356C140.544 117.726 140.019 117.215 139.459 116.823C138.913 116.431 138.311 116.235 137.653 116.235C137.135 116.235 136.694 116.368 136.33 116.634C135.98 116.9 135.805 117.299 135.805 117.831C135.805 118.293 135.973 118.685 136.309 119.007C136.645 119.315 137.142 119.581 137.8 119.805L137.275 121.422C136.519 121.156 135.903 120.834 135.427 120.456C134.965 120.078 134.622 119.665 134.398 119.217C134.188 118.755 134.083 118.272 134.083 117.768C134.083 117.096 134.244 116.536 134.566 116.088C134.902 115.64 135.322 115.304 135.826 115.08C136.344 114.842 136.862 114.723 137.38 114.723C138.22 114.723 138.955 114.877 139.585 115.185C140.229 115.493 140.789 115.906 141.265 116.424C141.755 116.942 142.196 117.523 142.588 118.167L142.231 118.23C142.203 117.908 142.182 117.586 142.168 117.264C142.154 116.928 142.147 116.585 142.147 116.235V110.565H132.487V109.074H145.969ZM138.976 115.353C138.976 115.437 138.969 115.521 138.955 115.605C138.955 115.689 138.948 115.773 138.934 115.857L137.338 115.374C137.31 114.562 137.17 113.911 136.918 113.421C136.666 112.931 136.267 112.56 135.721 112.308C135.175 112.042 134.433 111.86 133.495 111.762L133.768 110.25L134.734 110.523C135.406 110.579 136.001 110.719 136.519 110.943C137.051 111.153 137.499 111.454 137.863 111.846C138.227 112.238 138.5 112.728 138.682 113.316C138.878 113.89 138.976 114.569 138.976 115.353ZM151.556 110.565H149.351V122.136H147.734V110.565H145.55V109.074H147.734C147.678 108.164 147.44 107.401 147.02 106.785C146.614 106.169 146.082 105.686 145.424 105.336C144.752 104.972 143.996 104.713 143.156 104.559C142.302 104.405 141.406 104.328 140.468 104.328C139.642 104.328 138.935 104.377 138.347 104.475C137.745 104.559 137.283 104.685 136.961 104.853C136.639 105.021 136.478 105.238 136.478 105.504C136.478 105.77 136.646 105.938 136.982 106.008C137.318 106.078 137.689 106.113 138.095 106.113H140.111C140.853 106.113 141.441 106.176 141.875 106.302C142.309 106.428 142.659 106.631 142.925 106.911C143.191 107.177 143.38 107.492 143.492 107.856C143.604 108.22 143.66 108.675 143.66 109.221H142.253C142.239 108.885 142.197 108.612 142.127 108.402C142.057 108.178 141.945 108.01 141.791 107.898C141.651 107.786 141.483 107.709 141.287 107.667C141.077 107.625 140.79 107.604 140.426 107.604H138.347C137.773 107.604 137.269 107.569 136.835 107.499C136.401 107.415 136.044 107.303 135.764 107.163C135.414 106.967 135.169 106.729 135.029 106.449C134.889 106.169 134.819 105.875 134.819 105.567C134.819 104.755 135.274 104.104 136.184 103.614C137.094 103.124 138.48 102.879 140.342 102.879C143.184 102.879 145.368 103.383 146.894 104.391C148.434 105.385 149.274 106.946 149.414 109.074H151.556V110.565ZM152.535 117.243V115.5H158.184V117.243H152.535ZM160.574 117.243V115.5H166.223V117.243H160.574ZM168.614 117.243V115.5H174.263V117.243H168.614ZM176.653 117.243V115.5H182.302V117.243H176.653ZM196.767 109.074V110.565H194.562V122.136H192.945V119.301L193.323 120.414C192.833 119.672 192.336 118.986 191.832 118.356C191.342 117.726 190.817 117.215 190.257 116.823C189.711 116.431 189.109 116.235 188.451 116.235C187.933 116.235 187.492 116.368 187.128 116.634C186.778 116.9 186.603 117.299 186.603 117.831C186.603 118.293 186.771 118.685 187.107 119.007C187.443 119.315 187.94 119.581 188.598 119.805L188.073 121.422C187.317 121.156 186.701 120.834 186.225 120.456C185.763 120.078 185.42 119.665 185.196 119.217C184.986 118.755 184.881 118.272 184.881 117.768C184.881 117.096 185.042 116.536 185.364 116.088C185.7 115.64 186.12 115.304 186.624 115.08C187.142 114.842 187.66 114.723 188.178 114.723C189.018 114.723 189.753 114.877 190.383 115.185C191.027 115.493 191.587 115.906 192.063 116.424C192.553 116.942 192.994 117.523 193.386 118.167L193.029 118.23C193.001 117.908 192.98 117.586 192.966 117.264C192.952 116.928 192.945 116.585 192.945 116.235V110.565H183.285V109.074H196.767ZM189.774 115.353C189.774 115.437 189.767 115.521 189.753 115.605C189.753 115.689 189.746 115.773 189.732 115.857L188.136 115.374C188.108 114.562 187.968 113.911 187.716 113.421C187.464 112.931 187.065 112.56 186.519 112.308C185.973 112.042 185.231 111.86 184.293 111.762L184.566 110.25L185.532 110.523C186.204 110.579 186.799 110.719 187.317 110.943C187.849 111.153 188.297 111.454 188.661 111.846C189.025 112.238 189.298 112.728 189.48 113.316C189.676 113.89 189.774 114.569 189.774 115.353Z" fill="#F5F9FA"/>
<path d="M41.1345 141.184V142.32H39.4545V151.136H38.2225V145.488L38.5905 146.496C38.2598 146.058 37.9718 145.722 37.7265 145.488C37.4918 145.253 37.2625 145.136 37.0385 145.136C36.8892 145.136 36.7505 145.178 36.6225 145.264C36.4945 145.349 36.3505 145.514 36.1905 145.76C36.0305 145.994 35.8172 146.357 35.5505 146.848C35.2625 147.37 35.0012 147.802 34.7665 148.144C34.5318 148.474 34.2812 148.72 34.0145 148.88C33.7585 149.029 33.4438 149.104 33.0705 149.104C32.7825 149.104 32.5052 149.045 32.2385 148.928C31.9825 148.81 31.7212 148.618 31.4545 148.352C31.1985 148.074 30.9212 147.701 30.6225 147.232L31.5985 146.64C31.8865 147.152 32.1265 147.488 32.3185 147.648C32.5105 147.808 32.7185 147.888 32.9425 147.888C33.1238 147.888 33.2945 147.834 33.4545 147.728C33.6252 147.61 33.8065 147.413 33.9985 147.136C34.2012 146.858 34.4305 146.48 34.6865 146L35.0545 145.472C35.3318 144.896 35.5985 144.501 35.8545 144.288C36.1105 144.064 36.3932 143.952 36.7025 143.952C37.0545 143.952 37.3692 144.053 37.6465 144.256C37.9345 144.448 38.2652 144.746 38.6385 145.152L38.3185 145.168C38.2758 144.922 38.2492 144.693 38.2385 144.48C38.2278 144.256 38.2225 144.032 38.2225 143.808V142.32H29.9025V141.184H41.1345ZM34.3985 146.8C34.2918 146.074 34.1798 145.498 34.0625 145.072C33.9558 144.645 33.7638 144.314 33.4865 144.08C33.2198 143.834 32.8572 143.653 32.3985 143.536C31.9398 143.408 31.3638 143.301 30.6705 143.216L30.9105 142L31.7745 142.32C32.3825 142.416 32.8892 142.538 33.2945 142.688C33.6998 142.837 34.0252 143.034 34.2705 143.28C34.5265 143.514 34.7185 143.808 34.8465 144.16C34.9745 144.512 35.0598 144.938 35.1025 145.44L34.3985 146.8ZM36.3927 155.392C36.1047 155.392 35.7901 155.328 35.4487 155.2C35.1074 155.082 34.8194 154.89 34.5847 154.624C34.3394 154.357 34.2167 154 34.2167 153.552C34.2167 153.008 34.4247 152.57 34.8407 152.24C35.2567 151.92 35.8381 151.76 36.5847 151.76C37.2461 151.76 37.8861 151.877 38.5047 152.112C39.1127 152.357 39.7367 152.693 40.3767 153.12C41.0061 153.546 41.6781 154.042 42.3928 154.608L41.6728 155.472C40.9581 154.874 40.3074 154.378 39.7207 153.984C39.1341 153.589 38.5794 153.29 38.0567 153.088C37.5341 152.885 37.0167 152.784 36.5047 152.784C36.1207 152.784 35.8327 152.858 35.6407 153.008C35.4487 153.157 35.3527 153.349 35.3527 153.584C35.3527 153.882 35.4594 154.09 35.6727 154.208C35.8754 154.336 36.1154 154.4 36.3927 154.4C36.7874 154.4 37.1074 154.314 37.3527 154.144C37.5874 153.984 37.7687 153.781 37.8967 153.536C38.0247 153.29 38.1101 153.034 38.1527 152.768C38.1954 152.512 38.2167 152.282 38.2167 152.08V151.008H39.4487V151.856C39.4487 152.154 39.4167 152.501 39.3527 152.896C39.2781 153.301 39.1394 153.69 38.9367 154.064C38.7234 154.448 38.4141 154.762 38.0087 155.008C37.6034 155.264 37.0647 155.392 36.3927 155.392ZM50.6648 141.184V142.32H48.9848V151.136H47.7528C47.4328 150.496 46.9901 149.909 46.4248 149.376C45.8701 148.832 45.2301 148.373 44.5048 148C43.7794 147.626 43.0061 147.376 42.1848 147.248L41.5608 145.712C42.5848 145.093 43.6408 144.533 44.7288 144.032C45.8274 143.53 46.9581 143.104 48.1208 142.752L47.7528 143.424V142.32H40.8087V141.184H50.6648ZM47.7528 143.552L48.0888 144C47.2781 144.266 46.4248 144.597 45.5288 144.992C44.6328 145.376 43.8061 145.802 43.0488 146.272C43.6248 146.4 44.2381 146.618 44.8888 146.928C45.5394 147.237 46.1421 147.626 46.6968 148.096C47.2514 148.565 47.6781 149.109 47.9768 149.728H47.8328C47.8114 149.482 47.7901 149.237 47.7688 148.992C47.7581 148.746 47.7528 148.453 47.7528 148.112V143.552ZM43.9288 151.232C43.6621 151.232 43.4328 151.146 43.2408 150.976C43.0594 150.805 42.9688 150.581 42.9688 150.304C42.9688 150.026 43.0594 149.797 43.2408 149.616C43.4328 149.434 43.6621 149.344 43.9288 149.344C44.1954 149.344 44.4194 149.434 44.6008 149.616C44.7928 149.797 44.8888 150.026 44.8888 150.304C44.8888 150.581 44.7928 150.805 44.6008 150.976C44.4194 151.146 44.1954 151.232 43.9288 151.232ZM54.916 141.184V142.32H53.236V151.136H52.004V143.632C51.876 143.269 51.684 142.96 51.428 142.704C51.1827 142.448 50.8627 142.32 50.468 142.32H50.34V141.184H50.58C50.836 141.184 51.1027 141.269 51.38 141.44C51.6573 141.6 51.8813 141.85 52.052 142.192C52.0413 142.138 52.0307 142.016 52.02 141.824C52.0093 141.632 52.004 141.466 52.004 141.328V140.128H52.868L53.22 141.184H54.916ZM68.7429 141.184V142.32H67.0629V151.136H65.8309C65.5109 150.496 65.0682 149.909 64.5029 149.376C63.9482 148.832 63.3082 148.373 62.5829 148C61.8575 147.626 61.0842 147.376 60.2629 147.248L59.6389 145.712C60.6629 145.093 61.7189 144.533 62.8069 144.032C63.9055 143.53 65.0362 143.104 66.1989 142.752L65.8309 143.424V142.32H58.8869V141.184H68.7429ZM65.8309 143.552L66.1669 144C65.3562 144.266 64.5029 144.597 63.6069 144.992C62.7109 145.376 61.8842 145.802 61.1269 146.272C61.7029 146.4 62.3162 146.618 62.9669 146.928C63.6175 147.237 64.2202 147.626 64.7749 148.096C65.3295 148.565 65.7562 149.109 66.0549 149.728H65.9109C65.8895 149.482 65.8682 149.237 65.8469 148.992C65.8362 148.746 65.8309 148.453 65.8309 148.112V143.552ZM72.9941 141.184V142.32H71.3141V151.136H70.0821V143.632C69.9541 143.269 69.7621 142.96 69.5061 142.704C69.2608 142.448 68.9408 142.32 68.5461 142.32H68.4181V141.184H68.6581C68.9141 141.184 69.1808 141.269 69.4581 141.44C69.7355 141.6 69.9595 141.85 70.1301 142.192C70.1195 142.138 70.1088 142.016 70.0981 141.824C70.0875 141.632 70.0821 141.466 70.0821 141.328V140.128H70.9461L71.2981 141.184H72.9941ZM85.9001 141.184V142.32H80.7001V143.312V143.568V151.136H79.4681C79.1588 150.506 78.7268 149.914 78.1721 149.36C77.6175 148.805 76.9828 148.341 76.2681 147.968C75.5641 147.584 74.8228 147.344 74.0441 147.248L73.4201 145.712C74.4548 145.114 75.4895 144.581 76.5241 144.112C77.5588 143.642 78.6575 143.226 79.8201 142.864L79.4681 143.536V142.32H72.6681V141.184H85.9001ZM79.4681 143.664L79.8041 144.128C79.2601 144.277 78.6948 144.474 78.1081 144.72C77.5321 144.965 76.9668 145.221 76.4121 145.488C75.8681 145.754 75.3668 146.016 74.9081 146.272C75.5055 146.389 76.1188 146.613 76.7481 146.944C77.3881 147.274 77.9695 147.68 78.4921 148.16C79.0255 148.629 79.4201 149.141 79.6761 149.696L79.5481 149.728C79.5268 149.482 79.5055 149.237 79.4841 148.992C79.4735 148.746 79.4681 148.453 79.4681 148.112V143.664ZM85.0041 146.528C85.0041 146.88 84.9348 147.216 84.7961 147.536C84.6575 147.845 84.4281 148.101 84.1081 148.304C83.7881 148.506 83.3615 148.608 82.8281 148.608C82.6575 148.608 82.4921 148.602 82.3321 148.592C82.1828 148.581 82.0335 148.56 81.8841 148.528L81.9801 147.376C82.0441 147.386 82.1188 147.397 82.2041 147.408C82.3001 147.408 82.4068 147.408 82.5241 147.408C83.0361 147.408 83.3668 147.312 83.5161 147.12C83.6761 146.917 83.7561 146.677 83.7561 146.4C83.7561 145.834 83.4788 145.354 82.9241 144.96C82.3801 144.554 81.5695 144.277 80.4921 144.128L80.5401 142.928C81.3615 143.013 82.1081 143.221 82.7801 143.552C83.4521 143.872 83.9908 144.288 84.3961 144.8C84.8015 145.301 85.0041 145.877 85.0041 146.528ZM90.1504 141.184V142.32H88.4704V151.136H87.2384V143.632C87.1104 143.269 86.9184 142.96 86.6624 142.704C86.417 142.448 86.097 142.32 85.7024 142.32H85.5744V141.184H85.8144C86.0704 141.184 86.337 141.269 86.6144 141.44C86.8917 141.6 87.1157 141.85 87.2864 142.192C87.2757 142.138 87.265 142.016 87.2544 141.824C87.2437 141.632 87.2384 141.466 87.2384 141.328V140.128H88.1024L88.4544 141.184H90.1504ZM99.6804 141.184V142.32H98.0004V151.136H96.7684C96.4484 150.496 96.0057 149.909 95.4404 149.376C94.8857 148.832 94.2457 148.373 93.5204 148C92.795 147.626 92.0217 147.376 91.2004 147.248L90.5764 145.712C91.6004 145.093 92.6564 144.533 93.7444 144.032C94.843 143.53 95.9737 143.104 97.1364 142.752L96.7684 143.424V142.32H89.8244V141.184H99.6804ZM96.7684 143.552L97.1044 144C96.2937 144.266 95.4404 144.597 94.5444 144.992C93.6484 145.376 92.8217 145.802 92.0644 146.272C92.6404 146.4 93.2537 146.618 93.9044 146.928C94.555 147.237 95.1577 147.626 95.7124 148.096C96.267 148.565 96.6937 149.109 96.9924 149.728H96.8484C96.827 149.482 96.8057 149.237 96.7844 148.992C96.7737 148.746 96.7684 148.453 96.7684 148.112V143.552ZM92.9444 151.232C92.6777 151.232 92.4484 151.146 92.2564 150.976C92.075 150.805 91.9844 150.581 91.9844 150.304C91.9844 150.026 92.075 149.797 92.2564 149.616C92.4484 149.434 92.6777 149.344 92.9444 149.344C93.211 149.344 93.435 149.434 93.6164 149.616C93.8084 149.797 93.9044 150.026 93.9044 150.304C93.9044 150.581 93.8084 150.805 93.6164 150.976C93.435 151.146 93.211 151.232 92.9444 151.232ZM103.932 141.184V142.32H102.252V151.136H101.02V143.632C100.892 143.269 100.7 142.96 100.444 142.704C100.198 142.448 99.8783 142.32 99.4836 142.32H99.3556V141.184H99.5956C99.8516 141.184 100.118 141.269 100.396 141.44C100.673 141.6 100.897 141.85 101.068 142.192C101.057 142.138 101.046 142.016 101.036 141.824C101.025 141.632 101.02 141.466 101.02 141.328V140.128H101.884L102.236 141.184H103.932ZM122.431 141.184V142.32L120.831 142.32V151.136H119.599C119.289 150.506 118.905 149.957 118.447 149.488C117.988 149.008 117.497 148.597 116.975 148.256L117.375 147.2C117.78 147.434 118.201 147.754 118.639 148.16C119.076 148.565 119.412 148.976 119.647 149.392C119.636 149.232 119.625 149.082 119.615 148.944C119.615 148.805 119.609 148.661 119.599 148.512C119.599 148.362 119.599 148.202 119.599 148.032V142.32H107.902V141.184L122.431 141.184ZM114.079 149.68C113.353 149.68 112.66 149.509 111.999 149.168C111.337 148.826 110.713 148.25 110.127 147.44C109.551 146.618 109.017 145.493 108.527 144.064L109.695 143.68C110.079 144.789 110.479 145.701 110.895 146.416C111.321 147.12 111.796 147.637 112.319 147.968C112.841 148.298 113.439 148.464 114.111 148.464C114.697 148.464 115.167 148.373 115.519 148.192C115.881 148 116.143 147.744 116.303 147.424C116.463 147.104 116.543 146.741 116.543 146.336C116.543 145.717 116.372 145.216 116.031 144.832C115.7 144.448 115.284 144.256 114.783 144.256C114.431 144.256 114.164 144.336 113.983 144.496C113.801 144.645 113.711 144.874 113.711 145.184C113.711 145.258 113.721 145.36 113.743 145.488C113.764 145.616 113.796 145.733 113.839 145.84L112.623 146.08C112.548 145.856 112.489 145.653 112.447 145.472C112.415 145.28 112.399 145.098 112.399 144.928C112.399 144.533 112.505 144.202 112.719 143.936C112.943 143.669 113.225 143.472 113.567 143.344C113.919 143.205 114.287 143.136 114.671 143.136C115.3 143.136 115.844 143.28 116.303 143.568C116.761 143.845 117.119 144.229 117.375 144.72C117.631 145.21 117.759 145.781 117.759 146.432C117.759 147.008 117.625 147.546 117.359 148.048C117.092 148.538 116.687 148.933 116.142 149.232C115.599 149.53 114.911 149.68 114.079 149.68ZM113.567 143.696C113.513 143.354 113.353 143.056 113.087 142.8C112.831 142.533 112.452 142.346 111.951 142.24L112.335 141.52L113.055 141.712C113.663 141.946 114.1 142.213 114.367 142.512C114.633 142.81 114.788 143.189 114.831 143.648L113.567 143.696ZM126.751 141.184V142.32H125.071V151.136H123.839V143.472C123.657 143.056 123.449 142.762 123.215 142.592C122.991 142.41 122.724 142.32 122.415 142.32H122.255V141.184H122.415C122.713 141.184 122.991 141.269 123.247 141.44C123.513 141.6 123.732 141.85 123.903 142.192C123.892 142.138 123.876 142.016 123.855 141.824C123.844 141.632 123.839 141.466 123.839 141.328V140.128H124.687L125.055 141.184H126.751ZM136.77 141.184V142.32H135.09V151.136H133.858C133.41 150.538 132.914 150.016 132.37 149.568C131.826 149.109 131.196 148.725 130.482 148.416C129.767 148.106 128.919 147.882 127.938 147.744L127.362 146.288C127.692 146.064 128.039 145.85 128.402 145.648C128.764 145.445 129.132 145.248 129.506 145.056C129.89 144.864 130.263 144.682 130.626 144.512C130.22 144.202 129.751 143.93 129.218 143.696C128.695 143.45 128.076 143.253 127.362 143.104L127.858 142.016L127.89 142.32H126.434V141.184H136.77ZM133.858 142.32H128.754L128.418 142.176C128.866 142.282 129.314 142.453 129.762 142.688C130.22 142.922 130.642 143.178 131.026 143.456C131.42 143.722 131.735 143.978 131.97 144.224L132.05 145.12C131.666 145.29 131.26 145.477 130.834 145.68C130.418 145.882 130.012 146.085 129.618 146.288C129.234 146.49 128.892 146.693 128.594 146.896L128.402 146.656C129.319 146.784 130.119 146.997 130.802 147.296C131.495 147.594 132.108 147.957 132.642 148.384C133.175 148.81 133.666 149.285 134.114 149.808L133.906 149.872C133.895 149.648 133.884 149.408 133.874 149.152C133.863 148.885 133.858 148.634 133.858 148.4V142.32ZM129.474 151.232C129.207 151.232 128.978 151.146 128.786 150.976C128.604 150.805 128.514 150.581 128.514 150.304C128.514 150.026 128.604 149.797 128.786 149.616C128.978 149.434 129.207 149.344 129.474 149.344C129.74 149.344 129.964 149.434 130.146 149.616C130.338 149.797 130.434 150.026 130.434 150.304C130.434 150.581 130.338 150.805 130.146 150.976C129.964 151.146 129.74 151.232 129.474 151.232ZM141.025 141.184V142.32H139.345V151.136H138.113V143.632C137.985 143.269 137.793 142.96 137.537 142.704C137.292 142.448 136.972 142.32 136.577 142.32H136.449V141.184H136.689C136.945 141.184 137.212 141.269 137.489 141.44C137.767 141.6 137.991 141.85 138.161 142.192C138.151 142.138 138.14 142.016 138.129 141.824C138.119 141.632 138.113 141.466 138.113 141.328V140.128H138.977L139.329 141.184H141.025ZM147.371 150.336C146.497 150.336 145.681 150.122 144.923 149.696C144.166 149.258 143.483 148.554 142.875 147.584C142.278 146.613 141.761 145.312 141.323 143.68L142.539 143.36C142.913 144.682 143.318 145.77 143.755 146.624C144.203 147.477 144.715 148.106 145.291 148.512C145.878 148.917 146.561 149.12 147.339 149.12C147.841 149.12 148.262 149.061 148.603 148.944C148.945 148.816 149.217 148.64 149.419 148.416C149.633 148.192 149.787 147.936 149.883 147.648C149.979 147.349 150.027 147.029 150.027 146.688C150.027 146.24 149.942 145.834 149.771 145.472C149.601 145.098 149.361 144.805 149.051 144.592C148.742 144.378 148.379 144.272 147.963 144.272C147.537 144.272 147.227 144.362 147.035 144.544C146.854 144.725 146.763 144.965 146.763 145.264C146.763 145.37 146.774 145.482 146.795 145.6C146.817 145.717 146.854 145.85 146.907 146L145.675 146.24C145.611 146.037 145.558 145.84 145.515 145.648C145.483 145.456 145.467 145.258 145.467 145.056C145.467 144.64 145.569 144.293 145.771 144.016C145.985 143.728 146.273 143.509 146.635 143.36C147.009 143.21 147.43 143.136 147.899 143.136C148.561 143.136 149.142 143.29 149.643 143.6C150.145 143.898 150.539 144.32 150.827 144.864C151.115 145.408 151.259 146.037 151.259 146.752C151.259 147.424 151.115 148.032 150.827 148.576C150.55 149.109 150.123 149.536 149.547 149.856C148.971 150.176 148.246 150.336 147.371 150.336ZM152.331 141.184V142.32H140.699V141.184H152.331ZM161.061 151.136C160.154 151.136 159.487 150.944 159.061 150.56C158.645 150.165 158.437 149.706 158.437 149.184C158.437 148.768 158.57 148.384 158.837 148.032C159.103 147.68 159.562 147.413 160.213 147.232L160.677 148.464C160.346 148.538 160.106 148.634 159.957 148.752C159.818 148.869 159.749 149.024 159.749 149.216C159.749 149.429 159.855 149.605 160.069 149.744C160.293 149.872 160.618 149.936 161.045 149.936C161.706 149.936 162.218 149.776 162.581 149.456C162.943 149.136 163.125 148.73 163.125 148.24C163.125 147.92 163.061 147.637 162.933 147.392C162.805 147.136 162.591 146.869 162.293 146.592C161.994 146.314 161.583 145.994 161.061 145.632C160.399 145.162 159.877 144.768 159.493 144.448C159.119 144.128 158.853 143.834 158.693 143.568C158.543 143.29 158.469 142.992 158.469 142.672C158.469 142.426 158.538 142.16 158.677 141.872C158.826 141.573 159.034 141.296 159.301 141.04L160.357 141.6C160.207 141.76 160.085 141.92 159.989 142.08C159.893 142.24 159.845 142.4 159.845 142.56C159.845 142.698 159.866 142.832 159.909 142.96C159.951 143.088 160.042 143.226 160.181 143.376C160.319 143.525 160.522 143.706 160.789 143.92C161.066 144.122 161.429 144.378 161.877 144.688C162.495 145.104 162.986 145.488 163.349 145.84C163.711 146.192 163.967 146.554 164.117 146.928C164.277 147.29 164.357 147.722 164.357 148.224C164.357 148.821 164.213 149.338 163.925 149.776C163.647 150.213 163.258 150.549 162.757 150.784C162.266 151.018 161.701 151.136 161.061 151.136Z" fill="#FFCA3A"/>
<path d="M131.506 25.2666C131.159 26.3717 130.353 27.1138 129.09 27.4927C129.09 28.1558 129.138 29.0241 129.232 30.0977C129.327 31.1712 129.438 32.3553 129.564 33.6499C129.722 34.9129 129.88 36.2391 130.038 37.6284C130.227 38.9862 130.401 40.2965 130.559 41.5596C130.716 42.791 130.843 43.9119 130.938 44.9224C131.064 45.9328 131.127 46.7222 131.127 47.2905V48.8535C131.127 50.2744 131.095 51.7427 131.032 53.2583C131.001 54.7739 130.906 56.3685 130.748 58.042C130.18 61.1995 129.596 63.5993 128.996 65.2412C128.396 66.8516 127.78 67.6567 127.148 67.6567C127.054 67.6567 126.991 67.6094 126.959 67.5146C127.148 66.3464 127.243 64.8781 127.243 63.1099C127.243 57.2368 126.959 51.4269 126.391 45.6802C125.854 39.9019 125.064 34.092 124.022 28.2505C123.896 27.6506 123.833 26.8612 123.833 25.8823C123.833 24.7772 123.896 23.6562 124.022 22.5195C124.149 21.3512 124.307 20.3092 124.496 19.3936C124.686 18.4463 124.907 17.6727 125.159 17.0728C125.412 16.4728 125.664 16.1729 125.917 16.1729C126.454 16.1729 126.959 17.1991 127.433 19.2515C128.696 21.9985 130.053 24.0036 131.506 25.2666Z" fill="white"/>
<path d="M101.076 57.6157C102.402 57.3947 103.65 57.0474 104.818 56.5737C105.986 56.0685 107.012 55.4844 107.896 54.8213C108.781 54.1266 109.475 53.353 109.98 52.5005C110.486 51.6164 110.738 50.6691 110.738 49.6587C110.738 48.3641 110.565 46.7853 110.217 44.9224C109.902 43.0278 109.475 40.8965 108.938 38.5283C107.96 34.013 107.47 30.2713 107.47 27.3032C107.47 26.9559 107.502 26.356 107.565 25.5034C107.66 24.6509 107.786 23.7826 107.944 22.8984C108.102 22.0143 108.291 21.2407 108.512 20.5776C108.765 19.883 109.033 19.5356 109.317 19.5356C109.381 19.5356 109.602 19.8356 109.98 20.4355C110.359 21.0355 110.77 21.7459 111.212 22.5669C111.654 23.3879 112.049 24.2246 112.396 25.0771C112.743 25.8981 112.917 26.5454 112.917 27.019C112.917 27.2716 112.838 27.6506 112.68 28.1558C112.554 28.6294 112.396 29.1346 112.207 29.6714C112.049 30.1766 111.891 30.6502 111.733 31.0923C111.607 31.5028 111.543 31.7554 111.543 31.8501C111.701 32.6711 111.891 33.8078 112.112 35.2603C112.364 36.7127 112.664 38.481 113.012 40.5649C113.77 46.7853 114.148 49.9429 114.148 50.0376C114.148 51.4901 114.038 52.832 113.817 54.0635C113.596 55.2949 113.296 56.4159 112.917 57.4263C112.538 58.4367 112.112 59.3366 111.638 60.126C111.165 60.9154 110.675 61.5627 110.17 62.0679C109.349 62.9204 108.512 63.6466 107.66 64.2466C106.807 64.8465 105.97 65.3517 105.149 65.7622C104.36 66.1727 103.602 66.4884 102.876 66.7095C102.181 66.9305 101.581 67.0726 101.076 67.1357C100.382 66.7884 99.8289 66.1727 99.4185 65.2886C99.008 64.4045 98.8027 63.4572 98.8027 62.4468C98.8027 61.5942 98.9764 60.7417 99.3237 59.8892C99.6711 59.005 100.255 58.2472 101.076 57.6157Z" fill="white"/>
<path d="M98.4487 12.8828H98.354C98.2593 12.7881 98.1803 12.5355 98.1172 12.125C98.0856 11.7461 98.0382 11.3356 97.9751 10.8936C97.9435 10.4831 97.9119 10.1042 97.8804 9.75684C97.8488 9.40951 97.8172 9.20426 97.7856 9.14111C97.533 8.69906 97.0752 8.02018 96.4121 7.10449C95.749 6.15723 94.8649 5.06787 93.7598 3.83643C93.8229 3.83643 94.1229 2.95231 94.6597 1.18408C94.7228 0.836751 94.9438 0.442057 95.3228 0C95.6385 0.28418 96.2542 0.742025 97.1699 1.37354C98.1172 2.00505 99.1276 2.65234 100.201 3.31543C101.275 3.94694 102.285 4.5153 103.232 5.02051C104.18 5.49414 104.843 5.73096 105.222 5.73096C108.095 5.73096 109.595 5.69938 109.721 5.63623C111.237 5.38363 112.437 5.17839 113.321 5.02051C114.236 4.86263 114.821 4.75212 115.073 4.68896C116.052 4.46794 116.873 4.24691 117.536 4.02588C118.199 3.77327 118.783 3.4891 119.289 3.17334C119.825 2.82601 120.315 2.43132 120.757 1.98926C121.23 1.51562 121.751 0.91569 122.32 0.189453H122.746C122.809 0.378906 122.841 0.505208 122.841 0.568359C122.841 0.820964 122.778 1.15251 122.651 1.56299C122.557 1.94189 122.383 2.36816 122.13 2.8418C121.909 3.31543 121.594 3.82064 121.183 4.35742C120.773 4.89421 120.283 5.4152 119.715 5.92041C116.684 8.60433 111.868 9.94629 105.269 9.94629C104.922 9.94629 104.59 9.9305 104.274 9.89893C103.959 9.83577 103.611 9.77262 103.232 9.70947C102.885 9.61475 102.475 9.52002 102.001 9.42529C101.527 9.33057 100.975 9.23584 100.343 9.14111C100.28 9.14111 100.154 9.33057 99.9644 9.70947C99.8065 10.0884 99.617 10.5146 99.396 10.9883C99.2065 11.4619 99.0171 11.8882 98.8276 12.2671C98.6382 12.6776 98.5119 12.8828 98.4487 12.8828Z" fill="white"/>
<path d="M91.0376 65.0044C90.8797 64.9412 90.7376 64.8939 90.6113 64.8623C90.485 64.8307 90.3903 64.8149 90.3271 64.8149C90.1693 64.8149 90.0745 64.9097 90.043 65.0991C90.043 65.2886 89.964 65.778 89.8062 66.5674L89.6167 67.5146C89.4904 68.1462 89.2536 68.6672 88.9062 69.0776C88.5905 69.4881 88.1484 69.6934 87.5801 69.6934C84.6751 69.6934 82.828 68.2251 82.0386 65.2886C81.9123 64.3729 81.786 63.4414 81.6597 62.4941C81.5649 61.5469 81.4702 60.5996 81.3755 59.6523C81.0913 59.2734 80.2388 59.084 78.8179 59.084C76.134 59.084 73.8132 60.4417 71.8555 63.1572C71.6029 63.5677 71.4766 64.6413 71.4766 66.3779C71.4766 69.7249 71.6187 73.1667 71.9028 76.7031C72.187 80.2712 72.6291 83.9655 73.229 87.7861C73.2922 88.2282 73.3395 88.6702 73.3711 89.1123C73.4027 89.5859 73.4185 90.0596 73.4185 90.5332C73.4185 90.7858 73.3869 91.3542 73.3237 92.2383C73.2606 93.154 73.1659 94.1012 73.0396 95.0801C72.9132 96.0905 72.7712 96.9746 72.6133 97.7324C72.4554 98.5218 72.266 98.9165 72.0449 98.9165C71.8239 98.9165 71.5397 97.464 71.1924 94.5591L69.6294 81.6763C69.2821 78.7082 69.0137 76.0243 68.8242 73.6245C68.6348 71.2563 68.54 69.1566 68.54 67.3252C68.54 64.7676 68.6821 62.5573 68.9663 60.6943C69.2821 58.7998 69.7557 57.1737 70.3872 55.8159C71.0503 54.4582 71.887 53.353 72.8975 52.5005C73.9395 51.6164 75.2025 50.9375 76.6865 50.4639C77.318 50.2744 77.9338 50.1323 78.5337 50.0376C79.1336 49.9113 79.7493 49.8481 80.3809 49.8481C81.3597 49.8481 82.4648 50.0218 83.6963 50.3691C84.6436 49.6745 85.7329 49.1219 86.9644 48.7114C86.9644 49.6903 87.3906 51.0796 88.2432 52.8794C90.6745 55.4054 94.3214 56.9842 99.1841 57.6157C99.4051 57.6157 99.6103 57.7578 99.7998 58.042C99.9893 58.3262 100.163 58.7051 100.321 59.1787C100.479 59.6208 100.605 60.1418 100.7 60.7417C100.794 61.3416 100.842 61.9416 100.842 62.5415C100.842 62.9204 100.81 63.3783 100.747 63.915C100.684 64.4202 100.573 64.9255 100.416 65.4307C100.258 65.9043 100.052 66.3148 99.7998 66.6621C99.5472 66.9779 99.2314 67.1357 98.8525 67.1357C95.7266 67.1357 93.1216 66.4253 91.0376 65.0044Z" fill="white"/>
<path d="M87.4619 20.2949C87.4619 20.2318 87.4461 20.2002 87.4146 20.2002C87.4146 20.1686 87.4146 20.137 87.4146 20.1055V20.0107C87.383 20.0107 87.3514 20.4686 87.3198 21.3843C87.2882 22.2684 87.2409 23.7209 87.1777 25.7417C87.083 28.7729 85.741 30.2886 83.1519 30.2886C81.3836 30.2886 80.0417 29.3571 79.126 27.4941L78.4629 28.5361C77.6104 29.8939 76.4105 30.5728 74.8633 30.5728C74.2318 30.5728 73.7108 30.3833 73.3003 30.0044C72.9214 29.5939 72.6056 29.0887 72.353 28.4888C72.132 27.8573 71.9741 27.1784 71.8794 26.4521C71.7847 25.6943 71.7373 24.9839 71.7373 24.3208C71.7373 23.5314 71.7847 22.7736 71.8794 22.0474C71.9741 21.2896 72.1004 20.6107 72.2583 20.0107C72.4162 19.4108 72.5898 18.9056 72.7793 18.4951C72.9688 18.0846 73.1424 17.8162 73.3003 17.6899H73.7739C73.9002 17.8478 73.9634 18.1951 73.9634 18.7319C73.9634 18.953 73.9318 19.2845 73.8687 19.7266C73.8371 20.137 73.7897 20.5791 73.7266 21.0527C73.695 21.4948 73.6634 21.9211 73.6318 22.3315C73.6003 22.742 73.5845 23.0578 73.5845 23.2788C73.5845 25.1733 74.2318 26.1206 75.5264 26.1206C76.6315 26.1206 77.4525 25.9312 77.9893 25.5522C78.5576 25.1418 78.8418 24.6208 78.8418 23.9893C78.8418 23.8945 78.8102 23.7209 78.7471 23.4683C78.7155 23.2157 78.6681 22.9315 78.605 22.6157C78.5418 22.2684 78.4787 21.9368 78.4155 21.6211C78.384 21.2738 78.3682 20.9738 78.3682 20.7212C78.3682 20.1844 78.4155 19.6792 78.5103 19.2056C78.6366 18.7004 78.7629 18.2583 78.8892 17.8794C79.047 17.5005 79.1891 17.2005 79.3154 16.9795C79.4417 16.7269 79.5365 16.6006 79.5996 16.6006C79.6943 16.6006 79.7891 16.6953 79.8838 16.8848C80.0101 17.0426 80.1048 17.3426 80.168 17.7847C80.2311 18.2267 80.2785 18.8267 80.3101 19.5845C80.3732 20.3107 80.4048 21.258 80.4048 22.4263C80.4048 23.3104 80.7205 24.0998 81.3521 24.7944C81.9836 25.4891 83.0098 25.8364 84.4307 25.8364C85.2201 25.8364 85.6779 25.6312 85.8042 25.2207C85.741 24.9681 85.7095 24.7786 85.7095 24.6523V24.4155C85.7095 23.8787 85.6147 23.3577 85.4253 22.8525C85.2674 22.3158 85.0938 21.8421 84.9043 21.4316C84.6833 20.958 84.4307 20.516 84.1465 20.1055C84.1465 19.9792 84.1938 19.7581 84.2886 19.4424C84.3517 19.1898 84.4465 18.8267 84.5728 18.353C84.6991 17.8794 84.8569 17.2321 85.0464 16.4111C85.078 16.1901 85.2674 15.9059 85.6147 15.5586H85.8989C86.0252 15.9059 86.1673 16.3164 86.3252 16.79C86.4831 17.2005 86.641 17.7057 86.7988 18.3057C86.9883 18.9056 87.2093 19.5687 87.4619 20.2949Z" fill="white"/>
<path d="M68.9204 12.8828H68.8257C68.731 12.7881 68.652 12.5355 68.5889 12.125C68.5573 11.7461 68.5099 11.3356 68.4468 10.8936C68.4152 10.4831 68.3836 10.1042 68.3521 9.75684C68.3205 9.40951 68.2889 9.20426 68.2573 9.14111C68.0047 8.69906 67.5469 8.02018 66.8838 7.10449C66.2207 6.15723 65.3366 5.06787 64.2314 3.83643C64.2946 3.83643 64.5946 2.95231 65.1313 1.18408C65.1945 0.836751 65.4155 0.442057 65.7944 0C66.1102 0.28418 66.7259 0.742025 67.6416 1.37354C68.5889 2.00505 69.5993 2.65234 70.6729 3.31543C71.7464 3.94694 72.7568 4.5153 73.7041 5.02051C74.6514 5.49414 75.3145 5.73096 75.6934 5.73096C78.5667 5.73096 80.0666 5.69938 80.1929 5.63623C81.7085 5.38363 82.9084 5.17839 83.7925 5.02051C84.7082 4.86263 85.2923 4.75212 85.5449 4.68896C86.5238 4.46794 87.3447 4.24691 88.0078 4.02588C88.6709 3.77327 89.255 3.4891 89.7603 3.17334C90.297 2.82601 90.7865 2.43132 91.2285 1.98926C91.7021 1.51562 92.2231 0.91569 92.7915 0.189453H93.2178C93.2809 0.378906 93.3125 0.505208 93.3125 0.568359C93.3125 0.820964 93.2493 1.15251 93.123 1.56299C93.0283 1.94189 92.8547 2.36816 92.6021 2.8418C92.381 3.31543 92.0653 3.82064 91.6548 4.35742C91.2443 4.89421 90.7549 5.4152 90.1865 5.92041C87.1553 8.60433 82.34 9.94629 75.7407 9.94629C75.3934 9.94629 75.0618 9.9305 74.7461 9.89893C74.4303 9.83577 74.083 9.77262 73.7041 9.70947C73.3568 9.61475 72.9463 9.52002 72.4727 9.42529C71.999 9.33057 71.4465 9.23584 70.8149 9.14111C70.7518 9.14111 70.6255 9.33057 70.436 9.70947C70.2782 10.0884 70.0887 10.5146 69.8677 10.9883C69.6782 11.4619 69.4888 11.8882 69.2993 12.2671C69.1099 12.6776 68.9836 12.8828 68.9204 12.8828Z" fill="white"/>
</svg>
