<svg width="379" height="153" viewBox="0 0 379 153" fill="none" xmlns="http://www.w3.org/2000/svg">
<path d="M6.67 15.542L5.518 17.522C3.376 16.838 1.81 14.912 1.81 11.798C1.81 9.872 2.404 7.478 3.754 4.922H6.904V6.884H5.608C4.96 8.108 4.294 9.818 4.294 11.816C4.294 13.778 5.14 14.912 6.67 15.542ZM9.77711 15.02C7.85111 15.02 6.78911 13.85 6.35711 12.698L8.24711 11.546C8.53511 12.194 8.89511 12.824 9.75911 12.824C10.5511 12.824 10.9651 12.23 10.9651 11.492C10.9651 10.16 10.1371 9.188 9.25511 8.288L8.57111 7.586V6.884H6.17711V4.922H19.4431V6.884H17.6611V17H15.1231V12.608C15.1231 12.212 14.8891 11.96 14.5111 11.96C13.8451 11.96 13.3951 12.77 12.6751 13.562C11.8471 14.48 10.8031 15.02 9.77711 15.02ZM15.1771 9.692C15.1411 9.278 15.1231 8.36 15.1231 8.09V6.884H11.1811V6.956L11.6851 7.568C12.2971 8.324 12.6391 8.972 12.8011 9.584C12.8731 9.854 12.9091 10.124 12.9271 10.376C13.3051 10.034 13.8451 9.566 14.4751 9.566C14.7811 9.566 14.9611 9.602 15.1771 9.692ZM21.5895 9.638C21.8955 12.392 23.3895 14.588 25.6575 14.588C26.8815 14.588 27.4215 13.976 27.4215 13.292C27.4215 12.95 27.3135 12.788 27.2415 12.68L25.7475 12.5C24.1275 12.302 23.4795 11.582 23.4795 10.466C23.4795 8.954 24.5775 7.712 25.6215 6.884H18.7455V4.922H35.5035V6.884H29.3475C29.6895 7.838 30.7515 8.774 32.8575 8.774H33.4515L34.3155 10.646C33.6495 11.834 33.3615 13.382 33.3615 14.876V17.252H30.8775V14.696C30.8775 13.364 31.1115 11.888 31.7775 10.88C29.3835 10.61 28.0515 9.242 27.5295 8.054C26.5755 8.774 26.1435 9.458 26.1435 9.98C26.1435 10.214 26.2515 10.412 26.8455 10.484L28.8075 10.718C29.4195 11.33 29.9235 12.158 29.9235 13.238C29.9235 14.966 28.5015 16.838 25.6935 16.838C22.2015 16.838 19.8255 13.94 19.3035 10.466L21.5895 9.638ZM44.0827 17H41.5627V14.282C41.5627 12.644 41.8867 11.492 42.1747 10.844C41.1667 11.492 39.6907 13.004 38.8627 14.39L36.4867 13.526V6.884H34.7767V4.922H46.0087V6.884H39.0067V10.646C39.8347 9.674 41.4007 8.576 42.9127 8.036L44.8207 9.152C44.2627 10.61 44.0827 12.626 44.0827 14.264V17ZM47.1964 3.266V3.086H49.6084V4.922H51.4084V6.884H49.6084V17H47.0884V8.99C47.0884 7.226 46.4944 6.884 45.3604 6.884H45.2884V4.922H46.0264C46.8544 4.922 47.2864 5.282 47.5024 5.552H47.6284C47.3764 4.886 47.1964 4.112 47.1964 3.266ZM74.7018 3.266V3.086H77.1138V4.922H78.9138V6.884H77.1138V17H74.5938V8.99C74.5938 7.226 73.9998 6.884 72.8658 6.884H71.7138V15.128L72.5958 15.65L70.9938 17.288L66.7098 14.786C65.8998 15.542 64.7298 15.974 63.3078 15.974C59.6718 15.974 57.4758 13.04 56.4318 9.008L58.6818 7.928C59.4018 11.258 60.9138 13.724 63.2898 13.724C64.8378 13.724 65.6658 12.734 65.6658 11.312C65.6658 10.34 65.1798 9.728 64.4778 9.728C63.9738 9.728 63.6678 10.052 63.6678 10.484C63.6678 10.862 63.8838 11.168 64.3518 11.348L62.7318 12.59C61.7058 12.266 61.1478 11.294 61.1478 10.268C61.1478 8.738 62.4618 7.46 64.2798 7.46C66.5298 7.46 68.0958 9.116 68.0958 11.33C68.0958 11.906 68.0238 12.428 67.8798 12.914L69.4098 13.814L69.4638 13.778C69.3198 13.328 69.2478 11.978 69.2478 10.988V6.884H55.7298V4.922H73.5318C74.3598 4.922 74.7918 5.282 75.0078 5.552H75.1338C74.8818 4.886 74.7018 4.112 74.7018 3.266ZM79.9767 17.594C79.9767 16.73 80.5887 16.208 81.3627 16.208C82.1187 16.208 82.7127 16.73 82.7127 17.594C82.7127 18.44 82.1187 18.998 81.3627 18.998C80.5887 18.998 79.9767 18.44 79.9767 17.594ZM81.9747 6.884V6.956L83.9727 8.63V10.322L81.9027 11.888L85.4847 13.868H85.5567C85.4307 12.968 85.3407 11.348 85.3407 10.358V6.884H81.9747ZM87.0867 17.288L79.4547 13.04V11.042L81.6147 9.404L79.4547 7.586V6.884H78.1947V4.922H89.6067V6.884H87.8067V15.164L88.6527 15.65L87.0867 17.288ZM90.7902 3.266V3.086H93.2022V4.922H95.0022V6.884H93.2022V17H90.6822V8.99C90.6822 7.226 90.0882 6.884 88.9542 6.884H88.8822V4.922H89.6202C90.4482 4.922 90.8802 5.282 91.0962 5.552H91.2222C90.9702 4.886 90.7902 4.112 90.7902 3.266ZM101.623 13.148C100.651 12.77 99.9667 11.78 99.9667 10.556C99.9667 8.9 101.281 7.73 103.081 7.73C105.529 7.73 106.915 9.512 106.915 11.78C106.915 14.66 104.935 16.586 102.019 16.586C98.2027 16.586 96.0967 13.436 95.1607 9.044L97.4467 8.036C98.0587 11.6 99.4987 14.336 102.001 14.336C103.603 14.336 104.467 13.148 104.467 11.726C104.467 10.718 104.053 9.98 103.279 9.98C102.829 9.98 102.451 10.286 102.451 10.754C102.451 11.15 102.721 11.528 103.171 11.672L101.623 13.148ZM107.977 4.922V6.884H94.2787V4.922H107.977ZM111.859 6.362C111.283 6.362 110.815 6.722 110.797 7.442C110.797 8.126 111.283 8.63 111.787 8.63C112.345 8.63 112.849 8.27 112.849 7.55C112.849 6.866 112.363 6.362 111.859 6.362ZM111.895 10.34C110.095 10.34 108.637 9.386 108.637 7.622C108.637 5.894 110.041 4.652 111.751 4.652C113.551 4.652 115.009 5.606 115.009 7.37C115.009 9.098 113.605 10.34 111.895 10.34ZM111.859 13.112C111.283 13.112 110.815 13.472 110.797 14.192C110.797 14.876 111.283 15.38 111.787 15.38C112.345 15.38 112.849 15.02 112.849 14.3C112.849 13.616 112.363 13.112 111.859 13.112ZM111.895 17.09C110.095 17.09 108.637 16.136 108.637 14.372C108.637 12.644 110.041 11.402 111.751 11.402C113.551 11.402 115.009 12.356 115.009 14.12C115.009 15.848 113.605 17.09 111.895 17.09Z" fill="#FFCA3A"/>
<path d="M132.666 3.446C131.406 2.33 129.444 1.304 127.23 1.304C125.25 1.304 124.26 2.6 124.26 4.094V5.444H126.42V6.596H124.26V17H122.946V6.596H120.786V5.444H122.946V3.932C122.946 1.916 124.476 0.079999 127.212 0.079999C129.966 0.079999 132.288 1.448 133.458 2.51L132.666 3.446ZM134.87 13.868C135.644 13.544 136.31 12.716 136.31 11.726C136.31 10.466 135.338 9.512 133.538 9.476V15.794L134.276 16.388L133.25 17.18L126.986 12.014V10.862C128.498 9.566 130.316 8.594 132.242 8.324V6.596H125.708V5.444H138.866V6.596H133.538V8.252C136.148 8.306 137.606 9.98 137.606 11.744C137.606 13.148 136.814 14.264 135.788 14.822L134.87 13.868ZM128.3 11.474L132.296 14.84H132.368C132.26 13.544 132.242 12.356 132.242 11.222V9.584C130.73 9.8 129.308 10.646 128.3 11.474ZM140.998 6.596C141.304 7.244 142.564 7.424 143.572 7.91C143.95 7.82 144.364 7.766 144.724 7.766C146.56 7.766 148.036 9.008 148.036 10.916C148.036 13.202 146.416 14.498 143.14 14.642V14.714C143.608 14.84 144.346 15.146 145.588 15.794L148.414 17.27L147.55 18.242C141.88 15.128 141.25 14.93 139.9 14.786V13.652H141.988C145.228 13.652 146.74 12.644 146.74 10.916C146.74 9.656 145.858 9.008 144.742 8.936C144.85 9.17 144.904 9.422 144.904 9.728C144.904 11.114 143.752 12.446 142.06 12.446C140.656 12.446 139.882 11.6 139.882 10.43V6.596H138.154V5.444H149.584V6.596H140.998ZM143.68 9.71C143.68 8.63 141.988 8.774 141.142 8.054V10.412C141.142 10.934 141.412 11.312 142.078 11.312C143.032 11.312 143.68 10.52 143.68 9.71ZM142.884 21.734C144.108 21.734 144.72 20.672 144.756 19.268V19.214C144.144 18.872 143.496 18.656 142.848 18.656C141.768 18.656 141.192 19.322 141.192 20.222C141.192 21.104 141.894 21.734 142.884 21.734ZM148.122 22.364C147.402 21.5 146.646 20.654 145.854 20.006C145.656 21.644 144.612 22.814 142.866 22.814C141.048 22.814 139.932 21.68 139.932 20.222C139.932 18.62 141.138 17.558 142.758 17.558C145.296 17.558 147.42 19.754 149.058 21.662L148.122 22.364ZM172.296 4.184V3.662H173.592V5.444H175.752V6.596H173.592V17H172.278V8.09C172.278 7.064 171.792 6.596 170.838 6.596H168.696V15.938L169.38 16.424L168.39 17.234L164.232 14.156C163.494 14.876 162.45 15.326 161.172 15.326C157.626 15.326 155.682 12.428 154.89 8.45L156.096 7.91C156.762 11.42 158.274 14.156 161.172 14.156C162.99 14.156 164.052 12.878 164.052 11.222C164.052 9.764 163.332 8.954 162.252 8.954C161.406 8.954 160.848 9.44 160.848 10.322C160.848 10.808 161.1 11.294 161.622 11.582L160.668 12.284C159.93 11.888 159.516 11.078 159.516 10.232C159.516 8.846 160.506 7.712 162.216 7.712C164.07 7.712 165.366 9.206 165.366 11.24C165.366 11.942 165.204 12.608 164.934 13.166L167.418 15.056L167.49 15.038C167.4 13.832 167.382 12.608 167.382 11.456V6.596H154.044V5.444H171.054C171.954 5.444 172.314 5.876 172.458 6.074H172.548C172.494 5.93 172.296 5.21 172.296 4.184ZM177.138 17.126C177.138 16.604 177.498 16.244 178.002 16.244C178.506 16.244 178.866 16.604 178.866 17.126C178.866 17.648 178.506 18.008 178.002 18.008C177.498 18.008 177.138 17.648 177.138 17.126ZM178.128 6.596V6.668L180.414 9.08V10.088L177.714 12.176L182.52 15.182H182.592C182.502 13.886 182.43 12.77 182.43 11.618V6.596H178.128ZM183.564 17.27L176.508 12.878V11.546L179.136 9.53L176.706 6.956V6.596H175.05V5.444H185.904V6.596H183.744V15.92L184.464 16.37L183.564 17.27ZM187.371 4.184V3.662H188.667V5.444H190.827V6.596H188.667V17H187.353V8.09C187.353 7.064 186.867 6.596 185.913 6.596H185.193V5.444H186.129C187.029 5.444 187.389 5.876 187.533 6.074H187.623C187.569 5.93 187.371 5.21 187.371 4.184ZM197.153 12.5C196.433 12.068 195.965 11.276 195.965 10.304C195.965 8.864 196.955 7.766 198.647 7.766C200.699 7.766 201.797 9.458 201.797 11.51C201.797 14.084 200.051 15.884 197.513 15.884C193.931 15.884 192.077 12.662 191.303 8.612L192.527 8.072C193.175 11.636 194.597 14.714 197.513 14.714C199.349 14.714 200.483 13.256 200.483 11.492C200.483 9.998 199.889 8.99 198.683 8.99C197.855 8.99 197.279 9.494 197.279 10.376C197.279 10.952 197.549 11.438 198.053 11.726L197.153 12.5ZM203.093 5.444V6.596H190.115V5.444H203.093ZM225.804 4.184V3.662H227.1V5.444H229.26V6.596H227.1V17H225.786V8.09C225.786 7.064 225.3 6.596 224.346 6.596H222.204V15.938L222.888 16.424L221.898 17.234L217.74 14.156C217.002 14.876 215.958 15.326 214.68 15.326C211.134 15.326 209.19 12.428 208.398 8.45L209.604 7.91C210.27 11.42 211.782 14.156 214.68 14.156C216.498 14.156 217.56 12.878 217.56 11.222C217.56 9.764 216.84 8.954 215.76 8.954C214.914 8.954 214.356 9.44 214.356 10.322C214.356 10.808 214.608 11.294 215.13 11.582L214.176 12.284C213.438 11.888 213.024 11.078 213.024 10.232C213.024 8.846 214.014 7.712 215.724 7.712C217.578 7.712 218.874 9.206 218.874 11.24C218.874 11.942 218.712 12.608 218.442 13.166L220.926 15.056L220.998 15.038C220.908 13.832 220.89 12.608 220.89 11.456V6.596H207.552V5.444H224.562C225.462 5.444 225.822 5.876 225.966 6.074H226.056C226.002 5.93 225.804 5.21 225.804 4.184ZM233.598 16.172L232.932 17.234C230.934 16.46 229.872 14.354 229.872 11.726C229.872 9.854 230.466 7.928 231.258 6.596H228.558V5.444H234.156V6.596H232.752C231.798 7.82 231.186 9.836 231.186 11.726C231.186 13.85 231.942 15.416 233.598 16.172ZM236.289 6.596C236.595 7.244 237.855 7.424 238.863 7.91C239.241 7.82 239.655 7.766 240.015 7.766C241.851 7.766 243.327 9.008 243.327 10.916C243.327 13.202 241.707 14.498 238.431 14.642V14.714C238.899 14.84 239.637 15.146 240.879 15.794L243.705 17.27L242.841 18.242C237.171 15.128 236.541 14.93 235.191 14.786V13.652H237.279C240.519 13.652 242.031 12.644 242.031 10.916C242.031 9.656 241.149 9.008 240.033 8.936C240.141 9.17 240.195 9.422 240.195 9.728C240.195 11.114 239.043 12.446 237.351 12.446C235.947 12.446 235.173 11.6 235.173 10.43V6.596H233.445V5.444H244.875V6.596H236.289ZM238.971 9.71C238.971 8.63 237.279 8.774 236.433 8.054V10.412C236.433 10.934 236.703 11.312 237.369 11.312C238.323 11.312 238.971 10.52 238.971 9.71ZM254.375 16.172L253.709 17.234C251.711 16.46 250.649 14.354 250.649 11.726C250.649 9.836 251.135 7.64 252.683 5.444H254.933V6.596H253.547C252.593 7.946 251.963 9.836 251.963 11.726C251.963 13.85 252.719 15.416 254.375 16.172ZM257.3 6.596V6.668L259.586 9.08V10.088L256.886 12.176L261.692 15.182H261.764C261.674 13.886 261.602 12.77 261.602 11.618V6.596H257.3ZM262.736 17.27L255.68 12.878V11.546L258.308 9.53L255.878 6.956V6.596H254.222V5.444H265.076V6.596H262.916V15.92L263.636 16.37L262.736 17.27ZM268.001 12.086C268.847 11.474 269.459 10.736 269.459 9.944C269.459 9.368 269.063 8.99 268.343 8.99C267.821 8.99 267.335 9.116 266.975 9.35L265.859 8.414C266.543 6.038 268.001 5.336 269.387 5.336C270.719 5.336 271.871 6.146 272.465 7.37C272.969 6.65 273.455 5.732 273.635 5.444H274.463C275.651 6.164 276.695 7.28 276.695 8.756C276.695 9.764 276.371 10.592 275.741 11.294C276.443 11.834 276.983 12.716 276.983 13.886C276.983 16.262 274.967 17.648 272.393 17.648C269.189 17.648 266.885 15.668 265.409 12.626L266.435 11.798C267.911 14.966 269.891 16.388 272.411 16.388C274.427 16.388 275.633 15.29 275.633 13.868C275.633 13.13 275.309 12.518 274.823 12.122C274.409 12.41 273.923 12.698 273.383 12.968L272.537 11.942C274.373 11.06 275.417 10.196 275.417 8.756C275.417 7.964 274.877 7.28 274.301 6.866C274.031 7.352 273.437 8.378 272.915 9.044H271.853C271.475 7.658 270.719 6.56 269.369 6.56C268.379 6.56 267.731 7.19 267.407 7.946L267.461 8C267.767 7.892 268.163 7.856 268.433 7.856C269.963 7.856 270.719 8.756 270.719 9.908C270.719 11.042 269.927 12.248 268.973 12.896L268.001 12.086ZM282.518 16.172L281.852 17.234C279.854 16.46 278.792 14.354 278.792 11.726C278.792 9.854 279.386 7.928 280.178 6.596H277.478V5.444H283.076V6.596H281.672C280.718 7.82 280.106 9.836 280.106 11.726C280.106 13.85 280.862 15.416 282.518 16.172ZM288.629 15.002C288.233 15.128 287.801 15.2 287.351 15.2C285.227 15.2 283.751 13.832 283.751 11.654C283.751 9.656 285.155 8.45 286.721 8.45C288.161 8.45 288.863 9.368 289.025 9.926H289.097C289.241 9.242 289.925 8.396 291.113 8.396C292.085 8.396 292.643 8.954 292.823 9.17H292.895V6.596H282.365V5.444H296.369V6.596H294.209V17H292.895V10.7C292.751 10.25 292.157 9.62 291.257 9.62C290.375 9.62 289.673 10.268 289.673 11.384V12.086H288.395V11.402C288.395 10.25 287.693 9.692 286.775 9.692C285.911 9.692 285.065 10.376 285.065 11.654C285.065 13.166 286.091 14.012 287.369 14.012C287.729 14.012 288.107 13.94 288.431 13.796L288.629 15.002ZM297.832 4.184V3.662H299.128V5.444H301.288V6.596H299.128V17H297.814V8.09C297.814 7.064 297.328 6.596 296.374 6.596H295.654V5.444H296.59C297.49 5.444 297.85 5.876 297.994 6.074H298.084C298.03 5.93 297.832 5.21 297.832 4.184ZM305.616 16.172L304.95 17.234C302.952 16.46 301.89 14.354 301.89 11.726C301.89 9.854 302.484 7.928 303.276 6.596H300.576V5.444H306.174V6.596H304.77C303.816 7.82 303.204 9.836 303.204 11.726C303.204 13.85 303.96 15.416 305.616 16.172ZM314.624 13.868C315.398 13.544 316.064 12.716 316.064 11.726C316.064 10.466 315.092 9.512 313.292 9.476V15.794L314.03 16.388L313.004 17.18L306.74 12.014V10.862C308.252 9.566 310.07 8.594 311.996 8.324V6.596H305.462V5.444H318.62V6.596H313.292V8.252C315.902 8.306 317.36 9.98 317.36 11.744C317.36 13.148 316.568 14.264 315.542 14.822L314.624 13.868ZM308.054 11.474L312.05 14.84H312.122C312.014 13.544 311.996 12.356 311.996 11.222V9.584C310.484 9.8 309.062 10.646 308.054 11.474ZM328.133 16.172L327.467 17.234C325.469 16.46 324.407 14.354 324.407 11.726C324.407 9.836 324.893 7.64 326.441 5.444H328.691V6.596H327.305C326.351 7.946 325.721 9.836 325.721 11.726C325.721 13.85 326.477 15.416 328.133 16.172ZM331.166 14.408C329.726 14.408 328.862 13.49 328.556 12.716L329.546 11.996C329.78 12.518 330.194 13.202 331.184 13.202C332.192 13.202 332.678 12.356 332.678 11.42C332.678 10.124 332.174 9.422 331.076 8.216L329.942 6.956V6.596H327.98V5.444H340.544V6.596H338.402V17H337.07V11.996C337.07 11.312 336.728 10.916 336.062 10.916C335.324 10.916 334.658 11.798 333.92 12.68C333.146 13.58 332.282 14.408 331.166 14.408ZM337.124 10.034C337.07 8.972 337.07 7.82 337.07 7.766V6.596H331.4V6.668L332.3 7.73C333.056 8.63 333.74 9.476 333.776 10.664C333.794 10.808 333.794 11.006 333.794 11.15C334.244 10.484 335 9.638 335.99 9.638C336.512 9.638 336.872 9.818 337.124 10.034ZM342.095 9.134C342.149 12.23 343.895 14.768 346.361 14.768C347.819 14.768 348.521 13.904 348.521 12.986C348.521 12.572 348.395 12.266 348.233 12.05L346.649 12.014C345.389 11.978 344.471 11.366 344.471 10.142C344.471 8.792 345.839 7.568 347.477 6.596H339.845V5.444H354.893V6.596H349.187C349.403 7.892 350.231 9.476 352.733 9.476H353.093L353.687 10.412C353.237 11.222 352.715 12.464 352.715 14.156V17.054H351.401V14.102C351.401 12.212 352.103 10.844 352.229 10.628C350.033 10.556 348.503 9.026 348.197 7.478C346.757 8.396 345.857 9.224 345.857 10.07C345.857 10.628 346.271 10.844 346.847 10.862L348.989 10.916C349.529 11.366 349.871 12.176 349.871 12.932C349.871 14.588 348.611 16.046 346.379 16.046C343.211 16.046 340.943 13.022 340.835 9.494L342.095 9.134ZM362.487 17H361.137V13.292C361.137 11.978 361.371 10.772 361.641 9.836C360.075 10.862 358.653 12.356 357.501 13.958L356.169 13.364V6.596H354.171V5.444H364.737V6.596H357.483V11.96C358.365 10.826 360.345 8.99 361.911 8.342L363.117 9.008C362.703 10.286 362.487 11.852 362.487 13.328V17ZM366.193 4.184V3.662H367.489V5.444H369.649V6.596H367.489V17H366.175V8.09C366.175 7.064 365.689 6.596 364.735 6.596H364.015V5.444H364.951C365.851 5.444 366.211 5.876 366.355 6.074H366.445C366.391 5.93 366.193 5.21 366.193 4.184ZM18.892 31.184V30.662H20.188V32.444H22.348V33.596H20.188V44H18.874V35.09C18.874 34.064 18.388 33.596 17.434 33.596H15.292V42.938L15.976 43.424L14.986 44.234L10.828 41.156C10.09 41.876 9.046 42.326 7.768 42.326C4.222 42.326 2.278 39.428 1.486 35.45L2.692 34.91C3.358 38.42 4.87 41.156 7.768 41.156C9.586 41.156 10.648 39.878 10.648 38.222C10.648 36.764 9.928 35.954 8.848 35.954C8.002 35.954 7.444 36.44 7.444 37.322C7.444 37.808 7.696 38.294 8.218 38.582L7.264 39.284C6.526 38.888 6.112 38.078 6.112 37.232C6.112 35.846 7.102 34.712 8.812 34.712C10.666 34.712 11.962 36.206 11.962 38.24C11.962 38.942 11.8 39.608 11.53 40.166L14.014 42.056L14.086 42.038C13.996 40.832 13.978 39.608 13.978 38.456V33.596H0.64V32.444H17.65C18.55 32.444 18.91 32.876 19.054 33.074H19.144C19.09 32.93 18.892 32.21 18.892 31.184ZM23.7339 44.126C23.7339 43.604 24.0939 43.244 24.5979 43.244C25.1019 43.244 25.4619 43.604 25.4619 44.126C25.4619 44.648 25.1019 45.008 24.5979 45.008C24.0939 45.008 23.7339 44.648 23.7339 44.126ZM24.7239 33.596V33.668L27.0099 36.08V37.088L24.3099 39.176L29.1159 42.182H29.1879C29.0979 40.886 29.0259 39.77 29.0259 38.618V33.596H24.7239ZM30.1599 44.27L23.1039 39.878V38.546L25.7319 36.53L23.3019 33.956V33.596H21.6459V32.444H32.4999V33.596H30.3399V42.92L31.0599 43.37L30.1599 44.27ZM33.9664 31.184V30.662H35.2624V32.444H37.4224V33.596H35.2624V44H33.9484V35.09C33.9484 34.064 33.4624 33.596 32.5084 33.596H31.7884V32.444H32.7244C33.6244 32.444 33.9844 32.876 34.1284 33.074H34.2184C34.1644 32.93 33.9664 32.21 33.9664 31.184ZM43.7483 39.5C43.0283 39.068 42.5603 38.276 42.5603 37.304C42.5603 35.864 43.5503 34.766 45.2423 34.766C47.2943 34.766 48.3923 36.458 48.3923 38.51C48.3923 41.084 46.6463 42.884 44.1083 42.884C40.5263 42.884 38.6723 39.662 37.8983 35.612L39.1223 35.072C39.7703 38.636 41.1923 41.714 44.1083 41.714C45.9443 41.714 47.0783 40.256 47.0783 38.492C47.0783 36.998 46.4843 35.99 45.2783 35.99C44.4503 35.99 43.8743 36.494 43.8743 37.376C43.8743 37.952 44.1443 38.438 44.6483 38.726L43.7483 39.5ZM49.6883 32.444V33.596H36.7103V32.444H49.6883ZM61.2758 33.596H54.1478V32.444H64.7498V33.596H62.6078V42.848L63.3458 43.334L62.4278 44.252L55.4258 39.662V38.456C56.4698 37.412 59.1158 35.648 61.2758 34.946V33.596ZM61.2758 36.26C59.7998 36.8 57.6038 38.186 56.7398 39.05L61.3478 42.056H61.4198C61.3118 40.85 61.2758 39.608 61.2758 38.438V36.26ZM69.0667 43.172L68.4007 44.234C66.4027 43.46 65.3407 41.354 65.3407 38.726C65.3407 36.854 65.9347 34.928 66.7267 33.596H64.0267V32.444H69.6247V33.596H68.2207C67.2667 34.82 66.6547 36.836 66.6547 38.726C66.6547 40.85 67.4107 42.416 69.0667 43.172ZM75.1774 42.002C74.7814 42.128 74.3494 42.2 73.8994 42.2C71.7754 42.2 70.2994 40.832 70.2994 38.654C70.2994 36.656 71.7034 35.45 73.2694 35.45C74.7094 35.45 75.4114 36.368 75.5734 36.926H75.6454C75.7894 36.242 76.4734 35.396 77.6614 35.396C78.6334 35.396 79.1914 35.954 79.3714 36.17H79.4434V33.596H68.9134V32.444H82.9174V33.596H80.7574V44H79.4434V37.7C79.2994 37.25 78.7054 36.62 77.8054 36.62C76.9234 36.62 76.2214 37.268 76.2214 38.384V39.086H74.9434V38.402C74.9434 37.25 74.2414 36.692 73.3234 36.692C72.4594 36.692 71.6134 37.376 71.6134 38.654C71.6134 40.166 72.6394 41.012 73.9174 41.012C74.2774 41.012 74.6554 40.94 74.9794 40.796L75.1774 42.002ZM87.5485 44H86.1625V32.444H87.5485V44ZM105.146 33.488C103.634 33.488 101.87 35.378 101.87 36.728C101.87 37.448 102.248 37.808 102.968 37.808C103.526 37.808 103.958 37.556 104.138 37.394L104.66 38.438C104.21 38.78 103.562 38.996 102.914 38.996C101.42 38.996 100.538 38.078 100.538 36.746C100.538 34.802 102.788 32.264 105.2 32.264C106.532 32.264 107.252 33.02 107.252 34.28V44H106.064C105.974 43.046 105.272 42.524 103.472 42.524C102.932 42.524 101.834 42.578 101.222 42.578C98.7202 42.578 97.3162 41.336 97.3162 39.572C97.3162 38.744 97.5862 38.078 97.9102 37.646L99.1702 38.168C98.7922 38.582 98.6482 39.086 98.6482 39.59C98.6482 40.58 99.4042 41.372 101.438 41.372C102.176 41.372 103.058 41.318 103.634 41.318C104.948 41.318 105.56 41.534 105.992 41.93H106.064C106.01 41.552 105.956 40.706 105.956 38.204V34.262C105.956 33.776 105.74 33.488 105.146 33.488ZM110.331 37.43C110.331 35.864 111.519 34.712 113.319 34.712C115.263 34.712 116.613 36.008 116.613 37.88C116.613 39.914 115.227 41.12 113.049 41.372V41.444C113.589 41.588 114.453 42.056 115.569 42.74L117.477 43.892L116.559 44.774C112.257 42.182 111.789 41.858 110.295 41.66V40.526H111.465C114.309 40.526 115.317 39.302 115.317 37.826C115.317 36.71 114.525 35.936 113.337 35.936C112.311 35.936 111.645 36.548 111.645 37.484C111.645 38.024 111.933 38.474 112.419 38.78L111.465 39.5C110.727 39.05 110.331 38.276 110.331 37.43ZM109.395 27.44L110.637 27.17C110.619 27.368 110.583 27.602 110.583 27.8C110.583 28.466 110.853 29.114 112.311 29.114H113.463C115.245 29.114 116.595 29.96 116.595 31.634C116.595 31.868 116.559 32.156 116.523 32.444H118.305V33.596H108.693V32.444H115.209C115.263 32.192 115.281 31.886 115.281 31.724C115.281 30.698 114.669 30.284 113.265 30.284H112.221C109.971 30.284 109.359 29.15 109.359 27.98C109.359 27.8 109.359 27.62 109.395 27.44ZM141.025 31.184V30.662H142.321V32.444H144.481V33.596H142.321V44H141.007V35.09C141.007 34.064 140.521 33.596 139.567 33.596H137.425V42.938L138.109 43.424L137.119 44.234L132.961 41.156C132.223 41.876 131.179 42.326 129.901 42.326C126.355 42.326 124.411 39.428 123.619 35.45L124.825 34.91C125.491 38.42 127.003 41.156 129.901 41.156C131.719 41.156 132.781 39.878 132.781 38.222C132.781 36.764 132.061 35.954 130.981 35.954C130.135 35.954 129.577 36.44 129.577 37.322C129.577 37.808 129.829 38.294 130.351 38.582L129.397 39.284C128.659 38.888 128.245 38.078 128.245 37.232C128.245 35.846 129.235 34.712 130.945 34.712C132.799 34.712 134.095 36.206 134.095 38.24C134.095 38.942 133.933 39.608 133.663 40.166L136.147 42.056L136.219 42.038C136.129 40.832 136.111 39.608 136.111 38.456V33.596H122.773V32.444H139.783C140.683 32.444 141.043 32.876 141.187 33.074H141.277C141.223 32.93 141.025 32.21 141.025 31.184ZM145.867 44.126C145.867 43.604 146.227 43.244 146.731 43.244C147.235 43.244 147.595 43.604 147.595 44.126C147.595 44.648 147.235 45.008 146.731 45.008C146.227 45.008 145.867 44.648 145.867 44.126ZM146.857 33.596V33.668L149.143 36.08V37.088L146.443 39.176L151.249 42.182H151.321C151.231 40.886 151.159 39.77 151.159 38.618V33.596H146.857ZM152.293 44.27L145.237 39.878V38.546L147.865 36.53L145.435 33.956V33.596H143.779V32.444H154.633V33.596H152.473V42.92L153.193 43.37L152.293 44.27ZM156.099 31.184V30.662H157.395V32.444H159.555V33.596H157.395V44H156.081V35.09C156.081 34.064 155.595 33.596 154.641 33.596H153.921V32.444H154.857C155.757 32.444 156.117 32.876 156.261 33.074H156.351C156.297 32.93 156.099 32.21 156.099 31.184ZM165.881 39.5C165.161 39.068 164.693 38.276 164.693 37.304C164.693 35.864 165.683 34.766 167.375 34.766C169.427 34.766 170.525 36.458 170.525 38.51C170.525 41.084 168.779 42.884 166.241 42.884C162.659 42.884 160.805 39.662 160.031 35.612L161.255 35.072C161.903 38.636 163.325 41.714 166.241 41.714C168.077 41.714 169.211 40.256 169.211 38.492C169.211 36.998 168.617 35.99 167.411 35.99C166.583 35.99 166.007 36.494 166.007 37.376C166.007 37.952 166.277 38.438 166.781 38.726L165.881 39.5ZM171.821 32.444V33.596H158.843V32.444H171.821ZM174.731 39.086C175.577 38.474 176.189 37.736 176.189 36.944C176.189 36.368 175.793 35.99 175.073 35.99C174.551 35.99 174.065 36.116 173.705 36.35L172.589 35.414C173.273 33.038 174.731 32.336 176.117 32.336C177.449 32.336 178.601 33.146 179.195 34.37C179.699 33.65 180.185 32.732 180.365 32.444H181.193C182.381 33.164 183.425 34.28 183.425 35.756C183.425 36.764 183.101 37.592 182.471 38.294C183.173 38.834 183.713 39.716 183.713 40.886C183.713 43.262 181.697 44.648 179.123 44.648C175.919 44.648 173.615 42.668 172.139 39.626L173.165 38.798C174.641 41.966 176.621 43.388 179.141 43.388C181.157 43.388 182.363 42.29 182.363 40.868C182.363 40.13 182.039 39.518 181.553 39.122C181.139 39.41 180.653 39.698 180.113 39.968L179.267 38.942C181.103 38.06 182.147 37.196 182.147 35.756C182.147 34.964 181.607 34.28 181.031 33.866C180.761 34.352 180.167 35.378 179.645 36.044H178.583C178.205 34.658 177.449 33.56 176.099 33.56C175.109 33.56 174.461 34.19 174.137 34.946L174.191 35C174.497 34.892 174.893 34.856 175.163 34.856C176.693 34.856 177.449 35.756 177.449 36.908C177.449 38.042 176.657 39.248 175.703 39.896L174.731 39.086ZM189.248 43.172L188.582 44.234C186.584 43.46 185.522 41.354 185.522 38.726C185.522 36.854 186.116 34.928 186.908 33.596H184.208V32.444H189.806V33.596H188.402C187.448 34.82 186.836 36.836 186.836 38.726C186.836 40.85 187.592 42.416 189.248 43.172ZM195.359 42.002C194.963 42.128 194.531 42.2 194.081 42.2C191.957 42.2 190.481 40.832 190.481 38.654C190.481 36.656 191.885 35.45 193.451 35.45C194.891 35.45 195.593 36.368 195.755 36.926H195.827C195.971 36.242 196.655 35.396 197.843 35.396C198.815 35.396 199.373 35.954 199.553 36.17H199.625V33.596H189.095V32.444H203.099V33.596H200.939V44H199.625V37.7C199.481 37.25 198.887 36.62 197.987 36.62C197.105 36.62 196.403 37.268 196.403 38.384V39.086H195.125V38.402C195.125 37.25 194.423 36.692 193.505 36.692C192.641 36.692 191.795 37.376 191.795 38.654C191.795 40.166 192.821 41.012 194.099 41.012C194.459 41.012 194.837 40.94 195.161 40.796L195.359 42.002ZM204.562 31.184V30.662H205.858V32.444H208.018V33.596H205.858V44H204.544V35.09C204.544 34.064 204.058 33.596 203.104 33.596H202.384V32.444H203.32C204.22 32.444 204.58 32.876 204.724 33.074H204.814C204.76 32.93 204.562 32.21 204.562 31.184ZM215.57 33.596V33.668L217.856 36.08V37.088L215.156 39.176L219.962 42.182H220.034C219.944 40.886 219.872 39.77 219.872 38.618V33.596H215.57ZM221.006 44.27L213.95 39.878V38.546L216.578 36.53L214.148 33.956V33.596H212.492V32.444H223.346V33.596H221.186V42.92L221.906 43.37L221.006 44.27ZM231.724 38.33V30.662H233.038V32.444H235.18V33.596H233.038V42.884L233.812 43.28L232.948 44.234L223.804 39.644V38.366C227.044 38.132 228.52 36.98 228.52 35.378C228.52 34.802 228.286 34.37 227.944 34.064C227.368 35.342 226.36 35.99 225.244 35.99C223.822 35.99 222.922 35.09 222.922 33.92C222.922 33.308 223.12 32.768 223.3 32.444H224.65C224.434 32.804 224.236 33.326 224.236 33.866C224.236 34.406 224.56 34.82 225.298 34.82C226.144 34.82 226.828 34.244 227.44 32.444H228.034C229.114 33.218 229.762 34.226 229.762 35.378C229.762 37.448 228.286 38.69 225.856 39.176V39.248L231.76 42.272L231.832 42.254C231.742 40.868 231.724 39.662 231.724 38.33ZM237.47 40.022L236.3 40.544C235.868 40.13 235.616 39.536 235.616 38.798C235.616 37.07 236.75 35.936 238.676 35.936C240.998 35.936 242.42 37.61 243.14 39.14H243.212C243.194 38.996 243.032 37.844 243.032 35.558V33.596H234.464V32.444H246.506V33.596H244.364V44H243.032V43.622C243.032 40.796 241.448 37.178 238.748 37.178C237.524 37.178 236.93 37.862 236.93 38.798C236.93 39.266 237.146 39.698 237.47 40.022ZM256.01 43.172L255.344 44.234C253.346 43.46 252.284 41.354 252.284 38.726C252.284 36.836 252.77 34.64 254.318 32.444H256.568V33.596H255.182C254.228 34.946 253.598 36.836 253.598 38.726C253.598 40.85 254.354 42.416 256.01 43.172ZM262.895 39.5C262.175 39.068 261.707 38.276 261.707 37.304C261.707 35.864 262.697 34.766 264.389 34.766C266.441 34.766 267.539 36.458 267.539 38.51C267.539 41.084 265.793 42.884 263.255 42.884C259.673 42.884 257.819 39.662 257.045 35.612L258.269 35.072C258.917 38.636 260.339 41.714 263.255 41.714C265.091 41.714 266.225 40.256 266.225 38.492C266.225 36.998 265.631 35.99 264.425 35.99C263.597 35.99 263.021 36.494 263.021 37.376C263.021 37.952 263.291 38.438 263.795 38.726L262.895 39.5ZM268.835 32.444V33.596H255.857V32.444H268.835ZM274.373 42.002C273.977 42.128 273.545 42.2 273.095 42.2C270.971 42.2 269.495 40.832 269.495 38.654C269.495 36.656 270.899 35.45 272.465 35.45C273.905 35.45 274.607 36.368 274.769 36.926H274.841C274.985 36.242 275.669 35.396 276.857 35.396C277.829 35.396 278.387 35.954 278.567 36.17H278.639V33.596H268.109V32.444H282.113V33.596H279.953V44H278.639V37.7C278.495 37.25 277.901 36.62 277.001 36.62C276.119 36.62 275.417 37.268 275.417 38.384V39.086H274.139V38.402C274.139 37.25 273.437 36.692 272.519 36.692C271.655 36.692 270.809 37.376 270.809 38.654C270.809 40.166 271.835 41.012 273.113 41.012C273.473 41.012 273.851 40.94 274.175 40.796L274.373 42.002ZM283.576 31.184V30.662H284.872V32.444H287.032V33.596H284.872V44H283.558V35.09C283.558 34.064 283.072 33.596 282.118 33.596H281.398V32.444H282.334C283.234 32.444 283.594 32.876 283.738 33.074H283.828C283.774 32.93 283.576 32.21 283.576 31.184ZM289.488 33.632C290.19 32.876 291.144 32.282 292.476 32.282C294.15 32.282 295.536 33.398 295.536 35.072C295.536 36.08 295.14 36.854 294.492 37.43C295.518 38.06 296.418 39.068 296.418 40.508C296.418 42.236 295.212 43.694 292.998 43.694C289.938 43.694 287.922 40.328 287.112 37.394L288.3 36.908C289.038 39.86 290.82 42.452 292.998 42.452C294.384 42.452 295.086 41.534 295.086 40.472C295.086 39.338 294.276 38.618 293.394 38.15C292.98 38.348 292.53 38.492 292.062 38.6L291.414 37.484C293.07 37.196 294.222 36.44 294.222 35.072C294.222 34.1 293.538 33.47 292.494 33.47C291.594 33.47 290.928 33.974 290.424 34.532L289.488 33.632ZM299.218 44.126C299.218 43.604 299.578 43.244 300.082 43.244C300.586 43.244 300.946 43.604 300.946 44.126C300.946 44.648 300.586 45.008 300.082 45.008C299.578 45.008 299.218 44.648 299.218 44.126ZM300.208 33.596V33.668L302.494 36.08V37.088L299.794 39.176L304.6 42.182H304.672C304.582 40.886 304.51 39.77 304.51 38.618V33.596H300.208ZM305.644 44.27L298.588 39.878V38.546L301.216 36.53L298.786 33.956V33.596H297.13V32.444H307.984V33.596H305.824V42.92L306.544 43.37L305.644 44.27ZM309.451 31.184V30.662H310.747V32.444H312.907V33.596H310.747V44H309.433V35.09C309.433 34.064 308.947 33.596 307.993 33.596H307.273V32.444H308.209C309.109 32.444 309.469 32.876 309.613 33.074H309.703C309.649 32.93 309.451 32.21 309.451 31.184ZM319.233 39.5C318.513 39.068 318.045 38.276 318.045 37.304C318.045 35.864 319.035 34.766 320.727 34.766C322.779 34.766 323.877 36.458 323.877 38.51C323.877 41.084 322.131 42.884 319.593 42.884C316.011 42.884 314.157 39.662 313.383 35.612L314.607 35.072C315.255 38.636 316.677 41.714 319.593 41.714C321.429 41.714 322.563 40.256 322.563 38.492C322.563 36.998 321.969 35.99 320.763 35.99C319.935 35.99 319.359 36.494 319.359 37.376C319.359 37.952 319.629 38.438 320.133 38.726L319.233 39.5ZM325.173 32.444V33.596H312.195V32.444H325.173ZM338.794 40.868C339.568 40.544 340.234 39.716 340.234 38.726C340.234 37.466 339.262 36.512 337.462 36.476V42.794L338.2 43.388L337.174 44.18L330.91 39.014V37.862C332.422 36.566 334.24 35.594 336.166 35.324V33.596H329.632V32.444H342.79V33.596H337.462V35.252C340.072 35.306 341.53 36.98 341.53 38.744C341.53 40.148 340.738 41.264 339.712 41.822L338.794 40.868ZM332.224 38.474L336.22 41.84H336.292C336.184 40.544 336.166 39.356 336.166 38.222V36.584C334.654 36.8 333.232 37.646 332.224 38.474ZM344.22 44.144C344.22 44.684 344.598 45.044 345.102 45.044C345.624 45.044 346.002 44.684 346.002 44.144C346.002 43.622 345.624 43.262 345.102 43.262C344.598 43.262 344.22 43.622 344.22 44.144ZM349.206 33.596H342.077V32.444H352.68V33.596H350.538V42.848L351.276 43.334L350.358 44.252L343.356 39.662V38.456C344.4 37.412 347.046 35.648 349.206 34.946V33.596ZM349.206 36.26C347.729 36.8 345.534 38.186 344.67 39.05L349.278 42.056H349.35C349.242 40.85 349.206 39.608 349.206 38.438V36.26ZM356.996 43.172L356.33 44.234C354.332 43.46 353.27 41.354 353.27 38.726C353.27 36.854 353.864 34.928 354.656 33.596H351.956V32.444H357.554V33.596H356.15C355.196 34.82 354.584 36.836 354.584 38.726C354.584 40.85 355.34 42.416 356.996 43.172ZM363.971 33.596H356.843V32.444H367.445V33.596H365.303V42.848L366.041 43.334L365.123 44.252L358.121 39.662V38.456C359.165 37.412 361.811 35.648 363.971 34.946V33.596ZM363.971 36.26C362.495 36.8 360.299 38.186 359.435 39.05L364.043 42.056H364.115C364.007 40.85 363.971 39.608 363.971 38.438V36.26ZM369.728 40.022L368.558 40.544C368.126 40.13 367.874 39.536 367.874 38.798C367.874 37.07 369.008 35.936 370.934 35.936C373.256 35.936 374.678 37.61 375.398 39.14H375.47C375.452 38.996 375.29 37.844 375.29 35.558V33.596H366.722V32.444H378.764V33.596H376.622V44H375.29V43.622C375.29 40.796 373.706 37.178 371.006 37.178C369.782 37.178 369.188 37.862 369.188 38.798C369.188 39.266 369.404 39.698 369.728 40.022ZM0.64 60.596V59.444H17.434V60.596H15.292V69.938L15.976 70.424L14.986 71.234L10.828 68.156C10.09 68.876 9.046 69.326 7.768 69.326C4.222 69.326 2.278 66.428 1.486 62.45L2.692 61.91C3.358 65.42 4.87 68.156 7.768 68.156C9.586 68.156 10.648 66.878 10.648 65.222C10.648 63.764 9.928 62.954 8.848 62.954C8.002 62.954 7.444 63.44 7.444 64.322C7.444 64.808 7.696 65.294 8.218 65.582L7.264 66.284C6.526 65.888 6.112 65.078 6.112 64.232C6.112 62.846 7.102 61.712 8.812 61.712C10.666 61.712 11.962 63.206 11.962 65.24C11.962 65.942 11.8 66.608 11.53 67.166L14.014 69.056L14.086 69.038C13.996 67.832 13.978 66.608 13.978 65.456V60.596H0.64ZM19.0824 64.016C18.3984 63.476 18.2004 62.72 18.2004 62.09C18.2004 60.488 19.4424 59.372 21.1524 59.372C22.8264 59.372 24.3564 60.452 24.3564 62.378C24.3564 64.16 23.1504 65.852 20.1624 66.392V66.464L26.1744 69.326H26.2464C26.1384 68.03 26.1204 66.806 26.1204 65.672V57.662H27.4524V59.444H29.5944V60.596H27.4524V69.884L28.2264 70.262L27.3624 71.234L18.2004 66.95V65.51C21.7824 65.33 23.0424 63.89 23.0424 62.378C23.0424 61.352 22.3224 60.596 21.1704 60.596C20.2524 60.596 19.5144 61.172 19.5144 62.108C19.5144 62.63 19.7484 63.062 20.1444 63.404L19.0824 64.016ZM35.9985 60.596H28.8705V59.444H39.4725V60.596H37.3305V69.848L38.0685 70.334L37.1505 71.252L30.1485 66.662V65.456C31.1925 64.412 33.8385 62.648 35.9985 61.946V60.596ZM35.9985 63.26C34.5225 63.8 32.3265 65.186 31.4625 66.05L36.0705 69.056H36.1425C36.0345 67.85 35.9985 66.608 35.9985 65.438V63.26ZM40.9274 58.184V57.662H42.2234V59.444H44.3834V60.596H42.2234V71H40.9094V62.09C40.9094 61.064 40.4234 60.596 39.4694 60.596H38.7494V59.444H39.6854C40.5854 59.444 40.9454 59.876 41.0894 60.074H41.1794C41.1254 59.93 40.9274 59.21 40.9274 58.184ZM53.8968 70.172L53.2308 71.234C51.2328 70.46 50.1708 68.354 50.1708 65.726C50.1708 63.836 50.6568 61.64 52.2048 59.444H54.4548V60.596H53.0688C52.1148 61.946 51.4848 63.836 51.4848 65.726C51.4848 67.85 52.2408 69.416 53.8968 70.172ZM62.9055 67.868C63.6795 67.544 64.3455 66.716 64.3455 65.726C64.3455 64.466 63.3735 63.512 61.5735 63.476V69.794L62.3115 70.388L61.2855 71.18L55.0215 66.014V64.862C56.5335 63.566 58.3515 62.594 60.2775 62.324V60.596H53.7435V59.444H66.9015V60.596H61.5735V62.252C64.1835 62.306 65.6415 63.98 65.6415 65.744C65.6415 67.148 64.8495 68.264 63.8235 68.822L62.9055 67.868ZM56.3355 65.474L60.3315 68.84H60.4035C60.2955 67.544 60.2775 66.356 60.2775 65.222V63.584C58.7655 63.8 57.3435 64.646 56.3355 65.474ZM67.1608 54.44L68.4208 54.17C68.3848 54.368 68.3668 54.566 68.3668 54.764C68.3668 55.43 68.6548 56.114 70.1308 56.114H74.1268C75.9088 56.114 77.2588 56.96 77.2588 58.634C77.2588 58.868 77.2228 59.156 77.1688 59.444H78.7168V60.596H72.3808V63.44C72.3808 64.052 72.6148 64.43 73.2268 64.43C73.7848 64.43 75.0268 64.052 76.3048 62.864C76.8988 63.26 77.6548 64.322 77.6548 65.672C77.6548 68.156 75.8548 69.902 73.0288 69.902C69.4108 69.902 67.3948 66.914 67.2328 63.458L68.4928 63.188C68.6188 66.626 70.4548 68.678 73.0468 68.678C75.0268 68.678 76.3588 67.49 76.3588 65.708C76.3588 65.204 76.2328 64.772 76.0528 64.538C75.1888 65.258 74.1088 65.654 73.1368 65.654C71.8228 65.654 71.0488 64.736 71.0488 63.512V60.596H66.4048V59.444H75.8728C75.9088 59.192 75.9448 58.904 75.9448 58.724C75.9448 57.698 75.3328 57.284 73.9288 57.284H70.0408C67.7728 57.284 67.1248 56.132 67.1248 54.962C67.1248 54.782 67.1248 54.62 67.1608 54.44ZM88.4378 70.172L87.7718 71.234C85.7738 70.46 84.7118 68.354 84.7118 65.726C84.7118 63.836 85.1978 61.64 86.7458 59.444H88.9958V60.596H87.6098C86.6558 61.946 86.0258 63.836 86.0258 65.726C86.0258 67.85 86.7818 69.416 88.4378 70.172ZM95.3225 66.5C94.6025 66.068 94.1345 65.276 94.1345 64.304C94.1345 62.864 95.1245 61.766 96.8165 61.766C98.8685 61.766 99.9665 63.458 99.9665 65.51C99.9665 68.084 98.2205 69.884 95.6825 69.884C92.1005 69.884 90.2465 66.662 89.4725 62.612L90.6965 62.072C91.3445 65.636 92.7665 68.714 95.6825 68.714C97.5185 68.714 98.6525 67.256 98.6525 65.492C98.6525 63.998 98.0585 62.99 96.8525 62.99C96.0245 62.99 95.4485 63.494 95.4485 64.376C95.4485 64.952 95.7185 65.438 96.2225 65.726L95.3225 66.5ZM101.263 59.444V60.596H88.2845V59.444H101.263ZM106.8 69.002C106.404 69.128 105.972 69.2 105.522 69.2C103.398 69.2 101.922 67.832 101.922 65.654C101.922 63.656 103.326 62.45 104.892 62.45C106.332 62.45 107.034 63.368 107.196 63.926H107.268C107.412 63.242 108.096 62.396 109.284 62.396C110.256 62.396 110.814 62.954 110.994 63.17H111.066V60.596H100.536V59.444H114.54V60.596H112.38V71H111.066V64.7C110.922 64.25 110.328 63.62 109.428 63.62C108.546 63.62 107.844 64.268 107.844 65.384V66.086H106.566V65.402C106.566 64.25 105.864 63.692 104.946 63.692C104.082 63.692 103.236 64.376 103.236 65.654C103.236 67.166 104.262 68.012 105.54 68.012C105.9 68.012 106.278 67.94 106.602 67.796L106.8 69.002ZM116.004 58.184V57.662H117.3V59.444H119.46V60.596H117.3V71H115.986V62.09C115.986 61.064 115.5 60.596 114.546 60.596H113.826V59.444H114.762C115.662 59.444 116.022 59.876 116.166 60.074H116.256C116.202 59.93 116.004 59.21 116.004 58.184ZM121.915 60.632C122.617 59.876 123.571 59.282 124.903 59.282C126.577 59.282 127.963 60.398 127.963 62.072C127.963 63.08 127.567 63.854 126.919 64.43C127.945 65.06 128.845 66.068 128.845 67.508C128.845 69.236 127.639 70.694 125.425 70.694C122.365 70.694 120.349 67.328 119.539 64.394L120.727 63.908C121.465 66.86 123.247 69.452 125.425 69.452C126.811 69.452 127.513 68.534 127.513 67.472C127.513 66.338 126.703 65.618 125.821 65.15C125.407 65.348 124.957 65.492 124.489 65.6L123.841 64.484C125.497 64.196 126.649 63.44 126.649 62.072C126.649 61.1 125.965 60.47 124.921 60.47C124.021 60.47 123.355 60.974 122.851 61.532L121.915 60.632ZM131.646 71.126C131.646 70.604 132.006 70.244 132.51 70.244C133.014 70.244 133.374 70.604 133.374 71.126C133.374 71.648 133.014 72.008 132.51 72.008C132.006 72.008 131.646 71.648 131.646 71.126ZM132.636 60.596V60.668L134.922 63.08V64.088L132.222 66.176L137.028 69.182H137.1C137.01 67.886 136.938 66.77 136.938 65.618V60.596H132.636ZM138.072 71.27L131.016 66.878V65.546L133.644 63.53L131.214 60.956V60.596H129.558V59.444H140.412V60.596H138.252V69.92L138.972 70.37L138.072 71.27ZM141.879 58.184V57.662H143.175V59.444H145.335V60.596H143.175V71H141.861V62.09C141.861 61.064 141.375 60.596 140.421 60.596H139.701V59.444H140.637C141.537 59.444 141.897 59.876 142.041 60.074H142.131C142.077 59.93 141.879 59.21 141.879 58.184ZM151.66 66.5C150.94 66.068 150.472 65.276 150.472 64.304C150.472 62.864 151.462 61.766 153.154 61.766C155.206 61.766 156.304 63.458 156.304 65.51C156.304 68.084 154.558 69.884 152.02 69.884C148.438 69.884 146.584 66.662 145.81 62.612L147.034 62.072C147.682 65.636 149.104 68.714 152.02 68.714C153.856 68.714 154.99 67.256 154.99 65.492C154.99 63.998 154.396 62.99 153.19 62.99C152.362 62.99 151.786 63.494 151.786 64.376C151.786 64.952 152.056 65.438 152.56 65.726L151.66 66.5ZM157.6 59.444V60.596H144.622V59.444H157.6ZM171.222 67.868C171.996 67.544 172.662 66.716 172.662 65.726C172.662 64.466 171.69 63.512 169.89 63.476V69.794L170.628 70.388L169.602 71.18L163.338 66.014V64.862C164.85 63.566 166.668 62.594 168.594 62.324V60.596H162.06V59.444H175.218V60.596H169.89V62.252C172.5 62.306 173.958 63.98 173.958 65.744C173.958 67.148 173.166 68.264 172.14 68.822L171.222 67.868ZM164.652 65.474L168.648 68.84H168.72C168.612 67.544 168.594 66.356 168.594 65.222V63.584C167.082 63.8 165.66 64.646 164.652 65.474ZM176.647 71.144C176.647 71.684 177.025 72.044 177.529 72.044C178.051 72.044 178.429 71.684 178.429 71.144C178.429 70.622 178.051 70.262 177.529 70.262C177.025 70.262 176.647 70.622 176.647 71.144ZM181.633 60.596H174.505V59.444H185.107V60.596H182.965V69.848L183.703 70.334L182.785 71.252L175.783 66.662V65.456C176.827 64.412 179.473 62.648 181.633 61.946V60.596ZM181.633 63.26C180.157 63.8 177.961 65.186 177.097 66.05L181.705 69.056H181.777C181.669 67.85 181.633 66.608 181.633 65.438V63.26ZM189.424 70.172L188.758 71.234C186.76 70.46 185.698 68.354 185.698 65.726C185.698 63.854 186.292 61.928 187.084 60.596H184.384V59.444H189.982V60.596H188.578C187.624 61.82 187.012 63.836 187.012 65.726C187.012 67.85 187.768 69.416 189.424 70.172ZM195.535 69.002C195.139 69.128 194.707 69.2 194.257 69.2C192.133 69.2 190.657 67.832 190.657 65.654C190.657 63.656 192.061 62.45 193.627 62.45C195.067 62.45 195.769 63.368 195.931 63.926H196.003C196.147 63.242 196.831 62.396 198.019 62.396C198.991 62.396 199.549 62.954 199.729 63.17H199.801V60.596H189.271V59.444H203.275V60.596H201.115V71H199.801V64.7C199.657 64.25 199.063 63.62 198.163 63.62C197.281 63.62 196.579 64.268 196.579 65.384V66.086H195.301V65.402C195.301 64.25 194.599 63.692 193.681 63.692C192.817 63.692 191.971 64.376 191.971 65.654C191.971 67.166 192.997 68.012 194.275 68.012C194.635 68.012 195.013 67.94 195.337 67.796L195.535 69.002ZM225.997 58.184V57.662H227.293V59.444H229.453V60.596H227.293V71H225.979V62.09C225.979 61.064 225.493 60.596 224.539 60.596H222.397V69.938L223.081 70.424L222.091 71.234L217.933 68.156C217.195 68.876 216.151 69.326 214.873 69.326C211.327 69.326 209.383 66.428 208.591 62.45L209.797 61.91C210.463 65.42 211.975 68.156 214.873 68.156C216.691 68.156 217.753 66.878 217.753 65.222C217.753 63.764 217.033 62.954 215.953 62.954C215.107 62.954 214.549 63.44 214.549 64.322C214.549 64.808 214.801 65.294 215.323 65.582L214.369 66.284C213.631 65.888 213.217 65.078 213.217 64.232C213.217 62.846 214.207 61.712 215.917 61.712C217.771 61.712 219.067 63.206 219.067 65.24C219.067 65.942 218.905 66.608 218.635 67.166L221.119 69.056L221.191 69.038C221.101 67.832 221.083 66.608 221.083 65.456V60.596H207.745V59.444H224.755C225.655 59.444 226.015 59.876 226.159 60.074H226.249C226.195 59.93 225.997 59.21 225.997 58.184ZM231.163 61.892C232.495 62.018 233.647 62.828 234.241 64.646L237.265 62.666C236.671 61.388 235.573 60.542 234.043 60.542C232.531 60.542 231.523 61.406 231.163 61.892ZM239.101 71H237.769V65.132C237.769 64.682 237.733 64.25 237.643 63.854L232.009 67.526L231.343 66.518L233.215 65.294C232.873 64.196 232.225 63.044 230.659 62.954C230.533 62.936 230.389 62.918 230.245 62.918L229.489 61.874C230.209 60.722 231.703 59.336 233.989 59.336C236.221 59.336 237.445 60.632 237.985 61.658L238.039 61.64C237.949 61.37 237.769 59.822 237.769 58.418V57.662H239.101V59.444H241.243V60.596H239.101V71ZM243.535 67.022L242.365 67.544C241.933 67.13 241.681 66.536 241.681 65.798C241.681 64.07 242.815 62.936 244.741 62.936C247.063 62.936 248.485 64.61 249.205 66.14H249.277C249.259 65.996 249.097 64.844 249.097 62.558V60.596H240.529V59.444H252.571V60.596H250.429V71H249.097V70.622C249.097 67.796 247.513 64.178 244.813 64.178C243.589 64.178 242.995 64.862 242.995 65.798C242.995 66.266 243.211 66.698 243.535 67.022ZM254.027 58.184V57.662H255.323V59.444H257.483V60.596H255.323V71H254.009V62.09C254.009 61.064 253.523 60.596 252.569 60.596H251.849V59.444H252.785C253.685 59.444 254.045 59.876 254.189 60.074H254.279C254.225 59.93 254.027 59.21 254.027 58.184ZM258.913 71.144C258.913 71.684 259.291 72.044 259.795 72.044C260.317 72.044 260.695 71.684 260.695 71.144C260.695 70.622 260.317 70.262 259.795 70.262C259.291 70.262 258.913 70.622 258.913 71.144ZM263.899 60.596H256.771V59.444H267.373V60.596H265.231V69.848L265.969 70.334L265.051 71.252L258.049 66.662V65.456C259.093 64.412 261.739 62.648 263.899 61.946V60.596ZM263.899 63.26C262.423 63.8 260.227 65.186 259.363 66.05L263.971 69.056H264.043C263.935 67.85 263.899 66.608 263.899 65.438V63.26ZM280.997 67.868C281.771 67.544 282.437 66.716 282.437 65.726C282.437 64.466 281.465 63.512 279.665 63.476V69.794L280.403 70.388L279.377 71.18L273.113 66.014V64.862C274.625 63.566 276.443 62.594 278.369 62.324V60.596H271.835V59.444H284.993V60.596H279.665V62.252C282.275 62.306 283.733 63.98 283.733 65.744C283.733 67.148 282.941 68.264 281.915 68.822L280.997 67.868ZM274.427 65.474L278.423 68.84H278.495C278.387 67.544 278.369 66.356 278.369 65.222V63.584C276.857 63.8 275.435 64.646 274.427 65.474ZM286.459 58.184V57.662H287.755V59.444H289.915V60.596H287.755V71H286.441V62.09C286.441 61.064 285.955 60.596 285.001 60.596H284.281V59.444H285.217C286.117 59.444 286.477 59.876 286.621 60.074H286.711C286.657 59.93 286.459 59.21 286.459 58.184ZM294.243 70.172L293.577 71.234C291.579 70.46 290.517 68.354 290.517 65.726C290.517 63.854 291.111 61.928 291.903 60.596H289.202V59.444H294.801V60.596H293.397C292.443 61.82 291.831 63.836 291.831 65.726C291.831 67.85 292.587 69.416 294.243 70.172ZM297.095 67.022L295.925 67.544C295.493 67.13 295.241 66.536 295.241 65.798C295.241 64.07 296.375 62.936 298.301 62.936C300.623 62.936 302.045 64.61 302.765 66.14H302.837C302.819 65.996 302.657 64.844 302.657 62.558V60.596H294.089V59.444H306.131V60.596H303.989V71H302.657V70.622C302.657 67.796 301.073 64.178 298.373 64.178C297.149 64.178 296.555 64.862 296.555 65.798C296.555 66.266 296.771 66.698 297.095 67.022ZM328.847 58.184V57.662H330.143V59.444H332.303V60.596H330.143V71H328.829V62.09C328.829 61.064 328.343 60.596 327.389 60.596H325.247V69.938L325.931 70.424L324.941 71.234L320.783 68.156C320.045 68.876 319.001 69.326 317.723 69.326C314.177 69.326 312.233 66.428 311.441 62.45L312.647 61.91C313.313 65.42 314.825 68.156 317.723 68.156C319.541 68.156 320.603 66.878 320.603 65.222C320.603 63.764 319.883 62.954 318.803 62.954C317.957 62.954 317.399 63.44 317.399 64.322C317.399 64.808 317.651 65.294 318.173 65.582L317.219 66.284C316.481 65.888 316.067 65.078 316.067 64.232C316.067 62.846 317.057 61.712 318.767 61.712C320.621 61.712 321.917 63.206 321.917 65.24C321.917 65.942 321.755 66.608 321.485 67.166L323.969 69.056L324.041 69.038C323.951 67.832 323.933 66.608 323.933 65.456V60.596H310.595V59.444H327.605C328.505 59.444 328.865 59.876 329.009 60.074H329.099C329.045 59.93 328.847 59.21 328.847 58.184ZM334.787 68.408C333.347 68.408 332.483 67.49 332.177 66.716L333.167 65.996C333.401 66.518 333.815 67.202 334.805 67.202C335.813 67.202 336.299 66.356 336.299 65.42C336.299 64.124 335.795 63.422 334.697 62.216L333.563 60.956V60.596H331.601V59.444H344.165V60.596H342.023V71H340.691V65.996C340.691 65.312 340.349 64.916 339.683 64.916C338.945 64.916 338.279 65.798 337.541 66.68C336.767 67.58 335.903 68.408 334.787 68.408ZM340.745 64.034C340.691 62.972 340.691 61.82 340.691 61.766V60.596H335.021V60.668L335.921 61.73C336.677 62.63 337.361 63.476 337.397 64.664C337.415 64.808 337.415 65.006 337.415 65.15C337.865 64.484 338.621 63.638 339.611 63.638C340.133 63.638 340.493 63.818 340.745 64.034ZM348.506 70.172L347.84 71.234C345.842 70.46 344.78 68.354 344.78 65.726C344.78 63.854 345.374 61.928 346.166 60.596H343.466V59.444H349.064V60.596H347.66C346.706 61.82 346.094 63.836 346.094 65.726C346.094 67.85 346.85 69.416 348.506 70.172ZM355.481 60.596H348.353V59.444H358.955V60.596H356.813V69.848L357.551 70.334L356.633 71.252L349.631 66.662V65.456C350.675 64.412 353.321 62.648 355.481 61.946V60.596ZM355.481 63.26C354.005 63.8 351.809 65.186 350.945 66.05L355.553 69.056H355.625C355.517 67.85 355.481 66.608 355.481 65.438V63.26ZM7.678 93.5C6.958 93.068 6.49 92.276 6.49 91.304C6.49 89.864 7.48 88.766 9.172 88.766C11.224 88.766 12.322 90.458 12.322 92.51C12.322 95.084 10.576 96.884 8.038 96.884C4.456 96.884 2.602 93.662 1.828 89.612L3.052 89.072C3.7 92.636 5.122 95.714 8.038 95.714C9.874 95.714 11.008 94.256 11.008 92.492C11.008 90.998 10.414 89.99 9.208 89.99C8.38 89.99 7.804 90.494 7.804 91.376C7.804 91.952 8.074 92.438 8.578 92.726L7.678 93.5ZM13.618 86.444V87.596H0.64V86.444H13.618ZM21.982 92.33V84.662H23.296V86.444H25.438V87.596H23.296V96.884L24.07 97.28L23.206 98.234L14.062 93.644V92.366C17.302 92.132 18.778 90.98 18.778 89.378C18.778 88.802 18.544 88.37 18.202 88.064C17.626 89.342 16.618 89.99 15.502 89.99C14.08 89.99 13.18 89.09 13.18 87.92C13.18 87.308 13.378 86.768 13.558 86.444H14.908C14.692 86.804 14.494 87.326 14.494 87.866C14.494 88.406 14.818 88.82 15.556 88.82C16.402 88.82 17.086 88.244 17.698 86.444H18.292C19.372 87.218 20.02 88.226 20.02 89.378C20.02 91.448 18.544 92.69 16.114 93.176V93.248L22.018 96.272L22.09 96.254C22 94.868 21.982 93.662 21.982 92.33ZM27.728 94.022L26.558 94.544C26.126 94.13 25.874 93.536 25.874 92.798C25.874 91.07 27.008 89.936 28.934 89.936C31.256 89.936 32.678 91.61 33.398 93.14H33.47C33.452 92.996 33.29 91.844 33.29 89.558V87.596H24.722V86.444H36.764V87.596H34.622V98H33.29V97.622C33.29 94.796 31.706 91.178 29.006 91.178C27.782 91.178 27.188 91.862 27.188 92.798C27.188 93.266 27.404 93.698 27.728 94.022ZM50.4079 87.488C48.8959 87.488 47.1319 89.378 47.1319 90.728C47.1319 91.448 47.5099 91.808 48.2299 91.808C48.7879 91.808 49.2199 91.556 49.3999 91.394L49.9219 92.438C49.4719 92.78 48.8239 92.996 48.1759 92.996C46.6819 92.996 45.7999 92.078 45.7999 90.746C45.7999 88.802 48.0499 86.264 50.4619 86.264C51.7939 86.264 52.5139 87.02 52.5139 88.28V98H51.3259C51.2359 97.046 50.5339 96.524 48.7339 96.524C48.1939 96.524 47.0959 96.578 46.4839 96.578C43.9819 96.578 42.5779 95.336 42.5779 93.572C42.5779 92.744 42.8479 92.078 43.1719 91.646L44.4319 92.168C44.0539 92.582 43.9099 93.086 43.9099 93.59C43.9099 94.58 44.6659 95.372 46.6999 95.372C47.4379 95.372 48.3199 95.318 48.8959 95.318C50.2099 95.318 50.8219 95.534 51.2539 95.93H51.3259C51.2719 95.552 51.2179 94.706 51.2179 92.204V88.262C51.2179 87.776 51.0019 87.488 50.4079 87.488ZM63.1165 94.868C63.8905 94.544 64.5565 93.716 64.5565 92.726C64.5565 91.466 63.5845 90.512 61.7845 90.476V96.794L62.5225 97.388L61.4965 98.18L55.2325 93.014V91.862C56.7445 90.566 58.5625 89.594 60.4885 89.324V87.596H53.9545V86.444H67.1125V87.596H61.7845V89.252C64.3945 89.306 65.8525 90.98 65.8525 92.744C65.8525 94.148 65.0605 95.264 64.0345 95.822L63.1165 94.868ZM56.5465 92.474L60.5425 95.84H60.6145C60.5065 94.544 60.4885 93.356 60.4885 92.222V90.584C58.9765 90.8 57.5545 91.646 56.5465 92.474ZM66.8318 81.44L68.0738 81.17C68.0558 81.368 68.0198 81.566 68.0198 81.764C68.0198 82.43 68.3078 83.114 69.7838 83.114H72.1418C73.9238 83.114 75.2738 83.96 75.2738 85.634C75.2738 85.868 75.2378 86.156 75.1838 86.444H76.9478V87.596H69.8378V94.418C69.8378 95.228 70.2698 95.84 71.2238 95.84C72.8258 95.84 74.1758 94.382 74.1758 92.708C74.1758 91.79 73.7978 91.088 72.8978 91.088C72.4478 91.088 72.0158 91.322 71.7818 91.664L71.0438 90.62C71.4038 90.224 72.0338 89.828 72.8978 89.828C74.4458 89.828 75.5078 90.998 75.5078 92.708C75.5078 94.868 73.7078 97.064 71.1878 97.064C69.5678 97.064 68.5418 96.038 68.5418 94.508V87.596H66.4178V86.444H73.8878C73.9418 86.192 73.9598 85.886 73.9598 85.724C73.9598 84.698 73.3478 84.284 71.9438 84.284H69.6938C67.4438 84.284 66.7958 83.132 66.7958 81.962C66.7958 81.782 66.7958 81.62 66.8318 81.44ZM78.4039 85.184V84.662H79.6999V86.444H81.8599V87.596H79.6999V98H78.3859V89.09C78.3859 88.064 77.8999 87.596 76.9459 87.596H76.2259V86.444H77.1619C78.0619 86.444 78.4219 86.876 78.5659 87.074H78.6559C78.6019 86.93 78.4039 86.21 78.4039 85.184ZM91.3734 97.172L90.7074 98.234C88.7094 97.46 87.6474 95.354 87.6474 92.726C87.6474 90.836 88.1334 88.64 89.6814 86.444H91.9314V87.596H90.5454C89.5914 88.946 88.9614 90.836 88.9614 92.726C88.9614 94.85 89.7174 96.416 91.3734 97.172ZM94.4061 95.408C92.9661 95.408 92.1021 94.49 91.7961 93.716L92.7861 92.996C93.0201 93.518 93.4341 94.202 94.4241 94.202C95.4321 94.202 95.9181 93.356 95.9181 92.42C95.9181 91.124 95.4141 90.422 94.3161 89.216L93.1821 87.956V87.596H91.2201V86.444H103.784V87.596H101.642V98H100.31V92.996C100.31 92.312 99.9681 91.916 99.3021 91.916C98.5641 91.916 97.8981 92.798 97.1601 93.68C96.3861 94.58 95.5221 95.408 94.4061 95.408ZM100.364 91.034C100.31 89.972 100.31 88.82 100.31 88.766V87.596H94.6401V87.668L95.5401 88.73C96.2961 89.63 96.9801 90.476 97.0161 91.664C97.0341 91.808 97.0341 92.006 97.0341 92.15C97.4841 91.484 98.2401 90.638 99.2301 90.638C99.7521 90.638 100.112 90.818 100.364 91.034ZM105.335 90.134C105.389 93.23 107.135 95.768 109.601 95.768C111.059 95.768 111.761 94.904 111.761 93.986C111.761 93.572 111.635 93.266 111.473 93.05L109.889 93.014C108.629 92.978 107.711 92.366 107.711 91.142C107.711 89.792 109.079 88.568 110.717 87.596H103.085V86.444H118.133V87.596H112.427C112.643 88.892 113.471 90.476 115.973 90.476H116.333L116.927 91.412C116.477 92.222 115.955 93.464 115.955 95.156V98.054H114.641V95.102C114.641 93.212 115.343 91.844 115.469 91.628C113.273 91.556 111.743 90.026 111.437 88.478C109.997 89.396 109.097 90.224 109.097 91.07C109.097 91.628 109.511 91.844 110.087 91.862L112.229 91.916C112.769 92.366 113.111 93.176 113.111 93.932C113.111 95.588 111.851 97.046 109.619 97.046C106.451 97.046 104.183 94.022 104.075 90.494L105.335 90.134ZM125.727 98H124.377V94.292C124.377 92.978 124.611 91.772 124.881 90.836C123.315 91.862 121.893 93.356 120.741 94.958L119.409 94.364V87.596H117.411V86.444H127.977V87.596H120.723V92.96C121.605 91.826 123.585 89.99 125.151 89.342L126.357 90.008C125.943 91.286 125.727 92.852 125.727 94.328V98ZM129.433 85.184V84.662H130.729V86.444H132.889V87.596H130.729V98H129.415V89.09C129.415 88.064 128.929 87.596 127.975 87.596H127.255V86.444H128.191C129.091 86.444 129.451 86.876 129.595 87.074H129.685C129.631 86.93 129.433 86.21 129.433 85.184ZM146.525 94.868C147.299 94.544 147.965 93.716 147.965 92.726C147.965 91.466 146.993 90.512 145.193 90.476V96.794L145.931 97.388L144.905 98.18L138.641 93.014V91.862C140.153 90.566 141.971 89.594 143.897 89.324V87.596H137.363V86.444H150.521V87.596H145.193V89.252C147.803 89.306 149.261 90.98 149.261 92.744C149.261 94.148 148.469 95.264 147.443 95.822L146.525 94.868ZM139.955 92.474L143.951 95.84H144.023C143.915 94.544 143.897 93.356 143.897 92.222V90.584C142.385 90.8 140.963 91.646 139.955 92.474ZM151.95 98.144C151.95 98.684 152.328 99.044 152.832 99.044C153.354 99.044 153.732 98.684 153.732 98.144C153.732 97.622 153.354 97.262 152.832 97.262C152.328 97.262 151.95 97.622 151.95 98.144ZM156.936 87.596H149.808V86.444H160.41V87.596H158.268V96.848L159.006 97.334L158.088 98.252L151.086 93.662V92.456C152.13 91.412 154.776 89.648 156.936 88.946V87.596ZM156.936 90.26C155.46 90.8 153.264 92.186 152.4 93.05L157.008 96.056H157.08C156.972 94.85 156.936 93.608 156.936 92.438V90.26ZM161.865 85.184V84.662H163.161V86.444H165.321V87.596H163.161V98H161.847V89.09C161.847 88.064 161.361 87.596 160.407 87.596H159.687V86.444H160.623C161.523 86.444 161.883 86.876 162.027 87.074H162.117C162.063 86.93 161.865 86.21 161.865 85.184ZM170.766 81.44L172.026 81.17C171.99 81.368 171.972 81.566 171.972 81.764C171.972 82.43 172.26 83.114 173.736 83.114H177.732C179.514 83.114 180.864 83.96 180.864 85.634C180.864 85.868 180.828 86.156 180.774 86.444H182.322V87.596H175.986V90.44C175.986 91.052 176.22 91.43 176.832 91.43C177.39 91.43 178.632 91.052 179.91 89.864C180.504 90.26 181.26 91.322 181.26 92.672C181.26 95.156 179.46 96.902 176.634 96.902C173.016 96.902 171 93.914 170.838 90.458L172.098 90.188C172.224 93.626 174.06 95.678 176.652 95.678C178.632 95.678 179.964 94.49 179.964 92.708C179.964 92.204 179.838 91.772 179.658 91.538C178.794 92.258 177.714 92.654 176.742 92.654C175.428 92.654 174.654 91.736 174.654 90.512V87.596H170.01V86.444H179.478C179.514 86.192 179.55 85.904 179.55 85.724C179.55 84.698 178.938 84.284 177.534 84.284H173.646C171.378 84.284 170.73 83.132 170.73 81.962C170.73 81.782 170.73 81.62 170.766 81.44ZM193.698 84.446C192.438 83.33 190.476 82.304 188.262 82.304C186.282 82.304 185.292 83.6 185.292 85.094V86.444H187.452V87.596H185.292V98H183.978V87.596H181.818V86.444H183.978V84.932C183.978 82.916 185.508 81.08 188.244 81.08C190.998 81.08 193.32 82.448 194.49 83.51L193.698 84.446ZM193.184 90.62C194.75 91.196 195.614 92.042 195.614 93.536C195.614 95.732 193.598 98.018 191.312 98.018C189.782 98.018 188.882 97.136 188.882 95.768V87.596H186.74V86.444H196.91V87.596H190.124V88.082C190.124 89.108 190.754 89.702 191.708 90.062L193.184 90.62ZM190.088 90.422C190.124 90.584 190.178 91.556 190.178 93.248V95.732C190.178 96.38 190.52 96.812 191.33 96.812C192.572 96.812 194.282 95.246 194.282 93.518C194.282 92.816 193.976 92.24 192.734 91.79L191.564 91.358C190.772 91.07 190.358 90.656 190.16 90.422H190.088ZM201.201 90.494C202.263 90.494 202.893 89.954 202.893 89.09C202.893 88.262 202.227 87.632 201.075 87.632C200.067 87.632 199.275 88.244 198.879 89.198C199.293 89.99 200.157 90.494 201.201 90.494ZM202.389 94.364C203.865 94.868 205.323 95.588 205.323 97.37C205.323 97.568 205.323 97.82 205.287 98.036L203.991 98.288C204.009 98.108 204.027 97.73 204.027 97.586C204.027 96.182 203.001 95.876 201.237 95.282C199.221 94.58 197.313 93.356 197.313 90.656C197.313 88.19 198.753 86.462 201.057 86.462C202.785 86.462 204.171 87.434 204.171 89.09C204.171 90.764 202.929 91.664 201.255 91.664C200.283 91.664 199.239 91.268 198.609 90.548C198.609 90.584 198.609 90.638 198.609 90.674C198.609 93.014 200.463 93.716 202.389 94.364ZM210.947 98H209.561V86.444H210.947V98ZM18.892 112.184V111.662H20.188V113.444H22.348V114.596H20.188V125H18.874V116.09C18.874 115.064 18.388 114.596 17.434 114.596H15.292V123.938L15.976 124.424L14.986 125.234L10.828 122.156C10.09 122.876 9.046 123.326 7.768 123.326C4.222 123.326 2.278 120.428 1.486 116.45L2.692 115.91C3.358 119.42 4.87 122.156 7.768 122.156C9.586 122.156 10.648 120.878 10.648 119.222C10.648 117.764 9.928 116.954 8.848 116.954C8.002 116.954 7.444 117.44 7.444 118.322C7.444 118.808 7.696 119.294 8.218 119.582L7.264 120.284C6.526 119.888 6.112 119.078 6.112 118.232C6.112 116.846 7.102 115.712 8.812 115.712C10.666 115.712 11.962 117.206 11.962 119.24C11.962 119.942 11.8 120.608 11.53 121.166L14.014 123.056L14.086 123.038C13.996 121.832 13.978 120.608 13.978 119.456V114.596H0.64V113.444H17.65C18.55 113.444 18.91 113.876 19.054 114.074H19.144C19.09 113.93 18.892 113.21 18.892 112.184ZM23.7339 125.126C23.7339 124.604 24.0939 124.244 24.5979 124.244C25.1019 124.244 25.4619 124.604 25.4619 125.126C25.4619 125.648 25.1019 126.008 24.5979 126.008C24.0939 126.008 23.7339 125.648 23.7339 125.126ZM24.7239 114.596V114.668L27.0099 117.08V118.088L24.3099 120.176L29.1159 123.182H29.1879C29.0979 121.886 29.0259 120.77 29.0259 119.618V114.596H24.7239ZM30.1599 125.27L23.1039 120.878V119.546L25.7319 117.53L23.3019 114.956V114.596H21.6459V113.444H32.4999V114.596H30.3399V123.92L31.0599 124.37L30.1599 125.27ZM33.9664 112.184V111.662H35.2624V113.444H37.4224V114.596H35.2624V125H33.9484V116.09C33.9484 115.064 33.4624 114.596 32.5084 114.596H31.7884V113.444H32.7244C33.6244 113.444 33.9844 113.876 34.1284 114.074H34.2184C34.1644 113.93 33.9664 113.21 33.9664 112.184ZM41.7503 124.172L41.0843 125.234C39.0863 124.46 38.0243 122.354 38.0243 119.726C38.0243 117.854 38.6183 115.928 39.4103 114.596H36.7103V113.444H42.3083V114.596H40.9043C39.9503 115.82 39.3383 117.836 39.3383 119.726C39.3383 121.85 40.0943 123.416 41.7503 124.172ZM48.635 120.5C47.915 120.068 47.447 119.276 47.447 118.304C47.447 116.864 48.437 115.766 50.129 115.766C52.181 115.766 53.279 117.458 53.279 119.51C53.279 122.084 51.533 123.884 48.995 123.884C45.413 123.884 43.559 120.662 42.785 116.612L44.009 116.072C44.657 119.636 46.079 122.714 48.995 122.714C50.831 122.714 51.965 121.256 51.965 119.492C51.965 117.998 51.371 116.99 50.165 116.99C49.337 116.99 48.761 117.494 48.761 118.376C48.761 118.952 49.031 119.438 49.535 119.726L48.635 120.5ZM54.575 113.444V114.596H41.597V113.444H54.575ZM55.991 125.144C55.991 125.684 56.369 126.044 56.873 126.044C57.395 126.044 57.773 125.684 57.773 125.144C57.773 124.622 57.395 124.262 56.873 124.262C56.369 124.262 55.991 124.622 55.991 125.144ZM60.977 114.596H53.849V113.444H64.451V114.596H62.309V123.848L63.047 124.334L62.129 125.252L55.127 120.662V119.456C56.171 118.412 58.817 116.648 60.977 115.946V114.596ZM60.977 117.26C59.501 117.8 57.305 119.186 56.441 120.05L61.049 123.056H61.121C61.013 121.85 60.977 120.608 60.977 119.438V117.26ZM73.9534 124.172L73.2874 125.234C71.2894 124.46 70.2274 122.354 70.2274 119.726C70.2274 117.836 70.7134 115.64 72.2614 113.444H74.5114V114.596H73.1254C72.1714 115.946 71.5414 117.836 71.5414 119.726C71.5414 121.85 72.2974 123.416 73.9534 124.172ZM75.4562 114.596H73.8002V113.444H75.4562C76.7702 113.444 77.8142 113.984 78.4262 114.866C79.0562 114.002 80.0642 113.462 81.1802 113.462C82.7102 113.462 83.5022 114.236 83.7362 114.614H83.8082C83.7722 114.488 83.6102 113.552 83.6102 112.364V111.662H84.9062V113.444H87.0662V114.596H84.9062V125H83.5922V117.134C83.5922 115.496 82.5482 114.668 81.2162 114.668C80.1542 114.668 79.0562 115.424 79.0562 116.9C79.0562 118.196 80.0822 118.934 81.2882 118.934C81.4682 118.934 81.7022 118.916 81.8822 118.88V120.068C81.7562 120.086 81.5222 120.122 81.2702 120.122C80.0642 120.122 78.9482 119.618 78.3722 118.682C77.8502 119.636 76.8422 120.158 75.5642 120.158C75.2222 120.158 74.7722 120.068 74.5742 120.014V118.79C74.8082 118.916 75.2402 118.952 75.5462 118.952C76.9322 118.952 77.7602 118.088 77.7602 116.864C77.7602 115.298 76.7702 114.596 75.4562 114.596ZM91.3909 124.172L90.7249 125.234C88.7269 124.46 87.6649 122.354 87.6649 119.726C87.6649 117.854 88.2589 115.928 89.0509 114.596H86.3509V113.444H91.9489V114.596H90.5449C89.5909 115.82 88.9789 117.836 88.9789 119.726C88.9789 121.85 89.7349 123.416 91.3909 124.172ZM93.9737 114.596V114.668L94.1177 114.794L98.6357 118.736V114.596H93.9737ZM99.7157 125.252L92.6237 120.878V119.618L95.2877 117.368L92.5337 114.956V114.596H91.2377V113.444H102.128V114.596H99.9317V123.938L100.652 124.37L99.7157 125.252ZM98.7617 123.2C98.6897 122.12 98.6537 121.166 98.6357 120.194L96.2777 118.142L93.8657 120.194L98.6897 123.2H98.7617ZM111.641 124.172L110.975 125.234C108.977 124.46 107.915 122.354 107.915 119.726C107.915 117.836 108.401 115.64 109.949 113.444H112.199V114.596H110.813C109.859 115.946 109.229 117.836 109.229 119.726C109.229 121.85 109.985 123.416 111.641 124.172ZM114.674 122.408C113.234 122.408 112.37 121.49 112.064 120.716L113.054 119.996C113.288 120.518 113.702 121.202 114.692 121.202C115.7 121.202 116.186 120.356 116.186 119.42C116.186 118.124 115.682 117.422 114.584 116.216L113.45 114.956V114.596H111.488V113.444H124.052V114.596H121.91V125H120.578V119.996C120.578 119.312 120.236 118.916 119.57 118.916C118.832 118.916 118.166 119.798 117.428 120.68C116.654 121.58 115.79 122.408 114.674 122.408ZM120.632 118.034C120.578 116.972 120.578 115.82 120.578 115.766V114.596H114.908V114.668L115.808 115.73C116.564 116.63 117.248 117.476 117.284 118.664C117.302 118.808 117.302 119.006 117.302 119.15C117.752 118.484 118.508 117.638 119.498 117.638C120.02 117.638 120.38 117.818 120.632 118.034ZM125.603 117.134C125.657 120.23 127.403 122.768 129.869 122.768C131.327 122.768 132.029 121.904 132.029 120.986C132.029 120.572 131.903 120.266 131.741 120.05L130.157 120.014C128.897 119.978 127.979 119.366 127.979 118.142C127.979 116.792 129.347 115.568 130.985 114.596H123.353V113.444H138.401V114.596H132.695C132.911 115.892 133.739 117.476 136.241 117.476H136.601L137.195 118.412C136.745 119.222 136.223 120.464 136.223 122.156V125.054H134.909V122.102C134.909 120.212 135.611 118.844 135.737 118.628C133.541 118.556 132.011 117.026 131.705 115.478C130.265 116.396 129.365 117.224 129.365 118.07C129.365 118.628 129.779 118.844 130.355 118.862L132.497 118.916C133.037 119.366 133.379 120.176 133.379 120.932C133.379 122.588 132.119 124.046 129.887 124.046C126.719 124.046 124.451 121.022 124.343 117.494L125.603 117.134ZM145.995 125H144.645V121.292C144.645 119.978 144.879 118.772 145.149 117.836C143.583 118.862 142.161 120.356 141.009 121.958L139.677 121.364V114.596H137.679V113.444H148.245V114.596H140.991V119.96C141.873 118.826 143.853 116.99 145.419 116.342L146.625 117.008C146.211 118.286 145.995 119.852 145.995 121.328V125ZM149.701 112.184V111.662H150.997V113.444H153.157V114.596H150.997V125H149.683V116.09C149.683 115.064 149.197 114.596 148.243 114.596H147.523V113.444H148.459C149.359 113.444 149.719 113.876 149.863 114.074H149.953C149.899 113.93 149.701 113.21 149.701 112.184ZM169.51 111.446C168.25 110.33 166.288 109.304 164.074 109.304C162.094 109.304 161.104 110.6 161.104 112.094V113.444H163.264V114.596H161.104V125H159.79V114.596H157.63V113.444H159.79V111.932C159.79 109.916 161.32 108.08 164.056 108.08C166.81 108.08 169.132 109.448 170.302 110.51L169.51 111.446ZM168.996 117.62C170.562 118.196 171.426 119.042 171.426 120.536C171.426 122.732 169.41 125.018 167.124 125.018C165.594 125.018 164.694 124.136 164.694 122.768V114.596H162.552V113.444H172.722V114.596H165.936V115.082C165.936 116.108 166.566 116.702 167.52 117.062L168.996 117.62ZM165.9 117.422C165.936 117.584 165.99 118.556 165.99 120.248V122.732C165.99 123.38 166.332 123.812 167.142 123.812C168.384 123.812 170.094 122.246 170.094 120.518C170.094 119.816 169.788 119.24 168.546 118.79L167.376 118.358C166.584 118.07 166.17 117.656 165.972 117.422H165.9ZM176.167 122.48C176.707 122.624 177.571 123.038 178.687 123.722L180.613 124.874L179.677 125.774C175.447 123.218 174.907 122.876 173.485 122.678V121.526H174.583C177.427 121.526 178.435 120.302 178.435 118.88C178.435 117.71 177.643 116.936 176.455 116.936C175.429 116.936 174.709 117.548 174.709 118.484C174.709 118.97 174.961 119.474 175.483 119.744L174.529 120.464C173.791 120.032 173.395 119.258 173.395 118.412C173.395 116.882 174.637 115.712 176.437 115.712C177.859 115.712 178.975 116.414 179.461 117.512C180.037 116.486 180.901 115.856 182.197 115.856C183.943 115.856 185.221 116.936 185.221 118.79C185.221 120.752 183.925 121.706 182.413 121.706C181.873 121.706 181.261 121.616 180.793 121.382L181.117 120.266C181.603 120.446 181.927 120.5 182.323 120.5C183.187 120.5 183.925 119.924 183.925 118.79C183.925 117.746 183.295 117.08 182.179 117.08C180.739 117.08 180.037 118.556 179.587 119.96C179.173 121.346 177.931 122.21 176.167 122.408V122.48ZM186.373 114.596H172.009V113.444H186.373V114.596ZM195.875 124.172L195.209 125.234C193.211 124.46 192.149 122.354 192.149 119.726C192.149 117.836 192.635 115.64 194.183 113.444H196.433V114.596H195.047C194.093 115.946 193.463 117.836 193.463 119.726C193.463 121.85 194.219 123.416 195.875 124.172ZM204.038 125H202.688V121.292C202.688 119.978 202.922 118.772 203.192 117.836C201.626 118.862 200.204 120.356 199.052 121.958L197.72 121.364V114.596H195.722V113.444H206.288V114.596H199.034V119.96C199.916 118.826 201.896 116.99 203.462 116.342L204.668 117.008C204.254 118.286 204.038 119.852 204.038 121.328V125ZM210.606 124.172L209.94 125.234C207.942 124.46 206.88 122.354 206.88 119.726C206.88 117.854 207.474 115.928 208.266 114.596H205.566V113.444H211.164V114.596H209.76C208.806 115.82 208.194 117.836 208.194 119.726C208.194 121.85 208.95 123.416 210.606 124.172ZM219.543 119.33V111.662H220.857V113.444H222.999V114.596H220.857V123.884L221.631 124.28L220.767 125.234L211.623 120.644V119.366C214.863 119.132 216.339 117.98 216.339 116.378C216.339 115.802 216.104 115.37 215.763 115.064C215.187 116.342 214.179 116.99 213.062 116.99C211.641 116.99 210.74 116.09 210.74 114.92C210.74 114.308 210.939 113.768 211.119 113.444H212.469C212.253 113.804 212.055 114.326 212.055 114.866C212.055 115.406 212.379 115.82 213.117 115.82C213.963 115.82 214.647 115.244 215.259 113.444H215.853C216.933 114.218 217.581 115.226 217.581 116.378C217.581 118.448 216.104 119.69 213.675 120.176V120.248L219.579 123.272L219.651 123.254C219.561 121.868 219.543 120.662 219.543 119.33ZM232.508 124.172L231.842 125.234C229.844 124.46 228.782 122.354 228.782 119.726C228.782 117.836 229.268 115.64 230.816 113.444H233.066V114.596H231.68C230.726 115.946 230.096 117.836 230.096 119.726C230.096 121.85 230.852 123.416 232.508 124.172ZM239.483 114.596H232.355V113.444H242.957V114.596H240.815V123.848L241.553 124.334L240.635 125.252L233.633 120.662V119.456C234.677 118.412 237.323 116.648 239.483 115.946V114.596ZM239.483 117.26C238.007 117.8 235.811 119.186 234.947 120.05L239.555 123.056H239.627C239.519 121.85 239.483 120.608 239.483 119.438V117.26ZM244.412 112.184V111.662H245.708V113.444H247.868V114.596H245.708V125H244.394V116.09C244.394 115.064 243.908 114.596 242.954 114.596H242.234V113.444H243.17C244.07 113.444 244.43 113.876 244.574 114.074H244.664C244.61 113.93 244.412 113.21 244.412 112.184ZM254.014 123.038H254.086C253.978 121.832 253.96 120.59 253.96 119.42V117.53C252.34 118.016 250.612 119.15 249.712 120.086L254.014 123.038ZM258.244 111.662H259.558V113.444H261.718V114.596H259.558V122.048L258.334 122.66L255.256 120.554V123.83L255.994 124.334L255.076 125.234L248.38 120.716V119.51C249.496 118.376 251.62 116.828 253.96 116.216V114.596H247.156V113.444H255.256V119.06L258.316 121.166H258.388C258.28 119.978 258.244 118.718 258.244 117.548V111.662ZM263.168 112.184V111.662H264.464V113.444H266.624V114.596H264.464V125H263.15V116.09C263.15 115.064 262.664 114.596 261.71 114.596H260.99V113.444H261.926C262.826 113.444 263.186 113.876 263.33 114.074H263.42C263.366 113.93 263.168 113.21 263.168 112.184ZM274.175 114.596V114.668L276.461 117.08V118.088L273.761 120.176L278.567 123.182H278.639C278.549 121.886 278.477 120.77 278.477 119.618V114.596H274.175ZM279.611 125.27L272.555 120.878V119.546L275.183 117.53L272.753 114.956V114.596H271.097V113.444H281.951V114.596H279.791V123.92L280.511 124.37L279.611 125.27ZM283.418 112.184V111.662H284.714V113.444H286.874V114.596H284.714V125H283.4V116.09C283.4 115.064 282.914 114.596 281.96 114.596H281.24V113.444H282.176C283.076 113.444 283.436 113.876 283.58 114.074H283.67C283.616 113.93 283.418 113.21 283.418 112.184ZM288.249 125.126C288.249 124.604 288.609 124.244 289.113 124.244C289.617 124.244 289.977 124.604 289.977 125.126C289.977 125.648 289.617 126.008 289.113 126.008C288.609 126.008 288.249 125.648 288.249 125.126ZM289.239 114.596V114.668L291.525 117.08V118.088L288.825 120.176L293.631 123.182H293.703C293.613 121.886 293.541 120.77 293.541 119.618V114.596H289.239ZM294.675 125.27L287.619 120.878V119.546L290.247 117.53L287.817 114.956V114.596H286.161V113.444H297.015V114.596H294.855V123.92L295.575 124.37L294.675 125.27ZM306.53 124.172L305.864 125.234C303.866 124.46 302.804 122.354 302.804 119.726C302.804 117.836 303.29 115.64 304.838 113.444H307.088V114.596H305.702C304.748 115.946 304.118 117.836 304.118 119.726C304.118 121.85 304.874 123.416 306.53 124.172ZM315.538 121.868C316.312 121.544 316.978 120.716 316.978 119.726C316.978 118.466 316.006 117.512 314.206 117.476V123.794L314.944 124.388L313.918 125.18L307.654 120.014V118.862C309.166 117.566 310.984 116.594 312.91 116.324V114.596H306.376V113.444H319.534V114.596H314.206V116.252C316.816 116.306 318.274 117.98 318.274 119.744C318.274 121.148 317.482 122.264 316.456 122.822L315.538 121.868ZM308.968 119.474L312.964 122.84H313.036C312.928 121.544 312.91 120.356 312.91 119.222V117.584C311.398 117.8 309.976 118.646 308.968 119.474ZM321 112.184V111.662H322.296V113.444H324.456V114.596H322.296V125H320.982V116.09C320.982 115.064 320.496 114.596 319.542 114.596H318.822V113.444H319.758C320.658 113.444 321.018 113.876 321.162 114.074H321.252C321.198 113.93 321 113.21 321 112.184ZM326.75 121.022L325.58 121.544C325.148 121.13 324.896 120.536 324.896 119.798C324.896 118.07 326.03 116.936 327.956 116.936C330.278 116.936 331.7 118.61 332.42 120.14H332.492C332.474 119.996 332.312 118.844 332.312 116.558V114.596H323.744V113.444H335.786V114.596H333.644V125H332.312V124.622C332.312 121.796 330.728 118.178 328.028 118.178C326.804 118.178 326.21 118.862 326.21 119.798C326.21 120.266 326.426 120.698 326.75 121.022ZM335.496 108.44L336.738 108.17C336.72 108.368 336.684 108.566 336.684 108.764C336.684 109.43 336.972 110.114 338.448 110.114H340.806C342.588 110.114 343.938 110.96 343.938 112.634C343.938 112.868 343.902 113.156 343.848 113.444H345.612V114.596H338.502V121.418C338.502 122.228 338.934 122.84 339.888 122.84C341.49 122.84 342.84 121.382 342.84 119.708C342.84 118.79 342.462 118.088 341.562 118.088C341.112 118.088 340.68 118.322 340.446 118.664L339.708 117.62C340.068 117.224 340.698 116.828 341.562 116.828C343.11 116.828 344.172 117.998 344.172 119.708C344.172 121.868 342.372 124.064 339.852 124.064C338.232 124.064 337.206 123.038 337.206 121.508V114.596H335.082V113.444H342.552C342.606 113.192 342.624 112.886 342.624 112.724C342.624 111.698 342.012 111.284 340.608 111.284H338.358C336.108 111.284 335.46 110.132 335.46 108.962C335.46 108.782 335.46 108.62 335.496 108.44ZM347.068 112.184V111.662H348.364V113.444H350.524V114.596H348.364V125H347.05V116.09C347.05 115.064 346.564 114.596 345.61 114.596H344.89V113.444H345.826C346.726 113.444 347.086 113.876 347.23 114.074H347.32C347.266 113.93 347.068 113.21 347.068 112.184ZM5.68 151.172L5.014 152.234C3.016 151.46 1.954 149.354 1.954 146.726C1.954 144.836 2.44 142.64 3.988 140.444H6.238V141.596H4.852C3.898 142.946 3.268 144.836 3.268 146.726C3.268 148.85 4.024 150.416 5.68 151.172ZM8.71272 149.408C7.27272 149.408 6.40872 148.49 6.10272 147.716L7.09272 146.996C7.32672 147.518 7.74072 148.202 8.73072 148.202C9.73872 148.202 10.2247 147.356 10.2247 146.42C10.2247 145.124 9.72072 144.422 8.62272 143.216L7.48872 141.956V141.596H5.52672V140.444H18.0907V141.596H15.9487V152H14.6167V146.996C14.6167 146.312 14.2747 145.916 13.6087 145.916C12.8707 145.916 12.2047 146.798 11.4667 147.68C10.6927 148.58 9.82872 149.408 8.71272 149.408ZM14.6707 145.034C14.6167 143.972 14.6167 142.82 14.6167 142.766V141.596H8.94672V141.668L9.84672 142.73C10.6027 143.63 11.2867 144.476 11.3227 145.664C11.3407 145.808 11.3407 146.006 11.3407 146.15C11.7907 145.484 12.5467 144.638 13.5367 144.638C14.0587 144.638 14.4187 144.818 14.6707 145.034ZM19.642 144.134C19.696 147.23 21.442 149.768 23.908 149.768C25.366 149.768 26.068 148.904 26.068 147.986C26.068 147.572 25.942 147.266 25.78 147.05L24.196 147.014C22.936 146.978 22.018 146.366 22.018 145.142C22.018 143.792 23.386 142.568 25.024 141.596H17.392V140.444H32.44V141.596H26.734C26.95 142.892 27.778 144.476 30.28 144.476H30.64L31.234 145.412C30.784 146.222 30.262 147.464 30.262 149.156V152.054H28.948V149.102C28.948 147.212 29.65 145.844 29.776 145.628C27.58 145.556 26.05 144.026 25.744 142.478C24.304 143.396 23.404 144.224 23.404 145.07C23.404 145.628 23.818 145.844 24.394 145.862L26.536 145.916C27.076 146.366 27.418 147.176 27.418 147.932C27.418 149.588 26.158 151.046 23.926 151.046C20.758 151.046 18.49 148.022 18.382 144.494L19.642 144.134ZM40.0341 152H38.6841V148.292C38.6841 146.978 38.9181 145.772 39.1881 144.836C37.6221 145.862 36.2001 147.356 35.0481 148.958L33.7161 148.364V141.596H31.7181V140.444H42.2841V141.596H35.0301V146.96C35.9121 145.826 37.8921 143.99 39.4581 143.342L40.6641 144.008C40.2501 145.286 40.0341 146.852 40.0341 148.328V152ZM43.7399 139.184V138.662H45.0359V140.444H47.1959V141.596H45.0359V152H43.7219V143.09C43.7219 142.064 43.2359 141.596 42.2819 141.596H41.5619V140.444H42.4979C43.3979 140.444 43.7579 140.876 43.9019 141.074H43.9919C43.9379 140.93 43.7399 140.21 43.7399 139.184ZM69.9213 139.184V138.662H71.2173V140.444H73.3773V141.596H71.2173V152H69.9033V143.09C69.9033 142.064 69.4173 141.596 68.4633 141.596H66.3213V150.938L67.0053 151.424L66.0153 152.234L61.8573 149.156C61.1193 149.876 60.0753 150.326 58.7973 150.326C55.2513 150.326 53.3073 147.428 52.5153 143.45L53.7213 142.91C54.3873 146.42 55.8993 149.156 58.7973 149.156C60.6153 149.156 61.6773 147.878 61.6773 146.222C61.6773 144.764 60.9573 143.954 59.8773 143.954C59.0313 143.954 58.4733 144.44 58.4733 145.322C58.4733 145.808 58.7253 146.294 59.2473 146.582L58.2933 147.284C57.5553 146.888 57.1413 146.078 57.1413 145.232C57.1413 143.846 58.1313 142.712 59.8413 142.712C61.6953 142.712 62.9913 144.206 62.9913 146.24C62.9913 146.942 62.8293 147.608 62.5593 148.166L65.0433 150.056L65.1153 150.038C65.0253 148.832 65.0073 147.608 65.0073 146.456V141.596H51.6693V140.444H68.6793C69.5793 140.444 69.9393 140.876 70.0833 141.074H70.1733C70.1193 140.93 69.9213 140.21 69.9213 139.184ZM74.7632 152.126C74.7632 151.604 75.1232 151.244 75.6272 151.244C76.1312 151.244 76.4912 151.604 76.4912 152.126C76.4912 152.648 76.1312 153.008 75.6272 153.008C75.1232 153.008 74.7632 152.648 74.7632 152.126ZM75.7532 141.596V141.668L78.0392 144.08V145.088L75.3392 147.176L80.1452 150.182H80.2172C80.1272 148.886 80.0552 147.77 80.0552 146.618V141.596H75.7532ZM81.1892 152.27L74.1332 147.878V146.546L76.7612 144.53L74.3312 141.956V141.596H72.6752V140.444H83.5292V141.596H81.3692V150.92L82.0892 151.37L81.1892 152.27ZM84.9957 139.184V138.662H86.2917V140.444H88.4517V141.596H86.2917V152H84.9777V143.09C84.9777 142.064 84.4917 141.596 83.5377 141.596H82.8177V140.444H83.7537C84.6537 140.444 85.0137 140.876 85.1577 141.074H85.2477C85.1937 140.93 84.9957 140.21 84.9957 139.184ZM94.7776 147.5C94.0576 147.068 93.5896 146.276 93.5896 145.304C93.5896 143.864 94.5796 142.766 96.2716 142.766C98.3236 142.766 99.4216 144.458 99.4216 146.51C99.4216 149.084 97.6756 150.884 95.1376 150.884C91.5556 150.884 89.7016 147.662 88.9276 143.612L90.1516 143.072C90.7996 146.636 92.2216 149.714 95.1376 149.714C96.9736 149.714 98.1076 148.256 98.1076 146.492C98.1076 144.998 97.5136 143.99 96.3076 143.99C95.4796 143.99 94.9036 144.494 94.9036 145.376C94.9036 145.952 95.1736 146.438 95.6776 146.726L94.7776 147.5ZM100.718 140.444V141.596H87.7396V140.444H100.718Z" fill="#F5F9FA"/>
</svg>
