<svg width="128" height="156" viewBox="0 0 128 156" fill="none" xmlns="http://www.w3.org/2000/svg">
<path d="M20.2334 119.146C19.0714 119.146 18.0214 118.95 17.0834 118.558C16.1454 118.152 15.3194 117.487 14.6054 116.563C13.8914 115.625 13.2754 114.372 12.7574 112.804L14.2904 112.363C14.7104 113.581 15.1724 114.589 15.6764 115.387C16.1804 116.171 16.7894 116.759 17.5034 117.151C18.2174 117.529 19.0784 117.718 20.0864 117.718C21.2764 117.718 22.0954 117.508 22.5434 117.088C23.0054 116.668 23.2364 116.136 23.2364 115.492C23.2364 114.918 23.0404 114.442 22.6484 114.064C22.2564 113.672 21.7104 113.476 21.0104 113.476C20.6604 113.476 20.3734 113.525 20.1494 113.623C19.9394 113.721 19.7854 113.861 19.6874 114.043C19.5894 114.211 19.5404 114.4 19.5404 114.61C19.5404 114.708 19.5474 114.834 19.5614 114.988C19.5894 115.142 19.6244 115.275 19.6664 115.387L18.1334 115.681C18.0494 115.443 17.9864 115.205 17.9444 114.967C17.9164 114.715 17.9024 114.519 17.9024 114.379C17.9024 113.861 18.0354 113.434 18.3014 113.098C18.5814 112.748 18.9524 112.489 19.4144 112.321C19.8764 112.153 20.3734 112.069 20.9054 112.069C21.7454 112.069 22.4524 112.237 23.0264 112.573C23.6144 112.895 24.0554 113.322 24.3494 113.854C24.6574 114.372 24.8114 114.939 24.8114 115.555C24.8114 116.255 24.6364 116.878 24.2864 117.424C23.9364 117.956 23.4184 118.376 22.7324 118.684C22.0604 118.992 21.2274 119.146 20.2334 119.146ZM26.2184 110.074V111.565H11.9384V110.074H26.2184ZM23.2154 117.739V124.753H21.5984C21.0804 124.207 20.5344 123.759 19.9604 123.409C19.3864 123.059 18.7844 122.779 18.1544 122.569C17.5384 122.345 16.8804 122.177 16.1804 122.065L15.4664 120.448C15.9424 120.168 16.3694 119.93 16.7474 119.734C17.1254 119.538 17.4824 119.37 17.8184 119.23C18.1684 119.09 18.5184 118.964 18.8684 118.852L23.2154 117.739ZM21.5984 119.041C21.1504 119.209 20.6464 119.412 20.0864 119.65C19.5404 119.888 19.0084 120.133 18.4904 120.385C17.9864 120.623 17.5664 120.84 17.2304 121.036L17.1464 120.889C18.0144 121.071 18.8264 121.344 19.5824 121.708C20.3524 122.058 21.0454 122.506 21.6614 123.052C21.6474 122.814 21.6334 122.548 21.6194 122.254C21.6054 121.946 21.5984 121.701 21.5984 121.519V119.041ZM27.2087 118.243V116.5H32.8577V118.243H27.2087ZM35.2478 118.243V116.5H40.8968V118.243H35.2478ZM43.2868 118.243V116.5H48.9358V118.243H43.2868ZM55.9249 110.074V111.565H53.7199V123.136H52.1029V111.565H49.9189V110.074H51.8509C51.6269 109.808 51.3959 109.528 51.1579 109.234C50.9339 108.94 50.7309 108.646 50.5489 108.352C51.0249 107.526 51.5359 106.777 52.0819 106.105C52.6279 105.419 53.2719 104.88 54.0139 104.488C54.7559 104.082 55.6519 103.879 56.7019 103.879C57.4439 103.879 58.1509 103.97 58.8229 104.152C59.5089 104.334 60.1809 104.6 60.8389 104.95C61.4969 105.286 62.1619 105.699 62.8339 106.189C63.5059 106.665 64.2059 107.197 64.9339 107.785L64.0519 108.919C63.0859 108.135 62.2109 107.484 61.4269 106.966C60.6569 106.448 59.9149 106.063 59.2009 105.811C58.5009 105.545 57.7519 105.412 56.9539 105.412C56.1839 105.412 55.5119 105.545 54.9379 105.811C54.3779 106.077 53.8879 106.448 53.4679 106.924C53.0619 107.4 52.6909 107.953 52.3549 108.583C52.4669 108.793 52.6209 109.024 52.8169 109.276C53.0129 109.528 53.2369 109.794 53.4889 110.074H55.9249ZM70.239 110.074V111.565H68.034V123.136H66.417V115.723L66.9 117.046C66.466 116.472 66.088 116.031 65.766 115.723C65.458 115.415 65.157 115.261 64.863 115.261C64.667 115.261 64.485 115.317 64.317 115.429C64.149 115.541 63.96 115.758 63.75 116.08C63.54 116.388 63.26 116.864 62.91 117.508C62.532 118.194 62.189 118.761 61.881 119.209C61.573 119.643 61.244 119.965 60.894 120.175C60.558 120.371 60.145 120.469 59.655 120.469C59.277 120.469 58.913 120.392 58.563 120.238C58.227 120.084 57.884 119.832 57.534 119.482C57.198 119.118 56.834 118.628 56.442 118.012L57.723 117.235C58.101 117.907 58.416 118.348 58.668 118.558C58.92 118.768 59.193 118.873 59.487 118.873C59.725 118.873 59.949 118.803 60.159 118.663C60.383 118.509 60.621 118.25 60.873 117.886C61.139 117.522 61.44 117.025 61.776 116.395L62.259 115.702C62.623 114.946 62.973 114.428 63.309 114.148C63.645 113.854 64.016 113.707 64.422 113.707C64.884 113.707 65.297 113.84 65.661 114.106C66.039 114.358 66.473 114.75 66.963 115.282L66.543 115.303C66.487 114.981 66.452 114.68 66.438 114.4C66.424 114.106 66.417 113.812 66.417 113.518V111.565H55.497V110.074H70.239ZM61.398 117.445C61.258 116.493 61.111 115.737 60.957 115.177C60.817 114.617 60.565 114.183 60.201 113.875C59.851 113.553 59.375 113.315 58.773 113.161C58.171 112.993 57.415 112.853 56.505 112.741L56.82 111.145L57.954 111.565C58.752 111.691 59.417 111.852 59.949 112.048C60.481 112.244 60.908 112.503 61.23 112.825C61.566 113.133 61.818 113.518 61.986 113.98C62.154 114.442 62.266 115.002 62.322 115.66L61.398 117.445ZM71.2185 118.243V116.5H76.8675V118.243H71.2185ZM79.2575 118.243V116.5H84.9065V118.243H79.2575ZM87.2966 118.243V116.5H92.9456V118.243H87.2966ZM95.3357 118.243V116.5H100.985V118.243H95.3357ZM115.072 110.074V111.565H112.867V123.136H111.25V118.033L111.586 119.209C111.124 118.565 110.62 117.984 110.074 117.466C109.528 116.948 108.968 116.535 108.394 116.227C107.82 115.919 107.26 115.765 106.714 115.765C106.196 115.765 105.755 115.905 105.391 116.185C105.041 116.451 104.866 116.85 104.866 117.382C104.866 117.802 105.013 118.166 105.307 118.474C105.601 118.768 106.056 119.034 106.672 119.272L105.874 120.763C105.02 120.413 104.348 119.944 103.858 119.356C103.382 118.754 103.144 118.075 103.144 117.319C103.144 116.633 103.305 116.066 103.627 115.618C103.963 115.156 104.383 114.813 104.887 114.589C105.405 114.365 105.93 114.253 106.462 114.253C107.19 114.253 107.855 114.379 108.457 114.631C109.059 114.883 109.619 115.226 110.137 115.66C110.669 116.094 111.173 116.598 111.649 117.172L111.355 117.256C111.313 116.934 111.285 116.619 111.271 116.311C111.257 115.989 111.25 115.667 111.25 115.345V111.565H101.968V110.074H115.072Z" fill="#F5F9FA"/>
<path d="M12.2126 140.184V141.32H10.5326V150.136H9.30063V144.488L9.66863 145.496C9.33796 145.058 9.04996 144.722 8.80463 144.488C8.56996 144.253 8.34063 144.136 8.11663 144.136C7.96729 144.136 7.82863 144.178 7.70063 144.264C7.57263 144.349 7.42863 144.514 7.26863 144.76C7.10863 144.994 6.89529 145.357 6.62863 145.848C6.34063 146.37 6.07929 146.802 5.84462 147.144C5.60996 147.474 5.35929 147.72 5.09263 147.88C4.83663 148.029 4.52196 148.104 4.14863 148.104C3.86063 148.104 3.58329 148.045 3.31663 147.928C3.06063 147.81 2.79929 147.618 2.53263 147.352C2.27663 147.074 1.99929 146.701 1.70063 146.232L2.67663 145.64C2.96463 146.152 3.20463 146.488 3.39663 146.648C3.58863 146.808 3.79663 146.888 4.02063 146.888C4.20196 146.888 4.37263 146.834 4.53263 146.728C4.70329 146.61 4.88463 146.413 5.07663 146.136C5.27929 145.858 5.50863 145.48 5.76463 145L6.13263 144.472C6.40996 143.896 6.67663 143.501 6.93263 143.288C7.18863 143.064 7.47129 142.952 7.78063 142.952C8.13263 142.952 8.44729 143.053 8.72463 143.256C9.01263 143.448 9.34329 143.746 9.71663 144.152L9.39663 144.168C9.35396 143.922 9.32729 143.693 9.31663 143.48C9.30596 143.256 9.30063 143.032 9.30063 142.808V141.32H0.980625L0.980625 140.184H12.2126ZM5.47663 145.8C5.36996 145.074 5.25796 144.498 5.14062 144.072C5.03396 143.645 4.84196 143.314 4.56463 143.08C4.29796 142.834 3.93529 142.653 3.47663 142.536C3.01796 142.408 2.44196 142.301 1.74863 142.216L1.98863 141L2.85263 141.32C3.46063 141.416 3.96729 141.538 4.37263 141.688C4.77796 141.837 5.10329 142.034 5.34863 142.28C5.60463 142.514 5.79663 142.808 5.92463 143.16C6.05263 143.512 6.13796 143.938 6.18063 144.44L5.47663 145.8ZM7.47087 154.392C7.18287 154.392 6.86821 154.328 6.52687 154.2C6.18554 154.082 5.89754 153.89 5.66287 153.624C5.41754 153.357 5.29487 153 5.29487 152.552C5.29487 152.008 5.50287 151.57 5.91887 151.24C6.33487 150.92 6.91621 150.76 7.66287 150.76C8.32421 150.76 8.96421 150.877 9.58287 151.112C10.1909 151.357 10.8149 151.693 11.4549 152.12C12.0842 152.546 12.7562 153.042 13.4709 153.608L12.7509 154.472C12.0362 153.874 11.3855 153.378 10.7989 152.984C10.2122 152.589 9.65754 152.29 9.13487 152.088C8.61221 151.885 8.09487 151.784 7.58287 151.784C7.19887 151.784 6.91087 151.858 6.71887 152.008C6.52687 152.157 6.43087 152.349 6.43087 152.584C6.43087 152.882 6.53754 153.09 6.75087 153.208C6.95354 153.336 7.19354 153.4 7.47087 153.4C7.86554 153.4 8.18554 153.314 8.43087 153.144C8.66554 152.984 8.84687 152.781 8.97487 152.536C9.10287 152.29 9.18821 152.034 9.23087 151.768C9.27354 151.512 9.29487 151.282 9.29487 151.08L9.29487 150.008H10.5269L10.5269 150.856C10.5269 151.154 10.4949 151.501 10.4309 151.896C10.3562 152.301 10.2175 152.69 10.0149 153.064C9.80154 153.448 9.49221 153.762 9.08687 154.008C8.68154 154.264 8.14287 154.392 7.47087 154.392ZM21.7429 140.184V141.32H20.0629L20.0629 150.136H18.8309C18.5109 149.496 18.0682 148.909 17.5029 148.376C16.9482 147.832 16.3082 147.373 15.5829 147C14.8575 146.626 14.0842 146.376 13.2629 146.248L12.6389 144.712C13.6629 144.093 14.7189 143.533 15.8069 143.032C16.9055 142.53 18.0362 142.104 19.1989 141.752L18.8309 142.424V141.32H11.8869V140.184H21.7429ZM18.8309 142.552L19.1669 143C18.3562 143.266 17.5029 143.597 16.6069 143.992C15.7109 144.376 14.8842 144.802 14.1269 145.272C14.7029 145.4 15.3162 145.618 15.9669 145.928C16.6175 146.237 17.2202 146.626 17.7749 147.096C18.3295 147.565 18.7562 148.109 19.0549 148.728H18.9109C18.8895 148.482 18.8682 148.237 18.8469 147.992C18.8362 147.746 18.8309 147.453 18.8309 147.112L18.8309 142.552ZM15.0069 150.232C14.7402 150.232 14.5109 150.146 14.3189 149.976C14.1375 149.805 14.0469 149.581 14.0469 149.304C14.0469 149.026 14.1375 148.797 14.3189 148.616C14.5109 148.434 14.7402 148.344 15.0069 148.344C15.2735 148.344 15.4975 148.434 15.6789 148.616C15.8709 148.797 15.9669 149.026 15.9669 149.304C15.9669 149.581 15.8709 149.805 15.6789 149.976C15.4975 150.146 15.2735 150.232 15.0069 150.232ZM25.9941 140.184V141.32H24.3141L24.3141 150.136H23.0821L23.0821 142.632C22.9541 142.269 22.7621 141.96 22.5061 141.704C22.2608 141.448 21.9408 141.32 21.5461 141.32H21.4181V140.184H21.6581C21.9141 140.184 22.1808 140.269 22.4581 140.44C22.7355 140.6 22.9595 140.85 23.1301 141.192C23.1195 141.138 23.1088 141.016 23.0981 140.824C23.0875 140.632 23.0821 140.466 23.0821 140.328V139.128H23.9461L24.2981 140.184H25.9941ZM39.949 140.184V141.32H38.269V150.136H37.037V146.248L37.293 147.144C36.941 146.653 36.557 146.21 36.141 145.816C35.725 145.421 35.2983 145.106 34.861 144.872C34.4237 144.637 33.997 144.52 33.581 144.52C33.1863 144.52 32.8503 144.626 32.573 144.84C32.3063 145.042 32.173 145.346 32.173 145.752C32.173 146.072 32.285 146.349 32.509 146.584C32.733 146.808 33.0797 147.01 33.549 147.192L32.941 148.328C32.2903 148.061 31.7783 147.704 31.405 147.256C31.0423 146.797 30.861 146.28 30.861 145.704C30.861 145.181 30.9837 144.749 31.229 144.408C31.485 144.056 31.805 143.794 32.189 143.624C32.5837 143.453 32.9837 143.368 33.389 143.368C33.9437 143.368 34.4503 143.464 34.909 143.656C35.3677 143.848 35.7943 144.109 36.189 144.44C36.5943 144.77 36.9783 145.154 37.341 145.592L37.117 145.656C37.085 145.41 37.0637 145.17 37.053 144.936C37.0423 144.69 37.037 144.445 37.037 144.2V141.32H29.965V140.184H39.949ZM44.1973 140.184V141.32H42.5173V150.136H41.2853V142.632C41.1573 142.269 40.9653 141.96 40.7093 141.704C40.4639 141.448 40.1439 141.32 39.7492 141.32H39.6212V140.184H39.8613C40.1173 140.184 40.3839 140.269 40.6613 140.44C40.9386 140.6 41.1626 140.85 41.3333 141.192C41.3226 141.138 41.3119 141.016 41.3013 140.824C41.2906 140.632 41.2853 140.466 41.2853 140.328V139.128H42.1493L42.5013 140.184H44.1973ZM54.1433 140.184V141.32H52.4633V150.136H51.2313V147.976L51.5193 148.824C51.1459 148.258 50.7673 147.736 50.3833 147.256C50.0099 146.776 49.6099 146.386 49.1833 146.088C48.7673 145.789 48.3086 145.64 47.8073 145.64C47.4126 145.64 47.0766 145.741 46.7993 145.944C46.5326 146.146 46.3993 146.45 46.3993 146.856C46.3993 147.208 46.5273 147.506 46.7833 147.752C47.0393 147.986 47.4179 148.189 47.9193 148.36L47.5193 149.592C46.9433 149.389 46.4739 149.144 46.1113 148.856C45.7593 148.568 45.4979 148.253 45.3273 147.912C45.1672 147.56 45.0872 147.192 45.0872 146.808C45.0872 146.296 45.2099 145.869 45.4553 145.528C45.7113 145.186 46.0313 144.93 46.4153 144.76C46.8099 144.578 47.2046 144.488 47.5993 144.488C48.2393 144.488 48.7993 144.605 49.2793 144.84C49.7699 145.074 50.1966 145.389 50.5593 145.784C50.9326 146.178 51.2686 146.621 51.5673 147.112L51.2953 147.16C51.2739 146.914 51.2579 146.669 51.2473 146.424C51.2366 146.168 51.2313 145.906 51.2313 145.64V141.32H43.8712V140.184H54.1433ZM48.8153 144.968C48.8153 145.032 48.8099 145.096 48.7993 145.16C48.7993 145.224 48.7939 145.288 48.7833 145.352L47.5673 144.984C47.5459 144.365 47.4393 143.869 47.2473 143.496C47.0553 143.122 46.7513 142.84 46.3353 142.648C45.9193 142.445 45.3539 142.306 44.6393 142.232L44.8473 141.08L45.5833 141.288C46.0953 141.33 46.5486 141.437 46.9433 141.608C47.3486 141.768 47.6899 141.997 47.9673 142.296C48.2446 142.594 48.4526 142.968 48.5913 143.416C48.7406 143.853 48.8153 144.37 48.8153 144.968ZM65.8404 140.184V141.32H64.1604V150.136H62.9284V144.776L63.0244 145.192C62.7897 144.85 62.539 144.578 62.2724 144.376C62.0164 144.173 61.7337 144.072 61.4244 144.072C61.2644 144.072 61.099 144.104 60.9284 144.168C60.7684 144.221 60.6297 144.328 60.5124 144.488C60.4057 144.648 60.3524 144.893 60.3524 145.224C60.3524 145.341 60.3524 145.448 60.3524 145.544C60.363 145.629 60.3737 145.714 60.3844 145.8L59.3444 145.88C59.3017 145.442 59.1844 145.074 58.9924 144.776C58.8004 144.466 58.5657 144.232 58.2884 144.072C58.011 143.912 57.7124 143.832 57.3924 143.832C57.1044 143.832 56.859 143.89 56.6564 144.008C56.4537 144.114 56.299 144.264 56.1924 144.456C56.0857 144.637 56.0324 144.845 56.0324 145.08C56.0324 145.506 56.187 145.869 56.4964 146.168C56.8164 146.466 57.2644 146.717 57.8404 146.92L57.4084 148.104C56.8964 147.944 56.4377 147.725 56.0324 147.448C55.627 147.17 55.307 146.829 55.0724 146.424C54.8377 146.018 54.7204 145.549 54.7204 145.016C54.7204 144.536 54.8377 144.125 55.0724 143.784C55.307 143.432 55.6217 143.16 56.0164 142.968C56.411 142.776 56.843 142.68 57.3124 142.68C57.8777 142.68 58.363 142.786 58.7684 143C59.1737 143.202 59.547 143.533 59.8884 143.992L59.6484 144.008C59.755 143.656 59.9577 143.389 60.2564 143.208C60.5657 143.016 60.8857 142.92 61.2164 142.92C61.6004 142.92 61.931 142.994 62.2084 143.144C62.4857 143.293 62.7897 143.506 63.1204 143.784L62.9764 144.024C62.9657 143.8 62.955 143.576 62.9444 143.352C62.9337 143.128 62.9284 142.898 62.9284 142.664V141.32H53.8244V140.184H65.8404ZM84.3524 140.184V141.32H82.7524V150.136H81.5204C81.211 149.506 80.827 148.957 80.3684 148.488C79.9097 148.008 79.419 147.597 78.8964 147.256L79.2964 146.2C79.7017 146.434 80.123 146.754 80.5604 147.16C80.9977 147.565 81.3337 147.976 81.5684 148.392C81.5577 148.232 81.547 148.082 81.5364 147.944C81.5364 147.805 81.531 147.661 81.5204 147.512C81.5204 147.362 81.5204 147.202 81.5204 147.032V141.32H69.8244V140.184H84.3524ZM76.0004 148.68C75.275 148.68 74.5817 148.509 73.9204 148.168C73.259 147.826 72.635 147.25 72.0484 146.44C71.4724 145.618 70.939 144.493 70.4484 143.064L71.6164 142.68C72.0004 143.789 72.4004 144.701 72.8164 145.416C73.243 146.12 73.7177 146.637 74.2404 146.968C74.763 147.298 75.3604 147.464 76.0324 147.464C76.619 147.464 77.0884 147.373 77.4404 147.192C77.803 147 78.0644 146.744 78.2244 146.424C78.3844 146.104 78.4644 145.741 78.4644 145.336C78.4644 144.717 78.2937 144.216 77.9524 143.832C77.6217 143.448 77.2057 143.256 76.7044 143.256C76.3524 143.256 76.0857 143.336 75.9044 143.496C75.723 143.645 75.6324 143.874 75.6324 144.184C75.6324 144.258 75.643 144.36 75.6644 144.488C75.6857 144.616 75.7177 144.733 75.7604 144.84L74.5444 145.08C74.4697 144.856 74.411 144.653 74.3684 144.472C74.3364 144.28 74.3204 144.098 74.3204 143.928C74.3204 143.533 74.427 143.202 74.6404 142.936C74.8644 142.669 75.147 142.472 75.4884 142.344C75.8404 142.205 76.2084 142.136 76.5924 142.136C77.2217 142.136 77.7657 142.28 78.2244 142.568C78.683 142.845 79.0404 143.229 79.2964 143.72C79.5524 144.21 79.6804 144.781 79.6804 145.432C79.6804 146.008 79.547 146.546 79.2804 147.048C79.0137 147.538 78.6084 147.933 78.0644 148.232C77.5204 148.53 76.8324 148.68 76.0004 148.68ZM75.4884 142.696C75.435 142.354 75.275 142.056 75.0084 141.8C74.7524 141.533 74.3737 141.346 73.8724 141.24L74.2564 140.52L74.9764 140.712C75.5844 140.946 76.0217 141.213 76.2884 141.512C76.555 141.81 76.7097 142.189 76.7524 142.648L75.4884 142.696ZM88.6724 140.184V141.32H86.9924V150.136H85.7604V142.472C85.579 142.056 85.371 141.762 85.1364 141.592C84.9124 141.41 84.6457 141.32 84.3364 141.32H84.1764V140.184H84.3364C84.635 140.184 84.9124 140.269 85.1684 140.44C85.435 140.6 85.6537 140.85 85.8244 141.192C85.8137 141.138 85.7977 141.016 85.7764 140.824C85.7657 140.632 85.7604 140.466 85.7604 140.328V139.128H86.6084L86.9764 140.184H88.6724ZM98.6916 140.184V141.32H97.0116V150.136H95.7796C95.3316 149.538 94.8356 149.016 94.2916 148.568C93.7476 148.109 93.1183 147.725 92.4036 147.416C91.689 147.106 90.841 146.882 89.8596 146.744L89.2836 145.288C89.6143 145.064 89.961 144.85 90.3236 144.648C90.6863 144.445 91.0543 144.248 91.4276 144.056C91.8116 143.864 92.185 143.682 92.5476 143.512C92.1423 143.202 91.673 142.93 91.1396 142.696C90.617 142.45 89.9983 142.253 89.2836 142.104L89.7796 141.016L89.8116 141.32H88.3556V140.184L98.6916 140.184ZM95.7796 141.32L90.6756 141.32L90.3396 141.176C90.7876 141.282 91.2356 141.453 91.6836 141.688C92.1423 141.922 92.5636 142.178 92.9476 142.456C93.3423 142.722 93.657 142.978 93.8916 143.224L93.9716 144.12C93.5876 144.29 93.1823 144.477 92.7556 144.68C92.3396 144.882 91.9343 145.085 91.5396 145.288C91.1556 145.49 90.8143 145.693 90.5156 145.896L90.3236 145.656C91.241 145.784 92.041 145.997 92.7236 146.296C93.417 146.594 94.0303 146.957 94.5636 147.384C95.097 147.81 95.5876 148.285 96.0356 148.808L95.8276 148.872C95.817 148.648 95.8063 148.408 95.7956 148.152C95.785 147.885 95.7796 147.634 95.7796 147.4V141.32ZM91.3956 150.232C91.129 150.232 90.8996 150.146 90.7076 149.976C90.5263 149.805 90.4356 149.581 90.4356 149.304C90.4356 149.026 90.5263 148.797 90.7076 148.616C90.8996 148.434 91.129 148.344 91.3956 148.344C91.6623 148.344 91.8863 148.434 92.0676 148.616C92.2596 148.797 92.3556 149.026 92.3556 149.304C92.3556 149.581 92.2596 149.805 92.0676 149.976C91.8863 150.146 91.6623 150.232 91.3956 150.232ZM102.947 140.184V141.32H101.267V150.136L100.035 150.136V142.632C99.9073 142.269 99.7153 141.96 99.4593 141.704C99.2139 141.448 98.8939 141.32 98.4992 141.32H98.3712V140.184H98.6113C98.8673 140.184 99.1339 140.269 99.4113 140.44C99.6886 140.6 99.9126 140.85 100.083 141.192C100.073 141.138 100.062 141.016 100.051 140.824C100.041 140.632 100.035 140.466 100.035 140.328V139.128H100.899L101.251 140.184H102.947ZM109.293 149.336C108.419 149.336 107.603 149.122 106.845 148.696C106.088 148.258 105.405 147.554 104.797 146.584C104.2 145.613 103.683 144.312 103.245 142.68L104.461 142.36C104.835 143.682 105.24 144.77 105.677 145.624C106.125 146.477 106.637 147.106 107.213 147.512C107.8 147.917 108.483 148.12 109.261 148.12C109.763 148.12 110.184 148.061 110.525 147.944C110.867 147.816 111.139 147.64 111.341 147.416C111.555 147.192 111.709 146.936 111.805 146.648C111.901 146.349 111.949 146.029 111.949 145.688C111.949 145.24 111.864 144.834 111.693 144.472C111.523 144.098 111.283 143.805 110.973 143.592C110.664 143.378 110.301 143.272 109.885 143.272C109.459 143.272 109.149 143.362 108.957 143.544C108.776 143.725 108.685 143.965 108.685 144.264C108.685 144.37 108.696 144.482 108.717 144.6C108.739 144.717 108.776 144.85 108.829 145L107.597 145.24C107.533 145.037 107.48 144.84 107.437 144.648C107.405 144.456 107.389 144.258 107.389 144.056C107.389 143.64 107.491 143.293 107.693 143.016C107.907 142.728 108.195 142.509 108.557 142.36C108.931 142.21 109.352 142.136 109.821 142.136C110.483 142.136 111.064 142.29 111.565 142.6C112.067 142.898 112.461 143.32 112.749 143.864C113.037 144.408 113.181 145.037 113.181 145.752C113.181 146.424 113.037 147.032 112.749 147.576C112.472 148.109 112.045 148.536 111.469 148.856C110.893 149.176 110.168 149.336 109.293 149.336ZM114.253 140.184V141.32H102.621V140.184H114.253ZM122.983 150.136C122.076 150.136 121.409 149.944 120.983 149.56C120.567 149.165 120.359 148.706 120.359 148.184C120.359 147.768 120.492 147.384 120.759 147.032C121.025 146.68 121.484 146.413 122.135 146.232L122.599 147.464C122.268 147.538 122.028 147.634 121.879 147.752C121.74 147.869 121.671 148.024 121.671 148.216C121.671 148.429 121.777 148.605 121.991 148.744C122.215 148.872 122.54 148.936 122.967 148.936C123.628 148.936 124.14 148.776 124.503 148.456C124.865 148.136 125.047 147.73 125.047 147.24C125.047 146.92 124.983 146.637 124.855 146.392C124.727 146.136 124.513 145.869 124.215 145.592C123.916 145.314 123.505 144.994 122.983 144.632C122.321 144.162 121.799 143.768 121.415 143.448C121.041 143.128 120.775 142.834 120.615 142.568C120.465 142.29 120.391 141.992 120.391 141.672C120.391 141.426 120.46 141.16 120.599 140.872C120.748 140.573 120.956 140.296 121.223 140.04L122.279 140.6C122.129 140.76 122.007 140.92 121.911 141.08C121.815 141.24 121.767 141.4 121.767 141.56C121.767 141.698 121.788 141.832 121.831 141.96C121.873 142.088 121.964 142.226 122.103 142.376C122.241 142.525 122.444 142.706 122.711 142.92C122.988 143.122 123.351 143.378 123.799 143.688C124.417 144.104 124.908 144.488 125.271 144.84C125.633 145.192 125.889 145.554 126.039 145.928C126.199 146.29 126.279 146.722 126.279 147.224C126.279 147.821 126.135 148.338 125.847 148.776C125.569 149.213 125.18 149.549 124.679 149.784C124.188 150.018 123.623 150.136 122.983 150.136Z" fill="#FFCA3A"/>
<path d="M86.4092 52.957L87.1123 51.3311C87.1416 51.1846 87.1562 50.833 87.1562 50.2764C87.1562 49.5146 87.1123 48.46 87.0244 47.1123C86.9658 45.7646 86.8633 44.0801 86.7168 42.0586C86.3652 34.2949 86.1895 28.6113 86.1895 25.0078C86.1895 18.8262 86.5996 15.0469 87.4199 13.6699H87.5957C87.6836 13.7285 87.8447 14.0068 88.0791 14.5049C88.3135 15.0029 88.5625 15.5596 88.8262 16.1748C89.0898 16.79 89.3242 17.3906 89.5293 17.9766C89.7637 18.5332 89.9102 18.8994 89.9688 19.0752C89.998 19.1924 90.0127 19.3828 90.0127 19.6465C90.0127 19.9688 89.9688 20.3496 89.8809 20.7891C89.793 21.2285 89.7051 21.6826 89.6172 22.1514C89.5293 22.5908 89.4414 23.001 89.3535 23.3818C89.2656 23.7627 89.2217 24.041 89.2217 24.2168C89.2217 24.8027 89.251 25.7109 89.3096 26.9414C89.3975 28.1719 89.4707 29.4756 89.5293 30.8525C89.6172 32.2002 89.6904 33.5039 89.749 34.7637C89.8369 36.0234 89.8809 36.9756 89.8809 37.6201L89.749 45.0469C91.624 42.5566 93.4258 40.7256 95.1543 39.5537C96.9121 38.3525 98.626 37.752 100.296 37.752C101.995 37.752 103.387 38.0303 104.471 38.5869C105.584 39.1143 106.463 39.8174 107.107 40.6963C107.752 41.5459 108.206 42.498 108.47 43.5527C108.733 44.6074 108.865 45.6328 108.865 46.6289C108.865 47.2734 108.689 48.1816 108.338 49.3535C108.016 50.4961 107.605 51.668 107.107 52.8691C106.609 54.0703 106.067 55.1689 105.481 56.165C104.925 57.1318 104.397 57.7617 103.899 58.0547C99.7393 60.6035 94.876 61.8779 89.3096 61.8779C88.167 61.8779 86.9219 61.8486 85.5742 61.79C84.2559 61.7314 82.791 61.5996 81.1797 61.3945C80.9453 60.7793 80.7402 60.1641 80.5645 59.5488C80.3594 58.9336 80.2568 58.2012 80.2568 57.3516C80.2568 56.7363 80.3301 56.0479 80.4766 55.2861C80.623 54.4951 80.8574 53.5869 81.1797 52.5615C82.2637 52.8545 83.5381 53.001 85.0029 53.001C85.2373 53.001 85.4717 53.001 85.7061 53.001C85.9404 53.001 86.1748 52.9863 86.4092 52.957ZM106.8 48.167C104.749 46.1162 102.464 45.0908 99.9443 45.0908C96.1064 45.0908 92.752 47.0977 89.8809 51.1113C89.3828 51.8145 89.1484 52.2979 89.1777 52.5615C89.1777 52.6787 89.3096 52.7959 89.5732 52.9131C89.8369 53.0303 90.1738 53.1475 90.584 53.2646C91.0234 53.3525 91.4922 53.4404 91.9902 53.5283C92.4883 53.5869 92.957 53.6162 93.3965 53.6162C94.3047 53.6162 95.3447 53.4844 96.5166 53.2207C97.7178 52.957 98.9189 52.6055 100.12 52.166C101.351 51.6973 102.537 51.1699 103.68 50.584C104.822 49.9688 105.818 49.3096 106.668 48.6064C106.814 48.5186 106.888 48.4307 106.888 48.3428C106.888 48.3428 106.858 48.2842 106.8 48.167Z" fill="white"/>
<path d="M98.8457 9.54004C98.875 9.8623 98.8896 10.1846 98.8896 10.5068C98.8896 10.7998 98.8896 11.0928 98.8896 11.3857C98.8896 12.0303 98.8604 12.6016 98.8018 13.0996C98.7725 13.5977 98.6846 14.1104 98.5381 14.6377C98.4209 15.1357 98.2451 15.6924 98.0107 16.3076C97.7764 16.8936 97.4688 17.626 97.0879 18.5049C96.5605 19.7646 96.0625 20.3945 95.5938 20.3945C95.4766 20.3945 95.3887 20.3359 95.3301 20.2188C95.3008 20.0723 95.2861 19.7939 95.2861 19.3838C95.2861 19.208 95.2861 19.0322 95.2861 18.8564C95.2861 18.6807 95.3008 18.4609 95.3301 18.1973C95.3594 17.9336 95.3887 17.6113 95.418 17.2305C95.4766 16.8496 95.5352 16.3516 95.5938 15.7363V15.0332C95.5938 12.7773 95.0371 10.082 93.9238 6.94727C94.9785 3.31445 95.7256 1.04395 96.165 0.135742C96.6631 0.165039 97.1172 1.16113 97.5273 3.12402C98.2305 4.55957 98.6699 6.69824 98.8457 9.54004Z" fill="white"/>
<path d="M81.1357 61.3945C81.0479 61.4238 80.8867 61.4385 80.6523 61.4385C80.1836 61.4385 79.6123 61.4092 78.9385 61.3506C78.2646 61.2627 77.5322 61.0723 76.7412 60.7793C75.9795 60.4863 75.1738 60.0615 74.3242 59.5049C73.4746 58.9189 72.6543 58.1426 71.8633 57.1758C71.5996 57.3223 70.8525 58.2744 69.6221 60.0322C68.626 61.4678 67.5127 62.1855 66.2822 62.1855C64.29 62.1855 62.4004 60.8672 60.6133 58.2305C60.5547 57.9668 60.3789 57.7324 60.0859 57.5273C59.9688 57.5273 59.8516 57.6006 59.7344 57.7471C59.6465 57.8936 59.5 58.1133 59.2949 58.4062C58.5039 59.5195 57.6104 60.3691 56.6143 60.9551C55.6475 61.541 54.6221 61.8926 53.5381 62.0098C53.4795 62.0098 53.0986 61.9805 52.3955 61.9219C51.7217 61.8633 50.7109 61.7754 49.3633 61.6582C49.0996 63.1523 48.7188 64.7783 48.2207 66.5361C47.752 68.3232 47.1807 70.2861 46.5068 72.4248C41.4092 80.5986 34.5391 84.6855 25.8965 84.6855C23.6406 84.6855 21.3848 84.4219 19.1289 83.8945C16.9023 83.3965 14.8809 82.5029 13.0645 81.2139C11.2773 79.9541 9.8125 78.2549 8.66992 76.1162C7.55664 73.9775 7 71.2676 7 67.9863C7 66.7266 7.04395 65.4668 7.13184 64.207C7.21973 62.9473 7.39551 61.6582 7.65918 60.3398C7.92285 58.9922 8.27441 57.6152 8.71387 56.209C9.18262 54.8027 9.7832 53.3232 10.5156 51.7705C11.541 49.6025 12.4053 48.5186 13.1084 48.5186C13.2256 48.5186 13.3135 48.5479 13.3721 48.6064L13.5479 48.8701C13.5479 48.8115 13.46 48.9873 13.2842 49.3975C13.1377 49.7783 12.9473 50.2764 12.7129 50.8916C12.4785 51.5068 12.2295 52.1807 11.9658 52.9131C11.7021 53.6162 11.4531 54.29 11.2188 54.9346C10.9844 55.5498 10.7939 56.0625 10.6475 56.4727C10.501 56.8828 10.4277 57.0879 10.4277 57.0879C10.0469 58.3184 9.85645 59.6807 9.85645 61.1748C9.85645 63.5771 10.2666 65.7158 11.0869 67.5908C11.9365 69.4951 13.1084 71.1064 14.6025 72.4248C16.126 73.7432 17.9424 74.7393 20.0518 75.4131C22.1611 76.1162 24.5049 76.4678 27.083 76.4678C30.9502 76.4678 34.9346 75.3691 39.0361 73.1719C44.4854 70.2422 47.21 67.2393 47.21 64.1631C47.21 63.7236 47.0781 63.0938 46.8145 62.2734C46.5801 61.4824 46.3018 60.6621 45.9795 59.8125C45.6572 58.9336 45.3496 58.1133 45.0566 57.3516C44.793 56.5898 44.6465 56.0479 44.6172 55.7256C44.5586 55.2861 44.5146 54.8613 44.4854 54.4512C44.4561 54.0117 44.4414 53.5869 44.4414 53.1768C44.4414 52.8838 44.4561 52.4297 44.4854 51.8145C44.5439 51.1992 44.6172 50.584 44.7051 49.9688C44.8223 49.3535 44.9688 48.8262 45.1445 48.3867C45.3203 47.918 45.5254 47.6836 45.7598 47.6836C45.9941 47.6836 46.1699 47.7422 46.2871 47.8594C46.4043 47.9473 46.5947 48.3721 46.8584 49.1338C47.9717 52.2686 50.3447 53.8359 53.9775 53.8359C54.915 53.8359 55.8086 53.6309 56.6582 53.2207C57.5371 52.7812 58.3574 52.1221 59.1191 51.2432L62.1514 47.7275L62.7227 47.9912C62.7227 48.2549 62.7227 48.5771 62.7227 48.958C62.752 49.3096 62.8252 49.7051 62.9424 50.1445C63.0889 50.584 63.3086 51.0234 63.6016 51.4629C63.8945 51.9023 64.3047 52.3125 64.832 52.6934C65.7402 53.3379 66.5898 53.6602 67.3809 53.6602C68.6113 53.6602 69.7832 52.6641 70.8965 50.6719C72.2148 48.2988 73.0205 47.0098 73.3135 46.8047L74.3242 47.2441V47.5957C74.3242 48.2402 74.4121 48.9727 74.5879 49.793C75.7012 51.6094 77.8838 52.5322 81.1357 52.5615C81.4287 53.1768 81.7217 53.8359 82.0146 54.5391C82.3369 55.2129 82.498 56.0039 82.498 56.9121C82.498 57.5273 82.3955 58.2012 82.1904 58.9336C81.9854 59.666 81.6338 60.4863 81.1357 61.3945Z" fill="white"/>
<path d="M49.8467 29.9434H49.7588C49.6709 29.8555 49.5977 29.6211 49.5391 29.2402C49.5098 28.8887 49.4658 28.5078 49.4072 28.0977C49.3779 27.7168 49.3486 27.3652 49.3193 27.043C49.29 26.7207 49.2607 26.5303 49.2314 26.4717C48.9971 26.0615 48.5723 25.4316 47.957 24.582C47.3418 23.7031 46.5215 22.6924 45.4961 21.5498C45.5547 21.5498 45.833 20.7295 46.3311 19.0889C46.3896 18.7666 46.5947 18.4004 46.9463 17.9902C47.2393 18.2539 47.8105 18.6787 48.6602 19.2646C49.5391 19.8506 50.4766 20.4512 51.4727 21.0664C52.4688 21.6523 53.4062 22.1797 54.2852 22.6484C55.1641 23.0879 55.7793 23.3076 56.1309 23.3076C58.7969 23.3076 60.1885 23.2783 60.3057 23.2197C61.7119 22.9854 62.8252 22.7949 63.6455 22.6484C64.4951 22.502 65.0371 22.3994 65.2715 22.3408C66.1797 22.1357 66.9414 21.9307 67.5566 21.7256C68.1719 21.4912 68.7139 21.2275 69.1826 20.9346C69.6807 20.6123 70.1348 20.2461 70.5449 19.8359C70.9844 19.3965 71.4678 18.8398 71.9951 18.166H72.3906C72.4492 18.3418 72.4785 18.459 72.4785 18.5176C72.4785 18.752 72.4199 19.0596 72.3027 19.4404C72.2148 19.792 72.0537 20.1875 71.8193 20.627C71.6143 21.0664 71.3213 21.5352 70.9404 22.0332C70.5596 22.5312 70.1055 23.0146 69.5781 23.4834C66.7656 25.9736 62.2979 27.2188 56.1748 27.2188C55.8525 27.2188 55.5449 27.2041 55.252 27.1748C54.959 27.1162 54.6367 27.0576 54.2852 26.999C53.9629 26.9111 53.582 26.8232 53.1426 26.7354C52.7031 26.6475 52.1904 26.5596 51.6045 26.4717C51.5459 26.4717 51.4287 26.6475 51.2529 26.999C51.1064 27.3506 50.9307 27.7461 50.7256 28.1855C50.5498 28.625 50.374 29.0205 50.1982 29.3721C50.0225 29.7529 49.9053 29.9434 49.8467 29.9434Z" fill="white"/>
</svg>
