<svg width="385" height="103" viewBox="0 0 385 103" fill="none" xmlns="http://www.w3.org/2000/svg">
<path d="M16.9405 8.426V9.633H15.1555V19H13.8465V9.633H12.0785V8.426H13.6425C13.4612 8.21067 13.2742 7.984 13.0815 7.746C12.9002 7.508 12.7359 7.27 12.5885 7.032C12.9739 6.36333 13.3875 5.757 13.8295 5.213C14.2715 4.65767 14.7929 4.22133 15.3935 3.904C15.9942 3.57533 16.7195 3.411 17.5695 3.411C18.1702 3.411 18.7425 3.48467 19.2865 3.632C19.8419 3.77933 20.3859 3.99467 20.9185 4.278C21.4512 4.55 21.9895 4.88433 22.5335 5.281C23.0775 5.66633 23.6442 6.097 24.2335 6.573L23.5195 7.491C22.7375 6.85633 22.0292 6.32933 21.3945 5.91C20.7712 5.49067 20.1705 5.179 19.5925 4.975C19.0259 4.75967 18.4195 4.652 17.7735 4.652C17.1502 4.652 16.6062 4.75967 16.1415 4.975C15.6882 5.19033 15.2915 5.49067 14.9515 5.876C14.6229 6.26133 14.3225 6.709 14.0505 7.219C14.1412 7.389 14.2659 7.576 14.4245 7.78C14.5832 7.984 14.7645 8.19933 14.9685 8.426H16.9405ZM27.0662 8.426V9.633H25.2812V19H23.9722C23.6322 18.32 23.1618 17.6967 22.5612 17.13C21.9718 16.552 21.2918 16.0647 20.5212 15.668C19.7505 15.2713 18.9288 15.005 18.0562 14.869L17.3932 13.237C18.4812 12.5797 19.6032 11.9847 20.7592 11.452C21.9265 10.9193 23.1278 10.466 24.3632 10.092L23.9722 10.806V9.633H16.5942V8.426H27.0662ZM23.9722 10.942L24.3292 11.418C23.4678 11.7013 22.5612 12.0527 21.6092 12.472C20.6572 12.88 19.7788 13.3333 18.9742 13.832C19.5862 13.968 20.2378 14.2003 20.9292 14.529C21.6205 14.8577 22.2608 15.2713 22.8502 15.77C23.4395 16.2687 23.8928 16.8467 24.2102 17.504H24.0572C24.0345 17.2433 24.0118 16.9827 23.9892 16.722C23.9778 16.4613 23.9722 16.1497 23.9722 15.787V10.942ZM31.5831 8.426V9.633H29.7981V19H28.4891V9.633H26.7211V8.426H28.2851C28.1038 8.21067 27.9168 7.984 27.7241 7.746C27.5428 7.508 27.3784 7.27 27.2311 7.032C27.6164 6.36333 28.0301 5.757 28.4721 5.213C28.9141 4.65767 29.4354 4.22133 30.0361 3.904C30.6368 3.57533 31.3621 3.411 32.2121 3.411C32.8128 3.411 33.3851 3.48467 33.9291 3.632C34.4844 3.77933 35.0284 3.99467 35.5611 4.278C36.0938 4.55 36.6321 4.88433 37.1761 5.281C37.7201 5.66633 38.2868 6.097 38.8761 6.573L38.1621 7.491C37.3801 6.85633 36.6718 6.32933 36.0371 5.91C35.4138 5.49067 34.8131 5.179 34.2351 4.975C33.6684 4.75967 33.0621 4.652 32.4161 4.652C31.7928 4.652 31.2488 4.75967 30.7841 4.975C30.3308 5.19033 29.9341 5.49067 29.5941 5.876C29.2654 6.26133 28.9651 6.709 28.6931 7.219C28.7838 7.389 28.9084 7.576 29.0671 7.78C29.2258 7.984 29.4071 8.19933 29.6111 8.426H31.5831ZM38.5807 18.269C37.8441 18.269 37.1527 18.15 36.5067 17.912C35.8607 17.674 35.2544 17.2773 34.6877 16.722C34.1324 16.1667 33.6224 15.43 33.1577 14.512C32.6931 13.594 32.2737 12.455 31.8997 11.095L33.1917 10.755C33.5997 12.251 34.0587 13.458 34.5687 14.376C35.0901 15.2827 35.6737 15.9457 36.3197 16.365C36.9771 16.773 37.7194 16.977 38.5467 16.977C39.1474 16.977 39.6574 16.8693 40.0767 16.654C40.5074 16.4387 40.8361 16.144 41.0627 15.77C41.2894 15.3847 41.4027 14.9483 41.4027 14.461C41.4027 14.121 41.3687 13.815 41.3007 13.543C41.2327 13.271 41.1364 13.0273 41.0117 12.812C40.8984 12.5853 40.7681 12.3927 40.6207 12.234L41.4367 10.908C41.8674 11.5313 42.1847 12.1377 42.3887 12.727C42.5927 13.3163 42.6947 13.9 42.6947 14.478C42.6947 15.192 42.5361 15.838 42.2187 16.416C41.9014 16.9827 41.4367 17.436 40.8247 17.776C40.2241 18.1047 39.4761 18.269 38.5807 18.269ZM37.9347 14.172C37.2207 14.172 36.6597 13.9963 36.2517 13.645C35.8437 13.2823 35.6397 12.7893 35.6397 12.166C35.6397 11.9053 35.6794 11.6503 35.7587 11.401C35.8381 11.1403 35.9231 10.9193 36.0137 10.738L37.3737 11.146C37.2944 11.2593 37.2207 11.401 37.1527 11.571C37.0847 11.741 37.0507 11.9167 37.0507 12.098C37.0507 12.404 37.1357 12.625 37.3057 12.761C37.4757 12.897 37.6967 12.965 37.9687 12.965C38.2067 12.965 38.4447 12.9197 38.6827 12.829C38.9207 12.7383 39.1757 12.5627 39.4477 12.302C39.7311 12.03 40.0371 11.622 40.3657 11.078L41.4367 10.908L41.3007 11.826C40.9947 12.336 40.6717 12.7667 40.3317 13.118C40.0031 13.458 39.6404 13.7187 39.2437 13.9C38.8584 14.0813 38.4221 14.172 37.9347 14.172ZM43.8337 8.426V9.633H31.2367V8.426H43.8337ZM54.0967 8.426V9.633H52.3117V15.719H51.0027V13.679L51.2237 14.699C50.7704 14.1437 50.3114 13.6563 49.8467 13.237C49.382 12.8063 48.9174 12.4663 48.4527 12.217C47.9994 11.9677 47.5347 11.843 47.0587 11.843C46.6734 11.843 46.373 11.9337 46.1577 12.115C45.9424 12.2963 45.8347 12.5457 45.8347 12.863C45.8347 13.1123 45.9197 13.3503 46.0897 13.577C46.271 13.7923 46.5827 13.985 47.0247 14.155L46.3957 15.362C45.8064 15.1013 45.3304 14.75 44.9677 14.308C44.6164 13.866 44.4407 13.356 44.4407 12.778C44.4407 12.336 44.5427 11.9563 44.7467 11.639C44.962 11.3103 45.251 11.061 45.6137 10.891C45.9877 10.7097 46.407 10.619 46.8717 10.619C47.495 10.619 48.0617 10.7323 48.5717 10.959C49.093 11.1743 49.5804 11.4747 50.0337 11.86C50.487 12.2453 50.929 12.6817 51.3597 13.169L51.0537 13.152C51.0424 12.948 51.031 12.7213 51.0197 12.472C51.0084 12.2227 51.0027 11.9733 51.0027 11.724V9.633H43.4887V8.426H54.0967ZM47.4667 15.532C48.09 15.532 48.651 15.6567 49.1497 15.906C49.6484 16.144 50.113 16.4783 50.5437 16.909C50.9744 17.3283 51.3937 17.81 51.8017 18.354L51.5127 19.714C51.1387 19.1813 50.742 18.694 50.3227 18.252C49.9147 17.7987 49.484 17.436 49.0307 17.164C48.5887 16.8807 48.124 16.739 47.6367 16.739C47.2967 16.739 47.036 16.8127 46.8547 16.96C46.6847 17.096 46.5997 17.2887 46.5997 17.538C46.5997 17.7647 46.6847 17.9573 46.8547 18.116C47.036 18.2633 47.3137 18.405 47.6877 18.541L47.0927 19.714C46.7187 19.578 46.39 19.3967 46.1067 19.17C45.8347 18.9547 45.6194 18.7053 45.4607 18.422C45.302 18.1387 45.2227 17.8383 45.2227 17.521C45.2227 17.0903 45.3304 16.7277 45.5457 16.433C45.761 16.1383 46.0387 15.9173 46.3787 15.77C46.7187 15.6113 47.0814 15.532 47.4667 15.532ZM52.3117 15.549V19.731H51.0027V18.473L51.0537 17.742C51.031 17.47 51.014 17.198 51.0027 16.926C51.0027 16.6427 51.0027 16.3593 51.0027 16.076V15.566L52.3117 15.549ZM63.0265 8.426V9.633H61.2415V19H59.9325V9.633H58.1645V8.426H59.7285C59.5471 8.21067 59.3601 7.97833 59.1675 7.729C58.9861 7.47967 58.8218 7.236 58.6745 6.998C59.1278 6.32933 59.6151 5.723 60.1365 5.179C60.6691 4.635 61.2868 4.20433 61.9895 3.887C62.7035 3.56967 63.5535 3.411 64.5395 3.411C65.2761 3.411 65.9675 3.48467 66.6135 3.632C67.2708 3.768 67.9111 3.972 68.5345 4.244C69.1578 4.516 69.7868 4.839 70.4215 5.213C71.0561 5.587 71.7191 6.012 72.4105 6.488L71.7305 7.44C71.0051 6.964 70.3478 6.55033 69.7585 6.199C69.1805 5.84767 68.6251 5.55867 68.0925 5.332C67.5598 5.10533 67.0215 4.93533 66.4775 4.822C65.9448 4.70867 65.3611 4.652 64.7265 4.652C63.9445 4.652 63.2758 4.76533 62.7205 4.992C62.1651 5.21867 61.6835 5.52467 61.2755 5.91C60.8675 6.29533 60.4935 6.73167 60.1535 7.219C60.2328 7.389 60.3518 7.576 60.5105 7.78C60.6691 7.984 60.8505 8.19933 61.0545 8.426H63.0265ZM75.8551 8.426V9.633H74.0701V19H72.7611V12.268L73.1351 13.356C72.6704 12.676 72.2454 12.098 71.8601 11.622C71.4748 11.1347 71.1064 10.738 70.7551 10.432C70.4151 10.126 70.0694 9.905 69.7181 9.769C69.3668 9.62167 68.9871 9.548 68.5791 9.548C68.1258 9.548 67.7121 9.633 67.3381 9.803C66.9754 9.973 66.6411 10.1997 66.3351 10.483C66.0291 10.7663 65.7458 11.0723 65.4851 11.401L65.3491 11.435C65.5304 11.3217 65.7061 11.2367 65.8761 11.18C66.0574 11.1233 66.2558 11.095 66.4711 11.095C67.1398 11.095 67.6214 11.2763 67.9161 11.639C68.2221 11.9903 68.3751 12.4267 68.3751 12.948C68.3751 13.0727 68.3694 13.1917 68.3581 13.305C68.3468 13.4183 68.3298 13.5033 68.3071 13.56L68.0181 13.458C68.1541 13.3107 68.2844 13.169 68.4091 13.033C68.5338 12.897 68.6641 12.761 68.8001 12.625C68.9474 12.489 69.0948 12.3473 69.2421 12.2L71.3501 10.228L72.1831 11.129L67.3551 15.685L66.3521 14.75L67.7461 13.424L67.1341 14.155L66.6241 14.546C66.7941 14.3533 66.9358 14.1493 67.0491 13.934C67.1738 13.7073 67.2361 13.4523 67.2361 13.169C67.2361 12.8857 67.1511 12.659 66.9811 12.489C66.8111 12.319 66.5618 12.234 66.2331 12.234C66.0518 12.234 65.8761 12.2567 65.7061 12.302C65.5361 12.3473 65.3604 12.4267 65.1791 12.54L63.8871 11.316C64.3404 10.7153 64.8051 10.194 65.2811 9.752C65.7571 9.29867 66.2558 8.94733 66.7771 8.698C67.2984 8.43733 67.8594 8.307 68.4601 8.307C69.0948 8.307 69.6614 8.426 70.1601 8.664C70.6701 8.902 71.1631 9.259 71.6391 9.735C72.1264 10.1997 72.6308 10.789 73.1521 11.503L72.8461 11.418C72.8121 11.146 72.7894 10.8513 72.7781 10.534C72.7668 10.2167 72.7611 9.87667 72.7611 9.514V7.304H73.6621L74.0531 8.426H75.8551ZM74.0701 19.731H72.7951C72.6818 19.391 72.5344 19.1133 72.3531 18.898C72.1831 18.6827 71.9791 18.524 71.7411 18.422C71.5031 18.32 71.2311 18.269 70.9251 18.269C70.3358 18.269 69.7634 18.32 69.2081 18.422C68.6641 18.5127 68.0691 18.558 67.4231 18.558C67.0151 18.558 66.5901 18.5183 66.1481 18.439C65.7061 18.3597 65.2924 18.2123 64.9071 17.997C64.5218 17.7817 64.2101 17.4643 63.9721 17.045C63.7341 16.6257 63.6151 16.076 63.6151 15.396C63.6151 15.2147 63.6264 15.0107 63.6491 14.784C63.6718 14.5573 63.7114 14.3363 63.7681 14.121L65.0771 14.291C65.0318 14.427 64.9978 14.597 64.9751 14.801C64.9524 14.9937 64.9411 15.1977 64.9411 15.413C64.9411 15.8777 65.0374 16.2517 65.2301 16.535C65.4341 16.8183 65.7231 17.0223 66.0971 17.147C66.4711 17.2717 66.9131 17.334 67.4231 17.334C67.9558 17.334 68.4828 17.2887 69.0041 17.198C69.5254 17.096 70.0694 17.045 70.6361 17.045C71.0668 17.045 71.4634 17.1187 71.8261 17.266C72.1888 17.402 72.5004 17.6343 72.7611 17.963V16.433H74.0701V19.731ZM81.7351 8.426V9.633H81.3951C81.0438 9.71233 80.6641 9.888 80.2561 10.16C79.8481 10.4207 79.4628 10.7663 79.1001 11.197C78.7374 11.6163 78.4371 12.1093 78.1991 12.676C77.9724 13.2427 77.8591 13.866 77.8591 14.546C77.8591 15.362 77.9781 16.0137 78.2161 16.501C78.4654 16.977 78.7714 17.317 79.1341 17.521C79.4968 17.725 79.8594 17.827 80.2221 17.827C80.5054 17.827 80.7434 17.7987 80.9361 17.742C81.1288 17.6853 81.3498 17.5833 81.5991 17.436L82.1941 18.473C81.8994 18.6997 81.5764 18.8583 81.2251 18.949C80.8738 19.0397 80.5224 19.085 80.1711 19.085C79.4571 19.085 78.8224 18.898 78.2671 18.524C77.7231 18.15 77.2924 17.6287 76.9751 16.96C76.6691 16.28 76.5161 15.4867 76.5161 14.58C76.5161 13.6507 76.6918 12.812 77.0431 12.064C77.3944 11.3047 77.8648 10.6643 78.4541 10.143C79.0548 9.62167 79.7178 9.242 80.4431 9.004L79.3551 9.565C79.1511 9.58767 78.9301 9.60467 78.6921 9.616C78.4541 9.62733 78.1878 9.633 77.8931 9.633H75.5131V8.426H81.7351ZM84.8241 10.993C85.3341 10.993 85.7931 11.078 86.2011 11.248C86.6091 11.4067 86.9887 11.6333 87.3401 11.928C87.6914 12.2113 88.0314 12.54 88.3601 12.914L88.3431 14.444C87.8671 13.8207 87.3401 13.2937 86.7621 12.863C86.1841 12.4323 85.6231 12.217 85.0791 12.217C84.7051 12.217 84.3877 12.3133 84.1271 12.506C83.8664 12.6987 83.7361 12.9877 83.7361 13.373C83.7361 13.679 83.8381 13.9397 84.0421 14.155C84.2574 14.3703 84.5747 14.5687 84.9941 14.75L84.3651 15.957C83.7304 15.685 83.2317 15.3223 82.8691 14.869C82.5177 14.4157 82.3421 13.9 82.3421 13.322C82.3421 12.7893 82.4667 12.353 82.7161 12.013C82.9654 11.673 83.2771 11.418 83.6511 11.248C84.0364 11.078 84.4274 10.993 84.8241 10.993ZM96.1461 8.426V9.633H89.2441V15.515C89.2441 16.0137 89.2724 16.365 89.3291 16.569C89.3857 16.773 89.4537 16.9203 89.5331 17.011C89.7371 17.249 90.0487 17.368 90.4681 17.368C90.9101 17.368 91.3294 17.2603 91.7261 17.045C92.1227 16.8297 92.4684 16.5633 92.7631 16.246C93.0917 15.8947 93.3411 15.5207 93.5111 15.124C93.6924 14.7273 93.7831 14.325 93.7831 13.917C93.7831 13.5543 93.6924 13.2823 93.5111 13.101C93.3297 12.9083 93.0294 12.812 92.6101 12.812C92.4741 12.812 92.3267 12.8233 92.1681 12.846C92.0094 12.8687 91.8564 12.897 91.7091 12.931L91.5221 11.724C91.7374 11.6673 91.9584 11.622 92.1851 11.588C92.4231 11.554 92.6724 11.537 92.9331 11.537C93.3524 11.537 93.7264 11.6163 94.0551 11.775C94.3837 11.9337 94.6387 12.183 94.8201 12.523C95.0127 12.863 95.1091 13.305 95.1091 13.849C95.1091 14.5177 94.9447 15.1693 94.6161 15.804C94.2874 16.4273 93.8737 16.9543 93.3751 17.385C92.9557 17.7477 92.4967 18.0423 91.9981 18.269C91.5107 18.4843 90.9724 18.592 90.3831 18.592C89.9637 18.592 89.6011 18.5297 89.2951 18.405C89.0004 18.2803 88.7567 18.1217 88.5641 17.929C88.3827 17.7137 88.2297 17.453 88.1051 17.147C87.9917 16.841 87.9351 16.3763 87.9351 15.753V13.271L88.0031 12.829C87.9804 12.6023 87.9634 12.3813 87.9521 12.166C87.9407 11.9393 87.9351 11.7013 87.9351 11.452V9.633H81.3901V8.426H96.1461ZM93.0351 8.426C93.0237 7.96133 92.9104 7.627 92.6951 7.423C92.4911 7.219 92.1511 7.117 91.6751 7.117H90.0771C89.3404 7.117 88.7681 7.066 88.3601 6.964C87.9634 6.862 87.6234 6.70333 87.3401 6.488C87.0341 6.26133 86.8017 5.97233 86.6431 5.621C86.4957 5.25833 86.4221 4.85033 86.4221 4.397C86.4221 4.24967 86.4277 4.108 86.4391 3.972C86.4617 3.82467 86.4844 3.666 86.5071 3.496L87.7651 3.581C87.7424 3.70567 87.7254 3.819 87.7141 3.921C87.7027 4.01167 87.6971 4.11367 87.6971 4.227C87.6971 4.47633 87.7197 4.69733 87.7651 4.89C87.8217 5.08267 87.9067 5.24133 88.0201 5.366C88.1787 5.54733 88.4054 5.68333 88.7001 5.774C89.0061 5.85333 89.4367 5.893 89.9921 5.893H91.3181C91.9187 5.893 92.3947 5.93833 92.7461 6.029C93.0974 6.11967 93.3977 6.284 93.6471 6.522C93.8397 6.70333 93.9871 6.95267 94.0891 7.27C94.1911 7.576 94.2477 7.96133 94.2591 8.426H93.0351ZM112.15 8.426V9.633H110.365V19H109.056V12.999L109.447 14.07C109.096 13.6053 108.79 13.2483 108.529 12.999C108.28 12.7497 108.036 12.625 107.798 12.625C107.64 12.625 107.492 12.6703 107.356 12.761C107.22 12.8517 107.067 13.0273 106.897 13.288C106.727 13.5373 106.501 13.9227 106.217 14.444C105.911 14.9993 105.634 15.4583 105.384 15.821C105.135 16.1723 104.869 16.433 104.585 16.603C104.313 16.7617 103.979 16.841 103.582 16.841C103.276 16.841 102.982 16.7787 102.698 16.654C102.426 16.5293 102.149 16.3253 101.865 16.042C101.593 15.7473 101.299 15.3507 100.981 14.852L102.018 14.223C102.324 14.767 102.579 15.124 102.783 15.294C102.987 15.464 103.208 15.549 103.446 15.549C103.639 15.549 103.82 15.4923 103.99 15.379C104.172 15.2543 104.364 15.0447 104.568 14.75C104.784 14.4553 105.027 14.053 105.299 13.543L105.69 12.982C105.985 12.37 106.268 11.9507 106.54 11.724C106.812 11.486 107.113 11.367 107.441 11.367C107.815 11.367 108.15 11.4747 108.444 11.69C108.75 11.894 109.102 12.2113 109.498 12.642L109.158 12.659C109.113 12.3983 109.085 12.1547 109.073 11.928C109.062 11.69 109.056 11.452 109.056 11.214V9.633H100.216V8.426H112.15ZM104.993 14.393C104.88 13.6223 104.761 13.0103 104.636 12.557C104.523 12.1037 104.319 11.7523 104.024 11.503C103.741 11.2423 103.356 11.0497 102.868 10.925C102.381 10.789 101.769 10.6757 101.032 10.585L101.287 9.293L102.205 9.633C102.851 9.735 103.39 9.86533 103.82 10.024C104.251 10.1827 104.597 10.3923 104.857 10.653C105.129 10.9023 105.333 11.214 105.469 11.588C105.605 11.962 105.696 12.4153 105.741 12.948L104.993 14.393ZM116.666 8.426V9.633H114.881V19H113.572V11.027C113.436 10.6417 113.232 10.313 112.96 10.041C112.699 9.769 112.359 9.633 111.94 9.633H111.804V8.426H112.059C112.331 8.426 112.614 8.51667 112.909 8.698C113.204 8.868 113.442 9.13433 113.623 9.497C113.612 9.44033 113.6 9.31 113.589 9.106C113.578 8.902 113.572 8.72633 113.572 8.579V7.304H114.49L114.864 8.426H116.666ZM121.182 8.426V9.633H119.397V19H118.088V9.633H116.32V8.426H117.884C117.702 8.21067 117.515 7.984 117.323 7.746C117.141 7.508 116.977 7.27 116.83 7.032C117.215 6.36333 117.629 5.757 118.071 5.213C118.513 4.65767 119.034 4.22133 119.635 3.904C120.235 3.57533 120.961 3.411 121.811 3.411C122.411 3.411 122.984 3.48467 123.528 3.632C124.083 3.77933 124.627 3.99467 125.16 4.278C125.692 4.55 126.231 4.88433 126.775 5.281C127.319 5.66633 127.885 6.097 128.475 6.573L127.761 7.491C126.979 6.85633 126.27 6.32933 125.636 5.91C125.012 5.49067 124.412 5.179 123.834 4.975C123.267 4.75967 122.661 4.652 122.015 4.652C121.391 4.652 120.847 4.75967 120.383 4.975C119.929 5.19033 119.533 5.49067 119.193 5.876C118.864 6.26133 118.564 6.709 118.292 7.219C118.382 7.389 118.507 7.576 118.666 7.78C118.824 7.984 119.006 8.19933 119.21 8.426H121.182ZM134.894 8.426V9.633H129.369V10.687V10.959V19H128.06C127.732 18.3313 127.273 17.7023 126.683 17.113C126.094 16.5237 125.42 16.0307 124.66 15.634C123.912 15.226 123.125 14.971 122.297 14.869L121.634 13.237C122.734 12.6023 123.833 12.0357 124.932 11.537C126.032 11.0383 127.199 10.5963 128.434 10.211L128.06 10.925V9.633H120.835V8.426H134.894ZM128.06 11.061L128.417 11.554C127.839 11.7127 127.239 11.9223 126.615 12.183C126.003 12.4437 125.403 12.7157 124.813 12.999C124.235 13.2823 123.703 13.56 123.215 13.832C123.85 13.9567 124.502 14.1947 125.17 14.546C125.85 14.8973 126.468 15.328 127.023 15.838C127.59 16.3367 128.009 16.8807 128.281 17.47L128.145 17.504C128.123 17.2433 128.1 16.9827 128.077 16.722C128.066 16.4613 128.06 16.1497 128.06 15.787V11.061ZM133.942 14.104C133.942 14.478 133.869 14.835 133.721 15.175C133.574 15.5037 133.33 15.7757 132.99 15.991C132.65 16.2063 132.197 16.314 131.63 16.314C131.449 16.314 131.273 16.3083 131.103 16.297C130.945 16.2857 130.786 16.263 130.627 16.229L130.729 15.005C130.797 15.0163 130.877 15.0277 130.967 15.039C131.069 15.039 131.183 15.039 131.307 15.039C131.851 15.039 132.203 14.937 132.361 14.733C132.531 14.5177 132.616 14.2627 132.616 13.968C132.616 13.3673 132.322 12.8573 131.732 12.438C131.154 12.0073 130.293 11.7127 129.148 11.554L129.199 10.279C130.072 10.3697 130.865 10.5907 131.579 10.942C132.293 11.282 132.866 11.724 133.296 12.268C133.727 12.8007 133.942 13.4127 133.942 14.104ZM145.156 8.426V9.633H143.371V19H142.062V14.869L142.334 15.821C141.96 15.2997 141.552 14.8293 141.11 14.41C140.668 13.9907 140.215 13.6563 139.75 13.407C139.286 13.1577 138.832 13.033 138.39 13.033C137.971 13.033 137.614 13.1463 137.319 13.373C137.036 13.5883 136.894 13.9113 136.894 14.342C136.894 14.682 137.013 14.9767 137.251 15.226C137.489 15.464 137.858 15.6793 138.356 15.872L137.71 17.079C137.019 16.7957 136.475 16.416 136.078 15.94C135.693 15.4527 135.5 14.903 135.5 14.291C135.5 13.7357 135.631 13.2767 135.891 12.914C136.163 12.54 136.503 12.2623 136.911 12.081C137.331 11.8997 137.756 11.809 138.186 11.809C138.776 11.809 139.314 11.911 139.801 12.115C140.289 12.319 140.742 12.5967 141.161 12.948C141.592 13.2993 142 13.7073 142.385 14.172L142.147 14.24C142.113 13.9793 142.091 13.7243 142.079 13.475C142.068 13.2143 142.062 12.9537 142.062 12.693V9.633H134.548V8.426H145.156ZM155.446 8.426V9.633H155.106C154.755 9.71233 154.375 9.888 153.967 10.16C153.559 10.4207 153.174 10.7663 152.811 11.197C152.448 11.6163 152.148 12.1093 151.91 12.676C151.683 13.2427 151.57 13.866 151.57 14.546C151.57 15.362 151.689 16.0137 151.927 16.501C152.176 16.977 152.482 17.317 152.845 17.521C153.208 17.725 153.57 17.827 153.933 17.827C154.216 17.827 154.454 17.7987 154.647 17.742C154.84 17.6853 155.061 17.5833 155.31 17.436L155.905 18.473C155.61 18.6997 155.287 18.8583 154.936 18.949C154.585 19.0397 154.228 19.085 153.865 19.085C153.151 19.085 152.522 18.898 151.978 18.524C151.434 18.15 151.003 17.6287 150.686 16.96C150.38 16.28 150.227 15.4867 150.227 14.58C150.227 13.7073 150.363 12.931 150.635 12.251C150.918 11.5597 151.281 10.959 151.723 10.449C152.176 9.939 152.664 9.51967 153.185 9.191C153.706 8.851 154.211 8.596 154.698 8.426H155.446ZM165.692 8.426V9.633H157.974V14.699L157.736 14.359C158.189 13.849 158.705 13.373 159.283 12.931C159.861 12.489 160.49 12.0867 161.17 11.724C161.85 11.35 162.575 11.0213 163.346 10.738L164.451 11.826C164.236 12.2227 164.06 12.608 163.924 12.982C163.799 13.356 163.703 13.747 163.635 14.155C163.578 14.563 163.55 15.0163 163.55 15.515C163.55 16.0703 163.595 16.603 163.686 17.113C163.777 17.623 163.93 18.1953 164.145 18.83L162.87 19.119C162.666 18.4617 162.507 17.8213 162.394 17.198C162.281 16.5633 162.224 15.906 162.224 15.226C162.224 14.7613 162.258 14.325 162.326 13.917C162.394 13.509 162.485 13.1463 162.598 12.829C162.723 12.5003 162.847 12.234 162.972 12.03L163.176 12.115C162.53 12.3757 161.901 12.693 161.289 13.067C160.677 13.441 160.076 13.8717 159.487 14.359C158.898 14.8463 158.291 15.4017 157.668 16.025L156.665 15.345V9.633H155.101V8.426H165.692ZM177.516 8.426V9.633H175.731V19H174.422C174.105 18.5353 173.742 18.0877 173.334 17.657C172.926 17.2263 172.473 16.8297 171.974 16.467C171.475 16.1043 170.926 15.7927 170.325 15.532C169.724 15.2713 169.061 15.0787 168.336 14.954L167.928 13.373L168.744 13.968C169.798 14.1493 170.688 14.427 171.413 14.801C172.15 15.1637 172.762 15.5717 173.249 16.025C173.748 16.4783 174.15 16.9203 174.456 17.351C174.445 17.0903 174.433 16.8297 174.422 16.569C174.422 16.3083 174.422 16.025 174.422 15.719V7.304H175.323L175.714 8.426H177.516ZM173.164 11.01C173.164 11.6673 172.983 12.2283 172.62 12.693C172.269 13.1463 171.781 13.509 171.158 13.781C170.546 14.0417 169.849 14.2173 169.067 14.308L168.268 14.155L167.928 13.373C168.846 13.305 169.594 13.1747 170.172 12.982C170.761 12.778 171.192 12.5173 171.464 12.2C171.747 11.8713 171.889 11.4973 171.889 11.078C171.889 10.7267 171.81 10.4093 171.651 10.126C171.492 9.84267 171.237 9.565 170.886 9.293L171.821 8.375C172.206 8.72633 172.524 9.12867 172.773 9.582C173.034 10.024 173.164 10.5 173.164 11.01ZM168.608 11.69C167.917 11.69 167.367 11.5143 166.959 11.163C166.551 10.8003 166.347 10.3073 166.347 9.684C166.347 9.42333 166.381 9.174 166.449 8.936C166.528 8.698 166.619 8.494 166.721 8.324L168.013 8.681C167.934 8.79433 167.866 8.936 167.809 9.106C167.752 9.26467 167.724 9.43467 167.724 9.616C167.724 9.91067 167.803 10.1317 167.962 10.279C168.132 10.415 168.347 10.483 168.608 10.483C168.835 10.483 169.073 10.4377 169.322 10.347C169.571 10.2563 169.826 10.075 170.087 9.803C170.359 9.531 170.625 9.12867 170.886 8.596L171.821 8.375L171.855 9.225C171.628 9.72367 171.356 10.16 171.039 10.534C170.722 10.8967 170.359 11.18 169.951 11.384C169.554 11.588 169.107 11.69 168.608 11.69ZM183.403 8.426V9.633H183.063C182.712 9.71233 182.332 9.888 181.924 10.16C181.516 10.4207 181.131 10.7663 180.768 11.197C180.405 11.6163 180.105 12.1093 179.867 12.676C179.64 13.2427 179.527 13.866 179.527 14.546C179.527 15.362 179.646 16.0137 179.884 16.501C180.133 16.977 180.439 17.317 180.802 17.521C181.165 17.725 181.527 17.827 181.89 17.827C182.173 17.827 182.411 17.7987 182.604 17.742C182.797 17.6853 183.018 17.5833 183.267 17.436L183.862 18.473C183.567 18.6997 183.244 18.8583 182.893 18.949C182.542 19.0397 182.19 19.085 181.839 19.085C181.125 19.085 180.49 18.898 179.935 18.524C179.391 18.15 178.96 17.6287 178.643 16.96C178.337 16.28 178.184 15.4867 178.184 14.58C178.184 13.6507 178.36 12.812 178.711 12.064C179.062 11.3047 179.533 10.6643 180.122 10.143C180.723 9.62167 181.386 9.242 182.111 9.004L181.023 9.565C180.819 9.58767 180.598 9.60467 180.36 9.616C180.122 9.62733 179.856 9.633 179.561 9.633H177.181V8.426H183.403ZM190.147 18.15C189.218 18.15 188.351 17.9233 187.546 17.47C186.741 17.0053 186.016 16.2573 185.37 15.226C184.735 14.1947 184.186 12.812 183.721 11.078L185.013 10.738C185.41 12.1433 185.84 13.2993 186.305 14.206C186.781 15.1127 187.325 15.7813 187.937 16.212C188.56 16.6427 189.286 16.858 190.113 16.858C190.646 16.858 191.093 16.7957 191.456 16.671C191.819 16.535 192.108 16.348 192.323 16.11C192.55 15.872 192.714 15.6 192.816 15.294C192.918 14.9767 192.969 14.6367 192.969 14.274C192.969 13.798 192.878 13.3673 192.697 12.982C192.516 12.5853 192.261 12.2737 191.932 12.047C191.603 11.8203 191.218 11.707 190.776 11.707C190.323 11.707 189.994 11.8033 189.79 11.996C189.597 12.1887 189.501 12.4437 189.501 12.761C189.501 12.8743 189.512 12.9933 189.535 13.118C189.558 13.2427 189.597 13.3843 189.654 13.543L188.345 13.798C188.277 13.5827 188.22 13.373 188.175 13.169C188.141 12.965 188.124 12.7553 188.124 12.54C188.124 12.098 188.232 11.7297 188.447 11.435C188.674 11.129 188.98 10.8967 189.365 10.738C189.762 10.5793 190.209 10.5 190.708 10.5C191.411 10.5 192.028 10.6643 192.561 10.993C193.094 11.3103 193.513 11.758 193.819 12.336C194.125 12.914 194.278 13.5827 194.278 14.342C194.278 15.056 194.125 15.702 193.819 16.28C193.524 16.8467 193.071 17.3 192.459 17.64C191.847 17.98 191.076 18.15 190.147 18.15ZM195.417 8.426V9.633H183.058V8.426H195.417ZM204.356 8.426V9.633H202.571V19H201.262V9.633H199.494V8.426H201.058C200.876 8.21067 200.689 7.984 200.497 7.746C200.315 7.508 200.151 7.27 200.004 7.032C200.389 6.36333 200.803 5.757 201.245 5.213C201.687 4.65767 202.208 4.22133 202.809 3.904C203.409 3.57533 204.135 3.411 204.985 3.411C205.585 3.411 206.158 3.48467 206.702 3.632C207.257 3.77933 207.801 3.99467 208.334 4.278C208.866 4.55 209.405 4.88433 209.949 5.281C210.493 5.66633 211.059 6.097 211.649 6.573L210.935 7.491C210.153 6.85633 209.444 6.32933 208.81 5.91C208.186 5.49067 207.586 5.179 207.008 4.975C206.441 4.75967 205.835 4.652 205.189 4.652C204.565 4.652 204.021 4.75967 203.557 4.975C203.103 5.19033 202.707 5.49067 202.367 5.876C202.038 6.26133 201.738 6.709 201.466 7.219C201.556 7.389 201.681 7.576 201.84 7.78C201.998 7.984 202.18 8.19933 202.384 8.426H204.356ZM211.353 18.269C210.617 18.269 209.925 18.15 209.279 17.912C208.633 17.674 208.027 17.2773 207.46 16.722C206.905 16.1667 206.395 15.43 205.93 14.512C205.466 13.594 205.046 12.455 204.672 11.095L205.964 10.755C206.372 12.251 206.831 13.458 207.341 14.376C207.863 15.2827 208.446 15.9457 209.092 16.365C209.75 16.773 210.492 16.977 211.319 16.977C211.92 16.977 212.43 16.8693 212.849 16.654C213.28 16.4387 213.609 16.144 213.835 15.77C214.062 15.3847 214.175 14.9483 214.175 14.461C214.175 14.121 214.141 13.815 214.073 13.543C214.005 13.271 213.909 13.0273 213.784 12.812C213.671 12.5853 213.541 12.3927 213.393 12.234L214.209 10.908C214.64 11.5313 214.957 12.1377 215.161 12.727C215.365 13.3163 215.467 13.9 215.467 14.478C215.467 15.192 215.309 15.838 214.991 16.416C214.674 16.9827 214.209 17.436 213.597 17.776C212.997 18.1047 212.249 18.269 211.353 18.269ZM210.707 14.172C209.993 14.172 209.432 13.9963 209.024 13.645C208.616 13.2823 208.412 12.7893 208.412 12.166C208.412 11.9053 208.452 11.6503 208.531 11.401C208.611 11.1403 208.696 10.9193 208.786 10.738L210.146 11.146C210.067 11.2593 209.993 11.401 209.925 11.571C209.857 11.741 209.823 11.9167 209.823 12.098C209.823 12.404 209.908 12.625 210.078 12.761C210.248 12.897 210.469 12.965 210.741 12.965C210.979 12.965 211.217 12.9197 211.455 12.829C211.693 12.7383 211.948 12.5627 212.22 12.302C212.504 12.03 212.81 11.622 213.138 11.078L214.209 10.908L214.073 11.826C213.767 12.336 213.444 12.7667 213.104 13.118C212.776 13.458 212.413 13.7187 212.016 13.9C211.631 14.0813 211.195 14.172 210.707 14.172ZM216.606 8.426V9.633H204.009V8.426H216.606ZM226.869 8.426V9.633H225.084V15.719H223.775V13.679L223.996 14.699C223.543 14.1437 223.084 13.6563 222.619 13.237C222.154 12.8063 221.69 12.4663 221.225 12.217C220.772 11.9677 220.307 11.843 219.831 11.843C219.446 11.843 219.145 11.9337 218.93 12.115C218.715 12.2963 218.607 12.5457 218.607 12.863C218.607 13.1123 218.692 13.3503 218.862 13.577C219.043 13.7923 219.355 13.985 219.797 14.155L219.168 15.362C218.579 15.1013 218.103 14.75 217.74 14.308C217.389 13.866 217.213 13.356 217.213 12.778C217.213 12.336 217.315 11.9563 217.519 11.639C217.734 11.3103 218.023 11.061 218.386 10.891C218.76 10.7097 219.179 10.619 219.644 10.619C220.267 10.619 220.834 10.7323 221.344 10.959C221.865 11.1743 222.353 11.4747 222.806 11.86C223.259 12.2453 223.701 12.6817 224.132 13.169L223.826 13.152C223.815 12.948 223.803 12.7213 223.792 12.472C223.781 12.2227 223.775 11.9733 223.775 11.724V9.633H216.261V8.426H226.869ZM220.239 15.532C220.862 15.532 221.423 15.6567 221.922 15.906C222.421 16.144 222.885 16.4783 223.316 16.909C223.747 17.3283 224.166 17.81 224.574 18.354L224.285 19.714C223.911 19.1813 223.514 18.694 223.095 18.252C222.687 17.7987 222.256 17.436 221.803 17.164C221.361 16.8807 220.896 16.739 220.409 16.739C220.069 16.739 219.808 16.8127 219.627 16.96C219.457 17.096 219.372 17.2887 219.372 17.538C219.372 17.7647 219.457 17.9573 219.627 18.116C219.808 18.2633 220.086 18.405 220.46 18.541L219.865 19.714C219.491 19.578 219.162 19.3967 218.879 19.17C218.607 18.9547 218.392 18.7053 218.233 18.422C218.074 18.1387 217.995 17.8383 217.995 17.521C217.995 17.0903 218.103 16.7277 218.318 16.433C218.533 16.1383 218.811 15.9173 219.151 15.77C219.491 15.6113 219.854 15.532 220.239 15.532ZM225.084 15.549V19.731H223.775V18.473L223.826 17.742C223.803 17.47 223.786 17.198 223.775 16.926C223.775 16.6427 223.775 16.3593 223.775 16.076V15.566L225.084 15.549ZM236.993 8.426V9.633H235.208V19H233.899C233.559 18.32 233.089 17.6967 232.488 17.13C231.899 16.552 231.219 16.0647 230.448 15.668C229.677 15.2713 228.856 15.005 227.983 14.869L227.32 13.237C228.408 12.5797 229.53 11.9847 230.686 11.452C231.853 10.9193 233.055 10.466 234.29 10.092L233.899 10.806V9.633H226.521V8.426H236.993ZM233.899 10.942L234.256 11.418C233.395 11.7013 232.488 12.0527 231.536 12.472C230.584 12.88 229.706 13.3333 228.901 13.832C229.513 13.968 230.165 14.2003 230.856 14.529C231.547 14.8577 232.188 15.2713 232.777 15.77C233.366 16.2687 233.82 16.8467 234.137 17.504H233.984C233.961 17.2433 233.939 16.9827 233.916 16.722C233.905 16.4613 233.899 16.1497 233.899 15.787V10.942ZM229.836 19.102C229.553 19.102 229.309 19.0113 229.105 18.83C228.912 18.6487 228.816 18.4107 228.816 18.116C228.816 17.8213 228.912 17.5777 229.105 17.385C229.309 17.1923 229.553 17.096 229.836 17.096C230.119 17.096 230.357 17.1923 230.55 17.385C230.754 17.5777 230.856 17.8213 230.856 18.116C230.856 18.4107 230.754 18.6487 230.55 18.83C230.357 19.0113 230.119 19.102 229.836 19.102ZM250.707 8.426V9.633H245.182V10.687V10.959V19H243.873C243.544 18.3313 243.085 17.7023 242.496 17.113C241.907 16.5237 241.232 16.0307 240.473 15.634C239.725 15.226 238.937 14.971 238.11 14.869L237.447 13.237C238.546 12.6023 239.646 12.0357 240.745 11.537C241.844 11.0383 243.012 10.5963 244.247 10.211L243.873 10.925V9.633H236.648V8.426H250.707ZM243.873 11.061L244.23 11.554C243.652 11.7127 243.051 11.9223 242.428 12.183C241.816 12.4437 241.215 12.7157 240.626 12.999C240.048 13.2823 239.515 13.56 239.028 13.832C239.663 13.9567 240.314 14.1947 240.983 14.546C241.663 14.8973 242.281 15.328 242.836 15.838C243.403 16.3367 243.822 16.8807 244.094 17.47L243.958 17.504C243.935 17.2433 243.913 16.9827 243.89 16.722C243.879 16.4613 243.873 16.1497 243.873 15.787V11.061ZM249.755 14.104C249.755 14.478 249.681 14.835 249.534 15.175C249.387 15.5037 249.143 15.7757 248.803 15.991C248.463 16.2063 248.01 16.314 247.443 16.314C247.262 16.314 247.086 16.3083 246.916 16.297C246.757 16.2857 246.599 16.263 246.44 16.229L246.542 15.005C246.61 15.0163 246.689 15.0277 246.78 15.039C246.882 15.039 246.995 15.039 247.12 15.039C247.664 15.039 248.015 14.937 248.174 14.733C248.344 14.5177 248.429 14.2627 248.429 13.968C248.429 13.3673 248.134 12.8573 247.545 12.438C246.967 12.0073 246.106 11.7127 244.961 11.554L245.012 10.279C245.885 10.3697 246.678 10.5907 247.392 10.942C248.106 11.282 248.678 11.724 249.109 12.268C249.54 12.8007 249.755 13.4127 249.755 14.104ZM261.275 8.426V9.633H259.49V19H258.181V16.705L258.487 17.606C258.09 17.0053 257.688 16.45 257.28 15.94C256.883 15.43 256.458 15.0163 256.005 14.699C255.563 14.3817 255.075 14.223 254.543 14.223C254.123 14.223 253.766 14.3307 253.472 14.546C253.188 14.7613 253.047 15.0843 253.047 15.515C253.047 15.889 253.183 16.2063 253.455 16.467C253.727 16.7163 254.129 16.9317 254.662 17.113L254.237 18.422C253.625 18.2067 253.126 17.946 252.741 17.64C252.367 17.334 252.089 16.9997 251.908 16.637C251.738 16.263 251.653 15.872 251.653 15.464C251.653 14.92 251.783 14.4667 252.044 14.104C252.316 13.7413 252.656 13.4693 253.064 13.288C253.483 13.0953 253.902 12.999 254.322 12.999C255.002 12.999 255.597 13.1237 256.107 13.373C256.628 13.6223 257.081 13.9567 257.467 14.376C257.863 14.7953 258.22 15.2657 258.538 15.787L258.249 15.838C258.226 15.5773 258.209 15.3167 258.198 15.056C258.186 14.784 258.181 14.5063 258.181 14.223V9.633H250.361V8.426H261.275ZM255.614 13.509C255.614 13.577 255.608 13.645 255.597 13.713C255.597 13.781 255.591 13.849 255.58 13.917L254.288 13.526C254.265 12.8687 254.152 12.3417 253.948 11.945C253.744 11.5483 253.421 11.248 252.979 11.044C252.537 10.8287 251.936 10.6813 251.177 10.602L251.398 9.378L252.18 9.599C252.724 9.64433 253.205 9.75767 253.625 9.939C254.055 10.109 254.418 10.3527 254.713 10.67C255.007 10.9873 255.228 11.384 255.376 11.86C255.534 12.3247 255.614 12.8743 255.614 13.509ZM269.636 10.5C270.531 10.5 271.251 10.653 271.795 10.959C272.35 11.2537 272.758 11.6333 273.019 12.098C273.28 12.5513 273.41 13.0103 273.41 13.475C273.41 14.4043 273.081 15.141 272.424 15.685C271.778 16.229 270.815 16.535 269.534 16.603L269.704 16.416C270.214 16.5633 270.752 16.773 271.319 17.045C271.886 17.317 272.458 17.6343 273.036 17.997C273.614 18.3483 274.169 18.7393 274.702 19.17L273.92 20.071C273.217 19.5497 272.571 19.102 271.982 18.728C271.404 18.3427 270.832 18.0083 270.265 17.725C269.698 17.4417 269.098 17.1923 268.463 16.977C267.828 16.7617 267.109 16.5633 266.304 16.382L266.559 15.209C266.956 15.3223 267.335 15.4073 267.698 15.464C268.072 15.5093 268.52 15.532 269.041 15.532C269.846 15.532 270.463 15.4357 270.894 15.243C271.336 15.0503 271.642 14.801 271.812 14.495C271.982 14.189 272.067 13.8773 272.067 13.56C272.067 12.9593 271.846 12.5003 271.404 12.183C270.962 11.8543 270.401 11.69 269.721 11.69C269.313 11.69 268.984 11.7297 268.735 11.809C268.486 11.8883 268.304 12.0073 268.191 12.166C268.089 12.3133 268.038 12.4947 268.038 12.71C268.038 12.8007 268.049 12.897 268.072 12.999C268.095 13.0897 268.117 13.1747 268.14 13.254L266.899 13.509C266.842 13.339 266.797 13.1633 266.763 12.982C266.729 12.7893 266.712 12.6193 266.712 12.472C266.712 12.0527 266.837 11.6957 267.086 11.401C267.335 11.1063 267.675 10.8853 268.106 10.738C268.548 10.5793 269.058 10.5 269.636 10.5ZM268.497 11.095C268.44 10.7323 268.27 10.415 267.987 10.143C267.704 9.85967 267.296 9.66133 266.763 9.548L267.171 8.783L267.953 8.987C268.588 9.23633 269.047 9.51967 269.33 9.837C269.625 10.1543 269.795 10.5567 269.84 11.044L268.497 11.095ZM274.702 8.426V9.633H265.352V8.426H274.702ZM280.589 8.426V9.633H280.249C279.897 9.71233 279.518 9.888 279.11 10.16C278.702 10.4207 278.316 10.7663 277.954 11.197C277.591 11.6163 277.291 12.1093 277.053 12.676C276.826 13.2427 276.713 13.866 276.713 14.546C276.713 15.362 276.832 16.0137 277.07 16.501C277.319 16.977 277.625 17.317 277.988 17.521C278.35 17.725 278.713 17.827 279.076 17.827C279.359 17.827 279.597 17.7987 279.79 17.742C279.982 17.6853 280.203 17.5833 280.453 17.436L281.048 18.473C280.753 18.6997 280.43 18.8583 280.079 18.949C279.727 19.0397 279.376 19.085 279.025 19.085C278.311 19.085 277.676 18.898 277.121 18.524C276.577 18.15 276.146 17.6287 275.829 16.96C275.523 16.28 275.37 15.4867 275.37 14.58C275.37 13.6507 275.545 12.812 275.897 12.064C276.248 11.3047 276.718 10.6643 277.308 10.143C277.908 9.62167 278.571 9.242 279.297 9.004L278.209 9.565C278.005 9.58767 277.784 9.60467 277.546 9.616C277.308 9.62733 277.041 9.633 276.747 9.633H274.367V8.426H280.589ZM287.333 18.15C286.403 18.15 285.536 17.9233 284.732 17.47C283.927 17.0053 283.202 16.2573 282.556 15.226C281.921 14.1947 281.371 12.812 280.907 11.078L282.199 10.738C282.595 12.1433 283.026 13.2993 283.491 14.206C283.967 15.1127 284.511 15.7813 285.123 16.212C285.746 16.6427 286.471 16.858 287.299 16.858C287.831 16.858 288.279 16.7957 288.642 16.671C289.004 16.535 289.293 16.348 289.509 16.11C289.735 15.872 289.9 15.6 290.002 15.294C290.104 14.9767 290.155 14.6367 290.155 14.274C290.155 13.798 290.064 13.3673 289.883 12.982C289.701 12.5853 289.446 12.2737 289.118 12.047C288.789 11.8203 288.404 11.707 287.962 11.707C287.508 11.707 287.18 11.8033 286.976 11.996C286.783 12.1887 286.687 12.4437 286.687 12.761C286.687 12.8743 286.698 12.9933 286.721 13.118C286.743 13.2427 286.783 13.3843 286.84 13.543L285.531 13.798C285.463 13.5827 285.406 13.373 285.361 13.169C285.327 12.965 285.31 12.7553 285.31 12.54C285.31 12.098 285.417 11.7297 285.633 11.435C285.859 11.129 286.165 10.8967 286.551 10.738C286.947 10.5793 287.395 10.5 287.894 10.5C288.596 10.5 289.214 10.6643 289.747 10.993C290.279 11.3103 290.699 11.758 291.005 12.336C291.311 12.914 291.464 13.5827 291.464 14.342C291.464 15.056 291.311 15.702 291.005 16.28C290.71 16.8467 290.257 17.3 289.645 17.64C289.033 17.98 288.262 18.15 287.333 18.15ZM292.603 8.426V9.633H280.244V8.426H292.603ZM309.191 8.426V9.633H307.406V19H306.097V12.268L306.471 13.356C306.006 12.676 305.581 12.098 305.196 11.622C304.811 11.1347 304.442 10.738 304.091 10.432C303.751 10.126 303.405 9.905 303.054 9.769C302.703 9.62167 302.323 9.548 301.915 9.548C301.462 9.548 301.048 9.633 300.674 9.803C300.311 9.973 299.977 10.1997 299.671 10.483C299.365 10.7663 299.082 11.0723 298.821 11.401L298.685 11.435C298.866 11.3217 299.042 11.2367 299.212 11.18C299.393 11.1233 299.592 11.095 299.807 11.095C300.464 11.095 300.946 11.2763 301.252 11.639C301.558 11.9903 301.711 12.4267 301.711 12.948C301.711 13.0727 301.705 13.1917 301.694 13.305C301.683 13.4183 301.666 13.5033 301.643 13.56L301.354 13.458C301.49 13.3107 301.62 13.169 301.745 13.033C301.87 12.897 302 12.761 302.136 12.625C302.283 12.489 302.431 12.3473 302.578 12.2L304.686 10.228L305.519 11.129L300.691 15.685L299.688 14.75L301.082 13.424L300.47 14.155L299.96 14.546C300.13 14.3533 300.272 14.1493 300.385 13.934C300.51 13.7073 300.572 13.4523 300.572 13.169C300.572 12.8857 300.487 12.659 300.317 12.489C300.147 12.319 299.898 12.234 299.569 12.234C299.388 12.234 299.212 12.2567 299.042 12.302C298.872 12.3473 298.696 12.4267 298.515 12.54L297.223 11.316C297.676 10.7153 298.141 10.194 298.617 9.752C299.093 9.29867 299.592 8.94733 300.113 8.698C300.634 8.43733 301.195 8.307 301.796 8.307C302.431 8.307 303.003 8.426 303.513 8.664C304.023 8.902 304.516 9.259 304.992 9.735C305.468 10.1997 305.967 10.789 306.488 11.503L306.182 11.418C306.148 11.146 306.125 10.8513 306.114 10.534C306.103 10.2167 306.097 9.87667 306.097 9.514V7.304H306.998L307.389 8.426H309.191ZM313.71 8.426V9.633H311.925V19H310.616V11.027C310.48 10.6417 310.276 10.313 310.004 10.041C309.743 9.769 309.403 9.633 308.984 9.633H308.848V8.426H309.103C309.375 8.426 309.658 8.51667 309.953 8.698C310.248 8.868 310.486 9.13433 310.667 9.497C310.656 9.44033 310.644 9.31 310.633 9.106C310.622 8.902 310.616 8.72633 310.616 8.579V7.304H311.534L311.908 8.426H313.71ZM319.586 8.426V9.633H319.246C318.894 9.71233 318.515 9.888 318.107 10.16C317.699 10.4207 317.313 10.7663 316.951 11.197C316.588 11.6163 316.288 12.1093 316.05 12.676C315.823 13.2427 315.71 13.866 315.71 14.546C315.71 15.362 315.829 16.0137 316.067 16.501C316.316 16.977 316.622 17.317 316.985 17.521C317.347 17.725 317.71 17.827 318.073 17.827C318.356 17.827 318.594 17.7987 318.787 17.742C318.979 17.6853 319.2 17.5833 319.45 17.436L320.045 18.473C319.75 18.6997 319.427 18.8583 319.076 18.949C318.724 19.0397 318.373 19.085 318.022 19.085C317.308 19.085 316.673 18.898 316.118 18.524C315.574 18.15 315.143 17.6287 314.826 16.96C314.52 16.28 314.367 15.4867 314.367 14.58C314.367 13.6507 314.542 12.812 314.894 12.064C315.245 11.3047 315.715 10.6643 316.305 10.143C316.905 9.62167 317.568 9.242 318.294 9.004L317.206 9.565C317.002 9.58767 316.781 9.60467 316.543 9.616C316.305 9.62733 316.038 9.633 315.744 9.633H313.364V8.426H319.586ZM329.713 8.426V9.633H327.928V19H326.619C326.279 18.32 325.808 17.6967 325.208 17.13C324.618 16.552 323.938 16.0647 323.168 15.668C322.397 15.2713 321.575 15.005 320.703 14.869L320.04 13.237C321.128 12.5797 322.25 11.9847 323.406 11.452C324.573 10.9193 325.774 10.466 327.01 10.092L326.619 10.806V9.633H319.241V8.426H329.713ZM326.619 10.942L326.976 11.418C326.114 11.7013 325.208 12.0527 324.256 12.472C323.304 12.88 322.425 13.3333 321.621 13.832C322.233 13.968 322.884 14.2003 323.576 14.529C324.267 14.8577 324.907 15.2713 325.497 15.77C326.086 16.2687 326.539 16.8467 326.857 17.504H326.704C326.681 17.2433 326.658 16.9827 326.636 16.722C326.624 16.4613 326.619 16.1497 326.619 15.787V10.942ZM322.556 19.102C322.272 19.102 322.029 19.0113 321.825 18.83C321.632 18.6487 321.536 18.4107 321.536 18.116C321.536 17.8213 321.632 17.5777 321.825 17.385C322.029 17.1923 322.272 17.096 322.556 17.096C322.839 17.096 323.077 17.1923 323.27 17.385C323.474 17.5777 323.576 17.8213 323.576 18.116C323.576 18.4107 323.474 18.6487 323.27 18.83C323.077 19.0113 322.839 19.102 322.556 19.102ZM347.146 8.426V9.633H345.361V19H344.052V9.633H342.284V8.426H343.848C343.666 8.21067 343.479 7.984 343.287 7.746C343.105 7.508 342.941 7.27 342.794 7.032C343.179 6.36333 343.593 5.757 344.035 5.213C344.477 4.65767 344.998 4.22133 345.599 3.904C346.199 3.57533 346.925 3.411 347.775 3.411C348.375 3.411 348.948 3.48467 349.492 3.632C350.047 3.77933 350.591 3.99467 351.124 4.278C351.656 4.55 352.195 4.88433 352.739 5.281C353.283 5.66633 353.849 6.097 354.439 6.573L353.725 7.491C352.943 6.85633 352.234 6.32933 351.6 5.91C350.976 5.49067 350.376 5.179 349.798 4.975C349.231 4.75967 348.625 4.652 347.979 4.652C347.355 4.652 346.811 4.75967 346.347 4.975C345.893 5.19033 345.497 5.49067 345.157 5.876C344.828 6.26133 344.528 6.709 344.256 7.219C344.346 7.389 344.471 7.576 344.63 7.78C344.788 7.984 344.97 8.19933 345.174 8.426H347.146ZM357.407 8.426V9.633H355.622V19H354.313V14.869L354.585 15.821C354.211 15.2997 353.803 14.8293 353.361 14.41C352.919 13.9907 352.466 13.6563 352.001 13.407C351.537 13.1577 351.083 13.033 350.641 13.033C350.222 13.033 349.865 13.1463 349.57 13.373C349.287 13.5883 349.145 13.9113 349.145 14.342C349.145 14.682 349.264 14.9767 349.502 15.226C349.74 15.464 350.109 15.6793 350.607 15.872L349.961 17.079C349.27 16.7957 348.726 16.416 348.329 15.94C347.944 15.4527 347.751 14.903 347.751 14.291C347.751 13.7357 347.882 13.2767 348.142 12.914C348.414 12.54 348.754 12.2623 349.162 12.081C349.582 11.8997 350.007 11.809 350.437 11.809C351.027 11.809 351.565 11.911 352.052 12.115C352.54 12.319 352.993 12.5967 353.412 12.948C353.843 13.2993 354.251 13.7073 354.636 14.172L354.398 14.24C354.364 13.9793 354.342 13.7243 354.33 13.475C354.319 13.2143 354.313 12.9537 354.313 12.693V9.633H346.799V8.426H357.407ZM363.281 8.426V9.633H362.941C362.59 9.71233 362.21 9.888 361.802 10.16C361.394 10.4207 361.009 10.7663 360.646 11.197C360.283 11.6163 359.983 12.1093 359.745 12.676C359.518 13.2427 359.405 13.866 359.405 14.546C359.405 15.362 359.524 16.0137 359.762 16.501C360.011 16.977 360.317 17.317 360.68 17.521C361.043 17.725 361.405 17.827 361.768 17.827C362.051 17.827 362.289 17.7987 362.482 17.742C362.675 17.6853 362.896 17.5833 363.145 17.436L363.74 18.473C363.445 18.6997 363.122 18.8583 362.771 18.949C362.42 19.0397 362.068 19.085 361.717 19.085C361.003 19.085 360.368 18.898 359.813 18.524C359.269 18.15 358.838 17.6287 358.521 16.96C358.215 16.28 358.062 15.4867 358.062 14.58C358.062 13.6507 358.238 12.812 358.589 12.064C358.94 11.3047 359.411 10.6643 360 10.143C360.601 9.62167 361.264 9.242 361.989 9.004L360.901 9.565C360.697 9.58767 360.476 9.60467 360.238 9.616C360 9.62733 359.734 9.633 359.439 9.633H357.059V8.426H363.281ZM372.915 8.426V9.633H366.03V10.143L365.962 11.214C365.985 11.3613 366.002 11.5653 366.013 11.826C366.024 12.0867 366.03 12.336 366.03 12.574V15.515C366.03 16.0137 366.058 16.365 366.115 16.569C366.172 16.773 366.24 16.9203 366.319 17.011C366.523 17.249 366.835 17.368 367.254 17.368C367.707 17.368 368.127 17.2603 368.512 17.045C368.897 16.8297 369.243 16.5633 369.549 16.246C369.866 15.906 370.11 15.549 370.28 15.175C370.461 14.7897 370.552 14.3873 370.552 13.968C370.552 13.594 370.444 13.3503 370.229 13.237C370.025 13.1237 369.736 13.067 369.362 13.067H369.277C368.756 13.067 368.336 13.0273 368.019 12.948C367.702 12.8573 367.396 12.7383 367.101 12.591C366.84 12.4437 366.597 12.2737 366.37 12.081C366.155 11.877 365.979 11.6503 365.843 11.401L366.013 9.922C366.251 10.33 366.5 10.6757 366.761 10.959C367.022 11.231 367.345 11.4407 367.73 11.588C368.127 11.7353 368.631 11.809 369.243 11.809H369.515C369.946 11.809 370.274 11.8373 370.501 11.894C370.739 11.9507 370.949 12.0357 371.13 12.149C371.391 12.3077 371.583 12.5287 371.708 12.812C371.833 13.084 371.895 13.4127 371.895 13.798C371.895 14.4893 371.731 15.1523 371.402 15.787C371.073 16.4217 370.66 16.9543 370.161 17.385C369.73 17.759 369.271 18.0537 368.784 18.269C368.297 18.4843 367.753 18.592 367.152 18.592C366.733 18.592 366.376 18.5297 366.081 18.405C365.786 18.2803 365.543 18.1217 365.35 17.929C365.169 17.7137 365.016 17.453 364.891 17.147C364.778 16.841 364.721 16.3763 364.721 15.753V9.633H362.936V8.426H372.915ZM112.059 34.426V35.633H110.274V45H108.965V35.633H107.197V34.426H108.761C108.58 34.2107 108.393 33.984 108.2 33.746C108.019 33.508 107.855 33.27 107.707 33.032C108.093 32.3633 108.506 31.757 108.948 31.213C109.39 30.6577 109.912 30.2213 110.512 29.904C111.113 29.5753 111.838 29.411 112.688 29.411C113.289 29.411 113.861 29.4847 114.405 29.632C114.961 29.7793 115.505 29.9947 116.037 30.278C116.57 30.55 117.108 30.8843 117.652 31.281C118.196 31.6663 118.763 32.097 119.352 32.573L118.638 33.491C117.856 32.8563 117.148 32.3293 116.513 31.91C115.89 31.4907 115.289 31.179 114.711 30.975C114.145 30.7597 113.538 30.652 112.892 30.652C112.269 30.652 111.725 30.7597 111.26 30.975C110.807 31.1903 110.41 31.4907 110.07 31.876C109.742 32.2613 109.441 32.709 109.169 33.219C109.26 33.389 109.385 33.576 109.543 33.78C109.702 33.984 109.883 34.1993 110.087 34.426H112.059ZM125.772 34.426V35.633H120.247V36.687V36.959V45H118.938C118.609 44.3313 118.15 43.7023 117.561 43.113C116.971 42.5237 116.297 42.0307 115.538 41.634C114.79 41.226 114.002 40.971 113.175 40.869L112.512 39.237C113.611 38.6023 114.71 38.0357 115.81 37.537C116.909 37.0383 118.076 36.5963 119.312 36.211L118.938 36.925V35.633H111.713V34.426H125.772ZM118.938 37.061L119.295 37.554C118.717 37.7127 118.116 37.9223 117.493 38.183C116.881 38.4437 116.28 38.7157 115.691 38.999C115.113 39.2823 114.58 39.56 114.093 39.832C114.727 39.9567 115.379 40.1947 116.048 40.546C116.728 40.8973 117.345 41.328 117.901 41.838C118.467 42.3367 118.887 42.8807 119.159 43.47L119.023 43.504C119 43.2433 118.977 42.9827 118.955 42.722C118.943 42.4613 118.938 42.1497 118.938 41.787V37.061ZM124.82 40.104C124.82 40.478 124.746 40.835 124.599 41.175C124.451 41.5037 124.208 41.7757 123.868 41.991C123.528 42.2063 123.074 42.314 122.508 42.314C122.326 42.314 122.151 42.3083 121.981 42.297C121.822 42.2857 121.663 42.263 121.505 42.229L121.607 41.005C121.675 41.0163 121.754 41.0277 121.845 41.039C121.947 41.039 122.06 41.039 122.185 41.039C122.729 41.039 123.08 40.937 123.239 40.733C123.409 40.5177 123.494 40.2627 123.494 39.968C123.494 39.3673 123.199 38.8573 122.61 38.438C122.032 38.0073 121.17 37.7127 120.026 37.554L120.077 36.279C120.949 36.3697 121.743 36.5907 122.457 36.942C123.171 37.282 123.743 37.724 124.174 38.268C124.604 38.8007 124.82 39.4127 124.82 40.104ZM136.051 39.73C136.051 40.3533 135.932 40.886 135.694 41.328C135.456 41.7587 135.144 42.1157 134.759 42.399C134.373 42.6823 133.943 42.9033 133.467 43.062C133.002 43.2093 132.532 43.3057 132.056 43.351L131.699 42.96C132.322 43.0507 132.923 43.1753 133.501 43.334C134.09 43.4813 134.691 43.6797 135.303 43.929C135.915 44.167 136.555 44.4617 137.224 44.813L136.629 45.833C135.745 45.357 134.838 44.9603 133.909 44.643C132.991 44.3143 132.039 44.0537 131.053 43.861C130.078 43.657 129.069 43.504 128.027 43.402L128.18 42.178C128.508 42.246 128.854 42.3027 129.217 42.348C129.591 42.3933 130.027 42.416 130.526 42.416C131.534 42.416 132.345 42.2857 132.957 42.025C133.58 41.7643 134.033 41.43 134.317 41.022C134.6 40.6027 134.742 40.172 134.742 39.73C134.742 39.1293 134.549 38.6703 134.164 38.353C133.79 38.0357 133.268 37.877 132.6 37.877C132.52 37.877 132.435 37.8827 132.345 37.894C132.265 37.894 132.18 37.9053 132.09 37.928L131.92 36.823C132.033 36.8117 132.175 36.806 132.345 36.806C132.526 36.7947 132.673 36.789 132.787 36.789C133.444 36.789 133.982 36.891 134.402 37.095C134.832 37.2877 135.167 37.537 135.405 37.843C135.643 38.149 135.807 38.472 135.898 38.812C136 39.152 136.051 39.458 136.051 39.73ZM129.455 41.311C129.069 41.311 128.729 41.2657 128.435 41.175C128.14 41.0843 127.902 40.9483 127.721 40.767C127.551 40.597 127.409 40.376 127.296 40.104C127.194 39.832 127.143 39.4297 127.143 38.897V35.497H128.452V36.143L128.418 36.908C128.429 37.044 128.435 37.1913 128.435 37.35C128.446 37.4973 128.452 37.6673 128.452 37.86V38.897C128.452 39.1917 128.474 39.407 128.52 39.543C128.576 39.679 128.644 39.7923 128.724 39.883C128.894 40.053 129.171 40.138 129.557 40.138C130.044 40.138 130.463 40.0473 130.815 39.866C131.177 39.6847 131.455 39.4693 131.648 39.22C131.852 38.9593 131.954 38.71 131.954 38.472C131.954 38.2567 131.874 38.1207 131.716 38.064C131.557 38.0073 131.342 37.979 131.07 37.979H130.968C130.378 37.979 129.851 37.877 129.387 37.673C128.922 37.469 128.537 37.1913 128.231 36.84L128.452 35.752C128.644 35.9673 128.848 36.16 129.064 36.33C129.279 36.4887 129.545 36.6133 129.863 36.704C130.18 36.7833 130.588 36.823 131.087 36.823H131.92C132.044 36.823 132.124 36.857 132.158 36.925C132.203 36.993 132.294 37.061 132.43 37.129C132.656 37.2423 132.849 37.401 133.008 37.605C133.166 37.809 133.246 38.0753 133.246 38.404C133.246 38.9593 133.076 39.458 132.736 39.9C132.407 40.3307 131.954 40.6763 131.376 40.937C130.809 41.1863 130.169 41.311 129.455 41.311ZM125.426 35.633V34.426H137.445V35.633H125.426ZM130.778 49.522C130.472 49.522 130.137 49.454 129.775 49.318C129.412 49.1933 129.106 48.9893 128.857 48.706C128.596 48.4227 128.466 48.043 128.466 47.567C128.466 46.989 128.687 46.5243 129.129 46.173C129.571 45.833 130.188 45.663 130.982 45.663C131.684 45.663 132.364 45.7877 133.022 46.037C133.668 46.2977 134.331 46.6547 135.011 47.108C135.679 47.5613 136.393 48.0883 137.153 48.689L136.388 49.607C135.628 48.9723 134.937 48.4453 134.314 48.026C133.69 47.6067 133.101 47.2893 132.546 47.074C131.99 46.8587 131.441 46.751 130.897 46.751C130.489 46.751 130.183 46.8303 129.979 46.989C129.775 47.1477 129.673 47.3517 129.673 47.601C129.673 47.9183 129.786 48.1393 130.013 48.264C130.228 48.4 130.483 48.468 130.778 48.468C131.197 48.468 131.537 48.3773 131.798 48.196C132.047 48.026 132.24 47.8107 132.376 47.55C132.512 47.2893 132.602 47.0173 132.648 46.734C132.693 46.462 132.716 46.2183 132.716 46.003V44.116H133.94V45.799C133.94 46.105 133.906 46.4677 133.838 46.887C133.77 47.3063 133.628 47.7143 133.413 48.111C133.197 48.519 132.88 48.8533 132.461 49.114C132.041 49.386 131.48 49.522 130.778 49.522ZM150.319 34.426C150.307 33.9613 150.194 33.627 149.979 33.423C149.775 33.219 149.435 33.117 148.959 33.117H146.579C145.842 33.117 145.27 33.066 144.862 32.964C144.465 32.862 144.125 32.7033 143.842 32.488C143.536 32.2613 143.303 31.9723 143.145 31.621C142.997 31.2583 142.924 30.8503 142.924 30.397C142.924 30.2497 142.929 30.1023 142.941 29.955C142.963 29.8077 142.986 29.6547 143.009 29.496L144.267 29.581C144.244 29.717 144.227 29.836 144.216 29.938C144.204 30.04 144.199 30.1363 144.199 30.227C144.199 30.4763 144.221 30.6973 144.267 30.89C144.323 31.0827 144.408 31.2413 144.522 31.366C144.68 31.5473 144.907 31.6833 145.202 31.774C145.496 31.8533 145.927 31.893 146.494 31.893H148.602C149.202 31.893 149.678 31.9383 150.03 32.029C150.381 32.1197 150.681 32.284 150.931 32.522C151.123 32.7033 151.271 32.9527 151.373 33.27C151.475 33.576 151.531 33.9613 151.543 34.426H150.319ZM153.957 34.426V35.633H147.735V38.676C147.735 39.0047 147.786 39.2483 147.888 39.407C147.99 39.5543 148.148 39.628 148.364 39.628C148.579 39.628 148.8 39.56 149.027 39.424C149.265 39.288 149.52 39.0727 149.792 38.778C150.064 38.4833 150.358 38.1037 150.676 37.639L151.696 37.486C152.058 38.0187 152.336 38.5683 152.529 39.135C152.733 39.7017 152.835 40.2683 152.835 40.835C152.835 41.549 152.676 42.1893 152.359 42.756C152.053 43.3227 151.594 43.7703 150.982 44.099C150.381 44.4277 149.644 44.592 148.772 44.592C148.024 44.592 147.327 44.4617 146.681 44.201C146.035 43.9403 145.44 43.521 144.896 42.943C144.352 42.3537 143.853 41.583 143.4 40.631C142.946 39.6677 142.538 38.489 142.176 37.095L143.468 36.755C143.876 38.3303 144.323 39.5997 144.811 40.563C145.309 41.515 145.876 42.212 146.511 42.654C147.145 43.0847 147.876 43.3 148.704 43.3C149.61 43.3 150.307 43.0733 150.795 42.62C151.293 42.1667 151.543 41.583 151.543 40.869C151.543 40.359 151.469 39.9227 151.322 39.56C151.186 39.1973 151.004 38.897 150.778 38.659L151.56 38.336C151.22 38.914 150.868 39.39 150.506 39.764C150.154 40.138 149.797 40.4213 149.435 40.614C149.083 40.7953 148.732 40.886 148.381 40.886C148.12 40.886 147.876 40.852 147.65 40.784C147.423 40.7047 147.23 40.5913 147.072 40.444C146.89 40.2853 146.737 40.0643 146.613 39.781C146.488 39.4863 146.426 38.999 146.426 38.319V35.633H141.513V34.426H153.957ZM164.206 34.426V35.633H156.488V40.699L156.25 40.359C156.703 39.849 157.219 39.373 157.797 38.931C158.375 38.489 159.004 38.0867 159.684 37.724C160.364 37.35 161.089 37.0213 161.86 36.738L162.965 37.826C162.75 38.2227 162.574 38.608 162.438 38.982C162.313 39.356 162.217 39.747 162.149 40.155C162.092 40.563 162.064 41.0163 162.064 41.515C162.064 42.0703 162.109 42.603 162.2 43.113C162.291 43.623 162.444 44.1953 162.659 44.83L161.384 45.119C161.18 44.4617 161.021 43.8213 160.908 43.198C160.795 42.5633 160.738 41.906 160.738 41.226C160.738 40.7613 160.772 40.325 160.84 39.917C160.908 39.509 160.999 39.1463 161.112 38.829C161.237 38.5003 161.361 38.234 161.486 38.03L161.69 38.115C161.044 38.3757 160.415 38.693 159.803 39.067C159.191 39.441 158.59 39.8717 158.001 40.359C157.412 40.8463 156.805 41.4017 156.182 42.025L155.179 41.345V35.633H153.615V34.426H164.206ZM168.72 34.426V35.633H166.935V45H165.626V37.027C165.49 36.6417 165.286 36.313 165.014 36.041C164.754 35.769 164.414 35.633 163.994 35.633H163.858V34.426H164.113C164.385 34.426 164.669 34.5167 164.963 34.698C165.258 34.868 165.496 35.1343 165.677 35.497C165.666 35.4403 165.655 35.31 165.643 35.106C165.632 34.902 165.626 34.7263 165.626 34.579V33.304H166.544L166.918 34.426H168.72ZM172.658 36.5C173.553 36.5 174.273 36.653 174.817 36.959C175.372 37.2537 175.78 37.6333 176.041 38.098C176.302 38.5513 176.432 39.0103 176.432 39.475C176.432 40.4043 176.103 41.141 175.446 41.685C174.8 42.229 173.837 42.535 172.556 42.603L172.726 42.416C173.236 42.5633 173.774 42.773 174.341 43.045C174.908 43.317 175.48 43.6343 176.058 43.997C176.636 44.3483 177.191 44.7393 177.724 45.17L176.942 46.071C176.239 45.5497 175.593 45.102 175.004 44.728C174.426 44.3427 173.854 44.0083 173.287 43.725C172.72 43.4417 172.12 43.1923 171.485 42.977C170.85 42.7617 170.131 42.5633 169.326 42.382L169.581 41.209C169.978 41.3223 170.357 41.4073 170.72 41.464C171.094 41.5093 171.542 41.532 172.063 41.532C172.868 41.532 173.485 41.4357 173.916 41.243C174.358 41.0503 174.664 40.801 174.834 40.495C175.004 40.189 175.089 39.8773 175.089 39.56C175.089 38.9593 174.868 38.5003 174.426 38.183C173.984 37.8543 173.423 37.69 172.743 37.69C172.335 37.69 172.006 37.7297 171.757 37.809C171.508 37.8883 171.326 38.0073 171.213 38.166C171.111 38.3133 171.06 38.4947 171.06 38.71C171.06 38.8007 171.071 38.897 171.094 38.999C171.117 39.0897 171.139 39.1747 171.162 39.254L169.921 39.509C169.864 39.339 169.819 39.1633 169.785 38.982C169.751 38.7893 169.734 38.6193 169.734 38.472C169.734 38.0527 169.859 37.6957 170.108 37.401C170.357 37.1063 170.697 36.8853 171.128 36.738C171.57 36.5793 172.08 36.5 172.658 36.5ZM171.519 37.095C171.462 36.7323 171.292 36.415 171.009 36.143C170.726 35.8597 170.318 35.6613 169.785 35.548L170.193 34.783L170.975 34.987C171.61 35.2363 172.069 35.5197 172.352 35.837C172.647 36.1543 172.817 36.5567 172.862 37.044L171.519 37.095ZM177.724 34.426V35.633H168.374V34.426H177.724ZM187.861 34.426V35.633H186.076V45H184.767C184.427 44.32 183.956 43.6967 183.356 43.13C182.766 42.552 182.086 42.0647 181.316 41.668C180.545 41.2713 179.723 41.005 178.851 40.869L178.188 39.237C179.276 38.5797 180.398 37.9847 181.554 37.452C182.721 36.9193 183.922 36.466 185.158 36.092L184.767 36.806V35.633H177.389V34.426H187.861ZM184.767 36.942L185.124 37.418C184.262 37.7013 183.356 38.0527 182.404 38.472C181.452 38.88 180.573 39.3333 179.769 39.832C180.381 39.968 181.032 40.2003 181.724 40.529C182.415 40.8577 183.055 41.2713 183.645 41.77C184.234 42.2687 184.687 42.8467 185.005 43.504H184.852C184.829 43.2433 184.806 42.9827 184.784 42.722C184.772 42.4613 184.767 42.1497 184.767 41.787V36.942ZM180.704 45.102C180.42 45.102 180.177 45.0113 179.973 44.83C179.78 44.6487 179.684 44.4107 179.684 44.116C179.684 43.8213 179.78 43.5777 179.973 43.385C180.177 43.1923 180.42 43.096 180.704 43.096C180.987 43.096 181.225 43.1923 181.418 43.385C181.622 43.5777 181.724 43.8213 181.724 44.116C181.724 44.4107 181.622 44.6487 181.418 44.83C181.225 45.0113 180.987 45.102 180.704 45.102ZM198.396 34.426V35.633H196.611V45H195.302V37.775L195.642 38.829C195.12 38.0697 194.627 37.452 194.163 36.976C193.698 36.4887 193.245 36.1317 192.803 35.905C192.361 35.667 191.913 35.548 191.46 35.548C191.108 35.548 190.802 35.616 190.542 35.752C190.292 35.888 190.1 36.075 189.964 36.313C189.828 36.5397 189.76 36.8117 189.76 37.129C189.76 37.4917 189.845 37.7977 190.015 38.047C190.196 38.2963 190.474 38.4947 190.848 38.642C191.233 38.7893 191.737 38.897 192.361 38.965L192.259 40.376C191.511 40.308 190.842 40.1493 190.253 39.9C189.675 39.6393 189.216 39.2823 188.876 38.829C188.536 38.3643 188.366 37.8033 188.366 37.146C188.366 36.534 188.502 36.0183 188.774 35.599C189.046 35.1683 189.403 34.8453 189.845 34.63C190.287 34.4147 190.763 34.307 191.273 34.307C191.862 34.307 192.395 34.409 192.871 34.613C193.358 34.817 193.828 35.1173 194.282 35.514C194.735 35.8993 195.2 36.381 195.676 36.959L195.404 36.891C195.37 36.6983 195.341 36.4433 195.319 36.126C195.307 35.7973 195.302 35.4913 195.302 35.208V33.304H196.203L196.594 34.426H198.396ZM208.696 34.426V35.633H208.356C208.004 35.7123 207.625 35.888 207.217 36.16C206.809 36.4207 206.423 36.7663 206.061 37.197C205.698 37.6163 205.398 38.1093 205.16 38.676C204.933 39.2427 204.82 39.866 204.82 40.546C204.82 41.362 204.939 42.0137 205.177 42.501C205.426 42.977 205.732 43.317 206.095 43.521C206.457 43.725 206.82 43.827 207.183 43.827C207.466 43.827 207.704 43.7987 207.897 43.742C208.089 43.6853 208.31 43.5833 208.56 43.436L209.155 44.473C208.86 44.6997 208.537 44.8583 208.186 44.949C207.834 45.0397 207.477 45.085 207.115 45.085C206.401 45.085 205.772 44.898 205.228 44.524C204.684 44.15 204.253 43.6287 203.936 42.96C203.63 42.28 203.477 41.4867 203.477 40.58C203.477 39.7073 203.613 38.931 203.885 38.251C204.168 37.5597 204.531 36.959 204.973 36.449C205.426 35.939 205.913 35.5197 206.435 35.191C206.956 34.851 207.46 34.596 207.948 34.426H208.696ZM218.942 34.426V35.633H211.224V40.699L210.986 40.359C211.439 39.849 211.955 39.373 212.533 38.931C213.111 38.489 213.74 38.0867 214.42 37.724C215.1 37.35 215.825 37.0213 216.596 36.738L217.701 37.826C217.485 38.2227 217.31 38.608 217.174 38.982C217.049 39.356 216.953 39.747 216.885 40.155C216.828 40.563 216.8 41.0163 216.8 41.515C216.8 42.0703 216.845 42.603 216.936 43.113C217.026 43.623 217.179 44.1953 217.395 44.83L216.12 45.119C215.916 44.4617 215.757 43.8213 215.644 43.198C215.53 42.5633 215.474 41.906 215.474 41.226C215.474 40.7613 215.508 40.325 215.576 39.917C215.644 39.509 215.734 39.1463 215.848 38.829C215.972 38.5003 216.097 38.234 216.222 38.03L216.426 38.115C215.78 38.3757 215.151 38.693 214.539 39.067C213.927 39.441 213.326 39.8717 212.737 40.359C212.147 40.8463 211.541 41.4017 210.918 42.025L209.915 41.345V35.633H208.351V34.426H218.942ZM229.576 34.426V35.633H227.791V45H226.482C226.006 44.3653 225.479 43.81 224.901 43.334C224.323 42.8467 223.654 42.4387 222.895 42.11C222.135 41.7813 221.234 41.5433 220.192 41.396L219.58 39.849C219.931 39.611 220.299 39.3843 220.685 39.169C221.07 38.9537 221.461 38.744 221.858 38.54C222.266 38.336 222.662 38.1433 223.048 37.962C222.617 37.6333 222.118 37.3443 221.552 37.095C220.996 36.8343 220.339 36.6247 219.58 36.466L220.107 35.31L220.141 35.633H218.594V34.426H229.576ZM226.482 35.633H221.059L220.702 35.48C221.178 35.5933 221.654 35.7747 222.13 36.024C222.617 36.2733 223.065 36.5453 223.473 36.84C223.892 37.1233 224.226 37.3953 224.476 37.656L224.561 38.608C224.153 38.7893 223.722 38.9877 223.269 39.203C222.827 39.4183 222.396 39.6337 221.977 39.849C221.569 40.0643 221.206 40.2797 220.889 40.495L220.685 40.24C221.659 40.376 222.509 40.6027 223.235 40.92C223.971 41.2373 224.623 41.6227 225.19 42.076C225.756 42.5293 226.278 43.0337 226.754 43.589L226.533 43.657C226.521 43.419 226.51 43.164 226.499 42.892C226.487 42.6087 226.482 42.3423 226.482 42.093V35.633ZM221.824 45.102C221.54 45.102 221.297 45.0113 221.093 44.83C220.9 44.6487 220.804 44.4107 220.804 44.116C220.804 43.8213 220.9 43.5777 221.093 43.385C221.297 43.1923 221.54 43.096 221.824 43.096C222.107 43.096 222.345 43.1923 222.538 43.385C222.742 43.5777 222.844 43.8213 222.844 44.116C222.844 44.4107 222.742 44.6487 222.538 44.83C222.345 45.0113 222.107 45.102 221.824 45.102ZM234.097 34.426V35.633H232.312V45H231.003V37.027C230.867 36.6417 230.663 36.313 230.391 36.041C230.131 35.769 229.791 35.633 229.371 35.633H229.235V34.426H229.49C229.762 34.426 230.046 34.5167 230.34 34.698C230.635 34.868 230.873 35.1343 231.054 35.497C231.043 35.4403 231.032 35.31 231.02 35.106C231.009 34.902 231.003 34.7263 231.003 34.579V33.304H231.921L232.295 34.426H234.097ZM242.451 36.5C243.346 36.5 244.066 36.653 244.61 36.959C245.165 37.2537 245.573 37.6333 245.834 38.098C246.095 38.5513 246.225 39.0103 246.225 39.475C246.225 40.4043 245.896 41.141 245.239 41.685C244.593 42.229 243.63 42.535 242.349 42.603L242.519 42.416C243.029 42.5633 243.567 42.773 244.134 43.045C244.701 43.317 245.273 43.6343 245.851 43.997C246.429 44.3483 246.984 44.7393 247.517 45.17L246.735 46.071C246.032 45.5497 245.386 45.102 244.797 44.728C244.219 44.3427 243.647 44.0083 243.08 43.725C242.513 43.4417 241.913 43.1923 241.278 42.977C240.643 42.7617 239.924 42.5633 239.119 42.382L239.374 41.209C239.771 41.3223 240.15 41.4073 240.513 41.464C240.887 41.5093 241.335 41.532 241.856 41.532C242.661 41.532 243.278 41.4357 243.709 41.243C244.151 41.0503 244.457 40.801 244.627 40.495C244.797 40.189 244.882 39.8773 244.882 39.56C244.882 38.9593 244.661 38.5003 244.219 38.183C243.777 37.8543 243.216 37.69 242.536 37.69C242.128 37.69 241.799 37.7297 241.55 37.809C241.301 37.8883 241.119 38.0073 241.006 38.166C240.904 38.3133 240.853 38.4947 240.853 38.71C240.853 38.8007 240.864 38.897 240.887 38.999C240.91 39.0897 240.932 39.1747 240.955 39.254L239.714 39.509C239.657 39.339 239.612 39.1633 239.578 38.982C239.544 38.7893 239.527 38.6193 239.527 38.472C239.527 38.0527 239.652 37.6957 239.901 37.401C240.15 37.1063 240.49 36.8853 240.921 36.738C241.363 36.5793 241.873 36.5 242.451 36.5ZM241.312 37.095C241.255 36.7323 241.085 36.415 240.802 36.143C240.519 35.8597 240.111 35.6613 239.578 35.548L239.986 34.783L240.768 34.987C241.403 35.2363 241.862 35.5197 242.145 35.837C242.44 36.1543 242.61 36.5567 242.655 37.044L241.312 37.095ZM247.517 34.426V35.633H238.167V34.426H247.517ZM253.404 34.426V35.633H253.064C252.712 35.7123 252.333 35.888 251.925 36.16C251.517 36.4207 251.131 36.7663 250.769 37.197C250.406 37.6163 250.106 38.1093 249.868 38.676C249.641 39.2427 249.528 39.866 249.528 40.546C249.528 41.362 249.647 42.0137 249.885 42.501C250.134 42.977 250.44 43.317 250.803 43.521C251.165 43.725 251.528 43.827 251.891 43.827C252.174 43.827 252.412 43.7987 252.605 43.742C252.797 43.6853 253.018 43.5833 253.268 43.436L253.863 44.473C253.568 44.6997 253.245 44.8583 252.894 44.949C252.542 45.0397 252.191 45.085 251.84 45.085C251.126 45.085 250.491 44.898 249.936 44.524C249.392 44.15 248.961 43.6287 248.644 42.96C248.338 42.28 248.185 41.4867 248.185 40.58C248.185 39.6507 248.36 38.812 248.712 38.064C249.063 37.3047 249.533 36.6643 250.123 36.143C250.723 35.6217 251.386 35.242 252.112 35.004L251.024 35.565C250.82 35.5877 250.599 35.6047 250.361 35.616C250.123 35.6273 249.856 35.633 249.562 35.633H247.182V34.426H253.404ZM265.826 34.426V35.633H264.041V45H262.732V39.305L262.834 39.747C262.584 39.3843 262.318 39.0953 262.035 38.88C261.763 38.6647 261.462 38.557 261.134 38.557C260.964 38.557 260.788 38.591 260.607 38.659C260.437 38.7157 260.289 38.829 260.165 38.999C260.051 39.169 259.995 39.4297 259.995 39.781C259.995 39.9057 259.995 40.019 259.995 40.121C260.006 40.2117 260.017 40.3023 260.029 40.393L258.924 40.478C258.878 40.0133 258.754 39.6223 258.55 39.305C258.346 38.9763 258.096 38.727 257.802 38.557C257.507 38.387 257.19 38.302 256.85 38.302C256.544 38.302 256.283 38.3643 256.068 38.489C255.852 38.6023 255.688 38.761 255.575 38.965C255.461 39.1577 255.405 39.3787 255.405 39.628C255.405 40.0813 255.569 40.4667 255.898 40.784C256.238 41.1013 256.714 41.3677 257.326 41.583L256.867 42.841C256.323 42.671 255.835 42.4387 255.405 42.144C254.974 41.8493 254.634 41.4867 254.385 41.056C254.135 40.6253 254.011 40.1267 254.011 39.56C254.011 39.05 254.135 38.6137 254.385 38.251C254.634 37.877 254.968 37.588 255.388 37.384C255.807 37.18 256.266 37.078 256.765 37.078C257.365 37.078 257.881 37.1913 258.312 37.418C258.742 37.6333 259.139 37.9847 259.502 38.472L259.247 38.489C259.36 38.115 259.575 37.8317 259.893 37.639C260.221 37.435 260.561 37.333 260.913 37.333C261.321 37.333 261.672 37.4123 261.967 37.571C262.261 37.7297 262.584 37.9563 262.936 38.251L262.783 38.506C262.771 38.268 262.76 38.03 262.749 37.792C262.737 37.554 262.732 37.3103 262.732 37.061V35.633H253.059V34.426H265.826ZM270.355 34.426V35.633H268.57V45H267.261V37.027C267.125 36.6417 266.921 36.313 266.649 36.041C266.388 35.769 266.048 35.633 265.629 35.633H265.493V34.426H265.748C266.02 34.426 266.303 34.5167 266.598 34.698C266.893 34.868 267.131 35.1343 267.312 35.497C267.301 35.4403 267.289 35.31 267.278 35.106C267.267 34.902 267.261 34.7263 267.261 34.579V33.304H268.179L268.553 34.426H270.355ZM271.505 36.738C271.505 36.2733 271.607 35.871 271.811 35.531C272.026 35.1797 272.315 34.9077 272.678 34.715C273.04 34.5223 273.448 34.426 273.902 34.426C274.355 34.426 274.763 34.5223 275.126 34.715C275.488 34.9077 275.772 35.1797 275.976 35.531C276.191 35.871 276.299 36.2733 276.299 36.738C276.299 37.2027 276.191 37.6107 275.976 37.962C275.772 38.3133 275.488 38.5853 275.126 38.778C274.763 38.9707 274.355 39.067 273.902 39.067C273.448 39.067 273.04 38.9707 272.678 38.778C272.315 38.5853 272.026 38.319 271.811 37.979C271.607 37.6277 271.505 37.214 271.505 36.738ZM272.678 36.738C272.678 37.1233 272.791 37.4237 273.018 37.639C273.256 37.8543 273.55 37.962 273.902 37.962C274.264 37.962 274.559 37.8543 274.786 37.639C275.012 37.4123 275.126 37.112 275.126 36.738C275.126 36.3753 275.012 36.0863 274.786 35.871C274.559 35.6443 274.264 35.531 273.902 35.531C273.55 35.531 273.256 35.6443 273.018 35.871C272.791 36.0863 272.678 36.3753 272.678 36.738ZM271.505 42.671C271.505 42.2063 271.607 41.804 271.811 41.464C272.026 41.1127 272.315 40.8407 272.678 40.648C273.04 40.4553 273.448 40.359 273.902 40.359C274.355 40.359 274.763 40.4553 275.126 40.648C275.488 40.8293 275.772 41.0957 275.976 41.447C276.191 41.787 276.299 42.195 276.299 42.671C276.299 43.1357 276.191 43.5437 275.976 43.895C275.772 44.2463 275.488 44.5183 275.126 44.711C274.763 44.9037 274.355 45 273.902 45C273.448 45 273.04 44.9037 272.678 44.711C272.315 44.5183 272.026 44.2463 271.811 43.895C271.607 43.5437 271.505 43.1357 271.505 42.671ZM272.678 42.671C272.678 43.045 272.791 43.3453 273.018 43.572C273.256 43.7873 273.55 43.895 273.902 43.895C274.264 43.895 274.559 43.7873 274.786 43.572C275.012 43.3453 275.126 43.045 275.126 42.671C275.126 42.297 275.012 42.0023 274.786 41.787C274.559 41.5717 274.264 41.464 273.902 41.464C273.55 41.464 273.256 41.5773 273.018 41.804C272.791 42.0193 272.678 42.3083 272.678 42.671Z" fill="#F5F9FA"/>
<path d="M140.995 98.903L140.995 98.9031C140.181 99.63 139.3 100.201 138.35 100.622C138.35 100.622 138.346 100.623 138.338 100.625C138.304 100.635 138.197 100.664 137.973 100.709C137.705 100.763 137.335 100.829 136.859 100.906L136.858 100.906C135.899 101.06 134.838 101.225 133.676 101.399C132.522 101.573 131.433 101.717 130.408 101.833C129.361 101.95 128.736 102 128.473 102C128.468 102 128.463 102 128.457 102C128.665 101.866 128.929 101.712 129.256 101.539C130.393 100.937 132.135 100.182 134.507 99.2734C136.877 98.3791 138.616 97.6267 139.673 97.0186C140.2 96.7166 140.655 96.4001 140.991 96.0617C141.31 95.7394 141.649 95.2676 141.649 94.6653C141.649 93.8711 141.235 93.2426 140.656 92.7914C140.102 92.3598 139.351 92.0467 138.485 91.8078C136.92 91.3763 134.719 91.1195 131.922 91.0153C132.242 90.4396 132.603 89.7874 133.005 89.0586C133.615 87.9582 134.335 86.6632 135.164 85.1734C135.56 85.0651 136.071 85 136.718 85C137.793 85 138.84 85.1429 139.862 85.4284C140.884 85.7163 141.769 86.1141 142.529 86.6139C143.289 87.1146 143.886 87.6888 144.335 88.3319C144.753 88.933 144.969 89.5688 145 90.2573C144.998 91.3107 144.833 92.3695 144.5 93.4366C144.163 94.5197 143.7 95.5157 143.113 96.428C142.525 97.3418 141.819 98.1664 140.995 98.903Z" fill="#F5F9FA" stroke="#F5F9FA" stroke-width="2"/>
<path d="M186 101L197.5 88L209 101" stroke="#F5F9FA" stroke-width="5"/>
<circle cx="249.5" cy="93.5" r="7.5" stroke="#F5F9FA" stroke-width="4"/>
</svg>
