<svg width="381" height="155" viewBox="0 0 381 155" fill="none" xmlns="http://www.w3.org/2000/svg">
<path d="M19.612 4.266V4.086H22.024V5.922H23.824V7.884H22.024V18H19.504V9.99C19.504 8.226 18.91 7.884 17.776 7.884H16.624V16.128L17.506 16.65L15.904 18.288L11.62 15.786C10.81 16.542 9.64 16.974 8.218 16.974C4.582 16.974 2.386 14.04 1.342 10.008L3.592 8.928C4.312 12.258 5.824 14.724 8.2 14.724C9.748 14.724 10.576 13.734 10.576 12.312C10.576 11.34 10.09 10.728 9.388 10.728C8.884 10.728 8.578 11.052 8.578 11.484C8.578 11.862 8.794 12.168 9.262 12.348L7.642 13.59C6.616 13.266 6.058 12.294 6.058 11.268C6.058 9.738 7.372 8.46 9.19 8.46C11.44 8.46 13.006 10.116 13.006 12.33C13.006 12.906 12.934 13.428 12.79 13.914L14.32 14.814L14.374 14.778C14.23 14.328 14.158 12.978 14.158 11.988V7.884H0.64V5.922H18.442C19.27 5.922 19.702 6.282 19.918 6.552H20.044C19.792 5.886 19.612 5.112 19.612 4.266ZM34.5888 4.446C33.1308 3.366 31.3308 2.808 29.7828 2.808C28.2708 2.808 27.4068 3.582 27.4068 4.914V5.922H29.2068V7.884H27.4068V18H24.9048V7.884H23.1048V5.922H24.9048V4.77C24.9048 2.43 26.5968 0.593999 29.7288 0.593999C32.2848 0.593999 34.4808 1.53 35.9748 2.664L34.5888 4.446ZM35.3418 16.65C34.9278 16.776 34.4418 16.848 33.8478 16.848C31.1478 16.848 29.5458 15.138 29.5458 12.888C29.5458 10.548 31.2197 9.198 33.0018 9.198C34.4778 9.198 35.2878 10.008 35.5038 10.656H35.5758C35.7558 9.864 36.5478 9.162 37.5558 9.162C38.2758 9.162 38.7798 9.45 38.9238 9.594H39.0137V7.884H28.4837V5.922H43.2978V7.884H41.4978V18H39.0137V11.988C38.8518 11.646 38.4198 11.358 37.8798 11.358C37.1418 11.358 36.6378 11.898 36.6378 12.816V13.392H34.3338V12.816C34.3338 11.772 33.8478 11.412 33.2358 11.412C32.6238 11.412 32.0298 11.88 32.0298 12.834C32.0298 14.004 32.8758 14.706 33.9918 14.706C34.3518 14.706 34.7298 14.634 35.0358 14.49L35.3418 16.65ZM52.1934 16.164L53.0394 16.65L51.4734 18.288L43.8414 14.04V12.042L46.0014 10.404L43.8414 8.586V7.884H42.5814V5.922H57.8634V7.884H46.3614V7.956L48.3594 9.63V11.322L46.2894 12.888L49.8714 14.868H49.9434C49.8174 13.968 49.7274 12.348 49.7274 11.358V9.36C50.4114 8.982 51.5634 8.676 52.6974 8.676C54.9294 8.676 56.7114 9.936 56.7114 12.276C56.7114 14.31 55.3974 15.264 54.3534 15.696L53.1114 13.752C53.6514 13.608 54.3894 13.176 54.3894 12.24C54.3894 11.304 53.7414 10.836 52.8954 10.836C52.6614 10.836 52.4094 10.89 52.1934 10.962V16.164ZM65.187 7.308C65.979 6.444 67.113 5.778 68.679 5.778C70.587 5.778 72.351 6.93 72.351 9.09C72.351 10.008 72.027 10.782 71.433 11.43C72.297 11.934 73.287 12.87 73.287 14.508C73.287 16.434 71.883 18.18 69.291 18.18C65.529 18.18 63.639 14.22 62.901 11.16L65.187 10.26C65.781 13.518 67.383 15.876 69.273 15.876C70.281 15.876 70.839 15.264 70.839 14.4C70.839 13.554 70.137 12.942 69.543 12.708C69.165 12.852 68.769 12.996 68.355 13.104L67.113 11.106C69.237 10.62 69.921 9.792 69.921 9.036C69.921 8.28 69.363 7.956 68.715 7.956C67.995 7.956 67.311 8.406 66.789 8.964L65.187 7.308ZM83.9789 15.714C84.6989 15.876 85.2209 16.074 86.4089 16.758L87.7049 17.514L86.0489 19.188C82.1969 16.848 81.7469 16.47 80.0369 16.344V14.364H81.2609C83.4209 14.364 84.7529 13.608 84.7529 12.186C84.7529 11.304 84.2849 10.674 83.4389 10.674C82.9169 10.674 82.5389 10.98 82.5389 11.484C82.5389 11.862 82.7549 12.168 83.2409 12.348L81.5849 13.59C80.5409 13.194 80.0549 12.294 80.0549 11.268C80.0549 9.738 81.2969 8.46 83.4569 8.46C85.7249 8.46 87.1829 10.026 87.1829 12.186C87.1829 14.31 85.7249 15.39 83.9789 15.642V15.714ZM78.6869 7.884V5.922H88.5149V7.884H78.6869ZM89.7003 4.266V4.086H92.1123V5.922H93.9123V7.884H92.1123V18H89.5923V9.99C89.5923 8.226 88.9983 7.884 87.8643 7.884H87.7923V5.922H88.5303C89.3583 5.922 89.7903 6.282 90.0063 6.552H90.1323C89.8803 5.886 89.7003 5.112 89.7003 4.266ZM105.141 7.884H103.341V18H101.055C100.623 16.452 99.6148 14.994 98.2648 14.184C97.8148 15.03 97.0588 15.426 96.3748 15.426C95.4568 15.426 94.6468 14.85 94.6468 13.77C94.6468 12.816 95.2588 12.042 96.2668 11.754C96.1048 10.278 95.2048 8.91 94.1068 8.28V7.884H93.1888V5.922H105.141V7.884ZM101.037 13.77L101.109 13.734C101.109 13.734 100.929 12.744 100.929 10.368V7.884H97.0768V7.974C97.5808 8.478 98.5348 9.9 98.6428 11.952C99.6328 12.33 100.497 13.032 101.037 13.77ZM107.265 10.638C107.571 13.392 109.065 15.588 111.333 15.588C112.557 15.588 113.097 14.976 113.097 14.292C113.097 13.95 112.989 13.788 112.917 13.68L111.423 13.5C109.803 13.302 109.155 12.582 109.155 11.466C109.155 9.954 110.253 8.712 111.297 7.884H104.421V5.922H121.179V7.884H115.023C115.365 8.838 116.427 9.774 118.533 9.774H119.127L119.991 11.646C119.325 12.834 119.037 14.382 119.037 15.876V18.252H116.553V15.696C116.553 14.364 116.787 12.888 117.453 11.88C115.059 11.61 113.727 10.242 113.205 9.054C112.251 9.774 111.819 10.458 111.819 10.98C111.819 11.214 111.927 11.412 112.521 11.484L114.483 11.718C115.095 12.33 115.599 13.158 115.599 14.238C115.599 15.966 114.177 17.838 111.369 17.838C107.877 17.838 105.501 14.94 104.979 11.466L107.265 10.638ZM122.361 4.266V4.086H124.773V5.922H126.573V7.884H124.773V18H122.253V9.99C122.253 8.226 121.659 7.884 120.524 7.884H120.452V5.922H121.191C122.019 5.922 122.451 6.282 122.667 6.552H122.793C122.541 5.886 122.361 5.112 122.361 4.266ZM134.494 16.02C132.568 16.02 131.506 14.85 131.074 13.698L132.964 12.546C133.252 13.194 133.612 13.824 134.476 13.824C135.268 13.824 135.682 13.23 135.682 12.492C135.682 11.16 134.854 10.188 133.972 9.288L133.288 8.586V7.884H130.894V5.922H144.16V7.884H142.378V18H139.84V13.608C139.84 13.212 139.606 12.96 139.228 12.96C138.562 12.96 138.112 13.77 137.392 14.562C136.564 15.48 135.52 16.02 134.494 16.02ZM139.894 10.692C139.858 10.278 139.84 9.36 139.84 9.09V7.884H135.898V7.956L136.402 8.568C137.014 9.324 137.356 9.972 137.518 10.584C137.59 10.854 137.626 11.124 137.644 11.376C138.022 11.034 138.562 10.566 139.192 10.566C139.498 10.566 139.678 10.602 139.894 10.692ZM145.37 4.266V4.086H147.782V5.922H149.582V7.884H147.782V18H145.262V9.99C145.262 8.226 144.668 7.884 143.534 7.884H143.462V5.922H144.2C145.028 5.922 145.46 6.282 145.676 6.552H145.802C145.55 5.886 145.37 5.112 145.37 4.266ZM160.343 4.446C158.885 3.366 157.085 2.808 155.537 2.808C154.025 2.808 153.161 3.582 153.161 4.914V5.922H154.961V7.884H153.161V18H150.659V7.884H148.859V5.922H150.659V4.77C150.659 2.43 152.351 0.593999 155.483 0.593999C158.039 0.593999 160.235 1.53 161.729 2.664L160.343 4.446ZM163.616 14.364C164.372 14.112 164.948 13.518 164.948 12.744C164.948 11.898 164.246 11.196 162.95 11.124V16.128L163.904 16.758L162.176 18.216L155.228 13.59V11.43C156.65 10.368 158.414 9.432 160.52 9.09V7.884H154.238V5.922H168.224V7.884H162.95V8.946C165.83 9.126 167.252 10.962 167.252 12.834C167.252 14.292 166.46 15.498 165.164 16.128L163.616 14.364ZM157.586 12.6L160.592 14.562H160.664C160.556 13.662 160.52 12.366 160.52 11.412V11.304C159.368 11.574 158.414 12.042 157.586 12.6ZM171.721 14.256L169.471 15.192C168.931 14.724 168.553 14.022 168.553 13.068C168.553 10.926 170.101 9.738 172.225 9.738C173.881 9.738 175.303 10.458 176.167 11.844L176.239 11.826C176.149 11.16 176.077 10.242 176.077 9.288V7.884H167.527V5.922H180.397V7.884H178.597V18H176.077V17.892C176.077 15.318 174.529 12.024 172.369 12.024C171.613 12.024 171.091 12.366 171.091 13.086C171.091 13.608 171.361 14.004 171.721 14.256ZM180.915 9.63C180.915 8.586 181.689 7.812 182.661 7.812C183.687 7.812 184.461 8.586 184.461 9.63C184.461 10.584 183.687 11.358 182.661 11.358C181.689 11.358 180.915 10.584 180.915 9.63ZM180.915 16.434C180.915 15.39 181.689 14.616 182.661 14.616C183.687 14.616 184.461 15.39 184.461 16.434C184.461 17.388 183.687 18.162 182.661 18.162C181.689 18.162 180.915 17.388 180.915 16.434Z" fill="#FFCA3A"/>
<path d="M201.417 7.596H199.257V18H197.997C197.763 16.11 196.287 13.968 194.469 13.428C194.145 14.454 193.515 14.832 192.993 14.832C192.363 14.832 191.931 14.418 191.931 13.788C191.931 13.068 192.471 12.402 193.389 12.222C193.389 12.15 193.389 12.06 193.389 11.952C193.389 9.864 192.003 8.262 191.193 7.83V7.596H190.167V6.444H201.417V7.596ZM198.015 14.976L198.051 14.958C198.015 14.112 197.943 13.05 197.943 11.718V7.596H192.957V7.668C193.533 8.244 194.649 9.846 194.649 11.97C194.649 12.078 194.649 12.186 194.649 12.276C196.179 12.6 197.421 13.86 198.015 14.976ZM205.737 17.172L205.071 18.234C203.073 17.46 202.011 15.354 202.011 12.726C202.011 10.854 202.605 8.928 203.397 7.596H200.697V6.444H206.295V7.596H204.891C203.937 8.82 203.325 10.836 203.325 12.726C203.325 14.85 204.081 16.416 205.737 17.172ZM208.589 14.022L207.419 14.544C206.987 14.13 206.735 13.536 206.735 12.798C206.735 11.07 207.869 9.936 209.795 9.936C212.117 9.936 213.539 11.61 214.259 13.14H214.331C214.313 12.996 214.151 11.844 214.151 9.558V7.596H205.583V6.444H217.625V7.596H215.483V18H214.151V17.622C214.151 14.796 212.567 11.178 209.867 11.178C208.643 11.178 208.049 11.862 208.049 12.798C208.049 13.266 208.265 13.698 208.589 14.022ZM231.251 14.868C232.025 14.544 232.691 13.716 232.691 12.726C232.691 11.466 231.719 10.512 229.919 10.476V16.794L230.657 17.388L229.631 18.18L223.367 13.014V11.862C224.879 10.566 226.697 9.594 228.623 9.324V7.596H222.089V6.444H235.247V7.596H229.919V9.252C232.529 9.306 233.987 10.98 233.987 12.744C233.987 14.148 233.195 15.264 232.169 15.822L231.251 14.868ZM224.681 12.474L228.677 15.84H228.749C228.641 14.544 228.623 13.356 228.623 12.222V10.584C227.111 10.8 225.689 11.646 224.681 12.474ZM239.575 17.172L238.909 18.234C236.911 17.46 235.849 15.354 235.849 12.726C235.849 10.854 236.443 8.928 237.235 7.596H234.535V6.444H240.133V7.596H238.729C237.775 8.82 237.163 10.836 237.163 12.726C237.163 14.85 237.919 16.416 239.575 17.172ZM241.563 18.144C241.563 18.684 241.941 19.044 242.445 19.044C242.967 19.044 243.345 18.684 243.345 18.144C243.345 17.622 242.967 17.262 242.445 17.262C241.941 17.262 241.563 17.622 241.563 18.144ZM246.549 7.596H239.421V6.444H250.023V7.596H247.881V16.848L248.619 17.334L247.701 18.252L240.699 13.662V12.456C241.743 11.412 244.389 9.648 246.549 8.946V7.596ZM246.549 10.26C245.073 10.8 242.877 12.186 242.013 13.05L246.621 16.056H246.693C246.585 14.85 246.549 13.608 246.549 12.438V10.26ZM252.306 14.022L251.136 14.544C250.704 14.13 250.452 13.536 250.452 12.798C250.452 11.07 251.586 9.936 253.512 9.936C255.834 9.936 257.256 11.61 257.976 13.14H258.048C258.03 12.996 257.868 11.844 257.868 9.558V7.596H249.3V6.444H261.342V7.596H259.2V18H257.868V17.622C257.868 14.796 256.284 11.178 253.584 11.178C252.36 11.178 251.766 11.862 251.766 12.798C251.766 13.266 251.982 13.698 252.306 14.022ZM284.058 5.184V4.662H285.354V6.444H287.514V7.596H285.354V18H284.04V9.09C284.04 8.064 283.554 7.596 282.6 7.596H280.458V16.938L281.142 17.424L280.152 18.234L275.994 15.156C275.256 15.876 274.212 16.326 272.934 16.326C269.388 16.326 267.444 13.428 266.652 9.45L267.858 8.91C268.524 12.42 270.036 15.156 272.934 15.156C274.752 15.156 275.814 13.878 275.814 12.222C275.814 10.764 275.094 9.954 274.014 9.954C273.168 9.954 272.61 10.44 272.61 11.322C272.61 11.808 272.862 12.294 273.384 12.582L272.43 13.284C271.692 12.888 271.278 12.078 271.278 11.232C271.278 9.846 272.268 8.712 273.978 8.712C275.832 8.712 277.128 10.206 277.128 12.24C277.128 12.942 276.966 13.608 276.696 14.166L279.18 16.056L279.252 16.038C279.162 14.832 279.144 13.608 279.144 12.456V7.596H265.806V6.444H282.816C283.716 6.444 284.076 6.876 284.22 7.074H284.31C284.256 6.93 284.058 6.21 284.058 5.184ZM289.224 8.892C290.556 9.018 291.708 9.828 292.302 11.646L295.326 9.666C294.732 8.388 293.634 7.542 292.104 7.542C290.592 7.542 289.584 8.406 289.224 8.892ZM297.162 18H295.83V12.132C295.83 11.682 295.794 11.25 295.704 10.854L290.07 14.526L289.404 13.518L291.276 12.294C290.934 11.196 290.286 10.044 288.72 9.954C288.594 9.936 288.45 9.918 288.306 9.918L287.55 8.874C288.27 7.722 289.764 6.336 292.05 6.336C294.282 6.336 295.506 7.632 296.046 8.658L296.1 8.64C296.01 8.37 295.83 6.822 295.83 5.418V4.662H297.162V6.444H299.304V7.596H297.162V18ZM310.469 4.446C309.209 3.33 307.247 2.304 305.033 2.304C303.053 2.304 302.063 3.6 302.063 5.094V6.444H304.223V7.596H302.063V18H300.749V7.596H298.589V6.444H300.749V4.932C300.749 2.916 302.279 1.08 305.015 1.08C307.769 1.08 310.091 2.448 311.261 3.51L310.469 4.446ZM306.517 14.022L305.347 14.544C304.915 14.13 304.663 13.536 304.663 12.798C304.663 11.07 305.797 9.936 307.723 9.936C310.045 9.936 311.467 11.61 312.187 13.14H312.259C312.241 12.996 312.079 11.844 312.079 9.558V7.596H303.511V6.444H315.553V7.596H313.411V18H312.079V17.622C312.079 14.796 310.495 11.178 307.795 11.178C306.571 11.178 305.977 11.862 305.977 12.798C305.977 13.266 306.193 13.698 306.517 14.022ZM329.179 14.868C329.953 14.544 330.619 13.716 330.619 12.726C330.619 11.466 329.647 10.512 327.847 10.476V16.794L328.585 17.388L327.559 18.18L321.295 13.014V11.862C322.807 10.566 324.625 9.594 326.551 9.324V7.596H320.017V6.444H333.175V7.596H327.847V9.252C330.457 9.306 331.915 10.98 331.915 12.744C331.915 14.148 331.123 15.264 330.097 15.822L329.179 14.868ZM322.609 12.474L326.605 15.84H326.677C326.569 14.544 326.551 13.356 326.551 12.222V10.584C325.039 10.8 323.617 11.646 322.609 12.474ZM334.838 11.016C334.154 10.476 333.956 9.72 333.956 9.09C333.956 7.488 335.198 6.372 336.908 6.372C338.582 6.372 340.112 7.452 340.112 9.378C340.112 11.16 338.906 12.852 335.918 13.392V13.464L341.93 16.326H342.002C341.894 15.03 341.876 13.806 341.876 12.672V4.662H343.208V6.444H345.35V7.596H343.208V16.884L343.982 17.262L343.118 18.234L333.956 13.95V12.51C337.538 12.33 338.798 10.89 338.798 9.378C338.798 8.352 338.078 7.596 336.926 7.596C336.008 7.596 335.27 8.172 335.27 9.108C335.27 9.63 335.504 10.062 335.9 10.404L334.838 11.016ZM346.804 5.184V4.662H348.1V6.444H350.26V7.596H348.1V18H346.786V9.09C346.786 8.064 346.3 7.596 345.346 7.596H344.626V6.444H345.562C346.462 6.444 346.822 6.876 346.966 7.074H347.056C347.002 6.93 346.804 6.21 346.804 5.184ZM7.768 34.596H0.64V33.444H11.242V34.596H9.1V43.848L9.838 44.334L8.92 45.252L1.918 40.662V39.456C2.962 38.412 5.608 36.648 7.768 35.946V34.596ZM7.768 37.26C6.292 37.8 4.096 39.186 3.232 40.05L7.84 43.056H7.912C7.804 41.85 7.768 40.608 7.768 39.438V37.26ZM16.7829 43.002C16.3869 43.128 15.9549 43.2 15.5049 43.2C13.3809 43.2 11.9049 41.832 11.9049 39.654C11.9049 37.656 13.3089 36.45 14.8749 36.45C16.3149 36.45 17.0169 37.368 17.1789 37.926H17.2509C17.3949 37.242 18.0789 36.396 19.2669 36.396C20.2389 36.396 20.7969 36.954 20.9769 37.17H21.0489V34.596H10.5189V33.444H24.5229V34.596H22.3629V45H21.0489V38.7C20.9049 38.25 20.3109 37.62 19.4109 37.62C18.5289 37.62 17.8269 38.268 17.8269 39.384V40.086H16.5489V39.402C16.5489 38.25 15.8469 37.692 14.9289 37.692C14.0649 37.692 13.2189 38.376 13.2189 39.654C13.2189 41.166 14.2449 42.012 15.5229 42.012C15.8829 42.012 16.2609 41.94 16.5849 41.796L16.7829 43.002ZM28.848 44.172L28.182 45.234C26.184 44.46 25.122 42.354 25.122 39.726C25.122 37.854 25.716 35.928 26.508 34.596H23.808V33.444H29.406V34.596H28.002C27.048 35.82 26.436 37.836 26.436 39.726C26.436 41.85 27.192 43.416 28.848 44.172ZM31.5387 34.596C31.8447 35.244 33.1047 35.424 34.1127 35.91C34.4907 35.82 34.9047 35.766 35.2647 35.766C37.1007 35.766 38.5767 37.008 38.5767 38.916C38.5767 41.202 36.9567 42.498 33.6807 42.642V42.714C34.1487 42.84 34.8867 43.146 36.1287 43.794L38.9547 45.27L38.0907 46.242C32.4207 43.128 31.7907 42.93 30.4407 42.786V41.652H32.5287C35.7687 41.652 37.2807 40.644 37.2807 38.916C37.2807 37.656 36.3987 37.008 35.2827 36.936C35.3907 37.17 35.4447 37.422 35.4447 37.728C35.4447 39.114 34.2927 40.446 32.6007 40.446C31.1967 40.446 30.4227 39.6 30.4227 38.43V34.596H28.6947V33.444H40.1247V34.596H31.5387ZM34.2207 37.71C34.2207 36.63 32.5287 36.774 31.6827 36.054V38.412C31.6827 38.934 31.9527 39.312 32.6187 39.312C33.5727 39.312 34.2207 38.52 34.2207 37.71ZM42.4058 41.022L41.2358 41.544C40.8038 41.13 40.5518 40.536 40.5518 39.798C40.5518 38.07 41.6858 36.936 43.6118 36.936C45.9338 36.936 47.3558 38.61 48.0758 40.14H48.1478C48.1298 39.996 47.9678 38.844 47.9678 36.558V34.596H39.3998V33.444H51.4418V34.596H49.2998V45H47.9678V44.622C47.9678 41.796 46.3838 38.178 43.6838 38.178C42.4598 38.178 41.8658 38.862 41.8658 39.798C41.8658 40.266 42.0818 40.698 42.4058 41.022ZM52.2861 47.538L51.8361 46.8C52.6281 46.458 53.1681 45.936 53.1681 45.324C53.1681 44.73 52.8081 44.406 52.1421 44.064V43.938C52.1421 43.326 52.5921 42.858 53.2401 42.858C53.9781 42.858 54.5541 43.416 54.5541 44.46C54.5541 46.026 53.3121 47.178 52.2861 47.538ZM64.6394 42.48C65.1794 42.624 66.0794 43.038 67.1954 43.722L69.1034 44.874L68.1494 45.774C63.8654 43.182 63.3794 42.858 61.9034 42.66V41.526H63.0554C65.8994 41.526 66.9074 40.302 66.9074 38.826C66.9074 37.71 66.1334 36.936 64.9274 36.936C63.9014 36.936 63.1814 37.548 63.1814 38.484C63.1814 38.97 63.4514 39.474 63.9554 39.744L63.0014 40.464C62.2634 40.032 61.8674 39.258 61.8674 38.412C61.8674 36.882 63.1094 35.712 64.9094 35.712C66.8534 35.712 68.2214 37.008 68.2214 38.88C68.2214 40.914 66.8354 42.156 64.6394 42.408V42.48ZM60.2474 34.596V33.444H69.8594V34.596H60.2474ZM78.34 40.752C78.34 42.768 76.918 44.514 74.488 44.514C72.094 44.514 70.294 42.57 70.222 40.356C72.382 39.78 73.444 38.736 73.444 36.63V35.262L72.886 34.596H69.142V33.444H72.076C71.302 32.58 71.014 31.662 71.014 30.888C71.014 29.232 72.292 28.134 74.056 28.206L74.308 29.43C73.138 29.304 72.328 29.934 72.328 30.978C72.328 31.734 72.796 32.562 73.552 33.444H79.636V34.596H74.416C76.882 37.206 78.34 38.736 78.34 40.752ZM71.752 41.076C71.824 41.904 72.778 43.308 74.524 43.308C76.108 43.308 77.044 42.12 77.044 40.77C77.044 39.096 75.784 37.854 74.596 36.576C74.776 39.726 72.706 40.752 71.752 41.076ZM81.0934 32.184V31.662H82.3894V33.444H84.5494V34.596H82.3894V45H81.0754V36.09C81.0754 35.064 80.5894 34.596 79.6354 34.596H78.9154V33.444H79.8514C80.7514 33.444 81.1114 33.876 81.2554 34.074H81.3454C81.2914 33.93 81.0934 33.21 81.0934 32.184ZM88.8413 37.494C89.9033 37.494 90.5333 36.954 90.5333 36.09C90.5333 35.262 89.8673 34.632 88.7153 34.632C87.7073 34.632 86.9153 35.244 86.5193 36.198C86.9333 36.99 87.7973 37.494 88.8413 37.494ZM90.0293 41.364C91.5053 41.868 92.9633 42.588 92.9633 44.37C92.9633 44.568 92.9633 44.82 92.9273 45.036L91.6313 45.288C91.6493 45.108 91.6673 44.73 91.6673 44.586C91.6673 43.182 90.6413 42.876 88.8773 42.282C86.8613 41.58 84.9533 40.356 84.9533 37.656C84.9533 35.19 86.3933 33.462 88.6973 33.462C90.4253 33.462 91.8113 34.434 91.8113 36.09C91.8113 37.764 90.5693 38.664 88.8953 38.664C87.9233 38.664 86.8793 38.268 86.2493 37.548C86.2493 37.584 86.2493 37.638 86.2493 37.674C86.2493 40.014 88.1033 40.716 90.0293 41.364ZM116.679 32.184V31.662H117.975V33.444H120.135V34.596H117.975V45H116.661V36.09C116.661 35.064 116.175 34.596 115.221 34.596H113.079V43.938L113.763 44.424L112.773 45.234L108.615 42.156C107.877 42.876 106.833 43.326 105.555 43.326C102.009 43.326 100.065 40.428 99.2731 36.45L100.479 35.91C101.145 39.42 102.657 42.156 105.555 42.156C107.373 42.156 108.435 40.878 108.435 39.222C108.435 37.764 107.715 36.954 106.635 36.954C105.789 36.954 105.231 37.44 105.231 38.322C105.231 38.808 105.483 39.294 106.005 39.582L105.051 40.284C104.313 39.888 103.899 39.078 103.899 38.232C103.899 36.846 104.889 35.712 106.599 35.712C108.453 35.712 109.749 37.206 109.749 39.24C109.749 39.942 109.587 40.608 109.317 41.166L111.801 43.056L111.873 43.038C111.783 41.832 111.765 40.608 111.765 39.456V34.596H98.4271V33.444H115.437C116.337 33.444 116.697 33.876 116.841 34.074H116.931C116.877 33.93 116.679 33.21 116.679 32.184ZM121.845 35.892C123.177 36.018 124.329 36.828 124.923 38.646L127.947 36.666C127.353 35.388 126.255 34.542 124.725 34.542C123.213 34.542 122.205 35.406 121.845 35.892ZM129.783 45H128.451V39.132C128.451 38.682 128.415 38.25 128.325 37.854L122.691 41.526L122.025 40.518L123.897 39.294C123.555 38.196 122.907 37.044 121.341 36.954C121.215 36.936 121.071 36.918 120.927 36.918L120.171 35.874C120.891 34.722 122.385 33.336 124.671 33.336C126.903 33.336 128.127 34.632 128.667 35.658L128.721 35.64C128.631 35.37 128.451 33.822 128.451 32.418V31.662H129.783V33.444H131.925V34.596H129.783V45ZM134.216 41.022L133.046 41.544C132.614 41.13 132.362 40.536 132.362 39.798C132.362 38.07 133.496 36.936 135.422 36.936C137.744 36.936 139.166 38.61 139.886 40.14H139.958C139.94 39.996 139.778 38.844 139.778 36.558V34.596H131.21V33.444H143.252V34.596H141.11V45H139.778V44.622C139.778 41.796 138.194 38.178 135.494 38.178C134.27 38.178 133.676 38.862 133.676 39.798C133.676 40.266 133.892 40.698 134.216 41.022ZM144.709 32.184V31.662H146.005V33.444H148.165V34.596H146.005V45H144.691V36.09C144.691 35.064 144.205 34.596 143.251 34.596H142.531V33.444H143.467C144.367 33.444 144.727 33.876 144.871 34.074H144.961C144.907 33.93 144.709 33.21 144.709 32.184ZM152.493 44.172L151.827 45.234C149.829 44.46 148.767 42.354 148.767 39.726C148.767 37.854 149.361 35.928 150.153 34.596H147.452V33.444H153.051V34.596H151.647C150.693 35.82 150.081 37.836 150.081 39.726C150.081 41.85 150.837 43.416 152.493 44.172ZM161.501 41.868C162.275 41.544 162.941 40.716 162.941 39.726C162.941 38.466 161.969 37.512 160.169 37.476V43.794L160.907 44.388L159.881 45.18L153.617 40.014V38.862C155.129 37.566 156.947 36.594 158.873 36.324V34.596H152.339V33.444H165.497V34.596H160.169V36.252C162.779 36.306 164.237 37.98 164.237 39.744C164.237 41.148 163.445 42.264 162.419 42.822L161.501 41.868ZM154.931 39.474L158.927 42.84H158.999C158.891 41.544 158.873 40.356 158.873 39.222V37.584C157.361 37.8 155.939 38.646 154.931 39.474ZM175.01 44.172L174.344 45.234C172.346 44.46 171.284 42.354 171.284 39.726C171.284 37.836 171.77 35.64 173.318 33.444H175.568V34.596H174.182C173.228 35.946 172.598 37.836 172.598 39.726C172.598 41.85 173.354 43.416 175.01 44.172ZM184.019 41.868C184.793 41.544 185.459 40.716 185.459 39.726C185.459 38.466 184.487 37.512 182.687 37.476V43.794L183.425 44.388L182.399 45.18L176.135 40.014V38.862C177.647 37.566 179.465 36.594 181.391 36.324V34.596H174.857V33.444H188.015V34.596H182.687V36.252C185.297 36.306 186.755 37.98 186.755 39.744C186.755 41.148 185.963 42.264 184.937 42.822L184.019 41.868ZM177.449 39.474L181.445 42.84H181.517C181.409 41.544 181.391 40.356 181.391 39.222V37.584C179.879 37.8 178.457 38.646 177.449 39.474ZM188.274 28.44L189.534 28.17C189.498 28.368 189.48 28.566 189.48 28.764C189.48 29.43 189.768 30.114 191.244 30.114H195.24C197.022 30.114 198.372 30.96 198.372 32.634C198.372 32.868 198.336 33.156 198.282 33.444H199.83V34.596H193.494V37.44C193.494 38.052 193.728 38.43 194.34 38.43C194.898 38.43 196.14 38.052 197.418 36.864C198.012 37.26 198.768 38.322 198.768 39.672C198.768 42.156 196.968 43.902 194.142 43.902C190.524 43.902 188.508 40.914 188.346 37.458L189.606 37.188C189.732 40.626 191.568 42.678 194.16 42.678C196.14 42.678 197.472 41.49 197.472 39.708C197.472 39.204 197.346 38.772 197.166 38.538C196.302 39.258 195.222 39.654 194.25 39.654C192.936 39.654 192.162 38.736 192.162 37.512V34.596H187.518V33.444H196.986C197.022 33.192 197.058 32.904 197.058 32.724C197.058 31.698 196.446 31.284 195.042 31.284H191.154C188.886 31.284 188.238 30.132 188.238 28.962C188.238 28.782 188.238 28.62 188.274 28.44ZM206.887 38.016C206.203 37.476 206.005 36.72 206.005 36.09C206.005 34.488 207.247 33.372 208.957 33.372C210.631 33.372 212.161 34.452 212.161 36.378C212.161 38.16 210.955 39.852 207.967 40.392V40.464L213.979 43.326H214.051C213.943 42.03 213.925 40.806 213.925 39.672V31.662H215.257V33.444H217.399V34.596H215.257V43.884L216.031 44.262L215.167 45.234L206.005 40.95V39.51C209.587 39.33 210.847 37.89 210.847 36.378C210.847 35.352 210.127 34.596 208.975 34.596C208.057 34.596 207.319 35.172 207.319 36.108C207.319 36.63 207.553 37.062 207.949 37.404L206.887 38.016ZM218.853 32.184V31.662H220.149V33.444H222.309V34.596H220.149V45H218.835V36.09C218.835 35.064 218.349 34.596 217.395 34.596H216.675V33.444H217.611C218.511 33.444 218.871 33.876 219.015 34.074H219.105C219.051 33.93 218.853 33.21 218.853 32.184ZM233.477 31.446C232.217 30.33 230.255 29.304 228.041 29.304C226.061 29.304 225.071 30.6 225.071 32.094V33.444H227.231V34.596H225.071V45H223.757V34.596H221.597V33.444H223.757V31.932C223.757 29.916 225.287 28.08 228.023 28.08C230.777 28.08 233.099 29.448 234.269 30.51L233.477 31.446ZM237.769 34.596H235.609V45H234.349C234.115 43.11 232.639 40.968 230.821 40.428C230.497 41.454 229.867 41.832 229.345 41.832C228.715 41.832 228.283 41.418 228.283 40.788C228.283 40.068 228.823 39.402 229.741 39.222C229.741 39.15 229.741 39.06 229.741 38.952C229.741 36.864 228.355 35.262 227.545 34.83V34.596H226.519V33.444H237.769V34.596ZM234.367 41.976L234.403 41.958C234.367 41.112 234.295 40.05 234.295 38.718V34.596H229.309V34.668C229.885 35.244 231.001 36.846 231.001 38.97C231.001 39.078 231.001 39.186 231.001 39.276C232.531 39.6 233.773 40.86 234.367 41.976ZM242.088 44.172L241.422 45.234C239.424 44.46 238.362 42.354 238.362 39.726C238.362 37.854 238.956 35.928 239.748 34.596H237.048V33.444H242.646V34.596H241.242C240.288 35.82 239.676 37.836 239.676 39.726C239.676 41.85 240.432 43.416 242.088 44.172ZM244.023 45.126C244.023 44.604 244.383 44.244 244.887 44.244C245.391 44.244 245.751 44.604 245.751 45.126C245.751 45.648 245.391 46.008 244.887 46.008C244.383 46.008 244.023 45.648 244.023 45.126ZM245.013 34.596V34.668L247.299 37.08V38.088L244.599 40.176L249.405 43.182H249.477C249.387 41.886 249.315 40.77 249.315 39.618V34.596H245.013ZM250.449 45.27L243.393 40.878V39.546L246.021 37.53L243.591 34.956V34.596H241.935V33.444H252.789V34.596H250.629V43.92L251.349 44.37L250.449 45.27ZM269.143 31.446C267.883 30.33 265.921 29.304 263.707 29.304C261.727 29.304 260.737 30.6 260.737 32.094V33.444H262.897V34.596H260.737V45H259.423V34.596H257.263V33.444H259.423V31.932C259.423 29.916 260.953 28.08 263.689 28.08C266.443 28.08 268.765 29.448 269.935 30.51L269.143 31.446ZM270.501 45H269.151V41.292C269.151 39.978 269.385 38.772 269.655 37.836C268.089 38.862 266.667 40.356 265.515 41.958L264.183 41.364V34.596H262.185V33.444H272.751V34.596H265.497V39.96C266.379 38.826 268.359 36.99 269.925 36.342L271.131 37.008C270.717 38.286 270.501 39.852 270.501 41.328V45ZM277.069 44.172L276.403 45.234C274.405 44.46 273.343 42.354 273.343 39.726C273.343 37.854 273.937 35.928 274.729 34.596H272.029V33.444H277.627V34.596H276.223C275.269 35.82 274.657 37.836 274.657 39.726C274.657 41.85 275.413 43.416 277.069 44.172ZM283.179 43.002C282.783 43.128 282.351 43.2 281.901 43.2C279.777 43.2 278.301 41.832 278.301 39.654C278.301 37.656 279.705 36.45 281.271 36.45C282.711 36.45 283.413 37.368 283.575 37.926H283.647C283.791 37.242 284.475 36.396 285.663 36.396C286.635 36.396 287.193 36.954 287.373 37.17H287.445V34.596H276.915V33.444H290.919V34.596H288.759V45H287.445V38.7C287.301 38.25 286.707 37.62 285.807 37.62C284.925 37.62 284.223 38.268 284.223 39.384V40.086H282.945V39.402C282.945 38.25 282.243 37.692 281.325 37.692C280.461 37.692 279.615 38.376 279.615 39.654C279.615 41.166 280.641 42.012 281.919 42.012C282.279 42.012 282.657 41.94 282.981 41.796L283.179 43.002ZM292.382 32.184V31.662H293.678V33.444H295.838V34.596H293.678V45H292.364V36.09C292.364 35.064 291.878 34.596 290.924 34.596H290.204V33.444H291.14C292.04 33.444 292.4 33.876 292.544 34.074H292.634C292.58 33.93 292.382 33.21 292.382 32.184ZM300.472 45H299.086V33.444H300.472V45ZM313.282 42.48C313.822 42.624 314.722 43.038 315.838 43.722L317.746 44.874L316.792 45.774C312.508 43.182 312.022 42.858 310.546 42.66V41.526H311.698C314.542 41.526 315.55 40.302 315.55 38.826C315.55 37.71 314.776 36.936 313.57 36.936C312.544 36.936 311.824 37.548 311.824 38.484C311.824 38.97 312.094 39.474 312.598 39.744L311.644 40.464C310.906 40.032 310.51 39.258 310.51 38.412C310.51 36.882 311.752 35.712 313.552 35.712C315.496 35.712 316.864 37.008 316.864 38.88C316.864 40.914 315.478 42.156 313.282 42.408V42.48ZM308.89 34.596V33.444H318.502V34.596H308.89ZM326.983 40.752C326.983 42.768 325.561 44.514 323.131 44.514C320.737 44.514 318.937 42.57 318.865 40.356C321.025 39.78 322.087 38.736 322.087 36.63V35.262L321.529 34.596H317.785V33.444H320.719C319.945 32.58 319.657 31.662 319.657 30.888C319.657 29.232 320.935 28.134 322.699 28.206L322.951 29.43C321.781 29.304 320.971 29.934 320.971 30.978C320.971 31.734 321.439 32.562 322.195 33.444H328.279V34.596H323.059C325.525 37.206 326.983 38.736 326.983 40.752ZM320.395 41.076C320.467 41.904 321.421 43.308 323.167 43.308C324.751 43.308 325.687 42.12 325.687 40.77C325.687 39.096 324.427 37.854 323.239 36.576C323.419 39.726 321.349 40.752 320.395 41.076ZM329.736 32.184V31.662H331.032V33.444H333.192V34.596H331.032V45H329.718V36.09C329.718 35.064 329.232 34.596 328.278 34.596H327.558V33.444H328.494C329.394 33.444 329.754 33.876 329.898 34.074H329.988C329.934 33.93 329.736 33.21 329.736 32.184ZM337.484 37.494C338.546 37.494 339.176 36.954 339.176 36.09C339.176 35.262 338.51 34.632 337.358 34.632C336.35 34.632 335.558 35.244 335.162 36.198C335.576 36.99 336.44 37.494 337.484 37.494ZM338.672 41.364C340.148 41.868 341.606 42.588 341.606 44.37C341.606 44.568 341.606 44.82 341.57 45.036L340.274 45.288C340.292 45.108 340.31 44.73 340.31 44.586C340.31 43.182 339.284 42.876 337.52 42.282C335.504 41.58 333.596 40.356 333.596 37.656C333.596 35.19 335.036 33.462 337.34 33.462C339.068 33.462 340.454 34.434 340.454 36.09C340.454 37.764 339.212 38.664 337.538 38.664C336.566 38.664 335.522 38.268 334.892 37.548C334.892 37.584 334.892 37.638 334.892 37.674C334.892 40.014 336.746 40.716 338.672 41.364ZM352.11 44.172L351.444 45.234C349.446 44.46 348.384 42.354 348.384 39.726C348.384 37.836 348.87 35.64 350.418 33.444H352.668V34.596H351.282C350.328 35.946 349.698 37.836 349.698 39.726C349.698 41.85 350.454 43.416 352.11 44.172ZM354.332 38.016C353.648 37.476 353.45 36.72 353.45 36.09C353.45 34.488 354.692 33.372 356.402 33.372C358.076 33.372 359.606 34.452 359.606 36.378C359.606 38.16 358.4 39.852 355.412 40.392V40.464L361.424 43.326H361.496C361.388 42.03 361.37 40.806 361.37 39.672V31.662H362.702V33.444H364.844V34.596H362.702V43.884L363.476 44.262L362.612 45.234L353.45 40.95V39.51C357.032 39.33 358.292 37.89 358.292 36.378C358.292 35.352 357.572 34.596 356.42 34.596C355.502 34.596 354.764 35.172 354.764 36.108C354.764 36.63 354.998 37.062 355.394 37.404L354.332 38.016ZM369.16 44.172L368.494 45.234C366.496 44.46 365.434 42.354 365.434 39.726C365.434 37.854 366.028 35.928 366.82 34.596H364.12V33.444H369.718V34.596H368.314C367.36 35.82 366.748 37.836 366.748 39.726C366.748 41.85 367.504 43.416 369.16 44.172ZM380.257 34.596H378.097V45H376.837C376.603 43.11 375.127 40.968 373.309 40.428C372.985 41.454 372.355 41.832 371.833 41.832C371.203 41.832 370.771 41.418 370.771 40.788C370.771 40.068 371.311 39.402 372.229 39.222C372.229 39.15 372.229 39.06 372.229 38.952C372.229 36.864 370.843 35.262 370.033 34.83V34.596H369.007V33.444H380.257V34.596ZM376.855 41.976L376.891 41.958C376.855 41.112 376.783 40.05 376.783 38.718V34.596H371.797V34.668C372.373 35.244 373.489 36.846 373.489 38.97C373.489 39.078 373.489 39.186 373.489 39.276C375.019 39.6 376.261 40.86 376.855 41.976ZM3.718 61.596V61.668L6.004 64.08V65.088L3.304 67.176L8.11 70.182H8.182C8.092 68.886 8.02 67.77 8.02 66.618V61.596H3.718ZM9.154 72.27L2.098 67.878V66.546L4.726 64.53L2.296 61.956V61.596H0.64V60.444H11.494V61.596H9.334V70.92L10.054 71.37L9.154 72.27ZM12.9606 59.184V58.662H14.2566V60.444H16.4166V61.596H14.2566V72H12.9426V63.09C12.9426 62.064 12.4566 61.596 11.5026 61.596H10.7826V60.444H11.7186C12.6186 60.444 12.9786 60.876 13.1226 61.074H13.2126C13.1586 60.93 12.9606 60.21 12.9606 59.184ZM18.8725 61.632C19.5745 60.876 20.5285 60.282 21.8605 60.282C23.5345 60.282 24.9205 61.398 24.9205 63.072C24.9205 64.08 24.5245 64.854 23.8765 65.43C24.9025 66.06 25.8025 67.068 25.8025 68.508C25.8025 70.236 24.5965 71.694 22.3825 71.694C19.3225 71.694 17.3065 68.328 16.4965 65.394L17.6845 64.908C18.4225 67.86 20.2045 70.452 22.3825 70.452C23.7685 70.452 24.4705 69.534 24.4705 68.472C24.4705 67.338 23.6605 66.618 22.7785 66.15C22.3645 66.348 21.9145 66.492 21.4465 66.6L20.7985 65.484C22.4545 65.196 23.6065 64.44 23.6065 63.072C23.6065 62.1 22.9225 61.47 21.8785 61.47C20.9785 61.47 20.3125 61.974 19.8085 62.532L18.8725 61.632ZM28.603 72.126C28.603 71.604 28.963 71.244 29.467 71.244C29.971 71.244 30.331 71.604 30.331 72.126C30.331 72.648 29.971 73.008 29.467 73.008C28.963 73.008 28.603 72.648 28.603 72.126ZM29.593 61.596V61.668L31.879 64.08V65.088L29.179 67.176L33.985 70.182H34.057C33.967 68.886 33.895 67.77 33.895 66.618V61.596H29.593ZM35.029 72.27L27.973 67.878V66.546L30.601 64.53L28.171 61.956V61.596H26.515V60.444H37.369V61.596H35.209V70.92L35.929 71.37L35.029 72.27ZM38.8356 59.184V58.662H40.1316V60.444H42.2916V61.596H40.1316V72H38.8176V63.09C38.8176 62.064 38.3316 61.596 37.3776 61.596H36.6576V60.444H37.5936C38.4936 60.444 38.8536 60.876 38.9976 61.074H39.0876C39.0336 60.93 38.8356 60.21 38.8356 59.184ZM43.2175 65.43C43.2175 63.864 44.4055 62.712 46.2055 62.712C48.1495 62.712 49.4995 64.008 49.4995 65.88C49.4995 67.914 48.1135 69.12 45.9355 69.372V69.444C46.4755 69.588 47.3395 70.056 48.4555 70.74L50.3635 71.892L49.4455 72.774C45.1435 70.182 44.6755 69.858 43.1815 69.66V68.526H44.3515C47.1955 68.526 48.2035 67.302 48.2035 65.826C48.2035 64.71 47.4115 63.936 46.2235 63.936C45.1975 63.936 44.5315 64.548 44.5315 65.484C44.5315 66.024 44.8195 66.474 45.3055 66.78L44.3515 67.5C43.6135 67.05 43.2175 66.276 43.2175 65.43ZM42.2815 55.44L43.5235 55.17C43.5055 55.368 43.4695 55.602 43.4695 55.8C43.4695 56.466 43.7395 57.114 45.1975 57.114H46.3495C48.1315 57.114 49.4815 57.96 49.4815 59.634C49.4815 59.868 49.4455 60.156 49.4095 60.444H51.1915V61.596H41.5795V60.444H48.0955C48.1495 60.192 48.1675 59.886 48.1675 59.724C48.1675 58.698 47.5555 58.284 46.1515 58.284H45.1075C42.8575 58.284 42.2455 57.15 42.2455 55.98C42.2455 55.8 42.2455 55.62 42.2815 55.44ZM60.6995 71.172L60.0335 72.234C58.0355 71.46 56.9735 69.354 56.9735 66.726C56.9735 64.836 57.4595 62.64 59.0075 60.444H61.2575V61.596H59.8715C58.9175 62.946 58.2875 64.836 58.2875 66.726C58.2875 68.85 59.0435 70.416 60.6995 71.172ZM62.2023 61.596H60.5462V60.444H62.2023C63.5163 60.444 64.5603 60.984 65.1723 61.866C65.8023 61.002 66.8103 60.462 67.9263 60.462C69.4563 60.462 70.2483 61.236 70.4823 61.614H70.5543C70.5183 61.488 70.3563 60.552 70.3563 59.364V58.662H71.6523V60.444H73.8123V61.596H71.6523V72H70.3383V64.134C70.3383 62.496 69.2943 61.668 67.9623 61.668C66.9003 61.668 65.8023 62.424 65.8023 63.9C65.8023 65.196 66.8283 65.934 68.0343 65.934C68.2143 65.934 68.4483 65.916 68.6283 65.88V67.068C68.5023 67.086 68.2683 67.122 68.0163 67.122C66.8103 67.122 65.6943 66.618 65.1183 65.682C64.5963 66.636 63.5883 67.158 62.3103 67.158C61.9683 67.158 61.5183 67.068 61.3203 67.014V65.79C61.5543 65.916 61.9863 65.952 62.2923 65.952C63.6783 65.952 64.5063 65.088 64.5063 63.864C64.5063 62.298 63.5163 61.596 62.2023 61.596ZM75.833 61.596V61.668L75.977 61.794L80.495 65.736V61.596H75.833ZM81.575 72.252L74.483 67.878V66.618L77.147 64.368L74.393 61.956V61.596H73.097V60.444H83.987V61.596H81.791V70.938L82.511 71.37L81.575 72.252ZM80.621 70.2C80.549 69.12 80.513 68.166 80.495 67.194L78.137 65.142L75.725 67.194L80.549 70.2H80.621ZM88.4603 61.596V60.444H105.254V61.596H103.112V70.938L103.796 71.424L102.806 72.234L98.6483 69.156C97.9103 69.876 96.8663 70.326 95.5883 70.326C92.0423 70.326 90.0983 67.428 89.3063 63.45L90.5123 62.91C91.1783 66.42 92.6903 69.156 95.5883 69.156C97.4063 69.156 98.4683 67.878 98.4683 66.222C98.4683 64.764 97.7483 63.954 96.6683 63.954C95.8223 63.954 95.2643 64.44 95.2643 65.322C95.2643 65.808 95.5163 66.294 96.0383 66.582L95.0843 67.284C94.3463 66.888 93.9323 66.078 93.9323 65.232C93.9323 63.846 94.9223 62.712 96.6323 62.712C98.4863 62.712 99.7823 64.206 99.7823 66.24C99.7823 66.942 99.6203 67.608 99.3503 68.166L101.834 70.056L101.906 70.038C101.816 68.832 101.798 67.608 101.798 66.456V61.596H88.4603ZM116.767 65.736H115.993V72.054H114.769C114.373 70.488 112.717 69.048 110.665 68.85C110.359 69.894 109.729 70.236 109.243 70.236C108.631 70.236 108.235 69.876 108.235 69.264C108.235 68.634 108.739 68.04 109.603 67.788C109.603 67.662 109.603 67.536 109.603 67.41C109.603 66.114 108.775 65.304 107.749 65.07C107.479 66.06 106.831 66.456 106.327 66.456C105.733 66.456 105.337 66.078 105.337 65.466C105.337 64.818 105.823 64.224 106.687 63.99C106.669 62.946 106.237 62.172 105.607 61.596H104.527V60.444H120.925V61.596H115.993V64.53H116.731C118.675 64.53 119.899 65.592 119.899 67.23C119.899 68.688 119.125 69.588 118.153 70.092L117.307 69.12C118.027 68.814 118.621 68.202 118.621 67.23C118.621 66.186 117.847 65.736 116.767 65.736ZM114.805 69.84C114.715 68.76 114.679 67.32 114.679 66.24V65.736H113.365C111.799 65.736 110.647 64.728 110.647 62.91V61.596H107.101C107.569 62.262 107.875 63.108 107.875 63.918C109.423 64.134 110.845 65.43 110.845 67.374C110.845 67.482 110.845 67.59 110.845 67.698C112.717 67.842 114.319 69.066 114.805 69.84ZM113.347 64.53H114.679V61.596H111.925V62.928C111.925 64.008 112.429 64.53 113.347 64.53ZM125.246 71.172L124.58 72.234C122.582 71.46 121.52 69.354 121.52 66.726C121.52 64.854 122.114 62.928 122.906 61.596H120.206V60.444H125.804V61.596H124.4C123.446 62.82 122.834 64.836 122.834 66.726C122.834 68.85 123.59 70.416 125.246 71.172ZM127.235 72.144C127.235 72.684 127.613 73.044 128.117 73.044C128.639 73.044 129.017 72.684 129.017 72.144C129.017 71.622 128.639 71.262 128.117 71.262C127.613 71.262 127.235 71.622 127.235 72.144ZM132.221 61.596H125.093V60.444H135.695V61.596H133.553V70.848L134.291 71.334L133.373 72.252L126.371 67.662V66.456C127.415 65.412 130.061 63.648 132.221 62.946V61.596ZM132.221 64.26C130.745 64.8 128.549 66.186 127.685 67.05L132.293 70.056H132.365C132.257 68.85 132.221 67.608 132.221 66.438V64.26ZM145.198 71.172L144.532 72.234C142.534 71.46 141.472 69.354 141.472 66.726C141.472 64.836 141.958 62.64 143.506 60.444H145.756V61.596H144.37C143.416 62.946 142.786 64.836 142.786 66.726C142.786 68.85 143.542 70.416 145.198 71.172ZM154.206 68.868C154.98 68.544 155.646 67.716 155.646 66.726C155.646 65.466 154.674 64.512 152.874 64.476V70.794L153.612 71.388L152.586 72.18L146.322 67.014V65.862C147.834 64.566 149.652 63.594 151.578 63.324V61.596H145.044V60.444H158.202V61.596H152.874V63.252C155.484 63.306 156.942 64.98 156.942 66.744C156.942 68.148 156.15 69.264 155.124 69.822L154.206 68.868ZM147.636 66.474L151.632 69.84H151.704C151.596 68.544 151.578 67.356 151.578 66.222V64.584C150.066 64.8 148.644 65.646 147.636 66.474ZM168.74 61.596H166.58V72H165.32C165.086 70.11 163.61 67.968 161.792 67.428C161.468 68.454 160.838 68.832 160.316 68.832C159.686 68.832 159.254 68.418 159.254 67.788C159.254 67.068 159.794 66.402 160.712 66.222C160.712 66.15 160.712 66.06 160.712 65.952C160.712 63.864 159.326 62.262 158.516 61.83V61.596H157.49V60.444H168.74V61.596ZM165.338 68.976L165.374 68.958C165.338 68.112 165.266 67.05 165.266 65.718V61.596H160.28V61.668C160.856 62.244 161.972 63.846 161.972 65.97C161.972 66.078 161.972 66.186 161.972 66.276C163.502 66.6 164.744 67.86 165.338 68.976ZM171.025 68.022L169.855 68.544C169.423 68.13 169.171 67.536 169.171 66.798C169.171 65.07 170.305 63.936 172.231 63.936C174.553 63.936 175.975 65.61 176.695 67.14H176.767C176.749 66.996 176.587 65.844 176.587 63.558V61.596H168.019V60.444H180.061V61.596H177.919V72H176.587V71.622C176.587 68.796 175.003 65.178 172.303 65.178C171.079 65.178 170.485 65.862 170.485 66.798C170.485 67.266 170.701 67.698 171.025 68.022ZM186.181 61.596H184.525V60.444H186.181C187.495 60.444 188.539 60.984 189.151 61.866C189.781 61.002 190.789 60.462 191.905 60.462C193.435 60.462 194.227 61.236 194.461 61.614H194.533C194.497 61.488 194.335 60.552 194.335 59.364V58.662H195.631V60.444H197.791V61.596H195.631V72H194.317V64.134C194.317 62.496 193.273 61.668 191.941 61.668C190.879 61.668 189.781 62.424 189.781 63.9C189.781 65.196 190.807 65.934 192.013 65.934C192.193 65.934 192.427 65.916 192.607 65.88V67.068C192.481 67.086 192.247 67.122 191.995 67.122C190.789 67.122 189.673 66.618 189.097 65.682C188.575 66.636 187.567 67.158 186.289 67.158C185.947 67.158 185.497 67.068 185.299 67.014V65.79C185.533 65.916 185.965 65.952 186.271 65.952C187.657 65.952 188.485 65.088 188.485 63.864C188.485 62.298 187.495 61.596 186.181 61.596ZM209.442 72H208.146V68.238C208.146 67.068 208.308 65.844 208.578 64.908C207.03 65.934 205.608 67.518 204.456 69.102L198.462 66.168V64.836C199.254 64.134 201.09 62.856 203.106 62.172V61.596H197.076V60.444H211.728V61.596H204.438V67.086C205.302 65.952 207.282 64.062 208.848 63.414L210.072 64.08C209.64 65.358 209.442 66.798 209.442 68.292V72ZM203.106 67.086V63.45C201.972 63.9 200.514 64.728 199.704 65.394L203.106 67.086ZM220.593 69.48C221.133 69.624 222.033 70.038 223.149 70.722L225.057 71.874L224.103 72.774C219.819 70.182 219.333 69.858 217.857 69.66V68.526H219.009C221.853 68.526 222.861 67.302 222.861 65.826C222.861 64.71 222.087 63.936 220.881 63.936C219.855 63.936 219.135 64.548 219.135 65.484C219.135 65.97 219.405 66.474 219.909 66.744L218.955 67.464C218.217 67.032 217.821 66.258 217.821 65.412C217.821 63.882 219.063 62.712 220.863 62.712C222.807 62.712 224.175 64.008 224.175 65.88C224.175 67.914 222.789 69.156 220.593 69.408V69.48ZM216.201 61.596V60.444H225.813V61.596H216.201ZM230.135 71.172L229.469 72.234C227.471 71.46 226.409 69.354 226.409 66.726C226.409 64.854 227.003 62.928 227.795 61.596H225.095V60.444H230.693V61.596H229.289C228.335 62.82 227.723 64.836 227.723 66.726C227.723 68.85 228.479 70.416 230.135 71.172ZM237.11 61.596H229.982V60.444H240.584V61.596H238.442V70.848L239.18 71.334L238.262 72.252L231.26 67.662V66.456C232.304 65.412 234.95 63.648 237.11 62.946V61.596ZM237.11 64.26C235.634 64.8 233.438 66.186 232.574 67.05L237.182 70.056H237.254C237.146 68.85 237.11 67.608 237.11 66.438V64.26ZM243.389 60.354C242.183 60.354 241.589 60.858 241.193 61.254L240.257 60.138C240.761 59.67 241.625 59.076 243.443 59.076C245.423 59.076 246.701 60.066 246.701 61.902C246.701 63.576 245.873 64.476 244.793 65.484L242.669 67.428C242.309 67.302 242.021 67.05 242.021 66.6C242.021 65.25 245.243 64.26 245.243 62.1C245.243 61.002 244.559 60.354 243.389 60.354ZM242.327 70.938C242.327 70.308 242.813 69.822 243.407 69.822C244.037 69.822 244.505 70.29 244.505 70.938C244.505 71.532 244.037 72 243.407 72C242.795 72 242.327 71.532 242.327 70.938ZM270.54 59.184V58.662H271.836V60.444H273.996V61.596H271.836V72H270.522V63.09C270.522 62.064 270.036 61.596 269.082 61.596H266.94V70.938L267.624 71.424L266.634 72.234L262.476 69.156C261.738 69.876 260.694 70.326 259.416 70.326C255.87 70.326 253.926 67.428 253.134 63.45L254.34 62.91C255.006 66.42 256.518 69.156 259.416 69.156C261.234 69.156 262.296 67.878 262.296 66.222C262.296 64.764 261.576 63.954 260.496 63.954C259.65 63.954 259.092 64.44 259.092 65.322C259.092 65.808 259.344 66.294 259.866 66.582L258.912 67.284C258.174 66.888 257.76 66.078 257.76 65.232C257.76 63.846 258.75 62.712 260.46 62.712C262.314 62.712 263.61 64.206 263.61 66.24C263.61 66.942 263.448 67.608 263.178 68.166L265.662 70.056L265.734 70.038C265.644 68.832 265.626 67.608 265.626 66.456V61.596H252.288V60.444H269.298C270.198 60.444 270.558 60.876 270.702 61.074H270.792C270.738 60.93 270.54 60.21 270.54 59.184ZM285.174 58.446C283.914 57.33 281.952 56.304 279.738 56.304C277.758 56.304 276.768 57.6 276.768 59.094V60.444H278.928V61.596H276.768V72H275.454V61.596H273.294V60.444H275.454V58.932C275.454 56.916 276.984 55.08 279.72 55.08C282.474 55.08 284.796 56.448 285.966 57.51L285.174 58.446ZM284.48 70.002C284.084 70.128 283.652 70.2 283.202 70.2C281.078 70.2 279.602 68.832 279.602 66.654C279.602 64.656 281.006 63.45 282.572 63.45C284.012 63.45 284.714 64.368 284.876 64.926H284.948C285.092 64.242 285.776 63.396 286.964 63.396C287.936 63.396 288.494 63.954 288.674 64.17H288.746V61.596H278.216V60.444H292.22V61.596H290.06V72H288.746V65.7C288.602 65.25 288.008 64.62 287.108 64.62C286.226 64.62 285.524 65.268 285.524 66.384V67.086H284.246V66.402C284.246 65.25 283.544 64.692 282.626 64.692C281.762 64.692 280.916 65.376 280.916 66.654C280.916 68.166 281.942 69.012 283.22 69.012C283.58 69.012 283.958 68.94 284.282 68.796L284.48 70.002ZM300.001 70.92L300.703 71.37L299.821 72.27L292.963 67.878V66.546L295.591 64.53L293.161 61.956V61.596H291.505V60.444H305.743V61.596H294.583V61.668L296.869 64.08V65.088L294.169 67.176L298.759 70.146H298.831C298.741 68.85 298.687 67.734 298.687 66.6V63.27C299.299 63 300.055 62.838 300.811 62.838C302.809 62.838 304.465 64.044 304.465 66.114C304.465 67.788 303.385 68.76 302.359 69.21L301.549 68.184C302.485 67.842 303.187 67.104 303.187 66.132C303.187 64.71 302.125 64.062 300.973 64.062C300.631 64.062 300.325 64.116 300.001 64.206V70.92ZM310.208 61.596V60.444H327.002V61.596H324.86V70.938L325.544 71.424L324.554 72.234L320.396 69.156C319.658 69.876 318.614 70.326 317.336 70.326C313.79 70.326 311.846 67.428 311.054 63.45L312.26 62.91C312.926 66.42 314.438 69.156 317.336 69.156C319.154 69.156 320.216 67.878 320.216 66.222C320.216 64.764 319.496 63.954 318.416 63.954C317.57 63.954 317.012 64.44 317.012 65.322C317.012 65.808 317.264 66.294 317.786 66.582L316.832 67.284C316.094 66.888 315.68 66.078 315.68 65.232C315.68 63.846 316.67 62.712 318.38 62.712C320.234 62.712 321.53 64.206 321.53 66.24C321.53 66.942 321.368 67.608 321.098 68.166L323.582 70.056L323.654 70.038C323.564 68.832 323.546 67.608 323.546 66.456V61.596H310.208ZM328.651 65.016C327.967 64.476 327.769 63.72 327.769 63.09C327.769 61.488 329.011 60.372 330.721 60.372C332.395 60.372 333.925 61.452 333.925 63.378C333.925 65.16 332.719 66.852 329.731 67.392V67.464L335.743 70.326H335.815C335.707 69.03 335.689 67.806 335.689 66.672V58.662H337.021V60.444H339.163V61.596H337.021V70.884L337.795 71.262L336.931 72.234L327.769 67.95V66.51C331.351 66.33 332.611 64.89 332.611 63.378C332.611 62.352 331.891 61.596 330.739 61.596C329.821 61.596 329.083 62.172 329.083 63.108C329.083 63.63 329.317 64.062 329.713 64.404L328.651 65.016ZM345.567 61.596H338.439V60.444H349.041V61.596H346.899V70.848L347.637 71.334L346.719 72.252L339.717 67.662V66.456C340.761 65.412 343.407 63.648 345.567 62.946V61.596ZM345.567 64.26C344.091 64.8 341.895 66.186 341.031 67.05L345.639 70.056H345.711C345.603 68.85 345.567 67.608 345.567 66.438V64.26ZM350.496 59.184V58.662H351.792V60.444H353.952V61.596H351.792V72H350.478V63.09C350.478 62.064 349.992 61.596 349.038 61.596H348.318V60.444H349.254C350.154 60.444 350.514 60.876 350.658 61.074H350.748C350.694 60.93 350.496 60.21 350.496 59.184ZM5.032 96.48C5.572 96.624 6.472 97.038 7.588 97.722L9.496 98.874L8.542 99.774C4.258 97.182 3.772 96.858 2.296 96.66V95.526H3.448C6.292 95.526 7.3 94.302 7.3 92.826C7.3 91.71 6.526 90.936 5.32 90.936C4.294 90.936 3.574 91.548 3.574 92.484C3.574 92.97 3.844 93.474 4.348 93.744L3.394 94.464C2.656 94.032 2.26 93.258 2.26 92.412C2.26 90.882 3.502 89.712 5.302 89.712C7.246 89.712 8.614 91.008 8.614 92.88C8.614 94.914 7.228 96.156 5.032 96.408V96.48ZM0.64 88.596V87.444H10.252V88.596H0.64ZM11.7125 86.184V85.662H13.0085V87.444H15.1685V88.596H13.0085V99H11.6945V90.09C11.6945 89.064 11.2085 88.596 10.2545 88.596H9.53453V87.444H10.4705C11.3705 87.444 11.7305 87.876 11.8745 88.074H11.9645C11.9105 87.93 11.7125 87.21 11.7125 86.184ZM25.7064 88.596H23.5464V99H22.2864C22.0524 97.11 20.5764 94.968 18.7584 94.428C18.4344 95.454 17.8044 95.832 17.2824 95.832C16.6524 95.832 16.2204 95.418 16.2204 94.788C16.2204 94.068 16.7604 93.402 17.6784 93.222C17.6784 93.15 17.6784 93.06 17.6784 92.952C17.6784 90.864 16.2924 89.262 15.4824 88.83V88.596H14.4564V87.444H25.7064V88.596ZM22.3044 95.976L22.3404 95.958C22.3044 95.112 22.2324 94.05 22.2324 92.718V88.596H17.2464V88.668C17.8224 89.244 18.9384 90.846 18.9384 92.97C18.9384 93.078 18.9384 93.186 18.9384 93.276C20.4684 93.6 21.7104 94.86 22.3044 95.976ZM27.2357 91.134C27.2897 94.23 29.0357 96.768 31.5017 96.768C32.9597 96.768 33.6617 95.904 33.6617 94.986C33.6617 94.572 33.5357 94.266 33.3737 94.05L31.7897 94.014C30.5297 93.978 29.6117 93.366 29.6117 92.142C29.6117 90.792 30.9797 89.568 32.6177 88.596H24.9857V87.444H40.0337V88.596H34.3277C34.5437 89.892 35.3717 91.476 37.8737 91.476H38.2337L38.8277 92.412C38.3777 93.222 37.8557 94.464 37.8557 96.156V99.054H36.5417V96.102C36.5417 94.212 37.2437 92.844 37.3697 92.628C35.1737 92.556 33.6437 91.026 33.3377 89.478C31.8977 90.396 30.9977 91.224 30.9977 92.07C30.9977 92.628 31.4117 92.844 31.9877 92.862L34.1297 92.916C34.6697 93.366 35.0117 94.176 35.0117 94.932C35.0117 96.588 33.7517 98.046 31.5197 98.046C28.3517 98.046 26.0837 95.022 25.9757 91.494L27.2357 91.134ZM41.4899 86.184V85.662H42.7859V87.444H44.9459V88.596H42.7859V99H41.4719V90.09C41.4719 89.064 40.9859 88.596 40.0319 88.596H39.3119V87.444H40.2479C41.1479 87.444 41.5079 87.876 41.6519 88.074H41.7419C41.6879 87.93 41.4899 87.21 41.4899 86.184ZM46.3758 99.144C46.3758 99.684 46.7538 100.044 47.2578 100.044C47.7798 100.044 48.1578 99.684 48.1578 99.144C48.1578 98.622 47.7798 98.262 47.2578 98.262C46.7538 98.262 46.3758 98.622 46.3758 99.144ZM51.3618 88.596H44.2337V87.444H54.8358V88.596H52.6938V97.848L53.4318 98.334L52.5138 99.252L45.5118 94.662V93.456C46.5558 92.412 49.2018 90.648 51.3618 89.946V88.596ZM51.3618 91.26C49.8857 91.8 47.6898 93.186 46.8258 94.05L51.4338 97.056H51.5058C51.3978 95.85 51.3618 94.608 51.3618 93.438V91.26ZM60.2702 82.44L61.5302 82.17C61.4942 82.368 61.4762 82.566 61.4762 82.764C61.4762 83.43 61.7642 84.114 63.2402 84.114H67.2362C69.0182 84.114 70.3682 84.96 70.3682 86.634C70.3682 86.868 70.3322 87.156 70.2782 87.444H71.8262V88.596H65.4902V91.44C65.4902 92.052 65.7242 92.43 66.3362 92.43C66.8942 92.43 68.1362 92.052 69.4142 90.864C70.0082 91.26 70.7642 92.322 70.7642 93.672C70.7642 96.156 68.9642 97.902 66.1382 97.902C62.5202 97.902 60.5042 94.914 60.3422 91.458L61.6022 91.188C61.7282 94.626 63.5642 96.678 66.1562 96.678C68.1362 96.678 69.4682 95.49 69.4682 93.708C69.4682 93.204 69.3422 92.772 69.1622 92.538C68.2982 93.258 67.2182 93.654 66.2462 93.654C64.9322 93.654 64.1582 92.736 64.1582 91.512V88.596H59.5142V87.444H68.9822C69.0182 87.192 69.0542 86.904 69.0542 86.724C69.0542 85.698 68.4422 85.284 67.0382 85.284H63.1502C60.8822 85.284 60.2342 84.132 60.2342 82.962C60.2342 82.782 60.2342 82.62 60.2702 82.44ZM73.7336 89.892C75.0656 90.018 76.2176 90.828 76.8116 92.646L79.8356 90.666C79.2416 89.388 78.1436 88.542 76.6136 88.542C75.1016 88.542 74.0936 89.406 73.7336 89.892ZM81.6716 99H80.3396V93.132C80.3396 92.682 80.3036 92.25 80.2136 91.854L74.5796 95.526L73.9136 94.518L75.7856 93.294C75.4436 92.196 74.7956 91.044 73.2296 90.954C73.1036 90.936 72.9596 90.918 72.8156 90.918L72.0596 89.874C72.7796 88.722 74.2736 87.336 76.5596 87.336C78.7916 87.336 80.0156 88.632 80.5556 89.658L80.6096 89.64C80.5196 89.37 80.3396 87.822 80.3396 86.418V85.662H81.6716V87.444H83.8136V88.596H81.6716V99ZM85.241 99.144C85.241 99.684 85.619 100.044 86.123 100.044C86.645 100.044 87.023 99.684 87.023 99.144C87.023 98.622 86.645 98.262 86.123 98.262C85.619 98.262 85.241 98.622 85.241 99.144ZM90.227 88.596H83.099V87.444H93.701V88.596H91.559V97.848L92.297 98.334L91.379 99.252L84.377 94.662V93.456C85.421 92.412 88.067 90.648 90.227 89.946V88.596ZM90.227 91.26C88.751 91.8 86.555 93.186 85.691 94.05L90.299 97.056H90.371C90.263 95.85 90.227 94.608 90.227 93.438V91.26ZM101.349 96.408C99.9094 96.408 99.0454 95.49 98.7394 94.716L99.7294 93.996C99.9634 94.518 100.377 95.202 101.367 95.202C102.375 95.202 102.861 94.356 102.861 93.42C102.861 92.124 102.357 91.422 101.259 90.216L100.125 88.956V88.596H98.1634V87.444H110.727V88.596H108.585V99H107.253V93.996C107.253 93.312 106.911 92.916 106.245 92.916C105.507 92.916 104.841 93.798 104.103 94.68C103.329 95.58 102.465 96.408 101.349 96.408ZM107.307 92.034C107.253 90.972 107.253 89.82 107.253 89.766V88.596H101.583V88.668L102.483 89.73C103.239 90.63 103.923 91.476 103.959 92.664C103.977 92.808 103.977 93.006 103.977 93.15C104.427 92.484 105.183 91.638 106.173 91.638C106.695 91.638 107.055 91.818 107.307 92.034ZM112.207 86.184V85.662H113.503V87.444H115.663V88.596H113.503V99H112.189V90.09C112.189 89.064 111.703 88.596 110.749 88.596H110.029V87.444H110.965C111.865 87.444 112.225 87.876 112.369 88.074H112.459C112.405 87.93 112.207 87.21 112.207 86.184ZM126.831 85.446C125.571 84.33 123.609 83.304 121.395 83.304C119.415 83.304 118.425 84.6 118.425 86.094V87.444H120.585V88.596H118.425V99H117.111V88.596H114.951V87.444H117.111V85.932C117.111 83.916 118.641 82.08 121.377 82.08C124.131 82.08 126.453 83.448 127.623 84.51L126.831 85.446ZM129.034 95.868C129.808 95.544 130.474 94.716 130.474 93.726C130.474 92.466 129.502 91.512 127.702 91.476V97.794L128.44 98.388L127.414 99.18L121.15 94.014V92.862C122.662 91.566 124.48 90.594 126.406 90.324V88.596H119.872V87.444H133.03V88.596H127.702V90.252C130.312 90.306 131.77 91.98 131.77 93.744C131.77 95.148 130.978 96.264 129.952 96.822L129.034 95.868ZM122.464 93.474L126.46 96.84H126.532C126.424 95.544 126.406 94.356 126.406 93.222V91.584C124.894 91.8 123.472 92.646 122.464 93.474ZM135.324 95.022L134.154 95.544C133.722 95.13 133.47 94.536 133.47 93.798C133.47 92.07 134.604 90.936 136.53 90.936C138.852 90.936 140.274 92.61 140.994 94.14H141.066C141.048 93.996 140.886 92.844 140.886 90.558V88.596H132.318V87.444H144.36V88.596H142.218V99H140.886V98.622C140.886 95.796 139.302 92.178 136.602 92.178C135.378 92.178 134.784 92.862 134.784 93.798C134.784 94.266 135 94.698 135.324 95.022ZM151.2 92.016C150.516 91.476 150.318 90.72 150.318 90.09C150.318 88.488 151.56 87.372 153.27 87.372C154.944 87.372 156.474 88.452 156.474 90.378C156.474 92.16 155.268 93.852 152.28 94.392V94.464L158.292 97.326H158.364C158.256 96.03 158.238 94.806 158.238 93.672V85.662H159.57V87.444H161.712V88.596H159.57V97.884L160.344 98.262L159.48 99.234L150.318 94.95V93.51C153.9 93.33 155.16 91.89 155.16 90.378C155.16 89.352 154.44 88.596 153.288 88.596C152.37 88.596 151.632 89.172 151.632 90.108C151.632 90.63 151.866 91.062 152.262 91.404L151.2 92.016ZM163.166 86.184V85.662H164.462V87.444H166.622V88.596H164.462V99H163.148V90.09C163.148 89.064 162.662 88.596 161.708 88.596H160.988V87.444H161.924C162.824 87.444 163.184 87.876 163.328 88.074H163.418C163.364 87.93 163.166 87.21 163.166 86.184ZM175.072 95.868C175.846 95.544 176.512 94.716 176.512 93.726C176.512 92.466 175.54 91.512 173.74 91.476V97.794L174.478 98.388L173.452 99.18L167.188 94.014V92.862C168.7 91.566 170.518 90.594 172.444 90.324V88.596H165.91V87.444H179.068V88.596H173.74V90.252C176.35 90.306 177.808 91.98 177.808 93.744C177.808 95.148 177.016 96.264 175.99 96.822L175.072 95.868ZM168.502 93.474L172.498 96.84H172.57C172.462 95.544 172.444 94.356 172.444 93.222V91.584C170.932 91.8 169.51 92.646 168.502 93.474ZM183.395 98.172L182.729 99.234C180.731 98.46 179.669 96.354 179.669 93.726C179.669 91.854 180.263 89.928 181.055 88.596H178.355V87.444H183.953V88.596H182.549C181.595 89.82 180.983 91.836 180.983 93.726C180.983 95.85 181.739 97.416 183.395 98.172ZM189.506 97.002C189.11 97.128 188.678 97.2 188.228 97.2C186.104 97.2 184.628 95.832 184.628 93.654C184.628 91.656 186.032 90.45 187.598 90.45C189.038 90.45 189.74 91.368 189.902 91.926H189.974C190.118 91.242 190.802 90.396 191.99 90.396C192.962 90.396 193.52 90.954 193.7 91.17H193.772V88.596H183.242V87.444H197.246V88.596H195.086V99H193.772V92.7C193.628 92.25 193.034 91.62 192.134 91.62C191.252 91.62 190.55 92.268 190.55 93.384V94.086H189.272V93.402C189.272 92.25 188.57 91.692 187.652 91.692C186.788 91.692 185.942 92.376 185.942 93.654C185.942 95.166 186.968 96.012 188.246 96.012C188.606 96.012 188.984 95.94 189.308 95.796L189.506 97.002ZM202.688 82.44L203.948 82.17C203.912 82.368 203.894 82.566 203.894 82.764C203.894 83.43 204.182 84.114 205.658 84.114H209.654C211.436 84.114 212.786 84.96 212.786 86.634C212.786 86.868 212.75 87.156 212.696 87.444H214.244V88.596H207.908V91.44C207.908 92.052 208.142 92.43 208.754 92.43C209.312 92.43 210.554 92.052 211.832 90.864C212.426 91.26 213.182 92.322 213.182 93.672C213.182 96.156 211.382 97.902 208.556 97.902C204.938 97.902 202.922 94.914 202.76 91.458L204.02 91.188C204.146 94.626 205.982 96.678 208.574 96.678C210.554 96.678 211.886 95.49 211.886 93.708C211.886 93.204 211.76 92.772 211.58 92.538C210.716 93.258 209.636 93.654 208.664 93.654C207.35 93.654 206.576 92.736 206.576 91.512V88.596H201.932V87.444H211.4C211.436 87.192 211.472 86.904 211.472 86.724C211.472 85.698 210.86 85.284 209.456 85.284H205.568C203.3 85.284 202.652 84.132 202.652 82.962C202.652 82.782 202.652 82.62 202.688 82.44ZM226.052 91.62C227.618 92.196 228.482 93.042 228.482 94.536C228.482 96.732 226.466 99.018 224.18 99.018C222.65 99.018 221.75 98.136 221.75 96.768V93.996C221.318 95.652 219.842 96.894 218.078 96.894C216.548 96.894 215.63 96.012 215.63 94.626V88.596H213.74V87.444H229.778V88.596H222.992V89.082C222.992 90.108 223.622 90.702 224.576 91.062L226.052 91.62ZM223.046 91.422H222.974C222.992 91.584 223.046 92.556 223.046 94.248V96.732C223.046 97.38 223.406 97.812 224.198 97.812C225.44 97.812 227.168 96.246 227.168 94.518C227.168 93.816 226.844 93.24 225.602 92.79L224.45 92.358C223.64 92.07 223.226 91.656 223.046 91.422ZM216.89 90.108H216.818C216.836 90.288 216.926 91.26 216.926 92.952V94.572C216.926 95.256 217.268 95.67 218.078 95.67C219.32 95.67 220.598 94.518 220.598 93.006C220.598 92.304 220.292 91.746 219.068 91.314L218.276 91.026C217.466 90.756 217.106 90.396 216.89 90.108ZM219.5 90.144C220.724 90.594 221.462 91.188 221.75 92.106V88.596H216.89C217.106 89.154 217.646 89.478 218.456 89.766L219.5 90.144ZM231.228 86.184V85.662H232.524V87.444H234.684V88.596H232.524V99H231.21V90.09C231.21 89.064 230.724 88.596 229.77 88.596H229.05V87.444H229.986C230.886 87.444 231.246 87.876 231.39 88.074H231.48C231.426 87.93 231.228 87.21 231.228 86.184ZM236.114 99.144C236.114 99.684 236.492 100.044 236.996 100.044C237.518 100.044 237.896 99.684 237.896 99.144C237.896 98.622 237.518 98.262 236.996 98.262C236.492 98.262 236.114 98.622 236.114 99.144ZM241.1 88.596H233.972V87.444H244.574V88.596H242.432V97.848L243.17 98.334L242.252 99.252L235.25 94.662V93.456C236.294 92.412 238.94 90.648 241.1 89.946V88.596ZM241.1 91.26C239.624 91.8 237.428 93.186 236.564 94.05L241.172 97.056H241.244C241.136 95.85 241.1 94.608 241.1 93.438V91.26ZM246.299 91.08C246.299 92.466 247.235 93.186 248.423 93.186C248.981 93.186 249.485 92.988 249.809 92.754L250.241 93.906C249.809 94.212 249.089 94.41 248.405 94.41C246.317 94.41 244.985 92.97 244.985 91.062C244.985 89.01 246.335 87.444 248.711 87.444C250.655 87.444 251.717 88.614 252.149 89.388H252.221C252.131 88.956 252.041 88.074 252.041 86.652V85.662H253.355V87.444H255.515V88.596H253.355V99H252.041V93.204C252.041 90.576 250.907 88.65 248.765 88.65C247.163 88.65 246.299 89.694 246.299 91.08ZM265.028 98.172L264.362 99.234C262.364 98.46 261.302 96.354 261.302 93.726C261.302 91.836 261.788 89.64 263.336 87.444H265.586V88.596H264.2C263.246 89.946 262.616 91.836 262.616 93.726C262.616 95.85 263.372 97.416 265.028 98.172ZM268.06 96.408C266.62 96.408 265.756 95.49 265.45 94.716L266.44 93.996C266.674 94.518 267.088 95.202 268.078 95.202C269.086 95.202 269.572 94.356 269.572 93.42C269.572 92.124 269.068 91.422 267.97 90.216L266.836 88.956V88.596H264.874V87.444H277.438V88.596H275.296V99H273.964V93.996C273.964 93.312 273.622 92.916 272.956 92.916C272.218 92.916 271.552 93.798 270.814 94.68C270.04 95.58 269.176 96.408 268.06 96.408ZM274.018 92.034C273.964 90.972 273.964 89.82 273.964 89.766V88.596H268.294V88.668L269.194 89.73C269.95 90.63 270.634 91.476 270.67 92.664C270.688 92.808 270.688 93.006 270.688 93.15C271.138 92.484 271.894 91.638 272.884 91.638C273.406 91.638 273.766 91.818 274.018 92.034ZM278.882 99.144C278.882 99.684 279.26 100.044 279.764 100.044C280.286 100.044 280.664 99.684 280.664 99.144C280.664 98.622 280.286 98.262 279.764 98.262C279.26 98.262 278.882 98.622 278.882 99.144ZM283.868 88.596H276.74V87.444H287.342V88.596H285.2V97.848L285.938 98.334L285.02 99.252L278.018 94.662V93.456C279.062 92.412 281.708 90.648 283.868 89.946V88.596ZM283.868 91.26C282.392 91.8 280.196 93.186 279.332 94.05L283.94 97.056H284.012C283.904 95.85 283.868 94.608 283.868 93.438V91.26ZM295.781 95.868C296.555 95.544 297.221 94.716 297.221 93.726C297.221 92.466 296.249 91.512 294.449 91.476V97.794L295.187 98.388L294.161 99.18L287.897 94.014V92.862C289.409 91.566 291.227 90.594 293.153 90.324V88.596H286.619V87.444H299.777V88.596H294.449V90.252C297.059 90.306 298.517 91.98 298.517 93.744C298.517 95.148 297.725 96.264 296.699 96.822L295.781 95.868ZM289.211 93.474L293.207 96.84H293.279C293.171 95.544 293.153 94.356 293.153 93.222V91.584C291.641 91.8 290.219 92.646 289.211 93.474ZM310.314 88.596H308.154V99H306.894C306.66 97.11 305.184 94.968 303.366 94.428C303.042 95.454 302.412 95.832 301.89 95.832C301.26 95.832 300.828 95.418 300.828 94.788C300.828 94.068 301.368 93.402 302.286 93.222C302.286 93.15 302.286 93.06 302.286 92.952C302.286 90.864 300.9 89.262 300.09 88.83V88.596H299.064V87.444H310.314V88.596ZM306.912 95.976L306.948 95.958C306.912 95.112 306.84 94.05 306.84 92.718V88.596H301.854V88.668C302.43 89.244 303.546 90.846 303.546 92.97C303.546 93.078 303.546 93.186 303.546 93.276C305.076 93.6 306.318 94.86 306.912 95.976ZM319.171 96.48C319.711 96.624 320.611 97.038 321.727 97.722L323.635 98.874L322.681 99.774C318.397 97.182 317.911 96.858 316.435 96.66V95.526H317.587C320.431 95.526 321.439 94.302 321.439 92.826C321.439 91.71 320.665 90.936 319.459 90.936C318.433 90.936 317.713 91.548 317.713 92.484C317.713 92.97 317.983 93.474 318.487 93.744L317.533 94.464C316.795 94.032 316.399 93.258 316.399 92.412C316.399 90.882 317.641 89.712 319.441 89.712C321.385 89.712 322.753 91.008 322.753 92.88C322.753 94.914 321.367 96.156 319.171 96.408V96.48ZM314.779 88.596V87.444H324.391V88.596H314.779ZM328.713 98.172L328.047 99.234C326.049 98.46 324.987 96.354 324.987 93.726C324.987 91.854 325.581 89.928 326.373 88.596H323.673V87.444H329.271V88.596H327.867C326.913 89.82 326.301 91.836 326.301 93.726C326.301 95.85 327.057 97.416 328.713 98.172ZM335.688 88.596H328.56V87.444H339.162V88.596H337.02V97.848L337.758 98.334L336.84 99.252L329.838 94.662V93.456C330.882 92.412 333.528 90.648 335.688 89.946V88.596ZM335.688 91.26C334.212 91.8 332.016 93.186 331.152 94.05L335.76 97.056H335.832C335.724 95.85 335.688 94.608 335.688 93.438V91.26ZM348.97 99H347.584V87.444H348.97V99ZM12.52 112.446C11.26 111.33 9.298 110.304 7.084 110.304C5.104 110.304 4.114 111.6 4.114 113.094V114.444H6.274V115.596H4.114V126H2.8V115.596H0.64V114.444H2.8V112.932C2.8 110.916 4.33 109.08 7.066 109.08C9.82 109.08 12.142 110.448 13.312 111.51L12.52 112.446ZM8.56787 122.022L7.39788 122.544C6.96588 122.13 6.71388 121.536 6.71388 120.798C6.71388 119.07 7.84788 117.936 9.77388 117.936C12.0959 117.936 13.5179 119.61 14.2379 121.14H14.3099C14.2919 120.996 14.1299 119.844 14.1299 117.558V115.596H5.56187V114.444H17.6039V115.596H15.4619V126H14.1299V125.622C14.1299 122.796 12.5459 119.178 9.84588 119.178C8.62188 119.178 8.02788 119.862 8.02788 120.798C8.02788 121.266 8.24388 121.698 8.56787 122.022ZM21.9222 125.172L21.2562 126.234C19.2582 125.46 18.1962 123.354 18.1962 120.726C18.1962 118.854 18.7902 116.928 19.5822 115.596H16.8822V114.444H22.4802V115.596H21.0762C20.1222 116.82 19.5102 118.836 19.5102 120.726C19.5102 122.85 20.2662 124.416 21.9222 125.172ZM28.2129 118.62C29.7789 119.196 30.6429 120.042 30.6429 121.536C30.6429 123.732 28.6269 126.018 26.3409 126.018C24.8109 126.018 23.9109 125.136 23.9109 123.768V115.596H21.7689V114.444H31.9389V115.596H25.1529V116.082C25.1529 117.108 25.7829 117.702 26.7369 118.062L28.2129 118.62ZM25.1169 118.422C25.1529 118.584 25.2069 119.556 25.2069 121.248V123.732C25.2069 124.38 25.5489 124.812 26.3589 124.812C27.6009 124.812 29.3109 123.246 29.3109 121.518C29.3109 120.816 29.0049 120.24 27.7629 119.79L26.5929 119.358C25.8009 119.07 25.3869 118.656 25.1889 118.422H25.1169ZM33.3679 126.144C33.3679 126.684 33.7459 127.044 34.2499 127.044C34.7719 127.044 35.1499 126.684 35.1499 126.144C35.1499 125.622 34.7719 125.262 34.2499 125.262C33.7459 125.262 33.3679 125.622 33.3679 126.144ZM38.3539 115.596H31.2259V114.444H41.8279V115.596H39.6859V124.848L40.4239 125.334L39.5059 126.252L32.5039 121.662V120.456C33.5479 119.412 36.1939 117.648 38.3539 116.946V115.596ZM38.3539 118.26C36.8779 118.8 34.6819 120.186 33.8179 121.05L38.4259 124.056H38.4979C38.3899 122.85 38.3539 121.608 38.3539 120.438V118.26ZM46.2904 115.596V114.444H63.0844V115.596H60.9424V124.938L61.6264 125.424L60.6364 126.234L56.4784 123.156C55.7404 123.876 54.6964 124.326 53.4184 124.326C49.8724 124.326 47.9284 121.428 47.1364 117.45L48.3424 116.91C49.0084 120.42 50.5204 123.156 53.4184 123.156C55.2364 123.156 56.2984 121.878 56.2984 120.222C56.2984 118.764 55.5784 117.954 54.4984 117.954C53.6524 117.954 53.0944 118.44 53.0944 119.322C53.0944 119.808 53.3464 120.294 53.8684 120.582L52.9144 121.284C52.1764 120.888 51.7624 120.078 51.7624 119.232C51.7624 117.846 52.7524 116.712 54.4624 116.712C56.3164 116.712 57.6124 118.206 57.6124 120.24C57.6124 120.942 57.4504 121.608 57.1804 122.166L59.6644 124.056L59.7364 124.038C59.6464 122.832 59.6284 121.608 59.6284 120.456V115.596H46.2904ZM74.2368 112.446C72.9768 111.33 71.0148 110.304 68.8008 110.304C66.8208 110.304 65.8308 111.6 65.8308 113.094V114.444H67.9908V115.596H65.8308V126H64.5168V115.596H62.3568V114.444H64.5168V112.932C64.5168 110.916 66.0468 109.08 68.7828 109.08C71.5368 109.08 73.8588 110.448 75.0288 111.51L74.2368 112.446ZM80.0227 115.596H73.4707V118.44C73.4707 119.052 73.7047 119.43 74.3167 119.43C74.8747 119.43 76.1167 119.052 77.3947 117.864C77.9887 118.26 78.7447 119.322 78.7447 120.672C78.7447 123.156 76.9447 124.902 74.1187 124.902C70.5007 124.902 68.4847 121.914 68.3227 118.458L69.5827 118.188C69.7087 121.626 71.5447 123.678 74.1367 123.678C76.1167 123.678 77.4487 122.49 77.4487 120.708C77.4487 120.204 77.3227 119.772 77.1427 119.538C76.2787 120.258 75.1987 120.654 74.2267 120.654C72.9127 120.654 72.1387 119.736 72.1387 118.512V115.596H67.2787V114.444H80.0227V115.596ZM82.4701 115.632C83.1721 114.876 84.1261 114.282 85.4581 114.282C87.1321 114.282 88.5181 115.398 88.5181 117.072C88.5181 118.08 88.1221 118.854 87.4741 119.43C88.5001 120.06 89.4001 121.068 89.4001 122.508C89.4001 124.236 88.1941 125.694 85.9801 125.694C82.9201 125.694 80.9041 122.328 80.0941 119.394L81.2821 118.908C82.0201 121.86 83.8021 124.452 85.9801 124.452C87.3661 124.452 88.0681 123.534 88.0681 122.472C88.0681 121.338 87.2581 120.618 86.3761 120.15C85.9621 120.348 85.5121 120.492 85.0441 120.6L84.3961 119.484C86.0521 119.196 87.2041 118.44 87.2041 117.072C87.2041 116.1 86.5201 115.47 85.4761 115.47C84.5761 115.47 83.9101 115.974 83.4061 116.532L82.4701 115.632ZM93.7487 121.086C94.5947 120.474 95.2067 119.736 95.2067 118.944C95.2067 118.368 94.8107 117.99 94.0907 117.99C93.5687 117.99 93.0827 118.116 92.7227 118.35L91.6067 117.414C92.2907 115.038 93.7487 114.336 95.1347 114.336C96.4667 114.336 97.6187 115.146 98.2127 116.37C98.7167 115.65 99.2027 114.732 99.3827 114.444H100.211C101.399 115.164 102.443 116.28 102.443 117.756C102.443 118.764 102.119 119.592 101.489 120.294C102.191 120.834 102.731 121.716 102.731 122.886C102.731 125.262 100.715 126.648 98.1407 126.648C94.9367 126.648 92.6327 124.668 91.1567 121.626L92.1827 120.798C93.6587 123.966 95.6387 125.388 98.1587 125.388C100.175 125.388 101.381 124.29 101.381 122.868C101.381 122.13 101.057 121.518 100.571 121.122C100.157 121.41 99.6707 121.698 99.1307 121.968L98.2847 120.942C100.121 120.06 101.165 119.196 101.165 117.756C101.165 116.964 100.625 116.28 100.049 115.866C99.7787 116.352 99.1847 117.378 98.6627 118.044H97.6007C97.2227 116.658 96.4667 115.56 95.1167 115.56C94.1267 115.56 93.4787 116.19 93.1547 116.946L93.2087 117C93.5147 116.892 93.9107 116.856 94.1807 116.856C95.7107 116.856 96.4667 117.756 96.4667 118.908C96.4667 120.042 95.6747 121.248 94.7207 121.896L93.7487 121.086ZM108.266 125.172L107.6 126.234C105.602 125.46 104.54 123.354 104.54 120.726C104.54 118.854 105.134 116.928 105.926 115.596H103.226V114.444H108.824V115.596H107.42C106.466 116.82 105.854 118.836 105.854 120.726C105.854 122.85 106.61 124.416 108.266 125.172ZM114.377 124.002C113.981 124.128 113.549 124.2 113.099 124.2C110.975 124.2 109.499 122.832 109.499 120.654C109.499 118.656 110.903 117.45 112.469 117.45C113.909 117.45 114.611 118.368 114.773 118.926H114.845C114.989 118.242 115.673 117.396 116.861 117.396C117.833 117.396 118.391 117.954 118.571 118.17H118.643V115.596H108.113V114.444H122.117V115.596H119.957V126H118.643V119.7C118.499 119.25 117.905 118.62 117.005 118.62C116.123 118.62 115.421 119.268 115.421 120.384V121.086H114.143V120.402C114.143 119.25 113.441 118.692 112.523 118.692C111.659 118.692 110.813 119.376 110.813 120.654C110.813 122.166 111.839 123.012 113.117 123.012C113.477 123.012 113.855 122.94 114.179 122.796L114.377 124.002ZM123.58 113.184V112.662H124.876V114.444H127.036V115.596H124.876V126H123.562V117.09C123.562 116.064 123.076 115.596 122.122 115.596H121.402V114.444H122.338C123.238 114.444 123.598 114.876 123.742 115.074H123.832C123.778 114.93 123.58 114.21 123.58 113.184ZM136.549 125.172L135.883 126.234C133.885 125.46 132.823 123.354 132.823 120.726C132.823 118.836 133.309 116.64 134.857 114.444H137.107V115.596H135.721C134.767 116.946 134.137 118.836 134.137 120.726C134.137 122.85 134.893 124.416 136.549 125.172ZM139.132 116.892C140.338 116.964 141.688 117.612 142.156 119.286L145.09 117.306C144.442 116.226 143.398 115.542 142.012 115.542C140.518 115.542 139.51 116.406 139.132 116.892ZM138.214 117.918L137.458 116.874C138.16 115.722 139.69 114.336 141.958 114.336C144.19 114.336 145.414 115.632 145.954 116.658L146.026 116.64C145.936 116.37 145.756 114.822 145.756 113.418V112.662H147.052V114.444H149.194V115.596H147.052V127.53H145.774V123.264C145.63 122.832 145.18 122.184 144.406 122.184C143.56 122.184 143.056 122.832 143.056 123.93V124.542H141.832V123.912C141.832 122.796 141.22 122.22 140.374 122.22C139.528 122.22 138.916 122.922 138.916 124.146C138.916 125.622 139.78 126.306 140.95 126.306C141.292 126.306 141.652 126.234 141.958 126.126L142.228 127.278C141.832 127.422 141.418 127.512 140.968 127.512C139.006 127.512 137.656 126.18 137.656 124.146C137.656 122.796 138.232 121.824 139.078 121.338L141.13 119.97C140.824 118.854 140.104 118.08 138.664 117.99C138.52 117.954 138.394 117.936 138.214 117.918ZM142.48 122.22C142.714 121.626 143.272 121.014 144.244 121.014C145.036 121.014 145.486 121.392 145.702 121.626H145.774V120.132C145.774 119.538 145.702 118.98 145.558 118.458L143.182 120.024C142.516 120.456 141.886 120.852 141.328 121.194C141.94 121.41 142.228 121.842 142.408 122.22H142.48ZM162.82 122.868C163.594 122.544 164.26 121.716 164.26 120.726C164.26 119.466 163.288 118.512 161.488 118.476V124.794L162.226 125.388L161.2 126.18L154.936 121.014V119.862C156.448 118.566 158.266 117.594 160.192 117.324V115.596H153.658V114.444H166.816V115.596H161.488V117.252C164.098 117.306 165.556 118.98 165.556 120.744C165.556 122.148 164.764 123.264 163.738 123.822L162.82 122.868ZM156.25 120.474L160.246 123.84H160.318C160.21 122.544 160.192 121.356 160.192 120.222V118.584C158.68 118.8 157.258 119.646 156.25 120.474ZM168.245 126.144C168.245 126.684 168.623 127.044 169.127 127.044C169.649 127.044 170.027 126.684 170.027 126.144C170.027 125.622 169.649 125.262 169.127 125.262C168.623 125.262 168.245 125.622 168.245 126.144ZM173.231 115.596H166.103V114.444H176.705V115.596H174.563V124.848L175.301 125.334L174.383 126.252L167.381 121.662V120.456C168.425 119.412 171.071 117.648 173.231 116.946V115.596ZM173.231 118.26C171.755 118.8 169.559 120.186 168.695 121.05L173.303 124.056H173.375C173.267 122.85 173.231 121.608 173.231 120.438V118.26ZM180.248 120.51C180.248 122.4 178.952 123.498 177.224 123.498C175.334 123.498 173.912 122.202 173.75 120.15L174.542 119.16C174.542 120.636 175.244 122.274 177.188 122.274C178.286 122.274 178.988 121.59 178.988 120.51C178.988 119.394 178.232 118.872 177.35 118.872C176.846 118.872 176.36 119.016 175.91 119.34L175.496 118.242C176 117.882 176.684 117.648 177.386 117.648C178.97 117.648 180.248 118.728 180.248 120.51ZM175.982 115.596H181.472V114.444H175.982V115.596ZM183.751 122.022L182.581 122.544C182.149 122.13 181.897 121.536 181.897 120.798C181.897 119.07 183.031 117.936 184.957 117.936C187.279 117.936 188.701 119.61 189.421 121.14H189.493C189.475 120.996 189.313 119.844 189.313 117.558V115.596H180.745V114.444H192.787V115.596H190.645V126H189.313V125.622C189.313 122.796 187.729 119.178 185.029 119.178C183.805 119.178 183.211 119.862 183.211 120.798C183.211 121.266 183.427 121.698 183.751 122.022ZM204.289 121.5C203.569 121.068 203.101 120.276 203.101 119.304C203.101 117.864 204.091 116.766 205.783 116.766C207.835 116.766 208.933 118.458 208.933 120.51C208.933 123.084 207.187 124.884 204.649 124.884C201.067 124.884 199.213 121.662 198.439 117.612L199.663 117.072C200.311 120.636 201.733 123.714 204.649 123.714C206.485 123.714 207.619 122.256 207.619 120.492C207.619 118.998 207.025 117.99 205.819 117.99C204.991 117.99 204.415 118.494 204.415 119.376C204.415 119.952 204.685 120.438 205.189 120.726L204.289 121.5ZM210.229 114.444V115.596H197.251V114.444H210.229ZM211.681 113.184V112.662H212.977V114.444H215.137V115.596H212.977V126H211.663V117.09C211.663 116.064 211.177 115.596 210.223 115.596H209.503V114.444H210.439C211.339 114.444 211.699 114.876 211.843 115.074H211.933C211.879 114.93 211.681 114.21 211.681 113.184ZM218.817 123.48C219.357 123.624 220.257 124.038 221.373 124.722L223.281 125.874L222.327 126.774C218.043 124.182 217.557 123.858 216.081 123.66V122.526H217.233C220.077 122.526 221.085 121.302 221.085 119.826C221.085 118.71 220.311 117.936 219.105 117.936C218.079 117.936 217.359 118.548 217.359 119.484C217.359 119.97 217.629 120.474 218.133 120.744L217.179 121.464C216.441 121.032 216.045 120.258 216.045 119.412C216.045 117.882 217.287 116.712 219.087 116.712C221.031 116.712 222.399 118.008 222.399 119.88C222.399 121.914 221.013 123.156 218.817 123.408V123.48ZM214.425 115.596V114.444H224.037V115.596H214.425ZM228.36 125.172L227.694 126.234C225.696 125.46 224.634 123.354 224.634 120.726C224.634 118.854 225.228 116.928 226.02 115.596H223.32V114.444H228.918V115.596H227.514C226.56 116.82 225.948 118.836 225.948 120.726C225.948 122.85 226.704 124.416 228.36 125.172ZM234.47 124.002C234.074 124.128 233.642 124.2 233.192 124.2C231.068 124.2 229.592 122.832 229.592 120.654C229.592 118.656 230.996 117.45 232.562 117.45C234.002 117.45 234.704 118.368 234.866 118.926H234.938C235.082 118.242 235.766 117.396 236.954 117.396C237.926 117.396 238.484 117.954 238.664 118.17H238.736V115.596H228.206V114.444H242.21V115.596H240.05V126H238.736V119.7C238.592 119.25 237.998 118.62 237.098 118.62C236.216 118.62 235.514 119.268 235.514 120.384V121.086H234.236V120.402C234.236 119.25 233.534 118.692 232.616 118.692C231.752 118.692 230.906 119.376 230.906 120.654C230.906 122.166 231.932 123.012 233.21 123.012C233.57 123.012 233.948 122.94 234.272 122.796L234.47 124.002ZM247.761 117.9L248.967 117.396C249.615 120.726 251.091 123.876 254.493 123.876C256.563 123.876 257.787 122.562 257.787 120.906C257.787 119.862 257.499 119.34 257.229 118.872H257.157C256.437 120.474 255.465 121.122 254.349 121.122C252.873 121.122 251.973 120.15 251.973 118.926C251.973 118.44 252.135 117.972 252.369 117.63L253.665 117.864C253.431 118.116 253.269 118.512 253.269 118.89C253.269 119.502 253.647 119.916 254.367 119.916C255.159 119.916 255.807 119.322 256.599 117.36H257.643C258.363 118.044 259.083 119.394 259.083 120.906C259.083 123.3 257.337 125.136 254.475 125.136C250.335 125.136 248.517 121.482 247.761 117.9ZM260.361 115.596H246.681V114.444H260.361V115.596ZM261.814 113.184V112.662H263.11V114.444H265.27V115.596H263.11V126H261.796V117.09C261.796 116.064 261.31 115.596 260.356 115.596H259.636V114.444H260.572C261.472 114.444 261.832 114.876 261.976 115.074H262.066C262.012 114.93 261.814 114.21 261.814 113.184ZM269.598 125.172L268.932 126.234C266.934 125.46 265.872 123.354 265.872 120.726C265.872 118.854 266.466 116.928 267.258 115.596H264.558V114.444H270.156V115.596H268.752C267.798 116.82 267.186 118.836 267.186 120.726C267.186 122.85 267.942 124.416 269.598 125.172ZM275.709 124.002C275.313 124.128 274.881 124.2 274.431 124.2C272.307 124.2 270.831 122.832 270.831 120.654C270.831 118.656 272.235 117.45 273.801 117.45C275.241 117.45 275.943 118.368 276.105 118.926H276.177C276.321 118.242 277.005 117.396 278.193 117.396C279.165 117.396 279.723 117.954 279.903 118.17H279.975V115.596H269.445V114.444H283.449V115.596H281.289V126H279.975V119.7C279.831 119.25 279.237 118.62 278.337 118.62C277.455 118.62 276.753 119.268 276.753 120.384V121.086H275.475V120.402C275.475 119.25 274.773 118.692 273.855 118.692C272.991 118.692 272.145 119.376 272.145 120.654C272.145 122.166 273.171 123.012 274.449 123.012C274.809 123.012 275.187 122.94 275.511 122.796L275.709 124.002ZM284.912 113.184V112.662H286.208V114.444H288.368V115.596H286.208V126H284.894V117.09C284.894 116.064 284.408 115.596 283.454 115.596H282.734V114.444H283.67C284.57 114.444 284.93 114.876 285.074 115.074H285.164C285.11 114.93 284.912 114.21 284.912 113.184ZM302.003 122.868C302.777 122.544 303.443 121.716 303.443 120.726C303.443 119.466 302.471 118.512 300.671 118.476V124.794L301.409 125.388L300.383 126.18L294.119 121.014V119.862C295.631 118.566 297.449 117.594 299.375 117.324V115.596H292.841V114.444H305.999V115.596H300.671V117.252C303.281 117.306 304.739 118.98 304.739 120.744C304.739 122.148 303.947 123.264 302.921 123.822L302.003 122.868ZM295.433 120.474L299.429 123.84H299.501C299.393 122.544 299.375 121.356 299.375 120.222V118.584C297.863 118.8 296.441 119.646 295.433 120.474ZM310.326 125.172L309.66 126.234C307.662 125.46 306.6 123.354 306.6 120.726C306.6 118.854 307.194 116.928 307.986 115.596H305.286V114.444H310.884V115.596H309.48C308.526 116.82 307.914 118.836 307.914 120.726C307.914 122.85 308.67 124.416 310.326 125.172ZM312.315 126.144C312.315 126.684 312.693 127.044 313.197 127.044C313.719 127.044 314.097 126.684 314.097 126.144C314.097 125.622 313.719 125.262 313.197 125.262C312.693 125.262 312.315 125.622 312.315 126.144ZM317.301 115.596H310.173V114.444H320.775V115.596H318.633V124.848L319.371 125.334L318.453 126.252L311.451 121.662V120.456C312.495 119.412 315.141 117.648 317.301 116.946V115.596ZM317.301 118.26C315.825 118.8 313.629 120.186 312.765 121.05L317.373 124.056H317.445C317.337 122.85 317.301 121.608 317.301 120.438V118.26ZM337.551 115.596H330.423V114.444H341.025V115.596H338.883V124.848L339.621 125.334L338.703 126.252L331.701 121.662V120.456C332.745 119.412 335.391 117.648 337.551 116.946V115.596ZM337.551 118.26C336.075 118.8 333.879 120.186 333.015 121.05L337.623 124.056H337.695C337.587 122.85 337.551 121.608 337.551 120.438V118.26ZM336.911 130.734C338.135 130.734 338.747 129.672 338.783 128.268V128.214C338.171 127.872 337.523 127.656 336.875 127.656C335.795 127.656 335.219 128.322 335.219 129.222C335.219 130.104 335.921 130.734 336.911 130.734ZM342.149 131.364C341.429 130.5 340.673 129.654 339.881 129.006C339.683 130.644 338.639 131.814 336.893 131.814C335.075 131.814 333.959 130.68 333.959 129.222C333.959 127.62 335.165 126.558 336.785 126.558C339.323 126.558 341.447 128.754 343.085 130.662L342.149 131.364ZM347.16 124.038H347.232C347.124 122.832 347.106 121.59 347.106 120.42V118.53C345.486 119.016 343.758 120.15 342.858 121.086L347.16 124.038ZM351.39 112.662H352.704V114.444H354.864V115.596H352.704V123.048L351.48 123.66L348.402 121.554V124.83L349.14 125.334L348.222 126.234L341.526 121.716V120.51C342.642 119.376 344.766 117.828 347.106 117.216V115.596H340.302V114.444H348.402V120.06L351.462 122.166H351.534C351.426 120.978 351.39 119.718 351.39 118.548V112.662ZM359.176 125.172L358.51 126.234C356.512 125.46 355.45 123.354 355.45 120.726C355.45 118.854 356.044 116.928 356.836 115.596H354.136V114.444H359.734V115.596H358.33C357.376 116.82 356.764 118.836 356.764 120.726C356.764 122.85 357.52 124.416 359.176 125.172ZM366.061 121.5C365.341 121.068 364.873 120.276 364.873 119.304C364.873 117.864 365.863 116.766 367.555 116.766C369.607 116.766 370.705 118.458 370.705 120.51C370.705 123.084 368.959 124.884 366.421 124.884C362.839 124.884 360.985 121.662 360.211 117.612L361.435 117.072C362.083 120.636 363.505 123.714 366.421 123.714C368.257 123.714 369.391 122.256 369.391 120.492C369.391 118.998 368.797 117.99 367.591 117.99C366.763 117.99 366.187 118.494 366.187 119.376C366.187 119.952 366.457 120.438 366.961 120.726L366.061 121.5ZM372.001 114.444V115.596H359.023V114.444H372.001ZM3.052 143.892C4.384 144.018 5.536 144.828 6.13 146.646L9.154 144.666C8.56 143.388 7.462 142.542 5.932 142.542C4.42 142.542 3.412 143.406 3.052 143.892ZM10.99 153H9.658V147.132C9.658 146.682 9.622 146.25 9.532 145.854L3.898 149.526L3.232 148.518L5.104 147.294C4.762 146.196 4.114 145.044 2.548 144.954C2.422 144.936 2.278 144.918 2.134 144.918L1.378 143.874C2.098 142.722 3.592 141.336 5.878 141.336C8.11 141.336 9.334 142.632 9.874 143.658L9.928 143.64C9.838 143.37 9.658 141.822 9.658 140.418V139.662H10.99V141.444H13.132V142.596H10.99V153ZM14.5953 140.184V139.662H15.8913V141.444H18.0513V142.596H15.8913V153H14.5773V144.09C14.5773 143.064 14.0913 142.596 13.1373 142.596H12.4173V141.444H13.3533C14.2533 141.444 14.6133 141.876 14.7573 142.074H14.8473C14.7933 141.93 14.5953 141.21 14.5953 140.184ZM19.4812 153.144C19.4812 153.684 19.8592 154.044 20.3632 154.044C20.8852 154.044 21.2632 153.684 21.2632 153.144C21.2632 152.622 20.8852 152.262 20.3632 152.262C19.8592 152.262 19.4812 152.622 19.4812 153.144ZM24.4672 142.596H17.3392V141.444H27.9412V142.596H25.7992V151.848L26.5372 152.334L25.6192 153.252L18.6172 148.662V147.456C19.6612 146.412 22.3072 144.648 24.4672 143.946V142.596ZM24.4672 145.26C22.9912 145.8 20.7952 147.186 19.9312 148.05L24.5392 151.056H24.6112C24.5032 149.85 24.4672 148.608 24.4672 147.438V145.26ZM32.2581 152.172L31.5921 153.234C29.5941 152.46 28.5321 150.354 28.5321 147.726C28.5321 145.854 29.1261 143.928 29.9181 142.596H27.2181V141.444H32.8161V142.596H31.4121C30.4581 143.82 29.8461 145.836 29.8461 147.726C29.8461 149.85 30.6021 151.416 32.2581 152.172ZM39.2328 142.596H32.1048V141.444H42.7068V142.596H40.5648V151.848L41.3028 152.334L40.3848 153.252L33.3828 148.662V147.456C34.4268 146.412 37.0728 144.648 39.2328 143.946V142.596ZM39.2328 145.26C37.7568 145.8 35.5608 147.186 34.6968 148.05L39.3048 151.056H39.3768C39.2688 149.85 39.2328 148.608 39.2328 147.438V145.26ZM44.9897 149.022L43.8198 149.544C43.3878 149.13 43.1358 148.536 43.1358 147.798C43.1358 146.07 44.2698 144.936 46.1958 144.936C48.5178 144.936 49.9398 146.61 50.6598 148.14H50.7318C50.7138 147.996 50.5518 146.844 50.5518 144.558V142.596H41.9837V141.444H54.0258V142.596H51.8838V153H50.5518V152.622C50.5518 149.796 48.9678 146.178 46.2678 146.178C45.0438 146.178 44.4498 146.862 44.4498 147.798C44.4498 148.266 44.6658 148.698 44.9897 149.022ZM63.8356 153H62.4496V141.444H63.8356V153Z" fill="#F5F9FA"/>
</svg>
