<svg width="75" height="121" viewBox="0 0 75 121" fill="none" xmlns="http://www.w3.org/2000/svg">
<path d="M25.2675 107.804V109.082H23.4675V119H22.0815C21.7335 118.292 21.3015 117.674 20.7855 117.146C20.2695 116.606 19.7175 116.144 19.1295 115.76L19.5795 114.572C20.0355 114.836 20.5095 115.196 21.0015 115.652C21.4935 116.108 21.8715 116.57 22.1355 117.038C22.1235 116.858 22.1115 116.69 22.0995 116.534C22.0995 116.378 22.0935 116.216 22.0815 116.048C22.0815 115.88 22.0815 115.7 22.0815 115.508V109.082H8.92352V107.804H25.2675ZM15.8715 117.362C15.0555 117.362 14.2755 117.17 13.5315 116.786C12.7875 116.402 12.0855 115.754 11.4255 114.842C10.7775 113.918 10.1775 112.652 9.62552 111.044L10.9395 110.612C11.3715 111.86 11.8215 112.886 12.2895 113.69C12.7695 114.482 13.3035 115.064 13.8915 115.436C14.4795 115.808 15.1515 115.994 15.9075 115.994C16.5675 115.994 17.0955 115.892 17.4915 115.688C17.8995 115.472 18.1935 115.184 18.3735 114.824C18.5535 114.464 18.6435 114.056 18.6435 113.6C18.6435 112.904 18.4515 112.34 18.0675 111.908C17.6955 111.476 17.2275 111.26 16.6635 111.26C16.2675 111.26 15.9675 111.35 15.7635 111.53C15.5595 111.698 15.4575 111.956 15.4575 112.304C15.4575 112.388 15.4695 112.502 15.4935 112.646C15.5175 112.79 15.5535 112.922 15.6015 113.042L14.2335 113.312C14.1495 113.06 14.0835 112.832 14.0355 112.628C13.9995 112.412 13.9815 112.208 13.9815 112.016C13.9815 111.572 14.1015 111.2 14.3415 110.9C14.5935 110.6 14.9115 110.378 15.2955 110.234C15.6915 110.078 16.1055 110 16.5375 110C17.2455 110 17.8575 110.162 18.3735 110.486C18.8895 110.798 19.2915 111.23 19.5795 111.782C19.8675 112.334 20.0115 112.976 20.0115 113.708C20.0115 114.356 19.8615 114.962 19.5615 115.526C19.2615 116.078 18.8055 116.522 18.1935 116.858C17.5815 117.194 16.8075 117.362 15.8715 117.362ZM15.2955 110.63C15.2355 110.246 15.0555 109.91 14.7555 109.622C14.4675 109.322 14.0415 109.112 13.4775 108.992L13.9095 108.182L14.7195 108.398C15.4035 108.662 15.8955 108.962 16.1955 109.298C16.4955 109.634 16.6695 110.06 16.7175 110.576L15.2955 110.63ZM30.1275 107.804V109.082H28.2375V119H26.8515V110.378C26.6475 109.91 26.4135 109.58 26.1495 109.388C25.8975 109.184 25.5975 109.082 25.2495 109.082H25.0695V107.804H25.2495C25.5855 107.804 25.8975 107.9 26.1855 108.092C26.4855 108.272 26.7315 108.554 26.9235 108.938C26.9115 108.878 26.8935 108.74 26.8695 108.524C26.8575 108.308 26.8515 108.122 26.8515 107.966V106.616H27.8055L28.2195 107.804H30.1275ZM59.7076 110C60.6556 110 61.4176 110.162 61.9936 110.486C62.5816 110.798 63.0136 111.2 63.2896 111.692C63.5656 112.172 63.7036 112.658 63.7036 113.15C63.7036 114.134 63.3556 114.914 62.6596 115.49C61.9756 116.066 60.9556 116.39 59.5996 116.462L59.7796 116.264C60.3196 116.42 60.8896 116.642 61.4896 116.93C62.0896 117.218 62.6956 117.554 63.3076 117.938C63.9196 118.31 64.5076 118.724 65.0716 119.18L64.2436 120.134C63.4996 119.582 62.8156 119.108 62.1916 118.712C61.5796 118.304 60.9736 117.95 60.3736 117.65C59.7736 117.35 59.1376 117.086 58.4656 116.858C57.7936 116.63 57.0316 116.42 56.1796 116.228L56.4496 114.986C56.8696 115.106 57.2716 115.196 57.6556 115.256C58.0516 115.304 58.5256 115.328 59.0776 115.328C59.9296 115.328 60.5836 115.226 61.0396 115.022C61.5076 114.818 61.8316 114.554 62.0116 114.23C62.1916 113.906 62.2816 113.576 62.2816 113.24C62.2816 112.604 62.0476 112.118 61.5796 111.782C61.1116 111.434 60.5176 111.26 59.7976 111.26C59.3656 111.26 59.0176 111.302 58.7536 111.386C58.4896 111.47 58.2976 111.596 58.1776 111.764C58.0696 111.92 58.0156 112.112 58.0156 112.34C58.0156 112.436 58.0276 112.538 58.0516 112.646C58.0756 112.742 58.0996 112.832 58.1236 112.916L56.8096 113.186C56.7496 113.006 56.7016 112.82 56.6656 112.628C56.6296 112.424 56.6116 112.244 56.6116 112.088C56.6116 111.644 56.7436 111.266 57.0076 110.954C57.2716 110.642 57.6316 110.408 58.0876 110.252C58.5556 110.084 59.0956 110 59.7076 110ZM58.5016 110.63C58.4416 110.246 58.2616 109.91 57.9616 109.622C57.6616 109.322 57.2296 109.112 56.6656 108.992L57.0976 108.182L57.9256 108.398C58.5976 108.662 59.0836 108.962 59.3836 109.298C59.6956 109.634 59.8756 110.06 59.9236 110.576L58.5016 110.63ZM65.0716 107.804V109.082H55.1716V107.804H65.0716Z" fill="#F5F9FA"/>
<path d="M43.2892 107.804V109.082H41.3992V115.184H40.0132V112.43L40.1212 112.988C39.8572 112.604 39.5752 112.298 39.2752 112.07C38.9872 111.842 38.6692 111.728 38.3212 111.728C38.1412 111.728 37.9552 111.764 37.7632 111.836C37.5832 111.896 37.4272 112.016 37.2952 112.196C37.1752 112.376 37.1152 112.652 37.1152 113.024C37.1152 113.156 37.1152 113.276 37.1152 113.384C37.1272 113.48 37.1392 113.576 37.1512 113.672L35.9812 113.744C35.9092 113.024 35.6512 112.466 35.2072 112.07C34.7752 111.662 34.2832 111.458 33.7312 111.458C33.2512 111.458 32.8852 111.572 32.6332 111.8C32.3812 112.016 32.2552 112.304 32.2552 112.664C32.2552 113.132 32.4112 113.486 32.7232 113.726C33.0472 113.966 33.4732 114.188 34.0012 114.392L33.5152 115.724C32.9992 115.556 32.5312 115.34 32.1112 115.076C31.7032 114.8 31.3792 114.458 31.1392 114.05C30.8992 113.642 30.7792 113.144 30.7792 112.556C30.7792 112.1 30.8992 111.692 31.1392 111.332C31.3912 110.972 31.7272 110.69 32.1472 110.486C32.5792 110.27 33.0532 110.162 33.5692 110.162C34.2892 110.162 34.8772 110.282 35.3332 110.522C35.7892 110.75 36.2152 111.128 36.6112 111.656H36.3232C36.4432 111.26 36.6712 110.96 37.0072 110.756C37.3552 110.54 37.7152 110.432 38.0872 110.432C38.5192 110.432 38.8912 110.516 39.2032 110.684C39.5152 110.852 39.8572 111.092 40.2292 111.404L40.0672 111.674C40.0552 111.434 40.0432 111.188 40.0312 110.936C40.0192 110.672 40.0132 110.408 40.0132 110.144V109.082H29.7712V107.804H43.2892ZM35.0992 115.436C35.5912 115.436 36.0412 115.538 36.4492 115.742C36.8692 115.934 37.1932 116.216 37.4212 116.588C37.5532 116.312 37.7272 116.114 37.9432 115.994C38.1712 115.862 38.4352 115.796 38.7352 115.796C39.0952 115.796 39.4312 115.886 39.7432 116.066C40.0552 116.234 40.3792 116.468 40.7152 116.768L40.0312 116.498C40.0192 116.366 40.0132 116.228 40.0132 116.084C40.0132 115.928 40.0132 115.736 40.0132 115.508V114.716H41.3992V119.774H40.0132V116.588L40.6072 118.136C40.3072 117.8 40.0252 117.53 39.7612 117.326C39.5092 117.122 39.2392 117.02 38.9512 117.02C38.6992 117.02 38.4892 117.098 38.3212 117.254C38.1532 117.398 38.0692 117.644 38.0692 117.992C38.0692 118.076 38.0692 118.172 38.0692 118.28C38.0812 118.388 38.0932 118.484 38.1052 118.568L37.0072 118.622C36.9232 117.998 36.7192 117.518 36.3952 117.182C36.0832 116.834 35.6932 116.66 35.2252 116.66C34.8652 116.66 34.5952 116.75 34.4152 116.93C34.2352 117.11 34.1452 117.326 34.1452 117.578C34.1452 117.914 34.2592 118.19 34.4872 118.406C34.7272 118.61 35.1172 118.814 35.6572 119.018L35.1352 120.242C34.4152 119.978 33.8332 119.63 33.3892 119.198C32.9572 118.778 32.7412 118.22 32.7412 117.524C32.7412 116.924 32.9632 116.426 33.4072 116.03C33.8512 115.634 34.4152 115.436 35.0992 115.436ZM48.4697 112.689V114.377H43.8203V112.689H48.4697ZM54.5869 112.689V114.377H49.9375V112.689H54.5869Z" fill="#FFCA3A"/>
<path d="M68.546 39.8487C68.2858 40.6846 67.6802 41.2455 66.7294 41.5315C66.7294 42.0325 66.7658 42.6889 66.8388 43.5003C66.9093 44.3118 66.9981 45.2015 67.1051 46.1694C67.2121 47.1348 67.3313 48.1369 67.4626 49.1757C67.5915 50.2145 67.7155 51.2055 67.8346 52.149C67.9538 53.09 68.0547 53.9431 68.1374 54.7081C68.2201 55.4707 68.2614 56.067 68.2614 56.4972V57.6814C68.2614 58.7544 68.2444 59.8641 68.2103 61.0104C68.1739 62.1543 68.0961 63.3592 67.9769 64.6253C67.5489 67.0133 67.11 68.822 66.6601 70.0514C66.2078 71.2784 65.7445 71.8918 65.2703 71.8918C65.1998 71.8918 65.1524 71.8564 65.128 71.7856C65.2715 70.9032 65.3432 69.7936 65.3432 68.4566C65.3432 64.018 65.1353 59.6196 64.7195 55.2616C64.3037 50.9061 63.703 46.5201 62.9176 42.1034C62.8227 41.6513 62.7753 41.0549 62.7753 40.3143C62.7753 39.4784 62.8227 38.6254 62.9176 37.7552C63.0148 36.8851 63.134 36.0969 63.275 35.3905C63.4185 34.6866 63.585 34.1086 63.7747 33.6564C63.9644 33.2018 64.1541 32.9745 64.3438 32.9745C64.7475 32.9745 65.128 33.7504 65.4855 35.3025C66.4339 37.38 67.4541 38.8955 68.546 39.8487ZM47.8452 64.3027C48.39 64.0876 48.8885 63.8786 49.3408 63.6758C49.7907 63.4729 50.1762 63.2224 50.4972 62.9242C50.8182 62.626 51.0674 62.2508 51.2449 61.7987C51.4249 61.344 51.5149 60.7709 51.5149 60.0792C51.5149 59.6979 51.4966 59.2799 51.4601 58.8253C51.4236 58.3707 51.358 57.8696 51.2632 57.3221C50.7184 55.6503 50.2916 54.1996 49.9828 52.9702C49.6739 51.7408 49.5196 50.757 49.5196 50.0189C49.5196 49.684 49.6022 49.1232 49.7676 48.3361C49.933 47.5467 50.1944 46.5079 50.5518 45.2198L50.8364 45.0768L51.1209 45.1501C51.3349 45.3627 51.7738 46.6276 52.4377 48.9447C54.3856 55.6979 55.3595 60.5912 55.3595 63.6244C54.2676 68.3979 51.7629 71.023 47.8452 71.4996C47.0136 71.3554 46.4081 70.9496 46.0287 70.2824C45.6469 69.6151 45.456 68.8867 45.456 68.0973C45.456 67.2149 45.664 66.3973 46.0798 65.6445C46.4957 64.8941 47.0841 64.4469 47.8452 64.3027ZM47.579 64.3027C47.9608 64.3515 48.3061 64.4774 48.6149 64.6803C48.9237 64.8831 49.184 65.146 49.3956 65.4686C49.6096 65.7888 49.77 66.1469 49.877 66.5428C49.984 66.9363 50.0375 67.347 50.0375 67.7747C50.0375 68.2049 49.9731 68.6473 49.8442 69.1019C49.7129 69.554 49.505 69.9598 49.2205 70.3191C48.9335 70.6759 48.5651 70.9679 48.1152 71.1953C47.6629 71.4226 47.1169 71.5363 46.4773 71.5363C43.7464 71.5363 41.5202 70.7956 39.7984 69.3145C38.0767 67.8357 36.9776 65.6519 36.501 62.7629C36.1702 63.9092 35.7313 65.0078 35.1842 66.0588C34.637 67.1074 33.9427 68.0374 33.1013 68.8489C32.2575 69.6604 31.2483 70.3056 30.0738 70.7846C28.8968 71.2612 27.5009 71.4996 25.8862 71.4996C25.6478 71.4751 25.44 71.3505 25.2624 71.1257C25.0849 70.8984 24.9305 70.6111 24.7991 70.264C24.6702 69.9194 24.5693 69.5321 24.4963 69.1019C24.4258 68.6717 24.3906 68.2293 24.3906 67.7747C24.3906 66.9877 24.5036 66.2605 24.7298 65.5933C24.9559 64.9235 25.3414 64.4933 25.8862 64.3027C31.4671 63.6598 34.5312 61.1302 35.0783 56.7136C35.0783 54.9709 34.7574 51.0919 34.1154 45.0768C33.9962 43.884 33.9014 42.8037 33.8309 41.8358C33.7603 40.8704 33.725 40.0051 33.725 39.2401C33.725 37.9984 33.8199 37.0318 34.0095 36.3401C34.1992 35.6484 34.4606 35.3025 34.7938 35.3025C34.9105 35.3025 35.1002 35.3857 35.3628 35.5519C35.409 35.5519 35.5635 36.4354 35.8261 38.2025C36.0863 39.9697 36.4182 42.6314 36.8219 46.1877C37.1794 49.4336 37.4591 51.9155 37.6609 53.6338C37.8627 55.3521 38.0232 56.331 38.1424 56.5706C38.7357 59.2445 39.8095 61.201 41.3634 62.4402C42.9197 63.6818 44.9915 64.3027 47.579 64.3027ZM38.354 22.2213C38.354 22.1724 38.3479 22.1418 38.3357 22.1296C38.3236 22.1174 38.3175 22.1003 38.3175 22.0783V22.005C38.2956 22.005 38.2725 22.3447 38.2482 23.0241C38.2239 23.7061 38.1886 24.8109 38.1424 26.3385C38.0694 28.6287 37.059 29.7738 35.1111 29.7738C33.7834 29.7738 32.7742 29.0699 32.0836 27.662L31.5875 28.4503C30.9455 29.4768 30.0421 29.9901 28.8773 29.9901C28.4031 29.9901 28.0176 29.841 27.7209 29.5428C27.4242 29.2446 27.1871 28.8622 27.0096 28.3953C26.8321 27.9309 26.7068 27.4176 26.6339 26.8554C26.5634 26.2957 26.5281 25.7654 26.5281 25.2643C26.5281 24.6679 26.5634 24.0887 26.6339 23.5265C26.7068 22.9668 26.8017 22.4596 26.9184 22.005C27.0376 21.5528 27.1689 21.1715 27.3124 20.8611C27.4534 20.5507 27.5835 20.3478 27.7027 20.2525H28.0602C28.1551 20.3698 28.2025 20.6313 28.2025 21.0371C28.2025 21.2057 28.1842 21.4514 28.1477 21.7741C28.1137 22.0942 28.0784 22.4278 28.042 22.7749C28.0055 23.1219 27.9762 23.4507 27.9544 23.7611C27.93 24.0716 27.918 24.3099 27.918 24.4761C27.918 25.9084 28.4043 26.6245 29.377 26.6245C30.2087 26.6245 30.8324 26.4754 31.2483 26.1772C31.6641 25.879 31.872 25.4904 31.872 25.0113C31.872 24.9405 31.8538 24.8097 31.8173 24.6191C31.7809 24.4284 31.7395 24.2072 31.6933 23.9555C31.6447 23.7062 31.6033 23.4556 31.5692 23.2038C31.5327 22.9545 31.5145 22.7346 31.5145 22.5439C31.5145 22.1382 31.5559 21.7496 31.6386 21.3781C31.7212 21.009 31.8161 20.6815 31.9231 20.3955C32.0301 20.1071 32.131 19.8736 32.2259 19.6952C32.3207 19.5168 32.3924 19.4276 32.4411 19.4276C32.5116 19.4276 32.5881 19.4936 32.6708 19.6256C32.7559 19.7552 32.8216 19.9873 32.8679 20.3221C32.9165 20.657 32.9578 21.1044 32.9919 21.6641C33.0283 22.2262 33.0465 22.9484 33.0465 23.8307C33.0465 24.5004 33.2836 25.0968 33.7578 25.6199C34.2345 26.1454 35.0066 26.4081 36.0742 26.4081C36.6675 26.4081 37.0116 26.253 37.1064 25.9426C37.0602 25.7519 37.0372 25.6089 37.0372 25.5136V25.3339C37.0372 24.9282 36.9715 24.5286 36.8402 24.1351C36.7088 23.7415 36.5727 23.3896 36.4316 23.0792C36.2638 22.7223 36.0741 22.3887 35.8625 22.0783C35.8625 21.9829 35.8979 21.8155 35.9684 21.576C36.0146 21.3854 36.0851 21.1104 36.1799 20.7511C36.2748 20.3942 36.3939 19.9054 36.5374 19.2846C36.5617 19.1184 36.704 18.9033 36.9642 18.6394H37.1795C37.2743 18.9033 37.3812 19.2137 37.5004 19.5706C37.6195 19.881 37.7436 20.2635 37.8725 20.7181C38.0038 21.1702 38.1643 21.6713 38.354 22.2213ZM33.5244 7.6626C33.5487 7.92412 33.5609 8.18073 33.5609 8.43248C33.5609 8.68179 33.5609 8.92614 33.5609 9.16567C33.5609 9.69116 33.5426 10.1568 33.5062 10.5626C33.4697 10.9683 33.398 11.3802 33.291 11.7981C33.184 12.2161 33.0356 12.6695 32.8459 13.1583C32.6562 13.6471 32.407 14.2496 32.0982 14.9657C31.6702 15.9923 31.2665 16.5056 30.8872 16.5056C30.7923 16.5056 30.7278 16.4518 30.6938 16.3442C30.6573 16.2367 30.6391 16.0155 30.6391 15.6807C30.6391 15.5389 30.6391 15.3959 30.6391 15.2517C30.6391 15.1099 30.6512 14.9315 30.6755 14.7164C30.6974 14.5013 30.7267 14.2386 30.7631 13.9282C30.7996 13.6178 30.841 13.212 30.8872 12.711V12.139C30.8872 10.301 30.4361 8.10492 29.5339 5.55076C30.3898 2.59086 30.9953 0.740586 31.3504 0C31.754 0.0244418 32.1225 0.835914 32.4556 2.43441C33.0247 3.60517 33.3809 5.34796 33.5244 7.6626ZM27.5823 71.4996C23.7352 71.4996 21.1818 69.6493 19.9221 65.9488C19.9221 65.9977 19.9051 65.801 19.8711 65.3586C19.8346 64.9187 19.7812 64.4298 19.7106 63.892C19.6377 63.3543 19.5538 62.8532 19.459 62.3889C19.3641 61.922 19.2583 61.6887 19.1416 61.6887C18.9276 61.6887 18.6066 61.9281 18.1786 62.4072C16.5395 64.1255 14.081 64.9846 10.8029 64.9846C7.31329 64.9846 5.56848 64.1487 5.56848 62.4769C5.56848 62.1909 5.84084 61.3672 6.38556 60.0058C7.85923 56.4031 11.0425 53.7304 15.9353 51.9877C16.5529 51.8435 17.573 51.4855 18.9956 50.9135C19.1878 50.0776 19.4553 49.1769 19.7981 48.2115C20.1435 47.2436 20.5775 46.1864 21.1003 45.0401L21.4542 44.9705C21.622 44.9949 21.7059 45.2577 21.7059 45.7587V57.5714C21.7059 58.3364 21.8482 59.1186 22.1327 59.9179C22.4172 60.7171 22.7965 61.4504 23.2707 62.1176C23.7474 62.7873 24.3055 63.3311 24.9451 63.749C25.5871 64.167 26.2522 64.3761 26.9403 64.3761C27.0595 64.3761 27.1664 64.3699 27.2613 64.3577C27.3561 64.3455 27.4632 64.3271 27.5823 64.3027C27.9155 64.7084 28.1465 65.234 28.2754 65.8792C28.4067 66.5245 28.4723 67.1807 28.4723 67.848C28.4723 68.6839 28.3897 69.4538 28.2243 70.1577C28.0565 70.8617 27.8425 71.3089 27.5823 71.4996ZM9.59188 58.29V58.719C9.94935 59.1492 10.8528 59.3642 12.3022 59.3642C13.1095 59.3642 13.8804 59.2922 14.6148 59.148C15.3516 59.0038 16.0045 58.807 16.5736 58.5577C17.145 58.3059 17.6083 58.0016 17.9634 57.6448C18.3209 57.2855 18.5226 56.8798 18.5688 56.4276C18.5932 56.2369 18.6115 56.0634 18.6236 55.907C18.6358 55.753 18.6419 55.6039 18.6419 55.4597C18.6419 54.6971 18.4996 54.1007 18.2151 53.6705L17.7154 53.5275C13.6056 54.8865 10.8978 56.474 9.59188 58.29ZM20.2067 71.4996C20.09 71.7391 19.8468 72.2768 19.4772 73.1127C19.11 73.9462 18.6175 75.0912 17.9998 76.548C14.6512 78.7673 9.98465 81.4169 4 84.4965C4.11916 84.1152 4.35628 83.5066 4.71133 82.6707C5.0688 81.8348 5.52104 80.7483 6.06819 79.4113C8.22763 78.1941 10.4832 76.9354 12.8347 75.6351C15.1862 74.3348 17.6436 72.9563 20.2067 71.4996Z" fill="#F5F9FA"/>
<path d="M47.579 64.2067C47.9608 64.2556 48.3061 64.3815 48.6149 64.5843C48.9238 64.7872 49.184 65.0501 49.3956 65.3727C49.6096 65.6929 49.7701 66.0509 49.8771 66.4469C49.9841 66.8404 50.0376 67.251 50.0376 67.6788C50.0376 68.1089 49.9731 68.5513 49.8442 69.0059C49.7129 69.4581 49.505 69.8639 49.2205 70.2231C48.9335 70.58 48.5651 70.872 48.1152 71.0993C47.6629 71.3266 47.1169 71.4403 46.4774 71.4403C43.7465 71.4403 41.5202 70.6997 39.7985 69.2185C38.0768 67.7398 36.9776 65.556 36.501 62.667C36.1703 63.8133 35.7314 64.9119 35.1842 65.9629C34.637 67.0114 33.9427 67.9415 33.1013 68.753C32.2575 69.5644 31.2483 70.2096 30.0738 70.6887C28.8968 71.1653 27.5009 71.4037 25.8862 71.4037C25.6479 71.3792 25.44 71.2546 25.2625 71.0297C25.085 70.8024 24.9305 70.5152 24.7992 70.1681C24.6703 69.8235 24.5693 69.4361 24.4964 69.0059C24.4259 68.5758 24.3906 68.1334 24.3906 67.6788C24.3906 66.8917 24.5037 66.1646 24.7298 65.4973C24.956 64.8276 25.3415 64.3974 25.8862 64.2067C31.4672 63.5639 34.5312 61.0343 35.0783 56.6176C35.0783 54.8749 34.7574 50.996 34.1154 44.9809C33.9963 43.7881 33.9014 42.7078 33.8309 41.7399C33.7604 40.7744 33.725 39.9092 33.725 39.1441C33.725 37.9025 33.8199 36.9359 34.0096 36.2442C34.1992 35.5525 34.4607 35.2065 34.7938 35.2065C34.9105 35.2065 35.1002 35.2897 35.3629 35.4559C35.4091 35.4559 35.5635 36.3395 35.8262 38.1066C36.0864 39.8738 36.4182 42.5355 36.8219 46.0918C37.1794 49.3376 37.4591 51.8196 37.6609 53.5379C37.8628 55.2561 38.0232 56.2351 38.1424 56.4746C38.7357 59.1486 39.8095 61.1051 41.3634 62.3443C42.9197 63.5859 44.9916 64.2067 47.579 64.2067Z" fill="#FFCA3A"/>
<path d="M73.4606 18.0429C73.8302 17.2069 74.0734 16.6692 74.1901 16.4297C71.627 17.8864 69.1696 19.2649 66.8181 20.5652C64.4666 21.8655 62.211 23.1243 60.0516 24.3415C59.5044 25.6784 59.0522 26.7649 58.6947 27.6008C58.3397 28.4367 58.1026 29.0454 57.9834 29.4267C63.968 26.347 68.6346 23.6974 71.9832 21.4781C72.6009 20.0214 73.0934 18.8763 73.4606 18.0429Z" fill="#8AC926"/>
</svg>
