<svg width="342" height="257" viewBox="0 0 342 257" fill="none" xmlns="http://www.w3.org/2000/svg">
<path d="M245.602 85.1953C245.81 85.2214 246.018 85.2344 246.227 85.2344C246.461 85.2344 246.682 85.2344 246.891 85.2344C250.927 85.2344 254.99 84.2318 259.078 82.2266C259.104 82.1745 259.117 82.0703 259.117 81.9141C259.117 81.6797 259.026 81.25 258.844 80.625C258.661 80 258.466 79.3359 258.258 78.6328C258.049 77.9036 257.854 77.1875 257.672 76.4844C257.49 75.7812 257.398 75.2344 257.398 74.8438C257.398 74.349 257.516 73.6198 257.75 72.6562C257.984 71.6927 258.44 70.3516 259.117 68.6328L259.43 68.6719C259.508 68.9323 259.612 69.2448 259.742 69.6094C259.846 69.9219 259.977 70.3255 260.133 70.8203C260.315 71.2891 260.51 71.8359 260.719 72.4609C261.24 73.9974 261.5 75.6901 261.5 77.5391C261.5 78.6328 261.396 79.7917 261.188 81.0156C261.005 82.2135 260.693 83.4766 260.25 84.8047C258.453 90.2995 253.909 93.0469 246.617 93.0469C246.331 93.0469 246.057 93.0469 245.797 93.0469C245.536 93.0469 245.263 93.0339 244.977 93.0078C244.43 92.5651 244.026 91.9531 243.766 91.1719C243.479 90.3646 243.336 89.5443 243.336 88.7109C243.336 87.9297 243.466 87.2135 243.727 86.5625C243.987 85.8854 244.404 85.4167 244.977 85.1562L245.602 85.1953ZM246.695 102.031L252.438 96.2891L258.219 102.031L252.438 107.812L246.695 102.031Z" fill="#F5F9FA"/>
<path d="M263.883 110.047C263.753 110.307 263.479 110.893 263.062 111.805C262.672 112.716 262.138 113.966 261.461 115.555C257.789 117.977 252.672 120.867 246.109 124.227C246.24 123.81 246.5 123.146 246.891 122.234C247.281 121.323 247.776 120.138 248.375 118.68C250.745 117.352 253.219 115.971 255.797 114.539C258.375 113.133 261.07 111.635 263.883 110.047Z" fill="#F5F9FA"/>
<path d="M236.383 89.2969C234.872 91.901 233.167 93.2031 231.266 93.2031C230.51 93.2031 229.781 93.0208 229.078 92.6562C228.401 92.2917 227.698 91.5885 226.969 90.5469C226.474 89.8177 226.188 89.4531 226.109 89.4531C224.365 91.901 222.581 93.125 220.758 93.125C217.607 93.125 215.562 90.5859 214.625 85.5078C214.234 86.1589 213.674 86.901 212.945 87.7344C212.216 88.5677 211.409 89.362 210.523 90.1172C209.664 90.8724 208.766 91.5234 207.828 92.0703C206.891 92.6172 205.992 92.9297 205.133 93.0078C204.951 92.4089 204.768 91.7969 204.586 91.1719C204.404 90.5469 204.312 89.8307 204.312 89.0234C204.312 88.5026 204.378 87.9297 204.508 87.3047C204.612 86.6536 204.82 85.9375 205.133 85.1562C205.966 85.0521 206.695 84.9349 207.32 84.8047C207.945 84.6484 208.609 84.362 209.312 83.9453C210.042 83.5026 210.914 82.8646 211.93 82.0312C212.945 81.1719 214.26 79.987 215.875 78.4766C216.266 78.6068 216.461 78.8542 216.461 79.2188C216.461 79.3229 216.422 79.4922 216.344 79.7266C216.292 79.9609 216.227 80.2214 216.148 80.5078C216.096 80.7682 216.031 81.0156 215.953 81.25C215.901 81.4844 215.875 81.6536 215.875 81.7578C215.875 82.1224 216.005 82.526 216.266 82.9688C216.526 83.4115 216.891 83.8281 217.359 84.2188C217.854 84.5833 218.44 84.8958 219.117 85.1562C219.794 85.3906 220.562 85.5078 221.422 85.5078C222.125 85.5078 222.724 85.4036 223.219 85.1953C223.74 84.9609 224.221 84.6224 224.664 84.1797C225.107 83.7109 225.549 83.125 225.992 82.4219C226.461 81.6927 226.982 80.8333 227.555 79.8438H227.711C228.049 79.8438 228.219 79.974 228.219 80.2344C228.219 80.3906 228.076 80.8203 227.789 81.5234C227.867 82.7734 228.336 83.763 229.195 84.4922C230.055 85.2214 231.109 85.5859 232.359 85.5859C234.052 85.5859 235.393 84.6094 236.383 82.6562L237.906 79.6094C237.932 79.6354 238.167 80.5078 238.609 82.2266C238.922 82.6953 239.234 83.099 239.547 83.4375C239.885 83.75 240.289 84.0234 240.758 84.2578C241.227 84.4661 241.786 84.6484 242.438 84.8047C243.115 84.9349 243.948 85.0521 244.938 85.1562C245.094 85.651 245.263 86.1849 245.445 86.7578C245.654 87.3307 245.758 88.0339 245.758 88.8672C245.758 89.388 245.693 89.987 245.562 90.6641C245.458 91.3411 245.25 92.1224 244.938 93.0078C243.036 92.8255 241.357 92.3958 239.898 91.7188C238.466 91.0156 237.294 90.2083 236.383 89.2969Z" fill="#F5F9FA"/>
<path d="M229.742 58.9453C229.742 59.7266 229.612 60.5078 229.352 61.2891C229.091 62.0703 228.727 62.7995 228.258 63.4766C227.815 64.1276 227.268 64.7266 226.617 65.2734C225.992 65.7943 225.302 66.2109 224.547 66.5234C224.417 66.5755 224 66.6536 223.297 66.7578C222.62 66.862 221.865 66.9792 221.031 67.1094C220.198 67.2135 219.404 67.3047 218.648 67.3828C217.919 67.4609 217.438 67.5 217.203 67.5C216.5 67.5 216.148 67.3047 216.148 66.9141C216.148 66.4453 217.854 65.599 221.266 64.375C222.958 63.776 224.156 63.2943 224.859 62.9297C225.562 62.5391 225.914 62.2005 225.914 61.9141C225.914 60.8203 223.596 60.2214 218.961 60.1172L218.648 59.8047C218.961 59.2839 219.352 58.6328 219.82 57.8516C220.289 57.0443 220.849 56.0938 221.5 55C221.917 54.8438 222.451 54.7656 223.102 54.7656C223.935 54.7656 224.742 54.8698 225.523 55.0781C226.331 55.2865 227.034 55.5859 227.633 55.9766C228.258 56.3411 228.753 56.7839 229.117 57.3047C229.508 57.7995 229.716 58.3464 229.742 58.9453Z" fill="#F5F9FA"/>
<path d="M198.453 91.25C198.323 91.1979 198.206 91.1589 198.102 91.1328C197.997 91.1068 197.919 91.0938 197.867 91.0938C197.737 91.0938 197.659 91.1719 197.633 91.3281C197.633 91.4844 197.568 91.888 197.438 92.5391L197.281 93.3203C197.177 93.8411 196.982 94.2708 196.695 94.6094C196.435 94.9479 196.07 95.1172 195.602 95.1172C193.206 95.1172 191.682 93.9062 191.031 91.4844C190.927 90.7292 190.823 89.9609 190.719 89.1797C190.641 88.3984 190.562 87.6172 190.484 86.8359C190.25 86.5234 189.547 86.3672 188.375 86.3672C186.161 86.3672 184.247 87.487 182.633 89.7266C182.424 90.0651 182.32 90.9505 182.32 92.3828C182.32 95.1432 182.438 97.9818 182.672 100.898C182.906 103.841 183.271 106.888 183.766 110.039C183.818 110.404 183.857 110.768 183.883 111.133C183.909 111.523 183.922 111.914 183.922 112.305C183.922 112.513 183.896 112.982 183.844 113.711C183.792 114.466 183.714 115.247 183.609 116.055C183.505 116.888 183.388 117.617 183.258 118.242C183.128 118.893 182.971 119.219 182.789 119.219C182.607 119.219 182.372 118.021 182.086 115.625L180.797 105C180.51 102.552 180.289 100.339 180.133 98.3594C179.977 96.4062 179.898 94.6745 179.898 93.1641C179.898 91.0547 180.016 89.2318 180.25 87.6953C180.51 86.1328 180.901 84.7917 181.422 83.6719C181.969 82.5521 182.659 81.6406 183.492 80.9375C184.352 80.2083 185.393 79.6484 186.617 79.2578C187.138 79.1016 187.646 78.9844 188.141 78.9062C188.635 78.8021 189.143 78.75 189.664 78.75C190.471 78.75 191.383 78.8932 192.398 79.1797C193.18 78.6068 194.078 78.151 195.094 77.8125C195.094 78.6198 195.445 79.7656 196.148 81.25C198.154 83.3333 201.161 84.6354 205.172 85.1562C205.354 85.1562 205.523 85.2734 205.68 85.5078C205.836 85.7422 205.979 86.0547 206.109 86.4453C206.24 86.8099 206.344 87.2396 206.422 87.7344C206.5 88.2292 206.539 88.724 206.539 89.2188C206.539 89.5312 206.513 89.9089 206.461 90.3516C206.409 90.7682 206.318 91.1849 206.188 91.6016C206.057 91.9922 205.888 92.3307 205.68 92.6172C205.471 92.8776 205.211 93.0078 204.898 93.0078C202.32 93.0078 200.172 92.4219 198.453 91.25Z" fill="#F5F9FA"/>
<path d="M204.273 113.047C204.143 113.307 203.87 113.893 203.453 114.805C203.062 115.716 202.529 116.966 201.852 118.555C198.18 120.977 193.062 123.867 186.5 127.227C186.63 126.81 186.891 126.146 187.281 125.234C187.672 124.323 188.167 123.138 188.766 121.68C191.135 120.352 193.609 118.971 196.188 117.539C198.766 116.133 201.461 114.635 204.273 113.047Z" fill="#8AC926"/>
<path d="M149.43 58.4766C149.143 59.388 148.479 60 147.438 60.3125C147.438 60.8594 147.477 61.5755 147.555 62.4609C147.633 63.3464 147.724 64.3229 147.828 65.3906C147.958 66.4323 148.089 67.526 148.219 68.6719C148.375 69.7917 148.518 70.8724 148.648 71.9141C148.779 72.9297 148.883 73.8542 148.961 74.6875C149.065 75.5208 149.117 76.1719 149.117 76.6406V77.9297C149.117 79.1016 149.091 80.3125 149.039 81.5625C149.013 82.8125 148.935 84.1276 148.805 85.5078C148.336 88.112 147.854 90.0911 147.359 91.4453C146.865 92.7734 146.357 93.4375 145.836 93.4375C145.758 93.4375 145.706 93.3984 145.68 93.3203C145.836 92.3568 145.914 91.1458 145.914 89.6875C145.914 84.8438 145.68 80.0521 145.211 75.3125C144.768 70.5469 144.117 65.7552 143.258 60.9375C143.154 60.4427 143.102 59.7917 143.102 58.9844C143.102 58.0729 143.154 57.1484 143.258 56.2109C143.362 55.2474 143.492 54.388 143.648 53.6328C143.805 52.8516 143.987 52.2135 144.195 51.7188C144.404 51.224 144.612 50.9766 144.82 50.9766C145.263 50.9766 145.68 51.8229 146.07 53.5156C147.112 55.7812 148.232 57.4349 149.43 58.4766Z" fill="#F5F9FA"/>
<path d="M127.633 85.1562C128.232 84.9219 128.779 84.7005 129.273 84.4922C129.768 84.2578 130.185 83.9844 130.523 83.6719C130.888 83.3333 131.161 82.9167 131.344 82.4219C131.552 81.9271 131.656 81.3021 131.656 80.5469C131.656 80.1302 131.63 79.6745 131.578 79.1797C131.552 78.6849 131.487 78.138 131.383 77.5391C130.784 75.7161 130.315 74.1406 129.977 72.8125C129.638 71.4583 129.469 70.3776 129.469 69.5703C129.469 69.2057 129.56 68.5938 129.742 67.7344C129.924 66.875 130.211 65.7422 130.602 64.3359L130.914 64.1797L131.227 64.2578C131.461 64.4922 131.943 65.8724 132.672 68.3984C134.807 75.7682 135.875 81.1068 135.875 84.4141C134.677 89.6224 131.93 92.487 127.633 93.0078C126.721 92.8516 126.057 92.4089 125.641 91.6797C125.224 90.9505 125.016 90.1562 125.016 89.2969C125.016 88.3333 125.25 87.4479 125.719 86.6406C126.161 85.8073 126.799 85.3125 127.633 85.1562Z" fill="#F5F9FA"/>
<path d="M127.516 85.1562C127.932 85.2083 128.31 85.3516 128.648 85.5859C128.987 85.7943 129.273 86.0807 129.508 86.4453C129.742 86.7839 129.911 87.1745 130.016 87.6172C130.146 88.0339 130.211 88.4766 130.211 88.9453C130.211 89.4141 130.133 89.8958 129.977 90.3906C129.846 90.8854 129.625 91.3281 129.312 91.7188C129 92.1094 128.596 92.4349 128.102 92.6953C127.607 92.9297 127.008 93.0469 126.305 93.0469C123.31 93.0469 120.862 92.2396 118.961 90.625C117.086 89.0104 115.888 86.6276 115.367 83.4766C115.003 84.7266 114.521 85.9245 113.922 87.0703C113.323 88.2161 112.555 89.2318 111.617 90.1172C110.706 91.0026 109.599 91.7057 108.297 92.2266C107.021 92.7474 105.497 93.0078 103.727 93.0078C103.466 92.9818 103.245 92.8516 103.062 92.6172C102.854 92.3568 102.685 92.0443 102.555 91.6797C102.398 91.2891 102.281 90.8594 102.203 90.3906C102.125 89.9219 102.086 89.4401 102.086 88.9453C102.086 88.0859 102.216 87.2917 102.477 86.5625C102.711 85.8333 103.128 85.3646 103.727 85.1562C109.846 84.4531 113.206 81.6927 113.805 76.875C113.805 74.974 113.453 70.7422 112.75 64.1797C112.62 62.8776 112.516 61.7057 112.438 60.6641C112.359 59.5964 112.32 58.6458 112.32 57.8125C112.32 56.4583 112.424 55.4036 112.633 54.6484C112.841 53.8932 113.128 53.5156 113.492 53.5156C113.622 53.5156 113.831 53.6068 114.117 53.7891C114.169 53.7891 114.339 54.7526 114.625 56.6797C114.911 58.6068 115.276 61.5104 115.719 65.3906C116.109 68.9323 116.409 71.6406 116.617 73.5156C116.852 75.3906 117.034 76.4583 117.164 76.7188C117.815 79.6354 118.987 81.7708 120.68 83.125C122.398 84.4792 124.677 85.1562 127.516 85.1562Z" fill="#FFCA3A"/>
<path d="M119.352 41.2422C119.352 41.1901 119.339 41.1641 119.312 41.1641C119.312 41.138 119.312 41.112 119.312 41.0859V41.0078C119.286 41.0078 119.26 41.3854 119.234 42.1406C119.208 42.8698 119.169 44.0677 119.117 45.7344C119.039 48.2344 117.932 49.4844 115.797 49.4844C114.339 49.4844 113.232 48.7161 112.477 47.1797L111.93 48.0391C111.227 49.1589 110.237 49.7188 108.961 49.7188C108.44 49.7188 108.01 49.5625 107.672 49.25C107.359 48.9115 107.099 48.4948 106.891 48C106.708 47.4792 106.578 46.9193 106.5 46.3203C106.422 45.6953 106.383 45.1094 106.383 44.5625C106.383 43.9115 106.422 43.2865 106.5 42.6875C106.578 42.0625 106.682 41.5026 106.812 41.0078C106.943 40.513 107.086 40.0964 107.242 39.7578C107.398 39.4193 107.542 39.1979 107.672 39.0938H108.062C108.167 39.224 108.219 39.5104 108.219 39.9531C108.219 40.1354 108.193 40.4089 108.141 40.7734C108.115 41.112 108.076 41.4766 108.023 41.8672C107.997 42.2318 107.971 42.5833 107.945 42.9219C107.919 43.2604 107.906 43.5208 107.906 43.7031C107.906 45.2656 108.44 46.0469 109.508 46.0469C110.419 46.0469 111.096 45.8906 111.539 45.5781C112.008 45.2396 112.242 44.8099 112.242 44.2891C112.242 44.2109 112.216 44.0677 112.164 43.8594C112.138 43.651 112.099 43.4167 112.047 43.1562C111.995 42.8698 111.943 42.5964 111.891 42.3359C111.865 42.0495 111.852 41.8021 111.852 41.5938C111.852 41.151 111.891 40.7344 111.969 40.3438C112.073 39.9271 112.177 39.5625 112.281 39.25C112.411 38.9375 112.529 38.6901 112.633 38.5078C112.737 38.2995 112.815 38.1953 112.867 38.1953C112.945 38.1953 113.023 38.2734 113.102 38.4297C113.206 38.5599 113.284 38.8073 113.336 39.1719C113.388 39.5365 113.427 40.0312 113.453 40.6562C113.505 41.2552 113.531 42.0365 113.531 43C113.531 43.7292 113.792 44.3802 114.312 44.9531C114.833 45.526 115.68 45.8125 116.852 45.8125C117.503 45.8125 117.88 45.6432 117.984 45.3047C117.932 45.0964 117.906 44.9401 117.906 44.8359V44.6406C117.906 44.1979 117.828 43.7682 117.672 43.3516C117.542 42.9089 117.398 42.5182 117.242 42.1797C117.06 41.7891 116.852 41.4245 116.617 41.0859C116.617 40.9818 116.656 40.7995 116.734 40.5391C116.786 40.3307 116.865 40.0312 116.969 39.6406C117.073 39.25 117.203 38.7161 117.359 38.0391C117.385 37.8568 117.542 37.6224 117.828 37.3359H118.062C118.167 37.6224 118.284 37.9609 118.414 38.3516C118.544 38.6901 118.674 39.1068 118.805 39.6016C118.961 40.0964 119.143 40.6432 119.352 41.2422Z" fill="#F5F9FA"/>
<path d="M121.344 20.7109C121.214 20.9714 120.94 21.5573 120.523 22.4688C120.133 23.3802 119.599 24.6302 118.922 26.2188C115.25 28.6406 110.133 31.5312 103.57 34.8906C103.701 34.474 103.961 33.8099 104.352 32.8984C104.742 31.987 105.237 30.8021 105.836 29.3438C108.206 28.0156 110.68 26.6484 113.258 25.2422C115.836 23.8099 118.531 22.2995 121.344 20.7109Z" fill="#F5F9FA"/>
<path d="M112.008 8.35938C112.034 8.64583 112.047 8.93229 112.047 9.21875C112.047 9.47917 112.047 9.73958 112.047 10C112.047 10.5729 112.021 11.0807 111.969 11.5234C111.943 11.9661 111.865 12.4219 111.734 12.8906C111.63 13.3333 111.474 13.8281 111.266 14.375C111.057 14.8958 110.784 15.5469 110.445 16.3281C109.977 17.4479 109.534 18.0078 109.117 18.0078C109.013 18.0078 108.935 17.9557 108.883 17.8516C108.857 17.7214 108.844 17.474 108.844 17.1094C108.844 16.9531 108.844 16.7969 108.844 16.6406C108.844 16.4844 108.857 16.2891 108.883 16.0547C108.909 15.8203 108.935 15.5339 108.961 15.1953C109.013 14.8568 109.065 14.4141 109.117 13.8672V13.2422C109.117 11.237 108.622 8.84115 107.633 6.05469C108.57 2.82552 109.234 0.807292 109.625 0C110.068 0.0260417 110.471 0.911458 110.836 2.65625C111.461 3.93229 111.852 5.83333 112.008 8.35938Z" fill="#F5F9FA"/>
<path d="M103.727 93.0078C99.5078 93.0078 96.7083 90.9896 95.3281 86.9531C95.3281 87.0052 95.3021 86.7969 95.25 86.3281C95.224 85.8333 95.1719 85.2995 95.0938 84.7266C95.0156 84.1276 94.9245 83.5807 94.8203 83.0859C94.7161 82.5651 94.599 82.3047 94.4688 82.3047C94.2344 82.3047 93.8828 82.5651 93.4141 83.0859C91.6172 84.9609 88.9219 85.8984 85.3281 85.8984C81.5 85.8984 79.5859 84.987 79.5859 83.1641C79.5859 82.8516 79.8854 81.9531 80.4844 80.4688C82.099 76.5365 85.5885 73.6198 90.9531 71.7188C91.6302 71.5625 92.75 71.1719 94.3125 70.5469C94.5208 69.6354 94.8073 68.6589 95.1719 67.6172C95.5625 66.5495 96.0443 65.3906 96.6172 64.1406L97.0078 64.0625C97.1901 64.0885 97.2812 64.375 97.2812 64.9219V77.8125C97.2812 78.6458 97.4375 79.5052 97.75 80.3906C98.0625 81.25 98.4792 82.0443 99 82.7734C99.5208 83.5026 100.133 84.1016 100.836 84.5703C101.539 85.013 102.268 85.2344 103.023 85.2344C103.154 85.2344 103.271 85.2344 103.375 85.2344C103.479 85.2083 103.596 85.1823 103.727 85.1562C104.091 85.599 104.339 86.1719 104.469 86.875C104.625 87.5781 104.703 88.2943 104.703 89.0234C104.703 89.9349 104.612 90.7812 104.43 91.5625C104.247 92.3177 104.013 92.7995 103.727 93.0078ZM84 78.5938V79.0625C84.3906 79.5312 85.3802 79.7656 86.9688 79.7656C87.8542 79.7656 88.7005 79.6875 89.5078 79.5312C90.3151 79.375 91.0312 79.1667 91.6562 78.9062C92.2812 78.6198 92.7891 78.2812 93.1797 77.8906C93.5703 77.5 93.7917 77.0573 93.8438 76.5625C93.8698 76.3542 93.8828 76.1719 93.8828 76.0156C93.9089 75.8333 93.9219 75.6641 93.9219 75.5078C93.9219 74.6745 93.7656 74.0234 93.4531 73.5547L92.9062 73.3984C88.401 74.8828 85.4323 76.6146 84 78.5938Z" fill="#F5F9FA"/>
<path d="M96.7734 95.0469C96.6432 95.3073 96.3698 95.8932 95.9531 96.8047C95.5625 97.7161 95.0286 98.9661 94.3516 100.555C90.6797 102.977 85.5625 105.867 79 109.227C79.1302 108.81 79.3906 108.146 79.7812 107.234C80.1719 106.323 80.6667 105.138 81.2656 103.68C83.6354 102.352 86.1094 100.971 88.6875 99.5391C91.2656 98.1328 93.9609 96.6354 96.7734 95.0469Z" fill="#F5F9FA"/>
<path d="M113.273 105.073C108.735 119.222 105.884 154.526 130.788 182.55" stroke="#FBCE61" stroke-width="1.5"/>
<path d="M132.184 184.72L118.999 179.062" stroke="#FBCE61" stroke-width="1.5"/>
<path d="M132.184 184.72L130.326 172.696" stroke="#FBCE61" stroke-width="1.5"/>
<path d="M152.455 150.804V152.082H150.565V162H149.179V152.082H147.307V150.804H148.963C148.771 150.576 148.573 150.336 148.369 150.084C148.177 149.832 148.003 149.58 147.847 149.328C148.255 148.62 148.693 147.978 149.161 147.402C149.629 146.814 150.181 146.352 150.817 146.016C151.453 145.668 152.221 145.494 153.121 145.494C153.757 145.494 154.363 145.572 154.939 145.728C155.527 145.884 156.103 146.112 156.667 146.412C157.231 146.7 157.801 147.054 158.377 147.474C158.953 147.882 159.553 148.338 160.177 148.842L159.421 149.814C158.593 149.142 157.843 148.584 157.171 148.14C156.511 147.696 155.875 147.366 155.263 147.15C154.663 146.922 154.021 146.808 153.337 146.808C152.677 146.808 152.101 146.922 151.609 147.15C151.129 147.378 150.709 147.696 150.349 148.104C150.001 148.512 149.683 148.986 149.395 149.526C149.491 149.706 149.623 149.904 149.791 150.12C149.959 150.336 150.151 150.564 150.367 150.804H152.455ZM163.177 150.804V152.082H161.287V162H159.901C159.541 161.28 159.043 160.62 158.407 160.02C157.783 159.408 157.063 158.892 156.247 158.472C155.431 158.052 154.561 157.77 153.637 157.626L152.935 155.898C154.087 155.202 155.275 154.572 156.499 154.008C157.735 153.444 159.007 152.964 160.315 152.568L159.901 153.324V152.082H152.089V150.804H163.177ZM159.901 153.468L160.279 153.972C159.367 154.272 158.407 154.644 157.399 155.088C156.391 155.52 155.461 156 154.609 156.528C155.257 156.672 155.947 156.918 156.679 157.266C157.411 157.614 158.089 158.052 158.713 158.58C159.337 159.108 159.817 159.72 160.153 160.416H159.991C159.967 160.14 159.943 159.864 159.919 159.588C159.907 159.312 159.901 158.982 159.901 158.598V153.468ZM175.447 150.804V152.082H173.557V162H172.171V155.646L172.585 156.78C172.213 156.288 171.889 155.91 171.613 155.646C171.349 155.382 171.091 155.25 170.839 155.25C170.671 155.25 170.515 155.298 170.371 155.394C170.227 155.49 170.065 155.676 169.885 155.952C169.705 156.216 169.465 156.624 169.165 157.176C168.841 157.764 168.547 158.25 168.283 158.634C168.019 159.006 167.737 159.282 167.437 159.462C167.149 159.63 166.795 159.714 166.375 159.714C166.051 159.714 165.739 159.648 165.439 159.516C165.151 159.384 164.857 159.168 164.557 158.868C164.269 158.556 163.957 158.136 163.621 157.608L164.719 156.942C165.043 157.518 165.313 157.896 165.529 158.076C165.745 158.256 165.979 158.346 166.231 158.346C166.435 158.346 166.627 158.286 166.807 158.166C166.999 158.034 167.203 157.812 167.419 157.5C167.647 157.188 167.905 156.762 168.193 156.222L168.607 155.628C168.919 154.98 169.219 154.536 169.507 154.296C169.795 154.044 170.113 153.918 170.461 153.918C170.857 153.918 171.211 154.032 171.523 154.26C171.847 154.476 172.219 154.812 172.639 155.268L172.279 155.286C172.231 155.01 172.201 154.752 172.189 154.512C172.177 154.26 172.171 154.008 172.171 153.756V152.082H162.811V150.804H175.447ZM167.869 157.122C167.749 156.306 167.623 155.658 167.491 155.178C167.371 154.698 167.155 154.326 166.843 154.062C166.543 153.786 166.135 153.582 165.619 153.45C165.103 153.306 164.455 153.186 163.675 153.09L163.945 151.722L164.917 152.082C165.601 152.19 166.171 152.328 166.627 152.496C167.083 152.664 167.449 152.886 167.725 153.162C168.013 153.426 168.229 153.756 168.373 154.152C168.517 154.548 168.613 155.028 168.661 155.592L167.869 157.122ZM180.229 150.804V152.082H178.339V162H176.953V152.082H175.081V150.804H176.737C176.545 150.576 176.347 150.336 176.143 150.084C175.951 149.832 175.777 149.58 175.621 149.328C176.029 148.62 176.467 147.978 176.935 147.402C177.403 146.814 177.955 146.352 178.591 146.016C179.227 145.668 179.995 145.494 180.895 145.494C181.531 145.494 182.137 145.572 182.713 145.728C183.301 145.884 183.877 146.112 184.441 146.412C185.005 146.7 185.575 147.054 186.151 147.474C186.727 147.882 187.327 148.338 187.951 148.842L187.195 149.814C186.367 149.142 185.617 148.584 184.945 148.14C184.285 147.696 183.649 147.366 183.037 147.15C182.437 146.922 181.795 146.808 181.111 146.808C180.451 146.808 179.875 146.922 179.383 147.15C178.903 147.378 178.483 147.696 178.123 148.104C177.775 148.512 177.457 148.986 177.169 149.526C177.265 149.706 177.397 149.904 177.565 150.12C177.733 150.336 177.925 150.564 178.141 150.804H180.229ZM191.418 150.804V152.082H189.528V162H188.142V159.57L188.466 160.524C188.046 159.888 187.62 159.3 187.188 158.76C186.768 158.22 186.318 157.782 185.838 157.446C185.37 157.11 184.854 156.942 184.29 156.942C183.846 156.942 183.468 157.056 183.156 157.284C182.856 157.512 182.706 157.854 182.706 158.31C182.706 158.706 182.85 159.042 183.138 159.318C183.426 159.582 183.852 159.81 184.416 160.002L183.966 161.388C183.318 161.16 182.79 160.884 182.382 160.56C181.986 160.236 181.692 159.882 181.5 159.498C181.32 159.102 181.23 158.688 181.23 158.256C181.23 157.68 181.368 157.2 181.644 156.816C181.932 156.432 182.292 156.144 182.724 155.952C183.168 155.748 183.612 155.646 184.056 155.646C184.776 155.646 185.406 155.778 185.946 156.042C186.498 156.306 186.978 156.66 187.386 157.104C187.806 157.548 188.184 158.046 188.52 158.598L188.214 158.652C188.19 158.376 188.172 158.1 188.16 157.824C188.148 157.536 188.142 157.242 188.142 156.942V152.082H179.862V150.804H191.418ZM185.424 156.186C185.424 156.258 185.418 156.33 185.406 156.402C185.406 156.474 185.4 156.546 185.388 156.618L184.02 156.204C183.996 155.508 183.876 154.95 183.66 154.53C183.444 154.11 183.102 153.792 182.634 153.576C182.166 153.348 181.53 153.192 180.726 153.108L180.96 151.812L181.788 152.046C182.364 152.094 182.874 152.214 183.318 152.406C183.774 152.586 184.158 152.844 184.47 153.18C184.782 153.516 185.016 153.936 185.172 154.44C185.34 154.932 185.424 155.514 185.424 156.186ZM227.324 153C228.272 153 229.034 153.162 229.61 153.486C230.198 153.798 230.63 154.2 230.906 154.692C231.182 155.172 231.32 155.658 231.32 156.15C231.32 157.134 230.972 157.914 230.276 158.49C229.592 159.066 228.572 159.39 227.216 159.462L227.396 159.264C227.936 159.42 228.506 159.642 229.106 159.93C229.706 160.218 230.312 160.554 230.924 160.938C231.536 161.31 232.124 161.724 232.688 162.18L231.86 163.134C231.116 162.582 230.432 162.108 229.808 161.712C229.196 161.304 228.59 160.95 227.99 160.65C227.39 160.35 226.754 160.086 226.082 159.858C225.41 159.63 224.648 159.42 223.796 159.228L224.066 157.986C224.486 158.106 224.888 158.196 225.272 158.256C225.668 158.304 226.142 158.328 226.694 158.328C227.546 158.328 228.2 158.226 228.656 158.022C229.124 157.818 229.448 157.554 229.628 157.23C229.808 156.906 229.898 156.576 229.898 156.24C229.898 155.604 229.664 155.118 229.196 154.782C228.728 154.434 228.134 154.26 227.414 154.26C226.982 154.26 226.634 154.302 226.37 154.386C226.106 154.47 225.914 154.596 225.794 154.764C225.686 154.92 225.632 155.112 225.632 155.34C225.632 155.436 225.644 155.538 225.668 155.646C225.692 155.742 225.716 155.832 225.74 155.916L224.426 156.186C224.366 156.006 224.318 155.82 224.282 155.628C224.246 155.424 224.228 155.244 224.228 155.088C224.228 154.644 224.36 154.266 224.624 153.954C224.888 153.642 225.248 153.408 225.704 153.252C226.172 153.084 226.712 153 227.324 153ZM226.118 153.63C226.058 153.246 225.878 152.91 225.578 152.622C225.278 152.322 224.846 152.112 224.282 151.992L224.714 151.182L225.542 151.398C226.214 151.662 226.7 151.962 227 152.298C227.312 152.634 227.492 153.06 227.54 153.576L226.118 153.63ZM232.688 150.804V152.082H222.788V150.804H232.688Z" fill="#F5F9FA"/>
<path d="M204.577 150.804V152.082H202.687V158.184H201.301V155.43L201.409 155.988C201.145 155.604 200.863 155.298 200.563 155.07C200.275 154.842 199.957 154.728 199.609 154.728C199.429 154.728 199.243 154.764 199.051 154.836C198.871 154.896 198.715 155.016 198.583 155.196C198.463 155.376 198.403 155.652 198.403 156.024C198.403 156.156 198.403 156.276 198.403 156.384C198.415 156.48 198.427 156.576 198.439 156.672L197.269 156.744C197.197 156.024 196.939 155.466 196.495 155.07C196.063 154.662 195.571 154.458 195.019 154.458C194.539 154.458 194.173 154.572 193.921 154.8C193.669 155.016 193.543 155.304 193.543 155.664C193.543 156.132 193.699 156.486 194.011 156.726C194.335 156.966 194.761 157.188 195.289 157.392L194.803 158.724C194.287 158.556 193.819 158.34 193.399 158.076C192.991 157.8 192.667 157.458 192.427 157.05C192.187 156.642 192.067 156.144 192.067 155.556C192.067 155.1 192.187 154.692 192.427 154.332C192.679 153.972 193.015 153.69 193.435 153.486C193.867 153.27 194.341 153.162 194.857 153.162C195.577 153.162 196.165 153.282 196.621 153.522C197.077 153.75 197.503 154.128 197.899 154.656H197.611C197.731 154.26 197.959 153.96 198.295 153.756C198.643 153.54 199.003 153.432 199.375 153.432C199.807 153.432 200.179 153.516 200.491 153.684C200.803 153.852 201.145 154.092 201.517 154.404L201.355 154.674C201.343 154.434 201.331 154.188 201.319 153.936C201.307 153.672 201.301 153.408 201.301 153.144V152.082H191.059V150.804H204.577ZM196.387 158.436C196.879 158.436 197.329 158.538 197.737 158.742C198.157 158.934 198.481 159.216 198.709 159.588C198.841 159.312 199.015 159.114 199.231 158.994C199.459 158.862 199.723 158.796 200.023 158.796C200.383 158.796 200.719 158.886 201.031 159.066C201.343 159.234 201.667 159.468 202.003 159.768L201.319 159.498C201.307 159.366 201.301 159.228 201.301 159.084C201.301 158.928 201.301 158.736 201.301 158.508V157.716H202.687V162.774H201.301V159.588L201.895 161.136C201.595 160.8 201.313 160.53 201.049 160.326C200.797 160.122 200.527 160.02 200.239 160.02C199.987 160.02 199.777 160.098 199.609 160.254C199.441 160.398 199.357 160.644 199.357 160.992C199.357 161.076 199.357 161.172 199.357 161.28C199.369 161.388 199.381 161.484 199.393 161.568L198.295 161.622C198.211 160.998 198.007 160.518 197.683 160.182C197.371 159.834 196.981 159.66 196.513 159.66C196.153 159.66 195.883 159.75 195.703 159.93C195.523 160.11 195.433 160.326 195.433 160.578C195.433 160.914 195.547 161.19 195.775 161.406C196.015 161.61 196.405 161.814 196.945 162.018L196.423 163.242C195.703 162.978 195.121 162.63 194.677 162.198C194.245 161.778 194.029 161.22 194.029 160.524C194.029 159.924 194.251 159.426 194.695 159.03C195.139 158.634 195.703 158.436 196.387 158.436ZM209.373 150.804V152.082H207.483V162H206.097V153.558C205.953 153.15 205.737 152.802 205.449 152.514C205.173 152.226 204.813 152.082 204.369 152.082H204.225V150.804H204.495C204.783 150.804 205.083 150.9 205.395 151.092C205.707 151.272 205.959 151.554 206.151 151.938C206.139 151.878 206.127 151.74 206.115 151.524C206.103 151.308 206.097 151.122 206.097 150.966V149.616H207.069L207.465 150.804H209.373ZM210.213 157.806V156.312H215.055V157.806H210.213ZM217.103 157.806V156.312H221.945V157.806H217.103Z" fill="#FFCA3A"/>
<path d="M16.4493 211.804V213.082H14.5593V223H13.1733V216.97L13.2813 217.438C13.0173 217.054 12.7353 216.748 12.4353 216.52C12.1473 216.292 11.8293 216.178 11.4813 216.178C11.3013 216.178 11.1153 216.214 10.9233 216.286C10.7433 216.346 10.5873 216.466 10.4553 216.646C10.3353 216.826 10.2753 217.102 10.2753 217.474C10.2753 217.606 10.2753 217.726 10.2753 217.834C10.2873 217.93 10.2993 218.026 10.3113 218.122L9.14133 218.212C9.09333 217.72 8.96133 217.306 8.74533 216.97C8.52933 216.622 8.26533 216.358 7.95333 216.178C7.64133 215.998 7.30533 215.908 6.94533 215.908C6.62133 215.908 6.34533 215.974 6.11733 216.106C5.88933 216.226 5.71533 216.394 5.59533 216.61C5.47533 216.814 5.41533 217.048 5.41533 217.312C5.41533 217.792 5.58933 218.2 5.93733 218.536C6.29733 218.872 6.80133 219.154 7.44933 219.382L6.96333 220.714C6.38733 220.534 5.87133 220.288 5.41533 219.976C4.95933 219.664 4.59933 219.28 4.33533 218.824C4.07133 218.368 3.93933 217.84 3.93933 217.24C3.93933 216.7 4.07133 216.238 4.33533 215.854C4.59933 215.458 4.95333 215.152 5.39733 214.936C5.84133 214.72 6.32733 214.612 6.85533 214.612C7.49133 214.612 8.03733 214.732 8.49333 214.972C8.94933 215.2 9.36933 215.572 9.75333 216.088L9.48333 216.106C9.60333 215.71 9.83133 215.41 10.1673 215.206C10.5153 214.99 10.8753 214.882 11.2473 214.882C11.6793 214.882 12.0513 214.966 12.3633 215.134C12.6753 215.302 13.0173 215.542 13.3893 215.854L13.2273 216.124C13.2153 215.872 13.2033 215.62 13.1913 215.368C13.1793 215.116 13.1733 214.858 13.1733 214.594V213.082H2.93133V211.804H16.4493ZM21.2453 211.804V213.082H19.3553V223H17.9693V214.558C17.8253 214.15 17.6093 213.802 17.3213 213.514C17.0453 213.226 16.6853 213.082 16.2413 213.082H16.0973V211.804H16.3673C16.6553 211.804 16.9553 211.9 17.2673 212.092C17.5793 212.272 17.8313 212.554 18.0233 212.938C18.0113 212.878 17.9993 212.74 17.9873 212.524C17.9753 212.308 17.9693 212.122 17.9693 211.966V210.616H18.9413L19.3373 211.804H21.2453ZM27.4666 211.804V213.082H27.1066C26.7346 213.166 26.3326 213.352 25.9006 213.64C25.4686 213.916 25.0606 214.282 24.6766 214.738C24.2926 215.182 23.9746 215.704 23.7226 216.304C23.4826 216.904 23.3626 217.564 23.3626 218.284C23.3626 219.148 23.4886 219.838 23.7406 220.354C24.0046 220.858 24.3286 221.218 24.7126 221.434C25.0966 221.65 25.4806 221.758 25.8646 221.758C26.1646 221.758 26.4166 221.728 26.6206 221.668C26.8246 221.608 27.0586 221.5 27.3226 221.344L27.9526 222.442C27.6406 222.682 27.2986 222.85 26.9266 222.946C26.5546 223.042 26.1826 223.09 25.8106 223.09C25.0546 223.09 24.3826 222.892 23.7946 222.496C23.2186 222.1 22.7626 221.548 22.4266 220.84C22.1026 220.12 21.9406 219.28 21.9406 218.32C21.9406 217.336 22.1266 216.448 22.4986 215.656C22.8706 214.852 23.3686 214.174 23.9926 213.622C24.6286 213.07 25.3306 212.668 26.0986 212.416L24.9466 213.01C24.7306 213.034 24.4966 213.052 24.2446 213.064C23.9926 213.076 23.7106 213.082 23.3986 213.082H20.8786V211.804H27.4666ZM38.6573 211.804V213.082H36.7673V223H35.3813V220.57L35.7053 221.524C35.2853 220.888 34.8593 220.3 34.4273 219.76C34.0073 219.22 33.5573 218.782 33.0773 218.446C32.6093 218.11 32.0933 217.942 31.5293 217.942C31.0853 217.942 30.7073 218.056 30.3953 218.284C30.0953 218.512 29.9453 218.854 29.9453 219.31C29.9453 219.706 30.0893 220.042 30.3773 220.318C30.6653 220.582 31.0913 220.81 31.6553 221.002L31.2053 222.388C30.5573 222.16 30.0293 221.884 29.6213 221.56C29.2253 221.236 28.9313 220.882 28.7393 220.498C28.5592 220.102 28.4692 219.688 28.4692 219.256C28.4692 218.68 28.6073 218.2 28.8833 217.816C29.1713 217.432 29.5313 217.144 29.9633 216.952C30.4073 216.748 30.8513 216.646 31.2953 216.646C32.0153 216.646 32.6453 216.778 33.1853 217.042C33.7373 217.306 34.2173 217.66 34.6253 218.104C35.0453 218.548 35.4233 219.046 35.7593 219.598L35.4533 219.652C35.4293 219.376 35.4113 219.1 35.3993 218.824C35.3873 218.536 35.3813 218.242 35.3813 217.942V213.082H27.1012V211.804H38.6573ZM32.6633 217.186C32.6633 217.258 32.6573 217.33 32.6453 217.402C32.6453 217.474 32.6393 217.546 32.6273 217.618L31.2593 217.204C31.2353 216.508 31.1153 215.95 30.8993 215.53C30.6833 215.11 30.3413 214.792 29.8733 214.576C29.4053 214.348 28.7693 214.192 27.9653 214.108L28.1993 212.812L29.0273 213.046C29.6033 213.094 30.1133 213.214 30.5573 213.406C31.0133 213.586 31.3973 213.844 31.7093 214.18C32.0213 214.516 32.2553 214.936 32.4113 215.44C32.5793 215.932 32.6633 216.514 32.6633 217.186ZM49.3865 211.804V213.082H47.4965V223H46.1105C45.7505 222.28 45.2525 221.62 44.6165 221.02C43.9925 220.408 43.2725 219.892 42.4565 219.472C41.6405 219.052 40.7705 218.77 39.8465 218.626L39.1445 216.898C40.2965 216.202 41.4845 215.572 42.7085 215.008C43.9445 214.444 45.2165 213.964 46.5245 213.568L46.1105 214.324V213.082H38.2985V211.804H49.3865ZM46.1105 214.468L46.4885 214.972C45.5765 215.272 44.6165 215.644 43.6085 216.088C42.6005 216.52 41.6705 217 40.8185 217.528C41.4665 217.672 42.1565 217.918 42.8885 218.266C43.6205 218.614 44.2985 219.052 44.9225 219.58C45.5465 220.108 46.0265 220.72 46.3625 221.416H46.2005C46.1765 221.14 46.1525 220.864 46.1285 220.588C46.1165 220.312 46.1105 219.982 46.1105 219.598V214.468ZM41.8085 223.108C41.5085 223.108 41.2505 223.012 41.0345 222.82C40.8305 222.628 40.7285 222.376 40.7285 222.064C40.7285 221.752 40.8305 221.494 41.0345 221.29C41.2505 221.086 41.5085 220.984 41.8085 220.984C42.1085 220.984 42.3605 221.086 42.5645 221.29C42.7805 221.494 42.8885 221.752 42.8885 222.064C42.8885 222.376 42.7805 222.628 42.5645 222.82C42.3605 223.012 42.1085 223.108 41.8085 223.108ZM63.0561 211.804C63.0441 211.312 62.9241 210.958 62.6961 210.742C62.4801 210.526 62.1201 210.418 61.6161 210.418H59.0961C58.3161 210.418 57.7101 210.364 57.2781 210.256C56.8581 210.148 56.4981 209.98 56.1981 209.752C55.8741 209.512 55.6281 209.206 55.4601 208.834C55.3041 208.45 55.2261 208.018 55.2261 207.538C55.2261 207.382 55.2321 207.226 55.2441 207.07C55.2681 206.914 55.2921 206.752 55.3161 206.584L56.6481 206.674C56.6241 206.818 56.6061 206.944 56.5941 207.052C56.5821 207.16 56.5761 207.262 56.5761 207.358C56.5761 207.622 56.6001 207.856 56.6481 208.06C56.7081 208.264 56.7981 208.432 56.9181 208.564C57.0861 208.756 57.3261 208.9 57.6381 208.996C57.9501 209.08 58.4061 209.122 59.0061 209.122H61.2381C61.8741 209.122 62.3781 209.17 62.7501 209.266C63.1221 209.362 63.4401 209.536 63.7041 209.788C63.9081 209.98 64.0641 210.244 64.1721 210.58C64.2801 210.904 64.3401 211.312 64.3521 211.804H63.0561ZM66.9081 211.804V213.082H60.3201V216.304C60.3201 216.652 60.3741 216.91 60.4821 217.078C60.5901 217.234 60.7581 217.312 60.9861 217.312C61.2141 217.312 61.4481 217.24 61.6881 217.096C61.9401 216.952 62.2101 216.724 62.4981 216.412C62.7861 216.1 63.0981 215.698 63.4341 215.206L64.5141 215.044C64.8981 215.608 65.1921 216.19 65.3961 216.79C65.6121 217.39 65.7201 217.99 65.7201 218.59C65.7201 219.346 65.5521 220.024 65.2161 220.624C64.8921 221.224 64.4061 221.698 63.7581 222.046C63.1221 222.394 62.3421 222.568 61.4181 222.568C60.6261 222.568 59.8881 222.43 59.2041 222.154C58.5201 221.878 57.8901 221.434 57.3141 220.822C56.7381 220.198 56.2101 219.382 55.7301 218.374C55.2501 217.354 54.8181 216.106 54.4341 214.63L55.8021 214.27C56.2341 215.938 56.7081 217.282 57.2241 218.302C57.7521 219.31 58.3521 220.048 59.0241 220.516C59.6961 220.972 60.4701 221.2 61.3461 221.2C62.3061 221.2 63.0441 220.96 63.5601 220.48C64.0881 220 64.3521 219.382 64.3521 218.626C64.3521 218.086 64.2741 217.624 64.1181 217.24C63.9741 216.856 63.7821 216.538 63.5421 216.286L64.3701 215.944C64.0101 216.556 63.6381 217.06 63.2541 217.456C62.8821 217.852 62.5041 218.152 62.1201 218.356C61.7481 218.548 61.3761 218.644 61.0041 218.644C60.7281 218.644 60.4701 218.608 60.2301 218.536C59.9901 218.452 59.7861 218.332 59.6181 218.176C59.4261 218.008 59.2641 217.774 59.1321 217.474C59.0001 217.162 58.9341 216.646 58.9341 215.926V213.082H53.7321V211.804H66.9081ZM71.9826 211.804V213.082H69.5886V213.82L69.4986 214.306C69.5226 214.438 69.5406 214.636 69.5526 214.9C69.5766 215.164 69.5886 215.452 69.5886 215.764V218.068C69.5886 218.62 69.6666 218.998 69.8226 219.202C69.9786 219.406 70.2666 219.508 70.6866 219.508C71.1066 219.508 71.4966 219.424 71.8566 219.256C72.2286 219.088 72.5526 218.872 72.8286 218.608C73.1046 218.356 73.3266 218.062 73.4946 217.726C73.6746 217.39 73.7646 217.054 73.7646 216.718C73.7646 216.382 73.6686 216.166 73.4766 216.07C73.2846 215.962 73.0146 215.908 72.6666 215.908H72.5586C72.0426 215.908 71.6466 215.884 71.3706 215.836C71.1066 215.776 70.8366 215.68 70.5606 215.548C70.3326 215.44 70.1106 215.302 69.8946 215.134C69.6786 214.966 69.5046 214.804 69.3726 214.648L69.5706 213.406C69.7866 213.67 70.0146 213.898 70.2546 214.09C70.5066 214.27 70.8006 214.408 71.1366 214.504C71.4726 214.588 71.8866 214.63 72.3786 214.63H72.6846C73.1766 214.63 73.5366 214.672 73.7646 214.756C74.0046 214.828 74.2026 214.918 74.3586 215.026C74.5986 215.182 74.7666 215.386 74.8626 215.638C74.9706 215.878 75.0246 216.184 75.0246 216.556C75.0246 216.952 74.9526 217.342 74.8086 217.726C74.6766 218.11 74.4906 218.47 74.2506 218.806C74.0226 219.142 73.7586 219.442 73.4586 219.706C73.0626 220.042 72.6246 220.3 72.1446 220.48C71.6766 220.66 71.1546 220.75 70.5786 220.75C70.1706 220.75 69.8226 220.702 69.5346 220.606C69.2586 220.498 69.0246 220.36 68.8326 220.192C68.6646 220.024 68.5146 219.802 68.3826 219.526C68.2626 219.238 68.2026 218.77 68.2026 218.122V213.082H66.5466V211.804H71.9826ZM82.4226 211.804V213.082H75.1326V213.622L75.0606 214.756C75.0846 214.912 75.1026 215.128 75.1146 215.404C75.1266 215.68 75.1326 215.944 75.1326 216.196V219.31C75.1326 219.838 75.1626 220.21 75.2226 220.426C75.2826 220.642 75.3546 220.798 75.4386 220.894C75.6546 221.146 75.9846 221.272 76.4286 221.272C76.9086 221.272 77.3526 221.158 77.7606 220.93C78.1686 220.702 78.5346 220.42 78.8586 220.084C79.1946 219.724 79.4526 219.346 79.6326 218.95C79.8246 218.542 79.9206 218.116 79.9206 217.672C79.9206 217.276 79.8066 217.018 79.5786 216.898C79.3626 216.778 79.0566 216.718 78.6606 216.718H78.5706C78.0186 216.718 77.5746 216.676 77.2386 216.592C76.9026 216.496 76.5786 216.37 76.2666 216.214C75.9906 216.058 75.7326 215.878 75.4926 215.674C75.2646 215.458 75.0786 215.218 74.9346 214.954L75.1146 213.388C75.3666 213.82 75.6306 214.186 75.9066 214.486C76.1946 214.774 76.5426 214.996 76.9506 215.152C77.3706 215.308 77.8986 215.386 78.5346 215.386H78.8226C79.2786 215.386 79.6266 215.416 79.8666 215.476C80.1186 215.536 80.3406 215.626 80.5326 215.746C80.8086 215.914 81.0126 216.148 81.1446 216.448C81.2766 216.736 81.3426 217.084 81.3426 217.492C81.3426 218.224 81.1686 218.926 80.8206 219.598C80.4726 220.27 80.0346 220.834 79.5066 221.29C79.0506 221.686 78.5646 221.998 78.0486 222.226C77.5326 222.454 76.9566 222.568 76.3206 222.568C75.8766 222.568 75.4986 222.502 75.1866 222.37C74.8746 222.238 74.6166 222.07 74.4126 221.866C74.2206 221.638 74.0586 221.362 73.9266 221.038C73.8066 220.714 73.7466 220.222 73.7466 219.562V218.194L74.0886 217.69L73.7466 215.494V213.082H71.7666V211.804H82.4226ZM87.216 211.804V213.082H85.326V223H83.94V214.558C83.796 214.15 83.58 213.802 83.292 213.514C83.016 213.226 82.656 213.082 82.212 213.082H82.068V211.804H82.338C82.626 211.804 82.926 211.9 83.238 212.092C83.55 212.272 83.802 212.554 83.994 212.938C83.982 212.878 83.97 212.74 83.958 212.524C83.946 212.308 83.94 212.122 83.94 211.966V210.616H84.912L85.308 211.804H87.216ZM97.9373 211.804V213.082H96.0473V223H94.6613C94.3013 222.28 93.8033 221.62 93.1673 221.02C92.5433 220.408 91.8233 219.892 91.0073 219.472C90.1913 219.052 89.3213 218.77 88.3973 218.626L87.6953 216.898C88.8473 216.202 90.0353 215.572 91.2593 215.008C92.4953 214.444 93.7673 213.964 95.0753 213.568L94.6613 214.324V213.082H86.8493V211.804H97.9373ZM94.6613 214.468L95.0393 214.972C94.1273 215.272 93.1673 215.644 92.1593 216.088C91.1513 216.52 90.2213 217 89.3693 217.528C90.0173 217.672 90.7073 217.918 91.4393 218.266C92.1713 218.614 92.8493 219.052 93.4733 219.58C94.0973 220.108 94.5773 220.72 94.9133 221.416H94.7513C94.7273 221.14 94.7033 220.864 94.6793 220.588C94.6673 220.312 94.6613 219.982 94.6613 219.598V214.468ZM90.3593 223.108C90.0593 223.108 89.8013 223.012 89.5853 222.82C89.3813 222.628 89.2793 222.376 89.2793 222.064C89.2793 221.752 89.3813 221.494 89.5853 221.29C89.8013 221.086 90.0593 220.984 90.3593 220.984C90.6593 220.984 90.9113 221.086 91.1153 221.29C91.3313 221.494 91.4393 221.752 91.4393 222.064C91.4393 222.376 91.3313 222.628 91.1153 222.82C90.9113 223.012 90.6593 223.108 90.3593 223.108ZM109.092 211.804V213.082H107.202V223H105.816V215.35L106.176 216.466C105.624 215.662 105.102 215.008 104.61 214.504C104.118 213.988 103.638 213.61 103.17 213.37C102.702 213.118 102.228 212.992 101.748 212.992C101.376 212.992 101.052 213.064 100.776 213.208C100.512 213.352 100.308 213.55 100.164 213.802C100.02 214.042 99.948 214.33 99.948 214.666C99.948 215.05 100.038 215.374 100.218 215.638C100.41 215.902 100.704 216.112 101.1 216.268C101.508 216.424 102.042 216.538 102.702 216.61L102.594 218.104C101.802 218.032 101.094 217.864 100.47 217.6C99.858 217.324 99.372 216.946 99.012 216.466C98.652 215.974 98.472 215.38 98.472 214.684C98.472 214.036 98.616 213.49 98.904 213.046C99.192 212.59 99.57 212.248 100.038 212.02C100.506 211.792 101.01 211.678 101.55 211.678C102.174 211.678 102.738 211.786 103.242 212.002C103.758 212.218 104.256 212.536 104.736 212.956C105.216 213.364 105.708 213.874 106.212 214.486L105.924 214.414C105.888 214.21 105.858 213.94 105.834 213.604C105.822 213.256 105.816 212.932 105.816 212.632V210.616H106.77L107.184 211.804H109.092ZM122.823 211.696C123.315 211.696 123.723 211.75 124.047 211.858C124.383 211.954 124.665 212.104 124.893 212.308C125.121 212.5 125.301 212.74 125.433 213.028C125.565 213.304 125.631 213.688 125.631 214.18V223H124.281C124.185 222.64 124.047 222.346 123.867 222.118C123.687 221.89 123.465 221.722 123.201 221.614C122.949 221.494 122.643 221.434 122.283 221.434C121.851 221.434 121.449 221.458 121.077 221.506C120.705 221.554 120.315 221.608 119.907 221.668C119.511 221.716 119.049 221.74 118.521 221.74C118.113 221.74 117.675 221.698 117.207 221.614C116.739 221.518 116.295 221.344 115.875 221.092C115.455 220.84 115.113 220.468 114.849 219.976C114.585 219.472 114.453 218.812 114.453 217.996C114.453 217.708 114.477 217.408 114.525 217.096C114.573 216.772 114.621 216.478 114.669 216.214L116.055 216.412C116.007 216.592 115.959 216.808 115.911 217.06C115.875 217.312 115.857 217.612 115.857 217.96C115.857 218.488 115.935 218.914 116.091 219.238C116.247 219.562 116.457 219.808 116.721 219.976C116.985 220.144 117.279 220.258 117.603 220.318C117.927 220.378 118.257 220.408 118.593 220.408C119.193 220.408 119.739 220.36 120.231 220.264C120.735 220.156 121.299 220.102 121.923 220.102C122.439 220.102 122.889 220.18 123.273 220.336C123.657 220.48 123.981 220.732 124.245 221.092V214.666C124.245 214.222 124.215 213.904 124.155 213.712C124.095 213.52 123.999 213.364 123.867 213.244C123.651 213.064 123.321 212.974 122.877 212.974C122.445 212.974 122.031 213.07 121.635 213.262C121.251 213.454 120.903 213.7 120.591 214C120.291 214.3 120.051 214.624 119.871 214.972C119.703 215.308 119.619 215.626 119.619 215.926C119.619 216.046 119.643 216.172 119.691 216.304C119.739 216.436 119.841 216.55 119.997 216.646C120.153 216.742 120.381 216.79 120.681 216.79C120.813 216.79 120.939 216.784 121.059 216.772C121.179 216.76 121.305 216.748 121.437 216.736L121.563 217.996C121.443 218.044 121.281 218.08 121.077 218.104C120.885 218.128 120.657 218.14 120.393 218.14C119.805 218.14 119.289 217.96 118.845 217.6C118.413 217.24 118.197 216.688 118.197 215.944C118.197 215.464 118.317 214.978 118.557 214.486C118.809 213.982 119.151 213.52 119.583 213.1C120.015 212.68 120.507 212.344 121.059 212.092C121.623 211.828 122.211 211.696 122.823 211.696ZM139.974 211.804V213.082H138.084V223H136.698C136.362 222.508 135.978 222.034 135.546 221.578C135.114 221.122 134.634 220.702 134.106 220.318C133.578 219.934 132.996 219.604 132.36 219.328C131.724 219.052 131.022 218.848 130.254 218.716L129.822 217.042L130.686 217.672C131.802 217.864 132.744 218.158 133.512 218.554C134.292 218.938 134.94 219.37 135.456 219.85C135.984 220.33 136.41 220.798 136.734 221.254C136.722 220.978 136.71 220.702 136.698 220.426C136.698 220.15 136.698 219.85 136.698 219.526V210.616H137.652L138.066 211.804H139.974ZM135.366 214.54C135.366 215.236 135.174 215.83 134.79 216.322C134.418 216.802 133.902 217.186 133.242 217.474C132.594 217.75 131.856 217.936 131.028 218.032L130.182 217.87L129.822 217.042C130.794 216.97 131.586 216.832 132.198 216.628C132.822 216.412 133.278 216.136 133.566 215.8C133.866 215.452 134.016 215.056 134.016 214.612C134.016 214.24 133.932 213.904 133.764 213.604C133.596 213.304 133.326 213.01 132.954 212.722L133.944 211.75C134.352 212.122 134.688 212.548 134.952 213.028C135.228 213.496 135.366 214 135.366 214.54ZM130.542 215.26C129.81 215.26 129.228 215.074 128.796 214.702C128.364 214.318 128.148 213.796 128.148 213.136C128.148 212.86 128.184 212.596 128.256 212.344C128.34 212.092 128.436 211.876 128.544 211.696L129.912 212.074C129.828 212.194 129.756 212.344 129.696 212.524C129.636 212.692 129.606 212.872 129.606 213.064C129.606 213.376 129.69 213.61 129.858 213.766C130.038 213.91 130.266 213.982 130.542 213.982C130.782 213.982 131.034 213.934 131.298 213.838C131.562 213.742 131.832 213.55 132.108 213.262C132.396 212.974 132.678 212.548 132.954 211.984L133.944 211.75L133.98 212.65C133.74 213.178 133.452 213.64 133.116 214.036C132.78 214.42 132.396 214.72 131.964 214.936C131.544 215.152 131.07 215.26 130.542 215.26ZM144.767 211.804V213.082H142.877V223H141.491V214.558C141.347 214.15 141.131 213.802 140.843 213.514C140.567 213.226 140.207 213.082 139.763 213.082H139.619V211.804H139.889C140.177 211.804 140.477 211.9 140.789 212.092C141.101 212.272 141.353 212.554 141.545 212.938C141.533 212.878 141.521 212.74 141.509 212.524C141.497 212.308 141.491 212.122 141.491 211.966V210.616H142.463L142.859 211.804H144.767ZM150.988 211.804V213.082H150.628C150.256 213.166 149.854 213.352 149.422 213.64C148.99 213.916 148.582 214.282 148.198 214.738C147.814 215.182 147.496 215.704 147.244 216.304C147.004 216.904 146.884 217.564 146.884 218.284C146.884 219.148 147.01 219.838 147.262 220.354C147.526 220.858 147.85 221.218 148.234 221.434C148.618 221.65 149.002 221.758 149.386 221.758C149.686 221.758 149.938 221.728 150.142 221.668C150.346 221.608 150.58 221.5 150.844 221.344L151.474 222.442C151.162 222.682 150.82 222.85 150.448 222.946C150.076 223.042 149.704 223.09 149.332 223.09C148.576 223.09 147.904 222.892 147.316 222.496C146.74 222.1 146.284 221.548 145.948 220.84C145.624 220.12 145.462 219.28 145.462 218.32C145.462 217.336 145.648 216.448 146.02 215.656C146.392 214.852 146.89 214.174 147.514 213.622C148.15 213.07 148.852 212.668 149.62 212.416L148.468 213.01C148.252 213.034 148.018 213.052 147.766 213.064C147.514 213.076 147.232 213.082 146.92 213.082H144.4V211.804H150.988ZM161.855 211.804V213.082H159.965V223H158.579V218.626L158.867 219.634C158.471 219.082 158.039 218.584 157.571 218.14C157.103 217.696 156.623 217.342 156.131 217.078C155.639 216.814 155.159 216.682 154.691 216.682C154.247 216.682 153.869 216.802 153.557 217.042C153.257 217.27 153.107 217.612 153.107 218.068C153.107 218.428 153.233 218.74 153.485 219.004C153.737 219.256 154.127 219.484 154.655 219.688L153.971 220.966C153.239 220.666 152.663 220.264 152.243 219.76C151.835 219.244 151.631 218.662 151.631 218.014C151.631 217.426 151.769 216.94 152.045 216.556C152.333 216.16 152.693 215.866 153.125 215.674C153.569 215.482 154.019 215.386 154.475 215.386C155.099 215.386 155.669 215.494 156.185 215.71C156.701 215.926 157.181 216.22 157.625 216.592C158.081 216.964 158.513 217.396 158.921 217.888L158.669 217.96C158.633 217.684 158.609 217.414 158.597 217.15C158.585 216.874 158.579 216.598 158.579 216.322V213.082H150.623V211.804H161.855ZM177.429 211.804V213.082H175.539V223H174.153V218.626L174.441 219.634C174.045 219.082 173.613 218.584 173.145 218.14C172.677 217.696 172.197 217.342 171.705 217.078C171.213 216.814 170.733 216.682 170.265 216.682C169.821 216.682 169.443 216.802 169.131 217.042C168.831 217.27 168.681 217.612 168.681 218.068C168.681 218.428 168.807 218.74 169.059 219.004C169.311 219.256 169.701 219.484 170.229 219.688L169.545 220.966C168.813 220.666 168.237 220.264 167.817 219.76C167.409 219.244 167.205 218.662 167.205 218.014C167.205 217.426 167.343 216.94 167.619 216.556C167.907 216.16 168.267 215.866 168.699 215.674C169.143 215.482 169.593 215.386 170.049 215.386C170.673 215.386 171.243 215.494 171.759 215.71C172.275 215.926 172.755 216.22 173.199 216.592C173.655 216.964 174.087 217.396 174.495 217.888L174.243 217.96C174.207 217.684 174.183 217.414 174.171 217.15C174.159 216.874 174.153 216.598 174.153 216.322V213.082H166.197V211.804H177.429ZM188.148 211.804V213.082H186.258V223H184.872C184.512 222.28 184.014 221.62 183.378 221.02C182.754 220.408 182.034 219.892 181.218 219.472C180.402 219.052 179.532 218.77 178.608 218.626L177.906 216.898C179.058 216.202 180.246 215.572 181.47 215.008C182.706 214.444 183.978 213.964 185.286 213.568L184.872 214.324V213.082H177.06V211.804H188.148ZM184.872 214.468L185.25 214.972C184.338 215.272 183.378 215.644 182.37 216.088C181.362 216.52 180.432 217 179.58 217.528C180.228 217.672 180.918 217.918 181.65 218.266C182.382 218.614 183.06 219.052 183.684 219.58C184.308 220.108 184.788 220.72 185.124 221.416H184.962C184.938 221.14 184.914 220.864 184.89 220.588C184.878 220.312 184.872 219.982 184.872 219.598V214.468ZM180.57 223.108C180.27 223.108 180.012 223.012 179.796 222.82C179.592 222.628 179.49 222.376 179.49 222.064C179.49 221.752 179.592 221.494 179.796 221.29C180.012 221.086 180.27 220.984 180.57 220.984C180.87 220.984 181.122 221.086 181.326 221.29C181.542 221.494 181.65 221.752 181.65 222.064C181.65 222.376 181.542 222.628 181.326 222.82C181.122 223.012 180.87 223.108 180.57 223.108ZM199.339 211.804V213.082H197.449V223H196.063V220.57L196.387 221.524C195.967 220.888 195.541 220.3 195.109 219.76C194.689 219.22 194.239 218.782 193.759 218.446C193.291 218.11 192.775 217.942 192.211 217.942C191.767 217.942 191.389 218.056 191.077 218.284C190.777 218.512 190.627 218.854 190.627 219.31C190.627 219.706 190.771 220.042 191.059 220.318C191.347 220.582 191.773 220.81 192.337 221.002L191.887 222.388C191.239 222.16 190.711 221.884 190.303 221.56C189.907 221.236 189.613 220.882 189.421 220.498C189.241 220.102 189.151 219.688 189.151 219.256C189.151 218.68 189.289 218.2 189.565 217.816C189.853 217.432 190.213 217.144 190.645 216.952C191.089 216.748 191.533 216.646 191.977 216.646C192.697 216.646 193.327 216.778 193.867 217.042C194.419 217.306 194.899 217.66 195.307 218.104C195.727 218.548 196.105 219.046 196.441 219.598L196.135 219.652C196.111 219.376 196.093 219.1 196.081 218.824C196.069 218.536 196.063 218.242 196.063 217.942V213.082H187.783V211.804H199.339ZM193.345 217.186C193.345 217.258 193.339 217.33 193.327 217.402C193.327 217.474 193.321 217.546 193.309 217.618L191.941 217.204C191.917 216.508 191.797 215.95 191.581 215.53C191.365 215.11 191.023 214.792 190.555 214.576C190.087 214.348 189.451 214.192 188.647 214.108L188.881 212.812L189.709 213.046C190.285 213.094 190.795 213.214 191.239 213.406C191.695 213.586 192.079 213.844 192.391 214.18C192.703 214.516 192.937 214.936 193.093 215.44C193.261 215.932 193.345 216.514 193.345 217.186ZM204.128 211.804V213.082H202.238V223H200.852V214.558C200.708 214.15 200.492 213.802 200.204 213.514C199.928 213.226 199.568 213.082 199.124 213.082H198.98V211.804H199.25C199.538 211.804 199.838 211.9 200.15 212.092C200.462 212.272 200.714 212.554 200.906 212.938C200.894 212.878 200.882 212.74 200.87 212.524C200.858 212.308 200.852 212.122 200.852 211.966V210.616H201.824L202.22 211.804H204.128ZM217.279 211.804V213.082H215.389V223H214.003V216.97L214.111 217.438C213.847 217.054 213.565 216.748 213.265 216.52C212.977 216.292 212.659 216.178 212.311 216.178C212.131 216.178 211.945 216.214 211.753 216.286C211.573 216.346 211.417 216.466 211.285 216.646C211.165 216.826 211.105 217.102 211.105 217.474C211.105 217.606 211.105 217.726 211.105 217.834C211.117 217.93 211.129 218.026 211.141 218.122L209.971 218.212C209.923 217.72 209.791 217.306 209.575 216.97C209.359 216.622 209.095 216.358 208.783 216.178C208.471 215.998 208.135 215.908 207.775 215.908C207.451 215.908 207.175 215.974 206.947 216.106C206.719 216.226 206.545 216.394 206.425 216.61C206.305 216.814 206.245 217.048 206.245 217.312C206.245 217.792 206.419 218.2 206.767 218.536C207.127 218.872 207.631 219.154 208.279 219.382L207.793 220.714C207.217 220.534 206.701 220.288 206.245 219.976C205.789 219.664 205.429 219.28 205.165 218.824C204.901 218.368 204.769 217.84 204.769 217.24C204.769 216.7 204.901 216.238 205.165 215.854C205.429 215.458 205.783 215.152 206.227 214.936C206.671 214.72 207.157 214.612 207.685 214.612C208.321 214.612 208.867 214.732 209.323 214.972C209.779 215.2 210.199 215.572 210.583 216.088L210.313 216.106C210.433 215.71 210.661 215.41 210.997 215.206C211.345 214.99 211.705 214.882 212.077 214.882C212.509 214.882 212.881 214.966 213.193 215.134C213.505 215.302 213.847 215.542 214.219 215.854L214.057 216.124C214.045 215.872 214.033 215.62 214.021 215.368C214.009 215.116 214.003 214.858 214.003 214.594V213.082H203.761V211.804H217.279ZM223.551 211.804C223.539 211.312 223.419 210.958 223.191 210.742C222.975 210.526 222.615 210.418 222.111 210.418H220.815C220.023 210.418 219.411 210.364 218.979 210.256C218.559 210.148 218.199 209.98 217.899 209.752C217.575 209.512 217.329 209.206 217.161 208.834C217.005 208.45 216.927 208.018 216.927 207.538C216.927 207.382 216.939 207.226 216.963 207.07C216.975 206.914 216.993 206.752 217.017 206.584L218.349 206.674C218.325 206.818 218.307 206.944 218.295 207.052C218.283 207.16 218.277 207.262 218.277 207.358C218.277 207.622 218.301 207.856 218.349 208.06C218.409 208.264 218.499 208.432 218.619 208.564C218.787 208.756 219.027 208.9 219.339 208.996C219.663 209.08 220.119 209.122 220.707 209.122H221.733C222.369 209.122 222.873 209.17 223.245 209.266C223.617 209.362 223.935 209.536 224.199 209.788C224.403 209.98 224.559 210.244 224.667 210.58C224.775 210.904 224.835 211.312 224.847 211.804H223.551ZM221.463 214C222.411 214 223.173 214.162 223.749 214.486C224.337 214.798 224.769 215.2 225.045 215.692C225.321 216.172 225.459 216.658 225.459 217.15C225.459 218.134 225.111 218.914 224.415 219.49C223.731 220.066 222.711 220.39 221.355 220.462L221.535 220.264C222.075 220.42 222.645 220.642 223.245 220.93C223.845 221.218 224.451 221.554 225.063 221.938C225.675 222.31 226.263 222.724 226.827 223.18L225.999 224.134C225.255 223.582 224.571 223.108 223.947 222.712C223.335 222.304 222.729 221.95 222.129 221.65C221.529 221.35 220.893 221.086 220.221 220.858C219.549 220.63 218.787 220.42 217.935 220.228L218.205 218.986C218.625 219.106 219.027 219.196 219.411 219.256C219.807 219.304 220.281 219.328 220.833 219.328C221.685 219.328 222.339 219.226 222.795 219.022C223.263 218.818 223.587 218.554 223.767 218.23C223.947 217.906 224.037 217.576 224.037 217.24C224.037 216.604 223.803 216.118 223.335 215.782C222.867 215.434 222.273 215.26 221.553 215.26C221.121 215.26 220.773 215.302 220.509 215.386C220.245 215.47 220.053 215.596 219.933 215.764C219.825 215.92 219.771 216.112 219.771 216.34C219.771 216.436 219.783 216.538 219.807 216.646C219.831 216.742 219.855 216.832 219.879 216.916L218.565 217.186C218.505 217.006 218.457 216.82 218.421 216.628C218.385 216.424 218.367 216.244 218.367 216.088C218.367 215.644 218.499 215.266 218.763 214.954C219.027 214.642 219.387 214.408 219.843 214.252C220.311 214.084 220.851 214 221.463 214ZM220.257 214.63C220.197 214.246 220.017 213.91 219.717 213.622C219.417 213.322 218.985 213.112 218.421 212.992L218.853 212.182L219.681 212.398C220.353 212.662 220.839 212.962 221.139 213.298C221.451 213.634 221.631 214.06 221.679 214.576L220.257 214.63ZM226.827 211.804V213.082H216.927V211.804H226.827ZM235.719 214C236.667 214 237.429 214.162 238.005 214.486C238.593 214.798 239.025 215.2 239.301 215.692C239.577 216.172 239.715 216.658 239.715 217.15C239.715 218.134 239.367 218.914 238.671 219.49C237.987 220.066 236.967 220.39 235.611 220.462L235.791 220.264C236.331 220.42 236.901 220.642 237.501 220.93C238.101 221.218 238.707 221.554 239.319 221.938C239.931 222.31 240.519 222.724 241.083 223.18L240.255 224.134C239.511 223.582 238.827 223.108 238.203 222.712C237.591 222.304 236.985 221.95 236.385 221.65C235.785 221.35 235.149 221.086 234.477 220.858C233.805 220.63 233.043 220.42 232.191 220.228L232.461 218.986C232.881 219.106 233.283 219.196 233.667 219.256C234.063 219.304 234.537 219.328 235.089 219.328C235.941 219.328 236.595 219.226 237.051 219.022C237.519 218.818 237.843 218.554 238.023 218.23C238.203 217.906 238.293 217.576 238.293 217.24C238.293 216.604 238.059 216.118 237.591 215.782C237.123 215.434 236.529 215.26 235.809 215.26C235.377 215.26 235.029 215.302 234.765 215.386C234.501 215.47 234.309 215.596 234.189 215.764C234.081 215.92 234.027 216.112 234.027 216.34C234.027 216.436 234.039 216.538 234.063 216.646C234.087 216.742 234.111 216.832 234.135 216.916L232.821 217.186C232.761 217.006 232.713 216.82 232.677 216.628C232.641 216.424 232.623 216.244 232.623 216.088C232.623 215.644 232.755 215.266 233.019 214.954C233.283 214.642 233.643 214.408 234.099 214.252C234.567 214.084 235.107 214 235.719 214ZM234.513 214.63C234.453 214.246 234.273 213.91 233.973 213.622C233.673 213.322 233.241 213.112 232.677 212.992L233.109 212.182L233.937 212.398C234.609 212.662 235.095 212.962 235.395 213.298C235.707 213.634 235.887 214.06 235.935 214.576L234.513 214.63ZM241.083 211.804V213.082H231.183V211.804H241.083ZM247.316 211.804V213.082H246.956C246.584 213.166 246.182 213.352 245.75 213.64C245.318 213.916 244.91 214.282 244.526 214.738C244.142 215.182 243.824 215.704 243.572 216.304C243.332 216.904 243.212 217.564 243.212 218.284C243.212 219.148 243.338 219.838 243.59 220.354C243.854 220.858 244.178 221.218 244.562 221.434C244.946 221.65 245.33 221.758 245.714 221.758C246.014 221.758 246.266 221.728 246.47 221.668C246.674 221.608 246.908 221.5 247.172 221.344L247.802 222.442C247.49 222.682 247.148 222.85 246.776 222.946C246.404 223.042 246.032 223.09 245.66 223.09C244.904 223.09 244.232 222.892 243.644 222.496C243.068 222.1 242.612 221.548 242.276 220.84C241.952 220.12 241.79 219.28 241.79 218.32C241.79 217.336 241.976 216.448 242.348 215.656C242.72 214.852 243.218 214.174 243.842 213.622C244.478 213.07 245.18 212.668 245.948 212.416L244.796 213.01C244.58 213.034 244.346 213.052 244.094 213.064C243.842 213.076 243.56 213.082 243.248 213.082H240.728V211.804H247.316ZM258.039 211.804V213.082H256.149V223H254.763C254.403 222.28 253.905 221.62 253.269 221.02C252.645 220.408 251.925 219.892 251.109 219.472C250.293 219.052 249.423 218.77 248.499 218.626L247.797 216.898C248.949 216.202 250.137 215.572 251.361 215.008C252.597 214.444 253.869 213.964 255.177 213.568L254.763 214.324V213.082H246.951V211.804H258.039ZM254.763 214.468L255.141 214.972C254.229 215.272 253.269 215.644 252.261 216.088C251.253 216.52 250.323 217 249.471 217.528C250.119 217.672 250.809 217.918 251.541 218.266C252.273 218.614 252.951 219.052 253.575 219.58C254.199 220.108 254.679 220.72 255.015 221.416H254.853C254.829 221.14 254.805 220.864 254.781 220.588C254.769 220.312 254.763 219.982 254.763 219.598V214.468ZM268.972 211.804V213.082H268.612C268.24 213.166 267.838 213.352 267.406 213.64C266.974 213.916 266.566 214.282 266.182 214.738C265.798 215.182 265.48 215.704 265.228 216.304C264.988 216.904 264.868 217.564 264.868 218.284C264.868 219.148 264.994 219.838 265.246 220.354C265.51 220.858 265.834 221.218 266.218 221.434C266.602 221.65 266.986 221.758 267.37 221.758C267.67 221.758 267.922 221.728 268.126 221.668C268.33 221.608 268.564 221.5 268.828 221.344L269.458 222.442C269.146 222.682 268.804 222.85 268.432 222.946C268.06 223.042 267.682 223.09 267.298 223.09C266.542 223.09 265.876 222.892 265.3 222.496C264.724 222.1 264.268 221.548 263.932 220.84C263.608 220.12 263.446 219.28 263.446 218.32C263.446 217.396 263.59 216.574 263.878 215.854C264.178 215.122 264.562 214.486 265.03 213.946C265.51 213.406 266.026 212.962 266.578 212.614C267.13 212.254 267.664 211.984 268.18 211.804H268.972ZM283.493 211.804V213.082H277.643V214.198V214.486V223H276.257C275.909 222.292 275.423 221.626 274.799 221.002C274.175 220.378 273.461 219.856 272.657 219.436C271.865 219.004 271.031 218.734 270.155 218.626L269.453 216.898C270.617 216.226 271.781 215.626 272.945 215.098C274.109 214.57 275.345 214.102 276.653 213.694L276.257 214.45V213.082H268.607V211.804H283.493ZM276.257 214.594L276.635 215.116C276.023 215.284 275.387 215.506 274.727 215.782C274.079 216.058 273.443 216.346 272.819 216.646C272.207 216.946 271.643 217.24 271.127 217.528C271.799 217.66 272.489 217.912 273.197 218.284C273.917 218.656 274.571 219.112 275.159 219.652C275.759 220.18 276.203 220.756 276.491 221.38L276.347 221.416C276.323 221.14 276.299 220.864 276.275 220.588C276.263 220.312 276.257 219.982 276.257 219.598V214.594ZM282.485 217.816C282.485 218.212 282.407 218.59 282.251 218.95C282.095 219.298 281.837 219.586 281.477 219.814C281.117 220.042 280.637 220.156 280.037 220.156C279.845 220.156 279.659 220.15 279.479 220.138C279.311 220.126 279.143 220.102 278.975 220.066L279.083 218.77C279.155 218.782 279.239 218.794 279.335 218.806C279.443 218.806 279.563 218.806 279.695 218.806C280.271 218.806 280.643 218.698 280.811 218.482C280.991 218.254 281.081 217.984 281.081 217.672C281.081 217.036 280.769 216.496 280.145 216.052C279.533 215.596 278.621 215.284 277.409 215.116L277.463 213.766C278.387 213.862 279.227 214.096 279.983 214.468C280.739 214.828 281.345 215.296 281.801 215.872C282.257 216.436 282.485 217.084 282.485 217.816ZM294.359 211.804V213.082H292.469V223H291.083V218.626L291.371 219.634C290.975 219.082 290.543 218.584 290.075 218.14C289.607 217.696 289.127 217.342 288.635 217.078C288.143 216.814 287.663 216.682 287.195 216.682C286.751 216.682 286.373 216.802 286.061 217.042C285.761 217.27 285.611 217.612 285.611 218.068C285.611 218.428 285.737 218.74 285.989 219.004C286.241 219.256 286.631 219.484 287.159 219.688L286.475 220.966C285.743 220.666 285.167 220.264 284.747 219.76C284.339 219.244 284.135 218.662 284.135 218.014C284.135 217.426 284.273 216.94 284.549 216.556C284.837 216.16 285.197 215.866 285.629 215.674C286.073 215.482 286.523 215.386 286.979 215.386C287.603 215.386 288.173 215.494 288.689 215.71C289.205 215.926 289.685 216.22 290.129 216.592C290.585 216.964 291.017 217.396 291.425 217.888L291.173 217.96C291.137 217.684 291.113 217.414 291.101 217.15C291.089 216.874 291.083 216.598 291.083 216.322V213.082H283.127V211.804H294.359ZM305.222 211.804V213.082H303.332V223H301.946V218.626L302.234 219.634C301.838 219.082 301.406 218.584 300.938 218.14C300.47 217.696 299.99 217.342 299.498 217.078C299.006 216.814 298.526 216.682 298.058 216.682C297.614 216.682 297.236 216.802 296.924 217.042C296.624 217.27 296.474 217.612 296.474 218.068C296.474 218.428 296.6 218.74 296.852 219.004C297.104 219.256 297.494 219.484 298.022 219.688L297.338 220.966C296.606 220.666 296.03 220.264 295.61 219.76C295.202 219.244 294.998 218.662 294.998 218.014C294.998 217.426 295.136 216.94 295.412 216.556C295.7 216.16 296.06 215.866 296.492 215.674C296.936 215.482 297.386 215.386 297.842 215.386C298.466 215.386 299.036 215.494 299.552 215.71C300.068 215.926 300.548 216.22 300.992 216.592C301.448 216.964 301.88 217.396 302.288 217.888L302.036 217.96C302 217.684 301.976 217.414 301.964 217.15C301.952 216.874 301.946 216.598 301.946 216.322V213.082H293.99V211.804H305.222ZM310.001 211.804V213.082H308.111V223H306.725V214.558C306.581 214.15 306.365 213.802 306.077 213.514C305.801 213.226 305.441 213.082 304.997 213.082H304.853V211.804H305.123C305.411 211.804 305.711 211.9 306.023 212.092C306.335 212.272 306.587 212.554 306.779 212.938C306.767 212.878 306.755 212.74 306.743 212.524C306.731 212.308 306.725 212.122 306.725 211.966V210.616H307.697L308.093 211.804H310.001ZM323.723 211.696C324.215 211.696 324.623 211.75 324.947 211.858C325.283 211.954 325.565 212.104 325.793 212.308C326.021 212.5 326.201 212.74 326.333 213.028C326.465 213.304 326.531 213.688 326.531 214.18V223H325.181C325.085 222.64 324.947 222.346 324.767 222.118C324.587 221.89 324.365 221.722 324.101 221.614C323.849 221.494 323.543 221.434 323.183 221.434C322.751 221.434 322.349 221.458 321.977 221.506C321.605 221.554 321.215 221.608 320.807 221.668C320.411 221.716 319.949 221.74 319.421 221.74C319.013 221.74 318.575 221.698 318.107 221.614C317.639 221.518 317.195 221.344 316.775 221.092C316.355 220.84 316.013 220.468 315.749 219.976C315.485 219.472 315.353 218.812 315.353 217.996C315.353 217.708 315.377 217.408 315.425 217.096C315.473 216.772 315.521 216.478 315.569 216.214L316.955 216.412C316.907 216.592 316.859 216.808 316.811 217.06C316.775 217.312 316.757 217.612 316.757 217.96C316.757 218.488 316.835 218.914 316.991 219.238C317.147 219.562 317.357 219.808 317.621 219.976C317.885 220.144 318.179 220.258 318.503 220.318C318.827 220.378 319.157 220.408 319.493 220.408C320.093 220.408 320.639 220.36 321.131 220.264C321.635 220.156 322.199 220.102 322.823 220.102C323.339 220.102 323.789 220.18 324.173 220.336C324.557 220.48 324.881 220.732 325.145 221.092V214.666C325.145 214.222 325.115 213.904 325.055 213.712C324.995 213.52 324.899 213.364 324.767 213.244C324.551 213.064 324.221 212.974 323.777 212.974C323.345 212.974 322.931 213.07 322.535 213.262C322.151 213.454 321.803 213.7 321.491 214C321.191 214.3 320.951 214.624 320.771 214.972C320.603 215.308 320.519 215.626 320.519 215.926C320.519 216.046 320.543 216.172 320.591 216.304C320.639 216.436 320.741 216.55 320.897 216.646C321.053 216.742 321.281 216.79 321.581 216.79C321.713 216.79 321.839 216.784 321.959 216.772C322.079 216.76 322.205 216.748 322.337 216.736L322.463 217.996C322.343 218.044 322.181 218.08 321.977 218.104C321.785 218.128 321.557 218.14 321.293 218.14C320.705 218.14 320.189 217.96 319.745 217.6C319.313 217.24 319.097 216.688 319.097 215.944C319.097 215.464 319.217 214.978 319.457 214.486C319.709 213.982 320.051 213.52 320.483 213.1C320.915 212.68 321.407 212.344 321.959 212.092C322.523 211.828 323.111 211.696 323.723 211.696ZM339.074 211.804V213.082H337.184V223H335.798C335.438 222.28 334.94 221.62 334.304 221.02C333.68 220.408 332.96 219.892 332.144 219.472C331.328 219.052 330.458 218.77 329.534 218.626L328.832 216.898C329.984 216.202 331.172 215.572 332.396 215.008C333.632 214.444 334.904 213.964 336.212 213.568L335.798 214.324V213.082H327.986V211.804H339.074ZM335.798 214.468L336.176 214.972C335.264 215.272 334.304 215.644 333.296 216.088C332.288 216.52 331.358 217 330.506 217.528C331.154 217.672 331.844 217.918 332.576 218.266C333.308 218.614 333.986 219.052 334.61 219.58C335.234 220.108 335.714 220.72 336.05 221.416H335.888C335.864 221.14 335.84 220.864 335.816 220.588C335.804 220.312 335.798 219.982 335.798 219.598V214.468ZM331.496 223.108C331.196 223.108 330.938 223.012 330.722 222.82C330.518 222.628 330.416 222.376 330.416 222.064C330.416 221.752 330.518 221.494 330.722 221.29C330.938 221.086 331.196 220.984 331.496 220.984C331.796 220.984 332.048 221.086 332.252 221.29C332.468 221.494 332.576 221.752 332.576 222.064C332.576 222.376 332.468 222.628 332.252 222.82C332.048 223.012 331.796 223.108 331.496 223.108ZM74.6904 238.804V240.082H72.8904V250H71.5044C71.1564 249.292 70.7244 248.674 70.2084 248.146C69.6924 247.606 69.1404 247.144 68.5524 246.76L69.0024 245.572C69.4584 245.836 69.9324 246.196 70.4244 246.652C70.9164 247.108 71.2944 247.57 71.5584 248.038C71.5464 247.858 71.5344 247.69 71.5224 247.534C71.5224 247.378 71.5164 247.216 71.5044 247.048C71.5044 246.88 71.5044 246.7 71.5044 246.508V240.082H58.3464V238.804H74.6904ZM65.2944 248.362C64.4784 248.362 63.6984 248.17 62.9544 247.786C62.2104 247.402 61.5084 246.754 60.8484 245.842C60.2004 244.918 59.6004 243.652 59.0484 242.044L60.3624 241.612C60.7944 242.86 61.2444 243.886 61.7124 244.69C62.1924 245.482 62.7264 246.064 63.3144 246.436C63.9024 246.808 64.5744 246.994 65.3304 246.994C65.9904 246.994 66.5184 246.892 66.9144 246.688C67.3224 246.472 67.6164 246.184 67.7964 245.824C67.9764 245.464 68.0664 245.056 68.0664 244.6C68.0664 243.904 67.8744 243.34 67.4904 242.908C67.1184 242.476 66.6504 242.26 66.0864 242.26C65.6904 242.26 65.3904 242.35 65.1864 242.53C64.9824 242.698 64.8804 242.956 64.8804 243.304C64.8804 243.388 64.8924 243.502 64.9164 243.646C64.9404 243.79 64.9764 243.922 65.0244 244.042L63.6564 244.312C63.5724 244.06 63.5064 243.832 63.4584 243.628C63.4224 243.412 63.4044 243.208 63.4044 243.016C63.4044 242.572 63.5244 242.2 63.7644 241.9C64.0164 241.6 64.3344 241.378 64.7184 241.234C65.1144 241.078 65.5284 241 65.9604 241C66.6684 241 67.2804 241.162 67.7964 241.486C68.3124 241.798 68.7144 242.23 69.0024 242.782C69.2904 243.334 69.4344 243.976 69.4344 244.708C69.4344 245.356 69.2844 245.962 68.9844 246.526C68.6844 247.078 68.2284 247.522 67.6164 247.858C67.0044 248.194 66.2304 248.362 65.2944 248.362ZM64.7184 241.63C64.6584 241.246 64.4784 240.91 64.1784 240.622C63.8904 240.322 63.4644 240.112 62.9004 239.992L63.3324 239.182L64.1424 239.398C64.8264 239.662 65.3184 239.962 65.6184 240.298C65.9184 240.634 66.0924 241.06 66.1404 241.576L64.7184 241.63ZM79.5504 238.804V240.082H77.6604V250H76.2744V241.378C76.0704 240.91 75.8364 240.58 75.5724 240.388C75.3204 240.184 75.0204 240.082 74.6724 240.082H74.4924V238.804H74.6724C75.0084 238.804 75.3204 238.9 75.6084 239.092C75.9084 239.272 76.1544 239.554 76.3464 239.938C76.3344 239.878 76.3164 239.74 76.2924 239.524C76.2804 239.308 76.2744 239.122 76.2744 238.966V237.616H77.2284L77.6424 238.804H79.5504ZM85.782 238.804V240.082H85.422C85.05 240.166 84.648 240.352 84.216 240.64C83.784 240.916 83.376 241.282 82.992 241.738C82.608 242.182 82.29 242.704 82.038 243.304C81.798 243.904 81.678 244.564 81.678 245.284C81.678 246.148 81.804 246.838 82.056 247.354C82.32 247.858 82.644 248.218 83.028 248.434C83.412 248.65 83.796 248.758 84.18 248.758C84.48 248.758 84.732 248.728 84.936 248.668C85.14 248.608 85.374 248.5 85.638 248.344L86.268 249.442C85.956 249.682 85.614 249.85 85.242 249.946C84.87 250.042 84.498 250.09 84.126 250.09C83.37 250.09 82.698 249.892 82.11 249.496C81.534 249.1 81.078 248.548 80.742 247.84C80.418 247.12 80.256 246.28 80.256 245.32C80.256 244.336 80.442 243.448 80.814 242.656C81.186 241.852 81.684 241.174 82.308 240.622C82.944 240.07 83.646 239.668 84.414 239.416L83.262 240.01C83.046 240.034 82.812 240.052 82.56 240.064C82.308 240.076 82.026 240.082 81.714 240.082H79.194V238.804H85.782ZM94.3087 250V242.35L94.6867 243.484C94.2667 242.884 93.8707 242.368 93.4987 241.936C93.1387 241.492 92.7907 241.126 92.4547 240.838C92.1187 240.55 91.7767 240.34 91.4287 240.208C91.0807 240.064 90.7147 239.992 90.3307 239.992C89.6947 239.992 89.1787 240.16 88.7827 240.496C88.3987 240.82 88.0567 241.198 87.7567 241.63L87.5047 241.774C87.6727 241.618 87.9307 241.492 88.2787 241.396C88.6267 241.288 89.0287 241.234 89.4847 241.234C90.0367 241.234 90.4807 241.342 90.8167 241.558C91.1647 241.774 91.4167 242.05 91.5727 242.386C91.7407 242.71 91.8247 243.034 91.8247 243.358C91.8247 244.066 91.5847 244.702 91.1047 245.266C90.6247 245.818 89.8807 246.364 88.8727 246.904L87.9547 245.59C88.6147 245.314 89.1847 245.008 89.6647 244.672C90.1447 244.324 90.3847 243.91 90.3847 243.43C90.3847 243.166 90.2827 242.944 90.0787 242.764C89.8747 242.584 89.5807 242.494 89.1967 242.494C88.8847 242.494 88.5907 242.53 88.3147 242.602C88.0507 242.674 87.7627 242.788 87.4507 242.944L85.9927 241.756C86.3647 241.132 86.7607 240.592 87.1807 240.136C87.6007 239.668 88.0567 239.308 88.5487 239.056C89.0527 238.804 89.5987 238.678 90.1867 238.678C90.7867 238.678 91.3327 238.786 91.8247 239.002C92.3287 239.206 92.8147 239.518 93.2827 239.938C93.7627 240.358 94.2427 240.88 94.7227 241.504L94.3987 241.306C94.3747 241.138 94.3507 240.88 94.3267 240.532C94.3147 240.184 94.3087 239.83 94.3087 239.47V237.616H95.2627L95.6767 238.804H97.5847V240.082H95.6947V250H94.3087ZM108.317 238.804V240.082H106.427V250H105.041C104.681 249.28 104.183 248.62 103.547 248.02C102.923 247.408 102.203 246.892 101.387 246.472C100.571 246.052 99.7012 245.77 98.7772 245.626L98.0752 243.898C99.2272 243.202 100.415 242.572 101.639 242.008C102.875 241.444 104.147 240.964 105.455 240.568L105.041 241.324V240.082H97.2292V238.804H108.317ZM105.041 241.468L105.419 241.972C104.507 242.272 103.547 242.644 102.539 243.088C101.531 243.52 100.601 244 99.7492 244.528C100.397 244.672 101.087 244.918 101.819 245.266C102.551 245.614 103.229 246.052 103.853 246.58C104.477 247.108 104.957 247.72 105.293 248.416H105.131C105.107 248.14 105.083 247.864 105.059 247.588C105.047 247.312 105.041 246.982 105.041 246.598V241.468ZM100.739 250.108C100.439 250.108 100.181 250.012 99.9652 249.82C99.7612 249.628 99.6592 249.376 99.6592 249.064C99.6592 248.752 99.7612 248.494 99.9652 248.29C100.181 248.086 100.439 247.984 100.739 247.984C101.039 247.984 101.291 248.086 101.495 248.29C101.711 248.494 101.819 248.752 101.819 249.064C101.819 249.376 101.711 249.628 101.495 249.82C101.291 250.012 101.039 250.108 100.739 250.108ZM129.097 238.804V240.082H127.207V250H125.821C125.473 249.292 125.041 248.674 124.525 248.146C124.009 247.606 123.457 247.144 122.869 246.76L123.319 245.572C123.775 245.836 124.249 246.196 124.741 246.652C125.233 247.108 125.611 247.57 125.875 248.038C125.863 247.858 125.851 247.69 125.839 247.534C125.839 247.378 125.833 247.216 125.821 247.048C125.821 246.88 125.821 246.7 125.821 246.508V240.082H112.663V238.804H129.097ZM119.611 248.362C118.795 248.362 118.015 248.17 117.271 247.786C116.527 247.402 115.825 246.754 115.165 245.842C114.517 244.918 113.917 243.652 113.365 242.044L114.679 241.612C115.111 242.86 115.561 243.886 116.029 244.69C116.509 245.482 117.043 246.064 117.631 246.436C118.219 246.808 118.891 246.994 119.647 246.994C120.307 246.994 120.835 246.892 121.231 246.688C121.639 246.472 121.933 246.184 122.113 245.824C122.293 245.452 122.383 245.044 122.383 244.6C122.383 243.904 122.191 243.34 121.807 242.908C121.435 242.476 120.967 242.26 120.403 242.26C120.007 242.26 119.707 242.35 119.503 242.53C119.299 242.698 119.197 242.956 119.197 243.304C119.197 243.388 119.209 243.502 119.233 243.646C119.257 243.79 119.293 243.922 119.341 244.042L117.973 244.312C117.889 244.06 117.823 243.832 117.775 243.628C117.739 243.412 117.721 243.208 117.721 243.016C117.721 242.572 117.841 242.2 118.081 241.9C118.333 241.6 118.651 241.378 119.035 241.234C119.431 241.078 119.845 241 120.277 241C120.985 241 121.597 241.162 122.113 241.486C122.629 241.798 123.031 242.23 123.319 242.782C123.607 243.334 123.751 243.976 123.751 244.708C123.751 245.356 123.601 245.962 123.301 246.526C123.001 247.078 122.545 247.522 121.933 247.858C121.321 248.194 120.547 248.362 119.611 248.362ZM119.035 241.63C118.975 241.246 118.795 240.91 118.495 240.622C118.207 240.322 117.781 240.112 117.217 239.992L117.649 239.182L118.459 239.398C119.143 239.662 119.635 239.962 119.935 240.298C120.235 240.634 120.409 241.06 120.457 241.576L119.035 241.63ZM145.631 238.804V240.082H139.961V250H138.575V248.488L138.665 248.02C138.641 247.876 138.617 247.648 138.593 247.336C138.581 247.012 138.575 246.688 138.575 246.364V242.458V242.242V240.082H128.729V238.804H145.631ZM144.677 245.122C144.677 245.482 144.599 245.836 144.443 246.184C144.299 246.52 144.053 246.796 143.705 247.012C143.369 247.228 142.907 247.336 142.319 247.336C142.151 247.336 141.977 247.33 141.797 247.318C141.629 247.306 141.467 247.282 141.311 247.246L141.419 245.95C141.479 245.962 141.569 245.974 141.689 245.986C141.809 245.986 141.917 245.986 142.013 245.986C142.541 245.986 142.883 245.89 143.039 245.698C143.207 245.494 143.291 245.272 143.291 245.032C143.291 244.804 143.249 244.606 143.165 244.438C143.081 244.258 142.961 244.108 142.805 243.988C142.505 243.748 142.091 243.574 141.563 243.466C141.035 243.358 140.381 243.304 139.601 243.304H138.989C138.281 243.304 137.645 243.22 137.081 243.052C136.529 242.872 136.091 242.572 135.767 242.152C135.455 241.732 135.299 241.162 135.299 240.442C135.299 240.334 135.305 240.208 135.317 240.064C135.341 239.908 135.365 239.758 135.389 239.614L136.739 239.722C136.727 239.83 136.709 239.938 136.685 240.046C136.673 240.154 136.667 240.256 136.667 240.352C136.667 241.06 136.877 241.522 137.297 241.738C137.717 241.942 138.293 242.044 139.025 242.044H139.583C140.759 242.044 141.671 242.146 142.319 242.35C142.967 242.542 143.483 242.812 143.867 243.16C144.167 243.424 144.377 243.724 144.497 244.06C144.617 244.384 144.677 244.738 144.677 245.122ZM135.155 245.23C135.671 245.23 136.151 245.344 136.595 245.572C137.051 245.788 137.471 246.088 137.855 246.472C138.239 246.844 138.575 247.264 138.863 247.732L138.881 249.01L138.683 249.388C138.299 248.776 137.921 248.26 137.549 247.84C137.177 247.408 136.799 247.078 136.415 246.85C136.043 246.622 135.647 246.508 135.227 246.508C135.023 246.508 134.849 246.544 134.705 246.616C134.573 246.676 134.471 246.766 134.399 246.886C134.327 247.006 134.291 247.156 134.291 247.336C134.291 247.528 134.315 247.696 134.363 247.84C134.411 247.984 134.459 248.11 134.507 248.218L133.121 248.506C133.037 248.338 132.965 248.146 132.905 247.93C132.845 247.714 132.815 247.504 132.815 247.3C132.815 246.964 132.875 246.67 132.995 246.418C133.115 246.154 133.277 245.938 133.481 245.77C133.697 245.59 133.943 245.458 134.219 245.374C134.507 245.278 134.819 245.23 135.155 245.23ZM132.239 241.666C132.863 241.666 133.427 241.804 133.931 242.08C134.435 242.356 134.837 242.758 135.137 243.286C135.437 243.814 135.587 244.462 135.587 245.23C135.587 245.458 135.575 245.662 135.551 245.842C135.527 246.022 135.503 246.172 135.479 246.292L134.075 246.256C134.123 246.1 134.153 245.944 134.165 245.788C134.189 245.632 134.201 245.5 134.201 245.392C134.201 244.996 134.141 244.612 134.021 244.24C133.901 243.868 133.703 243.562 133.427 243.322C133.163 243.07 132.797 242.944 132.329 242.944C131.945 242.944 131.669 243.028 131.501 243.196C131.345 243.364 131.267 243.58 131.267 243.844C131.267 243.94 131.279 244.048 131.303 244.168C131.339 244.288 131.381 244.408 131.429 244.528L130.025 244.816C129.941 244.636 129.875 244.45 129.827 244.258C129.791 244.066 129.773 243.886 129.773 243.718C129.773 243.406 129.833 243.124 129.953 242.872C130.073 242.62 130.241 242.404 130.457 242.224C130.673 242.044 130.931 241.906 131.231 241.81C131.531 241.714 131.867 241.666 132.239 241.666ZM131.123 242.71C131.147 242.614 131.159 242.5 131.159 242.368C131.171 242.224 131.177 242.074 131.177 241.918C131.177 241.426 131.057 240.946 130.817 240.478C130.577 239.998 130.193 239.68 129.665 239.524L131.339 239.164C131.747 239.5 132.047 239.878 132.239 240.298C132.443 240.718 132.545 241.252 132.545 241.9C132.545 242.068 132.533 242.224 132.509 242.368C132.497 242.5 132.479 242.644 132.455 242.8L131.123 242.71ZM156.358 238.804V240.082H154.468V250H153.082C152.722 249.28 152.224 248.62 151.588 248.02C150.964 247.408 150.244 246.892 149.428 246.472C148.612 246.052 147.742 245.77 146.818 245.626L146.116 243.898C147.268 243.202 148.456 242.572 149.68 242.008C150.916 241.444 152.188 240.964 153.496 240.568L153.082 241.324V240.082H145.27V238.804H156.358ZM153.082 241.468L153.46 241.972C152.548 242.272 151.588 242.644 150.58 243.088C149.572 243.52 148.642 244 147.79 244.528C148.438 244.672 149.128 244.918 149.86 245.266C150.592 245.614 151.27 246.052 151.894 246.58C152.518 247.108 152.998 247.72 153.334 248.416H153.172C153.148 248.14 153.124 247.864 153.1 247.588C153.088 247.312 153.082 246.982 153.082 246.598V241.468ZM148.78 250.108C148.48 250.108 148.222 250.012 148.006 249.82C147.802 249.628 147.7 249.376 147.7 249.064C147.7 248.752 147.802 248.494 148.006 248.29C148.222 248.086 148.48 247.984 148.78 247.984C149.08 247.984 149.332 248.086 149.536 248.29C149.752 248.494 149.86 248.752 149.86 249.064C149.86 249.376 149.752 249.628 149.536 249.82C149.332 250.012 149.08 250.108 148.78 250.108ZM172.26 238.804V240.082H170.37V250H168.984V247.57L169.308 248.524C168.888 247.888 168.462 247.3 168.03 246.76C167.61 246.22 167.16 245.782 166.68 245.446C166.212 245.11 165.696 244.942 165.132 244.942C164.688 244.942 164.31 245.056 163.998 245.284C163.698 245.512 163.548 245.854 163.548 246.31C163.548 246.706 163.692 247.042 163.98 247.318C164.268 247.582 164.694 247.81 165.258 248.002L164.808 249.388C164.16 249.16 163.632 248.884 163.224 248.56C162.828 248.236 162.534 247.882 162.342 247.498C162.162 247.102 162.072 246.688 162.072 246.256C162.072 245.68 162.21 245.2 162.486 244.816C162.774 244.432 163.134 244.144 163.566 243.952C164.01 243.748 164.454 243.646 164.898 243.646C165.618 243.646 166.248 243.778 166.788 244.042C167.34 244.306 167.82 244.66 168.228 245.104C168.648 245.548 169.026 246.046 169.362 246.598L169.056 246.652C169.032 246.376 169.014 246.1 169.002 245.824C168.99 245.536 168.984 245.242 168.984 244.942V240.082H160.704V238.804H172.26ZM166.266 244.186C166.266 244.258 166.26 244.33 166.248 244.402C166.248 244.474 166.242 244.546 166.23 244.618L164.862 244.204C164.838 243.508 164.718 242.95 164.502 242.53C164.286 242.11 163.944 241.792 163.476 241.576C163.008 241.348 162.372 241.192 161.568 241.108L161.802 239.812L162.63 240.046C163.206 240.094 163.716 240.214 164.16 240.406C164.616 240.586 165 240.844 165.312 241.18C165.624 241.516 165.858 241.936 166.014 242.44C166.182 242.932 166.266 243.514 166.266 244.186ZM177.049 240.082H175.159V250H173.773V240.082H171.901V238.804H173.773C173.725 238.024 173.521 237.37 173.161 236.842C172.813 236.314 172.357 235.9 171.793 235.6C171.217 235.288 170.569 235.066 169.849 234.934C169.117 234.802 168.349 234.736 167.545 234.736C166.837 234.736 166.231 234.778 165.727 234.862C165.211 234.934 164.815 235.042 164.539 235.186C164.263 235.33 164.125 235.516 164.125 235.744C164.125 235.972 164.269 236.116 164.557 236.176C164.845 236.236 165.163 236.266 165.511 236.266H167.239C167.875 236.266 168.379 236.32 168.751 236.428C169.123 236.536 169.423 236.71 169.651 236.95C169.879 237.178 170.041 237.448 170.137 237.76C170.233 238.072 170.281 238.462 170.281 238.93H169.075C169.063 238.642 169.027 238.408 168.967 238.228C168.907 238.036 168.811 237.892 168.679 237.796C168.559 237.7 168.415 237.634 168.247 237.598C168.067 237.562 167.821 237.544 167.509 237.544H165.727C165.235 237.544 164.803 237.514 164.431 237.454C164.059 237.382 163.753 237.286 163.513 237.166C163.213 236.998 163.003 236.794 162.883 236.554C162.763 236.314 162.703 236.062 162.703 235.798C162.703 235.102 163.093 234.544 163.873 234.124C164.653 233.704 165.841 233.494 167.437 233.494C169.873 233.494 171.745 233.926 173.053 234.79C174.373 235.642 175.093 236.98 175.213 238.804H177.049V240.082ZM188.238 238.804V240.082H186.348V250H184.962V247.57L185.286 248.524C184.866 247.888 184.44 247.3 184.008 246.76C183.588 246.22 183.138 245.782 182.658 245.446C182.19 245.11 181.674 244.942 181.11 244.942C180.666 244.942 180.288 245.056 179.976 245.284C179.676 245.512 179.526 245.854 179.526 246.31C179.526 246.706 179.67 247.042 179.958 247.318C180.246 247.582 180.672 247.81 181.236 248.002L180.786 249.388C180.138 249.16 179.61 248.884 179.202 248.56C178.806 248.236 178.512 247.882 178.32 247.498C178.14 247.102 178.05 246.688 178.05 246.256C178.05 245.68 178.188 245.2 178.464 244.816C178.752 244.432 179.112 244.144 179.544 243.952C179.988 243.748 180.432 243.646 180.876 243.646C181.596 243.646 182.226 243.778 182.766 244.042C183.318 244.306 183.798 244.66 184.206 245.104C184.626 245.548 185.004 246.046 185.34 246.598L185.034 246.652C185.01 246.376 184.992 246.1 184.98 245.824C184.968 245.536 184.962 245.242 184.962 244.942V240.082H176.682V238.804H188.238ZM182.244 244.186C182.244 244.258 182.238 244.33 182.226 244.402C182.226 244.474 182.22 244.546 182.208 244.618L180.84 244.204C180.816 243.508 180.696 242.95 180.48 242.53C180.264 242.11 179.922 241.792 179.454 241.576C178.986 241.348 178.35 241.192 177.546 241.108L177.78 239.812L178.608 240.046C179.184 240.094 179.694 240.214 180.138 240.406C180.594 240.586 180.978 240.844 181.29 241.18C181.602 241.516 181.836 241.936 181.992 242.44C182.16 242.932 182.244 243.514 182.244 244.186ZM201.969 238.696C202.461 238.696 202.869 238.75 203.193 238.858C203.529 238.954 203.811 239.104 204.039 239.308C204.267 239.5 204.447 239.74 204.579 240.028C204.711 240.304 204.777 240.688 204.777 241.18V250H203.427C203.331 249.64 203.193 249.346 203.013 249.118C202.833 248.89 202.611 248.722 202.347 248.614C202.095 248.494 201.789 248.434 201.429 248.434C200.997 248.434 200.595 248.458 200.223 248.506C199.851 248.554 199.461 248.608 199.053 248.668C198.657 248.716 198.195 248.74 197.667 248.74C197.259 248.74 196.821 248.698 196.353 248.614C195.885 248.518 195.441 248.344 195.021 248.092C194.601 247.84 194.259 247.468 193.995 246.976C193.731 246.472 193.599 245.812 193.599 244.996C193.599 244.708 193.623 244.408 193.671 244.096C193.719 243.772 193.767 243.478 193.815 243.214L195.201 243.412C195.153 243.592 195.105 243.808 195.057 244.06C195.021 244.312 195.003 244.612 195.003 244.96C195.003 245.488 195.081 245.914 195.237 246.238C195.393 246.562 195.603 246.808 195.867 246.976C196.131 247.144 196.425 247.258 196.749 247.318C197.073 247.378 197.403 247.408 197.739 247.408C198.339 247.408 198.885 247.36 199.377 247.264C199.881 247.156 200.445 247.102 201.069 247.102C201.585 247.102 202.035 247.18 202.419 247.336C202.803 247.48 203.127 247.732 203.391 248.092V241.666C203.391 241.222 203.361 240.904 203.301 240.712C203.241 240.52 203.145 240.364 203.013 240.244C202.797 240.064 202.467 239.974 202.023 239.974C201.591 239.974 201.177 240.07 200.781 240.262C200.397 240.454 200.049 240.7 199.737 241C199.437 241.3 199.197 241.624 199.017 241.972C198.849 242.308 198.765 242.626 198.765 242.926C198.765 243.046 198.789 243.172 198.837 243.304C198.885 243.436 198.987 243.55 199.143 243.646C199.299 243.742 199.527 243.79 199.827 243.79C199.959 243.79 200.085 243.784 200.205 243.772C200.325 243.76 200.451 243.748 200.583 243.736L200.709 244.996C200.589 245.044 200.427 245.08 200.223 245.104C200.031 245.128 199.803 245.14 199.539 245.14C198.951 245.14 198.435 244.96 197.991 244.6C197.559 244.24 197.343 243.688 197.343 242.944C197.343 242.464 197.463 241.978 197.703 241.486C197.955 240.982 198.297 240.52 198.729 240.1C199.161 239.68 199.653 239.344 200.205 239.092C200.769 238.828 201.357 238.696 201.969 238.696ZM217.53 238.804V240.082H217.17C216.798 240.166 216.396 240.352 215.964 240.64C215.532 240.916 215.124 241.282 214.74 241.738C214.356 242.182 214.038 242.704 213.786 243.304C213.546 243.904 213.426 244.564 213.426 245.284C213.426 246.148 213.552 246.838 213.804 247.354C214.068 247.858 214.392 248.218 214.776 248.434C215.16 248.65 215.544 248.758 215.928 248.758C216.228 248.758 216.48 248.728 216.684 248.668C216.888 248.608 217.122 248.5 217.386 248.344L218.016 249.442C217.704 249.682 217.362 249.85 216.99 249.946C216.618 250.042 216.24 250.09 215.856 250.09C215.1 250.09 214.434 249.892 213.858 249.496C213.282 249.1 212.826 248.548 212.49 247.84C212.166 247.12 212.004 246.28 212.004 245.32C212.004 244.396 212.148 243.574 212.436 242.854C212.736 242.122 213.12 241.486 213.588 240.946C214.068 240.406 214.584 239.962 215.136 239.614C215.688 239.254 216.222 238.984 216.738 238.804H217.53ZM228.793 238.804V240.082H226.903V250H225.517C225.013 249.328 224.455 248.74 223.843 248.236C223.231 247.72 222.523 247.288 221.719 246.94C220.915 246.592 219.961 246.34 218.857 246.184L218.209 244.546C218.581 244.294 218.971 244.054 219.379 243.826C219.787 243.598 220.201 243.376 220.621 243.16C221.053 242.944 221.473 242.74 221.881 242.548C221.425 242.2 220.897 241.894 220.297 241.63C219.709 241.354 219.013 241.132 218.209 240.964L218.767 239.74L218.803 240.082H217.165V238.804H228.793ZM225.517 240.082H219.775L219.397 239.92C219.901 240.04 220.405 240.232 220.909 240.496C221.425 240.76 221.899 241.048 222.331 241.36C222.775 241.66 223.129 241.948 223.393 242.224L223.483 243.232C223.051 243.424 222.595 243.634 222.115 243.862C221.647 244.09 221.191 244.318 220.747 244.546C220.315 244.774 219.931 245.002 219.595 245.23L219.379 244.96C220.411 245.104 221.311 245.344 222.079 245.68C222.859 246.016 223.549 246.424 224.149 246.904C224.749 247.384 225.301 247.918 225.805 248.506L225.571 248.578C225.559 248.326 225.547 248.056 225.535 247.768C225.523 247.468 225.517 247.186 225.517 246.922V240.082ZM239.52 238.804V240.082H237.63V250H236.244C235.884 249.28 235.386 248.62 234.75 248.02C234.126 247.408 233.406 246.892 232.59 246.472C231.774 246.052 230.904 245.77 229.98 245.626L229.278 243.898C230.43 243.202 231.618 242.572 232.842 242.008C234.078 241.444 235.35 240.964 236.658 240.568L236.244 241.324V240.082H228.432V238.804H239.52ZM236.244 241.468L236.622 241.972C235.71 242.272 234.75 242.644 233.742 243.088C232.734 243.52 231.804 244 230.952 244.528C231.6 244.672 232.29 244.918 233.022 245.266C233.754 245.614 234.432 246.052 235.056 246.58C235.68 247.108 236.16 247.72 236.496 248.416H236.334C236.31 248.14 236.286 247.864 236.262 247.588C236.25 247.312 236.244 246.982 236.244 246.598V241.468ZM231.942 250.108C231.642 250.108 231.384 250.012 231.168 249.82C230.964 249.628 230.862 249.376 230.862 249.064C230.862 248.752 230.964 248.494 231.168 248.29C231.384 248.086 231.642 247.984 231.942 247.984C232.242 247.984 232.494 248.086 232.698 248.29C232.914 248.494 233.022 248.752 233.022 249.064C233.022 249.376 232.914 249.628 232.698 249.82C232.494 250.012 232.242 250.108 231.942 250.108ZM260.21 238.804V240.082H258.41V250H257.024C256.676 249.292 256.244 248.674 255.728 248.146C255.212 247.606 254.66 247.144 254.072 246.76L254.522 245.572C254.978 245.836 255.452 246.196 255.944 246.652C256.436 247.108 256.814 247.57 257.078 248.038C257.066 247.858 257.054 247.69 257.042 247.534C257.042 247.378 257.036 247.216 257.024 247.048C257.024 246.88 257.024 246.7 257.024 246.508V240.082H243.866V238.804H260.21ZM250.814 248.362C249.998 248.362 249.218 248.17 248.474 247.786C247.73 247.402 247.028 246.754 246.368 245.842C245.72 244.918 245.12 243.652 244.568 242.044L245.882 241.612C246.314 242.86 246.764 243.886 247.232 244.69C247.712 245.482 248.246 246.064 248.834 246.436C249.422 246.808 250.094 246.994 250.85 246.994C251.51 246.994 252.038 246.892 252.434 246.688C252.842 246.472 253.136 246.184 253.316 245.824C253.496 245.464 253.586 245.056 253.586 244.6C253.586 243.904 253.394 243.34 253.01 242.908C252.638 242.476 252.17 242.26 251.606 242.26C251.21 242.26 250.91 242.35 250.706 242.53C250.502 242.698 250.4 242.956 250.4 243.304C250.4 243.388 250.412 243.502 250.436 243.646C250.46 243.79 250.496 243.922 250.544 244.042L249.176 244.312C249.092 244.06 249.026 243.832 248.978 243.628C248.942 243.412 248.924 243.208 248.924 243.016C248.924 242.572 249.044 242.2 249.284 241.9C249.536 241.6 249.854 241.378 250.238 241.234C250.634 241.078 251.048 241 251.48 241C252.188 241 252.8 241.162 253.316 241.486C253.832 241.798 254.234 242.23 254.522 242.782C254.81 243.334 254.954 243.976 254.954 244.708C254.954 245.356 254.804 245.962 254.504 246.526C254.204 247.078 253.748 247.522 253.136 247.858C252.524 248.194 251.75 248.362 250.814 248.362ZM250.238 241.63C250.178 241.246 249.998 240.91 249.698 240.622C249.41 240.322 248.984 240.112 248.42 239.992L248.852 239.182L249.662 239.398C250.346 239.662 250.838 239.962 251.138 240.298C251.438 240.634 251.612 241.06 251.66 241.576L250.238 241.63ZM265.07 238.804V240.082H263.18V250H261.794V241.378C261.59 240.91 261.356 240.58 261.092 240.388C260.84 240.184 260.54 240.082 260.192 240.082H260.012V238.804H260.192C260.528 238.804 260.84 238.9 261.128 239.092C261.428 239.272 261.674 239.554 261.866 239.938C261.854 239.878 261.836 239.74 261.812 239.524C261.8 239.308 261.794 239.122 261.794 238.966V237.616H262.748L263.162 238.804H265.07ZM271.302 238.804V240.082H270.942C270.57 240.166 270.168 240.352 269.736 240.64C269.304 240.916 268.896 241.282 268.512 241.738C268.128 242.182 267.81 242.704 267.558 243.304C267.318 243.904 267.198 244.564 267.198 245.284C267.198 246.148 267.324 246.838 267.576 247.354C267.84 247.858 268.164 248.218 268.548 248.434C268.932 248.65 269.316 248.758 269.7 248.758C270 248.758 270.252 248.728 270.456 248.668C270.66 248.608 270.894 248.5 271.158 248.344L271.788 249.442C271.476 249.682 271.134 249.85 270.762 249.946C270.39 250.042 270.018 250.09 269.646 250.09C268.89 250.09 268.218 249.892 267.63 249.496C267.054 249.1 266.598 248.548 266.262 247.84C265.938 247.12 265.776 246.28 265.776 245.32C265.776 244.336 265.962 243.448 266.334 242.656C266.706 241.852 267.204 241.174 267.828 240.622C268.464 240.07 269.166 239.668 269.934 239.416L268.782 240.01C268.566 240.034 268.332 240.052 268.08 240.064C267.828 240.076 267.546 240.082 267.234 240.082H264.714V238.804H271.302ZM282.186 244.42C282.186 245.08 282.06 245.644 281.808 246.112C281.556 246.568 281.226 246.946 280.818 247.246C280.41 247.546 279.954 247.78 279.45 247.948C278.958 248.104 278.46 248.206 277.956 248.254L277.578 247.84C278.238 247.936 278.874 248.068 279.486 248.236C280.11 248.392 280.746 248.602 281.394 248.866C282.042 249.118 282.72 249.43 283.428 249.802L282.798 250.882C281.862 250.378 280.902 249.958 279.918 249.622C278.946 249.274 277.938 248.998 276.894 248.794C275.862 248.578 274.794 248.416 273.69 248.308L273.852 247.012C274.2 247.084 274.566 247.144 274.95 247.192C275.346 247.24 275.808 247.264 276.336 247.264C277.404 247.264 278.262 247.126 278.91 246.85C279.57 246.574 280.05 246.22 280.35 245.788C280.65 245.344 280.8 244.888 280.8 244.42C280.8 243.784 280.596 243.298 280.188 242.962C279.792 242.626 279.24 242.458 278.532 242.458C278.448 242.458 278.358 242.464 278.262 242.476C278.178 242.476 278.088 242.488 277.992 242.512L277.812 241.342C277.932 241.33 278.082 241.324 278.262 241.324C278.454 241.312 278.61 241.306 278.73 241.306C279.426 241.306 279.996 241.414 280.44 241.63C280.896 241.834 281.25 242.098 281.502 242.422C281.754 242.746 281.928 243.088 282.024 243.448C282.132 243.808 282.186 244.132 282.186 244.42ZM275.202 246.094C274.794 246.094 274.434 246.046 274.122 245.95C273.81 245.854 273.558 245.71 273.366 245.518C273.186 245.338 273.036 245.104 272.916 244.816C272.808 244.528 272.754 244.102 272.754 243.538V239.938H274.14V240.622L274.104 241.432C274.116 241.576 274.122 241.732 274.122 241.9C274.134 242.056 274.14 242.236 274.14 242.44V243.538C274.14 243.85 274.164 244.078 274.212 244.222C274.272 244.366 274.344 244.486 274.428 244.582C274.608 244.762 274.902 244.852 275.31 244.852C275.826 244.852 276.27 244.756 276.642 244.564C277.026 244.372 277.32 244.144 277.524 243.88C277.74 243.604 277.848 243.34 277.848 243.088C277.848 242.86 277.764 242.716 277.596 242.656C277.428 242.596 277.2 242.566 276.912 242.566H276.804C276.18 242.566 275.622 242.458 275.13 242.242C274.638 242.026 274.23 241.732 273.906 241.36L274.14 240.208C274.344 240.436 274.56 240.64 274.788 240.82C275.016 240.988 275.298 241.12 275.634 241.216C275.97 241.3 276.402 241.342 276.93 241.342H277.812C277.944 241.342 278.028 241.378 278.064 241.45C278.112 241.522 278.208 241.594 278.352 241.666C278.592 241.786 278.796 241.954 278.964 242.17C279.132 242.386 279.216 242.668 279.216 243.016C279.216 243.604 279.036 244.132 278.676 244.6C278.328 245.056 277.848 245.422 277.236 245.698C276.636 245.962 275.958 246.094 275.202 246.094ZM270.936 240.082V238.804H283.662V240.082H270.936Z" fill="#F5F9FA"/>
</svg>
