<svg width="88" height="140" viewBox="0 0 88 140" fill="none" xmlns="http://www.w3.org/2000/svg">
<path d="M37.6244 123.804V125.082H24.7004L24.4124 124.92C24.9164 125.04 25.4204 125.232 25.9244 125.496C26.4404 125.76 26.9144 126.048 27.3464 126.36C27.7904 126.66 28.1444 126.948 28.4084 127.224L28.4984 128.232C28.0664 128.424 27.6104 128.634 27.1304 128.862C26.6624 129.09 26.2064 129.318 25.7624 129.546C25.3304 129.774 24.9464 130.002 24.6104 130.23L24.4124 129.924C25.3484 130.116 26.1704 130.362 26.8784 130.662C27.5864 130.962 28.2224 131.322 28.7864 131.742C29.3504 132.162 29.8904 132.654 30.4064 133.218C30.3944 133.014 30.3824 132.804 30.3704 132.588C30.3704 132.372 30.3704 132.15 30.3704 131.922V125.82H30.6044C31.2644 125.82 31.9004 125.874 32.5124 125.982C33.1364 126.09 33.7124 126.27 34.2404 126.522C34.7804 126.774 35.2544 127.116 35.6624 127.548C35.9504 127.848 36.1784 128.19 36.3464 128.574C36.5264 128.946 36.6164 129.36 36.6164 129.816C36.6164 130.212 36.5324 130.59 36.3644 130.95C36.2084 131.298 35.9504 131.586 35.5904 131.814C35.2304 132.042 34.7504 132.156 34.1504 132.156C33.9704 132.156 33.7904 132.15 33.6104 132.138C33.4424 132.126 33.2744 132.102 33.1064 132.066L33.1964 130.788C33.2684 130.8 33.3584 130.812 33.4664 130.824C33.5744 130.824 33.6884 130.824 33.8084 130.824C34.3964 130.824 34.7744 130.71 34.9424 130.482C35.1224 130.254 35.2124 129.984 35.2124 129.672C35.2124 129.06 34.9004 128.52 34.2764 128.052C33.6644 127.584 32.8244 127.296 31.7564 127.188V135H30.3704C29.8784 134.328 29.3324 133.74 28.7324 133.236C28.1444 132.732 27.4544 132.312 26.6624 131.976C25.8824 131.628 24.9524 131.364 23.8724 131.184L23.2244 129.546C23.5964 129.294 23.9864 129.054 24.3944 128.826C24.8024 128.598 25.2164 128.376 25.6364 128.16C26.0684 127.944 26.4884 127.74 26.8964 127.548C26.4404 127.2 25.9124 126.894 25.3124 126.63C24.7244 126.354 24.0284 126.132 23.2244 125.964L23.7824 124.74L23.8184 125.082H22.1804V123.804H37.6244ZM42.4104 123.804V125.082H40.5204V135H39.1344V126.558C38.9904 126.15 38.7744 125.802 38.4864 125.514C38.2104 125.226 37.8504 125.082 37.4064 125.082H37.2624V123.804H37.5324C37.8204 123.804 38.1204 123.9 38.4324 124.092C38.7444 124.272 38.9964 124.554 39.1884 124.938C39.1764 124.878 39.1644 124.74 39.1524 124.524C39.1404 124.308 39.1344 124.122 39.1344 123.966V122.616H40.1064L40.5024 123.804H42.4104ZM61.2391 134.1C60.2551 134.1 59.3371 133.86 58.4851 133.38C57.6331 132.888 56.8651 132.096 56.1811 131.004C55.5091 129.912 54.9271 128.448 54.4351 126.612L55.8031 126.252C56.2231 127.74 56.6791 128.964 57.1711 129.924C57.6751 130.884 58.2511 131.592 58.8991 132.048C59.5591 132.504 60.3271 132.732 61.2031 132.732C61.7671 132.732 62.2411 132.666 62.6251 132.534C63.0091 132.39 63.3151 132.192 63.5431 131.94C63.7831 131.688 63.9571 131.4 64.0651 131.076C64.1731 130.74 64.2271 130.38 64.2271 129.996C64.2271 129.492 64.1311 129.036 63.9391 128.628C63.7471 128.208 63.4771 127.878 63.1291 127.638C62.7811 127.398 62.3731 127.278 61.9051 127.278C61.4251 127.278 61.0771 127.38 60.8611 127.584C60.6571 127.788 60.5551 128.058 60.5551 128.394C60.5551 128.514 60.5671 128.64 60.5911 128.772C60.6151 128.904 60.6571 129.054 60.7171 129.222L59.3311 129.492C59.2591 129.264 59.1991 129.042 59.1511 128.826C59.1151 128.61 59.0971 128.388 59.0971 128.16C59.0971 127.692 59.2111 127.302 59.4391 126.99C59.6791 126.666 60.0031 126.42 60.4111 126.252C60.8311 126.084 61.3051 126 61.8331 126C62.5771 126 63.2311 126.174 63.7951 126.522C64.3591 126.858 64.8031 127.332 65.1271 127.944C65.4511 128.556 65.6131 129.264 65.6131 130.068C65.6131 130.824 65.4511 131.508 65.1271 132.12C64.8151 132.72 64.3351 133.2 63.6871 133.56C63.0391 133.92 62.2231 134.1 61.2391 134.1ZM66.8191 123.804V125.082H53.7331V123.804H66.8191ZM59.5405 139.788C59.2165 139.788 58.8625 139.716 58.4785 139.572C58.0945 139.44 57.7705 139.224 57.5065 138.924C57.2305 138.624 57.0925 138.222 57.0925 137.718C57.0925 137.106 57.3265 136.614 57.7945 136.242C58.2625 135.882 58.9165 135.702 59.7565 135.702C60.5005 135.702 61.2205 135.834 61.9165 136.098C62.6005 136.374 63.3025 136.752 64.0225 137.232C64.7305 137.712 65.4865 138.27 66.2905 138.906L65.4805 139.878C64.6765 139.206 63.9445 138.648 63.2845 138.204C62.6245 137.76 62.0005 137.424 61.4125 137.196C60.8245 136.968 60.2425 136.854 59.6665 136.854C59.2345 136.854 58.9105 136.938 58.6945 137.106C58.4785 137.274 58.3705 137.49 58.3705 137.754C58.3705 138.09 58.4905 138.324 58.7305 138.456C58.9585 138.6 59.2285 138.672 59.5405 138.672C59.9845 138.672 60.3445 138.576 60.6205 138.384C60.8845 138.204 61.0885 137.976 61.2325 137.7C61.3765 137.424 61.4725 137.136 61.5205 136.836C61.5685 136.548 61.5925 136.29 61.5925 136.062V133.542H62.8705V135.846C62.8705 136.17 62.8345 136.554 62.7625 136.998C62.6905 137.442 62.5465 137.874 62.3305 138.294C62.1025 138.726 61.7665 139.08 61.3225 139.356C60.8785 139.644 60.2845 139.788 59.5405 139.788Z" fill="#F5F9FA"/>
<path d="M44.9717 132.539C44.9717 131.773 45.2314 131.131 45.751 130.611C46.2705 130.078 46.9746 129.812 47.8633 129.812C48.7656 129.812 49.4697 130.078 49.9756 130.611C50.4951 131.131 50.7549 131.773 50.7549 132.539C50.7549 133.305 50.4951 133.947 49.9756 134.467C49.4697 134.986 48.7656 135.246 47.8633 135.246C46.9746 135.246 46.2705 134.986 45.751 134.467C45.2314 133.947 44.9717 133.305 44.9717 132.539Z" fill="#FFCA3A"/>
<path d="M77.8578 62.9122C79.6164 62.6441 81.1556 62.2998 82.4752 61.8796C83.7949 61.4621 84.8936 60.9838 85.7714 60.4447L85.1131 59.6735C83.2167 60.3481 81.7057 60.6852 80.5802 60.6852C78.3545 60.6852 76.6155 60.0577 75.3634 58.8026C74.1141 57.5475 73.4894 55.8265 73.4894 53.6398C73.4894 52.8297 73.5852 52.0059 73.7765 51.1682C73.9707 50.3333 74.2253 49.5649 74.5405 48.8627C74.8556 48.1605 75.2269 47.5592 75.6546 47.0588C76.0795 46.5584 76.5396 46.228 77.0349 46.0676C77.7777 45.852 78.4641 45.7442 79.0944 45.7442C80.0286 45.7442 80.9628 45.9737 81.8969 46.4326C85.9656 48.4037 88 52.1026 88 57.5295C88 59.1219 87.8002 60.5927 87.4007 61.9418C87.0011 63.2909 86.458 64.492 85.7714 65.5453C85.0849 66.5986 84.2816 67.5028 83.3615 68.2575C82.4414 69.015 81.4721 69.5955 80.4536 69.9992C77.4034 71.1879 73.2404 71.7823 67.9647 71.7823H67.8423C67.4568 71.2432 67.0924 70.6902 66.7492 70.1234C66.4059 69.5567 66.2342 68.8809 66.2342 68.0958C66.2342 67.5291 66.351 66.8821 66.5845 66.155C66.8181 65.4252 67.2373 64.5874 67.8423 63.6419C68.3657 63.6419 68.9087 63.6281 69.4714 63.6004C70.0342 63.5755 70.701 63.5355 71.472 63.4802C72.2401 63.4277 73.1321 63.3599 74.1479 63.277C75.1664 63.1968 76.4031 63.0753 77.8578 62.9122ZM79.6728 41.0043L73.6119 35.012L79.6728 29.0572L85.7714 35.012L79.6728 41.0043ZM86.6789 11.346C86.541 11.6169 86.2597 12.2236 85.8348 13.1663C85.4071 14.1118 84.8373 15.4083 84.1255 17.056C80.2509 19.5663 74.8513 22.5632 67.9267 26.0466C68.0617 25.6153 68.3361 24.927 68.7497 23.9815C69.1605 23.036 69.6825 21.807 70.3156 20.2948C72.817 18.918 75.4281 17.4944 78.149 16.0236C80.8671 14.5529 83.7104 12.9937 86.6789 11.346ZM25.6361 63.6419L26.2945 63.6834C26.5168 63.7111 26.7447 63.7249 26.9782 63.7249C27.2118 63.7249 27.4383 63.7249 27.6578 63.7249C31.915 63.7249 36.2017 62.6854 40.518 60.6064C40.5433 60.5512 40.556 60.4433 40.556 60.283C40.556 60.0397 40.4604 59.5932 40.269 58.9436C40.0777 58.2966 39.8709 57.6014 39.6486 56.8577C39.4291 56.1168 39.2237 55.3815 39.0324 54.6517C38.841 53.9246 38.7453 53.3577 38.7453 52.9513C38.7453 52.4399 38.8677 51.6838 39.1125 50.683C39.3601 49.685 39.8413 48.2945 40.556 46.5113L40.8852 46.5528C40.9696 46.8238 41.0807 47.1472 41.2186 47.5232C41.3283 47.8494 41.4719 48.2613 41.6492 48.7589C41.8292 49.2593 42.029 49.8328 42.2485 50.4797C42.7971 52.0749 43.0715 53.8305 43.0715 55.7463C43.0715 56.8798 42.9687 58.0742 42.7633 59.3293C42.5579 60.5844 42.2203 61.9002 41.7504 63.277C39.8567 68.9747 35.0622 71.8238 27.3666 71.8238C27.0655 71.8238 26.777 71.8238 26.5013 71.8238C26.2283 71.8238 25.94 71.8099 25.6361 71.7823C25.0593 71.3234 24.6273 70.682 24.3403 69.8582C24.0505 69.0343 23.9056 68.1912 23.9056 67.3287C23.9056 66.5186 24.0435 65.7692 24.3192 65.0808C24.5921 64.3925 25.0311 63.9129 25.6361 63.6419ZM39.6106 29.2602L45.6672 35.1322L39.6106 41.2075L33.9211 35.9037L28.6876 41.1245L22.7112 35.2153L28.6876 29.1815L34.2082 34.5643L39.6106 29.2602ZM41.2186 11.9927C41.2186 13.5325 40.7924 15.045 39.9398 16.5296C39.0872 18.0142 37.8097 19.5125 36.1074 21.0247C34.5401 22.4015 32.9729 23.5142 31.4057 24.3629C29.8412 25.2144 28.2346 25.7895 26.5857 26.0881C26.3916 26.0881 26.2945 26.0064 26.2945 25.8433C26.2945 25.2213 26.5773 24.6269 27.1428 24.0602C27.7056 23.4935 28.4132 22.9543 29.2658 22.4429C30.2815 21.8208 31.1398 21.2403 31.8404 20.7012C32.541 20.1594 33.1108 19.659 33.5497 19.2001L33.4695 18.7979C32.178 17.3658 31.5323 15.7055 31.5323 13.8173C31.5323 13.0598 31.6687 12.2832 31.9416 11.487C32.2174 10.6908 32.6029 9.96908 33.0982 9.32217C33.5906 8.6725 34.1674 8.13899 34.8286 7.72154C35.4871 7.30132 36.2144 7.09131 37.0107 7.09131C39.816 7.09131 41.2186 8.72495 41.2186 11.9927ZM38.7833 14.9079C39.059 14.532 39.1969 14.1132 39.1969 13.6515C39.1969 13.2479 39.0942 12.8844 38.8888 12.5609C38.6834 12.2374 38.4218 11.9609 38.1038 11.7315C37.7887 11.502 37.4314 11.3267 37.0318 11.205C36.6351 11.0834 36.2298 11.0225 35.8162 11.0225C34.2517 11.0225 33.4695 11.603 33.4695 12.7641C33.4695 13.1678 33.5653 13.5382 33.7566 13.8755C33.9479 14.2128 34.2026 14.5029 34.5205 14.7462C34.8357 14.9895 35.193 15.1859 35.5926 15.3352C35.9893 15.4817 36.3804 15.5549 36.7658 15.5549C37.4805 15.5549 38.153 15.3392 38.7833 14.9079ZM22.5846 71.8238C21.7349 74.1986 20.8358 76.2843 19.8876 78.0813C18.9394 79.8755 17.8054 81.3795 16.4858 82.5931C15.1661 83.8095 13.6002 84.722 11.7882 85.3302C9.97333 85.9356 7.77443 86.2383 5.19141 86.2383C5.02821 86.2383 4.85654 86.2327 4.67646 86.2216C4.49919 86.2078 4.31353 86.2009 4.11938 86.2009C3.98432 86.2258 3.63391 86.2797 3.06835 86.3626C2.5056 86.4428 1.84018 86.4828 1.07203 86.4828C0.467073 86.4828 0.109736 86.3889 0 86.2009V85.7531C0.0281375 85.5651 3.27095 83.8108 9.7285 80.4906C15.9384 77.2782 19.18 74.8206 19.4529 73.1177L19.208 72.7527C18.5215 72.62 17.6971 72.4652 16.7348 72.2882C15.7725 72.1141 14.6597 71.9192 13.3963 71.7036C10.5938 70.8935 9.19255 68.7066 9.19255 65.1431C9.19255 64.3331 9.29525 63.4817 9.50065 62.5888C9.70605 61.6986 9.97337 60.869 10.3026 60.1005C10.6346 59.3292 11.02 58.674 11.459 58.1349C11.8979 57.5958 12.365 57.2587 12.8602 57.1232C13.1894 57.0431 13.6016 57.0027 14.0969 57.0027C15.4165 57.0027 16.5772 57.2931 17.5789 57.8737C18.5806 58.4542 19.4388 59.4052 20.1534 60.7267C20.3476 61.3487 20.7332 61.9831 21.31 62.63L21.5547 63.5217C22.1878 63.5742 22.7787 63.6212 23.3274 63.6627C23.8789 63.7042 24.4148 63.7249 24.9354 63.7249C25.1549 63.7249 25.3814 63.718 25.615 63.7042C25.8485 63.6904 26.0751 63.6696 26.2945 63.6419C26.8995 63.7774 27.3468 64.2503 27.6367 65.0603C27.9237 65.8703 28.0671 66.7479 28.0671 67.6934C28.0671 69.2858 27.7858 70.4123 27.2231 71.0731C26.6603 71.7338 25.7332 72.0642 24.4417 72.0642C24.1659 72.0642 23.8845 72.0519 23.5975 72.027C23.3077 71.9994 22.9701 71.9316 22.5846 71.8238ZM19.5373 37.5043C19.5373 38.3144 19.3994 39.1244 19.1237 39.9344C18.8507 40.7444 18.4737 41.4936 17.9925 42.182C17.5114 42.8703 16.9331 43.4924 16.2578 44.0481C15.5853 44.601 14.851 45.0393 14.0547 45.3627C13.9169 45.418 13.4835 45.4994 12.7547 45.6072C12.0288 45.715 11.2254 45.8298 10.3447 45.9515C9.46681 46.0731 8.63546 46.174 7.85042 46.2542C7.0682 46.3343 6.55317 46.3744 6.30556 46.3744C5.56273 46.3744 5.19141 46.1726 5.19141 45.769C5.19141 45.2824 6.99221 44.4046 10.5938 43.1357C12.3777 42.5136 13.641 42.0079 14.3838 41.618C15.1267 41.2255 15.4981 40.8812 15.4981 40.5854C15.4981 39.4491 13.0529 38.8271 8.16264 38.7192L7.8293 38.3958C8.16132 37.8567 8.57353 37.1753 9.06594 36.3514C9.56116 35.5276 10.152 34.5489 10.8385 33.4154C11.2803 33.2551 11.8444 33.175 12.531 33.175C13.4089 33.175 14.2672 33.2828 15.1056 33.4985C15.9441 33.7141 16.6855 34.0168 17.3298 34.4066C17.977 34.7992 18.4989 35.258 18.8957 35.7832C19.2952 36.3113 19.5091 36.8851 19.5373 37.5043Z" fill="#F5F9FA"/>
<path d="M65.2465 71.7822C60.9865 71.7297 57.7366 69.8193 55.4969 66.0512C53.2571 62.2858 51.8769 56.6504 51.3564 49.1445C51.3001 48.2543 51.2171 46.6756 51.1074 44.4087C50.9976 42.139 50.8611 39.1546 50.6979 35.4556C50.6416 34.0789 50.5868 32.217 50.5333 29.8699C50.477 27.52 50.4489 24.6309 50.4489 21.2028C50.4489 20.9319 50.4897 20.5879 50.5713 20.1704C50.6557 19.7502 50.7655 19.352 50.9005 18.976C51.0384 18.5973 51.2045 18.2655 51.3986 17.9808C51.5899 17.6988 51.8094 17.5579 52.057 17.5579C52.496 17.5579 52.7985 18.7728 52.9645 21.2028L54.3235 41.8544C54.5711 45.6612 54.8933 48.7726 55.29 51.1889C55.6896 53.6051 56.1708 55.543 56.7335 57.0027C57.2963 58.4596 57.9419 59.5726 58.6707 60.3411C59.3995 61.1124 60.2042 61.7676 61.0849 62.3067C61.7714 62.738 62.534 63.0751 63.3725 63.3184C64.2082 63.5617 65.1071 63.6834 66.0694 63.6834C66.1791 63.6834 66.2818 63.6764 66.3775 63.6626C66.476 63.6488 66.5801 63.6419 66.6899 63.6419C67.6493 63.7773 68.3359 64.1755 68.7495 64.8363C69.1604 65.4997 69.3657 66.2489 69.3657 67.0838C69.3657 67.6257 69.2911 68.18 69.142 68.7467C68.9901 69.3134 68.7763 69.8262 68.5006 70.2851C68.2276 70.744 67.8984 71.1145 67.5129 71.3965C67.1274 71.6812 66.7152 71.8237 66.2763 71.8237C66.1384 71.8237 65.9879 71.8237 65.8247 71.8237C65.6587 71.8237 65.466 71.8098 65.2465 71.7822ZM61.7433 4.32935C61.7433 5.13937 61.6055 5.94939 61.3297 6.75941C61.0568 7.56943 60.6797 8.3186 60.1986 9.00698C59.7174 9.69535 59.1391 10.3174 58.4638 10.8731C57.7914 11.426 57.0571 11.8643 56.2608 12.1877C56.1229 12.243 55.6895 12.3244 54.9608 12.4322C54.2348 12.5401 53.4314 12.6548 52.5507 12.7765C51.6729 12.8981 50.8415 12.999 50.0565 13.0792C49.2743 13.1593 48.7592 13.1994 48.5116 13.1994C47.7688 13.1994 47.3975 12.9976 47.3975 12.594C47.3975 12.1074 49.1983 11.2296 52.7999 9.96067C54.5838 9.33864 55.8471 8.83286 56.5899 8.44306C57.3327 8.05049 57.7042 7.7062 57.7042 7.41039C57.7042 6.27415 55.259 5.65207 50.3687 5.54425L50.0353 5.22079C50.3674 4.68169 50.7796 4.0003 51.272 3.17646C51.7672 2.35262 52.358 1.37393 53.0446 0.240449C53.4863 0.0801038 54.0505 0 54.7371 0C55.6149 0 56.4732 0.107831 57.3117 0.323467C58.1502 0.539104 58.8915 0.841801 59.5359 1.23161C60.183 1.62418 60.705 2.08297 61.1017 2.60824C61.5013 3.13628 61.7152 3.71009 61.7433 4.32935Z" fill="#FFCA3A"/>
</svg>
