<svg width="391" height="271" viewBox="0 0 391 271" fill="none" xmlns="http://www.w3.org/2000/svg">
<path d="M4.654 14.402C5.266 13.97 5.716 13.358 5.716 12.836C5.716 12.422 5.464 12.152 4.888 12.152C4.564 12.152 4.186 12.278 3.898 12.422L2.332 11.144C3.106 8.462 5.05 7.814 6.562 7.814C7.516 7.814 8.902 8.174 9.784 9.362C10.09 8.894 10.378 8.408 10.648 7.922H11.854C13.222 8.696 14.608 10.064 14.608 11.774C14.608 12.656 14.392 13.448 13.816 14.204C14.5 14.816 14.986 15.698 14.986 16.742C14.986 19.874 12.268 21.26 9.406 21.26C5.59 21.26 2.998 18.974 1.504 15.536L3.538 14.186C4.996 17.588 7.012 18.956 9.442 18.956C11.386 18.956 12.52 17.984 12.52 16.742C12.52 16.346 12.412 15.968 12.196 15.662C11.746 15.968 11.206 16.256 10.594 16.526L9.244 14.546C11.062 13.898 12.286 12.962 12.286 11.72C12.286 11.216 11.98 10.766 11.656 10.496C11.422 10.892 10.954 11.666 10.54 12.17H8.974C8.632 10.91 7.858 9.884 6.526 9.884C6.058 9.884 5.59 10.046 5.284 10.298L5.32 10.352C5.446 10.352 5.536 10.352 5.59 10.352C6.94 10.352 7.948 11.324 7.948 12.728C7.948 13.808 7.39 15.014 6.274 15.842L4.654 14.402ZM15.142 9.884V7.922H26.356V9.884H24.538V20.432H22.486C21.55 18.974 20.56 17.624 19.3 17.624C18.724 17.624 18.346 17.93 18.346 18.434C18.346 18.794 18.49 19.046 18.67 19.262L16.726 19.964C16.384 19.568 16.114 19.01 16.114 18.29C16.114 16.652 17.266 15.536 19.102 15.536C20.578 15.536 21.658 16.238 22.27 17.048L22.342 17.03C22.27 16.58 22.216 16.004 22.198 15.374C21.352 14.096 20.434 12.998 19.3 12.998C18.724 12.998 18.346 13.304 18.346 13.808C18.346 14.168 18.49 14.42 18.67 14.636L16.726 15.338C16.384 14.942 16.114 14.384 16.114 13.664C16.114 12.026 17.266 10.91 19.102 10.91C20.578 10.91 21.658 11.612 22.27 12.422L22.342 12.404C22.252 11.828 22.198 11.036 22.198 10.208V9.884H15.142ZM27.5441 6.266V6.086H29.9561V7.922H31.7561V9.884H29.9561V20H27.4361V11.99C27.4361 10.226 26.8421 9.884 25.7081 9.884H25.6361V7.922H26.3741C27.2021 7.922 27.6341 8.282 27.8501 8.552H27.9761C27.7241 7.886 27.5441 7.112 27.5441 6.266ZM32.2746 11.63C32.2746 10.586 33.0486 9.812 34.0206 9.812C35.0466 9.812 35.8206 10.586 35.8206 11.63C35.8206 12.584 35.0466 13.358 34.0206 13.358C33.0486 13.358 32.2746 12.584 32.2746 11.63ZM32.2746 18.434C32.2746 17.39 33.0486 16.616 34.0206 16.616C35.0466 16.616 35.8206 17.39 35.8206 18.434C35.8206 19.388 35.0466 20.162 34.0206 20.162C33.0486 20.162 32.2746 19.388 32.2746 18.434Z" fill="#FFCA3A"/>
<path d="M43.1827 9.596H41.5267V8.444H43.1827C44.4967 8.444 45.5407 8.984 46.1527 9.866C46.7827 9.002 47.7907 8.462 48.9067 8.462C50.4367 8.462 51.2287 9.236 51.4627 9.614H51.5347C51.4987 9.488 51.3367 8.552 51.3367 7.364V6.662H52.6327V8.444H54.7927V9.596H52.6327V20H51.3187V12.134C51.3187 10.496 50.2747 9.668 48.9427 9.668C47.8807 9.668 46.7827 10.424 46.7827 11.9C46.7827 13.196 47.8087 13.934 49.0147 13.934C49.1947 13.934 49.4287 13.916 49.6087 13.88V15.068C49.4827 15.086 49.2487 15.122 48.9967 15.122C47.7907 15.122 46.6747 14.618 46.0987 13.682C45.5767 14.636 44.5687 15.158 43.2907 15.158C42.9487 15.158 42.4987 15.068 42.3007 15.014V13.79C42.5347 13.916 42.9667 13.952 43.2727 13.952C44.6587 13.952 45.4867 13.088 45.4867 11.864C45.4867 10.298 44.4967 9.596 43.1827 9.596ZM66.4435 20H65.1475V16.238C65.1475 15.068 65.3095 13.844 65.5795 12.908C64.0315 13.934 62.6095 15.518 61.4575 17.102L55.4635 14.168V12.836C56.2555 12.134 58.0915 10.856 60.1075 10.172V9.596H54.0775V8.444H68.7295V9.596H61.4395V15.086C62.3035 13.952 64.2835 12.062 65.8495 11.414L67.0735 12.08C66.6415 13.358 66.4435 14.798 66.4435 16.292V20ZM60.1075 15.086V11.45C58.9735 11.9 57.5155 12.728 56.7055 13.394L60.1075 15.086ZM85.0825 6.446C83.8225 5.33 81.8605 4.304 79.6465 4.304C77.6665 4.304 76.6765 5.6 76.6765 7.094V8.444H78.8365V9.596H76.6765V20H75.3625V9.596H73.2025V8.444H75.3625V6.932C75.3625 4.916 76.8925 3.08 79.6285 3.08C82.3825 3.08 84.7045 4.448 85.8745 5.51L85.0825 6.446ZM87.2864 16.868C88.0604 16.544 88.7264 15.716 88.7264 14.726C88.7264 13.466 87.7544 12.512 85.9544 12.476V18.794L86.6924 19.388L85.6664 20.18L79.4024 15.014V13.862C80.9144 12.566 82.7324 11.594 84.6584 11.324V9.596H78.1244V8.444H91.2824V9.596H85.9544V11.252C88.5644 11.306 90.0224 12.98 90.0224 14.744C90.0224 16.148 89.2304 17.264 88.2044 17.822L87.2864 16.868ZM80.7164 14.474L84.7124 17.84H84.7844C84.6764 16.544 84.6584 15.356 84.6584 14.222V12.584C83.1464 12.8 81.7244 13.646 80.7164 14.474ZM93.4137 9.596C93.7197 10.244 94.9797 10.424 95.9877 10.91C96.3657 10.82 96.7797 10.766 97.1397 10.766C98.9757 10.766 100.452 12.008 100.452 13.916C100.452 16.202 98.8317 17.498 95.5557 17.642V17.714C96.0237 17.84 96.7617 18.146 98.0037 18.794L100.83 20.27L99.9657 21.242C94.2957 18.128 93.6657 17.93 92.3157 17.786V16.652H94.4037C97.6437 16.652 99.1557 15.644 99.1557 13.916C99.1557 12.656 98.2737 12.008 97.1577 11.936C97.2657 12.17 97.3197 12.422 97.3197 12.728C97.3197 14.114 96.1677 15.446 94.4757 15.446C93.0717 15.446 92.2977 14.6 92.2977 13.43V9.596H90.5697V8.444H102V9.596H93.4137ZM96.0957 12.71C96.0957 11.63 94.4037 11.774 93.5577 11.054V13.412C93.5577 13.934 93.8277 14.312 94.4937 14.312C95.4477 14.312 96.0957 13.52 96.0957 12.71ZM95.2996 24.734C96.5236 24.734 97.1356 23.672 97.1716 22.268V22.214C96.5596 21.872 95.9116 21.656 95.2636 21.656C94.1836 21.656 93.6076 22.322 93.6076 23.222C93.6076 24.104 94.3096 24.734 95.2996 24.734ZM100.538 25.364C99.8176 24.5 99.0616 23.654 98.2696 23.006C98.0716 24.644 97.0276 25.814 95.2816 25.814C93.4636 25.814 92.3476 24.68 92.3476 23.222C92.3476 21.62 93.5536 20.558 95.1736 20.558C97.7116 20.558 99.8356 22.754 101.474 24.662L100.538 25.364ZM113.515 13.736H112.741V20.054H111.517C111.121 18.488 109.465 17.048 107.413 16.85C107.107 17.894 106.477 18.236 105.991 18.236C105.379 18.236 104.983 17.876 104.983 17.264C104.983 16.634 105.487 16.04 106.351 15.788C106.351 15.662 106.351 15.536 106.351 15.41C106.351 14.114 105.523 13.304 104.497 13.07C104.227 14.06 103.579 14.456 103.075 14.456C102.481 14.456 102.085 14.078 102.085 13.466C102.085 12.818 102.571 12.224 103.435 11.99C103.417 10.946 102.985 10.172 102.355 9.596H101.275V8.444H117.673V9.596H112.741V12.53H113.479C115.423 12.53 116.647 13.592 116.647 15.23C116.647 16.688 115.873 17.588 114.901 18.092L114.055 17.12C114.775 16.814 115.369 16.202 115.369 15.23C115.369 14.186 114.595 13.736 113.515 13.736ZM111.553 17.84C111.463 16.76 111.427 15.32 111.427 14.24V13.736H110.113C108.547 13.736 107.395 12.728 107.395 10.91V9.596H103.849C104.317 10.262 104.623 11.108 104.623 11.918C106.171 12.134 107.593 13.43 107.593 15.374C107.593 15.482 107.593 15.59 107.593 15.698C109.465 15.842 111.067 17.066 111.553 17.84ZM110.095 12.53H111.427V9.596H108.673V10.928C108.673 12.008 109.177 12.53 110.095 12.53ZM119.402 12.08C119.402 13.466 120.338 14.186 121.526 14.186C122.084 14.186 122.588 13.988 122.912 13.754L123.344 14.906C122.912 15.212 122.192 15.41 121.508 15.41C119.42 15.41 118.088 13.97 118.088 12.062C118.088 10.01 119.438 8.444 121.814 8.444C123.758 8.444 124.82 9.614 125.252 10.388H125.324C125.234 9.956 125.144 9.074 125.144 7.652V6.662H126.458V8.444H128.618V9.596H126.458V20H125.144V14.204C125.144 11.576 124.01 9.65 121.868 9.65C120.266 9.65 119.402 10.694 119.402 12.08ZM138.815 9.956C138.347 9.704 137.879 9.596 137.339 9.596C136.385 9.596 135.773 10.136 135.773 11.018C135.773 12.026 136.547 12.566 137.933 12.566C138.977 12.566 140.219 11.918 141.263 11.252V8.444H144.737V9.596H142.577V18.848L143.333 19.244L142.541 20.234L134.657 16.22V14.996L135.665 14.42C136.529 13.898 137.339 13.592 137.339 13.592V13.52C135.737 13.484 134.477 12.584 134.477 10.982C134.477 9.506 135.539 8.408 137.267 8.408C138.005 8.408 138.671 8.552 139.265 8.894L138.815 9.956ZM141.425 18.236C141.317 16.958 141.263 15.68 141.263 14.546V12.638L136.115 15.554L141.353 18.236H141.425ZM149.065 19.172L148.399 20.234C146.401 19.46 145.339 17.354 145.339 14.726C145.339 12.854 145.933 10.928 146.725 9.596H144.025V8.444H149.623V9.596H148.219C147.265 10.82 146.653 12.836 146.653 14.726C146.653 16.85 147.409 18.416 149.065 19.172ZM151.053 20.144C151.053 20.684 151.431 21.044 151.935 21.044C152.457 21.044 152.835 20.684 152.835 20.144C152.835 19.622 152.457 19.262 151.935 19.262C151.431 19.262 151.053 19.622 151.053 20.144ZM156.039 9.596H148.911V8.444H159.513V9.596H157.371V18.848L158.109 19.334L157.191 20.252L150.189 15.662V14.456C151.233 13.412 153.879 11.648 156.039 10.946V9.596ZM156.039 12.26C154.563 12.8 152.367 14.186 151.503 15.05L156.111 18.056H156.183C156.075 16.85 156.039 15.608 156.039 14.438V12.26ZM169.016 19.172L168.35 20.234C166.352 19.46 165.29 17.354 165.29 14.726C165.29 12.836 165.776 10.64 167.324 8.444H169.574V9.596H168.188C167.234 10.946 166.604 12.836 166.604 14.726C166.604 16.85 167.36 18.416 169.016 19.172ZM171.005 20.144C171.005 20.684 171.383 21.044 171.887 21.044C172.409 21.044 172.787 20.684 172.787 20.144C172.787 19.622 172.409 19.262 171.887 19.262C171.383 19.262 171.005 19.622 171.005 20.144ZM175.991 9.596H168.863V8.444H179.465V9.596H177.323V18.848L178.061 19.334L177.143 20.252L170.141 15.662V14.456C171.185 13.412 173.831 11.648 175.991 10.946V9.596ZM175.991 12.26C174.515 12.8 172.319 14.186 171.455 15.05L176.063 18.056H176.135C176.027 16.85 175.991 15.608 175.991 14.438V12.26ZM183.782 19.172L183.116 20.234C181.118 19.46 180.056 17.354 180.056 14.726C180.056 12.854 180.65 10.928 181.442 9.596H178.742V8.444H184.34V9.596H182.936C181.982 10.82 181.37 12.836 181.37 14.726C181.37 16.85 182.126 18.416 183.782 19.172ZM192.718 14.33V6.662H194.032V8.444H196.174V9.596H194.032V18.884L194.806 19.28L193.942 20.234L184.798 15.644V14.366C188.038 14.132 189.514 12.98 189.514 11.378C189.514 10.802 189.28 10.37 188.938 10.064C188.362 11.342 187.354 11.99 186.238 11.99C184.816 11.99 183.916 11.09 183.916 9.92C183.916 9.308 184.114 8.768 184.294 8.444H185.644C185.428 8.804 185.23 9.326 185.23 9.866C185.23 10.406 185.554 10.82 186.292 10.82C187.138 10.82 187.822 10.244 188.434 8.444H189.028C190.108 9.218 190.756 10.226 190.756 11.378C190.756 13.448 189.28 14.69 186.85 15.176V15.248L192.754 18.272L192.826 18.254C192.736 16.868 192.718 15.662 192.718 14.33ZM203.056 10.892C204.388 11.018 205.54 11.828 206.134 13.646L209.158 11.666C208.564 10.388 207.466 9.542 205.936 9.542C204.424 9.542 203.416 10.406 203.056 10.892ZM210.994 20H209.662V14.132C209.662 13.682 209.626 13.25 209.536 12.854L203.902 16.526L203.236 15.518L205.108 14.294C204.766 13.196 204.118 12.044 202.552 11.954C202.426 11.936 202.282 11.918 202.138 11.918L201.382 10.874C202.102 9.722 203.596 8.336 205.882 8.336C208.114 8.336 209.338 9.632 209.878 10.658L209.932 10.64C209.842 10.37 209.662 8.822 209.662 7.418V6.662H210.994V8.444H213.136V9.596H210.994V20ZM218.325 21.404C218.325 20.882 218.703 20.522 219.225 20.522C219.729 20.522 220.107 20.882 220.107 21.404C220.107 21.944 219.729 22.304 219.225 22.304C218.703 22.304 218.325 21.944 218.325 21.404ZM225.165 9.596H218.613V12.44C218.613 13.052 218.847 13.43 219.459 13.43C220.017 13.43 221.259 13.052 222.537 11.864C223.131 12.26 223.887 13.322 223.887 14.672C223.887 17.156 222.087 18.902 219.261 18.902C215.643 18.902 213.627 15.914 213.465 12.458L214.725 12.188C214.851 15.626 216.687 17.678 219.279 17.678C221.259 17.678 222.591 16.49 222.591 14.708C222.591 14.204 222.465 13.772 222.285 13.538C221.421 14.258 220.341 14.654 219.369 14.654C218.055 14.654 217.281 13.736 217.281 12.512V9.596H212.421V8.444H225.165V9.596ZM226.623 7.184V6.662H227.919V8.444H230.079V9.596H227.919V20H226.605V11.09C226.605 10.064 226.119 9.596 225.165 9.596H224.445V8.444H225.381C226.281 8.444 226.641 8.876 226.785 9.074H226.875C226.821 8.93 226.623 8.21 226.623 7.184ZM234.407 19.172L233.741 20.234C231.743 19.46 230.681 17.354 230.681 14.726C230.681 12.854 231.275 10.928 232.067 9.596H229.367V8.444H234.965V9.596H233.561C232.607 10.82 231.995 12.836 231.995 14.726C231.995 16.85 232.751 18.416 234.407 19.172ZM243.415 16.868C244.189 16.544 244.855 15.716 244.855 14.726C244.855 13.466 243.883 12.512 242.083 12.476V18.794L242.821 19.388L241.795 20.18L235.531 15.014V13.862C237.043 12.566 238.861 11.594 240.787 11.324V9.596H234.253V8.444H247.411V9.596H242.083V11.252C244.693 11.306 246.151 12.98 246.151 14.744C246.151 16.148 245.359 17.264 244.333 17.822L243.415 16.868ZM236.845 14.474L240.841 17.84H240.913C240.805 16.544 240.787 15.356 240.787 14.222V12.584C239.275 12.8 237.853 13.646 236.845 14.474ZM255.52 15.086C256.366 14.474 256.978 13.736 256.978 12.944C256.978 12.368 256.582 11.99 255.862 11.99C255.34 11.99 254.854 12.116 254.494 12.35L253.378 11.414C254.062 9.038 255.52 8.336 256.906 8.336C258.238 8.336 259.39 9.146 259.984 10.37C260.488 9.65 260.974 8.732 261.154 8.444H261.982C263.17 9.164 264.214 10.28 264.214 11.756C264.214 12.764 263.89 13.592 263.26 14.294C263.962 14.834 264.502 15.716 264.502 16.886C264.502 19.262 262.486 20.648 259.912 20.648C256.708 20.648 254.404 18.668 252.928 15.626L253.954 14.798C255.43 17.966 257.41 19.388 259.93 19.388C261.946 19.388 263.152 18.29 263.152 16.868C263.152 16.13 262.828 15.518 262.342 15.122C261.928 15.41 261.442 15.698 260.902 15.968L260.056 14.942C261.892 14.06 262.936 13.196 262.936 11.756C262.936 10.964 262.396 10.28 261.82 9.866C261.55 10.352 260.956 11.378 260.434 12.044H259.372C258.994 10.658 258.238 9.56 256.888 9.56C255.898 9.56 255.25 10.19 254.926 10.946L254.98 11C255.286 10.892 255.682 10.856 255.952 10.856C257.482 10.856 258.238 11.756 258.238 12.908C258.238 14.042 257.446 15.248 256.492 15.896L255.52 15.086ZM264.997 9.596V8.444H275.779V9.596H273.619V20.558H272.413C272.143 18.848 270.991 16.634 269.083 16.634C268.093 16.634 267.625 17.21 267.625 17.93C267.625 18.416 267.823 18.758 268.075 19.064L266.977 19.532C266.617 19.136 266.347 18.578 266.347 17.894C266.347 16.49 267.355 15.428 269.047 15.428C270.595 15.428 271.765 16.346 272.431 17.66H272.503C272.485 17.57 272.395 16.904 272.359 15.644C271.963 14.024 270.847 12.152 269.083 12.152C268.093 12.152 267.625 12.728 267.625 13.43C267.625 13.934 267.823 14.258 268.075 14.564L266.977 15.032C266.617 14.636 266.347 14.078 266.347 13.394C266.347 11.99 267.337 10.946 269.029 10.946C270.577 10.946 271.747 11.882 272.431 13.178H272.503C272.485 13.052 272.323 11.882 272.323 9.614V9.596H264.997ZM277.23 7.184V6.662H278.526V8.444H280.686V9.596H278.526V20H277.212V11.09C277.212 10.064 276.726 9.596 275.772 9.596H275.052V8.444H275.988C276.888 8.444 277.248 8.876 277.392 9.074H277.482C277.428 8.93 277.23 8.21 277.23 7.184ZM292.288 9.596H285.16V8.444H295.762V9.596H293.62V18.848L294.358 19.334L293.44 20.252L286.438 15.662V14.456C287.482 13.412 290.128 11.648 292.288 10.946V9.596ZM292.288 12.26C290.812 12.8 288.616 14.186 287.752 15.05L292.36 18.056H292.432C292.324 16.85 292.288 15.608 292.288 14.438V12.26ZM300.078 19.172L299.412 20.234C297.414 19.46 296.352 17.354 296.352 14.726C296.352 12.854 296.946 10.928 297.738 9.596H295.038V8.444H300.636V9.596H299.232C298.278 10.82 297.666 12.836 297.666 14.726C297.666 16.85 298.422 18.416 300.078 19.172ZM306.189 18.002C305.793 18.128 305.361 18.2 304.911 18.2C302.787 18.2 301.311 16.832 301.311 14.654C301.311 12.656 302.715 11.45 304.281 11.45C305.721 11.45 306.423 12.368 306.585 12.926H306.657C306.801 12.242 307.485 11.396 308.673 11.396C309.645 11.396 310.203 11.954 310.383 12.17H310.455V9.596H299.925V8.444H313.929V9.596H311.769V20H310.455V13.7C310.311 13.25 309.717 12.62 308.817 12.62C307.935 12.62 307.233 13.268 307.233 14.384V15.086H305.955V14.402C305.955 13.25 305.253 12.692 304.335 12.692C303.471 12.692 302.625 13.376 302.625 14.654C302.625 16.166 303.651 17.012 304.929 17.012C305.289 17.012 305.667 16.94 305.991 16.796L306.189 18.002ZM323.746 20H322.36V8.444H323.746V20ZM344.043 6.446C342.783 5.33 340.821 4.304 338.607 4.304C336.627 4.304 335.637 5.6 335.637 7.094V8.444H337.797V9.596H335.637V20H334.323V9.596H332.163V8.444H334.323V6.932C334.323 4.916 335.853 3.08 338.589 3.08C341.343 3.08 343.665 4.448 344.835 5.51L344.043 6.446ZM340.091 16.022L338.921 16.544C338.489 16.13 338.237 15.536 338.237 14.798C338.237 13.07 339.371 11.936 341.297 11.936C343.619 11.936 345.041 13.61 345.761 15.14H345.833C345.815 14.996 345.653 13.844 345.653 11.558V9.596H337.085V8.444H349.127V9.596H346.985V20H345.653V19.622C345.653 16.796 344.069 13.178 341.369 13.178C340.145 13.178 339.551 13.862 339.551 14.798C339.551 15.266 339.767 15.698 340.091 16.022ZM353.446 19.172L352.78 20.234C350.782 19.46 349.72 17.354 349.72 14.726C349.72 12.854 350.314 10.928 351.106 9.596H348.406V8.444H354.004V9.596H352.6C351.646 10.82 351.034 12.836 351.034 14.726C351.034 16.85 351.79 18.416 353.446 19.172ZM359.736 12.62C361.302 13.196 362.166 14.042 362.166 15.536C362.166 17.732 360.15 20.018 357.864 20.018C356.334 20.018 355.434 19.136 355.434 17.768V9.596H353.292V8.444H363.462V9.596H356.676V10.082C356.676 11.108 357.306 11.702 358.26 12.062L359.736 12.62ZM356.64 12.422C356.676 12.584 356.73 13.556 356.73 15.248V17.732C356.73 18.38 357.072 18.812 357.882 18.812C359.124 18.812 360.834 17.246 360.834 15.518C360.834 14.816 360.528 14.24 359.286 13.79L358.116 13.358C357.324 13.07 356.91 12.656 356.712 12.422H356.64ZM364.891 20.144C364.891 20.684 365.269 21.044 365.773 21.044C366.295 21.044 366.673 20.684 366.673 20.144C366.673 19.622 366.295 19.262 365.773 19.262C365.269 19.262 364.891 19.622 364.891 20.144ZM369.877 9.596H362.749V8.444H373.351V9.596H371.209V18.848L371.947 19.334L371.029 20.252L364.027 15.662V14.456C365.071 13.412 367.717 11.648 369.877 10.946V9.596ZM369.877 12.26C368.401 12.8 366.205 14.186 365.341 15.05L369.949 18.056H370.021C369.913 16.85 369.877 15.608 369.877 14.438V12.26ZM0.64 37.596V36.444H17.434V37.596H15.292V46.938L15.976 47.424L14.986 48.234L10.828 45.156C10.09 45.876 9.046 46.326 7.768 46.326C4.222 46.326 2.278 43.428 1.486 39.45L2.692 38.91C3.358 42.42 4.87 45.156 7.768 45.156C9.586 45.156 10.648 43.878 10.648 42.222C10.648 40.764 9.928 39.954 8.848 39.954C8.002 39.954 7.444 40.44 7.444 41.322C7.444 41.808 7.696 42.294 8.218 42.582L7.264 43.284C6.526 42.888 6.112 42.078 6.112 41.232C6.112 39.846 7.102 38.712 8.812 38.712C10.666 38.712 11.962 40.206 11.962 42.24C11.962 42.942 11.8 43.608 11.53 44.166L14.014 46.056L14.086 46.038C13.996 44.832 13.978 43.608 13.978 42.456V37.596H0.64ZM28.5864 34.446C27.3264 33.33 25.3644 32.304 23.1504 32.304C21.1704 32.304 20.1804 33.6 20.1804 35.094V36.444H22.3404V37.596H20.1804V48H18.8664V37.596H16.7064V36.444H18.8664V34.932C18.8664 32.916 20.3964 31.08 23.1324 31.08C25.8864 31.08 28.2084 32.448 29.3784 33.51L28.5864 34.446ZM34.3723 37.596H27.8203V40.44C27.8203 41.052 28.0543 41.43 28.6663 41.43C29.2243 41.43 30.4663 41.052 31.7443 39.864C32.3383 40.26 33.0943 41.322 33.0943 42.672C33.0943 45.156 31.2943 46.902 28.4683 46.902C24.8503 46.902 22.8343 43.914 22.6723 40.458L23.9323 40.188C24.0583 43.626 25.8943 45.678 28.4863 45.678C30.4663 45.678 31.7983 44.49 31.7983 42.708C31.7983 42.204 31.6723 41.772 31.4923 41.538C30.6283 42.258 29.5483 42.654 28.5763 42.654C27.2623 42.654 26.4883 41.736 26.4883 40.512V37.596H21.6283V36.444H34.3723V37.596ZM36.8197 37.632C37.5217 36.876 38.4757 36.282 39.8077 36.282C41.4817 36.282 42.8677 37.398 42.8677 39.072C42.8677 40.08 42.4717 40.854 41.8237 41.43C42.8497 42.06 43.7497 43.068 43.7497 44.508C43.7497 46.236 42.5437 47.694 40.3297 47.694C37.2697 47.694 35.2537 44.328 34.4437 41.394L35.6317 40.908C36.3697 43.86 38.1517 46.452 40.3297 46.452C41.7157 46.452 42.4177 45.534 42.4177 44.472C42.4177 43.338 41.6077 42.618 40.7257 42.15C40.3117 42.348 39.8617 42.492 39.3937 42.6L38.7457 41.484C40.4017 41.196 41.5537 40.44 41.5537 39.072C41.5537 38.1 40.8697 37.47 39.8257 37.47C38.9257 37.47 38.2597 37.974 37.7557 38.532L36.8197 37.632ZM54.6878 47.172L54.0218 48.234C52.0238 47.46 50.9618 45.354 50.9618 42.726C50.9618 40.836 51.4478 38.64 52.9958 36.444H55.2458V37.596H53.8598C52.9058 38.946 52.2758 40.836 52.2758 42.726C52.2758 44.85 53.0318 46.416 54.6878 47.172ZM57.2705 38.892C58.4765 38.964 59.8265 39.612 60.2945 41.286L63.2285 39.306C62.5805 38.226 61.5365 37.542 60.1505 37.542C58.6565 37.542 57.6485 38.406 57.2705 38.892ZM56.3525 39.918L55.5965 38.874C56.2985 37.722 57.8285 36.336 60.0965 36.336C62.3285 36.336 63.5525 37.632 64.0925 38.658L64.1645 38.64C64.0745 38.37 63.8945 36.822 63.8945 35.418V34.662H65.1905V36.444H67.3325V37.596H65.1905V49.53H63.9125V45.264C63.7685 44.832 63.3185 44.184 62.5445 44.184C61.6985 44.184 61.1945 44.832 61.1945 45.93V46.542H59.9705V45.912C59.9705 44.796 59.3585 44.22 58.5125 44.22C57.6665 44.22 57.0545 44.922 57.0545 46.146C57.0545 47.622 57.9185 48.306 59.0885 48.306C59.4305 48.306 59.7905 48.234 60.0965 48.126L60.3665 49.278C59.9705 49.422 59.5565 49.512 59.1065 49.512C57.1445 49.512 55.7945 48.18 55.7945 46.146C55.7945 44.796 56.3705 43.824 57.2165 43.338L59.2685 41.97C58.9625 40.854 58.2425 40.08 56.8025 39.99C56.6585 39.954 56.5325 39.936 56.3525 39.918ZM60.6185 44.22C60.8525 43.626 61.4105 43.014 62.3825 43.014C63.1745 43.014 63.6245 43.392 63.8405 43.626H63.9125V42.132C63.9125 41.538 63.8405 40.98 63.6965 40.458L61.3205 42.024C60.6545 42.456 60.0245 42.852 59.4665 43.194C60.0785 43.41 60.3665 43.842 60.5465 44.22H60.6185ZM80.9583 44.868C81.7323 44.544 82.3983 43.716 82.3983 42.726C82.3983 41.466 81.4263 40.512 79.6263 40.476V46.794L80.3643 47.388L79.3383 48.18L73.0743 43.014V41.862C74.5863 40.566 76.4043 39.594 78.3303 39.324V37.596H71.7962V36.444H84.9543V37.596H79.6263V39.252C82.2363 39.306 83.6943 40.98 83.6943 42.744C83.6943 44.148 82.9023 45.264 81.8763 45.822L80.9583 44.868ZM74.3883 42.474L78.3843 45.84H78.4563C78.3483 44.544 78.3303 43.356 78.3303 42.222V40.584C76.8183 40.8 75.3963 41.646 74.3883 42.474ZM86.3836 48.144C86.3836 48.684 86.7616 49.044 87.2656 49.044C87.7876 49.044 88.1656 48.684 88.1656 48.144C88.1656 47.622 87.7876 47.262 87.2656 47.262C86.7616 47.262 86.3836 47.622 86.3836 48.144ZM91.3696 37.596H84.2416V36.444H94.8436V37.596H92.7016V46.848L93.4396 47.334L92.5216 48.252L85.5196 43.662V42.456C86.5636 41.412 89.2096 39.648 91.3696 38.946V37.596ZM91.3696 40.26C89.8936 40.8 87.6976 42.186 86.8336 43.05L91.4416 46.056H91.5136C91.4056 44.85 91.3696 43.608 91.3696 42.438V40.26ZM98.3865 42.51C98.3865 44.4 97.0905 45.498 95.3625 45.498C93.4725 45.498 92.0505 44.202 91.8885 42.15L92.6805 41.16C92.6805 42.636 93.3825 44.274 95.3265 44.274C96.4245 44.274 97.1265 43.59 97.1265 42.51C97.1265 41.394 96.3705 40.872 95.4885 40.872C94.9845 40.872 94.4985 41.016 94.0485 41.34L93.6345 40.242C94.1385 39.882 94.8225 39.648 95.5245 39.648C97.1085 39.648 98.3865 40.728 98.3865 42.51ZM94.1205 37.596H99.6105V36.444H94.1205V37.596ZM101.89 44.022L100.72 44.544C100.288 44.13 100.036 43.536 100.036 42.798C100.036 41.07 101.17 39.936 103.096 39.936C105.418 39.936 106.84 41.61 107.56 43.14H107.632C107.614 42.996 107.452 41.844 107.452 39.558V37.596H98.8841V36.444H110.926V37.596H108.784V48H107.452V47.622C107.452 44.796 105.868 41.178 103.168 41.178C101.944 41.178 101.35 41.862 101.35 42.798C101.35 43.266 101.566 43.698 101.89 44.022ZM115.55 48H114.164V36.444H115.55V48ZM126.974 44.022L125.804 44.544C125.372 44.13 125.12 43.536 125.12 42.798C125.12 41.07 126.254 39.936 128.18 39.936C130.502 39.936 131.924 41.61 132.644 43.14H132.716C132.698 42.996 132.536 41.844 132.536 39.558V37.596H123.968V36.444H136.01V37.596H133.868V48H132.536V47.622C132.536 44.796 130.952 41.178 128.252 41.178C127.028 41.178 126.434 41.862 126.434 42.798C126.434 43.266 126.65 43.698 126.974 44.022ZM130.752 52.698C131.958 52.698 132.534 51.69 132.534 50.34V50.124C131.94 49.8 131.346 49.62 130.734 49.62C129.654 49.62 129.078 50.304 129.078 51.204C129.078 52.068 129.78 52.698 130.752 52.698ZM136.134 53.508C135.414 52.608 134.622 51.708 133.794 51.006C133.578 52.698 132.57 53.796 130.734 53.796C128.934 53.796 127.818 52.662 127.818 51.204C127.818 49.602 129.024 48.522 130.644 48.522C131.31 48.522 131.94 48.666 132.534 48.918V47.442H133.848V49.656C135.072 50.502 136.152 51.708 137.07 52.788L136.134 53.508ZM138.294 44.022L137.124 44.544C136.692 44.13 136.44 43.536 136.44 42.798C136.44 41.07 137.574 39.936 139.5 39.936C141.822 39.936 143.244 41.61 143.964 43.14H144.036C144.018 42.996 143.856 41.844 143.856 39.558V37.596H135.288V36.444H147.33V37.596H145.188V48H143.856V47.622C143.856 44.796 142.272 41.178 139.572 41.178C138.348 41.178 137.754 41.862 137.754 42.798C137.754 43.266 137.97 43.698 138.294 44.022ZM160.974 37.488C159.462 37.488 157.698 39.378 157.698 40.728C157.698 41.448 158.076 41.808 158.796 41.808C159.354 41.808 159.786 41.556 159.966 41.394L160.488 42.438C160.038 42.78 159.39 42.996 158.742 42.996C157.248 42.996 156.366 42.078 156.366 40.746C156.366 38.802 158.616 36.264 161.028 36.264C162.36 36.264 163.08 37.02 163.08 38.28V48H161.892C161.802 47.046 161.1 46.524 159.3 46.524C158.76 46.524 157.662 46.578 157.05 46.578C154.548 46.578 153.144 45.336 153.144 43.572C153.144 42.744 153.414 42.078 153.738 41.646L154.998 42.168C154.62 42.582 154.476 43.086 154.476 43.59C154.476 44.58 155.232 45.372 157.266 45.372C158.004 45.372 158.886 45.318 159.462 45.318C160.776 45.318 161.388 45.534 161.82 45.93H161.892C161.838 45.552 161.784 44.706 161.784 42.204V38.262C161.784 37.776 161.568 37.488 160.974 37.488ZM173.342 43.086C174.188 42.474 174.8 41.736 174.8 40.944C174.8 40.368 174.404 39.99 173.684 39.99C173.162 39.99 172.676 40.116 172.316 40.35L171.2 39.414C171.884 37.038 173.342 36.336 174.728 36.336C176.06 36.336 177.212 37.146 177.806 38.37C178.31 37.65 178.796 36.732 178.976 36.444H179.804C180.992 37.164 182.036 38.28 182.036 39.756C182.036 40.764 181.712 41.592 181.082 42.294C181.784 42.834 182.324 43.716 182.324 44.886C182.324 47.262 180.308 48.648 177.734 48.648C174.53 48.648 172.226 46.668 170.75 43.626L171.776 42.798C173.252 45.966 175.232 47.388 177.752 47.388C179.768 47.388 180.974 46.29 180.974 44.868C180.974 44.13 180.65 43.518 180.164 43.122C179.75 43.41 179.264 43.698 178.724 43.968L177.878 42.942C179.714 42.06 180.758 41.196 180.758 39.756C180.758 38.964 180.218 38.28 179.642 37.866C179.372 38.352 178.778 39.378 178.256 40.044H177.194C176.816 38.658 176.06 37.56 174.71 37.56C173.72 37.56 173.072 38.19 172.748 38.946L172.802 39C173.108 38.892 173.504 38.856 173.774 38.856C175.304 38.856 176.06 39.756 176.06 40.908C176.06 42.042 175.268 43.248 174.314 43.896L173.342 43.086ZM182.82 37.596V36.444H193.602V37.596H191.442V48.558H190.236C189.966 46.848 188.814 44.634 186.906 44.634C185.916 44.634 185.448 45.21 185.448 45.93C185.448 46.416 185.646 46.758 185.898 47.064L184.8 47.532C184.44 47.136 184.17 46.578 184.17 45.894C184.17 44.49 185.178 43.428 186.87 43.428C188.418 43.428 189.588 44.346 190.254 45.66H190.326C190.308 45.57 190.218 44.904 190.182 43.644C189.786 42.024 188.67 40.152 186.906 40.152C185.916 40.152 185.448 40.728 185.448 41.43C185.448 41.934 185.646 42.258 185.898 42.564L184.8 43.032C184.44 42.636 184.17 42.078 184.17 41.394C184.17 39.99 185.16 38.946 186.852 38.946C188.4 38.946 189.57 39.882 190.254 41.178H190.326C190.308 41.052 190.146 39.882 190.146 37.614V37.596H182.82ZM195.052 35.184V34.662H196.348V36.444H198.508V37.596H196.348V48H195.034V39.09C195.034 38.064 194.548 37.596 193.594 37.596H192.874V36.444H193.81C194.71 36.444 195.07 36.876 195.214 37.074H195.304C195.25 36.93 195.052 36.21 195.052 35.184ZM207.374 45.48C207.914 45.624 208.814 46.038 209.93 46.722L211.838 47.874L210.884 48.774C206.6 46.182 206.114 45.858 204.638 45.66V44.526H205.79C208.634 44.526 209.642 43.302 209.642 41.826C209.642 40.71 208.868 39.936 207.662 39.936C206.636 39.936 205.916 40.548 205.916 41.484C205.916 41.97 206.186 42.474 206.69 42.744L205.736 43.464C204.998 43.032 204.602 42.258 204.602 41.412C204.602 39.882 205.844 38.712 207.644 38.712C209.588 38.712 210.956 40.008 210.956 41.88C210.956 43.914 209.57 45.156 207.374 45.408V45.48ZM202.982 37.596V36.444H212.594V37.596H202.982ZM216.916 47.172L216.25 48.234C214.252 47.46 213.19 45.354 213.19 42.726C213.19 40.854 213.784 38.928 214.576 37.596H211.876V36.444H217.474V37.596H216.07C215.116 38.82 214.504 40.836 214.504 42.726C214.504 44.85 215.26 46.416 216.916 47.172ZM223.891 37.596H216.763V36.444H227.365V37.596H225.223V46.848L225.961 47.334L225.043 48.252L218.041 43.662V42.456C219.085 41.412 221.731 39.648 223.891 38.946V37.596ZM223.891 40.26C222.415 40.8 220.219 42.186 219.355 43.05L223.963 46.056H224.035C223.927 44.85 223.891 43.608 223.891 42.438V40.26ZM241.008 37.488C239.496 37.488 237.732 39.378 237.732 40.728C237.732 41.448 238.11 41.808 238.83 41.808C239.388 41.808 239.82 41.556 240 41.394L240.522 42.438C240.072 42.78 239.424 42.996 238.776 42.996C237.282 42.996 236.4 42.078 236.4 40.746C236.4 38.802 238.65 36.264 241.062 36.264C242.394 36.264 243.114 37.02 243.114 38.28V48H241.926C241.836 47.046 241.134 46.524 239.334 46.524C238.794 46.524 237.696 46.578 237.084 46.578C234.582 46.578 233.178 45.336 233.178 43.572C233.178 42.744 233.448 42.078 233.772 41.646L235.032 42.168C234.654 42.582 234.51 43.086 234.51 43.59C234.51 44.58 235.266 45.372 237.3 45.372C238.038 45.372 238.92 45.318 239.496 45.318C240.81 45.318 241.422 45.534 241.854 45.93H241.926C241.872 45.552 241.818 44.706 241.818 42.204V38.262C241.818 37.776 241.602 37.488 241.008 37.488ZM253.644 42.33V34.662H254.958V36.444H257.1V37.596H254.958V46.884L255.732 47.28L254.868 48.234L245.724 43.644V42.366C248.964 42.132 250.44 40.98 250.44 39.378C250.44 38.802 250.206 38.37 249.864 38.064C249.288 39.342 248.28 39.99 247.164 39.99C245.742 39.99 244.842 39.09 244.842 37.92C244.842 37.308 245.04 36.768 245.22 36.444H246.57C246.354 36.804 246.156 37.326 246.156 37.866C246.156 38.406 246.48 38.82 247.218 38.82C248.064 38.82 248.748 38.244 249.36 36.444H249.954C251.034 37.218 251.682 38.226 251.682 39.378C251.682 41.448 250.206 42.69 247.776 43.176V43.248L253.68 46.272L253.752 46.254C253.662 44.868 253.644 43.662 253.644 42.33ZM258.562 35.184V34.662H259.858V36.444H262.018V37.596H259.858V48H258.544V39.09C258.544 38.064 258.058 37.596 257.104 37.596H256.384V36.444H257.32C258.22 36.444 258.58 36.876 258.724 37.074H258.814C258.76 36.93 258.562 36.21 258.562 35.184ZM266.346 47.172L265.68 48.234C263.682 47.46 262.62 45.354 262.62 42.726C262.62 40.854 263.214 38.928 264.006 37.596H261.306V36.444H266.904V37.596H265.5C264.546 38.82 263.934 40.836 263.934 42.726C263.934 44.85 264.69 46.416 266.346 47.172ZM269.199 44.022L268.029 44.544C267.597 44.13 267.345 43.536 267.345 42.798C267.345 41.07 268.479 39.936 270.405 39.936C272.727 39.936 274.149 41.61 274.869 43.14H274.941C274.923 42.996 274.761 41.844 274.761 39.558V37.596H266.193V36.444H278.235V37.596H276.093V48H274.761V47.622C274.761 44.796 273.177 41.178 270.477 41.178C269.253 41.178 268.659 41.862 268.659 42.798C268.659 43.266 268.875 43.698 269.199 44.022Z" fill="#F5F9FA"/>
<path d="M211.236 173.425C210.897 174.503 210.111 175.228 208.878 175.597C208.878 176.244 208.924 177.092 209.017 178.14C209.109 179.188 209.217 180.343 209.34 181.607C209.494 182.839 209.649 184.134 209.803 185.49C209.988 186.815 210.157 188.094 210.311 189.326C210.465 190.528 210.589 191.622 210.681 192.608C210.804 193.595 210.866 194.365 210.866 194.92V196.445C210.866 197.832 210.835 199.265 210.773 200.744C210.743 202.223 210.65 203.78 210.496 205.413C209.941 208.495 209.371 210.837 208.786 212.439C208.2 214.011 207.599 214.797 206.983 214.797C206.89 214.797 206.829 214.751 206.798 214.658C206.983 213.518 207.075 212.085 207.075 210.359C207.075 204.627 206.798 198.957 206.243 193.348C205.719 187.709 204.949 182.038 203.932 176.337C203.809 175.751 203.747 174.981 203.747 174.026C203.747 172.947 203.809 171.853 203.932 170.744C204.055 169.603 204.209 168.586 204.394 167.693C204.579 166.768 204.795 166.013 205.041 165.428C205.288 164.842 205.534 164.549 205.781 164.549C206.305 164.549 206.798 165.551 207.26 167.554C208.493 170.235 209.818 172.192 211.236 173.425Z" fill="white"/>
<path d="M220.203 221.435C220.049 221.743 219.725 222.437 219.232 223.515C218.77 224.594 218.138 226.073 217.337 227.953C212.991 230.819 206.936 234.24 199.17 238.215C199.324 237.722 199.632 236.936 200.094 235.858C200.557 234.779 201.142 233.377 201.851 231.651C204.655 230.079 207.583 228.446 210.634 226.751C213.685 225.087 216.874 223.315 220.203 221.435Z" fill="white"/>
<path d="M177.953 205.043C178.199 205.074 178.446 205.089 178.692 205.089C178.97 205.089 179.232 205.089 179.478 205.089C184.255 205.089 189.062 203.903 193.901 201.53C193.931 201.468 193.947 201.345 193.947 201.16C193.947 200.883 193.839 200.374 193.623 199.635C193.407 198.895 193.176 198.109 192.93 197.277C192.683 196.414 192.452 195.567 192.236 194.735C192.021 193.903 191.913 193.256 191.913 192.793C191.913 192.208 192.051 191.345 192.329 190.205C192.606 189.064 193.146 187.477 193.947 185.443L194.317 185.49C194.409 185.798 194.532 186.168 194.686 186.599C194.81 186.969 194.964 187.447 195.149 188.032C195.364 188.587 195.595 189.234 195.842 189.974C196.458 191.792 196.767 193.795 196.767 195.983C196.767 197.277 196.643 198.649 196.397 200.097C196.181 201.515 195.811 203.009 195.287 204.581C193.161 211.083 187.783 214.335 179.154 214.335C178.815 214.335 178.492 214.335 178.184 214.335C177.876 214.335 177.552 214.319 177.213 214.288C176.566 213.765 176.088 213.04 175.78 212.116C175.441 211.16 175.271 210.19 175.271 209.204C175.271 208.279 175.426 207.432 175.734 206.661C176.042 205.86 176.535 205.305 177.213 204.997L177.953 205.043ZM177.213 172.546L184.008 165.751L190.85 172.546L184.008 179.388L177.213 172.546Z" fill="#FFCA3A"/>
<path d="M190.803 148.296C190.803 148.235 190.788 148.204 190.757 148.204C190.757 148.173 190.757 148.142 190.757 148.112V148.019C190.726 148.019 190.695 148.466 190.664 149.36C190.634 150.223 190.587 151.64 190.526 153.612C190.433 156.571 189.124 158.05 186.597 158.05C184.871 158.05 183.561 157.141 182.667 155.323L182.02 156.34C181.188 157.665 180.017 158.327 178.507 158.327C177.891 158.327 177.382 158.143 176.982 157.773C176.612 157.372 176.304 156.879 176.057 156.294C175.841 155.677 175.687 155.015 175.595 154.306C175.502 153.566 175.456 152.873 175.456 152.226C175.456 151.455 175.502 150.716 175.595 150.007C175.687 149.267 175.81 148.605 175.965 148.019C176.119 147.434 176.288 146.94 176.473 146.54C176.658 146.139 176.827 145.877 176.982 145.754H177.444C177.567 145.908 177.629 146.247 177.629 146.771C177.629 146.987 177.598 147.31 177.536 147.742C177.505 148.142 177.459 148.574 177.398 149.036C177.367 149.467 177.336 149.884 177.305 150.284C177.274 150.685 177.259 150.993 177.259 151.209C177.259 153.058 177.891 153.982 179.154 153.982C180.233 153.982 181.034 153.797 181.558 153.427C182.113 153.027 182.39 152.518 182.39 151.902C182.39 151.81 182.359 151.64 182.297 151.394C182.267 151.147 182.22 150.87 182.159 150.561C182.097 150.223 182.036 149.899 181.974 149.591C181.943 149.252 181.928 148.959 181.928 148.712C181.928 148.189 181.974 147.695 182.066 147.233C182.19 146.74 182.313 146.309 182.436 145.939C182.59 145.569 182.729 145.276 182.852 145.061C182.975 144.814 183.068 144.691 183.13 144.691C183.222 144.691 183.314 144.783 183.407 144.968C183.53 145.122 183.623 145.415 183.684 145.846C183.746 146.278 183.792 146.863 183.823 147.603C183.885 148.312 183.915 149.236 183.915 150.377C183.915 151.239 184.224 152.01 184.84 152.688C185.456 153.366 186.458 153.705 187.845 153.705C188.615 153.705 189.062 153.505 189.185 153.104C189.124 152.857 189.093 152.672 189.093 152.549V152.318C189.093 151.794 189 151.286 188.815 150.793C188.661 150.269 188.492 149.806 188.307 149.406C188.091 148.944 187.845 148.512 187.567 148.112C187.567 147.988 187.613 147.773 187.706 147.464C187.768 147.218 187.86 146.863 187.983 146.401C188.107 145.939 188.261 145.307 188.446 144.506C188.476 144.29 188.661 144.013 189 143.674H189.278C189.401 144.013 189.54 144.413 189.694 144.876C189.848 145.276 190.002 145.769 190.156 146.355C190.341 146.94 190.557 147.588 190.803 148.296Z" fill="white"/>
<path d="M193.161 124C193.007 124.308 192.683 125.002 192.19 126.08C191.728 127.159 191.096 128.638 190.295 130.518C185.949 133.384 179.894 136.805 172.128 140.78C172.282 140.287 172.59 139.501 173.052 138.422C173.515 137.344 174.1 135.942 174.809 134.216C177.613 132.644 180.541 131.026 183.592 129.362C186.643 127.667 189.832 125.88 193.161 124Z" fill="white"/>
<path d="M175.595 214.288C170.818 214.227 167.167 212.054 164.64 207.771C162.143 203.456 160.602 197.015 160.017 188.448C159.955 187.431 159.863 185.628 159.74 183.04C159.616 180.451 159.462 177.046 159.277 172.824C159.216 171.252 159.154 169.126 159.092 166.445C159.031 163.763 159 160.466 159 156.552C159 156.244 159.046 155.859 159.139 155.397C159.231 154.903 159.354 154.441 159.508 154.01C159.663 153.578 159.847 153.209 160.063 152.9C160.279 152.561 160.525 152.392 160.803 152.392C161.296 152.392 161.635 153.779 161.82 156.552L163.345 180.127C163.623 184.473 163.977 188.032 164.408 190.806C164.871 193.548 165.41 195.752 166.026 197.416C166.674 199.08 167.398 200.359 168.199 201.253C169.031 202.116 169.94 202.855 170.926 203.471C171.697 203.965 172.544 204.35 173.469 204.627C174.424 204.904 175.441 205.043 176.52 205.043C176.643 205.043 176.751 205.043 176.843 205.043C176.966 205.012 177.09 204.997 177.213 204.997C178.292 205.151 179.062 205.613 179.524 206.384C179.987 207.123 180.218 207.971 180.218 208.926C180.218 209.542 180.125 210.174 179.94 210.821C179.786 211.469 179.555 212.054 179.247 212.578C178.939 213.102 178.569 213.533 178.138 213.872C177.706 214.181 177.244 214.335 176.751 214.335C176.597 214.335 176.427 214.335 176.242 214.335C176.057 214.335 175.842 214.319 175.595 214.288Z" fill="white"/>
<path d="M166.761 254.804C166.749 254.312 166.629 253.958 166.401 253.742C166.185 253.526 165.825 253.418 165.321 253.418H164.025C163.233 253.418 162.621 253.364 162.189 253.256C161.769 253.148 161.409 252.98 161.109 252.752C160.785 252.512 160.539 252.206 160.371 251.834C160.215 251.45 160.137 251.018 160.137 250.538C160.137 250.382 160.149 250.226 160.173 250.07C160.185 249.914 160.203 249.752 160.227 249.584L161.559 249.674C161.535 249.818 161.517 249.944 161.505 250.052C161.493 250.16 161.487 250.262 161.487 250.358C161.487 250.622 161.511 250.856 161.559 251.06C161.619 251.264 161.709 251.432 161.829 251.564C161.997 251.756 162.237 251.9 162.549 251.996C162.873 252.08 163.329 252.122 163.917 252.122H164.943C165.579 252.122 166.083 252.17 166.455 252.266C166.827 252.362 167.145 252.536 167.409 252.788C167.613 252.98 167.769 253.244 167.877 253.58C167.985 253.904 168.045 254.312 168.057 254.804H166.761ZM164.673 257C165.621 257 166.383 257.162 166.959 257.486C167.547 257.798 167.979 258.2 168.255 258.692C168.531 259.172 168.669 259.658 168.669 260.15C168.669 261.134 168.321 261.914 167.625 262.49C166.941 263.066 165.921 263.39 164.565 263.462L164.745 263.264C165.285 263.42 165.855 263.642 166.455 263.93C167.055 264.218 167.661 264.554 168.273 264.938C168.885 265.31 169.473 265.724 170.037 266.18L169.209 267.134C168.465 266.582 167.781 266.108 167.157 265.712C166.545 265.304 165.939 264.95 165.339 264.65C164.739 264.35 164.103 264.086 163.431 263.858C162.759 263.63 161.997 263.42 161.145 263.228L161.415 261.986C161.835 262.106 162.237 262.196 162.621 262.256C163.017 262.304 163.491 262.328 164.043 262.328C164.895 262.328 165.549 262.226 166.005 262.022C166.473 261.818 166.797 261.554 166.977 261.23C167.157 260.906 167.247 260.576 167.247 260.24C167.247 259.604 167.013 259.118 166.545 258.782C166.077 258.434 165.483 258.26 164.763 258.26C164.331 258.26 163.983 258.302 163.719 258.386C163.455 258.47 163.263 258.596 163.143 258.764C163.035 258.92 162.981 259.112 162.981 259.34C162.981 259.436 162.993 259.538 163.017 259.646C163.041 259.742 163.065 259.832 163.089 259.916L161.775 260.186C161.715 260.006 161.667 259.82 161.631 259.628C161.595 259.424 161.577 259.244 161.577 259.088C161.577 258.644 161.709 258.266 161.973 257.954C162.237 257.642 162.597 257.408 163.053 257.252C163.521 257.084 164.061 257 164.673 257ZM163.467 257.63C163.407 257.246 163.227 256.91 162.927 256.622C162.627 256.322 162.195 256.112 161.631 255.992L162.063 255.182L162.891 255.398C163.563 255.662 164.049 255.962 164.349 256.298C164.661 256.634 164.841 257.06 164.889 257.576L163.467 257.63ZM170.037 254.804V256.082H160.137V254.804H170.037ZM208.09 254.804V256.082H206.2V266H204.814V261.626L205.102 262.634C204.706 262.082 204.274 261.584 203.806 261.14C203.338 260.696 202.858 260.342 202.366 260.078C201.874 259.814 201.394 259.682 200.926 259.682C200.482 259.682 200.104 259.802 199.792 260.042C199.492 260.27 199.342 260.612 199.342 261.068C199.342 261.428 199.468 261.74 199.72 262.004C199.972 262.256 200.362 262.484 200.89 262.688L200.206 263.966C199.474 263.666 198.898 263.264 198.478 262.76C198.07 262.244 197.866 261.662 197.866 261.014C197.866 260.426 198.004 259.94 198.28 259.556C198.568 259.16 198.928 258.866 199.36 258.674C199.804 258.482 200.254 258.386 200.71 258.386C201.334 258.386 201.904 258.494 202.42 258.71C202.936 258.926 203.416 259.22 203.86 259.592C204.316 259.964 204.748 260.396 205.156 260.888L204.904 260.96C204.868 260.684 204.844 260.414 204.832 260.15C204.82 259.874 204.814 259.598 204.814 259.322V256.082H196.858V254.804H208.09ZM212.869 254.804V256.082H210.979V266H209.593V257.558C209.449 257.15 209.233 256.802 208.945 256.514C208.669 256.226 208.309 256.082 207.865 256.082H207.721V254.804H207.991C208.279 254.804 208.579 254.9 208.891 255.092C209.203 255.272 209.455 255.554 209.647 255.938C209.635 255.878 209.623 255.74 209.611 255.524C209.599 255.308 209.593 255.122 209.593 254.966V253.616H210.565L210.961 254.804H212.869Z" fill="#F5F9FA"/>
<path d="M180.914 254.804V256.082H179.024V266H177.638V261.626L177.926 262.634C177.53 262.082 177.098 261.584 176.63 261.14C176.162 260.696 175.682 260.342 175.19 260.078C174.698 259.814 174.218 259.682 173.75 259.682C173.306 259.682 172.928 259.802 172.616 260.042C172.316 260.27 172.166 260.612 172.166 261.068C172.166 261.428 172.292 261.74 172.544 262.004C172.796 262.256 173.186 262.484 173.714 262.688L173.03 263.966C172.298 263.666 171.722 263.264 171.302 262.76C170.894 262.244 170.69 261.662 170.69 261.014C170.69 260.426 170.828 259.94 171.104 259.556C171.392 259.16 171.752 258.866 172.184 258.674C172.628 258.482 173.078 258.386 173.534 258.386C174.158 258.386 174.728 258.494 175.244 258.71C175.76 258.926 176.24 259.22 176.684 259.592C177.14 259.964 177.572 260.396 177.98 260.888L177.728 260.96C177.692 260.684 177.668 260.414 177.656 260.15C177.644 259.874 177.638 259.598 177.638 259.322V256.082H169.682V254.804H180.914ZM182.778 266.108C182.442 266.108 182.154 265.994 181.914 265.766C181.674 265.526 181.554 265.226 181.554 264.866C181.554 264.506 181.674 264.212 181.914 263.984C182.154 263.756 182.442 263.642 182.778 263.642C183.102 263.642 183.378 263.756 183.606 263.984C183.846 264.212 183.966 264.506 183.966 264.866C183.966 265.226 183.846 265.526 183.606 265.766C183.378 265.994 183.102 266.108 182.778 266.108ZM186.856 266.108C186.52 266.108 186.232 265.994 185.992 265.766C185.752 265.526 185.632 265.226 185.632 264.866C185.632 264.506 185.752 264.212 185.992 263.984C186.232 263.756 186.52 263.642 186.856 263.642C187.18 263.642 187.456 263.756 187.684 263.984C187.924 264.212 188.044 264.506 188.044 264.866C188.044 265.226 187.924 265.526 187.684 265.766C187.456 265.994 187.18 266.108 186.856 266.108ZM190.934 266.108C190.598 266.108 190.31 265.994 190.07 265.766C189.83 265.526 189.71 265.226 189.71 264.866C189.71 264.506 189.83 264.212 190.07 263.984C190.31 263.756 190.598 263.642 190.934 263.642C191.258 263.642 191.534 263.756 191.762 263.984C192.002 264.212 192.122 264.506 192.122 264.866C192.122 265.226 192.002 265.526 191.762 265.766C191.534 265.994 191.258 266.108 190.934 266.108ZM195.012 266.108C194.676 266.108 194.388 265.994 194.148 265.766C193.908 265.526 193.788 265.226 193.788 264.866C193.788 264.506 193.908 264.212 194.148 263.984C194.388 263.756 194.676 263.642 195.012 263.642C195.336 263.642 195.612 263.756 195.84 263.984C196.08 264.212 196.2 264.506 196.2 264.866C196.2 265.226 196.08 265.526 195.84 265.766C195.612 265.994 195.336 266.108 195.012 266.108Z" fill="#FFCA3A"/>
</svg>
