<svg width="126" height="124" viewBox="0 0 126 124" fill="none" xmlns="http://www.w3.org/2000/svg">
<path d="M36.9092 109.82C37.5812 109.82 38.1632 109.97 38.6552 110.27C39.1592 110.57 39.5792 111.128 39.9152 111.944L39.2852 111.908L40.7432 110.162L41.8412 109.91L41.8772 110.648L39.9692 113.006L38.8712 113.06C38.7872 112.412 38.5772 111.914 38.2412 111.566C37.9172 111.218 37.5212 111.044 37.0532 111.044C36.7172 111.044 36.4592 111.134 36.2792 111.314C36.0992 111.494 36.0092 111.71 36.0092 111.962C36.0092 112.298 36.1052 112.556 36.2972 112.736C36.5012 112.904 36.7532 113.06 37.0532 113.204L36.4232 114.482C35.7632 114.182 35.2892 113.81 35.0012 113.366C34.7132 112.922 34.5692 112.46 34.5692 111.98C34.5692 111.476 34.6832 111.068 34.9112 110.756C35.1392 110.432 35.4332 110.198 35.7932 110.054C36.1532 109.898 36.5252 109.82 36.9092 109.82ZM43.3892 113.294C43.3892 114.002 43.2332 114.608 42.9212 115.112C42.6092 115.616 42.1652 116.012 41.5892 116.3C41.0252 116.588 40.3532 116.78 39.5732 116.876L39.4652 116.696C40.0052 116.852 40.5752 117.074 41.1752 117.362C41.7752 117.65 42.3812 117.986 42.9932 118.37C43.6052 118.754 44.1932 119.174 44.7572 119.63L43.9292 120.584C43.1492 119.996 42.4352 119.492 41.7872 119.072C41.1392 118.652 40.5092 118.298 39.8972 118.01C39.2852 117.71 38.6372 117.452 37.9532 117.236C37.2692 117.02 36.5012 116.816 35.6492 116.624L35.9012 115.364C36.4052 115.508 36.8612 115.61 37.2692 115.67C37.6772 115.718 38.1212 115.742 38.6012 115.742C39.4652 115.742 40.1432 115.634 40.6352 115.418C41.1272 115.19 41.4752 114.89 41.6792 114.518C41.8952 114.134 42.0032 113.714 42.0032 113.258C42.0032 112.742 41.8952 112.298 41.6792 111.926C41.4752 111.542 41.2232 111.218 40.9232 110.954L41.8412 109.91C42.2252 110.27 42.5792 110.738 42.9032 111.314C43.2272 111.878 43.3892 112.538 43.3892 113.294ZM44.7572 107.804V109.082H33.5612V107.804H44.7572ZM55.9453 107.804V109.082H54.0553V119H52.6693V116.57L52.9933 117.524C52.5733 116.888 52.1473 116.3 51.7153 115.76C51.2953 115.22 50.8453 114.782 50.3653 114.446C49.8973 114.11 49.3813 113.942 48.8173 113.942C48.3733 113.942 47.9953 114.056 47.6833 114.284C47.3833 114.512 47.2333 114.854 47.2333 115.31C47.2333 115.706 47.3773 116.042 47.6653 116.318C47.9533 116.582 48.3793 116.81 48.9433 117.002L48.4933 118.388C47.8453 118.16 47.3173 117.884 46.9093 117.56C46.5133 117.236 46.2193 116.882 46.0273 116.498C45.8473 116.102 45.7573 115.688 45.7573 115.256C45.7573 114.68 45.8953 114.2 46.1713 113.816C46.4593 113.432 46.8193 113.144 47.2513 112.952C47.6953 112.748 48.1393 112.646 48.5833 112.646C49.3033 112.646 49.9333 112.778 50.4733 113.042C51.0253 113.306 51.5053 113.66 51.9133 114.104C52.3333 114.548 52.7113 115.046 53.0473 115.598L52.7413 115.652C52.7173 115.376 52.6993 115.1 52.6873 114.824C52.6753 114.536 52.6693 114.242 52.6693 113.942V109.082H44.3893V107.804H55.9453ZM49.9513 113.186C49.9513 113.258 49.9453 113.33 49.9333 113.402C49.9333 113.474 49.9273 113.546 49.9153 113.618L48.5473 113.204C48.5233 112.508 48.4033 111.95 48.1873 111.53C47.9713 111.11 47.6293 110.792 47.1613 110.576C46.6933 110.348 46.0573 110.192 45.2533 110.108L45.4873 108.812L46.3153 109.046C46.8913 109.094 47.4013 109.214 47.8453 109.406C48.3013 109.586 48.6853 109.844 48.9973 110.18C49.3093 110.516 49.5433 110.936 49.6993 111.44C49.8673 111.932 49.9513 112.514 49.9513 113.186ZM50.6186 123.788C50.2946 123.788 49.9406 123.716 49.5566 123.572C49.1726 123.44 48.8486 123.224 48.5846 122.924C48.3086 122.624 48.1706 122.222 48.1706 121.718C48.1706 121.106 48.4046 120.614 48.8726 120.242C49.3406 119.882 49.9946 119.702 50.8346 119.702C51.5786 119.702 52.2986 119.834 52.9946 120.098C53.6786 120.374 54.3806 120.752 55.1006 121.232C55.8086 121.712 56.5646 122.27 57.3686 122.906L56.5586 123.878C55.7546 123.206 55.0226 122.648 54.3626 122.204C53.7026 121.76 53.0786 121.424 52.4906 121.196C51.9026 120.968 51.3206 120.854 50.7446 120.854C50.3126 120.854 49.9886 120.938 49.7726 121.106C49.5566 121.274 49.4486 121.49 49.4486 121.754C49.4486 122.09 49.5686 122.324 49.8086 122.456C50.0366 122.6 50.3066 122.672 50.6186 122.672C51.0626 122.672 51.4226 122.576 51.6986 122.384C51.9626 122.204 52.1666 121.976 52.3106 121.7C52.4546 121.424 52.5506 121.136 52.5986 120.836C52.6466 120.548 52.6706 120.29 52.6706 120.062V118.856H54.0566V119.81C54.0566 120.146 54.0206 120.536 53.9486 120.98C53.8646 121.436 53.7086 121.874 53.4806 122.294C53.2406 122.726 52.8926 123.08 52.4366 123.356C51.9806 123.644 51.3746 123.788 50.6186 123.788ZM87.0699 110C88.0179 110 88.7799 110.162 89.3559 110.486C89.9439 110.798 90.3759 111.2 90.6519 111.692C90.9279 112.172 91.0659 112.658 91.0659 113.15C91.0659 114.134 90.7179 114.914 90.0219 115.49C89.3379 116.066 88.3179 116.39 86.9619 116.462L87.1419 116.264C87.6819 116.42 88.2519 116.642 88.8519 116.93C89.4519 117.218 90.0579 117.554 90.6699 117.938C91.2819 118.31 91.8699 118.724 92.4339 119.18L91.6059 120.134C90.8619 119.582 90.1779 119.108 89.5539 118.712C88.9419 118.304 88.3359 117.95 87.7359 117.65C87.1359 117.35 86.4999 117.086 85.8279 116.858C85.1559 116.63 84.3939 116.42 83.5419 116.228L83.8119 114.986C84.2319 115.106 84.6339 115.196 85.0179 115.256C85.4139 115.304 85.8879 115.328 86.4399 115.328C87.2919 115.328 87.9459 115.226 88.4019 115.022C88.8699 114.818 89.1939 114.554 89.3739 114.23C89.5539 113.906 89.6439 113.576 89.6439 113.24C89.6439 112.604 89.4099 112.118 88.9419 111.782C88.4739 111.434 87.8799 111.26 87.1599 111.26C86.7279 111.26 86.3799 111.302 86.1159 111.386C85.8519 111.47 85.6599 111.596 85.5399 111.764C85.4319 111.92 85.3779 112.112 85.3779 112.34C85.3779 112.436 85.3899 112.538 85.4139 112.646C85.4379 112.742 85.4619 112.832 85.4859 112.916L84.1719 113.186C84.1119 113.006 84.0639 112.82 84.0279 112.628C83.9919 112.424 83.9739 112.244 83.9739 112.088C83.9739 111.644 84.1059 111.266 84.3699 110.954C84.6339 110.642 84.9939 110.408 85.4499 110.252C85.9179 110.084 86.4579 110 87.0699 110ZM85.8639 110.63C85.8039 110.246 85.6239 109.91 85.3239 109.622C85.0239 109.322 84.5919 109.112 84.0279 108.992L84.4599 108.182L85.2879 108.398C85.9599 108.662 86.4459 108.962 86.7459 109.298C87.0579 109.634 87.2379 110.06 87.2859 110.576L85.8639 110.63ZM92.4339 107.804V109.082H82.5339V107.804H92.4339Z" fill="#F5F9FA"/>
<path d="M69.1046 107.804V109.082H67.2146V115.184H65.8286V112.43L65.9366 112.988C65.6726 112.604 65.3906 112.298 65.0906 112.07C64.8026 111.842 64.4846 111.728 64.1366 111.728C63.9566 111.728 63.7706 111.764 63.5786 111.836C63.3986 111.896 63.2426 112.016 63.1106 112.196C62.9906 112.376 62.9306 112.652 62.9306 113.024C62.9306 113.156 62.9306 113.276 62.9306 113.384C62.9426 113.48 62.9546 113.576 62.9666 113.672L61.7966 113.744C61.7246 113.024 61.4666 112.466 61.0226 112.07C60.5906 111.662 60.0986 111.458 59.5466 111.458C59.0666 111.458 58.7006 111.572 58.4486 111.8C58.1966 112.016 58.0706 112.304 58.0706 112.664C58.0706 113.132 58.2266 113.486 58.5386 113.726C58.8626 113.966 59.2886 114.188 59.8166 114.392L59.3306 115.724C58.8146 115.556 58.3466 115.34 57.9266 115.076C57.5186 114.8 57.1946 114.458 56.9546 114.05C56.7146 113.642 56.5946 113.144 56.5946 112.556C56.5946 112.1 56.7146 111.692 56.9546 111.332C57.2066 110.972 57.5426 110.69 57.9626 110.486C58.3946 110.27 58.8686 110.162 59.3846 110.162C60.1046 110.162 60.6926 110.282 61.1486 110.522C61.6046 110.75 62.0306 111.128 62.4266 111.656H62.1386C62.2586 111.26 62.4866 110.96 62.8226 110.756C63.1706 110.54 63.5306 110.432 63.9026 110.432C64.3346 110.432 64.7066 110.516 65.0186 110.684C65.3306 110.852 65.6726 111.092 66.0446 111.404L65.8826 111.674C65.8706 111.434 65.8586 111.188 65.8466 110.936C65.8346 110.672 65.8286 110.408 65.8286 110.144V109.082H55.5866V107.804H69.1046ZM60.9146 115.436C61.4066 115.436 61.8566 115.538 62.2646 115.742C62.6846 115.934 63.0086 116.216 63.2366 116.588C63.3686 116.312 63.5426 116.114 63.7586 115.994C63.9866 115.862 64.2506 115.796 64.5506 115.796C64.9106 115.796 65.2466 115.886 65.5586 116.066C65.8706 116.234 66.1946 116.468 66.5306 116.768L65.8466 116.498C65.8346 116.366 65.8286 116.228 65.8286 116.084C65.8286 115.928 65.8286 115.736 65.8286 115.508V114.716H67.2146V119.774H65.8286V116.588L66.4226 118.136C66.1226 117.8 65.8406 117.53 65.5766 117.326C65.3246 117.122 65.0546 117.02 64.7666 117.02C64.5146 117.02 64.3046 117.098 64.1366 117.254C63.9686 117.398 63.8846 117.644 63.8846 117.992C63.8846 118.076 63.8846 118.172 63.8846 118.28C63.8966 118.388 63.9086 118.484 63.9206 118.568L62.8226 118.622C62.7386 117.998 62.5346 117.518 62.2106 117.182C61.8986 116.834 61.5086 116.66 61.0406 116.66C60.6806 116.66 60.4106 116.75 60.2306 116.93C60.0506 117.11 59.9606 117.326 59.9606 117.578C59.9606 117.914 60.0746 118.19 60.3026 118.406C60.5426 118.61 60.9326 118.814 61.4726 119.018L60.9506 120.242C60.2306 119.978 59.6486 119.63 59.2046 119.198C58.7726 118.778 58.5566 118.22 58.5566 117.524C58.5566 116.924 58.7786 116.426 59.2226 116.03C59.6666 115.634 60.2306 115.436 60.9146 115.436ZM69.9586 114.806V113.312H74.8006V114.806H69.9586ZM76.8492 114.806V113.312H81.6912V114.806H76.8492Z" fill="#FFCA3A"/>
<path d="M67.457 39.8914C67.1972 40.7262 66.5924 41.2863 65.6429 41.5719C65.6429 42.0723 65.6793 42.7277 65.7522 43.538C65.8226 44.3484 65.9112 45.2368 66.0181 46.2034C66.1249 47.1675 66.244 48.1682 66.3751 49.2056C66.5038 50.2429 66.6277 51.2326 66.7467 52.1747C66.8656 53.1145 66.9665 53.9664 67.049 54.7304C67.1316 55.4919 67.1729 56.0874 67.1729 56.517V57.6995C67.1729 58.771 67.1558 59.8792 67.1218 61.024C67.0854 62.1663 67.0077 63.3696 66.8887 64.6339C66.4613 67.0186 66.023 68.8248 65.5737 70.0525C65.1221 71.2778 64.6594 71.8904 64.1858 71.8904C64.1154 71.8904 64.0681 71.855 64.0438 71.7843C64.1871 70.9031 64.2587 69.795 64.2587 68.4599C64.2587 64.0274 64.0511 59.6351 63.6358 55.2831C63.2205 50.9336 62.6208 46.5536 61.8364 42.1431C61.7417 41.6915 61.6943 41.0959 61.6943 40.3564C61.6943 39.5216 61.7417 38.6698 61.8364 37.8008C61.9335 36.9319 62.0525 36.1448 62.1933 35.4394C62.3366 34.7364 62.5029 34.1592 62.6923 33.7077C62.8818 33.2537 63.0712 33.0267 63.2606 33.0267C63.6637 33.0267 64.0437 33.8016 64.4007 35.3515C65.3478 37.4262 66.3666 38.9395 67.457 39.8914ZM46.7848 64.3117C47.3288 64.0969 47.8266 63.8882 48.2783 63.6856C48.7276 63.4831 49.1125 63.2329 49.4331 62.9351C49.7537 62.6374 50.0025 62.2627 50.1798 61.8111C50.3595 61.3571 50.4494 60.7848 50.4494 60.094C50.4494 59.7133 50.4311 59.2959 50.3947 58.8419C50.3582 58.3879 50.2927 57.8875 50.198 57.3408C49.654 55.6712 49.2278 54.2226 48.9194 52.9949C48.611 51.7671 48.4568 50.7847 48.4568 50.0476C48.4568 49.7132 48.5394 49.1531 48.7045 48.3672C48.8697 47.5788 49.1307 46.5414 49.4877 45.2551L49.7718 45.1123L50.056 45.1855C50.2697 45.3979 50.708 46.661 51.3709 48.9749C53.3161 55.7188 54.2887 60.6053 54.2887 63.6344C53.1983 68.4013 50.697 71.0227 46.7848 71.4987C45.9543 71.3547 45.3496 70.9495 44.9708 70.2831C44.5895 69.6168 44.3989 68.8894 44.3989 68.101C44.3989 67.2199 44.6066 66.4034 45.0218 65.6517C45.4371 64.9023 46.0247 64.4557 46.7848 64.3117ZM46.5189 64.3117C46.9002 64.3605 47.245 64.4862 47.5534 64.6888C47.8618 64.8913 48.1217 65.1538 48.333 65.476C48.5467 65.7958 48.7069 66.1533 48.8138 66.5488C48.9206 66.9417 48.9741 67.3518 48.9741 67.7789C48.9741 68.2085 48.9097 68.6503 48.781 69.1043C48.6499 69.5558 48.4423 69.961 48.1581 70.3198C47.8716 70.6762 47.5036 70.9678 47.0544 71.1948C46.6027 71.4218 46.0575 71.5353 45.4188 71.5353C42.6917 71.5353 40.4684 70.7957 38.7491 69.3166C37.0298 67.8399 35.9321 65.6591 35.4562 62.774C35.1259 63.9188 34.6876 65.0159 34.1412 66.0654C33.5948 67.1125 32.9014 68.0413 32.0612 68.8517C31.2185 69.662 30.2108 70.3063 29.0378 70.7847C27.8624 71.2607 26.4685 71.4987 24.856 71.4987C24.618 71.4743 24.4104 71.3498 24.2331 71.1253C24.0559 70.8983 23.9016 70.6114 23.7705 70.2648C23.6418 69.9207 23.5409 69.5339 23.4681 69.1043C23.3977 68.6747 23.3625 68.2329 23.3625 67.7789C23.3625 66.993 23.4754 66.2668 23.7012 65.6005C23.9271 64.9317 24.312 64.5021 24.856 64.3117C30.4293 63.6697 33.4891 61.1436 34.0355 56.733C34.0355 54.9928 33.715 51.1191 33.0739 45.1123C32.9549 43.9212 32.8602 42.8424 32.7898 41.8758C32.7193 40.9117 32.684 40.0476 32.684 39.2836C32.684 38.0437 32.7788 37.0784 32.9682 36.3877C33.1576 35.6969 33.4186 35.3515 33.7513 35.3515C33.8679 35.3515 34.0573 35.4345 34.3196 35.6005C34.3658 35.6005 34.52 36.4828 34.7823 38.2475C35.0421 40.0122 35.3735 42.6703 35.7767 46.2217C36.1336 49.4631 36.4129 51.9416 36.6145 53.6575C36.8161 55.3734 36.9763 56.3511 37.0953 56.5903C37.6878 59.2605 38.7601 61.2143 40.3119 62.4518C41.8661 63.6917 43.935 64.3117 46.5189 64.3117ZM37.3066 22.2883C37.3066 22.2395 37.3005 22.209 37.2884 22.1968C37.2762 22.1846 37.2702 22.1675 37.2702 22.1455V22.0723C37.2483 22.0723 37.2253 22.4115 37.201 23.0901C37.1767 23.7711 37.1414 24.8744 37.0953 26.3999C37.0224 28.6869 36.0135 29.8304 34.0683 29.8304C32.7423 29.8304 31.7346 29.1275 31.0449 27.7216L30.5494 28.5087C29.9083 29.5338 29.0062 30.0465 27.843 30.0465C27.3695 30.0465 26.9845 29.8975 26.6882 29.5998C26.392 29.302 26.1552 28.92 25.9779 28.4538C25.8006 27.9901 25.6755 27.4775 25.6027 26.9161C25.5323 26.3571 25.4971 25.8275 25.4971 25.3272C25.4971 24.7316 25.5323 24.1531 25.6027 23.5917C25.6755 23.0328 25.7703 22.5263 25.8868 22.0723C26.0058 21.6208 26.137 21.2399 26.2802 20.93C26.4211 20.62 26.551 20.4174 26.67 20.3223H27.0271C27.1218 20.4394 27.1691 20.7005 27.1691 21.1057C27.1691 21.2741 27.1509 21.5195 27.1144 21.8417C27.0804 22.1614 27.0452 22.4945 27.0088 22.8411C26.9724 23.1877 26.9432 23.5161 26.9213 23.826C26.8971 24.136 26.885 24.374 26.885 24.54C26.885 25.9703 27.3707 26.6855 28.342 26.6855C29.1726 26.6855 29.7955 26.5365 30.2107 26.2388C30.626 25.941 30.8336 25.5529 30.8336 25.0745C30.8336 25.0037 30.8154 24.8732 30.779 24.6828C30.7426 24.4924 30.7013 24.2715 30.6552 24.0201C30.6066 23.7712 30.5652 23.5209 30.5312 23.2695C30.4948 23.0205 30.4766 22.8009 30.4766 22.6105C30.4766 22.2053 30.5179 21.8173 30.6005 21.4463C30.683 21.0777 30.7778 20.7506 30.8846 20.4651C30.9915 20.177 31.0923 19.9439 31.187 19.7657C31.2817 19.5875 31.3533 19.4985 31.4019 19.4985C31.4723 19.4985 31.5487 19.5644 31.6313 19.6962C31.7163 19.8256 31.7819 20.0574 31.8281 20.3918C31.8766 20.7261 31.9179 21.1729 31.9519 21.7319C31.9883 22.2932 32.0065 23.0144 32.0065 23.8955C32.0065 24.5643 32.2433 25.1599 32.7168 25.6822C33.1928 26.207 33.9639 26.4694 35.03 26.4694C35.6225 26.4694 35.9661 26.3145 36.0608 26.0045C36.0147 25.8141 35.9916 25.6713 35.9916 25.5761V25.3967C35.9916 24.9915 35.926 24.5924 35.7949 24.1994C35.6637 23.8065 35.5278 23.455 35.3869 23.145C35.2193 22.7887 35.0299 22.4555 34.8186 22.1455C34.8186 22.0503 34.8539 21.8831 34.9244 21.6439C34.9705 21.4535 35.0409 21.1789 35.1356 20.8201C35.2303 20.4638 35.3492 19.9756 35.4925 19.3557C35.5168 19.1897 35.6589 18.9749 35.9187 18.7113H36.1337C36.2284 18.9749 36.3352 19.2849 36.4542 19.6413C36.5732 19.9512 36.6971 20.3332 36.8258 20.7872C36.957 21.2387 37.1172 21.7391 37.3066 22.2883ZM32.4837 7.74969C32.508 8.01086 32.5202 8.26711 32.5202 8.51851C32.5202 8.76748 32.5202 9.01149 32.5202 9.25069C32.5202 9.77546 32.5019 10.2405 32.4655 10.6457C32.4291 11.0508 32.3575 11.4621 32.2506 11.8795C32.1438 12.2969 31.9956 12.7497 31.8062 13.2378C31.6167 13.726 31.3679 14.3276 31.0595 15.0427C30.6321 16.0679 30.2289 16.5805 29.8501 16.5805C29.7554 16.5805 29.691 16.5268 29.657 16.4194C29.6206 16.312 29.6024 16.0911 29.6024 15.7567C29.6024 15.6151 29.6024 15.4723 29.6024 15.3283C29.6024 15.1867 29.6145 15.0086 29.6388 14.7938C29.6606 14.579 29.6898 14.3166 29.7263 14.0066C29.7627 13.6967 29.804 13.2915 29.8501 12.7911V12.2199C29.8501 10.3845 29.3996 8.1914 28.4987 5.64076C29.3535 2.68494 29.9581 0.837221 30.3127 0.0976562C30.7158 0.122064 31.0837 0.932418 31.4164 2.52871C31.9847 3.69785 32.3404 5.43824 32.4837 7.74969ZM26.5498 71.4987C22.708 71.4987 20.1581 69.651 18.9002 65.9556C18.9002 66.0044 18.8832 65.808 18.8492 65.3662C18.8127 64.9268 18.7594 64.4386 18.689 63.9016C18.6161 63.3646 18.5324 62.8643 18.4376 62.4005C18.3429 61.9343 18.2373 61.7013 18.1207 61.7013C17.907 61.7013 17.5864 61.9404 17.159 62.4188C15.5222 64.1347 13.0671 64.9927 9.79354 64.9927C6.30872 64.9927 4.56632 64.158 4.56632 62.4884C4.56632 62.2029 4.8383 61.3803 5.38227 60.0207C6.85391 56.423 10.0328 53.754 14.9188 52.0137C15.5356 51.8697 16.5543 51.5122 17.975 50.941C18.1668 50.1063 18.434 49.2068 18.7764 48.2427C19.1212 47.2761 19.5547 46.2204 20.0768 45.0757L20.4302 45.0062C20.5977 45.0306 20.6815 45.293 20.6815 45.7933V57.5897C20.6815 58.3537 20.8236 59.1348 21.1077 59.9329C21.3918 60.7311 21.7706 61.4633 22.2442 62.1297C22.7201 62.7985 23.2775 63.3414 23.9162 63.7588C24.5573 64.1762 25.2215 64.385 25.9087 64.385C26.0277 64.385 26.1345 64.3788 26.2292 64.3666C26.3239 64.3544 26.4308 64.3361 26.5498 64.3117C26.8825 64.7169 27.1132 65.2417 27.2419 65.8861C27.3731 66.5304 27.4386 67.1858 27.4386 67.8521C27.4386 68.6869 27.356 69.4557 27.1909 70.1587C27.0233 70.8616 26.8097 71.3083 26.5498 71.4987ZM8.58417 58.3073V58.7357C8.94115 59.1653 9.84336 59.3801 11.2907 59.3801C12.097 59.3801 12.8668 59.3081 13.6002 59.1641C14.336 59.0201 14.988 58.8236 15.5562 58.5746C16.1269 58.3232 16.5896 58.0193 16.9441 57.663C17.3011 57.3042 17.5026 56.899 17.5488 56.4475C17.573 56.2571 17.5913 56.0838 17.6035 55.9276C17.6156 55.7738 17.6217 55.6249 17.6217 55.4809C17.6217 54.7193 17.4796 54.1238 17.1955 53.6942L16.6965 53.5514C12.5924 54.9085 9.88824 56.4938 8.58417 58.3073ZM19.1843 71.4987C19.0678 71.7379 18.825 72.2749 18.4559 73.1096C18.0892 73.9419 17.5973 75.0854 16.9805 76.5401C13.6365 78.7564 8.9764 81.4023 3 84.4777C3.11899 84.097 3.35579 83.4891 3.71035 82.6544C4.06733 81.8196 4.51894 80.7347 5.06534 79.3995C7.2218 78.184 9.47422 76.927 11.8225 75.6285C14.1708 74.33 16.6248 72.9534 19.1843 71.4987Z" fill="#F5F9FA"/>
<path d="M46.5187 64.2166C46.9 64.2654 47.2448 64.3911 47.5532 64.5936C47.8616 64.7962 48.1215 65.0587 48.3328 65.3809C48.5465 65.7006 48.7068 66.0582 48.8136 66.4536C48.9205 66.8466 48.9739 67.2567 48.9739 67.6838C48.9739 68.1134 48.9095 68.5552 48.7808 69.0092C48.6497 69.4607 48.4421 69.8659 48.158 70.2247C47.8714 70.581 47.5035 70.8727 47.0542 71.0996C46.6025 71.3266 46.0573 71.4402 45.4186 71.4402C42.6915 71.4402 40.4683 70.7006 38.7489 69.2214C37.0296 67.7448 35.932 65.5639 35.456 62.6789C35.1257 63.8236 34.6874 64.9207 34.141 65.9703C33.5946 67.0174 32.9012 67.9462 32.061 68.7565C31.2183 69.5669 30.2106 70.2112 29.0376 70.6896C27.8623 71.1656 26.4683 71.4036 24.8558 71.4036C24.6178 71.3792 24.4102 71.2547 24.233 71.0302C24.0557 70.8032 23.9014 70.5163 23.7703 70.1697C23.6416 69.8256 23.5408 69.4387 23.4679 69.0092C23.3975 68.5796 23.3623 68.1378 23.3623 67.6838C23.3623 66.8979 23.4752 66.1717 23.701 65.5054C23.9269 64.8366 24.3118 64.4069 24.8558 64.2166C30.4291 63.5746 33.4889 61.0485 34.0353 56.6379C34.0353 54.8976 33.7148 51.024 33.0737 45.0172C32.9547 43.8261 32.86 42.7472 32.7896 41.7807C32.7191 40.8166 32.6838 39.9525 32.6838 39.1885C32.6838 37.9486 32.7786 36.9833 32.968 36.2925C33.1574 35.6018 33.4185 35.2563 33.7511 35.2563C33.8677 35.2563 34.0572 35.3394 34.3194 35.5054C34.3656 35.5054 34.5198 36.3877 34.7821 38.1524C35.0419 39.9171 35.3733 42.5752 35.7765 46.1266C36.1335 49.368 36.4128 51.8465 36.6143 53.5624C36.8159 55.2783 36.9761 56.2559 37.0951 56.4951C37.6877 59.1654 38.7599 61.1192 40.3117 62.3567C41.8659 63.5966 43.9348 64.2166 46.5187 64.2166Z" fill="#FFCA3A"/>
<path d="M101.572 64.0107C101.895 64.0585 102.201 64.0991 102.488 64.1325C102.776 64.1684 103.058 64.1863 103.335 64.1863C104.118 64.1863 104.833 64.0586 105.48 63.803C105.409 63.2417 105.373 62.5885 105.373 61.8433C105.373 61.4683 105.391 61.0598 105.427 60.6179C105.462 60.1737 105.502 59.7426 105.547 59.3246C105.594 58.9042 105.64 58.5125 105.685 58.1495C105.732 57.7888 105.778 57.4807 105.823 57.2252C105.87 56.8048 106.026 56.2267 106.29 55.4911C106.555 54.7578 106.837 54.0413 107.136 53.3415C107.436 52.6416 107.702 52.047 107.933 51.5573C108.164 51.0677 108.28 50.8455 108.28 50.8909C108.256 50.6568 108.239 50.4001 108.227 50.1207C108.215 49.8412 108.209 49.5379 108.209 49.2107C108.209 49.0482 108.209 48.7688 108.209 48.3723C108.209 47.9758 108.221 47.5793 108.244 47.1828C108.268 46.7863 108.308 46.4304 108.365 46.1152C108.421 45.7999 108.496 45.6423 108.588 45.6423C108.68 45.6423 108.796 45.7713 108.935 46.0292C109.857 47.9639 111.413 49.5844 113.6 50.8909L117.576 53.2698C120.525 55.2284 122 57.8879 122 61.2485C122 61.9244 121.886 62.7294 121.657 63.6633C121.426 64.5948 121.154 65.4975 120.843 66.3717C120.534 67.2483 120.229 68.0067 119.929 68.6468C119.63 69.2893 119.399 69.6571 119.236 69.7503C118.615 70.099 117.889 70.3963 117.059 70.6424C116.228 70.886 115.341 71.0842 114.397 71.237C113.453 71.3875 112.456 71.4986 111.406 71.5703C110.358 71.6395 109.316 71.6742 108.28 71.6742C107.402 71.6742 106.577 71.6503 105.805 71.6025C105.034 71.5572 104.348 71.4986 103.749 71.4269C103.149 71.3577 102.66 71.2885 102.28 71.2192C101.9 71.1499 101.664 71.0914 101.572 71.0436C101.388 70.9982 101.204 70.8525 101.019 70.6065C100.835 70.3605 100.662 70.0453 100.499 69.6607C100.339 69.2762 100.207 68.845 100.103 68.3673C99.9989 67.8896 99.947 67.3821 99.947 66.8447C99.947 66.238 100.062 65.6839 100.294 65.1824C100.523 64.6808 100.949 64.2902 101.572 64.0107ZM119.997 63.2405C120.02 63.0542 120.032 62.8966 120.032 62.7676C120.032 62.641 120.032 62.5538 120.032 62.5061C120.009 62.2505 119.767 61.9244 119.307 61.5279C118.844 61.1315 118.314 60.7469 117.717 60.3743C117.118 59.9994 116.524 59.6781 115.937 59.4106C115.349 59.143 114.928 59.0093 114.673 59.0093C114.581 59.0093 114.397 59.3592 114.121 60.059C113.844 60.7588 113.706 61.8899 113.706 63.4519C113.706 63.7075 113.769 63.8771 113.894 63.9607C114.022 64.0419 114.351 64.0824 114.882 64.0824C115.502 64.0824 116.106 64.0466 116.694 63.975C117.282 63.9057 117.813 63.8244 118.287 63.7313C118.759 63.6381 119.145 63.5451 119.445 63.4519C119.744 63.3588 119.928 63.2882 119.997 63.2405ZM112.322 60.8293C112.322 60.6191 112.248 60.3505 112.099 60.0233C111.948 59.696 111.741 59.3748 111.476 59.0595C111.212 58.7466 110.895 58.4791 110.524 58.257C110.156 58.0348 109.742 57.9238 109.282 57.9238C108.059 57.9238 107.448 58.8564 107.448 60.7218C107.448 61.8659 107.61 62.6995 107.933 63.2225C108.256 63.748 108.752 64.0107 109.42 64.0107C109.764 63.9868 110.11 63.8711 110.457 63.6633C110.801 63.4531 111.112 63.1903 111.388 62.8751C111.666 62.5598 111.892 62.2219 112.064 61.8612C112.236 61.4981 112.322 61.1541 112.322 60.8293ZM114.637 26.5536C114.637 27.884 114.281 29.1905 113.568 30.4731C112.853 31.7557 111.781 33.0503 110.351 34.3568C109.038 35.5462 107.725 36.5076 106.411 37.2408C105.099 37.9765 103.751 38.4732 102.368 38.7312C102.205 38.7312 102.124 38.6608 102.124 38.5198C102.124 37.9824 102.36 37.4689 102.832 36.9793C103.306 36.4897 103.9 36.0239 104.613 35.582C105.467 35.0446 106.188 34.5431 106.775 34.0773C107.363 33.6092 107.841 33.1769 108.209 32.7804L108.138 32.4328C107.055 31.1956 106.513 29.7613 106.513 28.13C106.513 27.4756 106.629 26.8044 106.86 26.1165C107.092 25.4286 107.415 24.8052 107.83 24.2463C108.243 23.685 108.727 23.2241 109.282 22.8634C109.834 22.5004 110.444 22.3188 111.112 22.3188C113.462 22.3188 114.637 23.7305 114.637 26.5536ZM112.598 29.0723C112.83 28.7474 112.945 28.3856 112.945 27.9867C112.945 27.638 112.859 27.3239 112.687 27.0444C112.512 26.765 112.293 26.5262 112.028 26.328C111.764 26.1297 111.465 25.978 111.129 25.8729C110.797 25.7678 110.457 25.7152 110.11 25.7152C108.795 25.7152 108.138 26.2169 108.138 27.22C108.138 27.5687 108.22 27.8888 108.382 28.1802C108.543 28.4716 108.755 28.7224 109.02 28.9325C109.286 29.1427 109.586 29.3123 109.919 29.4413C110.254 29.5679 110.583 29.6312 110.906 29.6312C111.506 29.6312 112.07 29.4449 112.598 29.0723ZM95.6319 69.4708C95.5162 69.4231 95.4123 69.3872 95.3203 69.3634C95.2283 69.3419 95.1599 69.3311 95.1151 69.3311C94.9994 69.3311 94.9356 69.4003 94.9238 69.5388C94.912 69.6798 94.8483 70.0416 94.7326 70.6244L94.5946 71.3231C94.5025 71.7912 94.3362 72.1757 94.0955 72.4767C93.8524 72.78 93.5232 72.9317 93.1079 72.9317C90.9887 72.9317 89.641 71.8473 89.0652 69.6786C88.9732 69.0026 88.8871 68.3148 88.8068 67.615C88.7242 66.9151 88.6488 66.2153 88.5804 65.5155C88.3727 65.2361 87.7507 65.0963 86.7147 65.0963C84.756 65.0963 83.0617 66.0995 81.6315 68.1058C81.4475 68.4091 81.3554 69.2021 81.3554 70.4847C81.3554 72.9568 81.4593 75.5053 81.667 78.1302C81.8747 80.7527 82.1968 83.4756 82.6334 86.2987C82.6806 86.626 82.7159 86.958 82.7395 87.2948C82.7607 87.634 82.7715 87.9779 82.7715 88.3266C82.7715 88.5129 82.7489 88.9392 82.7041 89.6056C82.6569 90.2696 82.5874 90.9694 82.4953 91.705C82.4033 92.4383 82.2994 93.0916 82.1838 93.6648C82.0705 94.2356 81.9324 94.5211 81.7696 94.5211C81.6091 94.5211 81.4014 93.4474 81.1465 91.3002L80.0068 81.7845C79.7543 79.5919 79.5584 77.6154 79.4191 75.8551C79.2822 74.0948 79.2139 72.5376 79.2139 71.1833C79.2139 69.2941 79.3224 67.6555 79.5395 66.2678C79.7589 64.8801 80.1046 63.6847 80.5765 62.6815C81.0509 61.6784 81.6621 60.8568 82.4102 60.2167C83.1583 59.5742 84.074 59.0785 85.1572 58.7298C85.6197 58.5889 86.0694 58.4779 86.506 58.3967C86.945 58.3155 87.3945 58.2749 87.8547 58.2749C88.5697 58.2749 89.3769 58.4026 90.276 58.6582C90.9675 58.1447 91.7615 57.7362 92.6583 57.4329C92.6583 58.1566 92.9697 59.1837 93.5927 60.5141C95.3674 62.3795 98.0295 63.545 101.579 64.0107C101.739 64.0107 101.889 64.1159 102.028 64.3261C102.168 64.5362 102.294 64.8109 102.407 65.1501C102.523 65.4869 102.615 65.8774 102.683 66.3216C102.754 66.7635 102.789 67.2066 102.789 67.6508C102.789 67.9303 102.766 68.2622 102.719 68.6468C102.674 69.0313 102.594 69.4052 102.478 69.7682C102.362 70.1289 102.213 70.4322 102.028 70.6782C101.844 70.9218 101.614 71.0436 101.338 71.0436C99.0561 71.0436 97.154 70.5194 95.6319 69.4708Z" fill="#F5F9FA"/>
<path d="M93.9216 34.4813C93.9216 35.7819 93.5408 37.0591 92.7793 38.313C92.0152 39.5669 90.8692 40.8325 89.3411 42.1098C87.939 43.2726 86.5358 44.2124 85.1313 44.9293C83.7293 45.6484 82.2893 46.1341 80.8117 46.3863C80.6377 46.3863 80.5508 46.3174 80.5508 46.1796C80.5508 45.6543 80.803 45.1523 81.3073 44.6736C81.8142 44.1949 82.4483 43.7395 83.2098 43.3076C84.1227 42.7822 84.8929 42.2919 85.5208 41.8366C86.1486 41.3789 86.6594 40.9563 87.0528 40.5687L86.977 40.2289C85.8196 39.0193 85.241 37.6172 85.241 36.0224C85.241 35.3826 85.3646 34.7264 85.6117 34.054C85.8588 33.3815 86.2043 32.772 86.6481 32.2256C87.0893 31.6769 87.6062 31.2263 88.1988 30.8737C88.7888 30.5188 89.4408 30.3413 90.1544 30.3413C92.6659 30.3413 93.9216 31.7213 93.9216 34.4813ZM91.7429 36.9436C91.99 36.626 92.1137 36.2722 92.1137 35.8823C92.1137 35.5414 92.0217 35.2343 91.8376 34.9611C91.651 34.6879 91.4163 34.4545 91.1339 34.2607C90.8515 34.0669 90.5314 33.9185 90.1733 33.8158C89.8178 33.7131 89.4545 33.6617 89.0839 33.6617C87.6793 33.6617 86.977 34.1521 86.977 35.1328C86.977 35.4737 87.0641 35.7866 87.2381 36.0715C87.4096 36.3563 87.6365 36.6015 87.9189 36.807C88.2039 37.0124 88.524 37.1782 88.8796 37.3043C89.2376 37.4281 89.5896 37.49 89.9351 37.49C90.5756 37.49 91.1781 37.3078 91.7429 36.9436Z" fill="#8AC926"/>
</svg>
