<svg width="67" height="147" viewBox="0 0 67 147" fill="none" xmlns="http://www.w3.org/2000/svg">
<path d="M57.2352 49.4248C56.8962 50.5034 56.1104 51.2276 54.8777 51.5974C54.8777 52.2446 54.9239 53.0921 55.0163 54.1399C55.1088 55.1876 55.2167 56.3433 55.3399 57.6068C55.494 58.8395 55.6481 60.1338 55.8022 61.4898C55.9871 62.8149 56.1566 64.0938 56.3107 65.3265C56.4647 66.5284 56.588 67.6224 56.6805 68.6086C56.8037 69.5947 56.8654 70.3652 56.8654 70.9199V72.4453C56.8654 73.8321 56.8346 75.2651 56.7729 76.7443C56.7421 78.2236 56.6497 79.7798 56.4956 81.4132C55.9409 84.4949 55.3707 86.837 54.7852 88.4395C54.1997 90.0112 53.5987 90.797 52.9824 90.797C52.8899 90.797 52.8283 90.7508 52.7975 90.6583C52.9824 89.5181 53.0748 88.0851 53.0748 86.3593C53.0748 80.6273 52.7975 74.9569 52.2428 69.3482C51.7189 63.7086 50.9485 58.0382 49.9315 52.337C49.8082 51.7515 49.7466 50.9811 49.7466 50.0258C49.7466 48.9471 49.8082 47.8531 49.9315 46.7437C50.0548 45.6035 50.2088 44.5865 50.3937 43.6928C50.5786 42.7683 50.7944 42.0133 51.0409 41.4277C51.2874 40.8422 51.534 40.5494 51.7805 40.5494C52.3044 40.5494 52.7975 41.551 53.2598 43.5541C54.4924 46.2352 55.8176 48.1921 57.2352 49.4248Z" fill="white"/>
<path d="M66.2032 97.4351C66.0491 97.7432 65.7255 98.4366 65.2325 99.5152C64.7702 100.594 64.1384 102.073 63.3372 103.953C58.992 106.819 52.9364 110.24 45.1704 114.215C45.3245 113.722 45.6327 112.936 46.0949 111.858C46.5572 110.779 47.1427 109.377 47.8515 107.651C50.6559 106.079 53.5835 104.446 56.6344 102.751C59.6854 101.087 62.8749 99.3149 66.2032 97.4351Z" fill="white"/>
<path d="M23.9526 81.0433C24.1991 81.0741 24.4457 81.0895 24.6922 81.0895C24.9696 81.0895 25.2315 81.0895 25.478 81.0895C30.2547 81.0895 35.0622 79.903 39.9005 77.5301C39.9314 77.4685 39.9468 77.3452 39.9468 77.1603C39.9468 76.8829 39.8389 76.3744 39.6232 75.6348C39.4075 74.8952 39.1763 74.1094 38.9298 73.2773C38.6833 72.4144 38.4521 71.5669 38.2364 70.7349C38.0207 69.9028 37.9128 69.2556 37.9128 68.7934C37.9128 68.2079 38.0515 67.345 38.3289 66.2047C38.6062 65.0645 39.1455 63.4774 39.9468 61.4435L40.3166 61.4897C40.409 61.7979 40.5323 62.1677 40.6864 62.5991C40.8096 62.9689 40.9637 63.4466 41.1486 64.0321C41.3644 64.5868 41.5955 65.234 41.842 65.9736C42.4584 67.7918 42.7665 69.7949 42.7665 71.983C42.7665 73.2773 42.6433 74.6487 42.3967 76.0971C42.181 77.5147 41.8112 79.0093 41.2873 80.581C39.1609 87.0834 33.7833 90.3347 25.1545 90.3347C24.8155 90.3347 24.4919 90.3347 24.1837 90.3347C23.8755 90.3347 23.552 90.3193 23.213 90.2884C22.5658 89.7645 22.0881 89.0403 21.78 88.1158C21.441 87.1605 21.2715 86.1897 21.2715 85.2036C21.2715 84.2791 21.4256 83.4316 21.7337 82.6612C22.0419 81.8599 22.535 81.3052 23.213 80.997L23.9526 81.0433ZM23.213 48.5464L30.0082 41.7512L36.8496 48.5464L30.0082 55.3879L23.213 48.5464Z" fill="#FFCA3A"/>
<path d="M36.8036 24.2963C36.8036 24.2347 36.7881 24.2038 36.7573 24.2038C36.7573 24.173 36.7573 24.1422 36.7573 24.1114V24.0189C36.7265 24.0189 36.6957 24.4658 36.6649 25.3595C36.6341 26.2224 36.5878 27.64 36.5262 29.6123C36.4337 32.5707 35.124 34.05 32.597 34.05C30.8712 34.05 29.5615 33.1409 28.6678 31.3226L28.0206 32.3396C27.1886 33.6648 26.0175 34.3273 24.5075 34.3273C23.8911 34.3273 23.3826 34.1424 22.982 33.7726C22.6122 33.372 22.304 32.8789 22.0575 32.2934C21.8418 31.677 21.6877 31.0145 21.5952 30.3057C21.5028 29.5661 21.4565 28.8727 21.4565 28.2255C21.4565 27.4551 21.5028 26.7155 21.5952 26.0067C21.6877 25.267 21.8109 24.6045 21.965 24.0189C22.1191 23.4334 22.2886 22.9403 22.4735 22.5397C22.6584 22.1391 22.8279 21.8771 22.982 21.7539H23.4443C23.5675 21.908 23.6292 22.2469 23.6292 22.7708C23.6292 22.9866 23.5983 23.3101 23.5367 23.7416C23.5059 24.1422 23.4597 24.5737 23.398 25.0359C23.3672 25.4674 23.3364 25.8834 23.3056 26.284C23.2748 26.6846 23.2594 26.9928 23.2594 27.2085C23.2594 29.0576 23.8911 29.9821 25.1546 29.9821C26.2332 29.9821 27.0345 29.7972 27.5584 29.4274C28.1131 29.0268 28.3904 28.5183 28.3904 27.9019C28.3904 27.8095 28.3596 27.64 28.298 27.3934C28.2672 27.1469 28.2209 26.8695 28.1593 26.5614C28.0977 26.2224 28.036 25.8988 27.9744 25.5906C27.9436 25.2516 27.9282 24.9589 27.9282 24.7123C27.9282 24.1884 27.9744 23.6954 28.0669 23.2331C28.1901 22.74 28.3134 22.3086 28.4367 21.9388C28.5907 21.569 28.7294 21.2762 28.8527 21.0605C28.976 20.8139 29.0684 20.6907 29.13 20.6907C29.2225 20.6907 29.315 20.7831 29.4074 20.968C29.5307 21.1221 29.6231 21.4149 29.6848 21.8463C29.7464 22.2778 29.7926 22.8633 29.8234 23.6029C29.8851 24.3117 29.9159 25.2362 29.9159 26.3765C29.9159 27.2393 30.2241 28.0098 30.8404 28.6878C31.4568 29.3657 32.4583 29.7047 33.8451 29.7047C34.6155 29.7047 35.0624 29.5044 35.1856 29.1038C35.124 28.8573 35.0932 28.6724 35.0932 28.5491V28.318C35.0932 27.7941 35.0007 27.2856 34.8158 26.7925C34.6617 26.2686 34.4923 25.8063 34.3074 25.4057C34.0916 24.9435 33.8451 24.512 33.5677 24.1114C33.5677 23.9881 33.614 23.7724 33.7064 23.4642C33.768 23.2177 33.8605 22.8633 33.9838 22.401C34.107 21.9388 34.2611 21.307 34.446 20.5058C34.4768 20.2901 34.6617 20.0127 35.0007 19.6737H35.2781C35.4014 20.0127 35.54 20.4133 35.6941 20.8756C35.8482 21.2762 36.0023 21.7693 36.1564 22.3548C36.3413 22.9403 36.557 23.5875 36.8036 24.2963Z" fill="white"/>
<path d="M39.1607 0C39.0066 0.308173 38.6831 1.00156 38.19 2.08017C37.7277 3.15877 37.096 4.638 36.2947 6.51785C31.9495 9.38386 25.8939 12.8046 18.1279 16.78C18.282 16.2869 18.5902 15.5011 19.0524 14.4225C19.5147 13.3439 20.1002 11.9417 20.809 10.2159C23.6134 8.64425 26.541 7.02634 29.592 5.36221C32.6429 3.66726 35.8325 1.87985 39.1607 0Z" fill="white"/>
<path d="M21.5951 90.2885C16.8184 90.2268 13.1666 88.0542 10.6396 83.7706C8.14336 79.4562 6.6025 73.0154 6.01697 64.4482C5.95534 63.4312 5.86288 61.6284 5.73961 59.0398C5.61635 56.4511 5.46226 53.0458 5.27736 48.8238C5.21572 47.2521 5.15409 45.1258 5.09245 42.4446C5.03082 39.7635 5 36.4661 5 32.5523C5 32.2441 5.04623 31.8589 5.13868 31.3967C5.23113 30.9036 5.3544 30.4413 5.50849 30.0099C5.66257 29.5784 5.84748 29.2086 6.0632 28.9005C6.27892 28.5615 6.52546 28.392 6.80281 28.392C7.29589 28.392 7.63488 29.7787 7.81978 32.5523L9.34524 56.1275C9.62259 60.4728 9.97699 64.0322 10.4084 66.8057C10.8707 69.5485 11.41 71.7519 12.0263 73.416C12.6735 75.0802 13.3977 76.3591 14.199 77.2528C15.031 78.1157 15.9401 78.8553 16.9263 79.4716C17.6967 79.9647 18.5442 80.3499 19.4687 80.6273C20.4241 80.9046 21.441 81.0433 22.5196 81.0433C22.6429 81.0433 22.7508 81.0433 22.8432 81.0433C22.9665 81.0125 23.0897 80.9971 23.213 80.9971C24.2916 81.1512 25.0621 81.6134 25.5243 82.3839C25.9866 83.1235 26.2177 83.9709 26.2177 84.9263C26.2177 85.5426 26.1252 86.1744 25.9403 86.8215C25.7863 87.4687 25.5551 88.0542 25.247 88.5781C24.9388 89.102 24.569 89.5335 24.1375 89.8724C23.7061 90.1806 23.2438 90.3347 22.7508 90.3347C22.5967 90.3347 22.4272 90.3347 22.2423 90.3347C22.0574 90.3347 21.8416 90.3193 21.5951 90.2885Z" fill="white"/>
<path d="M1.98859 142V132.46H3.71659V142H1.98859ZM2.85259 130.624C2.51659 130.624 2.23459 130.516 2.00659 130.3C1.79059 130.084 1.68259 129.82 1.68259 129.508C1.68259 129.184 1.79059 128.914 2.00659 128.698C2.23459 128.482 2.51659 128.374 2.85259 128.374C3.18859 128.374 3.46459 128.482 3.68059 128.698C3.90859 128.902 4.02259 129.16 4.02259 129.472C4.02259 129.796 3.91459 130.072 3.69859 130.3C3.48259 130.516 3.20059 130.624 2.85259 130.624ZM49.6938 142V139.984L49.6038 139.606V136.168C49.6038 135.436 49.3878 134.872 48.9558 134.476C48.5358 134.068 47.8998 133.864 47.0478 133.864C46.4838 133.864 45.9318 133.96 45.3918 134.152C44.8518 134.332 44.3958 134.578 44.0238 134.89L43.3038 133.594C43.7958 133.198 44.3838 132.898 45.0678 132.694C45.7638 132.478 46.4898 132.37 47.2458 132.37C48.5538 132.37 49.5618 132.688 50.2698 133.324C50.9778 133.96 51.3318 134.932 51.3318 136.24V142H49.6938ZM46.5618 142.108C45.8538 142.108 45.2298 141.988 44.6898 141.748C44.1618 141.508 43.7538 141.178 43.4658 140.758C43.1778 140.326 43.0338 139.84 43.0338 139.3C43.0338 138.784 43.1538 138.316 43.3938 137.896C43.6458 137.476 44.0478 137.14 44.5998 136.888C45.1638 136.636 45.9198 136.51 46.8678 136.51H49.8918V137.752H46.9398C46.0758 137.752 45.4938 137.896 45.1938 138.184C44.8938 138.472 44.7438 138.82 44.7438 139.228C44.7438 139.696 44.9298 140.074 45.3018 140.362C45.6738 140.638 46.1898 140.776 46.8498 140.776C47.4978 140.776 48.0618 140.632 48.5418 140.344C49.0338 140.056 49.3878 139.636 49.6038 139.084L49.9458 140.272C49.7178 140.836 49.3158 141.286 48.7398 141.622C48.1638 141.946 47.4378 142.108 46.5618 142.108ZM60.4516 142V139.984L60.3616 139.606V136.168C60.3616 135.436 60.1456 134.872 59.7136 134.476C59.2936 134.068 58.6576 133.864 57.8056 133.864C57.2416 133.864 56.6896 133.96 56.1496 134.152C55.6096 134.332 55.1536 134.578 54.7816 134.89L54.0616 133.594C54.5536 133.198 55.1416 132.898 55.8256 132.694C56.5216 132.478 57.2476 132.37 58.0036 132.37C59.3116 132.37 60.3196 132.688 61.0276 133.324C61.7356 133.96 62.0896 134.932 62.0896 136.24V142H60.4516ZM57.3196 142.108C56.6116 142.108 55.9876 141.988 55.4476 141.748C54.9196 141.508 54.5116 141.178 54.2236 140.758C53.9356 140.326 53.7916 139.84 53.7916 139.3C53.7916 138.784 53.9116 138.316 54.1516 137.896C54.4036 137.476 54.8056 137.14 55.3576 136.888C55.9216 136.636 56.6776 136.51 57.6256 136.51H60.6496V137.752H57.6976C56.8336 137.752 56.2516 137.896 55.9516 138.184C55.6516 138.472 55.5016 138.82 55.5016 139.228C55.5016 139.696 55.6876 140.074 56.0596 140.362C56.4316 140.638 56.9476 140.776 57.6076 140.776C58.2556 140.776 58.8196 140.632 59.2996 140.344C59.7916 140.056 60.1456 139.636 60.3616 139.084L60.7036 140.272C60.4756 140.836 60.0736 141.286 59.4976 141.622C58.9216 141.946 58.1956 142.108 57.3196 142.108Z" fill="#F5F9FA"/>
<path d="M12.1099 132.37C12.8899 132.37 13.5739 132.52 14.1619 132.82C14.7619 133.12 15.2299 133.576 15.5659 134.188C15.9019 134.8 16.0699 135.574 16.0699 136.51V142H14.3419V136.708C14.3419 135.784 14.1139 135.088 13.6579 134.62C13.2139 134.152 12.5839 133.918 11.7679 133.918C11.1559 133.918 10.6219 134.038 10.1659 134.278C9.70993 134.518 9.35593 134.872 9.10393 135.34C8.86393 135.808 8.74393 136.39 8.74393 137.086V142H7.01593V132.46H8.67193V135.034L8.40193 134.35C8.71393 133.726 9.19393 133.24 9.84193 132.892C10.4899 132.544 11.2459 132.37 12.1099 132.37ZM24.3619 132.37C25.1419 132.37 25.8259 132.52 26.4139 132.82C27.0139 133.12 27.4819 133.576 27.8179 134.188C28.1539 134.8 28.3219 135.574 28.3219 136.51V142H26.5939V136.708C26.5939 135.784 26.3659 135.088 25.9099 134.62C25.4659 134.152 24.8359 133.918 24.0199 133.918C23.4079 133.918 22.8739 134.038 22.4179 134.278C21.9619 134.518 21.6079 134.872 21.3559 135.34C21.1159 135.808 20.9959 136.39 20.9959 137.086V142H19.2679V132.46H20.9239V135.034L20.6539 134.35C20.9659 133.726 21.4459 133.24 22.0939 132.892C22.7419 132.544 23.4979 132.37 24.3619 132.37ZM36.6138 132.37C37.3938 132.37 38.0778 132.52 38.6658 132.82C39.2658 133.12 39.7338 133.576 40.0698 134.188C40.4058 134.8 40.5738 135.574 40.5738 136.51V142H38.8458V136.708C38.8458 135.784 38.6178 135.088 38.1618 134.62C37.7178 134.152 37.0878 133.918 36.2718 133.918C35.6598 133.918 35.1258 134.038 34.6698 134.278C34.2138 134.518 33.8598 134.872 33.6078 135.34C33.3678 135.808 33.2478 136.39 33.2478 137.086V142H31.5198V132.46H33.1758V135.034L32.9058 134.35C33.2178 133.726 33.6978 133.24 34.3458 132.892C34.9938 132.544 35.7498 132.37 36.6138 132.37Z" fill="#FFCA3A"/>
</svg>
