<svg width="380" height="70" viewBox="0 0 380 70" fill="none" xmlns="http://www.w3.org/2000/svg">
<path d="M7.498 12.65C7.084 12.776 6.598 12.848 6.004 12.848C3.304 12.848 1.702 11.138 1.702 8.888C1.702 6.548 3.376 5.198 5.158 5.198C6.634 5.198 7.444 6.008 7.66 6.656H7.732C7.912 5.864 8.704 5.162 9.712 5.162C10.432 5.162 10.936 5.45 11.08 5.594H11.17V3.884H0.64V1.922H15.454V3.884H13.654V14H11.17V7.988C11.008 7.646 10.576 7.358 10.036 7.358C9.298 7.358 8.794 7.898 8.794 8.816V9.392H6.49V8.816C6.49 7.772 6.004 7.412 5.392 7.412C4.78 7.412 4.186 7.88 4.186 8.834C4.186 10.004 5.032 10.706 6.148 10.706C6.508 10.706 6.886 10.634 7.192 10.49L7.498 12.65ZM16.6457 0.266V0.0859989H19.0577V1.922H20.8577V3.884H19.0577V14H16.5377V5.99C16.5377 4.226 15.9437 3.884 14.8097 3.884H14.7377V1.922H15.4757C16.3037 1.922 16.7357 2.282 16.9517 2.552H17.0777C16.8257 1.886 16.6457 1.112 16.6457 0.266ZM32.0861 3.884H30.2861V14H28.0001C27.5681 12.452 26.5601 10.994 25.2101 10.184C24.7601 11.03 24.0041 11.426 23.3201 11.426C22.4021 11.426 21.5921 10.85 21.5921 9.77C21.5921 8.816 22.2041 8.042 23.2121 7.754C23.0501 6.278 22.1501 4.91 21.0521 4.28V3.884H20.1341V1.922H32.0861V3.884ZM27.9821 9.77L28.0541 9.734C28.0541 9.734 27.8741 8.744 27.8741 6.368V3.884H24.0221V3.974C24.5261 4.478 25.4801 5.9 25.5881 7.952C26.5781 8.33 27.4421 9.032 27.9821 9.77ZM32.6086 5.63C32.6086 4.586 33.3826 3.812 34.3546 3.812C35.3806 3.812 36.1546 4.586 36.1546 5.63C36.1546 6.584 35.3806 7.358 34.3546 7.358C33.3826 7.358 32.6086 6.584 32.6086 5.63ZM32.6086 12.434C32.6086 11.39 33.3826 10.616 34.3546 10.616C35.3806 10.616 36.1546 11.39 36.1546 12.434C36.1546 13.388 35.3806 14.162 34.3546 14.162C33.3826 14.162 32.6086 13.388 32.6086 12.434ZM241.394 30.488C239.882 30.488 238.118 32.378 238.118 33.728C238.118 34.448 238.496 34.808 239.216 34.808C239.774 34.808 240.206 34.556 240.386 34.394L240.908 35.438C240.458 35.78 239.81 35.996 239.162 35.996C237.668 35.996 236.786 35.078 236.786 33.746C236.786 31.802 239.036 29.264 241.448 29.264C242.78 29.264 243.5 30.02 243.5 31.28V41H242.312C242.222 40.046 241.52 39.524 239.72 39.524C239.18 39.524 238.082 39.578 237.47 39.578C234.968 39.578 233.564 38.336 233.564 36.572C233.564 35.744 233.834 35.078 234.158 34.646L235.418 35.168C235.04 35.582 234.896 36.086 234.896 36.59C234.896 37.58 235.652 38.372 237.686 38.372C238.424 38.372 239.306 38.318 239.882 38.318C241.196 38.318 241.808 38.534 242.24 38.93H242.312C242.258 38.552 242.204 37.706 242.204 35.204V31.262C242.204 30.776 241.988 30.488 241.394 30.488ZM246.579 34.43C246.579 32.864 247.767 31.712 249.567 31.712C251.511 31.712 252.861 33.008 252.861 34.88C252.861 36.914 251.475 38.12 249.297 38.372V38.444C249.837 38.588 250.701 39.056 251.817 39.74L253.725 40.892L252.807 41.774C248.505 39.182 248.037 38.858 246.543 38.66V37.526H247.713C250.557 37.526 251.565 36.302 251.565 34.826C251.565 33.71 250.773 32.936 249.585 32.936C248.559 32.936 247.893 33.548 247.893 34.484C247.893 35.024 248.181 35.474 248.667 35.78L247.713 36.5C246.975 36.05 246.579 35.276 246.579 34.43ZM245.643 24.44L246.885 24.17C246.867 24.368 246.831 24.602 246.831 24.8C246.831 25.466 247.101 26.114 248.559 26.114H249.711C251.493 26.114 252.843 26.96 252.843 28.634C252.843 28.868 252.807 29.156 252.771 29.444H254.553V30.596H244.941V29.444H251.457C251.511 29.192 251.529 28.886 251.529 28.724C251.529 27.698 250.917 27.284 249.513 27.284H248.469C246.219 27.284 245.607 26.15 245.607 24.98C245.607 24.8 245.607 24.62 245.643 24.44ZM270.901 27.446C269.641 26.33 267.679 25.304 265.465 25.304C263.485 25.304 262.495 26.6 262.495 28.094V29.444H264.655V30.596H262.495V41H261.181V30.596H259.021V29.444H261.181V27.932C261.181 25.916 262.711 24.08 265.447 24.08C268.201 24.08 270.523 25.448 271.693 26.51L270.901 27.446ZM266.949 37.022L265.779 37.544C265.347 37.13 265.095 36.536 265.095 35.798C265.095 34.07 266.229 32.936 268.155 32.936C270.477 32.936 271.899 34.61 272.619 36.14H272.691C272.673 35.996 272.511 34.844 272.511 32.558V30.596H263.943V29.444H275.985V30.596H273.843V41H272.511V40.622C272.511 37.796 270.927 34.178 268.227 34.178C267.003 34.178 266.409 34.862 266.409 35.798C266.409 36.266 266.625 36.698 266.949 37.022ZM277.351 41.126C277.351 40.604 277.711 40.244 278.215 40.244C278.719 40.244 279.079 40.604 279.079 41.126C279.079 41.648 278.719 42.008 278.215 42.008C277.711 42.008 277.351 41.648 277.351 41.126ZM278.341 30.596V30.668L280.627 33.08V34.088L277.927 36.176L282.733 39.182H282.805C282.715 37.886 282.643 36.77 282.643 35.618V30.596H278.341ZM283.777 41.27L276.721 36.878V35.546L279.349 33.53L276.919 30.956V30.596H275.263V29.444H286.117V30.596H283.957V39.92L284.677 40.37L283.777 41.27ZM296.656 30.596H294.496V41H293.236C293.002 39.11 291.526 36.968 289.708 36.428C289.384 37.454 288.754 37.832 288.232 37.832C287.602 37.832 287.17 37.418 287.17 36.788C287.17 36.068 287.71 35.402 288.628 35.222C288.628 35.15 288.628 35.06 288.628 34.952C288.628 32.864 287.242 31.262 286.432 30.83V30.596H285.406V29.444H296.656V30.596ZM293.254 37.976L293.29 37.958C293.254 37.112 293.182 36.05 293.182 34.718V30.596H288.196V30.668C288.772 31.244 289.888 32.846 289.888 34.97C289.888 35.078 289.888 35.186 289.888 35.276C291.418 35.6 292.66 36.86 293.254 37.976ZM309.724 41.9C306.394 41.9 303.73 40.316 301.93 37.544L302.848 36.608C304.522 39.272 307.06 40.64 309.742 40.64C312.208 40.64 313.648 39.434 313.648 37.832C313.648 37.13 313.378 36.518 312.91 36.104C312.478 36.41 311.974 36.716 311.398 37.004L310.552 35.978C312.388 35.114 313.432 34.232 313.432 32.792C313.432 31.964 312.874 31.28 312.298 30.866C312.028 31.334 311.416 32.36 310.894 33.044H309.814C309.724 31.676 309.346 30.524 307.924 30.524C306.952 30.524 306.196 31.19 306.196 32.54C306.196 33.854 306.97 34.52 308.176 34.52C308.392 34.52 308.68 34.502 308.914 34.448V35.618C308.734 35.654 308.446 35.708 308.158 35.708C306.952 35.708 306.106 35.366 305.53 34.538C304.99 35.348 304.288 35.744 303.046 35.744C302.686 35.744 302.254 35.654 302.038 35.582V34.412C302.308 34.502 302.704 34.538 303.028 34.538C304.324 34.538 304.918 33.728 304.918 32.54C304.918 31.208 304.234 30.596 302.938 30.596H301.12V29.444H302.938C304.252 29.444 305.026 29.714 305.566 30.668C306.016 29.822 306.826 29.336 307.924 29.336C309.256 29.336 310.246 30.146 310.57 31.244C311.038 30.542 311.488 29.732 311.65 29.444H312.496C313.666 30.164 314.71 31.298 314.71 32.81C314.71 33.782 314.404 34.592 313.81 35.276C314.494 35.834 314.998 36.716 314.998 37.85C314.998 40.532 312.568 41.9 309.724 41.9ZM321.048 30.956C320.58 30.704 320.112 30.596 319.572 30.596C318.618 30.596 318.006 31.136 318.006 32.018C318.006 33.026 318.78 33.566 320.166 33.566C321.21 33.566 322.452 32.918 323.496 32.252V29.444H326.97V30.596H324.81V39.848L325.566 40.244L324.774 41.234L316.89 37.22V35.996L317.898 35.42C318.762 34.898 319.572 34.592 319.572 34.592V34.52C317.97 34.484 316.71 33.584 316.71 31.982C316.71 30.506 317.772 29.408 319.5 29.408C320.238 29.408 320.904 29.552 321.498 29.894L321.048 30.956ZM323.658 39.236C323.55 37.958 323.496 36.68 323.496 35.546V33.638L318.348 36.554L323.586 39.236H323.658ZM322.971 45.734C324.195 45.734 324.807 44.672 324.843 43.268V43.214C324.231 42.872 323.583 42.656 322.935 42.656C321.855 42.656 321.279 43.322 321.279 44.222C321.279 45.104 321.981 45.734 322.971 45.734ZM328.209 46.364C327.489 45.5 326.733 44.654 325.941 44.006C325.743 45.644 324.699 46.814 322.953 46.814C321.135 46.814 320.019 45.68 320.019 44.222C320.019 42.62 321.225 41.558 322.845 41.558C325.383 41.558 327.507 43.754 329.145 45.662L328.209 46.364ZM349.695 28.184V27.662H350.991V29.444H353.151V30.596H350.991V41H349.677V32.09C349.677 31.064 349.191 30.596 348.237 30.596H346.095V39.938L346.779 40.424L345.789 41.234L341.631 38.156C340.893 38.876 339.849 39.326 338.571 39.326C335.025 39.326 333.081 36.428 332.289 32.45L333.495 31.91C334.161 35.42 335.673 38.156 338.571 38.156C340.389 38.156 341.451 36.878 341.451 35.222C341.451 33.764 340.731 32.954 339.651 32.954C338.805 32.954 338.247 33.44 338.247 34.322C338.247 34.808 338.499 35.294 339.021 35.582L338.067 36.284C337.329 35.888 336.915 35.078 336.915 34.232C336.915 32.846 337.905 31.712 339.615 31.712C341.469 31.712 342.765 33.206 342.765 35.24C342.765 35.942 342.603 36.608 342.333 37.166L344.817 39.056L344.889 39.038C344.799 37.832 344.781 36.608 344.781 35.456V30.596H331.443V29.444H348.453C349.353 29.444 349.713 29.876 349.857 30.074H349.947C349.893 29.93 349.695 29.21 349.695 28.184ZM359.163 37.544C359.361 36.842 359.937 36.176 361.071 36.176C361.935 36.176 362.475 36.59 362.691 36.842H362.763V34.124C362.619 33.674 362.097 33.044 361.197 33.044C360.333 33.044 359.739 33.692 359.739 34.79V35.438H358.497V34.808C358.497 33.656 357.831 33.098 356.913 33.098C356.067 33.098 355.293 33.8 355.293 35.06C355.293 35.654 355.455 36.122 355.725 36.464C356.067 36.32 356.463 36.23 356.859 36.23C358.227 36.23 358.839 36.932 359.073 37.544H359.163ZM366.201 30.596H364.041V42.89H362.763V38.462C362.619 38.012 362.097 37.382 361.197 37.382C360.333 37.382 359.739 38.03 359.739 39.128V39.776H358.497V39.146C358.497 38.012 357.831 37.454 356.913 37.454C356.067 37.454 355.293 38.138 355.293 39.398C355.293 40.874 356.283 41.648 357.489 41.648C357.867 41.648 358.299 41.576 358.641 41.432L358.893 42.566C358.497 42.728 358.029 42.836 357.507 42.836C355.545 42.836 353.997 41.45 353.997 39.416C353.997 38.498 354.285 37.742 354.735 37.202C354.285 36.662 353.997 35.924 353.997 35.06C353.997 33.098 355.329 31.892 356.859 31.892C358.227 31.892 358.839 32.576 359.073 33.188H359.163C359.361 32.504 359.937 31.838 361.071 31.838C361.935 31.838 362.475 32.234 362.691 32.486H362.763V30.596H352.449V29.444H366.201V30.596ZM367.652 28.184V27.662H368.948V29.444H371.108V30.596H368.948V41H367.634V32.09C367.634 31.064 367.148 30.596 366.194 30.596H365.474V29.444H366.41C367.31 29.444 367.67 29.876 367.814 30.074H367.904C367.85 29.93 367.652 29.21 367.652 28.184ZM374.788 38.48C375.328 38.624 376.228 39.038 377.344 39.722L379.252 40.874L378.298 41.774C374.014 39.182 373.528 38.858 372.052 38.66V37.526H373.204C376.048 37.526 377.056 36.302 377.056 34.826C377.056 33.71 376.282 32.936 375.076 32.936C374.05 32.936 373.33 33.548 373.33 34.484C373.33 34.97 373.6 35.474 374.104 35.744L373.15 36.464C372.412 36.032 372.016 35.258 372.016 34.412C372.016 32.882 373.258 31.712 375.058 31.712C377.002 31.712 378.37 33.008 378.37 34.88C378.37 36.914 376.984 38.156 374.788 38.408V38.48ZM370.396 30.596V29.444H380.008V30.596H370.396ZM2.296 57.596H0.64V56.444H2.296C3.61 56.444 4.654 56.984 5.266 57.866C5.896 57.002 6.904 56.462 8.02 56.462C9.55 56.462 10.342 57.236 10.576 57.614H10.648C10.612 57.488 10.45 56.552 10.45 55.364V54.662H11.746V56.444H13.906V57.596H11.746V68H10.432V60.134C10.432 58.496 9.388 57.668 8.056 57.668C6.994 57.668 5.896 58.424 5.896 59.9C5.896 61.196 6.922 61.934 8.128 61.934C8.308 61.934 8.542 61.916 8.722 61.88V63.068C8.596 63.086 8.362 63.122 8.11 63.122C6.904 63.122 5.788 62.618 5.212 61.682C4.69 62.636 3.682 63.158 2.404 63.158C2.062 63.158 1.612 63.068 1.414 63.014V61.79C1.648 61.916 2.08 61.952 2.386 61.952C3.772 61.952 4.6 61.088 4.6 59.864C4.6 58.298 3.61 57.596 2.296 57.596ZM18.2308 67.172L17.5648 68.234C15.5668 67.46 14.5048 65.354 14.5048 62.726C14.5048 60.854 15.0988 58.928 15.8908 57.596H13.1908V56.444H18.7888V57.596H17.3848C16.4308 58.82 15.8188 60.836 15.8188 62.726C15.8188 64.85 16.5748 66.416 18.2308 67.172ZM30.4435 68H29.1475V64.238C29.1475 63.068 29.3095 61.844 29.5795 60.908C28.0315 61.934 26.6095 63.518 25.4575 65.102L19.4635 62.168V60.836C20.2555 60.134 22.0915 58.856 24.1075 58.172V57.596H18.0775V56.444H32.7295V57.596H25.4395V63.086C26.3035 61.952 28.2835 60.062 29.8495 59.414L31.0735 60.08C30.6415 61.358 30.4435 62.798 30.4435 64.292V68ZM24.1075 63.086V59.45C22.9735 59.9 21.5155 60.728 20.7055 61.394L24.1075 63.086ZM34.159 68.144C34.159 68.684 34.537 69.044 35.041 69.044C35.563 69.044 35.941 68.684 35.941 68.144C35.941 67.622 35.563 67.262 35.041 67.262C34.537 67.262 34.159 67.622 34.159 68.144ZM39.145 57.596H32.017V56.444H42.619V57.596H40.477V66.848L41.215 67.334L40.297 68.252L33.295 63.662V62.456C34.339 61.412 36.985 59.648 39.145 58.946V57.596ZM39.145 60.26C37.669 60.8 35.473 62.186 34.609 63.05L39.217 66.056H39.289C39.181 64.85 39.145 63.608 39.145 62.438V60.26ZM52.1214 67.172L51.4554 68.234C49.4574 67.46 48.3954 65.354 48.3954 62.726C48.3954 60.836 48.8814 58.64 50.4294 56.444H52.6794V57.596H51.2934C50.3394 58.946 49.7094 60.836 49.7094 62.726C49.7094 64.85 50.4654 66.416 52.1214 67.172ZM64.2081 61.736H63.4341V68.054H62.2101C61.8141 66.488 60.1581 65.048 58.1061 64.85C57.8001 65.894 57.1701 66.236 56.6841 66.236C56.0721 66.236 55.6761 65.876 55.6761 65.264C55.6761 64.634 56.1801 64.04 57.0441 63.788C57.0441 63.662 57.0441 63.536 57.0441 63.41C57.0441 62.114 56.2161 61.304 55.1901 61.07C54.9201 62.06 54.2721 62.456 53.7681 62.456C53.1741 62.456 52.7781 62.078 52.7781 61.466C52.7781 60.818 53.2641 60.224 54.1281 59.99C54.1101 58.946 53.6781 58.172 53.0481 57.596H51.9681V56.444H68.3661V57.596H63.4341V60.53H64.1721C66.1161 60.53 67.3401 61.592 67.3401 63.23C67.3401 64.688 66.5661 65.588 65.5941 66.092L64.7481 65.12C65.4681 64.814 66.0621 64.202 66.0621 63.23C66.0621 62.186 65.2881 61.736 64.2081 61.736ZM62.2461 65.84C62.1561 64.76 62.1201 63.32 62.1201 62.24V61.736H60.8061C59.2401 61.736 58.0881 60.728 58.0881 58.91V57.596H54.5421C55.0101 58.262 55.3161 59.108 55.3161 59.918C56.8641 60.134 58.2861 61.43 58.2861 63.374C58.2861 63.482 58.2861 63.59 58.2861 63.698C60.1581 63.842 61.7601 65.066 62.2461 65.84ZM60.7881 60.53H62.1201V57.596H59.3661V58.928C59.3661 60.008 59.8701 60.53 60.7881 60.53ZM72.6878 67.172L72.0218 68.234C70.0238 67.46 68.9618 65.354 68.9618 62.726C68.9618 60.854 69.5558 58.928 70.3478 57.596H67.6478V56.444H73.2458V57.596H71.8418C70.8878 58.82 70.2758 60.836 70.2758 62.726C70.2758 64.85 71.0318 66.416 72.6878 67.172ZM77.9345 62.096C77.9345 62.798 78.3485 63.194 79.0505 63.194C79.6265 63.194 80.0405 62.942 80.2385 62.78L80.7245 63.824C80.3105 64.184 79.6265 64.364 78.9965 64.364C77.5205 64.364 76.6565 63.428 76.6565 62.132C76.6565 60.224 78.3845 58.55 80.7425 58.55C82.2545 58.55 83.0645 59.576 83.0645 60.8V68.828H81.8765C81.8765 67.478 80.9585 66.776 78.0965 66.65C74.6945 66.488 73.4705 65.318 73.4705 63.392C73.4705 62.816 73.6505 62.204 73.9385 61.664L75.1985 61.988C74.9465 62.438 74.7845 62.96 74.7845 63.446C74.7845 64.652 75.5585 65.354 78.1685 65.48C80.8325 65.624 81.6065 66.236 81.9845 66.686H82.0565C81.9845 66.236 81.8045 65.246 81.8045 63.122V61.052C81.8045 60.35 81.5525 59.738 80.5805 59.738C79.2125 59.738 77.9345 60.782 77.9345 62.096ZM72.5345 57.596H85.2245V56.444H72.5345V57.596ZM92.1928 58.892C93.3088 58.964 94.5868 59.54 95.1268 60.998L97.8808 59.108C97.2868 58.136 96.3508 57.542 95.0728 57.542C93.5608 57.542 92.5528 58.406 92.1928 58.892ZM91.2928 59.936L90.5368 58.838C91.2568 57.704 92.8048 56.336 95.0188 56.336C97.2508 56.336 98.2948 57.47 98.8348 58.496L98.9068 58.478C98.8168 58.262 98.6188 56.678 98.6188 55.274V54.662H99.9148V56.444H102.075V57.596H99.9148V68.702H98.6908C98.6368 67.694 97.9888 66.848 96.6748 66.848C95.8648 66.848 94.4428 66.866 93.8128 66.866C91.6888 66.866 90.5908 65.588 90.5008 63.788L91.7788 63.464C91.7788 64.67 92.3188 65.66 93.9388 65.66C94.5868 65.66 95.8288 65.624 96.4588 65.624C97.8268 65.624 98.4028 66.092 98.7988 66.65H98.8708C98.8168 66.344 98.6188 65.732 98.6188 64.616V62.132C98.6188 61.448 98.5288 60.8 98.3668 60.224L92.9668 63.968L92.3008 62.942L94.1188 61.7C93.8128 60.836 93.2368 60.242 92.2648 60.044C91.9768 59.972 91.7248 59.936 91.2928 59.936ZM106.403 67.172L105.737 68.234C103.739 67.46 102.677 65.354 102.677 62.726C102.677 60.854 103.271 58.928 104.063 57.596H101.363V56.444H106.961V57.596H105.557C104.603 58.82 103.991 60.836 103.991 62.726C103.991 64.85 104.747 66.416 106.403 67.172ZM109.327 57.596V57.668L111.613 60.08V61.088L108.913 63.176L113.719 66.182H113.791C113.701 64.886 113.629 63.77 113.629 62.618V57.596H109.327ZM114.763 68.27L107.707 63.878V62.546L110.335 60.53L107.905 57.956V57.596H106.249V56.444H117.103V57.596H114.943V66.92L115.663 67.37L114.763 68.27ZM118.57 55.184V54.662H119.866V56.444H122.026V57.596H119.866V68H118.552V59.09C118.552 58.064 118.066 57.596 117.112 57.596H116.392V56.444H117.328C118.228 56.444 118.588 56.876 118.732 57.074H118.822C118.768 56.93 118.57 56.21 118.57 55.184ZM123.564 60.134C123.618 63.23 125.364 65.768 127.83 65.768C129.288 65.768 129.99 64.904 129.99 63.986C129.99 63.572 129.864 63.266 129.702 63.05L128.118 63.014C126.858 62.978 125.94 62.366 125.94 61.142C125.94 59.792 127.308 58.568 128.946 57.596H121.314V56.444H136.362V57.596H130.656C130.872 58.892 131.7 60.476 134.202 60.476H134.562L135.156 61.412C134.706 62.222 134.184 63.464 134.184 65.156V68.054H132.87V65.102C132.87 63.212 133.572 61.844 133.698 61.628C131.502 61.556 129.972 60.026 129.666 58.478C128.226 59.396 127.326 60.224 127.326 61.07C127.326 61.628 127.74 61.844 128.316 61.862L130.458 61.916C130.998 62.366 131.34 63.176 131.34 63.932C131.34 65.588 130.08 67.046 127.848 67.046C124.68 67.046 122.412 64.022 122.304 60.494L123.564 60.134ZM138.214 57.596H135.64V56.444H140.914V57.596H140.716C139.654 57.596 138.538 58.262 138.538 60.062C138.538 61.826 139.456 63.14 139.456 65.192C139.456 66.632 138.844 67.82 137.818 68.63L136.792 67.82C137.818 66.974 138.16 66.128 138.16 65.066C138.16 63.266 137.188 61.952 137.188 59.99C137.188 58.712 137.8 58.01 138.214 57.668V57.596Z" fill="#FFCA3A"/>
<path d="M48.1247 12.002C47.7287 12.128 47.2967 12.2 46.8467 12.2C44.7227 12.2 43.2467 10.832 43.2467 8.654C43.2467 6.656 44.6507 5.45 46.2167 5.45C47.6567 5.45 48.3587 6.368 48.5207 6.926H48.5927C48.7367 6.242 49.4207 5.396 50.6087 5.396C51.5807 5.396 52.1387 5.954 52.3187 6.17H52.3907V3.596H41.8607V2.444H55.8647V3.596H53.7047V14H52.3907V7.7C52.2467 7.25 51.6527 6.62 50.7527 6.62C49.8707 6.62 49.1687 7.268 49.1687 8.384V9.086H47.8907V8.402C47.8907 7.25 47.1887 6.692 46.2707 6.692C45.4067 6.692 44.5607 7.376 44.5607 8.654C44.5607 10.166 45.5867 11.012 46.8647 11.012C47.2247 11.012 47.6027 10.94 47.9267 10.796L48.1247 12.002ZM57.3278 1.184V0.661999H58.6238V2.444H60.7838V3.596H58.6238V14H57.3098V5.09C57.3098 4.064 56.8238 3.596 55.8698 3.596H55.1498V2.444H56.0858C56.9858 2.444 57.3458 2.876 57.4898 3.074H57.5798C57.5258 2.93 57.3278 2.21 57.3278 1.184ZM65.1116 13.172L64.4456 14.234C62.4476 13.46 61.3856 11.354 61.3856 8.726C61.3856 6.854 61.9796 4.928 62.7716 3.596H60.0716V2.444H65.6696V3.596H64.2656C63.3116 4.82 62.6996 6.836 62.6996 8.726C62.6996 10.85 63.4556 12.416 65.1116 13.172ZM76.2084 3.596H74.0484V14H72.7884C72.5544 12.11 71.0784 9.968 69.2604 9.428C68.9364 10.454 68.3064 10.832 67.7844 10.832C67.1544 10.832 66.7224 10.418 66.7224 9.788C66.7224 9.068 67.2624 8.402 68.1804 8.222C68.1804 8.15 68.1804 8.06 68.1804 7.952C68.1804 5.864 66.7944 4.262 65.9844 3.83V3.596H64.9584V2.444H76.2084V3.596ZM72.8064 10.976L72.8424 10.958C72.8064 10.112 72.7344 9.05 72.7344 7.718V3.596H67.7484V3.668C68.3244 4.244 69.4404 5.846 69.4404 7.97C69.4404 8.078 69.4404 8.186 69.4404 8.276C70.9704 8.6 72.2124 9.86 72.8064 10.976ZM77.6297 14.144C77.6297 14.684 78.0077 15.044 78.5117 15.044C79.0337 15.044 79.4117 14.684 79.4117 14.144C79.4117 13.622 79.0337 13.262 78.5117 13.262C78.0077 13.262 77.6297 13.622 77.6297 14.144ZM82.6157 3.596H75.4877V2.444H86.0897V3.596H83.9477V12.848L84.6857 13.334L83.7677 14.252L76.7657 9.662V8.456C77.8097 7.412 80.4557 5.648 82.6157 4.946V3.596ZM82.6157 6.26C81.1397 6.8 78.9437 8.186 78.0797 9.05L82.6877 12.056H82.7597C82.6517 10.85 82.6157 9.608 82.6157 8.438V6.26ZM108.804 1.184V0.661999H110.1V2.444H112.26V3.596H110.1V14H108.786V5.09C108.786 4.064 108.3 3.596 107.346 3.596H105.204V12.938L105.888 13.424L104.898 14.234L100.74 11.156C100.002 11.876 98.9581 12.326 97.6801 12.326C94.1341 12.326 92.1901 9.428 91.3981 5.45L92.6041 4.91C93.2701 8.42 94.7821 11.156 97.6801 11.156C99.4981 11.156 100.56 9.878 100.56 8.222C100.56 6.764 99.8401 5.954 98.7601 5.954C97.9141 5.954 97.3561 6.44 97.3561 7.322C97.3561 7.808 97.6081 8.294 98.1301 8.582L97.1761 9.284C96.4381 8.888 96.0241 8.078 96.0241 7.232C96.0241 5.846 97.0141 4.712 98.7241 4.712C100.578 4.712 101.874 6.206 101.874 8.24C101.874 8.942 101.712 9.608 101.442 10.166L103.926 12.056L103.998 12.038C103.908 10.832 103.89 9.608 103.89 8.456V3.596H90.5521V2.444H107.562C108.462 2.444 108.822 2.876 108.966 3.074H109.056C109.002 2.93 108.804 2.21 108.804 1.184ZM116.598 13.172L115.932 14.234C113.934 13.46 112.872 11.354 112.872 8.726C112.872 6.854 113.466 4.928 114.258 3.596H111.558V2.444H117.156V3.596H115.752C114.798 4.82 114.186 6.836 114.186 8.726C114.186 10.85 114.942 12.416 116.598 13.172ZM125.049 0.661999H126.381V2.444H128.541V3.596H126.381V14H125.067V7.34C125.067 5.45 123.735 3.686 121.575 3.686C120.045 3.686 119.055 4.676 118.641 5.432C119.073 5.216 119.775 5.09 120.279 5.09C121.665 5.09 122.871 5.972 122.871 7.592C122.871 9.104 121.755 10.49 120.225 11.426L119.199 10.472C120.585 9.68 121.521 8.654 121.521 7.556C121.521 6.602 120.837 6.17 119.955 6.17C119.325 6.17 118.659 6.332 118.119 6.62L117.183 5.666C117.705 3.902 119.451 2.444 121.503 2.444C123.825 2.444 124.923 3.848 125.265 4.442H125.337C125.265 4.28 125.049 3.11 125.049 1.634V0.661999ZM129.96 14.144C129.96 14.684 130.338 15.044 130.842 15.044C131.364 15.044 131.742 14.684 131.742 14.144C131.742 13.622 131.364 13.262 130.842 13.262C130.338 13.262 129.96 13.622 129.96 14.144ZM134.946 3.596H127.818V2.444H138.42V3.596H136.278V12.848L137.016 13.334L136.098 14.252L129.096 9.662V8.456C130.14 7.412 132.786 5.648 134.946 4.946V3.596ZM134.946 6.26C133.47 6.8 131.274 8.186 130.41 9.05L135.018 12.056H135.09C134.982 10.85 134.946 9.608 134.946 8.438V6.26ZM142.882 3.596V2.444H159.676V3.596H157.534V12.938L158.218 13.424L157.228 14.234L153.07 11.156C152.332 11.876 151.288 12.326 150.01 12.326C146.464 12.326 144.52 9.428 143.728 5.45L144.934 4.91C145.6 8.42 147.112 11.156 150.01 11.156C151.828 11.156 152.89 9.878 152.89 8.222C152.89 6.764 152.17 5.954 151.09 5.954C150.244 5.954 149.686 6.44 149.686 7.322C149.686 7.808 149.938 8.294 150.46 8.582L149.506 9.284C148.768 8.888 148.354 8.078 148.354 7.232C148.354 5.846 149.344 4.712 151.054 4.712C152.908 4.712 154.204 6.206 154.204 8.24C154.204 8.942 154.042 9.608 153.772 10.166L156.256 12.056L156.328 12.038C156.238 10.832 156.22 9.608 156.22 8.456V3.596H142.882ZM171.189 7.736H170.415V14.054H169.191C168.795 12.488 167.139 11.048 165.087 10.85C164.781 11.894 164.151 12.236 163.665 12.236C163.053 12.236 162.657 11.876 162.657 11.264C162.657 10.634 163.161 10.04 164.025 9.788C164.025 9.662 164.025 9.536 164.025 9.41C164.025 8.114 163.197 7.304 162.171 7.07C161.901 8.06 161.253 8.456 160.749 8.456C160.155 8.456 159.759 8.078 159.759 7.466C159.759 6.818 160.245 6.224 161.109 5.99C161.091 4.946 160.659 4.172 160.029 3.596H158.949V2.444H175.347V3.596H170.415V6.53H171.153C173.097 6.53 174.321 7.592 174.321 9.23C174.321 10.688 173.547 11.588 172.575 12.092L171.729 11.12C172.449 10.814 173.043 10.202 173.043 9.23C173.043 8.186 172.269 7.736 171.189 7.736ZM169.227 11.84C169.137 10.76 169.101 9.32 169.101 8.24V7.736H167.787C166.221 7.736 165.069 6.728 165.069 4.91V3.596H161.523C161.991 4.262 162.297 5.108 162.297 5.918C163.845 6.134 165.267 7.43 165.267 9.374C165.267 9.482 165.267 9.59 165.267 9.698C167.139 9.842 168.741 11.066 169.227 11.84ZM167.769 6.53H169.101V3.596H166.347V4.928C166.347 6.008 166.851 6.53 167.769 6.53ZM179.668 13.172L179.002 14.234C177.004 13.46 175.942 11.354 175.942 8.726C175.942 6.854 176.536 4.928 177.328 3.596H174.628V2.444H180.226V3.596H178.822C177.868 4.82 177.256 6.836 177.256 8.726C177.256 10.85 178.012 12.416 179.668 13.172ZM181.657 14.144C181.657 14.684 182.035 15.044 182.539 15.044C183.061 15.044 183.439 14.684 183.439 14.144C183.439 13.622 183.061 13.262 182.539 13.262C182.035 13.262 181.657 13.622 181.657 14.144ZM186.643 3.596H179.515V2.444H190.117V3.596H187.975V12.848L188.713 13.334L187.795 14.252L180.793 9.662V8.456C181.837 7.412 184.483 5.648 186.643 4.946V3.596ZM186.643 6.26C185.167 6.8 182.971 8.186 182.107 9.05L186.715 12.056H186.787C186.679 10.85 186.643 9.608 186.643 8.438V6.26ZM197.657 3.596V3.668L199.943 6.08V7.088L197.243 9.176L202.049 12.182H202.121C202.031 10.886 201.959 9.77 201.959 8.618V3.596H197.657ZM203.093 14.27L196.037 9.878V8.546L198.665 6.53L196.235 3.956V3.596H194.579V2.444H205.433V3.596H203.273V12.92L203.993 13.37L203.093 14.27ZM211.85 3.596H204.722V2.444H215.324V3.596H213.182V12.848L213.92 13.334L213.002 14.252L206 9.662V8.456C207.044 7.412 209.69 5.648 211.85 4.946V3.596ZM211.85 6.26C210.374 6.8 208.178 8.186 207.314 9.05L211.922 12.056H211.994C211.886 10.85 211.85 9.608 211.85 8.438V6.26ZM216.743 14.144C216.743 14.684 217.121 15.044 217.625 15.044C218.147 15.044 218.525 14.684 218.525 14.144C218.525 13.622 218.147 13.262 217.625 13.262C217.121 13.262 216.743 13.622 216.743 14.144ZM221.729 3.596H214.601V2.444H225.203V3.596H223.061V12.848L223.799 13.334L222.881 14.252L215.879 9.662V8.456C216.923 7.412 219.569 5.648 221.729 4.946V3.596ZM221.729 6.26C220.253 6.8 218.057 8.186 217.193 9.05L221.801 12.056H221.873C221.765 10.85 221.729 9.608 221.729 8.438V6.26ZM229.665 3.596V2.444H246.459V3.596H244.317V12.938L245.001 13.424L244.011 14.234L239.853 11.156C239.115 11.876 238.071 12.326 236.793 12.326C233.247 12.326 231.303 9.428 230.511 5.45L231.717 4.91C232.383 8.42 233.895 11.156 236.793 11.156C238.611 11.156 239.673 9.878 239.673 8.222C239.673 6.764 238.953 5.954 237.873 5.954C237.027 5.954 236.469 6.44 236.469 7.322C236.469 7.808 236.721 8.294 237.243 8.582L236.289 9.284C235.551 8.888 235.137 8.078 235.137 7.232C235.137 5.846 236.127 4.712 237.837 4.712C239.691 4.712 240.987 6.206 240.987 8.24C240.987 8.942 240.825 9.608 240.555 10.166L243.039 12.056L243.111 12.038C243.021 10.832 243.003 9.608 243.003 8.456V3.596H229.665ZM248.108 7.016C247.424 6.476 247.226 5.72 247.226 5.09C247.226 3.488 248.468 2.372 250.178 2.372C251.852 2.372 253.382 3.452 253.382 5.378C253.382 7.16 252.176 8.852 249.188 9.392V9.464L255.2 12.326H255.272C255.164 11.03 255.146 9.806 255.146 8.672V0.661999H256.478V2.444H258.62V3.596H256.478V12.884L257.252 13.262L256.388 14.234L247.226 9.95V8.51C250.808 8.33 252.068 6.89 252.068 5.378C252.068 4.352 251.348 3.596 250.196 3.596C249.278 3.596 248.54 4.172 248.54 5.108C248.54 5.63 248.774 6.062 249.17 6.404L248.108 7.016ZM265.024 3.596H257.896V2.444H268.498V3.596H266.356V12.848L267.094 13.334L266.176 14.252L259.174 9.662V8.456C260.218 7.412 262.864 5.648 265.024 4.946V3.596ZM265.024 6.26C263.548 6.8 261.352 8.186 260.488 9.05L265.096 12.056H265.168C265.06 10.85 265.024 9.608 265.024 8.438V6.26ZM269.953 1.184V0.661999H271.249V2.444H273.409V3.596H271.249V14H269.935V5.09C269.935 4.064 269.449 3.596 268.495 3.596H267.775V2.444H268.711C269.611 2.444 269.971 2.876 270.115 3.074H270.205C270.151 2.93 269.953 2.21 269.953 1.184ZM282.922 13.172L282.256 14.234C280.258 13.46 279.196 11.354 279.196 8.726C279.196 6.836 279.682 4.64 281.23 2.444H283.48V3.596H282.094C281.14 4.946 280.51 6.836 280.51 8.726C280.51 10.85 281.266 12.416 282.922 13.172ZM285.181 4.892C286.513 5.018 287.665 5.828 288.259 7.646L291.283 5.666C290.689 4.388 289.591 3.542 288.061 3.542C286.549 3.542 285.541 4.406 285.181 4.892ZM293.119 14H291.787V8.132C291.787 7.682 291.751 7.25 291.661 6.854L286.027 10.526L285.361 9.518L287.233 8.294C286.891 7.196 286.243 6.044 284.677 5.954C284.551 5.936 284.407 5.918 284.263 5.918L283.507 4.874C284.227 3.722 285.721 2.336 288.007 2.336C290.239 2.336 291.463 3.632 292.003 4.658L292.057 4.64C291.967 4.37 291.787 2.822 291.787 1.418V0.661999H293.119V2.444H295.261V3.596H293.119V14ZM296.202 3.596H294.546V2.444H296.202C297.516 2.444 298.56 2.984 299.172 3.866C299.802 3.002 300.81 2.462 301.926 2.462C303.456 2.462 304.248 3.236 304.482 3.614H304.554C304.518 3.488 304.356 2.552 304.356 1.364V0.661999H305.652V2.444H307.812V3.596H305.652V14H304.338V6.134C304.338 4.496 303.294 3.668 301.962 3.668C300.9 3.668 299.802 4.424 299.802 5.9C299.802 7.196 300.828 7.934 302.034 7.934C302.214 7.934 302.448 7.916 302.628 7.88V9.068C302.502 9.086 302.268 9.122 302.016 9.122C300.81 9.122 299.694 8.618 299.118 7.682C298.596 8.636 297.588 9.158 296.31 9.158C295.968 9.158 295.518 9.068 295.32 9.014V7.79C295.554 7.916 295.986 7.952 296.292 7.952C297.678 7.952 298.506 7.088 298.506 5.864C298.506 4.298 297.516 3.596 296.202 3.596ZM314.659 7.016C313.975 6.476 313.777 5.72 313.777 5.09C313.777 3.488 315.019 2.372 316.729 2.372C318.403 2.372 319.933 3.452 319.933 5.378C319.933 7.16 318.727 8.852 315.739 9.392V9.464L321.751 12.326H321.823C321.715 11.03 321.697 9.806 321.697 8.672V0.661999H323.029V2.444H325.171V3.596H323.029V12.884L323.803 13.262L322.939 14.234L313.777 9.95V8.51C317.359 8.33 318.619 6.89 318.619 5.378C318.619 4.352 317.899 3.596 316.747 3.596C315.829 3.596 315.091 4.172 315.091 5.108C315.091 5.63 315.325 6.062 315.721 6.404L314.659 7.016ZM326.625 1.184V0.661999H327.921V2.444H330.081V3.596H327.921V14H326.607V5.09C326.607 4.064 326.121 3.596 325.167 3.596H324.447V2.444H325.383C326.283 2.444 326.643 2.876 326.787 3.074H326.877C326.823 2.93 326.625 2.21 326.625 1.184ZM338.531 10.868C339.305 10.544 339.971 9.716 339.971 8.726C339.971 7.466 338.999 6.512 337.199 6.476V12.794L337.937 13.388L336.911 14.18L330.647 9.014V7.862C332.159 6.566 333.977 5.594 335.903 5.324V3.596H329.369V2.444H342.527V3.596H337.199V5.252C339.809 5.306 341.267 6.98 341.267 8.744C341.267 10.148 340.475 11.264 339.449 11.822L338.531 10.868ZM331.961 8.474L335.957 11.84H336.029C335.921 10.544 335.903 9.356 335.903 8.222V6.584C334.391 6.8 332.969 7.646 331.961 8.474ZM346.854 13.172L346.188 14.234C344.19 13.46 343.128 11.354 343.128 8.726C343.128 6.854 343.722 4.928 344.514 3.596H341.814V2.444H347.412V3.596H346.008C345.054 4.82 344.442 6.836 344.442 8.726C344.442 10.85 345.198 12.416 346.854 13.172ZM352.965 12.002C352.569 12.128 352.137 12.2 351.687 12.2C349.563 12.2 348.087 10.832 348.087 8.654C348.087 6.656 349.491 5.45 351.057 5.45C352.497 5.45 353.199 6.368 353.361 6.926H353.433C353.577 6.242 354.261 5.396 355.449 5.396C356.421 5.396 356.979 5.954 357.159 6.17H357.231V3.596H346.701V2.444H360.705V3.596H358.545V14H357.231V7.7C357.087 7.25 356.493 6.62 355.593 6.62C354.711 6.62 354.009 7.268 354.009 8.384V9.086H352.731V8.402C352.731 7.25 352.029 6.692 351.111 6.692C350.247 6.692 349.401 7.376 349.401 8.654C349.401 10.166 350.427 11.012 351.705 11.012C352.065 11.012 352.443 10.94 352.767 10.796L352.965 12.002ZM6.904 39.002C6.508 39.128 6.076 39.2 5.626 39.2C3.502 39.2 2.026 37.832 2.026 35.654C2.026 33.656 3.43 32.45 4.996 32.45C6.436 32.45 7.138 33.368 7.3 33.926H7.372C7.516 33.242 8.2 32.396 9.388 32.396C10.36 32.396 10.918 32.954 11.098 33.17H11.17V30.596H0.64V29.444H14.644V30.596H12.484V41H11.17V34.7C11.026 34.25 10.432 33.62 9.532 33.62C8.65 33.62 7.948 34.268 7.948 35.384V36.086H6.67V35.402C6.67 34.25 5.968 33.692 5.05 33.692C4.186 33.692 3.34 34.376 3.34 35.654C3.34 37.166 4.366 38.012 5.644 38.012C6.004 38.012 6.382 37.94 6.706 37.796L6.904 39.002ZM16.1071 28.184V27.662H17.4031V29.444H19.5631V30.596H17.4031V41H16.0891V32.09C16.0891 31.064 15.6031 30.596 14.6491 30.596H13.9291V29.444H14.8651C15.7651 29.444 16.1251 29.876 16.2691 30.074H16.3591C16.3051 29.93 16.1071 29.21 16.1071 28.184ZM23.8909 40.172L23.2249 41.234C21.2269 40.46 20.1649 38.354 20.1649 35.726C20.1649 33.854 20.7589 31.928 21.5509 30.596H18.8509V29.444H24.4489V30.596H23.0449C22.0909 31.82 21.4789 33.836 21.4789 35.726C21.4789 37.85 22.2349 39.416 23.8909 40.172ZM34.9877 30.596H32.8277V41H31.5677C31.3337 39.11 29.8577 36.968 28.0397 36.428C27.7157 37.454 27.0857 37.832 26.5637 37.832C25.9337 37.832 25.5017 37.418 25.5017 36.788C25.5017 36.068 26.0417 35.402 26.9597 35.222C26.9597 35.15 26.9597 35.06 26.9597 34.952C26.9597 32.864 25.5737 31.262 24.7637 30.83V30.596H23.7377V29.444H34.9877V30.596ZM31.5857 37.976L31.6217 37.958C31.5857 37.112 31.5137 36.05 31.5137 34.718V30.596H26.5277V30.668C27.1037 31.244 28.2197 32.846 28.2197 34.97C28.2197 35.078 28.2197 35.186 28.2197 35.276C29.7497 35.6 30.9917 36.86 31.5857 37.976ZM36.409 41.144C36.409 41.684 36.787 42.044 37.291 42.044C37.813 42.044 38.191 41.684 38.191 41.144C38.191 40.622 37.813 40.262 37.291 40.262C36.787 40.262 36.409 40.622 36.409 41.144ZM41.395 30.596H34.267V29.444H44.869V30.596H42.727V39.848L43.465 40.334L42.547 41.252L35.545 36.662V35.456C36.589 34.412 39.235 32.648 41.395 31.946V30.596ZM41.395 33.26C39.919 33.8 37.723 35.186 36.859 36.05L41.467 39.056H41.539C41.431 37.85 41.395 36.608 41.395 35.438V33.26ZM50.3034 24.44L51.5634 24.17C51.5274 24.368 51.5094 24.566 51.5094 24.764C51.5094 25.43 51.7974 26.114 53.2734 26.114H57.2694C59.0514 26.114 60.4014 26.96 60.4014 28.634C60.4014 28.868 60.3654 29.156 60.3114 29.444H61.8594V30.596H55.5234V33.44C55.5234 34.052 55.7574 34.43 56.3694 34.43C56.9274 34.43 58.1694 34.052 59.4474 32.864C60.0414 33.26 60.7974 34.322 60.7974 35.672C60.7974 38.156 58.9974 39.902 56.1714 39.902C52.5534 39.902 50.5374 36.914 50.3754 33.458L51.6354 33.188C51.7614 36.626 53.5974 38.678 56.1894 38.678C58.1694 38.678 59.5014 37.49 59.5014 35.708C59.5014 35.204 59.3754 34.772 59.1954 34.538C58.3314 35.258 57.2514 35.654 56.2794 35.654C54.9654 35.654 54.1914 34.736 54.1914 33.512V30.596H49.5474V29.444H59.0154C59.0514 29.192 59.0874 28.904 59.0874 28.724C59.0874 27.698 58.4754 27.284 57.0714 27.284H53.1834C50.9154 27.284 50.2674 26.132 50.2674 24.962C50.2674 24.782 50.2674 24.62 50.3034 24.44ZM73.6668 33.62C75.2328 34.196 76.0968 35.042 76.0968 36.536C76.0968 38.732 74.0808 41.018 71.7948 41.018C70.2648 41.018 69.3648 40.136 69.3648 38.768V35.996C68.9328 37.652 67.4568 38.894 65.6928 38.894C64.1628 38.894 63.2448 38.012 63.2448 36.626V30.596H61.3548V29.444H77.3928V30.596H70.6068V31.082C70.6068 32.108 71.2368 32.702 72.1908 33.062L73.6668 33.62ZM70.6608 33.422H70.5888C70.6068 33.584 70.6608 34.556 70.6608 36.248V38.732C70.6608 39.38 71.0208 39.812 71.8128 39.812C73.0548 39.812 74.7828 38.246 74.7828 36.518C74.7828 35.816 74.4588 35.24 73.2168 34.79L72.0648 34.358C71.2548 34.07 70.8408 33.656 70.6608 33.422ZM64.5048 32.108H64.4328C64.4508 32.288 64.5408 33.26 64.5408 34.952V36.572C64.5408 37.256 64.8828 37.67 65.6928 37.67C66.9348 37.67 68.2128 36.518 68.2128 35.006C68.2128 34.304 67.9068 33.746 66.6828 33.314L65.8908 33.026C65.0808 32.756 64.7208 32.396 64.5048 32.108ZM67.1148 32.144C68.3388 32.594 69.0768 33.188 69.3648 34.106V30.596H64.5048C64.7208 31.154 65.2608 31.478 66.0708 31.766L67.1148 32.144ZM78.8434 28.184V27.662H80.1394V29.444H82.2994V30.596H80.1394V41H78.8254V32.09C78.8254 31.064 78.3394 30.596 77.3854 30.596H76.6654V29.444H77.6014C78.5014 29.444 78.8614 29.876 79.0054 30.074H79.0954C79.0414 29.93 78.8434 29.21 78.8434 28.184ZM83.7293 41.144C83.7293 41.684 84.1073 42.044 84.6113 42.044C85.1333 42.044 85.5113 41.684 85.5113 41.144C85.5113 40.622 85.1333 40.262 84.6113 40.262C84.1073 40.262 83.7293 40.622 83.7293 41.144ZM88.7153 30.596H81.5873V29.444H92.1893V30.596H90.0473V39.848L90.7853 40.334L89.8673 41.252L82.8653 36.662V35.456C83.9093 34.412 86.5553 32.648 88.7153 31.946V30.596ZM88.7153 33.26C87.2393 33.8 85.0433 35.186 84.1793 36.05L88.7873 39.056H88.8593C88.7513 37.85 88.7153 36.608 88.7153 35.438V33.26ZM93.9142 33.08C93.9142 34.466 94.8502 35.186 96.0382 35.186C96.5962 35.186 97.1002 34.988 97.4242 34.754L97.8562 35.906C97.4242 36.212 96.7042 36.41 96.0202 36.41C93.9322 36.41 92.6002 34.97 92.6002 33.062C92.6002 31.01 93.9502 29.444 96.3262 29.444C98.2702 29.444 99.3322 30.614 99.7642 31.388H99.8362C99.7462 30.956 99.6562 30.074 99.6562 28.652V27.662H100.97V29.444H103.13V30.596H100.97V41H99.6562V35.204C99.6562 32.576 98.5222 30.65 96.3802 30.65C94.7782 30.65 93.9142 31.694 93.9142 33.08ZM112.643 40.172L111.977 41.234C109.979 40.46 108.917 38.354 108.917 35.726C108.917 33.836 109.403 31.64 110.951 29.444H113.201V30.596H111.815C110.861 31.946 110.231 33.836 110.231 35.726C110.231 37.85 110.987 39.416 112.643 40.172ZM123.74 30.596H121.58V41H120.32C120.086 39.11 118.61 36.968 116.792 36.428C116.468 37.454 115.838 37.832 115.316 37.832C114.686 37.832 114.254 37.418 114.254 36.788C114.254 36.068 114.794 35.402 115.712 35.222C115.712 35.15 115.712 35.06 115.712 34.952C115.712 32.864 114.326 31.262 113.516 30.83V30.596H112.49V29.444H123.74V30.596ZM120.338 37.976L120.374 37.958C120.338 37.112 120.266 36.05 120.266 34.718V30.596H115.28V30.668C115.856 31.244 116.972 32.846 116.972 34.97C116.972 35.078 116.972 35.186 116.972 35.276C118.502 35.6 119.744 36.86 120.338 37.976ZM125.197 28.184V27.662H126.493V29.444H128.653V30.596H126.493V41H125.179V32.09C125.179 31.064 124.693 30.596 123.739 30.596H123.019V29.444H123.955C124.855 29.444 125.215 29.876 125.359 30.074H125.449C125.395 29.93 125.197 29.21 125.197 28.184ZM128.373 24.44L129.615 24.17C129.597 24.368 129.561 24.566 129.561 24.764C129.561 25.43 129.849 26.114 131.325 26.114H133.683C135.465 26.114 136.815 26.96 136.815 28.634C136.815 28.868 136.779 29.156 136.725 29.444H138.489V30.596H131.379V37.418C131.379 38.228 131.811 38.84 132.765 38.84C134.367 38.84 135.717 37.382 135.717 35.708C135.717 34.79 135.339 34.088 134.439 34.088C133.989 34.088 133.557 34.322 133.323 34.664L132.585 33.62C132.945 33.224 133.575 32.828 134.439 32.828C135.987 32.828 137.049 33.998 137.049 35.708C137.049 37.868 135.249 40.064 132.729 40.064C131.109 40.064 130.083 39.038 130.083 37.508V30.596H127.959V29.444H135.429C135.483 29.192 135.501 28.886 135.501 28.724C135.501 27.698 134.889 27.284 133.485 27.284H131.235C128.985 27.284 128.337 26.132 128.337 24.962C128.337 24.782 128.337 24.62 128.373 24.44ZM139.945 28.184V27.662H141.241V29.444H143.401V30.596H141.241V41H139.927V32.09C139.927 31.064 139.441 30.596 138.487 30.596H137.767V29.444H138.703C139.603 29.444 139.963 29.876 140.107 30.074H140.197C140.143 29.93 139.945 29.21 139.945 28.184ZM152.266 38.48C152.806 38.624 153.706 39.038 154.822 39.722L156.73 40.874L155.776 41.774C151.492 39.182 151.006 38.858 149.53 38.66V37.526H150.682C153.526 37.526 154.534 36.302 154.534 34.826C154.534 33.71 153.76 32.936 152.554 32.936C151.528 32.936 150.808 33.548 150.808 34.484C150.808 34.97 151.078 35.474 151.582 35.744L150.628 36.464C149.89 36.032 149.494 35.258 149.494 34.412C149.494 32.882 150.736 31.712 152.536 31.712C154.48 31.712 155.848 33.008 155.848 34.88C155.848 36.914 154.462 38.156 152.266 38.408V38.48ZM147.874 30.596V29.444H157.486V30.596H147.874ZM161.809 40.172L161.143 41.234C159.145 40.46 158.083 38.354 158.083 35.726C158.083 33.854 158.677 31.928 159.469 30.596H156.769V29.444H162.367V30.596H160.963C160.009 31.82 159.397 33.836 159.397 35.726C159.397 37.85 160.153 39.416 161.809 40.172ZM168.784 30.596H161.656V29.444H172.258V30.596H170.116V39.848L170.854 40.334L169.936 41.252L162.934 36.662V35.456C163.978 34.412 166.624 32.648 168.784 31.946V30.596ZM168.784 33.26C167.308 33.8 165.112 35.186 164.248 36.05L168.856 39.056H168.928C168.82 37.85 168.784 36.608 168.784 35.438V33.26ZM176.881 41H175.495V29.444H176.881V41ZM197.522 36.5C196.802 36.068 196.334 35.276 196.334 34.304C196.334 32.864 197.324 31.766 199.016 31.766C201.068 31.766 202.166 33.458 202.166 35.51C202.166 38.084 200.42 39.884 197.882 39.884C194.3 39.884 192.446 36.662 191.672 32.612L192.896 32.072C193.544 35.636 194.966 38.714 197.882 38.714C199.718 38.714 200.852 37.256 200.852 35.492C200.852 33.998 200.258 32.99 199.052 32.99C198.224 32.99 197.648 33.494 197.648 34.376C197.648 34.952 197.918 35.438 198.422 35.726L197.522 36.5ZM203.462 29.444V30.596H190.484V29.444H203.462ZM207.776 40.172L207.11 41.234C205.112 40.46 204.05 38.354 204.05 35.726C204.05 33.854 204.644 31.928 205.436 30.596H202.736V29.444H208.334V30.596H206.93C205.976 31.82 205.364 33.836 205.364 35.726C205.364 37.85 206.12 39.416 207.776 40.172ZM214.75 30.596H207.622V29.444H218.224V30.596H216.082V39.848L216.82 40.334L215.902 41.252L208.9 36.662V35.456C209.944 34.412 212.59 32.648 214.75 31.946V30.596ZM214.75 33.26C213.274 33.8 211.078 35.186 210.214 36.05L214.822 39.056H214.894C214.786 37.85 214.75 36.608 214.75 35.438V33.26ZM224.253 43.538L223.803 42.8C224.595 42.458 225.135 41.936 225.135 41.324C225.135 40.73 224.775 40.406 224.109 40.064V39.938C224.109 39.326 224.559 38.858 225.207 38.858C225.945 38.858 226.521 39.416 226.521 40.46C226.521 42.026 225.279 43.178 224.253 43.538Z" fill="#F5F9FA"/>
</svg>
