<svg width="178" height="119" viewBox="0 0 178 119" fill="none" xmlns="http://www.w3.org/2000/svg">
<path d="M45.4924 102.804V104.082H43.6024V114H42.2164V104.082H40.3444V102.804H42.0004C41.8084 102.576 41.6104 102.336 41.4064 102.084C41.2144 101.832 41.0404 101.58 40.8844 101.328C41.2924 100.62 41.7304 99.978 42.1984 99.402C42.6664 98.814 43.2184 98.352 43.8544 98.016C44.4904 97.668 45.2584 97.494 46.1584 97.494C46.7944 97.494 47.4004 97.572 47.9764 97.728C48.5644 97.884 49.1404 98.112 49.7044 98.412C50.2684 98.7 50.8384 99.054 51.4144 99.474C51.9904 99.882 52.5904 100.338 53.2144 100.842L52.4584 101.814C51.6304 101.142 50.8804 100.584 50.2084 100.14C49.5484 99.696 48.9124 99.366 48.3004 99.15C47.7004 98.922 47.0584 98.808 46.3744 98.808C45.7144 98.808 45.1384 98.922 44.6464 99.15C44.1664 99.378 43.7464 99.696 43.3864 100.104C43.0384 100.512 42.7204 100.986 42.4324 101.526C42.5284 101.706 42.6604 101.904 42.8284 102.12C42.9964 102.336 43.1884 102.564 43.4044 102.804H45.4924ZM56.6817 102.804V104.082H54.7917V114H53.4057V111.57L53.7297 112.524C53.3097 111.888 52.8837 111.3 52.4517 110.76C52.0317 110.22 51.5817 109.782 51.1017 109.446C50.6337 109.11 50.1177 108.942 49.5537 108.942C49.1097 108.942 48.7317 109.056 48.4197 109.284C48.1197 109.512 47.9697 109.854 47.9697 110.31C47.9697 110.706 48.1137 111.042 48.4017 111.318C48.6897 111.582 49.1157 111.81 49.6797 112.002L49.2297 113.388C48.5817 113.16 48.0537 112.884 47.6457 112.56C47.2497 112.236 46.9557 111.882 46.7637 111.498C46.5837 111.102 46.4937 110.688 46.4937 110.256C46.4937 109.68 46.6317 109.2 46.9077 108.816C47.1957 108.432 47.5557 108.144 47.9877 107.952C48.4317 107.748 48.8757 107.646 49.3197 107.646C50.0397 107.646 50.6697 107.778 51.2097 108.042C51.7617 108.306 52.2417 108.66 52.6497 109.104C53.0697 109.548 53.4477 110.046 53.7837 110.598L53.4777 110.652C53.4537 110.376 53.4357 110.1 53.4237 109.824C53.4117 109.536 53.4057 109.242 53.4057 108.942V104.082H45.1257V102.804H56.6817ZM50.6877 108.186C50.6877 108.258 50.6817 108.33 50.6697 108.402C50.6697 108.474 50.6637 108.546 50.6517 108.618L49.2837 108.204C49.2597 107.508 49.1397 106.95 48.9237 106.53C48.7077 106.11 48.3657 105.792 47.8977 105.576C47.4297 105.348 46.7937 105.192 45.9897 105.108L46.2237 103.812L47.0517 104.046C47.6277 104.094 48.1377 104.214 48.5817 104.406C49.0377 104.586 49.4217 104.844 49.7337 105.18C50.0457 105.516 50.2797 105.936 50.4357 106.44C50.6037 106.932 50.6877 107.514 50.6877 108.186ZM67.5549 102.804V104.082H65.6649V114H64.2789V109.626L64.5669 110.634C64.1709 110.082 63.7389 109.584 63.2709 109.14C62.8029 108.696 62.3229 108.342 61.8309 108.078C61.3389 107.814 60.8589 107.682 60.3909 107.682C59.9469 107.682 59.5689 107.802 59.2569 108.042C58.9569 108.27 58.8069 108.612 58.8069 109.068C58.8069 109.428 58.9329 109.74 59.1849 110.004C59.4369 110.256 59.8269 110.484 60.3549 110.688L59.6709 111.966C58.9389 111.666 58.3629 111.264 57.9429 110.76C57.5349 110.244 57.3309 109.662 57.3309 109.014C57.3309 108.426 57.4689 107.94 57.7449 107.556C58.0329 107.16 58.3929 106.866 58.8249 106.674C59.2689 106.482 59.7189 106.386 60.1749 106.386C60.7989 106.386 61.3689 106.494 61.8849 106.71C62.4009 106.926 62.8809 107.22 63.3249 107.592C63.7809 107.964 64.2129 108.396 64.6209 108.888L64.3689 108.96C64.3329 108.684 64.3089 108.414 64.2969 108.15C64.2849 107.874 64.2789 107.598 64.2789 107.322V104.082H56.3229V102.804H67.5549ZM72.3342 102.804V104.082H70.4442V114H69.0582V105.558C68.9142 105.15 68.6982 104.802 68.4102 104.514C68.1342 104.226 67.7742 104.082 67.3302 104.082H67.1862V102.804H67.4562C67.7442 102.804 68.0442 102.9 68.3562 103.092C68.6682 103.272 68.9202 103.554 69.1122 103.938C69.1002 103.878 69.0882 103.74 69.0762 103.524C69.0642 103.308 69.0582 103.122 69.0582 102.966V101.616H70.0302L70.4262 102.804H72.3342ZM118.531 102.804V104.082H116.641V114H115.255V109.626L115.543 110.634C115.147 110.082 114.715 109.584 114.247 109.14C113.779 108.696 113.299 108.342 112.807 108.078C112.315 107.814 111.835 107.682 111.367 107.682C110.923 107.682 110.545 107.802 110.233 108.042C109.933 108.27 109.783 108.612 109.783 109.068C109.783 109.428 109.909 109.74 110.161 110.004C110.413 110.256 110.803 110.484 111.331 110.688L110.647 111.966C109.915 111.666 109.339 111.264 108.919 110.76C108.511 110.244 108.307 109.662 108.307 109.014C108.307 108.426 108.445 107.94 108.721 107.556C109.009 107.16 109.369 106.866 109.801 106.674C110.245 106.482 110.695 106.386 111.151 106.386C111.775 106.386 112.345 106.494 112.861 106.71C113.377 106.926 113.857 107.22 114.301 107.592C114.757 107.964 115.189 108.396 115.597 108.888L115.345 108.96C115.309 108.684 115.285 108.414 115.273 108.15C115.261 107.874 115.255 107.598 115.255 107.322V104.082H107.299V102.804H118.531ZM123.311 102.804V104.082H121.421V114H120.035V105.558C119.891 105.15 119.675 104.802 119.387 104.514C119.111 104.226 118.751 104.082 118.307 104.082H118.163V102.804H118.433C118.721 102.804 119.021 102.9 119.333 103.092C119.645 103.272 119.897 103.554 120.089 103.938C120.077 103.878 120.065 103.74 120.053 103.524C120.041 103.308 120.035 103.122 120.035 102.966V101.616H121.007L121.403 102.804H123.311ZM135.58 102.804V104.082H133.69V114H132.304V107.646L132.718 108.78C132.346 108.288 132.022 107.91 131.746 107.646C131.482 107.382 131.224 107.25 130.972 107.25C130.804 107.25 130.648 107.298 130.504 107.394C130.36 107.49 130.198 107.676 130.018 107.952C129.838 108.216 129.598 108.624 129.298 109.176C128.974 109.764 128.68 110.25 128.416 110.634C128.152 111.006 127.87 111.282 127.57 111.462C127.282 111.63 126.928 111.714 126.508 111.714C126.184 111.714 125.872 111.648 125.572 111.516C125.284 111.384 124.99 111.168 124.69 110.868C124.402 110.556 124.09 110.136 123.754 109.608L124.852 108.942C125.176 109.518 125.446 109.896 125.662 110.076C125.878 110.256 126.112 110.346 126.364 110.346C126.568 110.346 126.76 110.286 126.94 110.166C127.132 110.034 127.336 109.812 127.552 109.5C127.78 109.188 128.038 108.762 128.326 108.222L128.74 107.628C129.052 106.98 129.352 106.536 129.64 106.296C129.928 106.044 130.246 105.918 130.594 105.918C130.99 105.918 131.344 106.032 131.656 106.26C131.98 106.476 132.352 106.812 132.772 107.268L132.412 107.286C132.364 107.01 132.334 106.752 132.322 106.512C132.31 106.26 132.304 106.008 132.304 105.756V104.082H122.944V102.804H135.58ZM128.002 109.122C127.882 108.306 127.756 107.658 127.624 107.178C127.504 106.698 127.288 106.326 126.976 106.062C126.676 105.786 126.268 105.582 125.752 105.45C125.236 105.306 124.588 105.186 123.808 105.09L124.078 103.722L125.05 104.082C125.734 104.19 126.304 104.328 126.76 104.496C127.216 104.664 127.582 104.886 127.858 105.162C128.146 105.426 128.362 105.756 128.506 106.152C128.65 106.548 128.746 107.028 128.794 107.592L128.002 109.122Z" fill="#F5F9FA"/>
<path d="M83.1995 102.804V104.082H81.3095V110.526H79.9235V108.366L80.1575 109.446C79.6775 108.858 79.1915 108.342 78.6995 107.898C78.2075 107.442 77.7155 107.082 77.2235 106.818C76.7435 106.554 76.2515 106.422 75.7475 106.422C75.3395 106.422 75.0215 106.518 74.7935 106.71C74.5655 106.902 74.4515 107.166 74.4515 107.502C74.4515 107.766 74.5415 108.018 74.7215 108.258C74.9135 108.486 75.2435 108.69 75.7115 108.87L75.0455 110.148C74.4215 109.872 73.9175 109.5 73.5335 109.032C73.1615 108.564 72.9755 108.024 72.9755 107.412C72.9755 106.944 73.0835 106.542 73.2995 106.206C73.5275 105.858 73.8335 105.594 74.2175 105.414C74.6135 105.222 75.0575 105.126 75.5495 105.126C76.2095 105.126 76.8095 105.246 77.3495 105.486C77.9015 105.714 78.4175 106.032 78.8975 106.44C79.3775 106.848 79.8455 107.31 80.3015 107.826L79.9775 107.808C79.9655 107.592 79.9535 107.352 79.9415 107.088C79.9295 106.824 79.9235 106.56 79.9235 106.296V104.082H71.9675V102.804H83.1995ZM76.1795 110.328C76.8395 110.328 77.4335 110.46 77.9615 110.724C78.4895 110.976 78.9815 111.33 79.4375 111.786C79.8935 112.23 80.3375 112.74 80.7695 113.316L80.4635 114.756C80.0675 114.192 79.6475 113.676 79.2035 113.208C78.7715 112.728 78.3155 112.344 77.8355 112.056C77.3675 111.756 76.8755 111.606 76.3595 111.606C75.9995 111.606 75.7235 111.684 75.5315 111.84C75.3515 111.984 75.2615 112.188 75.2615 112.452C75.2615 112.692 75.3515 112.896 75.5315 113.064C75.7235 113.22 76.0175 113.37 76.4135 113.514L75.7835 114.756C75.3875 114.612 75.0395 114.42 74.7395 114.18C74.4515 113.952 74.2235 113.688 74.0555 113.388C73.8875 113.088 73.8035 112.77 73.8035 112.434C73.8035 111.978 73.9175 111.594 74.1455 111.282C74.3735 110.97 74.6675 110.736 75.0275 110.58C75.3875 110.412 75.7715 110.328 76.1795 110.328ZM81.3095 110.346V114.774H79.9235V113.442L79.9775 112.668C79.9535 112.38 79.9355 112.092 79.9235 111.804C79.9235 111.504 79.9235 111.204 79.9235 110.904V110.364L81.3095 110.346ZM85.0627 114.108C84.7267 114.108 84.4387 113.994 84.1987 113.766C83.9587 113.526 83.8387 113.226 83.8387 112.866C83.8387 112.506 83.9587 112.212 84.1987 111.984C84.4387 111.756 84.7267 111.642 85.0627 111.642C85.3867 111.642 85.6627 111.756 85.8907 111.984C86.1307 112.212 86.2507 112.506 86.2507 112.866C86.2507 113.226 86.1307 113.526 85.8907 113.766C85.6627 113.994 85.3867 114.108 85.0627 114.108ZM89.1409 114.108C88.8049 114.108 88.5169 113.994 88.2769 113.766C88.0369 113.526 87.9169 113.226 87.9169 112.866C87.9169 112.506 88.0369 112.212 88.2769 111.984C88.5169 111.756 88.8049 111.642 89.1409 111.642C89.4649 111.642 89.7409 111.756 89.9689 111.984C90.2089 112.212 90.3289 112.506 90.3289 112.866C90.3289 113.226 90.2089 113.526 89.9689 113.766C89.7409 113.994 89.4649 114.108 89.1409 114.108ZM93.219 114.108C92.883 114.108 92.595 113.994 92.355 113.766C92.115 113.526 91.995 113.226 91.995 112.866C91.995 112.506 92.115 112.212 92.355 111.984C92.595 111.756 92.883 111.642 93.219 111.642C93.543 111.642 93.819 111.756 94.047 111.984C94.287 112.212 94.407 112.506 94.407 112.866C94.407 113.226 94.287 113.526 94.047 113.766C93.819 113.994 93.543 114.108 93.219 114.108ZM97.2971 114.108C96.9611 114.108 96.6731 113.994 96.4331 113.766C96.1931 113.526 96.0731 113.226 96.0731 112.866C96.0731 112.506 96.1931 112.212 96.4331 111.984C96.6731 111.756 96.9611 111.642 97.2971 111.642C97.6211 111.642 97.8971 111.756 98.1251 111.984C98.3651 112.212 98.4851 112.506 98.4851 112.866C98.4851 113.226 98.3651 113.526 98.1251 113.766C97.8971 113.994 97.6211 114.108 97.2971 114.108ZM101.375 114.108C101.039 114.108 100.751 113.994 100.511 113.766C100.271 113.526 100.151 113.226 100.151 112.866C100.151 112.506 100.271 112.212 100.511 111.984C100.751 111.756 101.039 111.642 101.375 111.642C101.699 111.642 101.975 111.756 102.203 111.984C102.443 112.212 102.563 112.506 102.563 112.866C102.563 113.226 102.443 113.526 102.203 113.766C101.975 113.994 101.699 114.108 101.375 114.108ZM105.453 114.108C105.117 114.108 104.829 113.994 104.589 113.766C104.349 113.526 104.229 113.226 104.229 112.866C104.229 112.506 104.349 112.212 104.589 111.984C104.829 111.756 105.117 111.642 105.453 111.642C105.777 111.642 106.053 111.756 106.281 111.984C106.521 112.212 106.641 112.506 106.641 112.866C106.641 113.226 106.521 113.526 106.281 113.766C106.053 113.994 105.777 114.108 105.453 114.108Z" fill="#FFCA3A"/>
<path d="M109.065 32.2968C108.814 33.096 108.23 33.6322 107.313 33.9056C107.313 34.3846 107.348 35.0119 107.419 35.7877C107.487 36.5635 107.572 37.4141 107.676 38.3394C107.779 39.2624 107.894 40.2204 108.02 41.2135C108.145 42.2066 108.264 43.154 108.379 44.0559C108.494 44.9556 108.591 45.771 108.671 46.5024C108.751 47.2314 108.79 47.8017 108.79 48.213V49.3451C108.79 50.3708 108.774 51.4315 108.741 52.5274C108.706 53.621 108.631 54.773 108.516 55.9834C108.103 58.2663 107.68 59.9954 107.246 61.1707C106.81 62.3437 106.364 62.9302 105.907 62.9302C105.839 62.9302 105.793 62.8964 105.769 62.8286C105.908 61.9851 105.977 60.9242 105.977 59.646C105.977 55.4027 105.776 51.1979 105.375 47.0317C104.975 42.8678 104.395 38.6747 103.638 34.4524C103.547 34.0201 103.501 33.45 103.501 32.742C103.501 31.9429 103.547 31.1274 103.638 30.2956C103.732 29.4637 103.847 28.7101 103.983 28.0348C104.121 27.3618 104.282 26.8091 104.465 26.3769C104.647 25.9422 104.83 25.725 105.013 25.725C105.402 25.725 105.769 26.4669 106.114 27.9507C107.028 29.9369 108.012 31.3855 109.065 32.2968ZM89.0357 55.6749C89.997 55.516 90.902 55.2591 91.7508 54.9039C92.5972 54.5511 93.3404 54.1293 93.9805 53.6386C94.6229 53.1479 95.127 52.5895 95.4928 51.9633C95.8586 51.3347 96.0415 50.6558 96.0415 49.9267C96.0415 48.9897 95.9219 47.8425 95.6827 46.4849C95.4412 45.1273 95.1259 43.5933 94.7367 41.8829C94.0262 38.6186 93.671 35.9139 93.671 33.7689C93.671 33.5188 93.7003 33.0855 93.7589 32.4686C93.8152 31.8517 93.9008 31.2244 94.0157 30.5865C94.1306 29.9486 94.2736 29.3842 94.4447 28.8935C94.6159 28.4028 94.8046 28.1574 95.0109 28.1574C95.0578 28.1574 95.2185 28.3735 95.4928 28.8058C95.7671 29.2404 96.0649 29.7545 96.3861 30.348C96.7073 30.9415 96.9934 31.5397 97.2443 32.1426C97.4975 32.7478 97.6241 33.2221 97.6241 33.5656C97.6241 33.7479 97.5725 34.0155 97.4693 34.3683C97.3662 34.7211 97.2513 35.0868 97.1247 35.4653C96.9981 35.8415 96.8832 36.1839 96.78 36.4924C96.6768 36.7985 96.6252 36.9864 96.6252 37.0565C96.7401 37.65 96.8832 38.4713 97.0543 39.5205C97.2278 40.5696 97.44 41.8478 97.6909 43.3549C98.2396 47.8483 98.5139 50.13 98.5139 50.2001C98.5139 51.2493 98.4342 52.219 98.2747 53.1093C98.1153 53.9996 97.8984 54.8092 97.6241 55.5382C97.3474 56.2696 97.0379 56.9204 96.6956 57.4905C96.3509 58.0607 95.9957 58.5281 95.63 58.8926C95.0344 59.5095 94.4283 60.034 93.8117 60.4662C93.1927 60.9008 92.5913 61.2665 92.0075 61.5632C91.4237 61.86 90.8738 62.0878 90.358 62.2467C89.8422 62.408 89.4014 62.5108 89.0357 62.5552C88.5315 62.3052 88.1306 61.8601 87.8328 61.2199C87.535 60.582 87.3862 59.8974 87.3862 59.166C87.3862 58.5514 87.5128 57.9297 87.766 57.3012C88.0169 56.6726 88.4401 56.1306 89.0357 55.6749ZM80.2854 60.7747L79.7684 60.5364C77.8458 59.4872 76.7016 58.5175 76.3358 57.6272C75.0533 58.5852 73.6278 59.4463 72.0592 60.2104C70.4907 60.9745 68.8822 61.6311 67.2339 62.1802C67.0956 62.2246 66.8319 62.2865 66.4426 62.3659C66.0534 62.4477 65.3664 62.5108 64.3817 62.5552C64.2457 62.5319 64.1027 62.3951 63.9526 62.1451C63.8049 61.8928 63.6736 61.5844 63.5587 61.2199C63.4438 60.8554 63.3465 60.4511 63.2668 60.0071C63.1871 59.5608 63.1472 59.1099 63.1472 58.6543C63.1472 58.014 63.2387 57.4205 63.4215 56.8738C63.6044 56.327 63.9244 55.9273 64.3817 55.6749C69.9244 55.3338 73.4848 54.0452 75.0627 51.8091C76.2538 50.1197 76.9068 49.2749 77.0217 49.2749C77.16 49.595 77.2632 50.1547 77.3312 50.9538C77.6735 51.5683 78.126 52.121 78.6887 52.6117C79.2491 53.1024 79.9759 53.5416 80.8692 53.9295C81.7625 54.3174 82.861 54.6539 84.1646 54.939C85.4706 55.2241 87.0392 55.4693 88.8704 55.6749C89.1916 55.8128 89.4495 56.224 89.6441 56.9086C89.8387 57.5933 89.936 58.3352 89.936 59.1343C89.936 59.8634 89.8504 60.5528 89.6793 61.2024C89.5081 61.8543 89.2385 62.3052 88.8704 62.5552C87.8856 62.5552 86.65 62.4361 85.1635 62.1978C83.6746 61.9571 82.0486 61.4827 80.2854 60.7747ZM76.6453 40.9927L71.595 35.9244L76.6453 30.8948L81.7274 35.9244L76.6453 40.9927ZM79.9548 15.445C79.9548 15.3983 79.949 15.369 79.9372 15.3573C79.9255 15.3456 79.9196 15.3293 79.9196 15.3083V15.2381C79.8985 15.2381 79.8763 15.563 79.8528 16.2126C79.8294 16.8645 79.7954 17.9206 79.7509 19.381C79.6805 21.5705 78.7063 22.6652 76.8282 22.6652C75.548 22.6652 74.575 21.9921 73.9091 20.6462L73.4309 21.3999C72.8119 22.3813 71.9408 22.8719 70.8177 22.8719C70.3605 22.8719 69.9889 22.7293 69.7028 22.4442C69.4168 22.1592 69.1882 21.7935 69.0171 21.3472C68.8459 20.9033 68.7252 20.4126 68.6548 19.8752C68.5868 19.3401 68.5528 18.833 68.5528 18.354C68.5528 17.7838 68.5868 17.2301 68.6548 16.6926C68.7252 16.1575 68.8166 15.6728 68.9291 15.2381C69.044 14.8059 69.1706 14.4413 69.3089 14.1445C69.4449 13.8478 69.5704 13.6538 69.6853 13.5627H70.0299C70.1214 13.6748 70.1671 13.925 70.1671 14.3129C70.1671 14.4741 70.1495 14.7089 70.1143 15.0174C70.0815 15.3235 70.0475 15.6425 70.0124 15.9743C69.9772 16.3061 69.9491 16.6203 69.928 16.917C69.9045 17.2138 69.8928 17.4416 69.8928 17.6005C69.8928 18.9698 70.3617 19.6544 71.2996 19.6544C72.1014 19.6544 72.7028 19.5119 73.1038 19.2268C73.5047 18.9417 73.7051 18.5702 73.7051 18.1122C73.7051 18.0445 73.6876 17.9195 73.6524 17.7372C73.6172 17.555 73.5774 17.3434 73.5328 17.1027C73.4859 16.8644 73.4461 16.625 73.4133 16.3844C73.3781 16.146 73.3605 15.9355 73.3605 15.7533C73.3605 15.3654 73.4004 14.9939 73.4801 14.6387C73.5598 14.2859 73.6512 13.9728 73.7544 13.6994C73.8576 13.4236 73.9548 13.2006 74.0463 13.03C74.1377 12.8594 74.2069 12.7741 74.2538 12.7741C74.3218 12.7741 74.3957 12.8373 74.4754 12.9635C74.5575 13.0873 74.6208 13.3093 74.6653 13.6294C74.7122 13.9495 74.7521 14.377 74.7849 14.9121C74.8201 15.4495 74.8376 16.14 74.8376 16.9836C74.8376 17.6238 75.0662 18.1941 75.5234 18.6941C75.983 19.1965 76.7274 19.4476 77.7567 19.4476C78.3288 19.4476 78.6606 19.2991 78.752 19.0024C78.7075 18.8201 78.6852 18.6834 78.6852 18.5923V18.4207C78.6852 18.0328 78.6219 17.6507 78.4953 17.2745C78.3686 16.8983 78.2374 16.5617 78.1014 16.265C77.9396 15.9238 77.7567 15.6051 77.5527 15.3083C77.5527 15.2172 77.5867 15.057 77.6547 14.828C77.6993 14.6458 77.7672 14.383 77.8587 14.0395C77.9501 13.6984 78.065 13.2309 78.2034 12.6374C78.2268 12.4785 78.364 12.2728 78.6149 12.0205H78.8223C78.9138 12.2728 79.0169 12.5697 79.1318 12.9108C79.2467 13.2076 79.3663 13.5732 79.4906 14.0078C79.6172 14.4401 79.7719 14.9193 79.9548 15.445ZM80.1131 0.958984C79.9982 1.18798 79.7637 1.70075 79.4097 2.49754C79.0533 3.29668 78.5785 4.39252 77.9853 5.78516C74.7568 7.90684 70.2574 10.4399 64.4872 13.384C64.5998 13.0195 64.8283 12.4377 65.173 11.6386C65.5153 10.8395 65.9503 9.80071 66.4778 8.52256C68.5622 7.35891 70.738 6.15565 73.0053 4.91256C75.2702 3.66946 77.6395 2.35163 80.1131 0.958984ZM62.2539 62.5552C58.7041 62.5108 55.996 60.8961 54.1297 57.7113C52.2634 54.5288 51.1133 49.7656 50.6796 43.4216C50.6327 42.6693 50.5635 41.3349 50.4721 39.4189C50.3806 37.5005 50.2669 34.9781 50.1309 31.8517C50.084 30.688 50.0383 29.1143 49.9938 27.1305C49.9469 25.1444 49.9234 22.7025 49.9234 19.805C49.9234 19.576 49.9574 19.2853 50.0254 18.9324C50.0957 18.5773 50.1872 18.2407 50.2997 17.9229C50.4146 17.6028 50.553 17.3224 50.7148 17.0818C50.8742 16.8434 51.057 16.7243 51.2634 16.7243C51.6291 16.7243 51.8812 17.7511 52.0195 19.805L53.152 37.2599C53.3583 40.4775 53.6268 43.1073 53.9574 45.1495C54.2903 47.1918 54.6912 48.8297 55.1602 50.0634C55.6291 51.2948 56.1672 52.2355 56.7745 52.8851C57.3817 53.537 58.0523 54.0908 58.7862 54.5465C59.3583 54.911 59.9937 55.1959 60.6924 55.4015C61.3887 55.6072 62.1379 55.71 62.9397 55.71C63.0312 55.71 63.1168 55.7041 63.1965 55.6925C63.2785 55.6808 63.3652 55.6749 63.4567 55.6749C64.2562 55.7894 64.8283 56.126 65.173 56.6844C65.5153 57.2452 65.6865 57.8784 65.6865 58.5841C65.6865 59.0421 65.6243 59.5106 65.5001 59.9896C65.3735 60.4686 65.1953 60.902 64.9655 61.2898C64.738 61.6777 64.4637 61.9909 64.1425 62.2292C63.8213 62.4699 63.4778 62.5903 63.1121 62.5903C62.9972 62.5903 62.8717 62.5903 62.7358 62.5903C62.5974 62.5903 62.4368 62.5786 62.2539 62.5552ZM43.825 47.5645V47.7678L43.41 53.246C42.9082 56.1434 41.5917 57.5921 39.4604 57.5921C37.5144 57.5921 36.0384 56.508 35.0326 54.3396C34.4136 55.2532 33.886 55.9776 33.4499 56.5127C33.0161 57.0501 32.6223 57.4613 32.2682 57.7464C31.9118 58.0314 31.5625 58.2137 31.2202 58.2932C30.8755 58.3726 30.4968 58.4123 30.0842 58.4123C29.695 58.4123 29.3292 58.3785 28.9869 58.3107C28.6422 58.2429 28.4136 58.2091 28.3011 58.2091C28.0948 58.2091 27.9916 58.312 27.9916 58.5176V58.8258C27.9916 61.2443 27.5672 63.5599 26.7184 65.7727C25.872 67.9855 24.7396 69.9426 23.3211 71.6437C21.9002 73.3424 20.2566 74.6941 18.3903 75.6989C16.5239 76.7036 14.572 77.206 12.5345 77.206C10.7713 77.206 9.12304 76.8241 7.58964 76.06C6.05624 75.2935 4.72801 74.2489 3.60493 72.9264C2.48419 71.6038 1.6026 70.0523 0.960169 68.2718C0.32008 66.4912 0 64.5858 0 62.5552C0 61.3448 0.113716 60.2266 0.341147 59.2009C0.570922 58.1751 0.892146 57.1717 1.3048 56.1903C1.71746 55.2089 2.22159 54.2274 2.81713 53.246C3.41032 52.2646 4.0856 51.2037 4.84292 50.0634C4.93436 50.269 4.98003 50.5307 4.98003 50.8485C4.98003 51.2598 4.49942 52.6069 3.53811 54.8898C2.57446 57.147 2.0926 58.8353 2.0926 59.9545C2.0926 62.0318 2.75731 64.0401 4.08673 65.9795C6.03279 68.9214 8.98586 70.3924 12.946 70.3924C16.7701 70.3924 20.4231 68.7615 23.9049 65.4995C25.5063 63.9924 26.307 62.4057 26.307 60.7396C26.307 60.4218 26.239 60.0234 26.103 59.5444C25.9647 59.0654 25.7923 58.5572 25.586 58.0198C25.3797 57.4847 25.1569 56.9543 24.9178 56.4286C24.6763 55.9028 24.4524 55.4296 24.246 55.009C24.0397 54.586 23.8744 54.2497 23.7501 53.9997C23.6235 53.7473 23.5602 53.6327 23.5602 53.6561C23.5133 53.4738 23.4898 53.1655 23.4898 52.7309C23.4898 52.2752 23.5133 51.6652 23.5602 50.9012C23.6047 50.1371 23.6739 49.2072 23.7677 48.1113C23.7888 47.8613 23.8803 47.5879 24.0421 47.2911C24.2015 47.4734 24.4184 47.7468 24.6927 48.1113C24.967 48.4759 25.3222 48.9431 25.7583 49.5132C26.879 50.9736 28.2073 51.7038 29.743 51.7038C31.4827 51.7038 33.1311 50.6429 34.6879 48.5212C35.7172 47.0842 36.2788 46.3657 36.3725 46.3657C36.6469 48.1462 36.8754 49.241 37.0583 49.6499C37.4475 50.4257 38.294 50.8137 39.5976 50.8137C40.5612 50.8137 41.2142 50.6197 41.5566 50.2318C41.5566 50.1407 41.58 49.9128 41.6269 49.5483C41.6715 49.1838 41.7277 48.7619 41.7957 48.2829C41.866 47.8039 41.9411 47.3015 42.0208 46.7758C42.1005 46.2524 42.1861 45.7676 42.2775 45.3213C42.369 44.8774 42.4546 44.5128 42.5343 44.2277C42.6163 43.9427 42.703 43.8001 42.7945 43.8001C42.9094 43.8001 43.029 43.9531 43.1532 44.2592C43.2799 44.5676 43.3948 44.9276 43.4979 45.3389C43.6011 45.7501 43.6808 46.1659 43.7371 46.5865C43.7957 47.0094 43.825 47.3356 43.825 47.5645ZM27.2882 76.5751C27.1756 76.8041 26.9412 77.3182 26.5848 78.1173C26.2308 78.9141 25.756 80.0089 25.1604 81.4015C21.9319 83.5232 17.4325 86.056 11.6623 89.0002C11.7772 88.6356 12.0058 88.0539 12.3481 87.2547C12.6928 86.4556 13.1289 85.417 13.6564 84.1389C15.7385 82.9752 17.9131 81.7718 20.1804 80.5287C22.4477 79.2856 24.8169 77.9677 27.2882 76.5751ZM161.946 52.3907L166.374 46.5726C167.473 45.3856 168.539 44.4835 169.571 43.8666C170.6 43.2497 171.619 42.9414 172.627 42.9414C173.45 42.9414 174.189 43.1354 174.843 43.5233C175.494 43.9111 176.049 44.4415 176.506 45.1144C176.966 45.7897 177.315 46.5948 177.554 47.5295C177.796 48.4641 177.917 49.4792 177.917 50.5751C177.917 50.6663 177.917 50.7691 177.917 50.8836C177.917 50.9981 177.911 51.1745 177.899 51.4129C177.887 51.6535 177.87 51.9853 177.846 52.4083C177.823 52.8289 177.777 53.3816 177.709 54.0662C177.709 54.8887 177.079 56.5663 175.82 59.0992C175.363 59.9895 174.516 60.4348 173.278 60.4348C172.499 60.4348 168.905 59.0304 162.495 56.2217C162.241 56.6797 161.634 57.3878 160.673 58.3458C157.468 61.061 154.892 62.4641 152.946 62.5552C152.808 62.5108 152.671 62.3683 152.535 62.1276C152.396 61.8869 152.27 61.5844 152.155 61.2199C152.042 60.8554 151.951 60.4511 151.88 60.0071C151.812 59.5608 151.778 59.1099 151.778 58.6543C151.778 58.0608 151.858 57.4953 152.018 56.9578C152.179 56.4227 152.465 55.995 152.876 55.6749L153.6 55.5733C154.125 55.4354 154.64 55.3094 155.144 55.1949C155.648 55.0827 156.214 54.9237 156.843 54.718C157.474 54.5124 158.196 54.232 159.009 53.8769C159.821 53.524 160.799 53.0286 161.946 52.3907ZM174.892 53.1444C174.892 52.6864 174.721 52.2413 174.378 51.8091C174.034 51.3744 173.615 50.9923 173.123 50.6628C172.631 50.331 172.098 50.0683 171.526 49.8743C170.954 49.6804 170.439 49.5834 169.982 49.5834C169.776 49.5834 169.546 49.6055 169.293 49.6499C169.042 49.6966 168.808 49.7656 168.589 49.8568C168.371 49.9479 168.194 50.0681 168.058 50.2177C167.92 50.3649 167.851 50.5296 167.851 50.7118C167.851 50.8263 167.92 50.9175 168.058 50.9852C169.226 51.7844 170.382 52.4469 171.526 52.9726C172.67 53.496 173.701 53.7577 174.618 53.7577C174.8 53.7577 174.892 53.5533 174.892 53.1444ZM172.089 69.5652C171.976 69.7942 171.742 70.3082 171.385 71.1074C171.031 71.9042 170.557 72.9989 169.961 74.3916C166.733 76.5132 162.233 79.046 156.463 81.9902C156.578 81.6257 156.807 81.0439 157.149 80.2448C157.493 79.4457 157.928 78.4071 158.454 77.129C160.538 75.9653 162.714 74.7618 164.981 73.5187C167.248 72.2756 169.618 70.9578 172.089 69.5652ZM149.855 60.7747C149.672 63.6955 149.116 66.2635 148.188 68.4786C147.261 70.6914 146.088 72.5396 144.667 74.0234C143.249 75.5048 141.646 76.623 139.859 77.3778C138.075 78.1301 136.232 78.5064 134.331 78.5064C128.767 78.5064 124.909 77.1372 122.756 74.3986C120.855 72.0246 119.904 69.4004 119.904 66.5263C119.904 65.6127 119.956 64.7109 120.059 63.8206C120.162 62.9327 120.3 62.0831 120.474 61.2723C120.645 60.4615 120.84 59.6974 121.058 58.9801C121.273 58.2604 121.484 57.6038 121.691 57.0103C122.584 54.4329 123.867 52.5157 125.538 51.2586H125.609C125.721 51.2586 125.823 51.3042 125.915 51.3953C123.603 56.3934 122.447 59.4522 122.447 60.5715C122.447 61.5739 122.619 62.532 122.964 63.4456C124.84 68.9227 128.732 71.6612 134.64 71.6612C137.043 71.6612 139.402 71.1471 141.716 70.119C142.082 69.9601 142.637 69.6529 143.38 69.1972C144.125 68.7392 144.87 68.1913 145.613 67.5534C146.356 66.9132 147.009 66.2227 147.572 65.4819C148.132 64.7412 148.413 63.9935 148.413 63.2387C148.413 62.3718 147.966 61.0948 147.073 59.4077C146.775 58.8586 146.529 58.396 146.334 58.0198C146.139 57.6436 145.985 57.307 145.87 57.0103C145.755 56.7135 145.675 56.4286 145.631 56.1552C145.584 55.8818 145.55 55.557 145.529 55.1808C145.505 54.8022 145.499 54.3454 145.511 53.8103C145.523 53.2729 145.529 52.6059 145.529 51.8091C145.529 50.8721 145.597 50.1978 145.733 49.7866L146.077 49.6499C146.122 49.6499 146.287 49.8333 146.573 50.2001C146.862 50.5646 147.2 50.9923 147.59 51.483C147.979 51.9737 148.39 52.4809 148.824 53.0043C149.26 53.53 149.649 53.9412 149.992 54.238C150.794 54.9226 152.11 55.4015 153.941 55.6749H154.079C154.308 55.6749 154.532 55.7778 154.75 55.9834C154.966 56.189 155.155 56.4518 155.316 56.7719C155.476 57.0897 155.601 57.4601 155.693 57.8831C155.784 58.306 155.83 58.7337 155.83 59.166C155.83 59.8974 155.687 60.582 155.401 61.2199C155.115 61.8601 154.628 62.3052 153.941 62.5552C153.393 62.4875 152.935 62.408 152.57 62.3169C152.202 62.2258 151.875 62.1112 151.588 61.9733C151.302 61.8355 151.028 61.6697 150.766 61.4757C150.503 61.2818 150.199 61.0481 149.855 60.7747ZM136.392 53.1758L131.341 48.1113L136.392 43.0781L141.474 48.1113L136.392 53.1758ZM144.023 28.9987C143.909 29.2277 143.674 29.7405 143.32 30.5373C142.964 31.3364 142.488 32.4323 141.892 33.8249C138.664 35.9466 134.165 38.4796 128.398 41.4238C128.51 41.0593 128.739 40.4775 129.083 39.6784C129.426 38.8792 129.861 37.8405 130.388 36.5623C132.473 35.3987 134.647 34.1954 136.912 32.9523C139.179 31.7092 141.55 30.3914 144.023 28.9987Z" fill="#F5F9FA"/>
<path d="M80.2857 60.7183L79.7687 60.48C77.846 59.4309 76.7019 58.4611 76.3361 57.5709C75.0536 58.5289 73.6281 59.3899 72.0595 60.154C70.4909 60.9181 68.8825 61.5747 67.2342 62.1238C67.0959 62.1682 66.8321 62.2301 66.4429 62.3095C66.0537 62.3913 65.3667 62.4545 64.3819 62.4989C64.2459 62.4755 64.1029 62.3388 63.9529 62.0888C63.8052 61.8364 63.6738 61.528 63.559 61.1635C63.4441 60.799 63.3468 60.3947 63.2671 59.9508C63.1874 59.5045 63.1475 59.0536 63.1475 58.5979C63.1475 57.9577 63.2389 57.3642 63.4218 56.8174C63.6047 56.2706 63.9247 55.8709 64.3819 55.6186C69.9247 55.2774 73.485 53.9889 75.063 51.7527C76.254 50.0633 76.9071 49.2185 77.0219 49.2185C77.1603 49.5386 77.2634 50.0983 77.3314 50.8974C77.6737 51.512 78.1263 52.0647 78.689 52.5554C79.2494 53.046 79.9762 53.4853 80.8695 53.8731C81.7628 54.261 82.8612 54.5976 84.1649 54.8827C85.4708 55.1677 87.0395 55.4129 88.8706 55.6186C89.1918 55.7564 89.4498 56.1676 89.6444 56.8523C89.839 57.5369 89.9362 58.2788 89.9362 59.078C89.9362 59.807 89.8507 60.4964 89.6795 61.146C89.5084 61.7979 89.2387 62.2488 88.8706 62.4989C87.8859 62.4989 86.6502 62.3797 85.1637 62.1414C83.6749 61.9007 82.0488 61.4264 80.2857 60.7183ZM76.6456 40.9364L71.5953 35.868L76.6456 30.8384L81.7276 35.868L76.6456 40.9364ZM79.9551 15.3886C79.9551 15.3419 79.9492 15.3126 79.9375 15.3009C79.9258 15.2893 79.9199 15.273 79.9199 15.2519V15.1818C79.8988 15.1818 79.8765 15.5066 79.8531 16.1562C79.8296 16.8081 79.7957 17.8643 79.7511 19.3247C79.6808 21.5141 78.7065 22.6089 76.8285 22.6089C75.5483 22.6089 74.5753 21.9357 73.9094 20.5898L73.4311 21.3435C72.8121 22.3249 71.9411 22.8155 70.818 22.8155C70.3608 22.8155 69.9891 22.673 69.7031 22.3879C69.417 22.1028 69.1885 21.7372 69.0173 21.2909C68.8461 20.8469 68.7254 20.3563 68.6551 19.8188C68.5871 19.2838 68.5531 18.7766 68.5531 18.2976C68.5531 17.7275 68.5871 17.1737 68.6551 16.6363C68.7254 16.1012 68.8168 15.6164 68.9293 15.1818C69.0442 14.7495 69.1709 14.3849 69.3092 14.0882C69.4452 13.7914 69.5707 13.5974 69.6855 13.5063H70.0302C70.1216 13.6185 70.1673 13.8687 70.1673 14.2565C70.1673 14.4178 70.1498 14.6526 70.1146 14.961C70.0818 15.2671 70.0478 15.5861 70.0126 15.9179C69.9775 16.2497 69.9493 16.5639 69.9282 16.8607C69.9048 17.1574 69.893 17.3853 69.893 17.5442C69.893 18.9134 70.362 19.5981 71.2998 19.5981C72.1017 19.5981 72.7031 19.4555 73.104 19.1704C73.505 18.8854 73.7054 18.5139 73.7054 18.0559C73.7054 17.9881 73.6878 17.8631 73.6527 17.6809C73.6175 17.4986 73.5776 17.287 73.5331 17.0464C73.4862 16.808 73.4463 16.5687 73.4135 16.328C73.3784 16.0897 73.3608 15.8792 73.3608 15.6969C73.3608 15.309 73.4006 14.9375 73.4803 14.5824C73.5601 14.2295 73.6515 13.9164 73.7547 13.643C73.8578 13.3673 73.9551 13.1442 74.0465 12.9736C74.138 12.8031 74.2072 12.7178 74.2541 12.7178C74.3221 12.7178 74.3959 12.7809 74.4757 12.9071C74.5577 13.0309 74.621 13.2529 74.6656 13.5731C74.7125 13.8932 74.7523 14.3207 74.7851 14.8558C74.8203 15.3932 74.8379 16.0837 74.8379 16.9272C74.8379 17.5674 75.0665 18.1377 75.5237 18.6378C75.9832 19.1401 76.7277 19.3912 77.757 19.3912C78.3291 19.3912 78.6609 19.2428 78.7523 18.946C78.7078 18.7638 78.6854 18.6271 78.6854 18.5359V18.3644C78.6854 17.9765 78.6221 17.5943 78.4955 17.2181C78.3689 16.8419 78.2376 16.5054 78.1016 16.2086C77.9398 15.8675 77.757 15.5487 77.553 15.2519C77.553 15.1608 77.587 15.0007 77.655 14.7717C77.6995 14.5894 77.7675 14.3266 77.8589 13.9831C77.9504 13.642 78.0653 13.1746 78.2036 12.5811C78.2271 12.4222 78.3643 12.2165 78.6151 11.9641H78.8226C78.914 12.2165 79.0172 12.5133 79.1321 12.8545C79.247 13.1512 79.3666 13.5169 79.4908 13.9515C79.6174 14.3838 79.7722 14.8629 79.9551 15.3886Z" fill="#FFCA3A"/>
</svg>
