<svg width="112" height="126" viewBox="0 0 112 126" fill="none" xmlns="http://www.w3.org/2000/svg">
<path d="M27.371 110.197C28.295 110.197 29.009 110.431 29.513 110.899C30.029 111.367 30.287 112.009 30.287 112.825C30.287 113.401 30.137 113.917 29.837 114.373C29.549 114.829 29.147 115.225 28.631 115.561C28.115 115.897 27.521 116.191 26.849 116.443L26.291 115.147C27.095 114.883 27.719 114.577 28.163 114.229C28.619 113.869 28.847 113.407 28.847 112.843C28.847 112.399 28.721 112.063 28.469 111.835C28.217 111.595 27.851 111.475 27.371 111.475C26.939 111.475 26.531 111.547 26.147 111.691C25.763 111.835 25.421 112.021 25.121 112.249C24.821 112.465 24.587 112.699 24.419 112.951C24.251 113.191 24.167 113.413 24.167 113.617C24.167 113.809 24.227 113.977 24.347 114.121C24.467 114.253 24.737 114.349 25.157 114.409L24.779 115.741C24.095 115.609 23.579 115.375 23.231 115.039C22.895 114.703 22.727 114.277 22.727 113.761C22.727 113.353 22.847 112.945 23.087 112.537C23.339 112.117 23.681 111.733 24.113 111.385C24.545 111.025 25.037 110.737 25.589 110.521C26.153 110.305 26.747 110.197 27.371 110.197ZM30.467 117.469C30.467 118.465 30.095 119.263 29.351 119.863C28.619 120.463 27.623 120.763 26.363 120.763C25.523 120.763 24.725 120.613 23.969 120.313C23.213 120.013 22.511 119.533 21.863 118.873C21.227 118.213 20.639 117.349 20.099 116.281C19.571 115.213 19.109 113.917 18.713 112.393L20.063 111.997C20.543 113.713 21.077 115.117 21.665 116.209C22.265 117.301 22.949 118.105 23.717 118.621C24.497 119.137 25.391 119.395 26.399 119.395C27.155 119.395 27.779 119.239 28.271 118.927C28.763 118.603 29.009 118.099 29.009 117.415C29.009 116.947 28.853 116.551 28.541 116.227C28.241 115.903 27.851 115.639 27.371 115.435L28.811 114.805C29.339 115.093 29.747 115.465 30.035 115.921C30.323 116.377 30.467 116.893 30.467 117.469ZM42.946 110.323V111.601H41.056V121.519H39.67C39.166 120.847 38.608 120.259 37.996 119.755C37.384 119.239 36.676 118.807 35.872 118.459C35.068 118.111 34.114 117.859 33.01 117.703L32.362 116.065C32.734 115.813 33.124 115.573 33.532 115.345C33.94 115.117 34.354 114.895 34.774 114.679C35.206 114.463 35.626 114.259 36.034 114.067C35.578 113.719 35.05 113.413 34.45 113.149C33.862 112.873 33.166 112.651 32.362 112.483L32.92 111.259L32.956 111.601H31.318V110.323H42.946ZM39.67 111.601H33.928L33.55 111.439C34.054 111.559 34.558 111.751 35.062 112.015C35.578 112.279 36.052 112.567 36.484 112.879C36.928 113.179 37.282 113.467 37.546 113.743L37.636 114.751C37.204 114.943 36.748 115.153 36.268 115.381C35.8 115.609 35.344 115.837 34.9 116.065C34.468 116.293 34.084 116.521 33.748 116.749L33.532 116.479C34.564 116.623 35.464 116.863 36.232 117.199C37.012 117.535 37.702 117.943 38.302 118.423C38.902 118.903 39.454 119.437 39.958 120.025L39.724 120.097C39.712 119.845 39.7 119.575 39.688 119.287C39.676 118.987 39.67 118.705 39.67 118.441V111.601ZM34.738 121.627C34.438 121.627 34.18 121.531 33.964 121.339C33.76 121.147 33.658 120.895 33.658 120.583C33.658 120.271 33.76 120.013 33.964 119.809C34.18 119.605 34.438 119.503 34.738 119.503C35.038 119.503 35.29 119.605 35.494 119.809C35.71 120.013 35.818 120.271 35.818 120.583C35.818 120.895 35.71 121.147 35.494 121.339C35.29 121.531 35.038 121.627 34.738 121.627ZM47.7336 110.323V111.601H45.8436V121.519H44.4576V113.077C44.3136 112.669 44.0976 112.321 43.8096 112.033C43.5336 111.745 43.1736 111.601 42.7296 111.601H42.5856V110.323H42.8556C43.1436 110.323 43.4436 110.419 43.7556 110.611C44.0676 110.791 44.3196 111.073 44.5116 111.457C44.4996 111.397 44.4876 111.259 44.4756 111.043C44.4636 110.827 44.4576 110.641 44.4576 110.485V109.135H45.4296L45.8256 110.323H47.7336ZM52.5149 110.323V111.601H50.6249V121.519H49.2389V111.601H47.3669V110.323H49.0229C48.8309 110.095 48.6329 109.855 48.4289 109.603C48.2369 109.351 48.0629 109.099 47.9069 108.847C48.3149 108.139 48.7529 107.497 49.2209 106.921C49.6889 106.333 50.2409 105.871 50.8769 105.535C51.5129 105.187 52.2809 105.013 53.1809 105.013C53.8169 105.013 54.4229 105.091 54.9989 105.247C55.5869 105.403 56.1629 105.631 56.7269 105.931C57.2909 106.219 57.8609 106.573 58.4369 106.993C59.0129 107.401 59.6129 107.857 60.2369 108.361L59.4809 109.333C58.6529 108.661 57.9029 108.103 57.2309 107.659C56.5709 107.215 55.9349 106.885 55.3229 106.669C54.7229 106.441 54.0809 106.327 53.3969 106.327C52.7369 106.327 52.1609 106.441 51.6689 106.669C51.1889 106.897 50.7689 107.215 50.4089 107.623C50.0609 108.031 49.7429 108.505 49.4549 109.045C49.5509 109.225 49.6829 109.423 49.8509 109.639C50.0189 109.855 50.2109 110.083 50.4269 110.323H52.5149ZM63.2361 110.323V111.601H61.3461V121.519H59.9601C59.6001 120.799 59.1021 120.139 58.4661 119.539C57.8421 118.927 57.1221 118.411 56.3061 117.991C55.4901 117.571 54.6201 117.289 53.6961 117.145L52.9941 115.417C54.1461 114.721 55.3341 114.091 56.5581 113.527C57.7941 112.963 59.0661 112.483 60.3741 112.087L59.9601 112.843V111.601H52.1481V110.323H63.2361ZM59.9601 112.987L60.3381 113.491C59.4261 113.791 58.4661 114.163 57.4581 114.607C56.4501 115.039 55.5201 115.519 54.6681 116.047C55.3161 116.191 56.0061 116.437 56.7381 116.785C57.4701 117.133 58.1481 117.571 58.7721 118.099C59.3961 118.627 59.8761 119.239 60.2121 119.935H60.0501C60.0261 119.659 60.0021 119.383 59.9781 119.107C59.9661 118.831 59.9601 118.501 59.9601 118.117V112.987ZM87.1962 110.323V111.601H85.3062V121.519H83.9202V115.165L84.3342 116.299C83.9622 115.807 83.6382 115.429 83.3622 115.165C83.0982 114.901 82.8402 114.769 82.5882 114.769C82.4202 114.769 82.2642 114.817 82.1202 114.913C81.9762 115.009 81.8142 115.195 81.6342 115.471C81.4542 115.735 81.2142 116.143 80.9142 116.695C80.5902 117.283 80.2962 117.769 80.0322 118.153C79.7682 118.525 79.4862 118.801 79.1862 118.981C78.8982 119.149 78.5442 119.233 78.1242 119.233C77.8002 119.233 77.4882 119.167 77.1882 119.035C76.9002 118.903 76.6062 118.687 76.3062 118.387C76.0182 118.075 75.7062 117.655 75.3702 117.127L76.4682 116.461C76.7922 117.037 77.0622 117.415 77.2782 117.595C77.4942 117.775 77.7282 117.865 77.9802 117.865C78.1842 117.865 78.3762 117.805 78.5562 117.685C78.7482 117.553 78.9522 117.331 79.1682 117.019C79.3962 116.707 79.6542 116.281 79.9422 115.741L80.3562 115.147C80.6682 114.499 80.9682 114.055 81.2562 113.815C81.5442 113.563 81.8622 113.437 82.2102 113.437C82.6062 113.437 82.9602 113.551 83.2722 113.779C83.5962 113.995 83.9682 114.331 84.3882 114.787L84.0282 114.805C83.9802 114.529 83.9502 114.271 83.9382 114.031C83.9262 113.779 83.9202 113.527 83.9202 113.275V111.601H74.5602V110.323H87.1962ZM79.6182 116.641C79.4982 115.825 79.3722 115.177 79.2402 114.697C79.1202 114.217 78.9042 113.845 78.5922 113.581C78.2922 113.305 77.8842 113.101 77.3682 112.969C76.8522 112.825 76.2042 112.705 75.4242 112.609L75.6942 111.241L76.6662 111.601C77.3502 111.709 77.9202 111.847 78.3762 112.015C78.8322 112.183 79.1982 112.405 79.4742 112.681C79.7622 112.945 79.9782 113.275 80.1222 113.671C80.2662 114.067 80.3622 114.547 80.4102 115.111L79.6182 116.641ZM91.9778 110.323V111.601H90.0878V121.519H88.7018V113.077C88.5578 112.669 88.3418 112.321 88.0538 112.033C87.7778 111.745 87.4178 111.601 86.9738 111.601H86.8298V110.323H87.0998C87.3878 110.323 87.6878 110.419 87.9998 110.611C88.3118 110.791 88.5638 111.073 88.7558 111.457C88.7438 111.397 88.7318 111.259 88.7198 111.043C88.7078 110.827 88.7018 110.641 88.7018 110.485V109.135H89.6738L90.0698 110.323H91.9778Z" fill="#F5F9FA"/>
<path d="M65.7988 119.058C65.7988 118.292 66.0586 117.649 66.5781 117.13C67.0977 116.597 67.8018 116.33 68.6904 116.33C69.5928 116.33 70.2969 116.597 70.8027 117.13C71.3223 117.649 71.582 118.292 71.582 119.058C71.582 119.823 71.3223 120.466 70.8027 120.985C70.2969 121.505 69.5928 121.765 68.6904 121.765C67.8018 121.765 67.0977 121.505 66.5781 120.985C66.0586 120.466 65.7988 119.823 65.7988 119.058Z" fill="#FFCA3A"/>
<path d="M78.7285 19.8592C78.7285 19.6651 78.6952 19.482 78.6285 19.3099C77.8262 19.654 77.0772 19.9871 76.3816 20.3092C75.6882 20.6334 75.037 20.9566 74.428 21.2787C72.0855 22.2911 70.5121 22.7973 69.7075 22.7973C68.1451 22.7973 67.125 21.7848 66.6472 19.7599C66.7361 17.9511 68.354 17.0468 71.501 17.0468C72.4123 17.0468 73.2579 17.1549 74.038 17.3711C74.2113 17.413 74.3313 17.4339 74.398 17.4339C74.8092 17.4339 75.0481 17.1539 75.1147 16.5936C74.4636 15.8414 73.7035 15.2978 72.8345 14.9625C71.9655 14.6294 71.0109 14.4629 69.9708 14.4629C69.0574 14.4629 68.2218 14.5973 67.4639 14.8664C66.7038 15.1355 66.0471 15.5073 65.4937 15.9815C64.9403 16.4557 64.5058 17.0258 64.1902 17.692C63.8768 18.3603 63.7201 19.0926 63.7201 19.8889C63.7201 21.9579 64.4036 23.9078 65.7704 25.7386L60.4297 29.7454C60.0608 30.0034 59.7785 30.2615 59.583 30.5196C59.3874 30.7799 59.2307 31.082 59.1129 31.4261C58.9929 31.7702 58.8951 32.185 58.8195 32.6703C58.744 33.1556 58.6628 33.7533 58.5762 34.4636C60.203 33.4511 61.5921 32.5898 62.7433 31.8795C63.8923 31.167 64.8691 30.5638 65.6737 30.0697C66.476 29.5734 67.1372 29.1686 67.6572 28.8554C68.1795 28.5444 68.6085 28.2918 68.9441 28.0977C69.2797 27.9036 69.5564 27.7416 69.7742 27.6114C69.992 27.4835 70.2087 27.36 70.4243 27.2409C70.6421 27.1217 70.881 26.9927 71.141 26.8537C71.401 26.7126 71.7488 26.5128 72.1844 26.2548C75.4826 24.338 77.305 23.0995 77.6518 22.5392C78.3696 21.4187 78.7285 20.5254 78.7285 19.8592Z" fill="#FFCA3A"/>
<path d="M77.2089 42.0604L77.729 42.0935C77.9046 42.1134 78.0845 42.1234 78.269 42.1234C78.4535 42.1234 78.6324 42.1234 78.8058 42.1234C82.1684 42.1234 85.5543 41.294 88.9636 39.6353C88.9836 39.5934 88.9936 39.5073 88.9936 39.3772C88.9936 39.1831 88.9181 38.8279 88.7669 38.3117C88.6158 37.7956 88.4525 37.2409 88.2769 36.6475C88.1035 36.0564 87.9413 35.4697 87.7902 34.8874C87.639 34.3051 87.5634 33.8528 87.5634 33.5307C87.5634 33.1205 87.6601 32.5172 87.8534 31.7209C88.049 30.9224 88.4291 29.813 88.9936 28.3925L89.2536 28.4256C89.3203 28.6396 89.408 28.8977 89.5169 29.1999C89.6036 29.4579 89.717 29.7865 89.857 30.1857C89.9993 30.585 90.1571 31.0428 90.3304 31.559C90.7638 32.8295 90.9805 34.23 90.9805 35.7608C90.9805 36.6652 90.8993 37.6181 90.7371 38.6195C90.5748 39.6209 90.3082 40.6709 89.937 41.7694C88.4413 46.3133 84.6542 48.5852 78.5757 48.5852C78.3379 48.5852 78.1101 48.5852 77.8923 48.5852C77.6767 48.5852 77.4489 48.5752 77.2089 48.5553C76.7533 48.1892 76.4121 47.6775 76.1854 47.0202C75.9565 46.3628 75.8421 45.6889 75.8421 44.9985C75.8421 44.3544 75.9509 43.7567 76.1687 43.2052C76.3843 42.656 76.7311 42.2744 77.2089 42.0604ZM83.4263 60.7674L78.6424 55.9866L83.4263 51.2353L88.2469 55.9866L83.4263 60.7674ZM92.0206 61.7899C91.9139 62.0039 91.6917 62.4881 91.3539 63.2425C91.0183 63.9968 90.5682 65.0313 90.0036 66.3459C86.9433 68.3488 82.6784 70.7397 77.2089 73.519C77.3178 73.1727 77.5345 72.6235 77.859 71.8713C78.1857 71.1169 78.599 70.1366 79.0991 68.93C81.0726 67.8315 83.134 66.6955 85.2832 65.522C87.4323 64.3463 89.6781 63.1023 92.0206 61.7899ZM68.9146 46.8745L68.4245 46.6496C66.6021 45.657 65.5176 44.7405 65.1709 43.9001C63.9552 44.8067 62.6039 45.6205 61.1171 46.3418C59.6302 47.0631 58.1056 47.6819 56.5432 48.1981C56.4121 48.2422 56.162 48.3016 55.7931 48.3766C55.4241 48.4516 54.773 48.5112 53.8395 48.5553C53.7106 48.5333 53.5751 48.4042 53.4329 48.1682C53.2929 47.93 53.1684 47.6389 53.0595 47.2948C52.9506 46.9507 52.8583 46.568 52.7828 46.1467C52.7072 45.7276 52.6694 45.3018 52.6694 44.8695C52.6694 44.2673 52.7561 43.7083 52.9295 43.1921C53.1028 42.6738 53.4061 42.2964 53.8395 42.0604C59.0935 41.7362 62.4683 40.5186 63.9641 38.4077C65.0931 36.8151 65.712 36.0189 65.8209 36.0189C65.952 36.3189 66.0498 36.8461 66.1143 37.6005C66.4388 38.1828 66.8677 38.7056 67.4011 39.1688C67.9322 39.632 68.6213 40.0466 69.468 40.4128C70.3148 40.7789 71.356 41.0966 72.5917 41.3657C73.8296 41.6348 75.3165 41.8663 77.0522 42.0604C77.3567 42.1884 77.6012 42.5755 77.7857 43.2218C77.9701 43.8681 78.0624 44.5684 78.0624 45.3228C78.0624 46.0132 77.9812 46.665 77.8189 47.2782C77.6567 47.8914 77.4012 48.3171 77.0522 48.5553C76.1188 48.5553 74.9475 48.4418 73.5384 48.2146C72.1272 47.9897 70.5859 47.5429 68.9146 46.8745ZM54.923 48.5553C54.8563 48.5752 54.7363 48.5852 54.563 48.5852C54.2163 48.5852 53.7928 48.5586 53.2928 48.5056C52.7949 48.4527 52.2582 48.3183 51.6826 48.1022C51.107 47.886 50.5047 47.5683 49.8757 47.1492C49.2468 46.7279 48.6389 46.1621 48.0522 45.4519C47.8566 45.5599 47.3033 46.2603 46.3921 47.5529C45.6542 48.6072 44.8297 49.1343 43.9184 49.1343C42.4427 49.1343 41.0425 48.166 39.7179 46.2293C39.6757 46.0352 39.5457 45.8621 39.3279 45.7099C39.2412 45.7099 39.1601 45.764 39.0845 45.8721C39.0067 45.9802 38.8923 46.1422 38.7411 46.3584C38.1544 47.1767 37.4976 47.8009 36.7709 48.231C36.0441 48.6611 35.2797 48.9192 34.4773 49.0053C34.4329 49.0053 34.1561 48.9844 33.6472 48.9425C33.136 48.8983 32.3815 48.8332 31.3836 48.7472C31.188 49.8456 30.9114 51.0468 30.5535 52.3504C30.1957 53.654 29.7667 55.0921 29.2667 56.6648C25.4907 62.6733 20.4013 65.6775 13.9983 65.6775C12.327 65.6775 10.6613 65.4901 9.00108 65.1151C7.34089 64.7379 5.84399 64.0806 4.51051 63.1431C3.1748 62.2057 2.08915 60.9506 1.2535 59.3779C0.417847 57.8052 0 55.8135 0 53.4026C0 52.4762 0.0321992 51.5496 0.096651 50.6232C0.163325 49.6968 0.29335 48.7428 0.486706 47.7613C0.682284 46.7819 0.94895 45.7749 1.28677 44.7404C1.62236 43.7081 2.06137 42.6208 2.60365 41.4782C3.36374 39.8835 4.00378 39.086 4.52384 39.086C4.61052 39.086 4.67615 39.1081 4.7206 39.1522L4.85051 39.3441C4.85051 39.3022 4.79055 39.4267 4.67054 39.7179C4.55275 40.009 4.40714 40.3808 4.23379 40.833C4.05821 41.2852 3.87266 41.7748 3.67708 42.3019C3.48372 42.8291 3.29931 43.3244 3.12373 43.7876C2.95038 44.2508 2.81034 44.6335 2.70366 44.9357C2.59476 45.2379 2.54027 45.3891 2.54027 45.3891C2.25802 46.2934 2.11694 47.2947 2.11694 48.3932C2.11694 50.16 2.42582 51.7383 3.04367 53.1279C3.66151 54.5154 4.52941 55.6942 5.64732 56.6648C6.76523 57.6331 8.10536 58.3709 9.66776 58.8783C11.2302 59.3834 12.9671 59.636 14.8784 59.636C17.7432 59.636 20.6946 58.8287 23.7327 57.2141C27.7709 55.059 29.7901 52.851 29.7901 50.5901C29.7901 50.2659 29.6979 49.8082 29.5134 49.2171C29.3289 48.6237 29.1166 48.0094 28.8766 47.3742C28.6388 46.7389 28.4166 46.1412 28.2099 45.5809C28.0032 45.0206 27.8888 44.6224 27.8666 44.3864C27.8243 44.0622 27.792 43.7446 27.7698 43.4336C27.7476 43.1204 27.7365 42.8138 27.7365 42.5138C27.7365 42.2976 27.7532 41.9635 27.7865 41.5113C27.8198 41.0592 27.8743 40.6069 27.9499 40.1547C28.0255 39.7025 28.1288 39.3088 28.2599 38.9735C28.3888 38.6404 28.54 38.4739 28.7133 38.4739C28.8867 38.4739 29.0167 38.5114 29.1034 38.5864C29.1923 38.6614 29.3334 38.9791 29.5267 39.5394C30.3513 41.8444 32.1092 42.9968 34.8007 42.9968C35.4963 42.9968 36.1642 42.8401 36.8043 42.5269C37.4443 42.2159 38.0466 41.7374 38.6111 41.0911L40.8581 38.507L41.2814 38.6989C41.2814 38.893 41.287 39.1247 41.2981 39.3938C41.3092 39.6629 41.3626 39.9595 41.4581 40.2837C41.5559 40.6058 41.7137 40.929 41.9315 41.2532C42.1493 41.5753 42.4537 41.8762 42.8449 42.1563C43.5161 42.6306 44.1451 42.8678 44.7318 42.8678C45.643 42.8678 46.5109 42.1355 47.3355 40.6708C48.3134 38.9261 48.9101 37.9787 49.1256 37.8287L49.8757 38.1496V38.4077C49.8757 38.8819 49.9413 39.4213 50.0724 40.0256C50.8969 41.3601 52.5138 42.0384 54.923 42.0604C55.1386 42.5126 55.3608 42.9913 55.5897 43.4964C55.8164 44.0038 55.9298 44.5917 55.9298 45.26C55.9298 45.7122 55.8543 46.2073 55.7031 46.7455C55.552 47.2837 55.2919 47.887 54.923 48.5553ZM45.4152 16.875C45.3063 17.0912 45.0841 17.5765 44.7485 18.3309C44.4107 19.0852 43.9606 20.1187 43.3983 21.4311C40.338 23.4361 36.073 25.8273 30.6035 28.6043C30.7102 28.2602 30.9269 27.7108 31.2536 26.9565C31.5781 26.2043 31.9904 25.2249 32.4904 24.0184C34.4662 22.9199 36.5286 21.7828 38.6778 20.6072C40.8247 19.4337 43.0705 18.1897 45.4152 16.875ZM111.606 39.1854C111.606 43.3851 110.348 46.9926 107.832 50.0079C107.592 50.3101 107.158 50.5956 106.529 50.8647C105.9 51.1339 105.145 51.3655 104.265 51.5596C103.387 51.7537 102.411 51.9147 101.335 52.0427C100.262 52.1728 99.1715 52.238 98.0647 52.238C97.7402 52.238 97.4801 52.2324 97.2846 52.2214C97.089 52.2104 96.8823 52.1938 96.6645 52.1717C96.4467 52.1519 96.181 52.1255 95.8677 52.0924C95.5521 52.0593 95.112 52.0326 94.5475 52.0128L94.4843 51.7218C94.7443 51.3336 97.5001 50.0189 102.752 47.7778C107.483 45.775 109.969 44.0093 110.209 42.4807C110.165 42.3946 110.116 42.292 110.063 42.1729C110.007 42.0538 109.947 41.9194 109.883 41.7694L109.363 41.5443C108.125 42.0383 107.05 42.2854 106.139 42.2854C103.752 42.2854 102.559 40.7669 102.559 37.7295C102.559 37.1913 102.612 36.5881 102.719 35.9197C102.827 35.2536 102.969 34.6128 103.142 33.9974C103.317 33.3842 103.513 32.8404 103.729 32.3661C103.946 31.8919 104.174 31.5799 104.412 31.4299C104.761 31.2138 105.293 31.1056 106.009 31.1056C106.92 31.1056 107.728 31.3373 108.432 31.8005C109.139 32.2637 109.726 32.8778 110.193 33.6432C110.659 34.4086 111.012 35.2755 111.249 36.2438C111.487 37.2122 111.606 38.1928 111.606 39.1854ZM109.329 13.5664C109.22 13.7826 108.998 14.2678 108.663 15.0222C108.325 15.7766 107.874 16.81 107.309 18.1225C104.249 20.1275 99.9848 22.5186 94.5175 25.2957C94.6242 24.9516 94.8409 24.4022 95.1676 23.6478C95.4921 22.8957 95.9044 21.9163 96.4044 20.7098C98.3802 19.6113 100.442 18.4742 102.589 17.2985C104.738 16.1251 106.985 14.881 109.329 13.5664Z" fill="#F5F9FA"/>
<path d="M71.9909 5.39633C72.2087 4.75004 72.3176 4.10376 72.3176 3.45747C72.2954 2.96118 72.1264 2.50355 71.8108 2.08446C71.4975 1.66537 71.0852 1.29911 70.574 0.985888C70.0651 0.67267 69.4795 0.430133 68.8172 0.258084C68.1549 0.0860344 67.477 0 66.7836 0C66.2413 0 65.7957 0.0649375 65.4468 0.195077C64.9045 1.09944 64.4378 1.8803 64.0467 2.53762C63.6577 3.19494 63.3322 3.7388 63.0699 4.16892L63.3332 4.4268C67.1959 4.51283 69.1272 5.00814 69.1272 5.9125C69.1272 6.15072 68.8338 6.42542 68.2471 6.73643C67.6604 7.04965 66.6625 7.45319 65.2535 7.94728C62.4087 8.95972 60.9863 9.66009 60.9863 10.0483C60.9863 10.3725 61.2796 10.5346 61.8664 10.5346C62.0619 10.5346 62.4687 10.5016 63.0866 10.4354C63.7067 10.3715 64.3633 10.291 65.0567 10.1939C65.7524 10.0968 66.3869 10.0053 66.9603 9.91926C67.5359 9.83323 67.8783 9.76932 67.9872 9.72741C68.6161 9.46713 69.1961 9.11644 69.7273 8.67529C70.2607 8.23413 70.7174 7.73882 71.0975 7.18959C71.4775 6.64036 71.7753 6.04262 71.9909 5.39633Z" fill="#FFCA3A"/>
</svg>
