<svg width="391" height="182" viewBox="0 0 391 182" fill="none" xmlns="http://www.w3.org/2000/svg">
<path d="M9.91 10.082V11.162L9.874 10.982C10.714 11.102 11.482 11.342 12.178 11.702C12.874 12.062 13.432 12.518 13.852 13.07C14.284 13.622 14.5 14.264 14.5 14.996C14.5 15.44 14.404 15.83 14.212 16.166C14.032 16.502 13.744 16.766 13.348 16.958C12.964 17.138 12.472 17.228 11.872 17.228C11.608 17.228 11.386 17.222 11.206 17.21C11.026 17.186 10.852 17.162 10.684 17.138L10.774 15.158C10.834 15.17 10.906 15.182 10.99 15.194C11.086 15.194 11.182 15.194 11.278 15.194C11.59 15.194 11.818 15.14 11.962 15.032C12.118 14.912 12.196 14.744 12.196 14.528C12.196 14.144 11.986 13.814 11.566 13.538C11.158 13.262 10.594 13.052 9.874 12.908L9.928 12.152V16.166L7.642 16.328L5.482 16.454C5.194 16.31 4.864 16.172 4.492 16.04C4.132 15.908 3.748 15.794 3.34 15.698C2.932 15.59 2.53 15.524 2.134 15.5L1.288 13.484C1.972 13.136 2.662 12.812 3.358 12.512C4.066 12.2 4.774 11.912 5.482 11.648C6.202 11.384 6.91 11.162 7.606 10.982L7.588 11.36V10.1L9.91 10.082ZM7.552 12.242L8.056 12.728C7.672 12.836 7.288 12.956 6.904 13.088C6.52 13.208 6.142 13.34 5.77 13.484C5.398 13.616 5.032 13.76 4.672 13.916C4.324 14.072 3.988 14.228 3.664 14.384L3.52 14.15C4 14.222 4.468 14.336 4.924 14.492C5.392 14.648 5.83 14.84 6.238 15.068C6.646 15.284 7 15.518 7.3 15.77L7.552 15.752V12.242ZM15.256 8.804V10.784H0.82V8.804H15.256ZM9.928 14.744V20.846H7.552C7.108 20.474 6.682 20.174 6.274 19.946C5.866 19.706 5.434 19.514 4.978 19.37C4.522 19.214 3.994 19.082 3.394 18.974L2.512 16.976C3.016 16.712 3.544 16.448 4.096 16.184C4.66 15.92 5.236 15.668 5.824 15.428C6.412 15.188 6.988 14.972 7.552 14.78L9.928 14.744ZM7.552 16.67C7.228 16.754 6.892 16.862 6.544 16.994C6.196 17.126 5.836 17.276 5.464 17.444C5.092 17.612 4.714 17.798 4.33 18.002L4.492 17.57C5.092 17.666 5.656 17.822 6.184 18.038C6.712 18.254 7.18 18.542 7.588 18.902C7.576 18.698 7.564 18.47 7.552 18.218C7.552 17.954 7.552 17.744 7.552 17.588V16.67ZM29.2281 8.804V10.784H27.5001V20H25.1241V14.33L25.6101 15.356C25.4181 15.008 25.1901 14.708 24.9261 14.456C24.6621 14.204 24.3621 14.078 24.0261 14.078C23.9061 14.078 23.7681 14.108 23.6121 14.168C23.4681 14.228 23.3421 14.342 23.2341 14.51C23.1381 14.678 23.0901 14.924 23.0901 15.248C23.0901 15.356 23.0961 15.458 23.1081 15.554C23.1201 15.638 23.1321 15.728 23.1441 15.824L21.1101 15.95C21.0501 15.554 20.9301 15.212 20.7501 14.924C20.5821 14.624 20.3661 14.396 20.1021 14.24C19.8381 14.084 19.5201 14.006 19.1481 14.006C18.9321 14.006 18.7401 14.048 18.5721 14.132C18.4041 14.204 18.2721 14.312 18.1761 14.456C18.0921 14.6 18.0501 14.768 18.0501 14.96C18.0501 15.392 18.2181 15.728 18.5541 15.968C18.9021 16.208 19.3221 16.406 19.8141 16.562L19.1301 18.578C18.4101 18.374 17.7861 18.104 17.2581 17.768C16.7301 17.42 16.3221 17.006 16.0341 16.526C15.7461 16.046 15.6021 15.494 15.6021 14.87C15.6021 14.27 15.7461 13.754 16.0341 13.322C16.3341 12.89 16.7301 12.56 17.2221 12.332C17.7141 12.092 18.2541 11.972 18.8421 11.972C19.5501 11.972 20.1441 12.092 20.6241 12.332C21.1041 12.56 21.6021 12.938 22.1181 13.466L21.7941 13.34C21.9261 12.92 22.1601 12.602 22.4961 12.386C22.8321 12.17 23.1861 12.062 23.5581 12.062C23.9781 12.062 24.3501 12.146 24.6741 12.314C25.0101 12.482 25.3221 12.71 25.6101 12.998L25.2141 13.286C25.1901 13.022 25.1661 12.758 25.1421 12.494C25.1301 12.23 25.1241 11.966 25.1241 11.702V10.784H14.9001V8.804H29.2281ZM44.6607 8.804V10.784H38.7927V11.864L38.8287 12.602V20H36.4527C36.0087 19.352 35.4687 18.782 34.8327 18.29C34.2087 17.798 33.5127 17.39 32.7447 17.066C31.9767 16.73 31.1427 16.49 30.2427 16.346L29.3427 14.222C30.4467 13.61 31.6527 13.022 32.9607 12.458C34.2807 11.882 35.5767 11.426 36.8487 11.09L36.5067 11.612V10.784H28.8747V8.804H44.6607ZM36.4527 12.818L36.8307 13.214C36.3027 13.37 35.7927 13.538 35.3007 13.718C34.8207 13.898 34.3407 14.096 33.8607 14.312C33.3807 14.516 32.8827 14.744 32.3667 14.996C32.8587 15.092 33.3687 15.26 33.8967 15.5C34.4367 15.728 34.9587 16.028 35.4627 16.4C35.9787 16.772 36.4407 17.204 36.8487 17.696L36.5247 17.894C36.5127 17.678 36.4947 17.438 36.4707 17.174C36.4587 16.91 36.4527 16.628 36.4527 16.328V12.818ZM43.9047 15.356C43.9047 15.752 43.8207 16.13 43.6527 16.49C43.4967 16.85 43.2207 17.144 42.8247 17.372C42.4287 17.6 41.8767 17.714 41.1687 17.714C40.9167 17.714 40.6827 17.708 40.4667 17.696C40.2627 17.672 40.0707 17.642 39.8907 17.606L39.9627 15.626C40.0227 15.638 40.0947 15.65 40.1787 15.662C40.2747 15.662 40.3947 15.662 40.5387 15.662C40.9707 15.662 41.2527 15.59 41.3847 15.446C41.5167 15.29 41.5827 15.104 41.5827 14.888C41.5827 14.48 41.3247 14.12 40.8087 13.808C40.2927 13.496 39.5367 13.256 38.5407 13.088V11.126C39.5247 11.258 40.4187 11.51 41.2227 11.882C42.0387 12.242 42.6867 12.716 43.1667 13.304C43.6587 13.88 43.9047 14.564 43.9047 15.356ZM58.6363 8.804V10.784H56.9083V20H54.5323V14.33L55.0183 15.356C54.8263 15.008 54.5983 14.708 54.3343 14.456C54.0703 14.204 53.7703 14.078 53.4343 14.078C53.3143 14.078 53.1763 14.108 53.0203 14.168C52.8763 14.228 52.7503 14.342 52.6423 14.51C52.5463 14.678 52.4983 14.924 52.4983 15.248C52.4983 15.356 52.5043 15.458 52.5163 15.554C52.5283 15.638 52.5403 15.728 52.5523 15.824L50.5183 15.95C50.4583 15.554 50.3383 15.212 50.1583 14.924C49.9903 14.624 49.7743 14.396 49.5103 14.24C49.2463 14.084 48.9283 14.006 48.5563 14.006C48.3403 14.006 48.1483 14.048 47.9803 14.132C47.8123 14.204 47.6803 14.312 47.5843 14.456C47.5003 14.6 47.4583 14.768 47.4583 14.96C47.4583 15.392 47.6263 15.728 47.9623 15.968C48.3103 16.208 48.7303 16.406 49.2223 16.562L48.5383 18.578C47.8183 18.374 47.1943 18.104 46.6663 17.768C46.1383 17.42 45.7303 17.006 45.4423 16.526C45.1543 16.046 45.0103 15.494 45.0103 14.87C45.0103 14.27 45.1543 13.754 45.4423 13.322C45.7423 12.89 46.1383 12.56 46.6303 12.332C47.1223 12.092 47.6623 11.972 48.2503 11.972C48.9583 11.972 49.5523 12.092 50.0323 12.332C50.5123 12.56 51.0103 12.938 51.5263 13.466L51.2023 13.34C51.3343 12.92 51.5683 12.602 51.9043 12.386C52.2403 12.17 52.5943 12.062 52.9663 12.062C53.3863 12.062 53.7583 12.146 54.0823 12.314C54.4183 12.482 54.7303 12.71 55.0183 12.998L54.6223 13.286C54.5983 13.022 54.5743 12.758 54.5503 12.494C54.5383 12.23 54.5323 11.966 54.5323 11.702V10.784H44.3083V8.804H58.6363ZM64.1149 8.804V10.784H62.3869V20H60.0109V12.008C59.8669 11.636 59.6629 11.342 59.3989 11.126C59.1349 10.898 58.7929 10.784 58.3729 10.784H58.2829V8.804H58.6429C58.9189 8.804 59.1769 8.876 59.4169 9.02C59.6569 9.164 59.8789 9.47 60.0829 9.938C60.0709 9.878 60.0529 9.74 60.0289 9.524C60.0169 9.308 60.0109 9.122 60.0109 8.966V7.616H61.9549L62.3689 8.804H64.1149ZM68.6637 11.27C69.7677 11.27 70.6437 11.438 71.2917 11.774C71.9517 12.098 72.4257 12.512 72.7137 13.016C73.0017 13.52 73.1457 14.036 73.1457 14.564C73.1457 15.548 72.8337 16.304 72.2097 16.832C71.5977 17.348 70.7277 17.696 69.5997 17.876L69.1857 17.138C69.7857 17.294 70.3797 17.486 70.9677 17.714C71.5557 17.942 72.1377 18.212 72.7137 18.524C73.3017 18.836 73.8777 19.19 74.4417 19.586L73.1817 21.26C72.6177 20.852 72.0177 20.474 71.3817 20.126C70.7577 19.778 70.0917 19.466 69.3837 19.19C68.6877 18.902 67.9557 18.65 67.1877 18.434C66.4197 18.218 65.6097 18.044 64.7577 17.912L65.1537 16.022C65.5737 16.13 65.9817 16.214 66.3777 16.274C66.7857 16.334 67.1937 16.364 67.6017 16.364C68.3697 16.364 68.9817 16.292 69.4377 16.148C69.8937 15.992 70.2237 15.782 70.4277 15.518C70.6437 15.254 70.7517 14.942 70.7517 14.582C70.7517 14.15 70.5837 13.802 70.2477 13.538C69.9237 13.274 69.4617 13.142 68.8617 13.142C68.5137 13.142 68.2317 13.172 68.0157 13.232C67.8117 13.292 67.6617 13.388 67.5657 13.52C67.4817 13.64 67.4397 13.79 67.4397 13.97C67.4397 14.03 67.4517 14.102 67.4757 14.186C67.4997 14.27 67.5237 14.342 67.5477 14.402L65.3157 14.726C65.2437 14.546 65.1837 14.342 65.1357 14.114C65.0877 13.874 65.0637 13.652 65.0637 13.448C65.0637 13.016 65.2077 12.638 65.4957 12.314C65.7837 11.978 66.1977 11.72 66.7377 11.54C67.2777 11.36 67.9197 11.27 68.6637 11.27ZM66.5397 12.296C66.4797 11.9 66.2997 11.558 65.9997 11.27C65.6997 10.982 65.2677 10.772 64.7037 10.64L66.0717 9.848L66.8997 10.046C67.5717 10.322 68.0577 10.628 68.3577 10.964C68.6577 11.3 68.8317 11.726 68.8797 12.242L66.5397 12.296ZM74.4237 8.804V10.784H63.7497V8.804H74.4237ZM76.606 13.682C76.126 13.682 75.712 13.52 75.364 13.196C75.028 12.86 74.86 12.434 74.86 11.918C74.86 11.402 75.028 10.988 75.364 10.676C75.712 10.352 76.126 10.19 76.606 10.19C77.098 10.19 77.512 10.352 77.848 10.676C78.184 10.988 78.352 11.402 78.352 11.918C78.352 12.434 78.184 12.86 77.848 13.196C77.512 13.52 77.098 13.682 76.606 13.682ZM76.606 20.144C76.126 20.144 75.712 19.982 75.364 19.658C75.028 19.322 74.86 18.896 74.86 18.38C74.86 17.864 75.028 17.45 75.364 17.138C75.712 16.814 76.126 16.652 76.606 16.652C77.098 16.652 77.512 16.814 77.848 17.138C78.184 17.45 78.352 17.864 78.352 18.38C78.352 18.896 78.184 19.322 77.848 19.658C77.512 19.982 77.098 20.144 76.606 20.144Z" fill="#FFCA3A"/>
<path d="M88.6379 8.804V10.082H86.7479V20H85.3619V10.082H83.4899V8.804H85.1459C84.9539 8.576 84.7559 8.336 84.5519 8.084C84.3599 7.832 84.1859 7.58 84.0299 7.328C84.4379 6.62 84.8759 5.978 85.3439 5.402C85.8119 4.814 86.3639 4.352 86.9999 4.016C87.6359 3.668 88.4039 3.494 89.3039 3.494C89.9399 3.494 90.5459 3.572 91.1219 3.728C91.7099 3.884 92.2859 4.112 92.8499 4.412C93.4139 4.7 93.9839 5.054 94.5599 5.474C95.1359 5.882 95.7359 6.338 96.3599 6.842L95.6039 7.814C94.7759 7.142 94.0259 6.584 93.3539 6.14C92.6939 5.696 92.0579 5.366 91.4459 5.15C90.8459 4.922 90.2039 4.808 89.5199 4.808C88.8599 4.808 88.2839 4.922 87.7919 5.15C87.3119 5.378 86.8919 5.696 86.5319 6.104C86.1839 6.512 85.8659 6.986 85.5779 7.526C85.6739 7.706 85.8059 7.904 85.9739 8.12C86.1419 8.336 86.3339 8.564 86.5499 8.804H88.6379ZM99.5032 8.804V10.082H97.6132V20H96.2272V15.626L96.5152 16.634C96.1192 16.082 95.6872 15.584 95.2192 15.14C94.7512 14.696 94.2712 14.342 93.7792 14.078C93.2872 13.814 92.8072 13.682 92.3392 13.682C91.8952 13.682 91.5172 13.802 91.2052 14.042C90.9052 14.27 90.7552 14.612 90.7552 15.068C90.7552 15.428 90.8812 15.74 91.1332 16.004C91.3852 16.256 91.7752 16.484 92.3032 16.688L91.6192 17.966C90.8872 17.666 90.3112 17.264 89.8912 16.76C89.4832 16.244 89.2792 15.662 89.2792 15.014C89.2792 14.426 89.4172 13.94 89.6932 13.556C89.9812 13.16 90.3412 12.866 90.7732 12.674C91.2172 12.482 91.6672 12.386 92.1232 12.386C92.7472 12.386 93.3172 12.494 93.8332 12.71C94.3492 12.926 94.8292 13.22 95.2732 13.592C95.7292 13.964 96.1612 14.396 96.5692 14.888L96.3172 14.96C96.2812 14.684 96.2572 14.414 96.2452 14.15C96.2332 13.874 96.2272 13.598 96.2272 13.322V10.082H88.2712V8.804H99.5032ZM105.722 8.804V10.082H105.362C104.99 10.166 104.588 10.352 104.156 10.64C103.724 10.916 103.316 11.282 102.932 11.738C102.548 12.182 102.23 12.704 101.978 13.304C101.738 13.904 101.618 14.564 101.618 15.284C101.618 16.148 101.744 16.838 101.996 17.354C102.26 17.858 102.584 18.218 102.968 18.434C103.352 18.65 103.736 18.758 104.12 18.758C104.42 18.758 104.672 18.728 104.876 18.668C105.08 18.608 105.314 18.5 105.578 18.344L106.208 19.442C105.896 19.682 105.554 19.85 105.182 19.946C104.81 20.042 104.438 20.09 104.066 20.09C103.31 20.09 102.638 19.892 102.05 19.496C101.474 19.1 101.018 18.548 100.682 17.84C100.358 17.12 100.196 16.28 100.196 15.32C100.196 14.336 100.382 13.448 100.754 12.656C101.126 11.852 101.624 11.174 102.248 10.622C102.884 10.07 103.586 9.668 104.354 9.416L103.202 10.01C102.986 10.034 102.752 10.052 102.5 10.064C102.248 10.076 101.966 10.082 101.654 10.082H99.1345V8.804H105.722ZM115.923 8.804V10.082H108.633V10.622L108.561 11.756C108.585 11.912 108.603 12.128 108.615 12.404C108.627 12.68 108.633 12.944 108.633 13.196V16.31C108.633 16.838 108.663 17.21 108.723 17.426C108.783 17.642 108.855 17.798 108.939 17.894C109.155 18.146 109.485 18.272 109.929 18.272C110.409 18.272 110.853 18.158 111.261 17.93C111.669 17.702 112.035 17.42 112.359 17.084C112.695 16.724 112.953 16.346 113.133 15.95C113.325 15.542 113.421 15.116 113.421 14.672C113.421 14.276 113.307 14.018 113.079 13.898C112.863 13.778 112.557 13.718 112.161 13.718H112.071C111.519 13.718 111.075 13.676 110.739 13.592C110.403 13.496 110.079 13.37 109.767 13.214C109.491 13.058 109.233 12.878 108.993 12.674C108.765 12.458 108.579 12.218 108.435 11.954L108.615 10.388C108.867 10.82 109.131 11.186 109.407 11.486C109.683 11.774 110.025 11.996 110.433 12.152C110.853 12.308 111.387 12.386 112.035 12.386H112.323C112.779 12.386 113.127 12.416 113.367 12.476C113.619 12.536 113.841 12.626 114.033 12.746C114.309 12.914 114.513 13.148 114.645 13.448C114.777 13.736 114.843 14.084 114.843 14.492C114.843 15.224 114.669 15.926 114.321 16.598C113.973 17.27 113.535 17.834 113.007 18.29C112.551 18.686 112.065 18.998 111.549 19.226C111.033 19.454 110.457 19.568 109.821 19.568C109.377 19.568 108.999 19.502 108.687 19.37C108.375 19.238 108.117 19.07 107.913 18.866C107.721 18.638 107.559 18.362 107.427 18.038C107.307 17.714 107.247 17.222 107.247 16.562V10.082H105.357V8.804H115.923ZM126.658 8.804V10.082H124.768V20H123.382C123.022 19.28 122.524 18.62 121.888 18.02C121.264 17.408 120.544 16.892 119.728 16.472C118.912 16.052 118.042 15.77 117.118 15.626L116.416 13.898C117.568 13.202 118.756 12.572 119.98 12.008C121.216 11.444 122.488 10.964 123.796 10.568L123.382 11.324V10.082H115.57V8.804H126.658ZM123.382 11.468L123.76 11.972C122.848 12.272 121.888 12.644 120.88 13.088C119.872 13.52 118.942 14 118.09 14.528C118.738 14.672 119.428 14.918 120.16 15.266C120.892 15.614 121.57 16.052 122.194 16.58C122.818 17.108 123.298 17.72 123.634 18.416H123.472C123.448 18.14 123.424 17.864 123.4 17.588C123.388 17.312 123.382 16.982 123.382 16.598V11.468ZM119.08 20.108C118.78 20.108 118.522 20.012 118.306 19.82C118.102 19.628 118 19.376 118 19.064C118 18.752 118.102 18.494 118.306 18.29C118.522 18.086 118.78 17.984 119.08 17.984C119.38 17.984 119.632 18.086 119.836 18.29C120.052 18.494 120.16 18.752 120.16 19.064C120.16 19.376 120.052 19.628 119.836 19.82C119.632 20.012 119.38 20.108 119.08 20.108ZM147.438 8.804V10.082H145.548V20H144.162C143.814 19.292 143.382 18.674 142.866 18.146C142.35 17.606 141.798 17.144 141.21 16.76L141.66 15.572C142.116 15.836 142.59 16.196 143.082 16.652C143.574 17.108 143.952 17.57 144.216 18.038C144.204 17.858 144.192 17.69 144.18 17.534C144.18 17.378 144.174 17.216 144.162 17.048C144.162 16.88 144.162 16.7 144.162 16.508V10.082H131.004V8.804H147.438ZM137.952 18.362C137.136 18.362 136.356 18.17 135.612 17.786C134.868 17.402 134.166 16.754 133.506 15.842C132.858 14.918 132.258 13.652 131.706 12.044L133.02 11.612C133.452 12.86 133.902 13.886 134.37 14.69C134.85 15.482 135.384 16.064 135.972 16.436C136.56 16.808 137.232 16.994 137.988 16.994C138.648 16.994 139.176 16.892 139.572 16.688C139.98 16.472 140.274 16.184 140.454 15.824C140.634 15.452 140.724 15.044 140.724 14.6C140.724 13.904 140.532 13.34 140.148 12.908C139.776 12.476 139.308 12.26 138.744 12.26C138.348 12.26 138.048 12.35 137.844 12.53C137.64 12.698 137.538 12.956 137.538 13.304C137.538 13.388 137.55 13.502 137.574 13.646C137.598 13.79 137.634 13.922 137.682 14.042L136.314 14.312C136.23 14.06 136.164 13.832 136.116 13.628C136.08 13.412 136.062 13.208 136.062 13.016C136.062 12.572 136.182 12.2 136.422 11.9C136.674 11.6 136.992 11.378 137.376 11.234C137.772 11.078 138.186 11 138.618 11C139.326 11 139.938 11.162 140.454 11.486C140.97 11.798 141.372 12.23 141.66 12.782C141.948 13.334 142.092 13.976 142.092 14.708C142.092 15.356 141.942 15.962 141.642 16.526C141.342 17.078 140.886 17.522 140.274 17.858C139.662 18.194 138.888 18.362 137.952 18.362ZM137.376 11.63C137.316 11.246 137.136 10.91 136.836 10.622C136.548 10.322 136.122 10.112 135.558 9.992L135.99 9.182L136.8 9.398C137.484 9.662 137.976 9.962 138.276 10.298C138.576 10.634 138.75 11.06 138.798 11.576L137.376 11.63ZM163.972 8.804V10.082H158.302V20H156.916V18.488L157.006 18.02C156.982 17.876 156.958 17.648 156.934 17.336C156.922 17.012 156.916 16.688 156.916 16.364V12.458V12.242V10.082H147.07V8.804H163.972ZM163.018 15.122C163.018 15.482 162.94 15.836 162.784 16.184C162.64 16.52 162.394 16.796 162.046 17.012C161.71 17.228 161.248 17.336 160.66 17.336C160.492 17.336 160.318 17.33 160.138 17.318C159.97 17.306 159.808 17.282 159.652 17.246L159.76 15.95C159.82 15.962 159.91 15.974 160.03 15.986C160.15 15.986 160.258 15.986 160.354 15.986C160.882 15.986 161.224 15.89 161.38 15.698C161.548 15.494 161.632 15.272 161.632 15.032C161.632 14.804 161.59 14.606 161.506 14.438C161.422 14.258 161.302 14.108 161.146 13.988C160.846 13.748 160.432 13.574 159.904 13.466C159.376 13.358 158.722 13.304 157.942 13.304H157.33C156.622 13.304 155.986 13.22 155.422 13.052C154.87 12.872 154.432 12.572 154.108 12.152C153.796 11.732 153.64 11.162 153.64 10.442C153.64 10.334 153.646 10.208 153.658 10.064C153.682 9.908 153.706 9.758 153.73 9.614L155.08 9.722C155.068 9.83 155.05 9.938 155.026 10.046C155.014 10.154 155.008 10.256 155.008 10.352C155.008 11.06 155.218 11.522 155.638 11.738C156.058 11.942 156.634 12.044 157.366 12.044H157.924C159.1 12.044 160.012 12.146 160.66 12.35C161.308 12.542 161.824 12.812 162.208 13.16C162.508 13.424 162.718 13.724 162.838 14.06C162.958 14.384 163.018 14.738 163.018 15.122ZM153.496 15.23C154.012 15.23 154.492 15.344 154.936 15.572C155.392 15.788 155.812 16.088 156.196 16.472C156.58 16.844 156.916 17.264 157.204 17.732L157.222 19.01L157.024 19.388C156.64 18.776 156.262 18.26 155.89 17.84C155.518 17.408 155.14 17.078 154.756 16.85C154.384 16.622 153.988 16.508 153.568 16.508C153.364 16.508 153.19 16.544 153.046 16.616C152.914 16.676 152.812 16.766 152.74 16.886C152.668 17.006 152.632 17.156 152.632 17.336C152.632 17.528 152.656 17.696 152.704 17.84C152.752 17.984 152.8 18.11 152.848 18.218L151.462 18.506C151.378 18.338 151.306 18.146 151.246 17.93C151.186 17.714 151.156 17.504 151.156 17.3C151.156 16.964 151.216 16.67 151.336 16.418C151.456 16.154 151.618 15.938 151.822 15.77C152.038 15.59 152.284 15.458 152.56 15.374C152.848 15.278 153.16 15.23 153.496 15.23ZM150.58 11.666C151.204 11.666 151.768 11.804 152.272 12.08C152.776 12.356 153.178 12.758 153.478 13.286C153.778 13.814 153.928 14.462 153.928 15.23C153.928 15.458 153.916 15.662 153.892 15.842C153.868 16.022 153.844 16.172 153.82 16.292L152.416 16.256C152.464 16.1 152.494 15.944 152.506 15.788C152.53 15.632 152.542 15.5 152.542 15.392C152.542 14.996 152.482 14.612 152.362 14.24C152.242 13.868 152.044 13.562 151.768 13.322C151.504 13.07 151.138 12.944 150.67 12.944C150.286 12.944 150.01 13.028 149.842 13.196C149.686 13.364 149.608 13.58 149.608 13.844C149.608 13.94 149.62 14.048 149.644 14.168C149.68 14.288 149.722 14.408 149.77 14.528L148.366 14.816C148.282 14.636 148.216 14.45 148.168 14.258C148.132 14.066 148.114 13.886 148.114 13.718C148.114 13.406 148.174 13.124 148.294 12.872C148.414 12.62 148.582 12.404 148.798 12.224C149.014 12.044 149.272 11.906 149.572 11.81C149.872 11.714 150.208 11.666 150.58 11.666ZM149.464 12.71C149.488 12.614 149.5 12.5 149.5 12.368C149.512 12.224 149.518 12.074 149.518 11.918C149.518 11.426 149.398 10.946 149.158 10.478C148.918 9.998 148.534 9.68 148.006 9.524L149.68 9.164C150.088 9.5 150.388 9.878 150.58 10.298C150.784 10.718 150.886 11.252 150.886 11.9C150.886 12.068 150.874 12.224 150.85 12.368C150.838 12.5 150.82 12.644 150.796 12.8L149.464 12.71ZM174.699 8.804V10.082H172.809V20H171.423C171.063 19.28 170.565 18.62 169.929 18.02C169.305 17.408 168.585 16.892 167.769 16.472C166.953 16.052 166.083 15.77 165.159 15.626L164.457 13.898C165.609 13.202 166.797 12.572 168.021 12.008C169.257 11.444 170.529 10.964 171.837 10.568L171.423 11.324V10.082H163.611V8.804H174.699ZM171.423 11.468L171.801 11.972C170.889 12.272 169.929 12.644 168.921 13.088C167.913 13.52 166.983 14 166.131 14.528C166.779 14.672 167.469 14.918 168.201 15.266C168.933 15.614 169.611 16.052 170.235 16.58C170.859 17.108 171.339 17.72 171.675 18.416H171.513C171.489 18.14 171.465 17.864 171.441 17.588C171.429 17.312 171.423 16.982 171.423 16.598V11.468ZM167.121 20.108C166.821 20.108 166.563 20.012 166.347 19.82C166.143 19.628 166.041 19.376 166.041 19.064C166.041 18.752 166.143 18.494 166.347 18.29C166.563 18.086 166.821 17.984 167.121 17.984C167.421 17.984 167.673 18.086 167.877 18.29C168.093 18.494 168.201 18.752 168.201 19.064C168.201 19.376 168.093 19.628 167.877 19.82C167.673 20.012 167.421 20.108 167.121 20.108ZM181.66 8.678C182.128 8.678 182.554 8.744 182.938 8.876C183.322 9.008 183.664 9.23 183.964 9.542C184.276 9.854 184.54 10.28 184.756 10.82H184.144L185.602 9.056L186.7 8.804C187.084 9.104 187.42 9.482 187.708 9.938C187.996 10.382 188.14 10.91 188.14 11.522C188.14 12.158 187.99 12.728 187.69 13.232C187.402 13.736 187 14.174 186.484 14.546C185.968 14.918 185.374 15.236 184.702 15.5L184.144 14.186C184.948 13.886 185.584 13.538 186.052 13.142C186.532 12.734 186.772 12.2 186.772 11.54C186.772 11.24 186.706 10.952 186.574 10.676C186.442 10.388 186.22 10.142 185.908 9.938L186.79 9.542L184.846 11.9L183.748 11.954C183.664 11.306 183.442 10.808 183.082 10.46C182.734 10.112 182.296 9.938 181.768 9.938C181.384 9.938 181.048 9.992 180.76 10.1C180.484 10.196 180.22 10.34 179.968 10.532C179.728 10.724 179.464 10.952 179.176 11.216L178.888 11.288C179.104 11.156 179.362 11.036 179.662 10.928C179.962 10.82 180.298 10.766 180.67 10.766C181.186 10.766 181.594 10.856 181.894 11.036C182.194 11.216 182.41 11.444 182.542 11.72C182.686 11.996 182.758 12.29 182.758 12.602C182.758 13.118 182.56 13.652 182.164 14.204C181.768 14.744 181.054 15.224 180.022 15.644L179.23 14.42C180.01 14.108 180.556 13.82 180.868 13.556C181.192 13.292 181.354 12.992 181.354 12.656C181.354 12.416 181.27 12.236 181.102 12.116C180.946 11.996 180.73 11.936 180.454 11.936C180.19 11.936 179.926 11.972 179.662 12.044C179.398 12.104 179.11 12.206 178.798 12.35L177.556 11.288C177.976 10.748 178.402 10.286 178.834 9.902C179.266 9.506 179.71 9.206 180.166 9.002C180.634 8.786 181.132 8.678 181.66 8.678ZM183.856 19.424C182.548 19.424 181.33 19.172 180.202 18.668C179.074 18.152 178.066 17.324 177.178 16.184C176.302 15.044 175.582 13.532 175.018 11.648L176.35 11.234C176.878 12.842 177.496 14.15 178.204 15.158C178.912 16.154 179.728 16.886 180.652 17.354C181.588 17.822 182.644 18.056 183.82 18.056C184.744 18.056 185.482 17.9 186.034 17.588C186.598 17.264 186.88 16.76 186.88 16.076C186.88 15.584 186.724 15.176 186.412 14.852C186.1 14.516 185.71 14.252 185.242 14.06L186.718 13.448C187.246 13.748 187.648 14.126 187.924 14.582C188.2 15.038 188.338 15.572 188.338 16.184C188.338 16.832 188.158 17.402 187.798 17.894C187.438 18.374 186.922 18.752 186.25 19.028C185.59 19.292 184.792 19.424 183.856 19.424ZM195.775 8.804V10.082H195.415C195.043 10.166 194.641 10.352 194.209 10.64C193.777 10.916 193.369 11.282 192.985 11.738C192.601 12.182 192.283 12.704 192.031 13.304C191.791 13.904 191.671 14.564 191.671 15.284C191.671 16.148 191.797 16.838 192.049 17.354C192.313 17.858 192.637 18.218 193.021 18.434C193.405 18.65 193.789 18.758 194.173 18.758C194.473 18.758 194.725 18.728 194.929 18.668C195.133 18.608 195.367 18.5 195.631 18.344L196.261 19.442C195.949 19.682 195.607 19.85 195.235 19.946C194.863 20.042 194.491 20.09 194.119 20.09C193.363 20.09 192.691 19.892 192.103 19.496C191.527 19.1 191.071 18.548 190.735 17.84C190.411 17.12 190.249 16.28 190.249 15.32C190.249 14.336 190.435 13.448 190.807 12.656C191.179 11.852 191.677 11.174 192.301 10.622C192.937 10.07 193.639 9.668 194.407 9.416L193.255 10.01C193.039 10.034 192.805 10.052 192.553 10.064C192.301 10.076 192.019 10.082 191.707 10.082H189.187V8.804H195.775ZM208.928 8.804V10.082H207.038V20H205.652V13.97L205.76 14.438C205.496 14.054 205.214 13.748 204.914 13.52C204.626 13.292 204.308 13.178 203.96 13.178C203.78 13.178 203.594 13.214 203.402 13.286C203.222 13.346 203.066 13.466 202.934 13.646C202.814 13.826 202.754 14.102 202.754 14.474C202.754 14.606 202.754 14.726 202.754 14.834C202.766 14.93 202.778 15.026 202.79 15.122L201.62 15.212C201.572 14.72 201.44 14.306 201.224 13.97C201.008 13.622 200.744 13.358 200.432 13.178C200.12 12.998 199.784 12.908 199.424 12.908C199.1 12.908 198.824 12.974 198.596 13.106C198.368 13.226 198.194 13.394 198.074 13.61C197.954 13.814 197.894 14.048 197.894 14.312C197.894 14.792 198.068 15.2 198.416 15.536C198.776 15.872 199.28 16.154 199.928 16.382L199.442 17.714C198.866 17.534 198.35 17.288 197.894 16.976C197.438 16.664 197.078 16.28 196.814 15.824C196.55 15.368 196.418 14.84 196.418 14.24C196.418 13.7 196.55 13.238 196.814 12.854C197.078 12.458 197.432 12.152 197.876 11.936C198.32 11.72 198.806 11.612 199.334 11.612C199.97 11.612 200.516 11.732 200.972 11.972C201.428 12.2 201.848 12.572 202.232 13.088L201.962 13.106C202.082 12.71 202.31 12.41 202.646 12.206C202.994 11.99 203.354 11.882 203.726 11.882C204.158 11.882 204.53 11.966 204.842 12.134C205.154 12.302 205.496 12.542 205.868 12.854L205.706 13.124C205.694 12.872 205.682 12.62 205.67 12.368C205.658 12.116 205.652 11.858 205.652 11.594V10.082H195.41V8.804H208.928ZM213.724 8.804V10.082H211.834V20H210.448V11.558C210.304 11.15 210.088 10.802 209.8 10.514C209.524 10.226 209.164 10.082 208.72 10.082H208.576V8.804H208.846C209.134 8.804 209.434 8.9 209.746 9.092C210.058 9.272 210.31 9.554 210.502 9.938C210.49 9.878 210.478 9.74 210.466 9.524C210.454 9.308 210.448 9.122 210.448 8.966V7.616H211.42L211.816 8.804H213.724ZM224.445 8.804V10.082H222.555V20H221.169C220.809 19.28 220.311 18.62 219.675 18.02C219.051 17.408 218.331 16.892 217.515 16.472C216.699 16.052 215.829 15.77 214.905 15.626L214.203 13.898C215.355 13.202 216.543 12.572 217.767 12.008C219.003 11.444 220.275 10.964 221.583 10.568L221.169 11.324V10.082H213.357V8.804H224.445ZM221.169 11.468L221.547 11.972C220.635 12.272 219.675 12.644 218.667 13.088C217.659 13.52 216.729 14 215.877 14.528C216.525 14.672 217.215 14.918 217.947 15.266C218.679 15.614 219.357 16.052 219.981 16.58C220.605 17.108 221.085 17.72 221.421 18.416H221.259C221.235 18.14 221.211 17.864 221.187 17.588C221.175 17.312 221.169 16.982 221.169 16.598V11.468ZM216.867 20.108C216.567 20.108 216.309 20.012 216.093 19.82C215.889 19.628 215.787 19.376 215.787 19.064C215.787 18.752 215.889 18.494 216.093 18.29C216.309 18.086 216.567 17.984 216.867 17.984C217.167 17.984 217.419 18.086 217.623 18.29C217.839 18.494 217.947 18.752 217.947 19.064C217.947 19.376 217.839 19.628 217.623 19.82C217.419 20.012 217.167 20.108 216.867 20.108ZM238.115 8.804C238.103 8.312 237.983 7.958 237.755 7.742C237.539 7.526 237.179 7.418 236.675 7.418H234.155C233.375 7.418 232.769 7.364 232.337 7.256C231.917 7.148 231.557 6.98 231.257 6.752C230.933 6.512 230.687 6.206 230.519 5.834C230.363 5.45 230.285 5.018 230.285 4.538C230.285 4.382 230.291 4.226 230.303 4.07C230.327 3.914 230.351 3.752 230.375 3.584L231.707 3.674C231.683 3.818 231.665 3.944 231.653 4.052C231.641 4.16 231.635 4.262 231.635 4.358C231.635 4.622 231.659 4.856 231.707 5.06C231.767 5.264 231.857 5.432 231.977 5.564C232.145 5.756 232.385 5.9 232.697 5.996C233.009 6.08 233.465 6.122 234.065 6.122H236.297C236.933 6.122 237.437 6.17 237.809 6.266C238.181 6.362 238.499 6.536 238.763 6.788C238.967 6.98 239.123 7.244 239.231 7.58C239.339 7.904 239.399 8.312 239.411 8.804H238.115ZM241.967 8.804V10.082H235.379V13.304C235.379 13.652 235.433 13.91 235.541 14.078C235.649 14.234 235.817 14.312 236.045 14.312C236.273 14.312 236.507 14.24 236.747 14.096C236.999 13.952 237.269 13.724 237.557 13.412C237.845 13.1 238.157 12.698 238.493 12.206L239.573 12.044C239.957 12.608 240.251 13.19 240.455 13.79C240.671 14.39 240.779 14.99 240.779 15.59C240.779 16.346 240.611 17.024 240.275 17.624C239.951 18.224 239.465 18.698 238.817 19.046C238.181 19.394 237.401 19.568 236.477 19.568C235.685 19.568 234.947 19.43 234.263 19.154C233.579 18.878 232.949 18.434 232.373 17.822C231.797 17.198 231.269 16.382 230.789 15.374C230.309 14.354 229.877 13.106 229.493 11.63L230.861 11.27C231.293 12.938 231.767 14.282 232.283 15.302C232.811 16.31 233.411 17.048 234.083 17.516C234.755 17.972 235.529 18.2 236.405 18.2C237.365 18.2 238.103 17.96 238.619 17.48C239.147 17 239.411 16.382 239.411 15.626C239.411 15.086 239.333 14.624 239.177 14.24C239.033 13.856 238.841 13.538 238.601 13.286L239.429 12.944C239.069 13.556 238.697 14.06 238.313 14.456C237.941 14.852 237.563 15.152 237.179 15.356C236.807 15.548 236.435 15.644 236.063 15.644C235.787 15.644 235.529 15.608 235.289 15.536C235.049 15.452 234.845 15.332 234.677 15.176C234.485 15.008 234.323 14.774 234.191 14.474C234.059 14.162 233.993 13.646 233.993 12.926V10.082H228.791V8.804H241.967ZM254.853 8.804V10.082H252.963V20H251.577V12.872L251.973 14.024C251.481 13.304 251.031 12.692 250.623 12.188C250.215 11.672 249.825 11.252 249.453 10.928C249.093 10.604 248.727 10.37 248.355 10.226C247.983 10.07 247.581 9.992 247.149 9.992C246.669 9.992 246.231 10.082 245.835 10.262C245.451 10.442 245.097 10.682 244.773 10.982C244.449 11.282 244.149 11.606 243.873 11.954L243.729 11.99C243.921 11.87 244.107 11.78 244.287 11.72C244.479 11.66 244.689 11.63 244.917 11.63C245.613 11.63 246.123 11.822 246.447 12.206C246.771 12.578 246.933 13.04 246.933 13.592C246.933 13.724 246.927 13.85 246.915 13.97C246.903 14.09 246.885 14.18 246.861 14.24L246.555 14.132C246.699 13.976 246.837 13.826 246.969 13.682C247.101 13.538 247.239 13.394 247.383 13.25C247.539 13.106 247.695 12.956 247.851 12.8L250.083 10.712L250.965 11.666L245.853 16.49L244.791 15.5L246.267 14.096L245.619 14.87L245.079 15.284C245.259 15.08 245.409 14.864 245.529 14.636C245.661 14.396 245.727 14.126 245.727 13.826C245.727 13.526 245.637 13.286 245.457 13.106C245.277 12.926 245.013 12.836 244.665 12.836C244.473 12.836 244.287 12.86 244.107 12.908C243.927 12.956 243.741 13.04 243.549 13.16L242.181 11.864C242.661 11.228 243.153 10.676 243.657 10.208C244.161 9.728 244.689 9.356 245.241 9.092C245.793 8.816 246.387 8.678 247.023 8.678C247.695 8.678 248.301 8.804 248.841 9.056C249.381 9.308 249.903 9.686 250.407 10.19C250.911 10.682 251.439 11.306 251.991 12.062L251.667 11.972C251.631 11.684 251.607 11.372 251.595 11.036C251.583 10.7 251.577 10.34 251.577 9.956V7.616H252.531L252.945 8.804H254.853ZM265.578 8.804V10.082H263.688V20H262.302C261.942 19.28 261.444 18.62 260.808 18.02C260.184 17.408 259.464 16.892 258.648 16.472C257.832 16.052 256.962 15.77 256.038 15.626L255.336 13.898C256.488 13.202 257.676 12.572 258.9 12.008C260.136 11.444 261.408 10.964 262.716 10.568L262.302 11.324V10.082H254.49V8.804H265.578ZM262.302 11.468L262.68 11.972C261.768 12.272 260.808 12.644 259.8 13.088C258.792 13.52 257.862 14 257.01 14.528C257.658 14.672 258.348 14.918 259.08 15.266C259.812 15.614 260.49 16.052 261.114 16.58C261.738 17.108 262.218 17.72 262.554 18.416H262.392C262.368 18.14 262.344 17.864 262.32 17.588C262.308 17.312 262.302 16.982 262.302 16.598V11.468ZM258 20.108C257.7 20.108 257.442 20.012 257.226 19.82C257.022 19.628 256.92 19.376 256.92 19.064C256.92 18.752 257.022 18.494 257.226 18.29C257.442 18.086 257.7 17.984 258 17.984C258.3 17.984 258.552 18.086 258.756 18.29C258.972 18.494 259.08 18.752 259.08 19.064C259.08 19.376 258.972 19.628 258.756 19.82C258.552 20.012 258.3 20.108 258 20.108ZM282.56 8.804V10.082H280.67V20H279.284V13.646L279.698 14.78C279.326 14.288 279.002 13.91 278.726 13.646C278.462 13.382 278.204 13.25 277.952 13.25C277.784 13.25 277.628 13.298 277.484 13.394C277.34 13.49 277.178 13.676 276.998 13.952C276.818 14.216 276.578 14.624 276.278 15.176C275.954 15.764 275.66 16.25 275.396 16.634C275.132 17.006 274.85 17.282 274.55 17.462C274.262 17.63 273.908 17.714 273.488 17.714C273.164 17.714 272.852 17.648 272.552 17.516C272.264 17.384 271.97 17.168 271.67 16.868C271.382 16.556 271.07 16.136 270.734 15.608L271.832 14.942C272.156 15.518 272.426 15.896 272.642 16.076C272.858 16.256 273.092 16.346 273.344 16.346C273.548 16.346 273.74 16.286 273.92 16.166C274.112 16.034 274.316 15.812 274.532 15.5C274.76 15.188 275.018 14.762 275.306 14.222L275.72 13.628C276.032 12.98 276.332 12.536 276.62 12.296C276.908 12.044 277.226 11.918 277.574 11.918C277.97 11.918 278.324 12.032 278.636 12.26C278.96 12.476 279.332 12.812 279.752 13.268L279.392 13.286C279.344 13.01 279.314 12.752 279.302 12.512C279.29 12.26 279.284 12.008 279.284 11.756V10.082H269.924V8.804H282.56ZM274.982 15.122C274.862 14.306 274.736 13.658 274.604 13.178C274.484 12.698 274.268 12.326 273.956 12.062C273.656 11.786 273.248 11.582 272.732 11.45C272.216 11.306 271.568 11.186 270.788 11.09L271.058 9.722L272.03 10.082C272.714 10.19 273.284 10.328 273.74 10.496C274.196 10.664 274.562 10.886 274.838 11.162C275.126 11.426 275.342 11.756 275.486 12.152C275.63 12.548 275.726 13.028 275.774 13.592L274.982 15.122ZM287.341 8.804V10.082H285.451V20H284.065V11.558C283.921 11.15 283.705 10.802 283.417 10.514C283.141 10.226 282.781 10.082 282.337 10.082H282.193V8.804H282.463C282.751 8.804 283.051 8.9 283.363 9.092C283.675 9.272 283.927 9.554 284.119 9.938C284.107 9.878 284.095 9.74 284.083 9.524C284.071 9.308 284.065 9.122 284.065 8.966V7.616H285.037L285.433 8.804H287.341ZM292.122 8.804V10.082H290.232V20H288.846V10.082H286.974V8.804H288.63C288.438 8.576 288.24 8.336 288.036 8.084C287.844 7.832 287.67 7.58 287.514 7.328C287.922 6.62 288.36 5.978 288.828 5.402C289.296 4.814 289.848 4.352 290.484 4.016C291.12 3.668 291.888 3.494 292.788 3.494C293.424 3.494 294.03 3.572 294.606 3.728C295.194 3.884 295.77 4.112 296.334 4.412C296.898 4.7 297.468 5.054 298.044 5.474C298.62 5.882 299.22 6.338 299.844 6.842L299.088 7.814C298.26 7.142 297.51 6.584 296.838 6.14C296.178 5.696 295.542 5.366 294.93 5.15C294.33 4.922 293.688 4.808 293.004 4.808C292.344 4.808 291.768 4.922 291.276 5.15C290.796 5.378 290.376 5.696 290.016 6.104C289.668 6.512 289.35 6.986 289.062 7.526C289.158 7.706 289.29 7.904 289.458 8.12C289.626 8.336 289.818 8.564 290.034 8.804H292.122ZM306.642 8.804V10.082H300.792V11.198V11.486V20H299.406C299.058 19.292 298.572 18.626 297.948 18.002C297.324 17.378 296.61 16.856 295.806 16.436C295.014 16.004 294.18 15.734 293.304 15.626L292.602 13.898C293.766 13.226 294.93 12.626 296.094 12.098C297.258 11.57 298.494 11.102 299.802 10.694L299.406 11.45V10.082H291.756V8.804H306.642ZM299.406 11.594L299.784 12.116C299.172 12.284 298.536 12.506 297.876 12.782C297.228 13.058 296.592 13.346 295.968 13.646C295.356 13.946 294.792 14.24 294.276 14.528C294.948 14.66 295.638 14.912 296.346 15.284C297.066 15.656 297.72 16.112 298.308 16.652C298.908 17.18 299.352 17.756 299.64 18.38L299.496 18.416C299.472 18.14 299.448 17.864 299.424 17.588C299.412 17.312 299.406 16.982 299.406 16.598V11.594ZM305.634 14.816C305.634 15.212 305.556 15.59 305.4 15.95C305.244 16.298 304.986 16.586 304.626 16.814C304.266 17.042 303.786 17.156 303.186 17.156C302.994 17.156 302.808 17.15 302.628 17.138C302.46 17.126 302.292 17.102 302.124 17.066L302.232 15.77C302.304 15.782 302.388 15.794 302.484 15.806C302.592 15.806 302.712 15.806 302.844 15.806C303.42 15.806 303.792 15.698 303.96 15.482C304.14 15.254 304.23 14.984 304.23 14.672C304.23 14.036 303.918 13.496 303.294 13.052C302.682 12.596 301.77 12.284 300.558 12.116L300.612 10.766C301.536 10.862 302.376 11.096 303.132 11.468C303.888 11.828 304.494 12.296 304.95 12.872C305.406 13.436 305.634 14.084 305.634 14.816ZM317.507 8.804V10.082H315.617V20H314.231V15.626L314.519 16.634C314.123 16.082 313.691 15.584 313.223 15.14C312.755 14.696 312.275 14.342 311.783 14.078C311.291 13.814 310.811 13.682 310.343 13.682C309.899 13.682 309.521 13.802 309.209 14.042C308.909 14.27 308.759 14.612 308.759 15.068C308.759 15.428 308.885 15.74 309.137 16.004C309.389 16.256 309.779 16.484 310.307 16.688L309.623 17.966C308.891 17.666 308.315 17.264 307.895 16.76C307.487 16.244 307.283 15.662 307.283 15.014C307.283 14.426 307.421 13.94 307.697 13.556C307.985 13.16 308.345 12.866 308.777 12.674C309.221 12.482 309.671 12.386 310.127 12.386C310.751 12.386 311.321 12.494 311.837 12.71C312.353 12.926 312.833 13.22 313.277 13.592C313.733 13.964 314.165 14.396 314.573 14.888L314.321 14.96C314.285 14.684 314.261 14.414 314.249 14.15C314.237 13.874 314.231 13.598 314.231 13.322V10.082H306.275V8.804H317.507ZM333.819 8.804V10.082H331.929V20H330.543C330.087 19.34 329.547 18.722 328.923 18.146C328.299 17.558 327.585 17.054 326.781 16.634C325.989 16.202 325.095 15.896 324.099 15.716L323.685 14.042L324.621 14.672C325.629 14.864 326.511 15.152 327.267 15.536C328.035 15.908 328.695 16.334 329.247 16.814C329.799 17.282 330.243 17.762 330.579 18.254C330.567 17.978 330.555 17.702 330.543 17.426C330.543 17.15 330.543 16.85 330.543 16.526V7.616H331.497L331.911 8.804H333.819ZM325.827 8.75C326.583 8.75 327.213 8.882 327.717 9.146C328.221 9.398 328.599 9.746 328.851 10.19C329.103 10.622 329.229 11.108 329.229 11.648C329.229 12.584 328.839 13.346 328.059 13.934C327.291 14.522 326.229 14.894 324.873 15.05L324.009 14.87L323.685 14.042C324.693 13.97 325.497 13.826 326.097 13.61C326.697 13.382 327.123 13.1 327.375 12.764C327.639 12.416 327.771 12.032 327.771 11.612C327.771 11.096 327.603 10.7 327.267 10.424C326.931 10.148 326.439 10.01 325.791 10.01C325.191 10.01 324.759 10.13 324.495 10.37C324.243 10.598 324.117 10.844 324.117 11.108C324.117 11.276 324.159 11.432 324.243 11.576C324.339 11.72 324.501 11.852 324.729 11.972L323.937 13.088C323.709 12.932 323.499 12.764 323.307 12.584C323.127 12.392 322.983 12.17 322.875 11.918C322.767 11.666 322.713 11.378 322.713 11.054C322.713 10.634 322.833 10.25 323.073 9.902C323.313 9.554 323.667 9.278 324.135 9.074C324.603 8.858 325.167 8.75 325.827 8.75ZM338.599 8.804V10.082H336.709V20H335.323V11.558C335.179 11.15 334.963 10.802 334.675 10.514C334.399 10.226 334.039 10.082 333.595 10.082H333.451V8.804H333.721C334.009 8.804 334.309 8.9 334.621 9.092C334.933 9.272 335.185 9.554 335.377 9.938C335.365 9.878 335.353 9.74 335.341 9.524C335.329 9.308 335.323 9.122 335.323 8.966V7.616H336.295L336.691 8.804H338.599ZM353.118 8.804V10.082H347.268V11.198V11.486V20H345.882C345.534 19.292 345.048 18.626 344.424 18.002C343.8 17.378 343.086 16.856 342.282 16.436C341.49 16.004 340.656 15.734 339.78 15.626L339.078 13.898C340.242 13.226 341.406 12.626 342.57 12.098C343.734 11.57 344.97 11.102 346.278 10.694L345.882 11.45V10.082H338.232V8.804H353.118ZM345.882 11.594L346.26 12.116C345.648 12.284 345.012 12.506 344.352 12.782C343.704 13.058 343.068 13.346 342.444 13.646C341.832 13.946 341.268 14.24 340.752 14.528C341.424 14.66 342.114 14.912 342.822 15.284C343.542 15.656 344.196 16.112 344.784 16.652C345.384 17.18 345.828 17.756 346.116 18.38L345.972 18.416C345.948 18.14 345.924 17.864 345.9 17.588C345.888 17.312 345.882 16.982 345.882 16.598V11.594ZM352.11 14.816C352.11 15.212 352.032 15.59 351.876 15.95C351.72 16.298 351.462 16.586 351.102 16.814C350.742 17.042 350.262 17.156 349.662 17.156C349.47 17.156 349.284 17.15 349.104 17.138C348.936 17.126 348.768 17.102 348.6 17.066L348.708 15.77C348.78 15.782 348.864 15.794 348.96 15.806C349.068 15.806 349.188 15.806 349.32 15.806C349.896 15.806 350.268 15.698 350.436 15.482C350.616 15.254 350.706 14.984 350.706 14.672C350.706 14.036 350.394 13.496 349.77 13.052C349.158 12.596 348.246 12.284 347.034 12.116L347.088 10.766C348.012 10.862 348.852 11.096 349.608 11.468C350.364 11.828 350.97 12.296 351.426 12.872C351.882 13.436 352.11 14.084 352.11 14.816ZM359.34 8.804V10.082H358.98C358.608 10.166 358.206 10.352 357.774 10.64C357.342 10.916 356.934 11.282 356.55 11.738C356.166 12.182 355.848 12.704 355.596 13.304C355.356 13.904 355.236 14.564 355.236 15.284C355.236 16.148 355.362 16.838 355.614 17.354C355.878 17.858 356.202 18.218 356.586 18.434C356.97 18.65 357.354 18.758 357.738 18.758C358.038 18.758 358.29 18.728 358.494 18.668C358.698 18.608 358.932 18.5 359.196 18.344L359.826 19.442C359.514 19.682 359.172 19.85 358.8 19.946C358.428 20.042 358.056 20.09 357.684 20.09C356.928 20.09 356.256 19.892 355.668 19.496C355.092 19.1 354.636 18.548 354.3 17.84C353.976 17.12 353.814 16.28 353.814 15.32C353.814 14.336 354 13.448 354.372 12.656C354.744 11.852 355.242 11.174 355.866 10.622C356.502 10.07 357.204 9.668 357.972 9.416L356.82 10.01C356.604 10.034 356.37 10.052 356.118 10.064C355.866 10.076 355.584 10.082 355.272 10.082H352.752V8.804H359.34ZM372.492 8.804V10.082H370.602V20H369.216V13.97L369.324 14.438C369.06 14.054 368.778 13.748 368.478 13.52C368.19 13.292 367.872 13.178 367.524 13.178C367.344 13.178 367.158 13.214 366.966 13.286C366.786 13.346 366.63 13.466 366.498 13.646C366.378 13.826 366.318 14.102 366.318 14.474C366.318 14.606 366.318 14.726 366.318 14.834C366.33 14.93 366.342 15.026 366.354 15.122L365.184 15.212C365.136 14.72 365.004 14.306 364.788 13.97C364.572 13.622 364.308 13.358 363.996 13.178C363.684 12.998 363.348 12.908 362.988 12.908C362.664 12.908 362.388 12.974 362.16 13.106C361.932 13.226 361.758 13.394 361.638 13.61C361.518 13.814 361.458 14.048 361.458 14.312C361.458 14.792 361.632 15.2 361.98 15.536C362.34 15.872 362.844 16.154 363.492 16.382L363.006 17.714C362.43 17.534 361.914 17.288 361.458 16.976C361.002 16.664 360.642 16.28 360.378 15.824C360.114 15.368 359.982 14.84 359.982 14.24C359.982 13.7 360.114 13.238 360.378 12.854C360.642 12.458 360.996 12.152 361.44 11.936C361.884 11.72 362.37 11.612 362.898 11.612C363.534 11.612 364.08 11.732 364.536 11.972C364.992 12.2 365.412 12.572 365.796 13.088L365.526 13.106C365.646 12.71 365.874 12.41 366.21 12.206C366.558 11.99 366.918 11.882 367.29 11.882C367.722 11.882 368.094 11.966 368.406 12.134C368.718 12.302 369.06 12.542 369.432 12.854L369.27 13.124C369.258 12.872 369.246 12.62 369.234 12.368C369.222 12.116 369.216 11.858 369.216 11.594V10.082H358.974V8.804H372.492ZM7.408 35.804V37.082H7.048C6.676 37.166 6.274 37.352 5.842 37.64C5.41 37.916 5.002 38.282 4.618 38.738C4.234 39.182 3.916 39.704 3.664 40.304C3.424 40.904 3.304 41.564 3.304 42.284C3.304 43.148 3.43 43.838 3.682 44.354C3.946 44.858 4.27 45.218 4.654 45.434C5.038 45.65 5.422 45.758 5.806 45.758C6.106 45.758 6.358 45.728 6.562 45.668C6.766 45.608 7 45.5 7.264 45.344L7.894 46.442C7.582 46.682 7.24 46.85 6.868 46.946C6.496 47.042 6.118 47.09 5.734 47.09C4.978 47.09 4.312 46.892 3.736 46.496C3.16 46.1 2.704 45.548 2.368 44.84C2.044 44.12 1.882 43.28 1.882 42.32C1.882 41.396 2.026 40.574 2.314 39.854C2.614 39.122 2.998 38.486 3.466 37.946C3.946 37.406 4.462 36.962 5.014 36.614C5.566 36.254 6.1 35.984 6.616 35.804H7.408ZM19.6787 35.804V37.082H17.7887V47H16.4027V40.646L16.8167 41.78C16.4447 41.288 16.1207 40.91 15.8447 40.646C15.5807 40.382 15.3227 40.25 15.0707 40.25C14.9027 40.25 14.7467 40.298 14.6027 40.394C14.4587 40.49 14.2967 40.676 14.1167 40.952C13.9367 41.216 13.6967 41.624 13.3967 42.176C13.0727 42.764 12.7787 43.25 12.5147 43.634C12.2507 44.006 11.9687 44.282 11.6687 44.462C11.3807 44.63 11.0267 44.714 10.6067 44.714C10.2827 44.714 9.97066 44.648 9.67066 44.516C9.38266 44.384 9.08866 44.168 8.78866 43.868C8.50066 43.556 8.18866 43.136 7.85266 42.608L8.95066 41.942C9.27466 42.518 9.54466 42.896 9.76066 43.076C9.97666 43.256 10.2107 43.346 10.4627 43.346C10.6667 43.346 10.8587 43.286 11.0387 43.166C11.2307 43.034 11.4347 42.812 11.6507 42.5C11.8787 42.188 12.1367 41.762 12.4247 41.222L12.8387 40.628C13.1507 39.98 13.4507 39.536 13.7387 39.296C14.0267 39.044 14.3447 38.918 14.6927 38.918C15.0887 38.918 15.4427 39.032 15.7547 39.26C16.0787 39.476 16.4507 39.812 16.8707 40.268L16.5107 40.286C16.4627 40.01 16.4327 39.752 16.4207 39.512C16.4087 39.26 16.4027 39.008 16.4027 38.756V37.082H7.04266V35.804H19.6787ZM12.1007 42.122C11.9807 41.306 11.8547 40.658 11.7227 40.178C11.6027 39.698 11.3867 39.326 11.0747 39.062C10.7747 38.786 10.3667 38.582 9.85066 38.45C9.33466 38.306 8.68666 38.186 7.90666 38.09L8.17666 36.722L9.14866 37.082C9.83266 37.19 10.4027 37.328 10.8587 37.496C11.3147 37.664 11.6807 37.886 11.9567 38.162C12.2447 38.426 12.4607 38.756 12.6047 39.152C12.7487 39.548 12.8447 40.028 12.8927 40.592L12.1007 42.122ZM32.2002 35.804V37.082H30.3102V47H28.9242C28.5882 46.508 28.2042 46.034 27.7722 45.578C27.3402 45.122 26.8602 44.702 26.3322 44.318C25.8042 43.934 25.2222 43.604 24.5862 43.328C23.9502 43.052 23.2482 42.848 22.4802 42.716L22.0482 41.042L22.9122 41.672C24.0282 41.864 24.9702 42.158 25.7382 42.554C26.5182 42.938 27.1662 43.37 27.6822 43.85C28.2102 44.33 28.6362 44.798 28.9602 45.254C28.9482 44.978 28.9362 44.702 28.9242 44.426C28.9242 44.15 28.9242 43.85 28.9242 43.526V34.616H29.8782L30.2922 35.804H32.2002ZM27.5922 38.54C27.5922 39.236 27.4002 39.83 27.0162 40.322C26.6442 40.802 26.1282 41.186 25.4682 41.474C24.8202 41.75 24.0822 41.936 23.2542 42.032L22.4082 41.87L22.0482 41.042C23.0202 40.97 23.8122 40.832 24.4242 40.628C25.0482 40.412 25.5042 40.136 25.7922 39.8C26.0922 39.452 26.2422 39.056 26.2422 38.612C26.2422 38.24 26.1582 37.904 25.9902 37.604C25.8222 37.304 25.5522 37.01 25.1802 36.722L26.1702 35.75C26.5782 36.122 26.9142 36.548 27.1782 37.028C27.4542 37.496 27.5922 38 27.5922 38.54ZM22.7682 39.26C22.0362 39.26 21.4542 39.074 21.0222 38.702C20.5902 38.318 20.3742 37.796 20.3742 37.136C20.3742 36.86 20.4102 36.596 20.4822 36.344C20.5662 36.092 20.6622 35.876 20.7702 35.696L22.1382 36.074C22.0542 36.194 21.9822 36.344 21.9222 36.524C21.8622 36.692 21.8322 36.872 21.8322 37.064C21.8322 37.376 21.9162 37.61 22.0842 37.766C22.2642 37.91 22.4922 37.982 22.7682 37.982C23.0082 37.982 23.2602 37.934 23.5242 37.838C23.7882 37.742 24.0582 37.55 24.3342 37.262C24.6222 36.974 24.9042 36.548 25.1802 35.984L26.1702 35.75L26.2062 36.65C25.9662 37.178 25.6782 37.64 25.3422 38.036C25.0062 38.42 24.6222 38.72 24.1902 38.936C23.7702 39.152 23.2962 39.26 22.7682 39.26ZM36.9934 35.804V37.082H35.1034V47H33.7174V38.558C33.5734 38.15 33.3574 37.802 33.0694 37.514C32.7934 37.226 32.4334 37.082 31.9894 37.082H31.8454V35.804H32.1154C32.4034 35.804 32.7034 35.9 33.0154 36.092C33.3274 36.272 33.5794 36.554 33.7714 36.938C33.7594 36.878 33.7474 36.74 33.7354 36.524C33.7234 36.308 33.7174 36.122 33.7174 35.966V34.616H34.6894L35.0854 35.804H36.9934ZM43.2146 35.804V37.082H42.8546C42.4826 37.166 42.0806 37.352 41.6486 37.64C41.2166 37.916 40.8086 38.282 40.4246 38.738C40.0406 39.182 39.7226 39.704 39.4706 40.304C39.2306 40.904 39.1106 41.564 39.1106 42.284C39.1106 43.148 39.2366 43.838 39.4886 44.354C39.7526 44.858 40.0766 45.218 40.4606 45.434C40.8446 45.65 41.2286 45.758 41.6126 45.758C41.9126 45.758 42.1646 45.728 42.3686 45.668C42.5726 45.608 42.8066 45.5 43.0706 45.344L43.7006 46.442C43.3886 46.682 43.0466 46.85 42.6746 46.946C42.3026 47.042 41.9306 47.09 41.5586 47.09C40.8026 47.09 40.1306 46.892 39.5426 46.496C38.9666 46.1 38.5106 45.548 38.1746 44.84C37.8506 44.12 37.6886 43.28 37.6886 42.32C37.6886 41.336 37.8746 40.448 38.2466 39.656C38.6186 38.852 39.1166 38.174 39.7406 37.622C40.3766 37.07 41.0786 36.668 41.8466 36.416L40.6946 37.01C40.4786 37.034 40.2446 37.052 39.9926 37.064C39.7406 37.076 39.4586 37.082 39.1466 37.082H36.6266V35.804H43.2146ZM54.0813 35.804V37.082H52.1913V47H50.8053V42.626L51.0933 43.634C50.6973 43.082 50.2653 42.584 49.7973 42.14C49.3293 41.696 48.8493 41.342 48.3573 41.078C47.8653 40.814 47.3853 40.682 46.9173 40.682C46.4733 40.682 46.0953 40.802 45.7833 41.042C45.4833 41.27 45.3333 41.612 45.3333 42.068C45.3333 42.428 45.4593 42.74 45.7113 43.004C45.9633 43.256 46.3533 43.484 46.8813 43.688L46.1973 44.966C45.4653 44.666 44.8893 44.264 44.4693 43.76C44.0613 43.244 43.8573 42.662 43.8573 42.014C43.8573 41.426 43.9953 40.94 44.2713 40.556C44.5593 40.16 44.9193 39.866 45.3513 39.674C45.7953 39.482 46.2453 39.386 46.7013 39.386C47.3253 39.386 47.8953 39.494 48.4113 39.71C48.9273 39.926 49.4073 40.22 49.8513 40.592C50.3073 40.964 50.7393 41.396 51.1473 41.888L50.8953 41.96C50.8593 41.684 50.8353 41.414 50.8233 41.15C50.8113 40.874 50.8053 40.598 50.8053 40.322V37.082H42.8493V35.804H54.0813ZM67.7475 35.804C67.7355 35.312 67.6155 34.958 67.3875 34.742C67.1715 34.526 66.8115 34.418 66.3075 34.418H63.7875C63.0075 34.418 62.4015 34.364 61.9695 34.256C61.5495 34.148 61.1895 33.98 60.8895 33.752C60.5655 33.512 60.3195 33.206 60.1515 32.834C59.9955 32.45 59.9175 32.018 59.9175 31.538C59.9175 31.382 59.9235 31.226 59.9355 31.07C59.9595 30.914 59.9835 30.752 60.0075 30.584L61.3395 30.674C61.3155 30.818 61.2975 30.944 61.2855 31.052C61.2735 31.16 61.2675 31.262 61.2675 31.358C61.2675 31.622 61.2915 31.856 61.3395 32.06C61.3995 32.264 61.4895 32.432 61.6095 32.564C61.7775 32.756 62.0175 32.9 62.3295 32.996C62.6415 33.08 63.0975 33.122 63.6975 33.122H65.9295C66.5655 33.122 67.0695 33.17 67.4415 33.266C67.8135 33.362 68.1315 33.536 68.3955 33.788C68.5995 33.98 68.7555 34.244 68.8635 34.58C68.9715 34.904 69.0315 35.312 69.0435 35.804H67.7475ZM71.5995 35.804V37.082H65.0115V40.304C65.0115 40.652 65.0655 40.91 65.1735 41.078C65.2815 41.234 65.4495 41.312 65.6775 41.312C65.9055 41.312 66.1395 41.24 66.3795 41.096C66.6315 40.952 66.9015 40.724 67.1895 40.412C67.4775 40.1 67.7895 39.698 68.1255 39.206L69.2055 39.044C69.5895 39.608 69.8835 40.19 70.0875 40.79C70.3035 41.39 70.4115 41.99 70.4115 42.59C70.4115 43.346 70.2435 44.024 69.9075 44.624C69.5835 45.224 69.0975 45.698 68.4495 46.046C67.8135 46.394 67.0335 46.568 66.1095 46.568C65.3175 46.568 64.5795 46.43 63.8955 46.154C63.2115 45.878 62.5815 45.434 62.0055 44.822C61.4295 44.198 60.9015 43.382 60.4215 42.374C59.9415 41.354 59.5095 40.106 59.1255 38.63L60.4935 38.27C60.9255 39.938 61.3995 41.282 61.9155 42.302C62.4435 43.31 63.0435 44.048 63.7155 44.516C64.3875 44.972 65.1615 45.2 66.0375 45.2C66.9975 45.2 67.7355 44.96 68.2515 44.48C68.7795 44 69.0435 43.382 69.0435 42.626C69.0435 42.086 68.9655 41.624 68.8095 41.24C68.6655 40.856 68.4735 40.538 68.2335 40.286L69.0615 39.944C68.7015 40.556 68.3295 41.06 67.9455 41.456C67.5735 41.852 67.1955 42.152 66.8115 42.356C66.4395 42.548 66.0675 42.644 65.6955 42.644C65.4195 42.644 65.1615 42.608 64.9215 42.536C64.6815 42.452 64.4775 42.332 64.3095 42.176C64.1175 42.008 63.9555 41.774 63.8235 41.474C63.6915 41.162 63.6255 40.646 63.6255 39.926V37.082H58.4235V35.804H71.5995ZM76.674 35.804V37.082H74.28V37.82L74.19 38.306C74.214 38.438 74.232 38.636 74.244 38.9C74.268 39.164 74.28 39.452 74.28 39.764V42.068C74.28 42.62 74.358 42.998 74.514 43.202C74.67 43.406 74.958 43.508 75.378 43.508C75.798 43.508 76.188 43.424 76.548 43.256C76.92 43.088 77.244 42.872 77.52 42.608C77.796 42.356 78.018 42.062 78.186 41.726C78.366 41.39 78.456 41.054 78.456 40.718C78.456 40.382 78.36 40.166 78.168 40.07C77.976 39.962 77.706 39.908 77.358 39.908H77.25C76.734 39.908 76.338 39.884 76.062 39.836C75.798 39.776 75.528 39.68 75.252 39.548C75.024 39.44 74.802 39.302 74.586 39.134C74.37 38.966 74.196 38.804 74.064 38.648L74.262 37.406C74.478 37.67 74.706 37.898 74.946 38.09C75.198 38.27 75.492 38.408 75.828 38.504C76.164 38.588 76.578 38.63 77.07 38.63H77.376C77.868 38.63 78.228 38.672 78.456 38.756C78.696 38.828 78.894 38.918 79.05 39.026C79.29 39.182 79.458 39.386 79.554 39.638C79.662 39.878 79.716 40.184 79.716 40.556C79.716 40.952 79.644 41.342 79.5 41.726C79.368 42.11 79.182 42.47 78.942 42.806C78.714 43.142 78.45 43.442 78.15 43.706C77.754 44.042 77.316 44.3 76.836 44.48C76.368 44.66 75.846 44.75 75.27 44.75C74.862 44.75 74.514 44.702 74.226 44.606C73.95 44.498 73.716 44.36 73.524 44.192C73.356 44.024 73.206 43.802 73.074 43.526C72.954 43.238 72.894 42.77 72.894 42.122V37.082H71.238V35.804H76.674ZM87.114 35.804V37.082H79.824V37.622L79.752 38.756C79.776 38.912 79.794 39.128 79.806 39.404C79.818 39.68 79.824 39.944 79.824 40.196V43.31C79.824 43.838 79.854 44.21 79.914 44.426C79.974 44.642 80.046 44.798 80.13 44.894C80.346 45.146 80.676 45.272 81.12 45.272C81.6 45.272 82.044 45.158 82.452 44.93C82.86 44.702 83.226 44.42 83.55 44.084C83.886 43.724 84.144 43.346 84.324 42.95C84.516 42.542 84.612 42.116 84.612 41.672C84.612 41.276 84.498 41.018 84.27 40.898C84.054 40.778 83.748 40.718 83.352 40.718H83.262C82.71 40.718 82.266 40.676 81.93 40.592C81.594 40.496 81.27 40.37 80.958 40.214C80.682 40.058 80.424 39.878 80.184 39.674C79.956 39.458 79.77 39.218 79.626 38.954L79.806 37.388C80.058 37.82 80.322 38.186 80.598 38.486C80.886 38.774 81.234 38.996 81.642 39.152C82.062 39.308 82.59 39.386 83.226 39.386H83.514C83.97 39.386 84.318 39.416 84.558 39.476C84.81 39.536 85.032 39.626 85.224 39.746C85.5 39.914 85.704 40.148 85.836 40.448C85.968 40.736 86.034 41.084 86.034 41.492C86.034 42.224 85.86 42.926 85.512 43.598C85.164 44.27 84.726 44.834 84.198 45.29C83.742 45.686 83.256 45.998 82.74 46.226C82.224 46.454 81.648 46.568 81.012 46.568C80.568 46.568 80.19 46.502 79.878 46.37C79.566 46.238 79.308 46.07 79.104 45.866C78.912 45.638 78.75 45.362 78.618 45.038C78.498 44.714 78.438 44.222 78.438 43.562V42.194L78.78 41.69L78.438 39.494V37.082H76.458V35.804H87.114ZM91.9075 35.804V37.082H90.0175V47H88.6315V38.558C88.4875 38.15 88.2715 37.802 87.9835 37.514C87.7075 37.226 87.3475 37.082 86.9035 37.082H86.7595V35.804H87.0295C87.3175 35.804 87.6175 35.9 87.9295 36.092C88.2415 36.272 88.4935 36.554 88.6855 36.938C88.6735 36.878 88.6615 36.74 88.6495 36.524C88.6375 36.308 88.6315 36.122 88.6315 35.966V34.616H89.6035L89.9995 35.804H91.9075ZM102.629 35.804V37.082H100.739V47H99.3527C98.9927 46.28 98.4947 45.62 97.8587 45.02C97.2347 44.408 96.5147 43.892 95.6987 43.472C94.8827 43.052 94.0127 42.77 93.0887 42.626L92.3867 40.898C93.5387 40.202 94.7267 39.572 95.9507 39.008C97.1867 38.444 98.4587 37.964 99.7667 37.568L99.3527 38.324V37.082H91.5407V35.804H102.629ZM99.3527 38.468L99.7307 38.972C98.8187 39.272 97.8587 39.644 96.8507 40.088C95.8427 40.52 94.9127 41 94.0607 41.528C94.7087 41.672 95.3987 41.918 96.1307 42.266C96.8627 42.614 97.5407 43.052 98.1647 43.58C98.7887 44.108 99.2687 44.72 99.6047 45.416H99.4427C99.4187 45.14 99.3947 44.864 99.3707 44.588C99.3587 44.312 99.3527 43.982 99.3527 43.598V38.468ZM95.0507 47.108C94.7507 47.108 94.4927 47.012 94.2767 46.82C94.0727 46.628 93.9707 46.376 93.9707 46.064C93.9707 45.752 94.0727 45.494 94.2767 45.29C94.4927 45.086 94.7507 44.984 95.0507 44.984C95.3507 44.984 95.6027 45.086 95.8067 45.29C96.0227 45.494 96.1307 45.752 96.1307 46.064C96.1307 46.376 96.0227 46.628 95.8067 46.82C95.6027 47.012 95.3507 47.108 95.0507 47.108ZM113.783 35.804V37.082H111.893V47H110.507V39.35L110.867 40.466C110.315 39.662 109.793 39.008 109.301 38.504C108.809 37.988 108.329 37.61 107.861 37.37C107.393 37.118 106.919 36.992 106.439 36.992C106.067 36.992 105.743 37.064 105.467 37.208C105.203 37.352 104.999 37.55 104.855 37.802C104.711 38.042 104.639 38.33 104.639 38.666C104.639 39.05 104.729 39.374 104.909 39.638C105.101 39.902 105.395 40.112 105.791 40.268C106.199 40.424 106.733 40.538 107.393 40.61L107.285 42.104C106.493 42.032 105.785 41.864 105.161 41.6C104.549 41.324 104.063 40.946 103.703 40.466C103.343 39.974 103.163 39.38 103.163 38.684C103.163 38.036 103.307 37.49 103.595 37.046C103.883 36.59 104.261 36.248 104.729 36.02C105.197 35.792 105.701 35.678 106.241 35.678C106.865 35.678 107.429 35.786 107.933 36.002C108.449 36.218 108.947 36.536 109.427 36.956C109.907 37.364 110.399 37.874 110.903 38.486L110.615 38.414C110.579 38.21 110.549 37.94 110.525 37.604C110.513 37.256 110.507 36.932 110.507 36.632V34.616H111.461L111.875 35.804H113.783ZM127.514 35.696C128.006 35.696 128.414 35.75 128.738 35.858C129.074 35.954 129.356 36.104 129.584 36.308C129.812 36.5 129.992 36.74 130.124 37.028C130.256 37.304 130.322 37.688 130.322 38.18V47H128.972C128.876 46.64 128.738 46.346 128.558 46.118C128.378 45.89 128.156 45.722 127.892 45.614C127.64 45.494 127.334 45.434 126.974 45.434C126.542 45.434 126.14 45.458 125.768 45.506C125.396 45.554 125.006 45.608 124.598 45.668C124.202 45.716 123.74 45.74 123.212 45.74C122.804 45.74 122.366 45.698 121.898 45.614C121.43 45.518 120.986 45.344 120.566 45.092C120.146 44.84 119.804 44.468 119.54 43.976C119.276 43.472 119.144 42.812 119.144 41.996C119.144 41.708 119.168 41.408 119.216 41.096C119.264 40.772 119.312 40.478 119.36 40.214L120.746 40.412C120.698 40.592 120.65 40.808 120.602 41.06C120.566 41.312 120.548 41.612 120.548 41.96C120.548 42.488 120.626 42.914 120.782 43.238C120.938 43.562 121.148 43.808 121.412 43.976C121.676 44.144 121.97 44.258 122.294 44.318C122.618 44.378 122.948 44.408 123.284 44.408C123.884 44.408 124.43 44.36 124.922 44.264C125.426 44.156 125.99 44.102 126.614 44.102C127.13 44.102 127.58 44.18 127.964 44.336C128.348 44.48 128.672 44.732 128.936 45.092V38.666C128.936 38.222 128.906 37.904 128.846 37.712C128.786 37.52 128.69 37.364 128.558 37.244C128.342 37.064 128.012 36.974 127.568 36.974C127.136 36.974 126.722 37.07 126.326 37.262C125.942 37.454 125.594 37.7 125.282 38C124.982 38.3 124.742 38.624 124.562 38.972C124.394 39.308 124.31 39.626 124.31 39.926C124.31 40.046 124.334 40.172 124.382 40.304C124.43 40.436 124.532 40.55 124.688 40.646C124.844 40.742 125.072 40.79 125.372 40.79C125.504 40.79 125.63 40.784 125.75 40.772C125.87 40.76 125.996 40.748 126.128 40.736L126.254 41.996C126.134 42.044 125.972 42.08 125.768 42.104C125.576 42.128 125.348 42.14 125.084 42.14C124.496 42.14 123.98 41.96 123.536 41.6C123.104 41.24 122.888 40.688 122.888 39.944C122.888 39.464 123.008 38.978 123.248 38.486C123.5 37.982 123.842 37.52 124.274 37.1C124.706 36.68 125.198 36.344 125.75 36.092C126.314 35.828 126.902 35.696 127.514 35.696ZM146.663 35.804V37.082H140.813V38.198V38.486V47H139.427C139.079 46.292 138.593 45.626 137.969 45.002C137.345 44.378 136.631 43.856 135.827 43.436C135.035 43.004 134.201 42.734 133.325 42.626L132.623 40.898C133.787 40.226 134.951 39.626 136.115 39.098C137.279 38.57 138.515 38.102 139.823 37.694L139.427 38.45V37.082H131.777V35.804H146.663ZM139.427 38.594L139.805 39.116C139.193 39.284 138.557 39.506 137.897 39.782C137.249 40.058 136.613 40.346 135.989 40.646C135.377 40.946 134.813 41.24 134.297 41.528C134.969 41.66 135.659 41.912 136.367 42.284C137.087 42.656 137.741 43.112 138.329 43.652C138.929 44.18 139.373 44.756 139.661 45.38L139.517 45.416C139.493 45.14 139.469 44.864 139.445 44.588C139.433 44.312 139.427 43.982 139.427 43.598V38.594ZM145.655 41.816C145.655 42.212 145.577 42.59 145.421 42.95C145.265 43.298 145.007 43.586 144.647 43.814C144.287 44.042 143.807 44.156 143.207 44.156C143.015 44.156 142.829 44.15 142.649 44.138C142.481 44.126 142.313 44.102 142.145 44.066L142.253 42.77C142.325 42.782 142.409 42.794 142.505 42.806C142.613 42.806 142.733 42.806 142.865 42.806C143.441 42.806 143.813 42.698 143.981 42.482C144.161 42.254 144.251 41.984 144.251 41.672C144.251 41.036 143.939 40.496 143.315 40.052C142.703 39.596 141.791 39.284 140.579 39.116L140.633 37.766C141.557 37.862 142.397 38.096 143.153 38.468C143.909 38.828 144.515 39.296 144.971 39.872C145.427 40.436 145.655 41.084 145.655 41.816ZM156.863 35.804V37.082H149.573V43.31C149.573 43.838 149.603 44.21 149.663 44.426C149.723 44.642 149.795 44.798 149.879 44.894C150.095 45.146 150.425 45.272 150.869 45.272C151.337 45.272 151.781 45.158 152.201 44.93C152.621 44.702 152.987 44.42 153.299 44.084C153.647 43.712 153.911 43.316 154.091 42.896C154.283 42.476 154.379 42.05 154.379 41.618C154.379 41.234 154.283 40.946 154.091 40.754C153.899 40.55 153.581 40.448 153.137 40.448C152.993 40.448 152.837 40.46 152.669 40.484C152.501 40.508 152.339 40.538 152.183 40.574L151.985 39.296C152.213 39.236 152.447 39.188 152.687 39.152C152.939 39.116 153.203 39.098 153.479 39.098C153.923 39.098 154.319 39.182 154.667 39.35C155.015 39.518 155.285 39.782 155.477 40.142C155.681 40.502 155.783 40.97 155.783 41.546C155.783 42.254 155.609 42.944 155.261 43.616C154.913 44.276 154.475 44.834 153.947 45.29C153.503 45.674 153.017 45.986 152.489 46.226C151.973 46.454 151.403 46.568 150.779 46.568C150.335 46.568 149.951 46.502 149.627 46.37C149.315 46.238 149.057 46.07 148.853 45.866C148.661 45.638 148.499 45.362 148.367 45.038C148.247 44.714 148.187 44.222 148.187 43.562V37.082H146.297V35.804H156.863ZM153.587 35.804C153.575 35.312 153.455 34.958 153.227 34.742C153.011 34.526 152.651 34.418 152.147 34.418H150.455C149.675 34.418 149.069 34.364 148.637 34.256C148.217 34.148 147.857 33.98 147.557 33.752C147.233 33.512 146.987 33.206 146.819 32.834C146.663 32.45 146.585 32.018 146.585 31.538C146.585 31.382 146.591 31.232 146.603 31.088C146.627 30.932 146.651 30.764 146.675 30.584L148.007 30.674C147.983 30.806 147.965 30.926 147.953 31.034C147.941 31.13 147.935 31.238 147.935 31.358C147.935 31.622 147.959 31.856 148.007 32.06C148.067 32.264 148.157 32.432 148.277 32.564C148.445 32.756 148.685 32.9 148.997 32.996C149.321 33.08 149.777 33.122 150.365 33.122H151.769C152.405 33.122 152.909 33.17 153.281 33.266C153.653 33.362 153.971 33.536 154.235 33.788C154.439 33.98 154.595 34.244 154.703 34.58C154.811 34.904 154.871 35.312 154.883 35.804H153.587ZM150.047 51.788C149.723 51.788 149.369 51.716 148.985 51.572C148.601 51.44 148.277 51.224 148.013 50.924C147.737 50.624 147.599 50.222 147.599 49.718C147.599 49.106 147.833 48.614 148.301 48.242C148.769 47.882 149.423 47.702 150.263 47.702C151.007 47.702 151.727 47.834 152.423 48.098C153.107 48.374 153.809 48.752 154.529 49.232C155.237 49.712 155.993 50.27 156.797 50.906L155.987 51.878C155.183 51.206 154.451 50.648 153.791 50.204C153.131 49.76 152.507 49.424 151.919 49.196C151.331 48.968 150.749 48.854 150.173 48.854C149.741 48.854 149.417 48.938 149.201 49.106C148.985 49.274 148.877 49.49 148.877 49.754C148.877 50.09 148.997 50.324 149.237 50.456C149.465 50.6 149.735 50.672 150.047 50.672C150.491 50.672 150.851 50.576 151.127 50.384C151.391 50.204 151.595 49.976 151.739 49.7C151.883 49.424 151.979 49.136 152.027 48.836C152.075 48.548 152.099 48.29 152.099 48.062V45.542H153.377V47.846C153.377 48.17 153.341 48.554 153.269 48.998C153.197 49.442 153.053 49.874 152.837 50.294C152.609 50.726 152.273 51.08 151.829 51.356C151.385 51.644 150.791 51.788 150.047 51.788ZM175.17 35.804V37.082H173.28V47H171.894V39.872L172.29 41.024C171.798 40.304 171.348 39.692 170.94 39.188C170.532 38.672 170.142 38.252 169.77 37.928C169.41 37.604 169.044 37.37 168.672 37.226C168.3 37.07 167.898 36.992 167.466 36.992C166.986 36.992 166.548 37.082 166.152 37.262C165.768 37.442 165.414 37.682 165.09 37.982C164.766 38.282 164.466 38.606 164.19 38.954L164.046 38.99C164.238 38.87 164.424 38.78 164.604 38.72C164.796 38.66 165.006 38.63 165.234 38.63C165.942 38.63 166.452 38.822 166.764 39.206C167.088 39.578 167.25 40.04 167.25 40.592C167.25 40.724 167.244 40.85 167.232 40.97C167.22 41.09 167.202 41.18 167.178 41.24L166.872 41.132C167.016 40.976 167.154 40.826 167.286 40.682C167.418 40.538 167.556 40.394 167.7 40.25C167.856 40.106 168.012 39.956 168.168 39.8L170.4 37.712L171.282 38.666L166.17 43.49L165.108 42.5L166.584 41.096L165.936 41.87L165.396 42.284C165.576 42.08 165.726 41.864 165.846 41.636C165.978 41.396 166.044 41.126 166.044 40.826C166.044 40.526 165.954 40.286 165.774 40.106C165.594 39.926 165.33 39.836 164.982 39.836C164.79 39.836 164.604 39.86 164.424 39.908C164.244 39.956 164.058 40.04 163.866 40.16L162.498 38.864C162.978 38.228 163.47 37.676 163.974 37.208C164.478 36.728 165.006 36.356 165.558 36.092C166.11 35.816 166.704 35.678 167.34 35.678C168.012 35.678 168.612 35.804 169.14 36.056C169.68 36.308 170.202 36.686 170.706 37.19C171.222 37.682 171.756 38.306 172.308 39.062L171.984 38.972C171.948 38.684 171.924 38.372 171.912 38.036C171.9 37.7 171.894 37.34 171.894 36.956V34.616H172.848L173.262 35.804H175.17ZM173.28 47.774H171.93C171.81 47.414 171.654 47.12 171.462 46.892C171.282 46.664 171.066 46.496 170.814 46.388C170.562 46.28 170.274 46.226 169.95 46.226C169.326 46.226 168.72 46.28 168.132 46.388C167.556 46.484 166.926 46.532 166.242 46.532C165.81 46.532 165.36 46.49 164.892 46.406C164.424 46.322 163.986 46.166 163.578 45.938C163.17 45.71 162.84 45.374 162.588 44.93C162.336 44.486 162.21 43.904 162.21 43.184C162.21 42.992 162.222 42.776 162.246 42.536C162.27 42.296 162.312 42.062 162.372 41.834L163.758 42.014C163.71 42.158 163.674 42.338 163.65 42.554C163.626 42.758 163.614 42.974 163.614 43.202C163.614 43.694 163.716 44.09 163.92 44.39C164.136 44.69 164.442 44.906 164.838 45.038C165.234 45.17 165.702 45.236 166.242 45.236C166.806 45.236 167.364 45.188 167.916 45.092C168.468 44.984 169.044 44.93 169.644 44.93C170.1 44.93 170.52 45.008 170.904 45.164C171.288 45.308 171.618 45.554 171.894 45.902V44.282H173.28V47.774ZM179.956 35.804V37.082H178.066V47H176.68V37.082H174.808V35.804H176.464C176.272 35.576 176.074 35.336 175.87 35.084C175.678 34.832 175.504 34.58 175.348 34.328C175.756 33.62 176.194 32.978 176.662 32.402C177.13 31.814 177.682 31.352 178.318 31.016C178.954 30.668 179.722 30.494 180.622 30.494C181.258 30.494 181.864 30.572 182.44 30.728C183.028 30.884 183.604 31.112 184.168 31.412C184.732 31.7 185.302 32.054 185.878 32.474C186.454 32.882 187.054 33.338 187.678 33.842L186.922 34.814C186.094 34.142 185.344 33.584 184.672 33.14C184.012 32.696 183.376 32.366 182.764 32.15C182.164 31.922 181.522 31.808 180.838 31.808C180.178 31.808 179.602 31.922 179.11 32.15C178.63 32.378 178.21 32.696 177.85 33.104C177.502 33.512 177.184 33.986 176.896 34.526C176.992 34.706 177.124 34.904 177.292 35.12C177.46 35.336 177.652 35.564 177.868 35.804H179.956ZM187.096 46.1C186.112 46.1 185.194 45.86 184.342 45.38C183.49 44.888 182.722 44.096 182.038 43.004C181.366 41.912 180.784 40.448 180.292 38.612L181.66 38.252C182.08 39.74 182.536 40.964 183.028 41.924C183.532 42.884 184.108 43.592 184.756 44.048C185.416 44.504 186.184 44.732 187.06 44.732C187.624 44.732 188.098 44.666 188.482 44.534C188.866 44.39 189.172 44.192 189.4 43.94C189.64 43.688 189.814 43.4 189.922 43.076C190.03 42.74 190.084 42.38 190.084 41.996C190.084 41.492 189.988 41.036 189.796 40.628C189.604 40.208 189.334 39.878 188.986 39.638C188.638 39.398 188.23 39.278 187.762 39.278C187.282 39.278 186.934 39.38 186.718 39.584C186.514 39.788 186.412 40.058 186.412 40.394C186.412 40.514 186.424 40.64 186.448 40.772C186.472 40.904 186.514 41.054 186.574 41.222L185.188 41.492C185.116 41.264 185.056 41.042 185.008 40.826C184.972 40.61 184.954 40.388 184.954 40.16C184.954 39.692 185.068 39.302 185.296 38.99C185.536 38.666 185.86 38.42 186.268 38.252C186.688 38.084 187.162 38 187.69 38C188.434 38 189.088 38.174 189.652 38.522C190.216 38.858 190.66 39.332 190.984 39.944C191.308 40.556 191.47 41.264 191.47 42.068C191.47 42.824 191.308 43.508 190.984 44.12C190.672 44.72 190.192 45.2 189.544 45.56C188.896 45.92 188.08 46.1 187.096 46.1ZM192.676 35.804V37.082H179.59V35.804H192.676ZM203.494 35.804V37.082H201.514V47H200.128C199.768 46.28 199.27 45.62 198.634 45.02C198.01 44.408 197.29 43.892 196.474 43.472C195.658 43.052 194.788 42.77 193.864 42.626L193.162 40.898C194.314 40.202 195.502 39.572 196.726 39.008C197.962 38.444 199.234 37.964 200.542 37.568L200.128 38.324V35.804H203.494ZM200.128 38.468L200.506 38.972C199.594 39.272 198.634 39.644 197.626 40.088C196.618 40.52 195.688 41 194.836 41.528C195.484 41.672 196.174 41.918 196.906 42.266C197.638 42.614 198.316 43.052 198.94 43.58C199.564 44.108 200.044 44.72 200.38 45.416H200.218C200.194 45.14 200.17 44.864 200.146 44.588C200.134 44.312 200.128 43.982 200.128 43.598V38.468ZM196.816 35.678C196.96 35.678 197.116 35.69 197.284 35.714C197.452 35.726 197.614 35.744 197.77 35.768L197.662 37.064C197.59 37.052 197.5 37.046 197.392 37.046C197.296 37.034 197.17 37.028 197.014 37.028C196.654 37.028 196.372 37.106 196.168 37.262C195.976 37.406 195.88 37.598 195.88 37.838C195.88 38.15 196.018 38.42 196.294 38.648C196.57 38.864 197.062 39.11 197.77 39.386L196.69 40.196C196.234 39.968 195.838 39.728 195.502 39.476C195.166 39.212 194.908 38.924 194.728 38.612C194.548 38.3 194.458 37.952 194.458 37.568C194.458 37.244 194.542 36.938 194.71 36.65C194.878 36.362 195.136 36.128 195.484 35.948C195.832 35.768 196.276 35.678 196.816 35.678ZM210.262 35.804V37.082H208.372V47H206.986C206.626 46.28 206.128 45.62 205.492 45.02C204.868 44.408 204.148 43.892 203.332 43.472C202.516 43.052 201.646 42.77 200.722 42.626L200.398 40.664C201.502 40.028 202.636 39.446 203.8 38.918C204.964 38.39 206.164 37.94 207.4 37.568L206.986 38.324V37.082H203.026V35.804H210.262ZM206.986 38.468L207.364 38.972C206.452 39.272 205.492 39.644 204.484 40.088C203.476 40.52 202.546 41 201.694 41.528C202.342 41.672 203.032 41.918 203.764 42.266C204.496 42.614 205.174 43.052 205.798 43.58C206.422 44.108 206.902 44.72 207.238 45.416H207.076C207.052 45.14 207.028 44.864 207.004 44.588C206.992 44.312 206.986 43.982 206.986 43.598V38.468ZM215.042 35.804V37.082H213.152V47H211.766V37.082H209.894V35.804H211.55C211.358 35.576 211.16 35.336 210.956 35.084C210.764 34.832 210.59 34.58 210.434 34.328C210.842 33.62 211.28 32.978 211.748 32.402C212.216 31.814 212.768 31.352 213.404 31.016C214.04 30.668 214.808 30.494 215.708 30.494C216.344 30.494 216.95 30.572 217.526 30.728C218.114 30.884 218.69 31.112 219.254 31.412C219.818 31.7 220.388 32.054 220.964 32.474C221.54 32.882 222.14 33.338 222.764 33.842L222.008 34.814C221.18 34.142 220.43 33.584 219.758 33.14C219.098 32.696 218.462 32.366 217.85 32.15C217.25 31.922 216.608 31.808 215.924 31.808C215.264 31.808 214.688 31.922 214.196 32.15C213.716 32.378 213.296 32.696 212.936 33.104C212.588 33.512 212.27 33.986 211.982 34.526C212.078 34.706 212.21 34.904 212.378 35.12C212.546 35.336 212.738 35.564 212.954 35.804H215.042ZM225.907 35.804V37.082H224.017V47H222.631V42.626L222.919 43.634C222.523 43.082 222.091 42.584 221.623 42.14C221.155 41.696 220.675 41.342 220.183 41.078C219.691 40.814 219.211 40.682 218.743 40.682C218.299 40.682 217.921 40.802 217.609 41.042C217.309 41.27 217.159 41.612 217.159 42.068C217.159 42.428 217.285 42.74 217.537 43.004C217.789 43.256 218.179 43.484 218.707 43.688L218.023 44.966C217.291 44.666 216.715 44.264 216.295 43.76C215.887 43.244 215.683 42.662 215.683 42.014C215.683 41.426 215.821 40.94 216.097 40.556C216.385 40.16 216.745 39.866 217.177 39.674C217.621 39.482 218.071 39.386 218.527 39.386C219.151 39.386 219.721 39.494 220.237 39.71C220.753 39.926 221.233 40.22 221.677 40.592C222.133 40.964 222.565 41.396 222.973 41.888L222.721 41.96C222.685 41.684 222.661 41.414 222.649 41.15C222.637 40.874 222.631 40.598 222.631 40.322V37.082H214.675V35.804H225.907ZM234.786 38C235.734 38 236.496 38.162 237.072 38.486C237.66 38.798 238.092 39.2 238.368 39.692C238.644 40.172 238.782 40.658 238.782 41.15C238.782 42.134 238.434 42.914 237.738 43.49C237.054 44.066 236.034 44.39 234.678 44.462L234.858 44.264C235.398 44.42 235.968 44.642 236.568 44.93C237.168 45.218 237.774 45.554 238.386 45.938C238.998 46.31 239.586 46.724 240.15 47.18L239.322 48.134C238.578 47.582 237.894 47.108 237.27 46.712C236.658 46.304 236.052 45.95 235.452 45.65C234.852 45.35 234.216 45.086 233.544 44.858C232.872 44.63 232.11 44.42 231.258 44.228L231.528 42.986C231.948 43.106 232.35 43.196 232.734 43.256C233.13 43.304 233.604 43.328 234.156 43.328C235.008 43.328 235.662 43.226 236.118 43.022C236.586 42.818 236.91 42.554 237.09 42.23C237.27 41.906 237.36 41.576 237.36 41.24C237.36 40.604 237.126 40.118 236.658 39.782C236.19 39.434 235.596 39.26 234.876 39.26C234.444 39.26 234.096 39.302 233.832 39.386C233.568 39.47 233.376 39.596 233.256 39.764C233.148 39.92 233.094 40.112 233.094 40.34C233.094 40.436 233.106 40.538 233.13 40.646C233.154 40.742 233.178 40.832 233.202 40.916L231.888 41.186C231.828 41.006 231.78 40.82 231.744 40.628C231.708 40.424 231.69 40.244 231.69 40.088C231.69 39.644 231.822 39.266 232.086 38.954C232.35 38.642 232.71 38.408 233.166 38.252C233.634 38.084 234.174 38 234.786 38ZM233.58 38.63C233.52 38.246 233.34 37.91 233.04 37.622C232.74 37.322 232.308 37.112 231.744 36.992L232.176 36.182L233.004 36.398C233.676 36.662 234.162 36.962 234.462 37.298C234.774 37.634 234.954 38.06 235.002 38.576L233.58 38.63ZM240.15 35.804V37.082H230.25V35.804H240.15ZM246.383 35.804V37.082H246.023C245.651 37.166 245.249 37.352 244.817 37.64C244.385 37.916 243.977 38.282 243.593 38.738C243.209 39.182 242.891 39.704 242.639 40.304C242.399 40.904 242.279 41.564 242.279 42.284C242.279 43.148 242.405 43.838 242.657 44.354C242.921 44.858 243.245 45.218 243.629 45.434C244.013 45.65 244.397 45.758 244.781 45.758C245.081 45.758 245.333 45.728 245.537 45.668C245.741 45.608 245.975 45.5 246.239 45.344L246.869 46.442C246.557 46.682 246.215 46.85 245.843 46.946C245.471 47.042 245.099 47.09 244.727 47.09C243.971 47.09 243.299 46.892 242.711 46.496C242.135 46.1 241.679 45.548 241.343 44.84C241.019 44.12 240.857 43.28 240.857 42.32C240.857 41.336 241.043 40.448 241.415 39.656C241.787 38.852 242.285 38.174 242.909 37.622C243.545 37.07 244.247 36.668 245.015 36.416L243.863 37.01C243.647 37.034 243.413 37.052 243.161 37.064C242.909 37.076 242.627 37.082 242.315 37.082H239.795V35.804H246.383ZM257.105 35.804V37.082H255.215V47H253.829C253.469 46.28 252.971 45.62 252.335 45.02C251.711 44.408 250.991 43.892 250.175 43.472C249.359 43.052 248.489 42.77 247.565 42.626L246.863 40.898C248.015 40.202 249.203 39.572 250.427 39.008C251.663 38.444 252.935 37.964 254.243 37.568L253.829 38.324V37.082H246.017V35.804H257.105ZM253.829 38.468L254.207 38.972C253.295 39.272 252.335 39.644 251.327 40.088C250.319 40.52 249.389 41 248.537 41.528C249.185 41.672 249.875 41.918 250.607 42.266C251.339 42.614 252.017 43.052 252.641 43.58C253.265 44.108 253.745 44.72 254.081 45.416H253.919C253.895 45.14 253.871 44.864 253.847 44.588C253.835 44.312 253.829 43.982 253.829 43.598V38.468Z" fill="#F5F9FA"/>
<path d="M264.162 164.066C264.048 165.304 263.423 167.203 262.286 169.763C260.776 173.11 258.498 175.331 255.452 176.429C254.799 176.653 253.611 176.892 251.889 177.146C250.166 177.396 247.91 177.677 245.12 177.988C244.438 178.071 243.698 178.113 242.899 178.113C239.853 178.113 235.925 177.608 231.115 176.597C230.661 176.597 230.248 176.427 229.878 176.087L230.473 175.202C230.872 175.147 231.477 175.071 232.287 174.973C233.1 174.872 233.927 174.738 234.766 174.571C235.606 174.401 236.367 174.197 237.049 173.958C237.734 173.719 238.146 173.445 238.286 173.137C239.254 171.504 239.767 169.17 239.825 166.135C239.854 164.954 239.869 163.892 239.869 162.947C239.869 162.005 239.869 161.183 239.869 160.481C239.869 159.608 239.854 158.884 239.825 158.308C239.796 157.732 239.717 157.029 239.589 156.2C239.461 155.371 239.255 154.281 238.973 152.93C238.687 151.579 238.302 149.709 237.818 147.319C236.792 144.03 236.279 141.289 236.279 139.094C236.279 138.533 236.301 138.006 236.345 137.513C236.388 137.021 236.46 136.528 236.559 136.036C236.658 135.544 236.794 135.024 236.966 134.477C237.135 133.927 237.347 133.3 237.604 132.598C237.805 132.428 237.976 132.343 238.116 132.343C238.317 132.343 238.674 132.765 239.187 133.608C239.697 134.452 240.45 135.761 241.447 137.535C241.704 138.013 241.832 138.504 241.832 139.008C241.832 139.235 241.761 139.567 241.618 140.001C241.475 140.436 241.312 140.885 241.128 141.349C240.942 141.816 240.778 142.238 240.638 142.615C240.496 142.995 240.424 143.228 240.424 143.314C240.567 144.072 240.765 144.914 241.019 145.842C241.275 146.772 241.576 147.785 241.92 148.882C242.089 150.204 242.223 151.476 242.322 152.697C242.421 153.921 242.47 155.123 242.47 156.304C242.47 157.484 242.421 158.638 242.322 159.764C242.223 160.89 242.089 161.987 241.92 163.055C241.92 163.729 241.947 164.178 242.003 164.403C245.192 159.568 249.576 157.15 255.155 157.15C256.408 157.15 257.583 157.304 258.679 157.612C259.772 157.92 260.733 158.35 261.56 158.9C262.385 159.447 263.032 160.108 263.502 160.882C263.971 161.654 264.206 162.505 264.206 163.435C264.206 163.548 264.199 163.653 264.184 163.751C264.169 163.849 264.162 163.954 264.162 164.066ZM258.697 168.286L258.784 167.526C257.105 165.896 254.927 165.081 252.252 165.081C250.998 165.081 249.759 165.27 248.535 165.647C247.311 166.027 246.194 166.548 245.186 167.211C244.174 167.87 243.313 168.65 242.602 169.552C241.89 170.45 241.434 171.434 241.233 172.502C241.291 172.614 241.377 172.685 241.491 172.714C242.715 172.547 244.074 172.315 245.566 172.018C247.062 171.722 248.706 171.378 250.498 170.986C255.054 169.943 257.787 169.044 258.697 168.286Z" fill="#F5F9FA"/>
<path d="M209.551 157.816C209.722 156.915 209.807 156.09 209.807 155.342C209.807 153.007 208.93 150.598 207.174 148.113C206.661 147.407 206.319 147.054 206.149 147.054C206.105 147.054 206.056 147.225 206.004 147.567C205.949 147.912 205.895 148.324 205.843 148.804C205.79 149.286 205.742 149.801 205.698 150.347C205.657 150.892 205.636 151.358 205.636 151.744C205.636 151.83 205.64 151.904 205.649 151.968C205.66 152.034 205.665 152.087 205.665 152.129C206.459 154.42 207.229 156.24 207.976 157.589L207.848 157.911C206.2 159.345 204.145 160.443 201.684 161.203C199.223 161.964 196.409 162.345 193.242 162.345C192.087 162.345 190.867 162.269 189.583 162.118C188.299 161.969 186.929 161.712 185.474 161.348C179.16 159.848 176.003 157.364 176.003 153.895V153.639C176.408 152.483 176.611 150.995 176.611 149.176C176.611 148.79 176.547 148.565 176.42 148.501H176.003C175.832 148.629 175.65 148.922 175.457 149.383C175.264 149.843 175.082 150.374 174.911 150.975C174.74 151.573 174.596 152.172 174.477 152.77C174.359 153.371 174.3 153.865 174.3 154.25C174.3 156.156 174.557 157.868 175.072 159.388C175.585 160.91 176.323 162.226 177.285 163.338C178.249 164.452 179.416 165.352 180.786 166.038C182.156 166.722 183.696 167.193 185.408 167.449C186.458 167.62 187.512 167.787 188.571 167.949C189.629 168.109 190.672 168.189 191.7 168.189C193.37 168.189 194.981 168.066 196.533 167.821C198.084 167.573 199.534 167.246 200.882 166.841C202.23 166.433 203.445 165.962 204.528 165.427C205.608 164.891 206.512 164.325 207.24 163.726C207.496 163.553 207.775 163.162 208.075 162.552C208.373 161.942 208.651 161.225 208.91 160.401C209.166 159.576 209.38 158.715 209.551 157.816Z" fill="#F5F9FA"/>
<path d="M188.137 177.247L192.857 182L197.608 177.247L192.857 172.524L188.137 177.247Z" fill="#F5F9FA"/>
<path d="M325.12 142.003L320.37 137.247L316.165 141.456L311.895 137.247L307.24 142.003L311.895 146.66L316.165 142.516L320.37 146.722L325.12 142.003Z" fill="#F5F9FA"/>
<path d="M321.879 168.627C322.907 165.972 323.421 163.188 323.421 160.276C323.421 155.674 321.986 152.377 319.117 150.386C318.26 149.785 317.319 149.485 316.293 149.485C313.574 149.485 312.214 151.562 312.214 155.718C312.214 159.485 313.884 161.368 317.224 161.368C317.993 161.368 318.699 161.24 319.341 160.983C319.983 160.727 320.443 160.513 320.722 160.342L321.11 160.47C321.815 161.562 322.168 162.633 322.168 163.683C322.168 163.896 322.131 164.115 322.056 164.341C321.98 164.565 321.846 164.816 321.655 165.095C321.462 165.373 321.194 165.689 320.85 166.042C320.508 166.395 320.07 166.796 319.535 167.245C315.767 170.394 311.926 171.969 308.009 171.969C305.526 171.969 303.311 171.294 301.365 169.946C300.723 169.474 300.144 168.901 299.629 168.226C299.117 167.552 298.678 166.841 298.314 166.091C297.951 165.341 297.667 164.565 297.463 163.762C297.259 162.96 297.157 162.184 297.157 161.434C297.157 160.642 297.597 158.897 298.475 156.198C299.181 154.058 299.534 152.741 299.534 152.248C299.534 152.077 299.491 151.991 299.406 151.991C299.128 151.991 298.833 152.205 298.522 152.633C298.212 153.06 297.908 153.628 297.608 154.336C297.307 155.042 297.014 155.839 296.727 156.727C296.437 157.618 296.185 158.528 295.97 159.457C295.756 160.389 295.585 161.295 295.458 162.174C295.328 163.051 295.264 163.822 295.264 164.486C295.264 166.413 295.553 168.222 296.132 169.913C296.71 171.606 297.534 173.078 298.604 174.33C299.673 175.582 300.978 176.572 302.519 177.3C304.06 178.028 305.783 178.392 307.69 178.392C308.801 178.392 309.93 178.221 311.076 177.879C312.22 177.537 313.328 177.06 314.4 176.448C315.469 175.839 316.475 175.105 317.418 174.248C318.358 173.393 319.192 172.462 319.919 171.455C321.077 169.828 321.73 168.886 321.879 168.627Z" fill="#F5F9FA"/>
<path d="M138.166 168.248C139.041 167.458 139.63 164.914 139.933 160.618C139.959 160.392 139.971 160.173 139.971 159.962V159.307C139.971 156.309 139.094 154.048 137.341 152.523C136.684 151.959 135.781 151.358 134.63 150.722C133.48 150.085 132.273 149.492 131.011 148.942C129.751 148.39 128.532 147.937 127.353 147.584C126.175 147.231 125.229 147.054 124.516 147.054H124.108L123.78 147.223C123.614 147.704 123.531 148.453 123.531 149.472V150.574C123.531 150.971 123.56 151.394 123.616 151.846C123.725 153.767 123.806 154.742 123.86 154.771L129.74 157.059C131.712 157.849 133.295 158.554 134.487 159.177C135.677 159.799 136.45 160.392 136.806 160.956V161.381C136.368 161.862 134.759 162.406 131.979 163.013C129.198 163.621 125.258 164.376 120.16 165.279L119.668 165.83C119.668 166.085 119.62 166.467 119.525 166.976C119.429 167.485 119.32 168.022 119.196 168.586C119.073 169.153 118.963 169.69 118.868 170.197C118.77 170.706 118.721 171.088 118.721 171.342C118.721 172.587 119.105 173.209 119.874 173.209C119.902 173.209 119.929 173.201 119.954 173.187C119.982 173.173 120.024 173.165 120.08 173.165L127.644 172.063C132.711 171.299 136.218 170.027 138.166 168.248Z" fill="#F5F9FA"/>
<path d="M90.9318 145.923C90.9318 145.82 90.9187 145.742 90.8926 145.689C90.7646 145.51 90.4078 145.42 89.8225 145.42C88.5448 145.42 87.2618 145.465 85.9736 145.554C84.6854 145.644 83.3528 145.689 81.9757 145.689C80.5203 145.689 79.027 145.644 77.4958 145.554C75.9646 145.465 74.4216 145.42 72.8669 145.42C71.5395 145.42 70.4028 145.543 69.4569 145.788C68.5136 146.031 67.7101 146.436 67.0464 147.003C66.3827 147.57 65.8405 148.318 65.4198 149.247C64.9991 150.173 64.6359 151.306 64.3302 152.646C64.1263 153.522 63.9735 154.206 63.8716 154.696C63.7697 155.184 63.6926 155.545 63.6403 155.777C63.5907 156.009 63.5593 156.157 63.5463 156.22C63.5332 156.286 63.5267 156.331 63.5267 156.355C63.5267 156.563 63.5776 156.667 63.6795 156.667C63.7814 156.614 64.0231 156.369 64.4046 155.931C64.7887 155.493 65.3126 154.849 65.9763 154C66.6139 153.2 67.8133 152.801 69.5744 152.801C70.6196 152.801 71.448 152.827 72.0594 152.88C72.6735 152.93 73.1334 152.993 73.4391 153.07C73.7448 153.149 73.9369 153.247 74.0153 153.363C74.091 153.479 74.1289 153.588 74.1289 153.691C74.1289 153.818 74.0779 153.946 73.976 154.075C66.7537 158.017 63.1426 164.369 63.1426 173.131C63.1426 173.542 63.1556 173.941 63.1817 174.326C63.2079 174.714 63.221 175.1 63.221 175.485C63.221 175.641 63.2654 175.867 63.3542 176.162C63.4431 176.46 63.545 176.757 63.66 177.052C63.7749 177.348 63.9029 177.599 64.044 177.804C64.1825 178.01 64.3027 178.113 64.4046 178.113C64.6084 178.113 64.7104 177.547 64.7104 176.415V175.719C64.7104 173.579 64.9795 171.505 65.5178 169.498C66.0535 167.487 66.806 165.644 67.7754 163.969C68.7448 162.294 69.9115 160.845 71.2755 159.624C72.6421 158.399 74.1668 157.504 75.8496 156.936C78.3502 156.034 80.6222 155.223 82.6656 154.502C84.7063 153.78 86.6073 153.161 88.3685 152.646C89.4137 150.404 90.2041 148.42 90.7397 146.694C90.8678 146.359 90.9318 146.102 90.9318 145.923Z" fill="#F5F9FA"/>
<path d="M72.9413 167.218L78.5697 172.937L84.2334 167.218L78.5697 161.535L72.9413 167.218Z" fill="#F5F9FA"/>
</svg>
