<svg width="163" height="113" viewBox="0 0 163 113" fill="none" xmlns="http://www.w3.org/2000/svg">
<path d="M11.1707 97.804V99.082H9.2807V109H7.8947C7.5347 108.28 7.0367 107.62 6.4007 107.02C5.7767 106.408 5.0567 105.892 4.2407 105.472C3.4247 105.052 2.5547 104.77 1.6307 104.626L0.928695 102.898C2.0807 102.202 3.2687 101.572 4.4927 101.008C5.7287 100.444 7.0007 99.964 8.3087 99.568L7.8947 100.324V99.082H0.0826953V97.804H11.1707ZM7.8947 100.468L8.2727 100.972C7.3607 101.272 6.4007 101.644 5.3927 102.088C4.3847 102.52 3.4547 103 2.6027 103.528C3.2507 103.672 3.9407 103.918 4.6727 104.266C5.4047 104.614 6.0827 105.052 6.7067 105.58C7.3307 106.108 7.8107 106.72 8.1467 107.416H7.9847C7.9607 107.14 7.9367 106.864 7.9127 106.588C7.9007 106.312 7.8947 105.982 7.8947 105.598V100.468ZM3.5927 109.108C3.2927 109.108 3.0347 109.012 2.8187 108.82C2.6147 108.628 2.5127 108.376 2.5127 108.064C2.5127 107.752 2.6147 107.494 2.8187 107.29C3.0347 107.086 3.2927 106.984 3.5927 106.984C3.8927 106.984 4.1447 107.086 4.3487 107.29C4.5647 107.494 4.6727 107.752 4.6727 108.064C4.6727 108.376 4.5647 108.628 4.3487 108.82C4.1447 109.012 3.8927 109.108 3.5927 109.108ZM17.4294 97.804C17.4174 97.312 17.2974 96.958 17.0694 96.742C16.8534 96.526 16.4934 96.418 15.9894 96.418H14.6934C13.9014 96.418 13.2894 96.364 12.8574 96.256C12.4374 96.148 12.0774 95.98 11.7774 95.752C11.4534 95.512 11.2074 95.206 11.0394 94.834C10.8834 94.45 10.8054 94.018 10.8054 93.538C10.8054 93.382 10.8174 93.226 10.8414 93.07C10.8534 92.914 10.8714 92.752 10.8954 92.584L12.2274 92.674C12.2034 92.818 12.1854 92.944 12.1734 93.052C12.1614 93.16 12.1554 93.262 12.1554 93.358C12.1554 93.622 12.1794 93.856 12.2274 94.06C12.2874 94.264 12.3774 94.432 12.4974 94.564C12.6654 94.756 12.9054 94.9 13.2174 94.996C13.5414 95.08 13.9974 95.122 14.5854 95.122H15.6114C16.2474 95.122 16.7514 95.17 17.1234 95.266C17.4954 95.362 17.8134 95.536 18.0774 95.788C18.2814 95.98 18.4374 96.244 18.5454 96.58C18.6534 96.904 18.7134 97.312 18.7254 97.804H17.4294ZM15.3414 100C16.2894 100 17.0514 100.162 17.6274 100.486C18.2154 100.798 18.6474 101.2 18.9234 101.692C19.1994 102.172 19.3374 102.658 19.3374 103.15C19.3374 104.134 18.9894 104.914 18.2934 105.49C17.6094 106.066 16.5894 106.39 15.2334 106.462L15.4134 106.264C15.9534 106.42 16.5234 106.642 17.1234 106.93C17.7234 107.218 18.3294 107.554 18.9414 107.938C19.5534 108.31 20.1414 108.724 20.7054 109.18L19.8774 110.134C19.1334 109.582 18.4494 109.108 17.8254 108.712C17.2134 108.304 16.6074 107.95 16.0074 107.65C15.4074 107.35 14.7714 107.086 14.0994 106.858C13.4274 106.63 12.6654 106.42 11.8134 106.228L12.0834 104.986C12.5034 105.106 12.9054 105.196 13.2894 105.256C13.6854 105.304 14.1594 105.328 14.7114 105.328C15.5634 105.328 16.2174 105.226 16.6734 105.022C17.1414 104.818 17.4654 104.554 17.6454 104.23C17.8254 103.906 17.9154 103.576 17.9154 103.24C17.9154 102.604 17.6814 102.118 17.2134 101.782C16.7454 101.434 16.1514 101.26 15.4314 101.26C14.9994 101.26 14.6514 101.302 14.3874 101.386C14.1234 101.47 13.9314 101.596 13.8114 101.764C13.7034 101.92 13.6494 102.112 13.6494 102.34C13.6494 102.436 13.6614 102.538 13.6854 102.646C13.7094 102.742 13.7334 102.832 13.7574 102.916L12.4434 103.186C12.3834 103.006 12.3354 102.82 12.2994 102.628C12.2634 102.424 12.2454 102.244 12.2454 102.088C12.2454 101.644 12.3774 101.266 12.6414 100.954C12.9054 100.642 13.2654 100.408 13.7214 100.252C14.1894 100.084 14.7294 100 15.3414 100ZM14.1354 100.63C14.0754 100.246 13.8954 99.91 13.5954 99.622C13.2954 99.322 12.8634 99.112 12.2994 98.992L12.7314 98.182L13.5594 98.398C14.2314 98.662 14.7174 98.962 15.0174 99.298C15.3294 99.634 15.5094 100.06 15.5574 100.576L14.1354 100.63ZM20.7054 97.804V99.082H10.8054V97.804H20.7054ZM25.4983 97.804V99.082H23.6083V109H22.2223V99.082H20.3503V97.804H22.0063C21.8143 97.576 21.6163 97.336 21.4123 97.084C21.2203 96.832 21.0463 96.58 20.8903 96.328C21.2983 95.62 21.7363 94.978 22.2043 94.402C22.6723 93.814 23.2243 93.352 23.8603 93.016C24.4963 92.668 25.2643 92.494 26.1643 92.494C26.8003 92.494 27.4063 92.572 27.9823 92.728C28.5703 92.884 29.1463 93.112 29.7103 93.412C30.2743 93.7 30.8443 94.054 31.4203 94.474C31.9963 94.882 32.5963 95.338 33.2203 95.842L32.4643 96.814C31.6363 96.142 30.8863 95.584 30.2143 95.14C29.5543 94.696 28.9183 94.366 28.3063 94.15C27.7063 93.922 27.0643 93.808 26.3803 93.808C25.7203 93.808 25.1443 93.922 24.6523 94.15C24.1723 94.378 23.7523 94.696 23.3923 95.104C23.0443 95.512 22.7263 95.986 22.4383 96.526C22.5343 96.706 22.6663 96.904 22.8343 97.12C23.0023 97.336 23.1943 97.564 23.4103 97.804H25.4983ZM36.2195 97.804V99.082H34.3295V109H32.9435C32.5835 108.28 32.0855 107.62 31.4495 107.02C30.8255 106.408 30.1055 105.892 29.2895 105.472C28.4735 105.052 27.6035 104.77 26.6795 104.626L25.9775 102.898C27.1295 102.202 28.3175 101.572 29.5415 101.008C30.7775 100.444 32.0495 99.964 33.3575 99.568L32.9435 100.324V99.082H25.1315V97.804H36.2195ZM32.9435 100.468L33.3215 100.972C32.4095 101.272 31.4495 101.644 30.4415 102.088C29.4335 102.52 28.5035 103 27.6515 103.528C28.2995 103.672 28.9895 103.918 29.7215 104.266C30.4535 104.614 31.1315 105.052 31.7555 105.58C32.3795 106.108 32.8595 106.72 33.1955 107.416H33.0335C33.0095 107.14 32.9855 106.864 32.9615 106.588C32.9495 106.312 32.9435 105.982 32.9435 105.598V100.468ZM82.258 97.804V99.082H80.368V109H78.982V99.082H77.11V97.804H78.766C78.574 97.576 78.376 97.336 78.172 97.084C77.98 96.832 77.806 96.58 77.65 96.328C78.058 95.62 78.496 94.978 78.964 94.402C79.432 93.814 79.984 93.352 80.62 93.016C81.256 92.668 82.024 92.494 82.924 92.494C83.56 92.494 84.166 92.572 84.742 92.728C85.33 92.884 85.906 93.112 86.47 93.412C87.034 93.7 87.604 94.054 88.18 94.474C88.756 94.882 89.356 95.338 89.98 95.842L89.224 96.814C88.396 96.142 87.646 95.584 86.974 95.14C86.314 94.696 85.678 94.366 85.066 94.15C84.466 93.922 83.824 93.808 83.14 93.808C82.48 93.808 81.904 93.922 81.412 94.15C80.932 94.378 80.512 94.696 80.152 95.104C79.804 95.512 79.486 95.986 79.198 96.526C79.294 96.706 79.426 96.904 79.594 97.12C79.762 97.336 79.954 97.564 80.17 97.804H82.258ZM93.4473 97.804V99.082H91.5573V109H90.1713V106.57L90.4953 107.524C90.0753 106.888 89.6493 106.3 89.2173 105.76C88.7973 105.22 88.3473 104.782 87.8673 104.446C87.3993 104.11 86.8833 103.942 86.3193 103.942C85.8753 103.942 85.4973 104.056 85.1853 104.284C84.8853 104.512 84.7353 104.854 84.7353 105.31C84.7353 105.706 84.8793 106.042 85.1673 106.318C85.4553 106.582 85.8813 106.81 86.4453 107.002L85.9953 108.388C85.3473 108.16 84.8193 107.884 84.4113 107.56C84.0153 107.236 83.7213 106.882 83.5293 106.498C83.3493 106.102 83.2593 105.688 83.2593 105.256C83.2593 104.68 83.3973 104.2 83.6733 103.816C83.9613 103.432 84.3213 103.144 84.7533 102.952C85.1973 102.748 85.6413 102.646 86.0853 102.646C86.8053 102.646 87.4353 102.778 87.9753 103.042C88.5273 103.306 89.0073 103.66 89.4153 104.104C89.8353 104.548 90.2133 105.046 90.5493 105.598L90.2433 105.652C90.2193 105.376 90.2013 105.1 90.1893 104.824C90.1773 104.536 90.1713 104.242 90.1713 103.942V99.082H81.8913V97.804H93.4473ZM87.4533 103.186C87.4533 103.258 87.4473 103.33 87.4353 103.402C87.4353 103.474 87.4293 103.546 87.4173 103.618L86.0493 103.204C86.0253 102.508 85.9053 101.95 85.6893 101.53C85.4733 101.11 85.1313 100.792 84.6633 100.576C84.1953 100.348 83.5593 100.192 82.7553 100.108L82.9893 98.812L83.8173 99.046C84.3933 99.094 84.9033 99.214 85.3473 99.406C85.8033 99.586 86.1873 99.844 86.4993 100.18C86.8113 100.516 87.0453 100.936 87.2013 101.44C87.3693 101.932 87.4533 102.514 87.4533 103.186ZM145.9 97.804V99.082H144.01V109H142.624V106.57L142.948 107.524C142.528 106.888 142.102 106.3 141.67 105.76C141.25 105.22 140.8 104.782 140.32 104.446C139.852 104.11 139.336 103.942 138.772 103.942C138.328 103.942 137.95 104.056 137.638 104.284C137.338 104.512 137.188 104.854 137.188 105.31C137.188 105.706 137.332 106.042 137.62 106.318C137.908 106.582 138.334 106.81 138.898 107.002L138.448 108.388C137.8 108.16 137.272 107.884 136.864 107.56C136.468 107.236 136.174 106.882 135.982 106.498C135.802 106.102 135.712 105.688 135.712 105.256C135.712 104.68 135.85 104.2 136.126 103.816C136.414 103.432 136.774 103.144 137.206 102.952C137.65 102.748 138.094 102.646 138.538 102.646C139.258 102.646 139.888 102.778 140.428 103.042C140.98 103.306 141.46 103.66 141.868 104.104C142.288 104.548 142.666 105.046 143.002 105.598L142.696 105.652C142.672 105.376 142.654 105.1 142.642 104.824C142.63 104.536 142.624 104.242 142.624 103.942V99.082H134.344V97.804H145.9ZM139.906 103.186C139.906 103.258 139.9 103.33 139.888 103.402C139.888 103.474 139.882 103.546 139.87 103.618L138.502 103.204C138.478 102.508 138.358 101.95 138.142 101.53C137.926 101.11 137.584 100.792 137.116 100.576C136.648 100.348 136.012 100.192 135.208 100.108L135.442 98.812L136.27 99.046C136.846 99.094 137.356 99.214 137.8 99.406C138.256 99.586 138.64 99.844 138.952 100.18C139.264 100.516 139.498 100.936 139.654 101.44C139.822 101.932 139.906 102.514 139.906 103.186ZM150.69 97.804V99.082H148.8V109H147.414V100.558C147.27 100.15 147.054 99.802 146.766 99.514C146.49 99.226 146.13 99.082 145.686 99.082H145.542V97.804H145.812C146.1 97.804 146.4 97.9 146.712 98.092C147.024 98.272 147.276 98.554 147.468 98.938C147.456 98.878 147.444 98.74 147.432 98.524C147.42 98.308 147.414 98.122 147.414 97.966V96.616H148.386L148.782 97.804H150.69ZM155.855 102.689V104.377H151.206V102.689H155.855ZM161.973 102.689V104.377H157.323V102.689H161.973Z" fill="#F5F9FA"/>
<path d="M47.4102 97.804V99.082H45.5202V109H44.1342V106.57L44.4582 107.524C44.0382 106.888 43.6122 106.3 43.1802 105.76C42.7602 105.22 42.3102 104.782 41.8302 104.446C41.3622 104.11 40.8462 103.942 40.2822 103.942C39.8382 103.942 39.4602 104.056 39.1482 104.284C38.8482 104.512 38.6982 104.854 38.6982 105.31C38.6982 105.706 38.8422 106.042 39.1302 106.318C39.4182 106.582 39.8442 106.81 40.4082 107.002L39.9582 108.388C39.3102 108.16 38.7822 107.884 38.3742 107.56C37.9782 107.236 37.6842 106.882 37.4922 106.498C37.3122 106.102 37.2222 105.688 37.2222 105.256C37.2222 104.68 37.3602 104.2 37.6362 103.816C37.9242 103.432 38.2842 103.144 38.7162 102.952C39.1602 102.748 39.6042 102.646 40.0482 102.646C40.7682 102.646 41.3982 102.778 41.9382 103.042C42.4902 103.306 42.9702 103.66 43.3782 104.104C43.7982 104.548 44.1762 105.046 44.5122 105.598L44.2062 105.652C44.1822 105.376 44.1642 105.1 44.1522 104.824C44.1402 104.536 44.1342 104.242 44.1342 103.942V99.082H35.8542V97.804H47.4102ZM41.4162 103.186C41.4162 103.258 41.4102 103.33 41.3982 103.402C41.3982 103.474 41.3922 103.546 41.3802 103.618L40.0122 103.204C39.9882 102.508 39.8682 101.95 39.6522 101.53C39.4362 101.11 39.0942 100.792 38.6262 100.576C38.1582 100.348 37.5222 100.192 36.7182 100.108L36.9522 98.812L37.7802 99.046C38.3562 99.094 38.8662 99.214 39.3102 99.406C39.7662 99.586 40.1502 99.844 40.4622 100.18C40.7742 100.516 41.0082 100.936 41.1642 101.44C41.3322 101.932 41.4162 102.514 41.4162 103.186ZM48.4092 107.945C48.4092 107.617 48.5205 107.342 48.7432 107.119C48.9658 106.891 49.2676 106.776 49.6484 106.776C50.0352 106.776 50.3369 106.891 50.5537 107.119C50.7764 107.342 50.8877 107.617 50.8877 107.945C50.8877 108.273 50.7764 108.549 50.5537 108.771C50.3369 108.994 50.0352 109.105 49.6484 109.105C49.2676 109.105 48.9658 108.994 48.7432 108.771C48.5205 108.549 48.4092 108.273 48.4092 107.945ZM53.4189 107.945C53.4189 107.617 53.5303 107.342 53.7529 107.119C53.9756 106.891 54.2773 106.776 54.6582 106.776C55.0449 106.776 55.3467 106.891 55.5635 107.119C55.7861 107.342 55.8975 107.617 55.8975 107.945C55.8975 108.273 55.7861 108.549 55.5635 108.771C55.3467 108.994 55.0449 109.105 54.6582 109.105C54.2773 109.105 53.9756 108.994 53.7529 108.771C53.5303 108.549 53.4189 108.273 53.4189 107.945ZM58.4287 107.945C58.4287 107.617 58.54 107.342 58.7627 107.119C58.9854 106.891 59.2871 106.776 59.668 106.776C60.0547 106.776 60.3564 106.891 60.5732 107.119C60.7959 107.342 60.9072 107.617 60.9072 107.945C60.9072 108.273 60.7959 108.549 60.5732 108.771C60.3564 108.994 60.0547 109.105 59.668 109.105C59.2871 109.105 58.9854 108.994 58.7627 108.771C58.54 108.549 58.4287 108.273 58.4287 107.945ZM63.4385 107.945C63.4385 107.617 63.5498 107.342 63.7725 107.119C63.9951 106.891 64.2969 106.776 64.6777 106.776C65.0645 106.776 65.3662 106.891 65.583 107.119C65.8057 107.342 65.917 107.617 65.917 107.945C65.917 108.273 65.8057 108.549 65.583 108.771C65.3662 108.994 65.0645 109.105 64.6777 109.105C64.2969 109.105 63.9951 108.994 63.7725 108.771C63.5498 108.549 63.4385 108.273 63.4385 107.945ZM68.4482 107.945C68.4482 107.617 68.5596 107.342 68.7822 107.119C69.0049 106.891 69.3066 106.776 69.6875 106.776C70.0742 106.776 70.376 106.891 70.5928 107.119C70.8154 107.342 70.9268 107.617 70.9268 107.945C70.9268 108.273 70.8154 108.549 70.5928 108.771C70.376 108.994 70.0742 109.105 69.6875 109.105C69.3066 109.105 69.0049 108.994 68.7822 108.771C68.5596 108.549 68.4482 108.273 68.4482 107.945ZM73.458 107.945C73.458 107.617 73.5693 107.342 73.792 107.119C74.0146 106.891 74.3164 106.776 74.6973 106.776C75.084 106.776 75.3857 106.891 75.6025 107.119C75.8252 107.342 75.9365 107.617 75.9365 107.945C75.9365 108.273 75.8252 108.549 75.6025 108.771C75.3857 108.994 75.084 109.105 74.6973 109.105C74.3164 109.105 74.0146 108.994 73.792 108.771C73.5693 108.549 73.458 108.273 73.458 107.945ZM104.645 97.804V99.082H102.755V109H101.369V106.57L101.693 107.524C101.273 106.888 100.847 106.3 100.415 105.76C99.9946 105.22 99.5446 104.782 99.0646 104.446C98.5966 104.11 98.0806 103.942 97.5166 103.942C97.0726 103.942 96.6946 104.056 96.3826 104.284C96.0826 104.512 95.9326 104.854 95.9326 105.31C95.9326 105.706 96.0766 106.042 96.3646 106.318C96.6526 106.582 97.0786 106.81 97.6426 107.002L97.1926 108.388C96.5446 108.16 96.0166 107.884 95.6086 107.56C95.2126 107.236 94.9186 106.882 94.7266 106.498C94.5466 106.102 94.4566 105.688 94.4566 105.256C94.4566 104.68 94.5946 104.2 94.8706 103.816C95.1586 103.432 95.5186 103.144 95.9506 102.952C96.3946 102.748 96.8386 102.646 97.2826 102.646C98.0026 102.646 98.6326 102.778 99.1726 103.042C99.7246 103.306 100.205 103.66 100.613 104.104C101.033 104.548 101.411 105.046 101.747 105.598L101.441 105.652C101.417 105.376 101.399 105.1 101.387 104.824C101.375 104.536 101.369 104.242 101.369 103.942V99.082H93.0886V97.804H104.645ZM98.6506 103.186C98.6506 103.258 98.6446 103.33 98.6326 103.402C98.6326 103.474 98.6266 103.546 98.6146 103.618L97.2466 103.204C97.2226 102.508 97.1026 101.95 96.8866 101.53C96.6706 101.11 96.3286 100.792 95.8606 100.576C95.3926 100.348 94.7566 100.192 93.9526 100.108L94.1866 98.812L95.0146 99.046C95.5906 99.094 96.1006 99.214 96.5446 99.406C97.0006 99.586 97.3846 99.844 97.6966 100.18C98.0086 100.516 98.2426 100.936 98.3986 101.44C98.5666 101.932 98.6506 102.514 98.6506 103.186ZM105.644 107.945C105.644 107.617 105.755 107.342 105.978 107.119C106.2 106.891 106.502 106.776 106.883 106.776C107.27 106.776 107.571 106.891 107.788 107.119C108.011 107.342 108.122 107.617 108.122 107.945C108.122 108.273 108.011 108.549 107.788 108.771C107.571 108.994 107.27 109.105 106.883 109.105C106.502 109.105 106.2 108.994 105.978 108.771C105.755 108.549 105.644 108.273 105.644 107.945ZM110.653 107.945C110.653 107.617 110.765 107.342 110.987 107.119C111.21 106.891 111.512 106.776 111.893 106.776C112.279 106.776 112.581 106.891 112.798 107.119C113.021 107.342 113.132 107.617 113.132 107.945C113.132 108.273 113.021 108.549 112.798 108.771C112.581 108.994 112.279 109.105 111.893 109.105C111.512 109.105 111.21 108.994 110.987 108.771C110.765 108.549 110.653 108.273 110.653 107.945ZM115.663 107.945C115.663 107.617 115.774 107.342 115.997 107.119C116.22 106.891 116.521 106.776 116.902 106.776C117.289 106.776 117.591 106.891 117.808 107.119C118.03 107.342 118.142 107.617 118.142 107.945C118.142 108.273 118.03 108.549 117.808 108.771C117.591 108.994 117.289 109.105 116.902 109.105C116.521 109.105 116.22 108.994 115.997 108.771C115.774 108.549 115.663 108.273 115.663 107.945ZM120.673 107.945C120.673 107.617 120.784 107.342 121.007 107.119C121.229 106.891 121.531 106.776 121.912 106.776C122.299 106.776 122.601 106.891 122.817 107.119C123.04 107.342 123.151 107.617 123.151 107.945C123.151 108.273 123.04 108.549 122.817 108.771C122.601 108.994 122.299 109.105 121.912 109.105C121.531 109.105 121.229 108.994 121.007 108.771C120.784 108.549 120.673 108.273 120.673 107.945ZM125.683 107.945C125.683 107.617 125.794 107.342 126.017 107.119C126.239 106.891 126.541 106.776 126.922 106.776C127.309 106.776 127.61 106.891 127.827 107.119C128.05 107.342 128.161 107.617 128.161 107.945C128.161 108.273 128.05 108.549 127.827 108.771C127.61 108.994 127.309 109.105 126.922 109.105C126.541 109.105 126.239 108.994 126.017 108.771C125.794 108.549 125.683 108.273 125.683 107.945ZM130.692 107.945C130.692 107.617 130.804 107.342 131.026 107.119C131.249 106.891 131.551 106.776 131.932 106.776C132.318 106.776 132.62 106.891 132.837 107.119C133.06 107.342 133.171 107.617 133.171 107.945C133.171 108.273 133.06 108.549 132.837 108.771C132.62 108.994 132.318 109.105 131.932 109.105C131.551 109.105 131.249 108.994 131.026 108.771C130.804 108.549 130.692 108.273 130.692 107.945Z" fill="#FFCA3A"/>
<path d="M54.6338 40.548L58.9697 34.7823C60.0434 33.6059 61.0848 32.712 62.0943 32.1007C63.1014 31.4894 64.0982 31.1838 65.0846 31.1838C65.8922 31.1838 66.6148 31.3761 67.2526 31.7604C67.8903 32.1448 68.4329 32.6704 68.8802 33.3373C69.3299 34.0065 69.6717 34.8043 69.9057 35.7305C70.142 36.6568 70.2601 37.6627 70.2601 38.7487C70.2601 38.839 70.2601 38.941 70.2601 39.0544C70.2601 39.1679 70.2544 39.3427 70.2429 39.5789C70.2315 39.8174 70.2142 40.1462 70.1913 40.5653C70.1706 40.9821 70.1259 41.5299 70.0571 42.2083C70.0571 43.0234 69.4411 44.6859 68.2092 47.196C67.7619 48.0782 66.9337 48.5195 65.7247 48.5195C64.9608 48.5195 61.4427 47.1277 55.1707 44.3444C54.9252 44.7983 54.3322 45.5 53.3916 46.4493C50.2533 49.14 47.7321 50.5305 45.8279 50.6208C45.6949 50.5768 45.5607 50.4355 45.4253 50.197C45.29 49.9585 45.1672 49.6588 45.0571 49.2975C44.9447 48.9363 44.8552 48.5357 44.7887 48.0957C44.7199 47.6534 44.6855 47.2066 44.6855 46.755C44.6855 46.1669 44.7646 45.6065 44.9229 45.0739C45.0789 44.5436 45.3588 44.1198 45.7625 43.8026L46.468 43.7019C46.9818 43.5652 47.4854 43.4403 47.9787 43.3268C48.4719 43.2157 49.0271 43.0581 49.6442 42.8543C50.259 42.6505 50.9644 42.3727 51.7605 42.0207C52.5565 41.6711 53.5143 41.1801 54.6338 40.548ZM67.3007 41.2948C67.3007 40.841 67.1333 40.3999 66.7983 39.9715C66.4634 39.5408 66.055 39.1622 65.5733 38.8357C65.0915 38.5068 64.5696 38.2464 64.0075 38.0542C63.4478 37.862 62.9442 37.7659 62.4969 37.7659C62.295 37.7659 62.0713 37.7878 61.8258 37.8318C61.5781 37.8782 61.3475 37.9465 61.1342 38.0368C60.9231 38.1272 60.7499 38.2463 60.6146 38.3945C60.4815 38.5404 60.415 38.7036 60.415 38.8842C60.415 38.9977 60.4815 39.088 60.6146 39.1551C61.757 39.9471 62.888 40.6036 64.0075 41.1246C65.1293 41.6433 66.1376 41.9026 67.0323 41.9026C67.2112 41.9026 67.3007 41.7001 67.3007 41.2948ZM64.4721 14.3554C64.4721 14.3091 64.4664 14.2801 64.4549 14.2685C64.4434 14.2569 64.4377 14.2408 64.4377 14.22V14.1504C64.417 14.1504 64.3952 14.4723 64.3723 15.1161C64.3494 15.7621 64.3161 16.8087 64.2725 18.256C64.2037 20.4257 63.2517 21.5106 61.4164 21.5106C60.1615 21.5106 59.2083 20.8435 58.5567 19.5097L58.0887 20.2566C57.4831 21.2291 56.632 21.7154 55.5354 21.7154C55.0858 21.7154 54.721 21.5741 54.4411 21.2916C54.1612 21.0091 53.9376 20.6467 53.7701 20.2044C53.6027 19.7645 53.4845 19.2783 53.4156 18.7457C53.3491 18.2154 53.3159 17.7129 53.3159 17.2382C53.3159 16.6732 53.3491 16.1244 53.4156 15.5918C53.4845 15.0615 53.5739 14.5811 53.6841 14.1504C53.7965 13.722 53.9204 13.3608 54.0557 13.0667C54.1888 12.7726 54.3115 12.5804 54.424 12.4901H54.7612C54.8506 12.6012 54.8954 12.8491 54.8954 13.2335C54.8954 13.3933 54.8782 13.626 54.8438 13.9316C54.8116 14.235 54.7784 14.5511 54.7439 14.8799C54.7095 15.2087 54.682 15.5201 54.6614 15.8142C54.6385 16.1083 54.6269 16.3341 54.6269 16.4915C54.6269 17.8484 55.0858 18.5269 56.0034 18.5269C56.788 18.5269 57.3765 18.3856 57.7688 18.1031C58.161 17.8206 58.3572 17.4525 58.3572 16.9986C58.3572 16.9315 58.34 16.8076 58.3055 16.627C58.2734 16.4464 58.2344 16.2367 58.1886 15.9982C58.145 15.762 58.106 15.5248 58.0716 15.2863C58.0372 15.0501 58.02 14.8415 58.02 14.6609C58.02 14.2765 58.0589 13.9084 58.1369 13.5564C58.2172 13.2068 58.3078 12.8964 58.4088 12.6255C58.5074 12.3523 58.6027 12.1312 58.6944 11.9622C58.7839 11.7931 58.8504 11.7086 58.894 11.7086C58.9605 11.7086 59.0339 11.7712 59.1142 11.8963C59.1922 12.019 59.253 12.239 59.2966 12.5562C59.3425 12.8734 59.3815 13.2971 59.4136 13.8273C59.448 14.3599 59.4652 15.0442 59.4652 15.8801C59.4652 16.5146 59.6889 17.0797 60.1362 17.5752C60.5859 18.0731 61.3143 18.3219 62.3214 18.3219C62.8812 18.3219 63.2057 18.1748 63.2952 17.8807C63.2516 17.7001 63.2298 17.5646 63.2298 17.4743V17.3043C63.2298 16.9199 63.1679 16.5412 63.044 16.1684C62.9201 15.7956 62.7917 15.4621 62.6586 15.168C62.5026 14.8299 62.3237 14.514 62.1218 14.22C62.1218 14.1297 62.1551 13.971 62.2216 13.744C62.2652 13.5634 62.3329 13.303 62.4246 12.9626C62.5141 12.6245 62.6254 12.1613 62.7584 11.5732C62.7814 11.4157 62.9155 11.2119 63.161 10.9618H63.364C63.4535 11.2119 63.5545 11.506 63.6669 11.8441C63.7793 12.1382 63.8963 12.5005 64.0179 12.9312C64.1418 13.3596 64.2932 13.8344 64.4721 14.3554ZM64.5616 57.5676C64.4492 57.7945 64.2186 58.3039 63.8699 59.0959C63.5235 59.8855 63.0589 60.9704 62.4762 62.3504C59.3173 64.453 54.9149 66.963 49.2691 69.8806C49.3815 69.5194 49.6063 68.9428 49.9436 68.1509C50.2785 67.359 50.7041 66.3298 51.2202 65.0632C53.2574 63.91 55.3852 62.7174 57.6036 61.4855C59.822 60.2536 62.1413 58.9477 64.5616 57.5676ZM43.2608 50.8258C43.1484 50.8258 43.0372 50.8316 42.927 50.8432C42.8146 50.8525 42.7022 50.857 42.5898 50.857C42.2755 50.857 41.9784 50.8467 41.6985 50.8258C41.4186 50.8027 41.1445 50.7678 40.8761 50.7215C40.8096 50.791 40.5297 51.7415 40.0365 53.5731C39.7222 54.7703 38.9261 55.3689 37.6483 55.3689C36.148 55.3689 35.2751 54.7703 35.0296 53.5731C35.0502 53.2096 35.0663 52.8472 35.0777 52.486C35.0892 52.1247 35.095 51.7521 35.095 51.3677C35.095 50.8467 35.0835 50.3151 35.0605 49.7733C35.0399 49.2314 35.0066 48.6665 34.9608 48.0783C34.7818 47.9417 34.5914 47.8733 34.3895 47.8733C32.8433 48.5286 31.6113 49.0428 30.6937 49.4156C29.7738 49.7907 29.0397 50.0744 28.4914 50.2666C27.9431 50.4588 27.5061 50.5768 27.1803 50.6208C26.8568 50.6671 26.5265 50.6904 26.1893 50.6904C26.0103 50.6904 25.8428 50.6904 25.6868 50.6904C25.5285 50.6904 25.36 50.6671 25.181 50.6208C24.869 50.4402 24.5673 49.9992 24.276 49.2975C23.9846 48.5959 23.839 47.8271 23.839 46.9912C23.839 46.403 23.9399 45.8207 24.1418 45.2441C24.3414 44.6676 24.6878 44.1869 25.181 43.8026H25.4838C26.8947 43.8026 28.3457 43.6161 29.8369 43.2433C31.3258 42.8705 32.6299 42.3901 33.7495 41.8019L33.9525 41.5969C34.0879 41.5066 34.206 41.2866 34.3069 40.937C34.4079 40.5873 34.4974 40.1972 34.5753 39.7665C34.6534 39.3382 34.7199 38.9317 34.7749 38.5473C34.8323 38.1606 34.8942 37.8886 34.9608 37.7311L35.2292 37.5957C35.8348 39.5408 36.3946 40.7171 36.9084 41.1246C37.56 41.8702 38.7483 42.5706 40.4735 43.2259C41.7054 43.4968 42.623 43.6497 43.2264 43.6845C43.832 43.7192 44.3138 43.7586 44.6717 43.8026C44.986 43.9623 45.2555 44.392 45.4803 45.0913C45.7029 45.7929 45.8141 46.5511 45.8141 47.3662C45.8141 47.9984 45.7304 48.6087 45.5629 49.1968C45.3955 49.785 45.0984 50.2596 44.6717 50.6208C44.4698 50.6671 43.9995 50.7355 43.2608 50.8258ZM40.384 14.3554C40.384 14.3091 40.3783 14.2801 40.3668 14.2685C40.3553 14.2569 40.3496 14.2408 40.3496 14.22V14.1504C40.3289 14.1504 40.3072 14.4723 40.2842 15.1161C40.2613 15.7621 40.228 16.8087 40.1845 18.256C40.1156 20.4257 39.1636 21.5106 37.3283 21.5106C36.0734 21.5106 35.1202 20.8435 34.4687 19.5097L34.0007 20.2566C33.395 21.2291 32.5439 21.7154 31.4474 21.7154C30.9977 21.7154 30.6329 21.5741 30.353 21.2916C30.0732 21.0091 29.8495 20.6467 29.682 20.2044C29.5146 19.7645 29.3964 19.2783 29.3276 18.7457C29.261 18.2154 29.2278 17.7129 29.2278 17.2382C29.2278 16.6732 29.261 16.1244 29.3276 15.5918C29.3964 15.0615 29.4859 14.5811 29.596 14.1504C29.7084 13.722 29.8323 13.3608 29.9676 13.0667C30.1007 12.7726 30.2235 12.5804 30.3359 12.4901H30.6731C30.7625 12.6012 30.8073 12.8491 30.8073 13.2335C30.8073 13.3933 30.7901 13.626 30.7557 13.9316C30.7235 14.235 30.6903 14.5511 30.6558 14.8799C30.6214 15.2087 30.594 15.5201 30.5733 15.8142C30.5504 16.1083 30.5389 16.3341 30.5389 16.4915C30.5389 17.8484 30.9977 18.5269 31.9154 18.5269C32.6999 18.5269 33.2884 18.3856 33.6807 18.1031C34.073 17.8206 34.2691 17.4525 34.2691 16.9986C34.2691 16.9315 34.2519 16.8076 34.2175 16.627C34.1853 16.4464 34.1464 16.2367 34.1005 15.9982C34.0569 15.762 34.0179 15.5248 33.9835 15.2863C33.9491 15.0501 33.9319 14.8415 33.9319 14.6609C33.9319 14.2765 33.9709 13.9084 34.0489 13.5564C34.1291 13.2068 34.2197 12.8964 34.3207 12.6255C34.4193 12.3523 34.5146 12.1312 34.6063 11.9622C34.6958 11.7931 34.7623 11.7086 34.8059 11.7086C34.8724 11.7086 34.9458 11.7712 35.0261 11.8963C35.1041 12.019 35.165 12.239 35.2085 12.5562C35.2544 12.8734 35.2934 13.2971 35.3255 13.8273C35.3599 14.3599 35.3771 15.0442 35.3771 15.8801C35.3771 16.5146 35.6008 17.0797 36.0481 17.5752C36.4978 18.0731 37.2262 18.3219 38.2333 18.3219C38.7931 18.3219 39.1177 18.1748 39.2071 17.8807C39.1635 17.7001 39.1418 17.5646 39.1418 17.4743V17.3043C39.1418 16.9199 39.0798 16.5412 38.9559 16.1684C38.832 15.7956 38.7036 15.4621 38.5705 15.168C38.4145 14.8299 38.2356 14.514 38.0337 14.22C38.0337 14.1297 38.067 13.971 38.1335 13.744C38.1771 13.5634 38.2448 13.303 38.3365 12.9626C38.426 12.6245 38.5373 12.1613 38.6703 11.5732C38.6933 11.4157 38.8274 11.2119 39.0729 10.9618H39.276C39.3654 11.2119 39.4664 11.506 39.5788 11.8441C39.6912 12.1382 39.8082 12.5005 39.9298 12.9312C40.0537 13.3596 40.2051 13.8344 40.384 14.3554ZM40.5389 0C40.4265 0.226927 40.1971 0.735075 39.8507 1.52469C39.5042 2.31662 39.0397 3.40258 38.457 4.78267C35.298 6.88522 30.8956 9.39541 25.2498 12.313C25.3622 11.9518 25.5859 11.3753 25.9208 10.5834C26.2581 9.79142 26.6836 8.76202 27.1975 7.49539C29.237 6.34223 31.3659 5.14982 33.5843 3.91793C35.8004 2.68604 38.1186 1.38009 40.5389 0ZM23.0647 50.6208C19.5914 50.5768 16.9417 48.9767 15.1156 45.8206C13.2918 42.6667 12.1665 37.9465 11.7398 31.6597C11.694 30.9141 11.6263 29.5918 11.5368 27.6931C11.4473 25.792 11.3361 23.2923 11.203 20.1941C11.1571 19.0409 11.1124 17.4814 11.0688 15.5155C11.0229 13.5472 11 11.1274 11 8.25604C11 8.02911 11.0332 7.74095 11.0998 7.3913C11.1686 7.03933 11.2592 6.7058 11.3717 6.39088C11.4818 6.07365 11.6159 5.79581 11.7742 5.55731C11.9302 5.32112 12.1092 5.20306 12.3111 5.20306C12.6689 5.20306 12.9156 6.22064 13.0509 8.25604L14.159 25.5536C14.3609 28.7421 14.6247 31.3482 14.9504 33.372C15.2739 35.3959 15.6651 37.019 16.1239 38.2416C16.585 39.4619 17.1115 40.3942 17.7034 41.0379C18.2975 41.6839 18.9536 42.2327 19.6717 42.6843C20.2314 43.0455 20.8532 43.3278 21.5368 43.5316C22.2204 43.7354 22.9534 43.8373 23.7357 43.8373C23.8251 43.8373 23.91 43.8315 23.9903 43.8199C24.0683 43.8084 24.1521 43.8026 24.2415 43.8026C25.0261 43.916 25.5859 44.2495 25.9208 44.803C26.2581 45.3587 26.4267 45.9862 26.4267 46.6855C26.4267 47.1394 26.3648 47.6036 26.2409 48.0783C26.117 48.553 25.9438 48.9825 25.7213 49.3669C25.4964 49.7512 25.2269 50.0615 24.9126 50.2977C24.5983 50.5362 24.2622 50.6556 23.9043 50.6556C23.7919 50.6556 23.6692 50.6556 23.5361 50.6556C23.4007 50.6556 23.2436 50.644 23.0647 50.6208ZM150.776 40.3432C150.776 44.4371 150.295 47.2413 149.331 48.7557C147.854 51.062 146.169 52.8032 144.276 53.9795C142.381 55.1558 140.18 55.744 137.672 55.744C137.335 55.744 136.982 55.7382 136.612 55.7266C136.243 55.715 135.845 55.6978 135.418 55.6746H134.682C134.301 55.6746 133.931 55.663 133.57 55.6399C133.213 55.619 132.866 55.5855 132.531 55.5392L132.665 54.9973C132.957 54.8167 133.83 54.3189 135.284 53.5038C136.741 52.691 138.802 51.5493 141.468 50.079C143.932 48.722 145.865 47.467 147.266 46.3139C148.666 45.1607 149.365 44.1545 149.365 43.2955C149.365 42.8208 149.169 42.0971 148.777 41.1246C148.385 40.1521 147.808 38.8971 147.046 37.3595C146.801 36.8617 146.61 36.1658 146.475 35.272C146.342 34.3782 146.275 33.3442 146.275 32.1702C146.275 30.5864 146.443 29.7946 146.778 29.7946C146.89 29.7946 146.997 29.9021 147.098 30.1175C147.199 30.3328 147.339 30.5644 147.518 30.8122C148.1 31.7176 148.599 32.5547 149.014 33.3235C149.427 34.0923 149.763 34.8494 150.023 35.5951C150.28 36.3407 150.47 37.092 150.594 37.8492C150.716 38.6064 150.776 39.4378 150.776 40.3432ZM151.248 13.8935C151.135 14.1204 150.906 14.6286 150.56 15.4182C150.211 16.2101 149.746 17.2961 149.166 18.6762C146.007 20.7787 141.604 23.2889 135.959 26.2065C136.069 25.8453 136.292 25.2688 136.63 24.4768C136.965 23.6849 137.39 22.6555 137.906 21.3889C139.946 20.2357 142.075 19.0433 144.293 17.8114C146.509 16.5795 148.827 15.2736 151.248 13.8935ZM118.684 43.8026L119.692 43.8721C123.59 44.187 127.701 43.3498 132.025 41.3608C132.698 40.5688 132.748 39.3822 132.177 37.8007C131.606 36.2168 131.353 34.9838 131.42 34.1015C131.399 33.6731 131.517 33.0398 131.774 32.2016C132.031 31.3657 132.418 30.3027 132.934 29.013L133.202 29.0477C133.202 29.0477 133.56 30.1442 134.276 32.3371C134.859 34.1247 135.061 36.0246 134.882 38.0368C134.749 39.5744 134.391 41.2474 133.808 43.0559C132.149 48.1664 127.108 50.688 118.684 50.6208C118.237 50.2364 117.906 49.7051 117.693 49.0266C117.48 48.3481 117.379 47.6581 117.39 46.9564C117.402 46.2571 117.52 45.6133 117.745 45.0251C117.967 44.437 118.28 44.0295 118.684 43.8026ZM129.303 53.5038L134.245 58.4219L129.303 63.5105L124.665 59.0681L120.398 63.441L115.525 58.4915L120.398 53.4376L124.902 57.9462L129.303 53.5038ZM130.917 18.4366C130.917 19.1151 130.805 19.7935 130.58 20.472C130.358 21.1505 130.05 21.7779 129.658 22.3545C129.266 22.9311 128.794 23.4522 128.244 23.9176C127.695 24.3807 127.097 24.7478 126.447 25.0187C126.335 25.065 125.982 25.1332 125.387 25.2235C124.796 25.3138 124.141 25.4099 123.423 25.5118C122.707 25.6137 122.029 25.6982 121.389 25.7654C120.751 25.8325 120.331 25.8661 120.129 25.8661C119.524 25.8661 119.221 25.697 119.221 25.359C119.221 24.9514 120.689 24.2162 123.626 23.1533C125.08 22.6323 126.11 22.2087 126.716 21.8822C127.321 21.5534 127.624 21.265 127.624 21.0172C127.624 20.0655 125.631 19.5445 121.643 19.4542L121.372 19.1833C121.642 18.7317 121.978 18.161 122.38 17.4709C122.784 16.7809 123.265 15.9612 123.825 15.0118C124.185 14.8775 124.645 14.8104 125.205 14.8104C125.921 14.8104 126.621 14.9007 127.304 15.0813C127.988 15.2619 128.592 15.5155 129.118 15.842C129.645 16.1708 130.071 16.555 130.394 16.995C130.72 17.4373 130.894 17.9179 130.917 18.4366ZM95.7729 64.2919L90.8313 59.2695L95.7729 54.2852L100.745 59.2695L95.7729 64.2919ZM115.869 49.1968C114.525 48.2474 113.629 46.9806 113.182 45.3968C112.285 46.3693 111.226 47.2123 110.005 47.9255C108.783 48.6364 107.433 49.2292 105.955 49.7039C104.476 50.1786 102.896 50.5294 101.217 50.7563C99.5375 50.9832 97.7905 51.0968 95.9759 51.0968C93.4661 51.0968 91.2087 50.8929 89.2037 50.4854C87.1986 50.0778 85.4953 49.4226 84.0936 48.5195C82.6942 47.6141 81.6194 46.4492 80.8692 45.0251C80.1191 43.6011 79.7439 41.8715 79.7439 39.8361C79.7439 39.3614 79.8002 38.75 79.9126 38.0021C80.0227 37.2565 80.1684 36.5212 80.3496 35.7965C80.5285 35.074 80.7293 34.4418 80.9518 33.8999C81.1766 33.3558 81.39 33.0386 81.5918 32.9483L82.3627 33.1185C82.4544 33.2088 82.5003 33.3223 82.5003 33.459C82.5003 33.6396 82.4441 33.9103 82.3317 34.2716C82.2193 34.6328 82.1011 35.0057 81.9772 35.3901C81.8534 35.7744 81.7364 36.1426 81.6263 36.4946C81.5139 36.8442 81.4576 37.0874 81.4576 37.224C81.4576 38.2869 81.8328 39.2641 82.5829 40.1556C83.3331 41.0494 84.3574 41.8181 85.6558 42.4619C86.9566 43.1079 88.4811 43.6057 90.2292 43.9554C91.975 44.3051 93.8447 44.4799 95.8382 44.4799C102.202 44.4799 107.557 43.2817 111.902 40.885C112.262 40.6813 112.587 40.4103 112.879 40.0722C113.17 39.7318 113.405 39.4041 113.584 39.0892C113.763 38.772 113.903 38.4999 114.004 38.273C114.105 38.0484 114.155 37.9465 114.155 37.9673L114.489 37.9014C114.671 37.9685 114.816 38.178 114.926 38.53C115.039 38.8796 115.128 39.2467 115.195 39.6311C115.264 40.0155 115.309 40.372 115.332 40.7008C115.353 41.0273 115.375 41.2021 115.398 41.2253C115.845 42.0404 116.439 42.6737 117.18 43.1252C117.919 43.5768 118.782 43.8026 119.768 43.8026C120.036 43.8026 120.277 43.9103 120.491 44.1256C120.702 44.341 120.881 44.6177 121.028 44.9558C121.172 45.2962 121.283 45.6863 121.361 46.1263C121.442 46.5685 121.482 47.0038 121.482 47.4322C121.482 48.2472 121.342 48.9825 121.062 49.6378C120.78 50.2931 120.348 50.6208 119.768 50.6208C119.073 50.6208 118.401 50.497 117.752 50.2492C117.1 49.9991 116.473 49.6484 115.869 49.1968ZM103.588 69.1062C103.319 69.604 103.029 70.0902 102.717 70.5649C102.403 71.0396 102.055 71.4807 101.674 71.8882L100.597 72.8053C99.1865 73.4838 97.7194 74.1229 96.1961 74.7226C94.6728 75.3201 93.2723 76.0146 91.9945 76.8066C91.8156 76.7394 91.6595 76.7059 91.5265 76.7059C91.3911 76.7059 91.3234 76.5704 91.3234 76.2995C91.4588 75.7553 91.6939 75.2691 92.0289 74.8407C92.3661 74.41 92.6792 73.9688 92.9683 73.5172C93.6864 72.9291 94.471 72.437 95.3221 72.0411C96.1732 71.6451 97.0415 71.278 97.927 70.94C98.8126 70.5996 99.7084 70.2546 100.615 69.905C101.523 69.553 102.38 69.1178 103.185 68.5991C103.343 68.5991 103.45 68.6556 103.505 68.7691C103.56 68.8826 103.588 68.995 103.588 69.1062ZM103.588 73.177C103.319 73.698 103.029 74.1958 102.717 74.6705C102.403 75.1452 102.055 75.5746 101.674 75.959L100.597 76.9073C99.9045 77.2477 99.1819 77.5707 98.4294 77.8763C97.6793 78.182 96.9348 78.4923 96.1961 78.8072C95.4574 79.1244 94.7291 79.4532 94.011 79.7936C93.2952 80.1317 92.6231 80.5046 91.9945 80.9121C91.7926 80.8218 91.6309 80.7766 91.5093 80.7766C91.3854 80.7766 91.3234 80.6412 91.3234 80.3703C91.5253 79.5783 91.8672 78.8941 92.3489 78.3175C92.8307 77.7409 93.4019 77.2315 94.0626 76.7892C94.7233 76.3492 95.4459 75.9649 96.2305 75.6361C97.0151 75.3096 97.8158 74.9935 98.6325 74.6879C99.4492 74.3822 100.25 74.0706 101.034 73.7534C101.819 73.4385 102.536 73.0774 103.185 72.6699C103.343 72.6699 103.45 72.7264 103.505 72.8399C103.56 72.951 103.588 73.0635 103.588 73.177Z" fill="#F5F9FA"/>
<path d="M54.6335 40.3745L58.9694 34.6088C60.043 33.4325 61.0845 32.5386 62.0939 31.9273C63.101 31.316 64.0978 31.0104 65.0843 31.0104C65.8918 31.0104 66.6145 31.2026 67.2522 31.587C67.89 31.9714 68.4325 32.497 68.8799 33.1638C69.3295 33.833 69.6714 34.6309 69.9054 35.5571C70.1417 36.4833 70.2598 37.4893 70.2598 38.5753C70.2598 38.6656 70.2598 38.7675 70.2598 38.881C70.2598 38.9945 70.2541 39.1693 70.2426 39.4055C70.2312 39.644 70.2139 39.9728 70.191 40.3919C70.1703 40.8087 70.1256 41.3564 70.0568 42.0349C70.0568 42.85 69.4408 44.5125 68.2089 47.0226C67.7615 47.9048 66.9334 48.3461 65.7244 48.3461C64.9604 48.3461 61.4424 46.9543 55.1703 44.171C54.9249 44.6248 54.3319 45.3265 53.3913 46.2759C50.2529 48.9666 47.7317 50.3571 45.8276 50.4474C45.6946 50.4034 45.5603 50.2621 45.425 50.0236C45.2896 49.7851 45.1669 49.4853 45.0568 49.1241C44.9444 48.7629 44.8549 48.3622 44.7884 47.9223C44.7196 47.48 44.6851 47.0331 44.6851 46.5816C44.6851 45.9934 44.7643 45.433 44.9226 44.9005C45.0786 44.3702 45.3584 43.9463 45.7622 43.6291L46.4676 43.5284C46.9815 43.3918 47.4851 43.2669 47.9783 43.1534C48.4716 43.0422 49.0267 42.8846 49.6438 42.6808C50.2587 42.4771 50.9641 42.1992 51.7602 41.8473C52.5562 41.4976 53.514 41.0067 54.6335 40.3745ZM67.3004 41.1214C67.3004 40.6675 67.1329 40.2265 66.798 39.7981C66.4631 39.3674 66.0547 38.9887 65.5729 38.6622C65.0912 38.3334 64.5693 38.073 64.0072 37.8808C63.4474 37.6886 62.9439 37.5925 62.4966 37.5925C62.2947 37.5925 62.071 37.6144 61.8255 37.6584C61.5777 37.7047 61.3472 37.7731 61.1339 37.8634C60.9228 37.9537 60.7496 38.0729 60.6143 38.2211C60.4812 38.3669 60.4147 38.5302 60.4147 38.7108C60.4147 38.8242 60.4812 38.9145 60.6143 38.9817C61.7567 39.7736 62.8877 40.4301 64.0072 40.9512C65.129 41.4698 66.1373 41.7292 67.032 41.7292C67.2109 41.7292 67.3004 41.5266 67.3004 41.1214ZM64.4718 14.182C64.4718 14.1357 64.466 14.1066 64.4546 14.0951C64.4431 14.0835 64.4373 14.0674 64.4373 14.0465V13.977C64.4167 13.977 64.3949 14.2989 64.372 14.9426C64.349 15.5887 64.3158 16.6353 64.2722 18.0825C64.2034 20.2522 63.2513 21.3371 61.416 21.3371C60.1612 21.3371 59.2079 20.6701 58.5564 19.3363L58.0884 20.0832C57.4828 21.0557 56.6317 21.5419 55.5351 21.5419C55.0855 21.5419 54.7207 21.4006 54.4408 21.1181C54.1609 20.8356 53.9373 20.4733 53.7698 20.031C53.6023 19.591 53.4841 19.1048 53.4153 18.5723C53.3488 18.042 53.3156 17.5394 53.3156 17.0647C53.3156 16.4997 53.3488 15.9509 53.4153 15.4184C53.4841 14.8881 53.5736 14.4077 53.6837 13.977C53.7961 13.5486 53.92 13.1873 54.0554 12.8933C54.1884 12.5992 54.3112 12.4069 54.4236 12.3166H54.7608C54.8503 12.4278 54.895 12.6757 54.895 13.0601C54.895 13.2199 54.8778 13.4525 54.8434 13.7582C54.8113 14.0615 54.778 14.3777 54.7436 14.7065C54.7092 15.0353 54.6817 15.3467 54.6611 15.6407C54.6381 15.9348 54.6266 16.1606 54.6266 16.3181C54.6266 17.675 55.0855 18.3535 56.0031 18.3535C56.7877 18.3535 57.3761 18.2122 57.7684 17.9297C58.1607 17.6472 58.3568 17.279 58.3568 16.8252C58.3568 16.758 58.3396 16.6342 58.3052 16.4535C58.2731 16.2729 58.2341 16.0633 58.1882 15.8248C58.1446 15.5886 58.1057 15.3514 58.0712 15.1129C58.0368 14.8767 58.0196 14.6681 58.0196 14.4875C58.0196 14.1031 58.0586 13.7349 58.1366 13.383C58.2169 13.0333 58.3075 12.723 58.4084 12.4521C58.5071 12.1789 58.6023 11.9578 58.6941 11.7887C58.7836 11.6197 58.8501 11.5352 58.8937 11.5352C58.9602 11.5352 59.0336 11.5978 59.1139 11.7228C59.1919 11.8455 59.2527 12.0655 59.2963 12.3828C59.3422 12.7 59.3812 13.1236 59.4133 13.6539C59.4477 14.1865 59.4649 14.8708 59.4649 15.7067C59.4649 16.3411 59.6886 16.9063 60.1359 17.4018C60.5855 17.8997 61.314 18.1485 62.3211 18.1485C62.8808 18.1485 63.2054 18.0014 63.2949 17.7073C63.2513 17.5267 63.2295 17.3912 63.2295 17.3009V17.1309C63.2295 16.7465 63.1676 16.3678 63.0437 15.995C62.9198 15.6222 62.7913 15.2887 62.6583 14.9946C62.5023 14.6565 62.3234 14.3406 62.1215 14.0465C62.1215 13.9562 62.1547 13.7975 62.2213 13.5706C62.2648 13.39 62.3325 13.1296 62.4243 12.7892C62.5138 12.4511 62.625 11.9879 62.7581 11.3997C62.781 11.2423 62.9152 11.0384 63.1607 10.7883H63.3637C63.4532 11.0384 63.5541 11.3326 63.6665 11.6707C63.7789 11.9647 63.896 12.3271 64.0175 12.7578C64.1414 13.1862 64.2929 13.661 64.4718 14.182ZM43.2605 50.6524C43.1481 50.6524 43.0368 50.6582 42.9267 50.6698C42.8143 50.679 42.7019 50.6835 42.5895 50.6835C42.2752 50.6835 41.9781 50.6732 41.6982 50.6524C41.4183 50.6292 41.1442 50.5944 40.8758 50.5481C40.8092 50.6175 40.5294 51.568 40.0362 53.3997C39.7219 54.5968 38.9258 55.1955 37.648 55.1955C36.1477 55.1955 35.2747 54.5968 35.0293 53.3997C35.0499 53.0361 35.0659 52.6738 35.0774 52.3125C35.0889 51.9513 35.0946 51.5786 35.0946 51.1942C35.0946 50.6732 35.0831 50.1417 35.0602 49.5998C35.0395 49.058 35.0063 48.4931 34.9604 47.9049C34.7815 47.7683 34.5911 47.6999 34.3892 47.6999C32.843 48.3552 31.611 48.8694 30.6934 49.2422C29.7734 49.6173 29.0393 49.9009 28.491 50.0931C27.9428 50.2853 27.5057 50.4034 27.18 50.4474C26.8565 50.4937 26.5262 50.5169 26.1889 50.5169C26.01 50.5169 25.8425 50.5169 25.6865 50.5169C25.5282 50.5169 25.3596 50.4937 25.1807 50.4474C24.8687 50.2668 24.567 49.8257 24.2757 49.1241C23.9843 48.4225 23.8386 47.6537 23.8386 46.8178C23.8386 46.2296 23.9396 45.6473 24.1414 45.0707C24.341 44.4941 24.6875 44.0135 25.1807 43.6291H25.4835C26.8944 43.6291 28.3454 43.4427 29.8366 43.0699C31.3254 42.6971 32.6296 42.2166 33.7491 41.6285L33.9522 41.4235C34.0875 41.3332 34.2057 41.1132 34.3066 40.7635C34.4075 40.4139 34.497 40.0238 34.575 39.5931C34.653 39.1647 34.7195 38.7583 34.7746 38.3739C34.832 37.9872 34.8939 37.7152 34.9604 37.5577L35.2289 37.4222C35.8345 39.3673 36.3942 40.5436 36.9081 40.9512C37.5596 41.6968 38.748 42.3972 40.4732 43.0525C41.7051 43.3234 42.6227 43.4763 43.2261 43.511C43.8317 43.5458 44.3135 43.5851 44.6714 43.6291C44.9857 43.7889 45.2552 44.2185 45.48 44.9178C45.7025 45.6195 45.8138 46.3777 45.8138 47.1928C45.8138 47.8249 45.7301 48.4352 45.5626 49.0234C45.3951 49.6116 45.0981 50.0862 44.6714 50.4474C44.4695 50.4937 43.9992 50.5621 43.2605 50.6524ZM40.3837 14.182C40.3837 14.1357 40.378 14.1066 40.3665 14.0951C40.355 14.0835 40.3493 14.0674 40.3493 14.0465V13.977C40.3286 13.977 40.3068 14.2989 40.2839 14.9426C40.2609 15.5887 40.2277 16.6353 40.1841 18.0825C40.1153 20.2522 39.1632 21.3371 37.328 21.3371C36.0731 21.3371 35.1199 20.6701 34.4683 19.3363L34.0003 20.0832C33.3947 21.0557 32.5436 21.5419 31.447 21.5419C30.9974 21.5419 30.6326 21.4006 30.3527 21.1181C30.0728 20.8356 29.8492 20.4733 29.6817 20.031C29.5142 19.591 29.3961 19.1048 29.3272 18.5723C29.2607 18.042 29.2275 17.5394 29.2275 17.0647C29.2275 16.4997 29.2607 15.9509 29.3272 15.4184C29.3961 14.8881 29.4855 14.4077 29.5957 13.977C29.7081 13.5486 29.8319 13.1873 29.9673 12.8933C30.1004 12.5992 30.2231 12.4069 30.3355 12.3166H30.6727C30.7622 12.4278 30.807 12.6757 30.807 13.0601C30.807 13.2199 30.7898 13.4525 30.7553 13.7582C30.7232 14.0615 30.6899 14.3777 30.6555 14.7065C30.6211 15.0353 30.5936 15.3467 30.573 15.6407C30.55 15.9348 30.5385 16.1606 30.5385 16.3181C30.5385 17.675 30.9974 18.3535 31.915 18.3535C32.6996 18.3535 33.2881 18.2122 33.6803 17.9297C34.0726 17.6472 34.2687 17.279 34.2687 16.8252C34.2687 16.758 34.2515 16.6342 34.2171 16.4535C34.185 16.2729 34.146 16.0633 34.1001 15.8248C34.0566 15.5886 34.0176 15.3514 33.9832 15.1129C33.9487 14.8767 33.9315 14.6681 33.9315 14.4875C33.9315 14.1031 33.9705 13.7349 34.0485 13.383C34.1288 13.0333 34.2194 12.723 34.3204 12.4521C34.419 12.1789 34.5142 11.9578 34.606 11.7887C34.6955 11.6197 34.762 11.5352 34.8056 11.5352C34.8721 11.5352 34.9455 11.5978 35.0258 11.7228C35.1038 11.8455 35.1646 12.0655 35.2082 12.3828C35.2541 12.7 35.2931 13.1236 35.3252 13.6539C35.3596 14.1865 35.3768 14.8708 35.3768 15.7067C35.3768 16.3411 35.6005 16.9063 36.0478 17.4018C36.4975 17.8997 37.2259 18.1485 38.233 18.1485C38.7927 18.1485 39.1173 18.0014 39.2068 17.7073C39.1632 17.5267 39.1414 17.3912 39.1414 17.3009V17.1309C39.1414 16.7465 39.0795 16.3678 38.9556 15.995C38.8317 15.6222 38.7032 15.2887 38.5702 14.9946C38.4142 14.6565 38.2353 14.3406 38.0334 14.0465C38.0334 13.9562 38.0666 13.7975 38.1332 13.5706C38.1768 13.39 38.2444 13.1296 38.3362 12.7892C38.4257 12.4511 38.5369 11.9879 38.67 11.3997C38.6929 11.2423 38.8271 11.0384 39.0726 10.7883H39.2756C39.3651 11.0384 39.466 11.3326 39.5784 11.6707C39.6909 11.9647 39.8079 12.3271 39.9295 12.7578C40.0533 13.1862 40.2048 13.661 40.3837 14.182Z" fill="#FFCA3A"/>
</svg>
