<svg width="152" height="122" viewBox="0 0 152 122" fill="none" xmlns="http://www.w3.org/2000/svg">
<path d="M31.0016 104.304C30.9896 103.812 30.8696 103.458 30.6416 103.242C30.4256 103.026 30.0656 102.918 29.5616 102.918H28.2656C27.4736 102.918 26.8616 102.864 26.4296 102.756C26.0096 102.648 25.6496 102.48 25.3496 102.252C25.0256 102.012 24.7796 101.706 24.6116 101.334C24.4556 100.95 24.3776 100.518 24.3776 100.038C24.3776 99.882 24.3896 99.726 24.4136 99.57C24.4256 99.414 24.4436 99.252 24.4676 99.084L25.7996 99.174C25.7756 99.318 25.7576 99.444 25.7456 99.552C25.7336 99.66 25.7276 99.762 25.7276 99.858C25.7276 100.122 25.7516 100.356 25.7996 100.56C25.8596 100.764 25.9496 100.932 26.0696 101.064C26.2376 101.256 26.4776 101.4 26.7896 101.496C27.1136 101.58 27.5696 101.622 28.1576 101.622H29.1836C29.8196 101.622 30.3236 101.67 30.6956 101.766C31.0676 101.862 31.3856 102.036 31.6496 102.288C31.8536 102.48 32.0096 102.744 32.1176 103.08C32.2256 103.404 32.2856 103.812 32.2976 104.304H31.0016ZM28.9136 106.5C29.8616 106.5 30.6236 106.662 31.1996 106.986C31.7876 107.298 32.2196 107.7 32.4956 108.192C32.7716 108.672 32.9096 109.158 32.9096 109.65C32.9096 110.634 32.5616 111.414 31.8656 111.99C31.1816 112.566 30.1616 112.89 28.8056 112.962L28.9856 112.764C29.5256 112.92 30.0956 113.142 30.6956 113.43C31.2956 113.718 31.9016 114.054 32.5136 114.438C33.1256 114.81 33.7136 115.224 34.2776 115.68L33.4496 116.634C32.7056 116.082 32.0216 115.608 31.3976 115.212C30.7856 114.804 30.1796 114.45 29.5796 114.15C28.9796 113.85 28.3436 113.586 27.6716 113.358C26.9996 113.13 26.2376 112.92 25.3856 112.728L25.6556 111.486C26.0756 111.606 26.4776 111.696 26.8616 111.756C27.2576 111.804 27.7316 111.828 28.2836 111.828C29.1356 111.828 29.7896 111.726 30.2456 111.522C30.7136 111.318 31.0376 111.054 31.2176 110.73C31.3976 110.406 31.4876 110.076 31.4876 109.74C31.4876 109.104 31.2536 108.618 30.7856 108.282C30.3176 107.934 29.7236 107.76 29.0036 107.76C28.5716 107.76 28.2236 107.802 27.9596 107.886C27.6956 107.97 27.5036 108.096 27.3836 108.264C27.2756 108.42 27.2216 108.612 27.2216 108.84C27.2216 108.936 27.2336 109.038 27.2576 109.146C27.2816 109.242 27.3056 109.332 27.3296 109.416L26.0156 109.686C25.9556 109.506 25.9076 109.32 25.8716 109.128C25.8356 108.924 25.8176 108.744 25.8176 108.588C25.8176 108.144 25.9496 107.766 26.2136 107.454C26.4776 107.142 26.8376 106.908 27.2936 106.752C27.7616 106.584 28.3016 106.5 28.9136 106.5ZM27.7076 107.13C27.6476 106.746 27.4676 106.41 27.1676 106.122C26.8676 105.822 26.4356 105.612 25.8716 105.492L26.3036 104.682L27.1316 104.898C27.8036 105.162 28.2896 105.462 28.5896 105.798C28.9016 106.134 29.0816 106.56 29.1296 107.076L27.7076 107.13ZM34.2776 104.304V105.582H24.3776V104.304H34.2776ZM45.5505 104.304V105.582H43.6605V115.5H42.2745C41.7705 114.828 41.2125 114.24 40.6005 113.736C39.9885 113.22 39.2805 112.788 38.4765 112.44C37.6725 112.092 36.7185 111.84 35.6145 111.684L34.9665 110.046C35.3385 109.794 35.7285 109.554 36.1365 109.326C36.5445 109.098 36.9585 108.876 37.3785 108.66C37.8105 108.444 38.2305 108.24 38.6385 108.048C38.1825 107.7 37.6545 107.394 37.0545 107.13C36.4665 106.854 35.7705 106.632 34.9665 106.464L35.5245 105.24L35.5605 105.582H33.9225V104.304H45.5505ZM42.2745 105.582H36.5325L36.1545 105.42C36.6585 105.54 37.1625 105.732 37.6665 105.996C38.1825 106.26 38.6565 106.548 39.0885 106.86C39.5325 107.16 39.8865 107.448 40.1505 107.724L40.2405 108.732C39.8085 108.924 39.3525 109.134 38.8725 109.362C38.4045 109.59 37.9485 109.818 37.5045 110.046C37.0725 110.274 36.6885 110.502 36.3525 110.73L36.1365 110.46C37.1685 110.604 38.0685 110.844 38.8365 111.18C39.6165 111.516 40.3065 111.924 40.9065 112.404C41.5065 112.884 42.0585 113.418 42.5625 114.006L42.3285 114.078C42.3165 113.826 42.3045 113.556 42.2925 113.268C42.2805 112.968 42.2745 112.686 42.2745 112.422V105.582ZM37.3425 115.608C37.0425 115.608 36.7845 115.512 36.5685 115.32C36.3645 115.128 36.2625 114.876 36.2625 114.564C36.2625 114.252 36.3645 113.994 36.5685 113.79C36.7845 113.586 37.0425 113.484 37.3425 113.484C37.6425 113.484 37.8945 113.586 38.0985 113.79C38.3145 113.994 38.4225 114.252 38.4225 114.564C38.4225 114.876 38.3145 115.128 38.0985 115.32C37.8945 115.512 37.6425 115.608 37.3425 115.608ZM40.2221 120.288C39.8981 120.288 39.5441 120.216 39.1601 120.072C38.7761 119.94 38.4521 119.724 38.1881 119.424C37.9121 119.124 37.7741 118.722 37.7741 118.218C37.7741 117.606 38.0081 117.114 38.4761 116.742C38.9441 116.382 39.5981 116.202 40.4381 116.202C41.1821 116.202 41.9021 116.334 42.5981 116.598C43.2821 116.874 43.9841 117.252 44.7041 117.732C45.4121 118.212 46.1681 118.77 46.9721 119.406L46.1621 120.378C45.3581 119.706 44.6261 119.148 43.9661 118.704C43.3061 118.26 42.6821 117.924 42.0941 117.696C41.5061 117.468 40.9241 117.354 40.3481 117.354C39.9161 117.354 39.5921 117.438 39.3761 117.606C39.1601 117.774 39.0521 117.99 39.0521 118.254C39.0521 118.59 39.1721 118.824 39.4121 118.956C39.6401 119.1 39.9101 119.172 40.2221 119.172C40.6661 119.172 41.0261 119.076 41.3021 118.884C41.5661 118.704 41.7701 118.476 41.9141 118.2C42.0581 117.924 42.1541 117.636 42.2021 117.336C42.2501 117.048 42.2741 116.79 42.2741 116.562V115.356H43.6601V116.31C43.6601 116.646 43.6241 117.036 43.5521 117.48C43.4681 117.936 43.3121 118.374 43.0841 118.794C42.8441 119.226 42.4961 119.58 42.0401 119.856C41.5841 120.144 40.9781 120.288 40.2221 120.288ZM88.2893 104.304V105.582H86.3993V115.5H85.0133V105.582H83.1413V104.304H84.7973C84.6053 104.076 84.4073 103.83 84.2033 103.566C84.0113 103.302 83.8373 103.044 83.6813 102.792C84.1613 102.084 84.6773 101.442 85.2293 100.866C85.7933 100.29 86.4473 99.834 87.1913 99.498C87.9473 99.162 88.8473 98.994 89.8913 98.994C90.6713 98.994 91.4033 99.072 92.0873 99.228C92.7833 99.372 93.4613 99.588 94.1213 99.876C94.7813 100.164 95.4473 100.506 96.1193 100.902C96.7913 101.298 97.4933 101.748 98.2253 102.252L97.5053 103.26C96.7373 102.756 96.0413 102.318 95.4173 101.946C94.8053 101.574 94.2173 101.268 93.6533 101.028C93.0893 100.788 92.5193 100.608 91.9433 100.488C91.3793 100.368 90.7613 100.308 90.0893 100.308C89.2613 100.308 88.5533 100.428 87.9653 100.668C87.3773 100.908 86.8673 101.232 86.4353 101.64C86.0033 102.048 85.6073 102.51 85.2473 103.026C85.3313 103.206 85.4573 103.404 85.6253 103.62C85.7933 103.836 85.9853 104.064 86.2013 104.304H88.2893ZM103.367 104.304V105.582H90.4425L90.1545 105.42C90.6585 105.54 91.1625 105.732 91.6665 105.996C92.1825 106.26 92.6565 106.548 93.0885 106.86C93.5325 107.16 93.8865 107.448 94.1505 107.724L94.2405 108.732C93.8085 108.924 93.3525 109.134 92.8725 109.362C92.4045 109.59 91.9485 109.818 91.5045 110.046C91.0725 110.274 90.6885 110.502 90.3525 110.73L90.1545 110.424C91.0905 110.616 91.9125 110.862 92.6205 111.162C93.3285 111.462 93.9645 111.822 94.5285 112.242C95.0925 112.662 95.6325 113.154 96.1485 113.718C96.1365 113.514 96.1245 113.304 96.1125 113.088C96.1125 112.872 96.1125 112.65 96.1125 112.422V106.32H96.3465C97.0065 106.32 97.6425 106.374 98.2545 106.482C98.8785 106.59 99.4545 106.77 99.9825 107.022C100.523 107.274 100.997 107.616 101.405 108.048C101.693 108.348 101.921 108.69 102.089 109.074C102.269 109.446 102.359 109.86 102.359 110.316C102.359 110.712 102.275 111.09 102.107 111.45C101.951 111.798 101.693 112.086 101.333 112.314C100.973 112.542 100.493 112.656 99.8925 112.656C99.7125 112.656 99.5325 112.65 99.3525 112.638C99.1845 112.626 99.0165 112.602 98.8485 112.566L98.9385 111.288C99.0105 111.3 99.1005 111.312 99.2085 111.324C99.3165 111.324 99.4305 111.324 99.5505 111.324C100.139 111.324 100.517 111.21 100.685 110.982C100.865 110.754 100.955 110.484 100.955 110.172C100.955 109.56 100.643 109.02 100.019 108.552C99.4065 108.084 98.5665 107.796 97.4985 107.688V115.5H96.1125C95.6205 114.828 95.0745 114.24 94.4745 113.736C93.8865 113.232 93.1965 112.812 92.4045 112.476C91.6245 112.128 90.6945 111.864 89.6145 111.684L88.9665 110.046C89.3385 109.794 89.7285 109.554 90.1365 109.326C90.5445 109.098 90.9585 108.876 91.3785 108.66C91.8105 108.444 92.2305 108.24 92.6385 108.048C92.1825 107.7 91.6545 107.394 91.0545 107.13C90.4665 106.854 89.7705 106.632 88.9665 106.464L89.5245 105.24L89.5605 105.582H87.9225V104.304H103.367ZM111.375 105.276V106.518L111.357 106.176C112.149 106.296 112.881 106.512 113.553 106.824C114.225 107.136 114.765 107.544 115.173 108.048C115.581 108.552 115.785 109.158 115.785 109.866C115.785 110.346 115.689 110.76 115.497 111.108C115.305 111.444 115.029 111.702 114.669 111.882C114.321 112.062 113.895 112.152 113.391 112.152C113.235 112.152 113.061 112.146 112.869 112.134C112.689 112.11 112.533 112.086 112.401 112.062L112.509 110.766C112.569 110.778 112.647 110.79 112.743 110.802C112.839 110.802 112.959 110.802 113.103 110.802C113.559 110.802 113.889 110.718 114.093 110.55C114.297 110.37 114.399 110.124 114.399 109.812C114.399 109.248 114.123 108.762 113.571 108.354C113.031 107.946 112.293 107.664 111.357 107.508L111.393 107.184V111.414L110.169 111.306L108.297 111.756C107.949 111.492 107.571 111.27 107.163 111.09C106.767 110.898 106.353 110.742 105.921 110.622C105.489 110.49 105.039 110.4 104.571 110.352L103.887 108.75C104.571 108.378 105.285 108.03 106.029 107.706C106.785 107.37 107.529 107.07 108.261 106.806C109.005 106.53 109.701 106.314 110.349 106.158L110.007 106.878V105.51L111.375 105.276ZM110.007 106.968L110.331 107.49C109.971 107.586 109.575 107.706 109.143 107.85C108.711 107.994 108.267 108.156 107.811 108.336C107.367 108.516 106.929 108.702 106.497 108.894C106.065 109.086 105.669 109.284 105.309 109.488L105.183 109.218C105.759 109.302 106.281 109.434 106.749 109.614C107.217 109.794 107.655 110.004 108.063 110.244C108.471 110.472 108.861 110.73 109.233 111.018L110.007 110.784V106.968ZM116.757 104.304V105.582H103.005V104.304H116.757ZM111.393 110.262V116.274H110.007C109.563 115.806 109.101 115.434 108.621 115.158C108.153 114.87 107.661 114.642 107.145 114.474C106.629 114.306 106.083 114.174 105.507 114.078L104.859 112.62C105.303 112.356 105.819 112.08 106.407 111.792C107.007 111.492 107.625 111.21 108.261 110.946C108.897 110.67 109.479 110.442 110.007 110.262H111.393ZM110.007 111.54C109.623 111.684 109.197 111.858 108.729 112.062C108.261 112.266 107.811 112.47 107.379 112.674C106.947 112.878 106.581 113.064 106.281 113.232L106.479 113.088C107.151 113.244 107.781 113.454 108.369 113.718C108.969 113.982 109.533 114.348 110.061 114.816C110.049 114.612 110.037 114.378 110.025 114.114C110.013 113.85 110.007 113.64 110.007 113.484V111.54ZM107.951 121.062C107.627 121.062 107.273 120.99 106.889 120.846C106.505 120.714 106.181 120.498 105.917 120.198C105.641 119.898 105.503 119.496 105.503 118.992C105.503 118.38 105.737 117.888 106.205 117.516C106.673 117.156 107.327 116.976 108.167 116.976C108.911 116.976 109.631 117.108 110.327 117.372C111.011 117.648 111.713 118.026 112.433 118.506C113.141 118.986 113.897 119.544 114.701 120.18L113.891 121.152C113.087 120.48 112.355 119.922 111.695 119.478C111.035 119.034 110.411 118.698 109.823 118.47C109.235 118.242 108.653 118.128 108.077 118.128C107.645 118.128 107.321 118.212 107.105 118.38C106.889 118.548 106.781 118.764 106.781 119.028C106.781 119.364 106.901 119.598 107.141 119.73C107.369 119.874 107.639 119.946 107.951 119.946C108.395 119.946 108.755 119.85 109.031 119.658C109.295 119.478 109.499 119.25 109.643 118.974C109.787 118.698 109.883 118.41 109.931 118.11C109.979 117.822 110.003 117.564 110.003 117.336V116.13H111.389V117.084C111.389 117.42 111.353 117.81 111.281 118.254C111.197 118.71 111.041 119.148 110.813 119.568C110.573 120 110.225 120.354 109.769 120.63C109.313 120.918 108.707 121.062 107.951 121.062ZM127.631 104.304V105.582H125.741V115.5H124.355V111.126L124.643 112.134C124.247 111.582 123.815 111.084 123.347 110.64C122.879 110.196 122.399 109.842 121.907 109.578C121.415 109.314 120.935 109.182 120.467 109.182C120.023 109.182 119.645 109.302 119.333 109.542C119.033 109.77 118.883 110.112 118.883 110.568C118.883 110.928 119.009 111.24 119.261 111.504C119.513 111.756 119.903 111.984 120.431 112.188L119.747 113.466C119.015 113.166 118.439 112.764 118.019 112.26C117.611 111.744 117.407 111.162 117.407 110.514C117.407 109.926 117.545 109.44 117.821 109.056C118.109 108.66 118.469 108.366 118.901 108.174C119.345 107.982 119.795 107.886 120.251 107.886C120.875 107.886 121.445 107.994 121.961 108.21C122.477 108.426 122.957 108.72 123.401 109.092C123.857 109.464 124.289 109.896 124.697 110.388L124.445 110.46C124.409 110.184 124.385 109.914 124.373 109.65C124.361 109.374 124.355 109.098 124.355 108.822V105.582H116.399V104.304H127.631Z" fill="#F5F9FA"/>
<path d="M47.5841 109.848C48.3401 110.304 49.0541 110.85 49.7261 111.486C50.4101 112.11 51.0281 112.782 51.5801 113.502C52.1441 114.222 52.6181 114.936 53.0021 115.644L51.8321 116.238C51.3401 115.482 50.8481 114.804 50.3561 114.204C49.8761 113.592 49.3421 113.028 48.7541 112.512C48.1781 111.996 47.4881 111.492 46.6841 111L47.5841 109.848ZM46.7741 106.752C46.7741 106.26 46.8821 105.834 47.0981 105.474C47.3261 105.102 47.6321 104.814 48.0161 104.61C48.4001 104.406 48.8321 104.304 49.3121 104.304C49.7921 104.304 50.2241 104.406 50.6081 104.61C50.9921 104.814 51.2921 105.102 51.5081 105.474C51.7361 105.834 51.8501 106.26 51.8501 106.752C51.8501 107.244 51.7361 107.676 51.5081 108.048C51.2921 108.42 50.9921 108.708 50.6081 108.912C50.2241 109.116 49.7921 109.218 49.3121 109.218C48.8321 109.218 48.4001 109.116 48.0161 108.912C47.6321 108.708 47.3261 108.426 47.0981 108.066C46.8821 107.694 46.7741 107.256 46.7741 106.752ZM48.0161 106.752C48.0161 107.16 48.1361 107.478 48.3761 107.706C48.6281 107.934 48.9401 108.048 49.3121 108.048C49.6961 108.048 50.0081 107.934 50.2481 107.706C50.4881 107.466 50.6081 107.148 50.6081 106.752C50.6081 106.344 50.4881 106.032 50.2481 105.816C50.0081 105.588 49.6961 105.474 49.3121 105.474C48.9401 105.474 48.6281 105.594 48.3761 105.834C48.1361 106.062 48.0161 106.368 48.0161 106.752ZM54.4404 114.445C54.4404 114.117 54.5518 113.842 54.7744 113.619C54.9971 113.391 55.2988 113.276 55.6797 113.276C56.0664 113.276 56.3682 113.391 56.585 113.619C56.8076 113.842 56.9189 114.117 56.9189 114.445C56.9189 114.773 56.8076 115.049 56.585 115.271C56.3682 115.494 56.0664 115.605 55.6797 115.605C55.2988 115.605 54.9971 115.494 54.7744 115.271C54.5518 115.049 54.4404 114.773 54.4404 114.445ZM59.4502 114.445C59.4502 114.117 59.5615 113.842 59.7842 113.619C60.0068 113.391 60.3086 113.276 60.6895 113.276C61.0762 113.276 61.3779 113.391 61.5947 113.619C61.8174 113.842 61.9287 114.117 61.9287 114.445C61.9287 114.773 61.8174 115.049 61.5947 115.271C61.3779 115.494 61.0762 115.605 60.6895 115.605C60.3086 115.605 60.0068 115.494 59.7842 115.271C59.5615 115.049 59.4502 114.773 59.4502 114.445ZM64.46 114.445C64.46 114.117 64.5713 113.842 64.7939 113.619C65.0166 113.391 65.3184 113.276 65.6992 113.276C66.0859 113.276 66.3877 113.391 66.6045 113.619C66.8271 113.842 66.9385 114.117 66.9385 114.445C66.9385 114.773 66.8271 115.049 66.6045 115.271C66.3877 115.494 66.0859 115.605 65.6992 115.605C65.3184 115.605 65.0166 115.494 64.7939 115.271C64.5713 115.049 64.46 114.773 64.46 114.445ZM69.4697 114.445C69.4697 114.117 69.5811 113.842 69.8037 113.619C70.0264 113.391 70.3281 113.276 70.709 113.276C71.0957 113.276 71.3975 113.391 71.6143 113.619C71.8369 113.842 71.9482 114.117 71.9482 114.445C71.9482 114.773 71.8369 115.049 71.6143 115.271C71.3975 115.494 71.0957 115.605 70.709 115.605C70.3281 115.605 70.0264 115.494 69.8037 115.271C69.5811 115.049 69.4697 114.773 69.4697 114.445ZM74.4795 114.445C74.4795 114.117 74.5908 113.842 74.8135 113.619C75.0361 113.391 75.3379 113.276 75.7188 113.276C76.1055 113.276 76.4072 113.391 76.624 113.619C76.8467 113.842 76.958 114.117 76.958 114.445C76.958 114.773 76.8467 115.049 76.624 115.271C76.4072 115.494 76.1055 115.605 75.7188 115.605C75.3379 115.605 75.0361 115.494 74.8135 115.271C74.5908 115.049 74.4795 114.773 74.4795 114.445ZM79.4893 114.445C79.4893 114.117 79.6006 113.842 79.8232 113.619C80.0459 113.391 80.3477 113.276 80.7285 113.276C81.1152 113.276 81.417 113.391 81.6338 113.619C81.8564 113.842 81.9678 114.117 81.9678 114.445C81.9678 114.773 81.8564 115.049 81.6338 115.271C81.417 115.494 81.1152 115.605 80.7285 115.605C80.3477 115.605 80.0459 115.494 79.8232 115.271C79.6006 115.049 79.4893 114.773 79.4893 114.445Z" fill="#FFCA3A"/>
<path d="M87.8223 20.3696L93.2735 25.8214L98.7587 20.3696L93.2735 14.9517L87.8223 20.3696Z" fill="#F5F9FA"/>
<path d="M134.062 51.4501L135.175 51.5219C139.474 51.8665 144.009 50.9572 148.78 48.7941C149.521 47.9364 149.577 46.6472 148.947 44.9268C148.317 43.2064 148.038 41.8684 148.112 40.9126C148.089 40.4448 148.219 39.7569 148.503 38.8489C148.786 37.9384 149.212 36.7838 149.782 35.3853L150.078 35.4231C150.078 35.4231 150.473 36.6141 151.262 38.9961C151.905 40.9353 152.128 42.9978 151.93 45.1836C151.784 46.8537 151.389 48.6721 150.746 50.639C148.916 56.1901 143.355 58.928 134.062 58.8525C133.569 58.435 133.204 57.8578 132.969 57.1208C132.734 56.3839 132.622 55.6355 132.635 54.8759C132.648 54.1138 132.778 53.4132 133.026 52.7744C133.271 52.1355 133.617 51.694 134.062 51.4501ZM145.777 61.9877L151.228 67.3301L145.777 72.8535L140.66 68.0281L135.953 72.7819L130.578 67.4017L135.953 61.9122L140.922 66.8131L145.777 61.9877ZM148.077 19.547C148.077 20.9479 147.694 22.3238 146.927 23.6744C146.16 25.0251 145.011 26.3885 143.48 27.7644C142.071 29.0169 140.661 30.0305 139.252 30.8051C137.844 31.5773 136.399 32.0994 134.916 32.371C134.742 32.371 134.655 32.2967 134.655 32.1483C134.655 31.5849 134.909 31.0454 135.417 30.5297C135.924 30.0141 136.56 29.5224 137.327 29.0546C138.24 28.4887 139.012 27.9605 139.643 27.4701C140.273 26.9796 140.785 26.5255 141.18 26.108L141.108 25.7382C139.946 24.4378 139.365 22.9274 139.365 21.207C139.365 20.5179 139.488 19.811 139.734 19.0866C139.982 18.3623 140.328 17.7059 140.774 17.1173C141.217 16.5288 141.735 16.0434 142.33 15.6611C142.922 15.2813 143.577 15.0914 144.293 15.0914C146.816 15.0914 148.077 16.5765 148.077 19.547ZM145.887 22.2032C146.135 21.8586 146.259 21.4774 146.259 21.0599C146.259 20.6901 146.167 20.3582 145.982 20.0639C145.797 19.7697 145.562 19.5181 145.276 19.3093C144.993 19.1006 144.671 18.9408 144.312 18.8301C143.955 18.7194 143.59 18.6641 143.218 18.6641C141.811 18.6641 141.108 19.1924 141.108 20.2488C141.108 20.6186 141.194 20.9568 141.366 21.2637C141.538 21.5705 141.767 21.8347 142.053 22.056C142.337 22.2749 142.658 22.4522 143.017 22.588C143.374 22.7238 143.726 22.7918 144.073 22.7918C144.715 22.7918 145.32 22.5956 145.887 22.2032ZM124.781 8.80575C124.781 9.54271 124.657 10.2797 124.409 11.0166C124.163 11.7536 123.824 12.4352 123.392 13.0615C122.959 13.6878 122.439 14.2526 121.831 14.7556C121.226 15.2587 120.566 15.6572 119.85 15.9514C119.726 16.0017 119.336 16.076 118.681 16.1741C118.028 16.2722 117.305 16.3766 116.513 16.4873C115.723 16.598 114.976 16.6898 114.27 16.7627C113.566 16.8356 113.103 16.8721 112.88 16.8721C112.212 16.8721 111.878 16.6885 111.878 16.3213C111.878 15.8786 113.498 15.08 116.737 13.9255C118.342 13.3621 119.478 12.9019 120.146 12.5447C120.814 12.1876 121.148 11.8743 121.148 11.6052C121.148 10.574 118.949 10.0094 114.55 9.9113L114.251 9.61701C114.549 9.12402 114.92 8.50269 115.363 7.75316C115.808 7.00613 116.34 6.11572 116.957 5.08196C117.354 4.93607 117.862 4.8632 118.479 4.8632C119.269 4.8632 120.041 4.9613 120.795 5.15749C121.549 5.35368 122.216 5.63024 122.795 5.9874C123.378 6.34205 123.847 6.75969 124.204 7.2401C124.563 7.718 124.756 8.23982 124.781 8.80575ZM97.7832 62.6254C97.6617 62.8718 97.4087 63.4252 97.024 64.2854C96.6419 65.1456 96.1293 66.324 95.4865 67.8206C92.0017 70.1069 87.1453 72.8333 80.9172 76C81.0412 75.6076 81.288 74.9814 81.6575 74.1212C82.0295 73.2635 82.5001 72.1467 83.0695 70.7709C85.3168 69.5183 87.6641 68.2217 90.1113 66.8811C92.5585 65.543 95.1158 64.1244 97.7832 62.6254ZM67.0616 54.9853C63.0807 57.5634 58.8418 58.8525 54.3447 58.8525C54.1979 58.7544 54.0498 58.5645 53.9005 58.2828C53.7512 58.0011 53.6272 57.6689 53.5285 57.2866C53.4298 56.9068 53.3501 56.4894 53.2893 56.0342C53.226 55.5814 53.1944 55.1337 53.1944 54.691C53.1944 53.9792 53.2817 53.3165 53.4564 52.7028C53.6285 52.0865 53.9246 51.6439 54.3447 51.3748C55.3342 51.5232 56.2111 51.5972 56.9753 51.5972C57.9648 51.5972 58.8367 51.4678 59.5908 51.2087C60.345 50.9522 61.0182 50.6263 61.6104 50.2314L61.4243 49.8996C61.4243 49.7789 61.3877 49.472 61.3143 48.979C61.2409 48.4885 61.1055 47.8132 60.9081 46.953C60.8322 46.6084 60.7638 46.2763 60.7031 45.9568C60.6423 45.6399 60.6234 45.3456 60.6462 45.074C60.6462 44.9507 60.6462 44.8339 60.6462 44.7233C60.6462 44.6126 60.6588 44.4967 60.6841 44.376C61.1548 41.1817 61.5623 39.1922 61.9065 38.4075C62.3266 37.3737 62.9567 36.5877 63.7969 36.0494C64.6371 35.5087 65.6874 35.2382 66.9477 35.2382C67.9372 35.2382 68.8709 35.398 69.7491 35.7174C70.6247 36.0368 71.3903 36.4783 72.0458 37.0417C72.7012 37.6076 73.22 38.2892 73.6022 39.0866C73.9868 39.8864 74.1792 40.7642 74.1792 41.72C74.1792 41.9187 74.0678 42.7916 73.8451 44.3385C73.6224 45.8853 73.1404 47.9967 72.3989 50.6729C73.8313 51.264 75.5242 51.5597 77.478 51.5597C78.1208 51.5597 78.8003 51.523 79.5165 51.4501C79.7873 51.5708 80.0036 51.9997 80.1656 52.7366C80.325 53.4736 80.4047 54.2848 80.4047 55.1702C80.4047 55.9323 80.3377 56.6566 80.2036 57.3433C80.0669 58.0299 79.8379 58.5331 79.5165 58.8525C78.5523 58.8525 77.4526 58.743 76.2177 58.5241C74.9827 58.3028 73.7717 58.0073 72.5848 57.6376C71.3979 57.2704 70.3097 56.8529 69.3202 56.3851C68.3333 55.9198 67.5804 55.4531 67.0616 54.9853ZM71.9167 45.8097V45.5154C71.7446 45.0752 71.4296 44.6578 70.9715 44.2629C70.5135 43.8706 69.9883 43.5335 69.3961 43.2518C68.8039 42.9676 68.1927 42.7461 67.5626 42.5877C66.9325 42.4267 66.3568 42.3463 65.8354 42.3463C64.5271 42.3463 63.7248 42.7399 63.4287 43.5272C63.4768 43.8466 63.6615 44.239 63.9829 44.7044C64.3043 45.1722 64.6878 45.6211 65.1332 46.0513C65.5786 46.4814 66.0353 46.8497 66.5035 47.1566C66.9742 47.4634 67.3829 47.6169 67.7297 47.6169C67.9017 47.6169 68.2104 47.5428 68.6559 47.3944C69.0987 47.2486 69.5493 47.071 70.0073 46.8623C70.4654 46.6535 70.8855 46.4512 71.2676 46.255C71.6523 46.0563 71.8686 45.9078 71.9167 45.8097ZM72.3609 21.309L77.8121 26.6512L72.3609 32.1785L67.2475 27.3531L62.5366 32.1069L57.1614 26.7267L62.5366 21.2372L67.5057 26.1381L72.3609 21.309ZM68.3597 4.45561C68.3597 5.85659 67.9764 7.23239 67.2096 8.58307C66.4428 9.93375 65.2938 11.2972 63.7627 12.673C62.3531 13.9256 60.9435 14.9391 59.5339 15.7138C58.1269 16.486 56.6818 17.008 55.1988 17.2797C55.0242 17.2797 54.9369 17.2054 54.9369 17.057C54.9369 16.4936 55.1912 15.954 55.6999 15.4384C56.206 14.9228 56.8424 14.4311 57.6093 13.9632C58.5228 13.3973 59.2948 12.8692 59.9249 12.3787C60.5551 11.8882 61.0675 11.4342 61.4623 11.0166L61.3902 10.6468C60.2286 9.34643 59.6478 7.83608 59.6478 6.11567C59.6478 5.42649 59.7705 4.71967 60.016 3.99529C60.264 3.2709 60.6108 2.61453 61.0562 2.02597C61.499 1.4374 62.0179 0.952017 62.6126 0.569702C63.2048 0.189903 63.8589 0 64.5751 0C67.0983 0 68.3597 1.48513 68.3597 4.45561ZM66.1694 7.11184C66.4174 6.76725 66.5414 6.38605 66.5414 5.96852C66.5414 5.59878 66.449 5.26686 66.2643 4.97258C66.0796 4.67829 65.8443 4.42673 65.5583 4.21796C65.2749 4.0092 64.9535 3.84943 64.5941 3.73876C64.2373 3.62809 63.8728 3.57273 63.5008 3.57273C62.0937 3.57273 61.3902 4.10109 61.3902 5.15749C61.3902 5.52723 61.4763 5.86546 61.6484 6.17231C61.8205 6.47917 62.0495 6.74335 62.3355 6.96469C62.6189 7.18352 62.9403 7.36081 63.2997 7.49663C63.6565 7.63245 64.0082 7.70042 64.3549 7.70042C64.9977 7.70042 65.6025 7.50421 66.1694 7.11184ZM51.6001 58.8903C50.8359 61.0534 50.0273 62.951 49.1744 64.5834C48.3216 66.2158 47.3017 67.5853 46.1148 68.692C44.9279 69.7962 43.5195 70.6249 41.8897 71.1783C40.2574 71.7316 38.2797 72.0084 35.9565 72.0084C35.8097 72.0084 35.6553 72.0021 35.4933 71.9895C35.3339 71.9769 35.1669 71.9706 34.9923 71.9706C34.8708 71.9958 34.5557 72.0448 34.047 72.1178C33.5409 72.1907 32.9424 72.2272 32.2515 72.2272C31.7074 72.2272 31.386 72.1417 31.2873 71.9706V71.567C31.3126 71.3934 34.2292 69.7962 40.0372 66.7754C45.6225 63.8527 48.538 61.618 48.7834 60.0711L48.5632 59.7391C47.9457 59.6158 47.2042 59.475 46.3387 59.3165C45.4732 59.1555 44.4724 58.9771 43.3361 58.7809C40.8155 58.0439 39.5552 56.0543 39.5552 52.8121C39.5552 52.0752 39.6475 51.3018 39.8323 50.4919C40.017 49.6795 40.2575 48.9236 40.5536 48.2244C40.8522 47.5251 41.1988 46.929 41.5936 46.436C41.9884 45.9456 42.4085 45.6386 42.8539 45.5154C43.15 45.4425 43.5208 45.406 43.9662 45.406C45.1531 45.406 46.197 45.6702 47.098 46.1984C47.9989 46.7266 48.7707 47.5918 49.4135 48.7941C49.5882 49.36 49.9349 49.9372 50.4537 50.5257L50.6738 51.337C51.2432 51.3873 51.7747 51.4301 52.2682 51.4653C52.7643 51.503 53.2463 51.5219 53.7145 51.5219C53.9119 51.5219 54.1156 51.5156 54.3257 51.503C54.5357 51.4905 54.7395 51.4727 54.9369 51.4501C55.481 51.5708 55.8834 51.9997 56.144 52.7366C56.4022 53.4736 56.5312 54.2722 56.5312 55.1324C56.5312 56.5812 56.2782 57.6075 55.772 58.2112C55.2659 58.8123 54.432 59.1127 53.2704 59.1127C53.0224 59.1127 52.7693 59.1001 52.5112 59.075C52.2505 59.0498 51.9469 58.9884 51.6001 58.8903ZM48.8593 27.6699C48.8593 28.4069 48.7353 29.1439 48.4873 29.8808C48.2419 30.6178 47.9027 31.2994 47.47 31.9257C47.0372 32.552 46.5171 33.1168 45.9097 33.6198C45.3049 34.1229 44.6445 34.5214 43.9283 34.8156C43.8043 34.8659 43.4145 34.9402 42.759 35.0383C42.1061 35.1364 41.3835 35.2408 40.5914 35.3515C39.8018 35.4622 39.0541 35.554 38.3481 35.6269C37.6445 35.6998 37.1813 35.7363 36.9586 35.7363C36.2905 35.7363 35.9565 35.5527 35.9565 35.1855C35.9565 34.7428 37.5762 33.9442 40.8155 32.7897C42.42 32.2263 43.5562 31.7661 44.2243 31.4089C44.8924 31.0518 45.2265 30.7385 45.2265 30.4694C45.2265 29.4382 43.0273 28.8736 38.6289 28.7755L38.3291 28.4812C38.6277 27.9882 38.9984 27.3669 39.4413 26.6174C39.8867 25.8703 40.4181 24.9799 41.0356 23.9462C41.4329 23.8003 41.9403 23.7274 42.5578 23.7274C43.3474 23.7274 44.1193 23.8255 44.8735 24.0217C45.6276 24.2179 46.2944 24.4944 46.8739 24.8516C47.456 25.2062 47.9255 25.6239 48.2823 26.1043C48.6416 26.5822 48.834 27.104 48.8593 27.6699ZM16.3839 29.4168L21.8693 35.091L16.3839 40.5051L10.9365 35.091L16.3839 29.4168ZM31.7314 45.0364V45.6625C31.7314 46.0801 31.7074 46.6638 31.6593 47.4133C31.6087 48.1629 31.5467 48.9248 31.4733 49.6995C31.3974 50.4717 31.3227 51.1773 31.2493 51.8162C31.1759 52.4551 31.114 52.8599 31.0634 53.0309C30.6433 54.4067 30.0321 55.7702 29.2298 57.1208C28.4276 58.474 27.5064 59.7216 26.4663 60.8635C25.4287 62.0054 24.2987 62.9937 23.0764 63.8288C21.8515 64.6638 20.6342 65.2412 19.4245 65.5607C17.7442 66.0034 16.1751 66.2246 14.7174 66.2246C12.617 66.2246 10.6708 65.8184 8.8791 65.0059C7.08735 64.196 5.52963 63.073 4.20606 61.6368C2.88503 60.1981 1.85375 58.503 1.11225 56.5511C0.370747 54.5993 0 52.4688 0 50.1598C0 48.9299 0.154409 47.6157 0.463157 46.2173C0.771904 44.8163 1.17297 43.4895 1.66646 42.237C2.15995 40.9844 2.71672 39.8978 3.33674 38.9772C3.95424 38.0566 4.58445 37.4605 5.22725 37.1889H5.29931C5.34992 37.1889 5.39293 37.2316 5.42836 37.3171C5.46632 37.4052 5.48536 37.5096 5.48536 37.6303C5.48536 37.7535 5.46127 37.9019 5.41319 38.0754C5.36257 38.2465 5.32462 38.3572 5.29931 38.4075C3.2722 42.5324 2.25867 45.7255 2.25867 47.9867C2.25867 49.5336 2.61167 50.9823 3.31774 52.3329C4.02128 53.6836 4.9602 54.8684 6.13445 55.887C7.3087 56.9082 8.66772 57.7068 10.2115 58.2828C11.7577 58.8613 13.371 59.1505 15.0514 59.1505C19.5738 59.1505 23.3421 57.664 26.3561 54.691C28.8767 52.1858 30.137 49.9511 30.137 47.9867C30.137 47.0511 29.6436 45.4538 28.6566 43.1951C27.6671 40.9365 27.1724 39.0942 27.1724 37.6681C27.1724 37.497 27.185 37.2265 27.2103 36.8568C27.2331 36.4896 27.2698 36.1098 27.3205 35.7174C27.3711 35.3225 27.4457 34.978 27.5444 34.6837C27.6431 34.3894 27.7532 34.2422 27.8747 34.2422C28.2948 34.2422 29.1236 36.1086 30.3611 39.8412C30.7812 41.1692 31.1089 42.2633 31.3443 43.1235C31.5771 43.9812 31.7061 44.6189 31.7314 45.0364ZM21.9375 11.4127C21.8135 11.6592 21.5605 12.2126 21.1784 13.0728C20.7937 13.9305 20.2812 15.1089 19.6409 16.608C16.1561 18.8918 11.2997 21.6184 5.07155 24.7876C5.19303 24.3952 5.4398 23.7687 5.81182 22.9085C6.1813 22.0483 6.65076 20.9304 7.22017 19.5546C9.46998 18.302 11.8184 17.0068 14.2656 15.6687C16.7103 14.3306 19.2676 12.9118 21.9375 11.4127Z" fill="#F5F9FA"/>
<path d="M124.617 57.5002L124.059 57.24C121.984 56.1107 120.749 55.0668 120.355 54.1085C118.97 55.1397 117.432 56.0666 115.738 56.8891C114.045 57.7141 112.309 58.4209 110.53 59.0095C110.381 59.0598 110.096 59.1275 109.676 59.213C109.256 59.2985 108.514 59.3654 107.452 59.4131C107.305 59.3905 107.15 59.2433 106.989 58.9717C106.829 58.7026 106.687 58.3718 106.563 57.9794C106.439 57.5846 106.334 57.1482 106.248 56.6703C106.162 56.1899 106.119 55.7043 106.119 55.2138C106.119 54.5272 106.218 53.8883 106.415 53.2972C106.613 52.7087 106.958 52.2798 107.452 52.0107C113.434 51.641 117.277 50.2525 118.98 47.8455C120.266 46.027 120.971 45.1178 121.095 45.1178C121.244 45.4624 121.355 46.0648 121.429 46.9251C121.798 47.5891 122.287 48.1852 122.894 48.7134C123.499 49.2391 124.283 49.7118 125.248 50.1319C126.212 50.5494 127.397 50.9117 128.805 51.2185C130.214 51.5254 131.907 51.7894 133.884 52.0107C134.23 52.1566 134.509 52.5981 134.719 53.335C134.929 54.072 135.034 54.8706 135.034 55.7308C135.034 56.5155 134.941 57.2588 134.757 57.9606C134.572 58.6598 134.281 59.144 133.884 59.4131C132.821 59.4131 131.487 59.2849 129.883 59.0284C128.276 58.7693 126.521 58.2598 124.617 57.5002ZM120.688 36.2025L115.237 30.7509L120.688 25.333L126.174 30.7509L120.688 36.2025Z" fill="#FFCA3A"/>
<path d="M93.6342 55.2139C89.6534 57.792 85.4144 59.0811 80.9173 59.0811C80.7705 58.983 80.6225 58.7931 80.4731 58.5114C80.3238 58.2297 80.1999 57.8976 80.1012 57.5152C80.0025 57.1354 79.9227 56.718 79.8619 56.2628C79.7987 55.81 79.7671 55.3623 79.7671 54.9196C79.7671 54.2078 79.8544 53.5451 80.029 52.9314C80.2011 52.3151 80.4972 51.8725 80.9173 51.6034C81.9068 51.7518 82.7837 51.8258 83.548 51.8258C84.5375 51.8258 85.4093 51.6964 86.1634 51.4373C86.9176 51.1808 87.5908 50.8549 88.183 50.4601L87.997 50.1282C87.997 50.0075 87.9603 49.7006 87.8869 49.2076C87.8135 48.7171 87.6781 48.0418 87.4807 47.1816C87.4048 46.837 87.3364 46.5049 87.2757 46.1854C87.215 45.8685 87.196 45.5742 87.2188 45.3026C87.2188 45.1793 87.2188 45.0625 87.2188 44.9519C87.2188 44.8412 87.2314 44.7253 87.2567 44.6046C87.7274 41.4103 88.1349 39.4208 88.4791 38.6361C88.8992 37.6023 89.5293 36.8163 90.3695 36.2781C91.2097 35.7373 92.26 35.4668 93.5203 35.4668C94.5098 35.4668 95.4436 35.6266 96.3217 35.946C97.1974 36.2654 97.9629 36.7069 98.6184 37.2703C99.2739 37.8362 99.7927 38.5178 100.175 39.3152C100.559 40.115 100.752 40.9928 100.752 41.9486C100.752 42.1473 100.64 43.0202 100.418 44.5671C100.195 46.1139 99.713 48.2253 98.9715 50.9015C100.404 51.4926 102.097 51.7883 104.051 51.7883C104.693 51.7883 105.373 51.7516 106.089 51.6787C106.36 51.7994 106.576 52.2283 106.738 52.9652C106.898 53.7022 106.977 54.5134 106.977 55.3988C106.977 56.1609 106.91 56.8852 106.776 57.5719C106.64 58.2586 106.411 58.7617 106.089 59.0811C105.125 59.0811 104.025 58.9716 102.79 58.7528C101.555 58.5314 100.344 58.2359 99.1574 57.8662C97.9705 57.499 96.8824 57.0815 95.8929 56.6137C94.9059 56.1484 94.153 55.6817 93.6342 55.2139ZM98.4893 46.0383V45.744C98.3173 45.3038 98.0022 44.8864 97.5441 44.4915C97.0861 44.0992 96.5609 43.7621 95.9687 43.4804C95.3766 43.1962 94.7654 42.9747 94.1352 42.8163C93.5051 42.6553 92.9294 42.575 92.4081 42.575C91.0997 42.575 90.2974 42.9685 90.0013 43.7558C90.0494 44.0752 90.2342 44.4677 90.5556 44.933C90.877 45.4008 91.2604 45.8498 91.7058 46.2799C92.1512 46.71 92.608 47.0783 93.0762 47.3852C93.5469 47.692 93.9556 47.8455 94.3023 47.8455C94.4744 47.8455 94.7831 47.7715 95.2285 47.6231C95.6714 47.4772 96.1219 47.2997 96.58 47.0909C97.038 46.8821 97.4581 46.6798 97.8403 46.4837C98.2249 46.285 98.4413 46.1364 98.4893 46.0383Z" fill="#F5F9FA"/>
</svg>
